<?xml version="1.0" encoding="iso-8859-1"?>
<!-- Generator: Adobe Illustrator 19.0.0, SVG Export Plug-In . SVG Version: 6.00 Build 0)  -->
<svg version="1.1" id="Layer_1" xmlns="http://www.w3.org/2000/svg" xmlns:xlink="http://www.w3.org/1999/xlink" x="0px" y="0px"
	 viewBox="0 0 512 512" style="enable-background:new 0 0 512 512;" xml:space="preserve">
<polygon style="fill:#AC92EB;" points="376,34 337,15 296,15 256,39 233,15 195,15 163,15 122,44 106,87 137,170 198,241 256,284 
	314,237 394,143 401,79 "/>
<path d="M416,93.328C416,41.781,374.219,0,322.672,0C296.547,0,272.938,10.719,256,28.016C239.062,10.719,215.453,0,189.344,0
	C137.797,0,96,41.781,96,93.328c0,78.344,86.312,152.375,132.156,186.172c-0.391,0.281-0.766,0.594-1.125,0.953
	c-4.156,4.172-4.172,10.922,0,15.078c2.078,2.094,4.812,3.125,7.547,3.125h3.672c-3.016,6.703-6.203,15.062-8.484,24.344
	c-7.828,31.812-1.391,59.219,18.594,79.203c14.531,14.531,18.969,34.234,13.156,58.516c-4.672,19.5-14.359,34.656-14.453,34.797l0,0
	c-1.078,1.672-1.719,3.672-1.719,5.812c0,5.891,4.766,10.672,10.656,10.672c3.75,0,7.031-1.938,8.938-4.859h0.016
	c0.469-0.719,11.547-17.922,17.156-40.828c7.781-31.812,1.328-59.203-18.656-79.188c-14.531-14.531-18.938-34.219-13.094-58.516
	c3.109-12.922,8.422-23.953,11.688-29.953h15.188c2.734,0,5.469-1.031,7.547-3.125c4.172-4.156,4.172-10.906,0-15.078
	c-0.328-0.328-0.672-0.609-1.016-0.891C329.562,245.812,416,171.719,416,93.328z M321.844,220.031
	c-25.609,24.391-51.547,43.281-65.844,53.078c-14.297-9.797-40.234-28.688-65.828-53.078
	c-33.234-31.672-72.828-79.359-72.828-126.703c0-19.234,7.484-37.312,21.078-50.922c13.609-13.594,31.688-21.078,50.922-21.078
	c19.5,0,37.766,7.672,51.422,21.609L256,58.5l15.234-15.562c13.672-13.938,31.938-21.61,51.438-21.61
	c19.234,0,37.312,7.484,50.906,21.078c13.609,13.609,21.094,31.688,21.094,50.922C394.672,140.672,355.062,188.359,321.844,220.031z
	"/>
<g>
</g>
<g>
</g>
<g>
</g>
<g>
</g>
<g>
</g>
<g>
</g>
<g>
</g>
<g>
</g>
<g>
</g>
<g>
</g>
<g>
</g>
<g>
</g>
<g>
</g>
<g>
</g>
<g>
</g>
</svg>
