<?xml version="1.0" encoding="iso-8859-1"?>
<!-- Generator: Adobe Illustrator 19.0.0, SVG Export Plug-In . SVG Version: 6.00 Build 0)  -->
<svg version="1.1" id="Layer_1" xmlns="http://www.w3.org/2000/svg" xmlns:xlink="http://www.w3.org/1999/xlink" x="0px" y="0px"
	 viewBox="0 0 512 512" style="enable-background:new 0 0 512 512;" xml:space="preserve">
<path style="fill:#4FC2E9;" d="M307.66,8.672c0,0-96.664-3.656-98.328-4.328l-7.336,38l31.672,47h43.664l33-40.672L307.66,8.672z"/>
<path style="fill:#FFCE54;" d="M449.004,226.172l-35-54l-39-47l-68-23h-97l-52,11.344l-72,64l-31,96.656l14,102l63,81l107,38l81-10
	l94-57l45-104L449.004,226.172z M256.004,464.938c-91.828,0-166.266-74.422-166.266-166.25s74.438-166.281,166.266-166.281
	c91.812,0,166.25,74.453,166.25,166.281S347.816,464.938,256.004,464.938z"/>
<path d="M290.879,88.188l39.781-45.531L309.332,0H202.668l-21.336,42.656l39.867,45.516
	C119.934,104.781,42.668,192.688,42.668,298.656C42.668,416.484,138.176,512,256.004,512c117.812,0,213.328-95.516,213.328-213.344
	C469.332,192.719,392.098,104.844,290.879,88.188z M266.66,53.344h26.344l-26.344,30.14V53.344z M245.332,83.344l-26.289-30h26.289
	V83.344z M296.16,21.344L301.473,32H210.52l5.336-10.656H296.16z M391.754,434.438c-17.625,17.625-38.156,31.469-61.031,41.156
	c-23.656,10-48.797,15.062-74.719,15.062c-25.93,0-51.078-5.062-74.734-15.062c-22.859-9.688-43.391-23.531-61.031-41.156
	c-17.641-17.656-31.492-38.188-41.156-61.031c-10.008-23.672-15.078-48.812-15.078-74.75c0-25.922,5.07-51.062,15.078-74.719
	c9.664-22.859,23.516-43.406,41.156-61.031c17.641-17.641,38.172-31.5,61.031-41.156c23.656-10,48.805-15.094,74.734-15.094
	c25.922,0,51.062,5.094,74.719,15.094c22.875,9.656,43.406,23.516,61.031,41.156c17.656,17.625,31.5,38.172,41.156,61.031
	c10.016,23.656,15.094,48.797,15.094,74.719c0,25.938-5.078,51.078-15.094,74.75C423.254,396.25,409.41,416.781,391.754,434.438z"/>
<path d="M256.004,117.344c-100.148,0-181.336,81.172-181.336,181.312C74.668,398.812,155.855,480,256.004,480
	c100.141,0,181.328-81.188,181.328-181.344C437.332,198.516,356.145,117.344,256.004,117.344z M369.129,411.812
	c-14.688,14.688-31.812,26.234-50.859,34.281c-19.703,8.344-40.656,12.562-62.266,12.562s-42.562-4.219-62.273-12.562
	c-19.055-8.047-36.164-19.594-50.867-34.281c-14.703-14.719-26.242-31.812-34.297-50.875c-8.336-19.719-12.562-40.656-12.562-62.281
	c0-21.594,4.227-42.547,12.562-62.266c8.055-19.047,19.594-36.172,34.297-50.859c14.703-14.703,31.812-26.25,50.867-34.297
	c19.711-8.344,40.664-12.578,62.273-12.578s42.562,4.234,62.266,12.578c19.047,8.047,36.172,19.594,50.859,34.297
	c14.719,14.688,26.25,31.812,34.312,50.859c8.328,19.719,12.562,40.672,12.562,62.266c0,21.625-4.234,42.562-12.562,62.281
	C395.379,380,383.848,397.094,369.129,411.812z"/>
<g>
</g>
<g>
</g>
<g>
</g>
<g>
</g>
<g>
</g>
<g>
</g>
<g>
</g>
<g>
</g>
<g>
</g>
<g>
</g>
<g>
</g>
<g>
</g>
<g>
</g>
<g>
</g>
<g>
</g>
</svg>
