<?xml version="1.0" encoding="iso-8859-1"?>
<!-- Generator: Adobe Illustrator 19.0.0, SVG Export Plug-In . SVG Version: 6.00 Build 0)  -->
<svg version="1.1" id="Layer_1" xmlns="http://www.w3.org/2000/svg" xmlns:xlink="http://www.w3.org/1999/xlink" x="0px" y="0px"
	 viewBox="0 0 511.996 511.996" style="enable-background:new 0 0 511.996 511.996;" xml:space="preserve">
<g>
	<polygon style="fill:#EC87C0;" points="191.998,183.326 130.671,135.999 79.335,109.999 51.999,105.327 28.672,108.671 
		25.336,135.999 48.671,175.326 65.335,229.326 106.671,255.998 79.335,278.67 80.671,320.669 100.671,359.996 127.999,375.996 
		170.663,384.09 204.67,358.668 221.334,335.325 227.334,311.325 227.334,227.326 	"/>
	<polygon style="fill:#EC87C0;" points="319.342,183.326 380.653,135.999 431.996,109.999 459.34,105.327 482.652,108.671 
		485.996,135.999 462.652,175.326 445.996,229.326 404.652,255.998 431.996,278.67 430.652,320.669 410.652,359.996 
		383.341,375.996 340.67,384.09 306.654,358.668 289.998,335.325 283.998,311.325 283.998,227.326 	"/>
</g>
<path style="fill:#AC92EB;" d="M272.998,236.248h-35.5c0,0-2.5,79.999-2.5,81.749s10.25,18.25,10.25,18.25l17,1.5l13.75-10.5
	v-50.749L272.998,236.248z"/>
<path style="fill:#EAC6BB;" d="M272.654,212.826c0,10.406-8.422,18.828-18.828,18.828c-10.398,0-18.828-8.422-18.828-18.828
	c0-10.391,8.43-18.828,18.828-18.828C264.232,193.998,272.654,202.436,272.654,212.826z"/>
<path d="M181.334,85.343c5.891,0,10.664-4.781,10.664-10.688c0-5.875-4.773-10.656-10.664-10.656s-10.672,4.781-10.672,10.656
	C170.663,80.561,175.444,85.343,181.334,85.343z"/>
<path d="M10.664,42.655c5.891,0,10.672-4.781,10.672-10.656c0-5.905-4.781-10.655-10.672-10.655S0,26.094,0,31.999
	C0,37.874,4.773,42.655,10.664,42.655z"/>
<path d="M287.998,469.34c-5.891,0-10.656,4.75-10.656,10.656c0,5.875,4.766,10.656,10.656,10.656s10.656-4.781,10.656-10.656
	C298.654,474.09,293.889,469.34,287.998,469.34z"/>
<path d="M501.34,384.09c-5.906,0-10.688,4.781-10.688,10.688c0,5.875,4.781,10.656,10.688,10.656
	c5.875,0,10.656-4.781,10.656-10.656C511.996,388.871,507.215,384.09,501.34,384.09z"/>
<path d="M117.335,437.34v-10.688c0-5.875-4.781-10.656-10.672-10.656s-10.664,4.781-10.664,10.656v10.688
	c-5.89,0-10.664,4.75-10.664,10.656c0,5.875,4.773,10.656,10.664,10.656v10.688c0,5.875,4.773,10.656,10.664,10.656
	s10.672-4.781,10.672-10.656v-10.688c5.891,0,10.664-4.781,10.664-10.656C127.999,442.09,123.226,437.34,117.335,437.34z"/>
<path d="M330.654,74.655v10.688c0,5.875,4.781,10.656,10.687,10.656c5.875,0,10.656-4.781,10.656-10.656V74.655
	c5.891,0,10.656-4.781,10.656-10.656c0-5.906-4.766-10.656-10.656-10.656V42.655c0-5.875-4.781-10.656-10.656-10.656
	c-5.905,0-10.687,4.781-10.687,10.656v10.688c-5.875,0-10.656,4.75-10.656,10.656C319.998,69.874,324.779,74.655,330.654,74.655z"/>
<path d="M501.246,124.843c-1.031-14.344-12.656-22.875-13.969-23.812c-0.438-0.312-0.906-0.562-1.391-0.812
	c-1.234-0.625-8.016-3.656-20.547-3.656c-25.703,0-53.125,12.688-71.608,23.312c-32.453,18.688-67.968,48.155-105.827,87.718
	c-2.625-15.25-15.922-26.875-31.906-26.875s-29.281,11.625-31.906,26.875c-37.859-39.562-73.382-69.03-105.827-87.718
	c-18.477-10.626-45.906-23.314-71.617-23.314c-12.516,0-19.304,3.031-20.539,3.656c-0.484,0.25-0.945,0.5-1.383,0.812
	c-1.32,0.938-12.945,9.469-13.984,23.812c-0.891,12.219,6.461,21.906,12.789,27.844c34.281,32.312,33.968,75.78,33.562,84.155
	c-0.531,10.875,10.547,17.25,27.5,23.281c-9.812,7.656-18.555,18.625-16.695,32.718c4.18,31.625,15.117,57.78,31.648,75.624
	c15.953,17.188,36.297,26.281,58.835,26.312c0,0,0,0,0.008,0c4.492,0,9.086-0.406,13.641-1.125
	c24.859-4.094,45.453-20.531,59.554-47.531c0.617-1.188,1.203-2.375,1.773-3.531c0.234,0.219,0.469,0.438,0.711,0.688l-9.867,49.406
	c-1.148,5.781,2.602,11.375,8.375,12.531c0.703,0.156,1.406,0.219,2.102,0.219c4.977,0,9.438-3.5,10.445-8.594l8.969-44.906
	c0.633,0.031,1.266,0.062,1.906,0.062s1.273-0.031,1.906-0.062l8.969,44.906c1.008,5.094,5.469,8.594,10.438,8.594
	c0.703,0,1.406-0.062,2.109-0.219c5.766-1.156,9.516-6.75,8.375-12.531l-9.859-49.406c0.234-0.25,0.469-0.469,0.703-0.688
	c0.578,1.156,1.156,2.344,1.766,3.531c14.109,27,34.703,43.438,59.562,47.531c4.562,0.719,9.155,1.125,13.655,1.125
	c22.531,0,42.875-9.125,58.827-26.312c16.531-17.844,27.469-43.999,31.641-75.624c1.859-14.093-6.875-25.062-16.688-32.718
	c16.953-6.031,28.031-12.406,27.5-23.281c-0.406-8.375-0.719-51.844,33.562-84.155C494.793,146.749,502.152,137.061,501.246,124.843
	z M255.998,245.498c0.508,0,1.008-0.031,1.508-0.062c5.164,0.75,9.156,5.188,9.156,10.562v42.655h-21.328v-42.655
	c0-5.375,3.992-9.812,9.156-10.562C254.99,245.467,255.49,245.498,255.998,245.498z M266.662,319.997
	c0,5.875-4.781,10.656-10.664,10.656c-5.883,0-10.664-4.781-10.664-10.656H266.662z M255.998,202.06
	c6.094,0,11.055,4.938,11.055,11.031c0,5.594-4.156,10.188-9.523,10.938c-0.509-0.031-1.016-0.031-1.532-0.031
	c-0.516,0-1.023,0-1.531,0.031c-5.367-0.75-9.523-5.344-9.523-10.938C244.943,206.998,249.904,202.06,255.998,202.06z
	 M212.428,336.716c-11.008,20.843-25.758,32.905-43.852,35.874c-3.414,0.562-6.844,0.844-10.188,0.844c-0.008,0-0.008,0-0.008,0
	c-16.445,0-31.375-6.75-43.187-19.469c-13.508-14.593-22.554-36.687-26.148-63.905c-1.141-8.688,16.546-19.249,26.25-22.968
	c4.367-1.656,7.148-5.969,6.867-10.625c-0.273-4.656-3.547-8.594-8.078-9.719c-14.789-3.656-30.148-9.125-35.585-12.5
	c0.125-15.531-2.898-61.812-40.336-97.093c-2.938-2.75-6.383-6.844-6.148-10.688c0.188-3.25,2.836-6.062,4.219-7.312
	c1.539-0.469,4.984-1.281,10.414-1.281c11.586,0,31.578,3.562,60.968,20.5c34.977,20.155,74.117,53.905,116.382,100.405v10.625
	l-36.773,18.375c-5.266,2.656-7.398,9.062-4.766,14.312c1.867,3.75,5.633,5.906,9.547,5.906c1.602,0,3.234-0.375,4.766-1.125
	l27.226-13.624v31.405C223.279,308.122,220.076,322.216,212.428,336.716z M473.84,137.155
	c-37.453,35.312-40.469,81.562-40.344,97.093c-5.438,3.375-20.797,8.844-35.593,12.5c-4.531,1.125-7.797,5.062-8.062,9.719
	c-0.281,4.656,2.5,8.969,6.859,10.625c9.718,3.688,27.39,14.187,26.233,22.968c-3.578,27.219-12.625,49.312-26.124,63.905
	c-11.812,12.719-26.75,19.469-43.188,19.469c-3.359,0-6.781-0.281-10.203-0.844c-18.093-2.969-32.843-15.031-43.858-35.874
	c-7.656-14.531-10.844-28.594-11.562-32.062v-31.406l27.219,13.624c1.547,0.75,3.172,1.125,4.781,1.125
	c3.906,0,7.672-2.156,9.531-5.906c2.641-5.249,0.5-11.655-4.75-14.312l-36.781-18.375v-10.625
	c42.266-46.5,81.405-80.25,116.373-100.405c29.406-16.938,49.391-20.5,60.969-20.5c5.438,0,8.875,0.812,10.422,1.281
	c1.391,1.25,4.031,4.062,4.219,7.312C480.215,130.311,476.777,134.405,473.84,137.155z"/>
<g>
</g>
<g>
</g>
<g>
</g>
<g>
</g>
<g>
</g>
<g>
</g>
<g>
</g>
<g>
</g>
<g>
</g>
<g>
</g>
<g>
</g>
<g>
</g>
<g>
</g>
<g>
</g>
<g>
</g>
</svg>
