<?xml version="1.0" encoding="iso-8859-1"?>
<!-- Generator: Adobe Illustrator 19.0.0, SVG Export Plug-In . SVG Version: 6.00 Build 0)  -->
<svg version="1.1" id="Layer_1" xmlns="http://www.w3.org/2000/svg" xmlns:xlink="http://www.w3.org/1999/xlink" x="0px" y="0px"
	 viewBox="0 0 512 512" style="enable-background:new 0 0 512 512;" xml:space="preserve">
<polygon style="fill:#F6BB42;" points="114.665,408 70.001,448.672 110.665,500 157.337,448.672 "/>
<path style="fill:#FFCE54;" d="M444.001,101.328L409.345,78l-15.344-35.359L348.673,14h-24.672l-44.656,8.656l-34.672,30.672
	l-19.336,88l2,95l-164.664,161l-32.672,41.328l21.336,20l25.336-15.328L260.001,256h156l48.672-47.328l6-62.672L444.001,101.328z
	 M373.345,222.656l-86-4.672l-19.344-36l3.344-83.328l36.656-44h22.672l28,12l12,47.328l51.328,19.344l15.344,44L373.345,222.656z"
	/>
<path d="M431.235,126.656c-10.609-10.625-24.734-16.469-39.75-16.469c-0.188,0-0.391,0-0.578,0l-10.891,0.125l0.109-10.891
	c0.156-15.234-5.688-29.562-16.453-40.328c-10.609-10.625-24.734-16.453-39.766-16.453s-29.141,5.828-39.75,16.453
	c-19.75,19.75-29.211,55.125-27.336,102.312c0.781,19.656,3.43,37.688,5.523,49.344l2.625,14.609l14.609,2.625
	c11.641,2.078,29.672,4.734,49.328,5.516c3.875,0.156,7.703,0.234,11.422,0.234c41.438,0,72.875-9.531,90.906-27.578
	c10.609-10.594,16.453-24.719,16.453-39.75S441.845,137.266,431.235,126.656z M416.157,191.078
	c-13.875,13.859-40.562,21.328-75.828,21.328c-3.453,0-6.953-0.078-10.578-0.219c-17.906-0.719-34.453-3.062-46.406-5.203
	c-2.156-11.953-4.5-28.516-5.219-46.422c-1.594-40.5,5.906-71.172,21.125-86.391c6.797-6.797,15.719-10.203,24.656-10.203
	s17.875,3.406,24.688,10.203c6.672,6.672,10.297,15.578,10.203,25.031l-0.328,32.656l32.656-0.328c0.125,0,0.25,0,0.359,0
	c9.328,0,18.078,3.609,24.672,10.219C429.751,155.344,429.751,177.469,416.157,191.078z"/>
<path d="M461.407,96.484c-12.031-12.016-26.562-20.562-42.438-25.125c-4.562-15.875-13.094-30.422-25.125-42.453
	C374.563,9.641,349.235,0,323.907,0c-25.312,0-50.641,9.641-69.922,28.906c-29.016,29.031-42.391,74.625-39.742,135.516
	c1.031,23.672,4.352,45,7.109,59.297L31.04,414.031c-12.492,12.5-12.492,32.75,0,45.25c6.25,6.25,14.438,9.375,22.633,9.375
	c4.758,0,9.516-1.062,13.898-3.188L114.087,512l60.266-60.25l-45.258-45.266l137.5-137.516c14.312,2.766,35.625,6.094,59.312,7.125
	c5.031,0.219,9.969,0.312,14.781,0.312c53.531,0,94.094-13.453,120.719-40.062C499.97,197.781,499.97,135.031,461.407,96.484z
	 M170.321,304.906l21.336-21.328v30.172l-21.336,21.344V304.906z M148.993,356.422l-21.336,21.328v-30.172l21.336-21.328V356.422z
	 M46.126,444.188c-2.719-2.719-3.125-5.875-3.125-7.531s0.406-4.828,3.125-7.547l60.195-60.203v30.188l-45.109,45.094
	c-2.719,2.719-5.891,3.125-7.539,3.125S48.845,446.906,46.126,444.188z M144.181,451.75l-7.625,7.609
	c-4.164-4.172-10.914-4.172-15.078,0c-4.172,4.172-4.172,10.922,0,15.078l-7.391,7.391l-30.172-30.172l30.094-30.094L144.181,451.75
	z M446.313,221.25c-22.438,22.438-57.969,33.828-105.625,33.828c-4.5,0-9.156-0.109-13.859-0.312
	c-22.641-0.984-43.047-4.203-56.188-6.734l-11.117-2.156l-8.008,8.016l-38.523,38.531V262.25l23.438-23.438l8.008-8.016
	l-2.141-11.109c-2.531-13.156-5.758-33.562-6.742-56.188c-2.375-54.672,8.898-94.875,33.508-119.5
	c14.625-14.625,34.094-22.656,54.844-22.656S364.126,29.375,378.751,44c9.312,9.312,16.125,20.812,19.703,33.25l3.266,11.359
	l11.344,3.266c12.438,3.562,23.938,10.375,33.25,19.688C476.563,141.812,476.563,191.016,446.313,221.25z"/>
<g>
</g>
<g>
</g>
<g>
</g>
<g>
</g>
<g>
</g>
<g>
</g>
<g>
</g>
<g>
</g>
<g>
</g>
<g>
</g>
<g>
</g>
<g>
</g>
<g>
</g>
<g>
</g>
<g>
</g>
</svg>
