<?xml version="1.0" encoding="iso-8859-1"?>
<!-- Generator: Adobe Illustrator 19.0.0, SVG Export Plug-In . SVG Version: 6.00 Build 0)  -->
<svg version="1.1" id="Layer_1" xmlns="http://www.w3.org/2000/svg" xmlns:xlink="http://www.w3.org/1999/xlink" x="0px" y="0px"
	 viewBox="0 0 512 512" style="enable-background:new 0 0 512 512;" xml:space="preserve">
<g>
	<polygon style="fill:#FFCE54;" points="412.031,211 412.031,284 488,245 	"/>
	<polygon style="fill:#FFCE54;" points="107,73 107,136 321,99 321,30 	"/>
</g>
<g>
	<polygon style="fill:#ED5564;" points="101.281,256.906 87.594,245.984 74.312,244.953 57.578,252.938 54.281,250.656 
		42.125,244.953 30.719,245.594 15.781,254.344 11.344,268.266 12.625,281.703 26.797,302.609 40.234,317.297 58.734,329.578 
		68.594,321.469 92.562,300.312 104.344,272.953 	"/>
	<polygon style="fill:#ED5564;" points="311.625,236.906 297.938,225.984 284.656,224.953 267.922,232.938 264.625,230.656 
		252.469,224.953 241.062,225.594 226.125,234.344 221.688,248.266 222.969,261.703 237.141,282.609 250.578,297.297 
		269.078,309.578 278.938,301.469 302.906,280.312 314.688,252.953 	"/>
	<polygon style="fill:#ED5564;" points="410.938,408.906 397.25,397.984 383.969,396.953 367.234,404.938 363.938,402.656 
		351.781,396.953 340.375,397.594 325.438,406.344 321,420.266 322.281,433.703 336.453,454.609 349.891,469.297 368.391,481.578 
		378.25,473.469 402.219,452.312 414,424.953 	"/>
</g>
<path d="M426.672,288.109L512,245.438L405.328,192.11v195.734c-3.75-1.469-7.828-2.281-12.094-2.281
	c-9.359,0-17.812,3.844-23.875,10.031c-6.078-6.188-14.531-10.031-23.875-10.031c-18.469,0-33.438,14.969-33.438,33.438
	c0,38.203,57.312,71.625,57.312,71.625S426.67,457.203,426.67,419c0-0.062-0.016-0.125-0.016-0.172h0.016v-130.72H426.672z
	 M426.672,226.625l37.625,18.812l-37.625,18.812V236.78V226.625z M384.109,452.938c-5.156,4.781-10.375,8.875-14.75,12.062
	c-4.234-3.062-9.266-7.016-14.234-11.578c-14.031-12.859-21.75-25.078-21.75-34.422c0-6.672,5.438-12.094,12.109-12.094
	c3.266,0,6.344,1.281,8.641,3.625l15.234,15.562l15.234-15.562c2.297-2.344,5.375-3.625,8.641-3.625
	c6.672,0,12.094,5.422,12.094,12.094C405.328,428.219,397.797,440.281,384.109,452.938z"/>
<path d="M327.938,248.125h0.016V21.375L93.281,63.406v175.156c-3.75-1.453-7.828-2.25-12.094-2.25
	c-9.359,0-17.812,3.844-23.875,10.031c-6.062-6.188-14.531-10.031-23.875-10.031C14.969,236.312,0,251.266,0,269.734
	c0,38.203,57.312,71.641,57.312,71.641s56.984-33.25,57.297-71.328h0.016v-124.5l192-34.391v106.078
	c-3.75-1.453-7.828-2.266-12.109-2.266c-9.344,0-17.797,3.844-23.875,10.031c-6.062-6.188-14.516-10.031-23.875-10.031
	c-18.469,0-33.438,14.969-33.438,33.438c0,38.203,57.312,71.625,57.312,71.625s57.312-33.422,57.312-71.625
	C327.953,248.312,327.953,248.219,327.938,248.125z M72.062,303.688c-5.156,4.766-10.375,8.875-14.75,12.047
	c-4.375-3.172-9.609-7.281-14.75-12.047C28.875,291,21.328,278.938,21.328,269.734c0-6.672,5.438-12.109,12.109-12.109
	c3.266,0,6.344,1.297,8.641,3.656l15.234,15.531l15.234-15.547c2.297-2.344,5.359-3.641,8.641-3.641
	c6.672,0,12.094,5.438,12.094,12.109C93.281,278.938,85.75,291,72.062,303.688z M114.625,107.344V81.25l192-34.375v42.609
	l-192,34.391V107.344z M285.391,282.344c-5.141,4.781-10.375,8.875-14.75,12.062c-4.219-3.078-9.25-7.016-14.234-11.594
	c-14.016-12.844-21.734-25.062-21.734-34.406c0-6.688,5.422-12.094,12.094-12.094c3.266,0,6.344,1.281,8.641,3.625l15.234,15.562
	l15.234-15.562c2.297-2.344,5.375-3.625,8.641-3.625c6.672,0,12.109,5.406,12.109,12.094
	C306.625,257.625,299.078,269.672,285.391,282.344z"/>
<g>
</g>
<g>
</g>
<g>
</g>
<g>
</g>
<g>
</g>
<g>
</g>
<g>
</g>
<g>
</g>
<g>
</g>
<g>
</g>
<g>
</g>
<g>
</g>
<g>
</g>
<g>
</g>
<g>
</g>
</svg>
