<?xml version="1.0" encoding="iso-8859-1"?>
<!-- Generator: Adobe Illustrator 19.0.0, SVG Export Plug-In . SVG Version: 6.00 Build 0)  -->
<svg version="1.1" id="Layer_1" xmlns="http://www.w3.org/2000/svg" xmlns:xlink="http://www.w3.org/1999/xlink" x="0px" y="0px"
	 viewBox="0 0 512 512" style="enable-background:new 0 0 512 512;" xml:space="preserve">
<g>
	<polygon style="fill:#EC87C0;" points="210.688,228.875 182.047,214.906 151.906,214.906 122.5,232.531 105.578,214.906 
		77.656,214.906 54.141,214.906 24.016,236.203 12.25,267.828 35.016,328.859 79.891,381 122.5,412.625 165.125,378.062 
		223.922,308.984 229.078,261.938 	"/>
	<polygon style="fill:#EC87C0;" points="479.688,223.938 451.047,209.969 420.906,209.969 391.5,227.594 374.578,209.969 
		346.656,209.969 323.141,209.969 293.016,231.266 281.25,262.891 304.016,323.922 348.891,376.062 391.5,407.688 434.125,373.125 
		492.922,304.047 498.078,257 	"/>
</g>
<path d="M71.25,236.672c-17.672,0.016-31.984,14.328-31.984,32l0,0c0,2.734,1.047,5.453,3.125,7.547
	c4.156,4.156,10.922,4.156,15.078,0c2.094-2.094,3.125-4.812,3.125-7.547l0,0c0-5.891,4.781-10.672,10.672-10.672l0,0
	c2.734,0,5.453-1.031,7.547-3.125c4.156-4.156,4.156-10.906,0-15.078C76.719,237.719,73.984,236.656,71.25,236.672z"/>
<path d="M484.609,212.875L436.531,96.109l0,0c-1.594-3.875-5.406-6.609-9.859-6.609c-2.188,0-4.234,0.656-5.922,1.797l0,0
	l-0.016,0.016c0,0-0.031,0.016-0.047,0.031l-31.938,21.281l0,0c-2.859,1.906-4.75,5.188-4.75,8.875
	c0,5.891,4.781,10.672,10.672,10.672c2.188,0,4.219-0.672,5.906-1.797h0.016l0.016-0.016c0.016-0.016,0.031-0.016,0.031-0.016
	l21.125-14.094l34.188,83.062c-5-1.109-10.188-1.688-15.5-1.688c-20.031,0-38.125,8.219-51.109,21.469
	c-13-13.25-31.094-21.469-51.125-21.469c-39.516,0-71.547,32.031-71.547,71.547c0,7.766,1.109,15.453,3.109,23h-27.562
	c2-7.547,3.109-15.234,3.109-23c0-39.516-32.031-71.547-71.547-71.547c-20.031,0-38.125,8.219-51.109,21.469
	c-12.984-13.25-31.094-21.469-51.109-21.469c-5.328,0-10.516,0.578-15.516,1.688l34.203-83.047l21.109,14.078
	c0.016,0,0.016,0,0.031,0.016l0.031,0.016l0,0c1.688,1.125,3.719,1.797,5.906,1.797c5.891,0,10.672-4.781,10.672-10.672
	c0-3.688-1.891-6.969-4.75-8.875l0,0l-31.937-21.28c-0.016-0.016-0.016-0.031-0.016-0.031l-0.047-0.016l0,0
	c-1.688-1.141-3.719-1.797-5.922-1.797c-4.453,0-8.25,2.734-9.859,6.609l0,0L27.391,212.875C10.719,225.969,0,246.312,0,269.172
	C0,350.938,122.672,422.5,122.672,422.5s81.141-47.328,111.438-109h43.797c30.297,61.672,111.438,109,111.438,109
	S512,350.938,512,269.172C512,246.312,501.281,225.969,484.609,212.875z M170.125,360.281
	c-18.016,16.594-36.312,29.594-47.453,36.969c-11.156-7.375-29.438-20.375-47.469-36.969
	c-24.578-22.625-53.875-56.812-53.875-91.109c0-27.703,22.531-50.234,50.234-50.234c13.594,0,26.344,5.375,35.875,15.094
	l15.234,15.547l15.234-15.547c9.531-9.719,22.266-15.094,35.875-15.094c27.688,0,50.219,22.531,50.219,50.234
	C224,303.469,194.703,337.656,170.125,360.281z M436.797,360.281c-18.031,16.594-36.312,29.594-47.453,36.969
	c-11.156-7.375-29.438-20.375-47.469-36.969C317.297,337.656,288,303.469,288,269.172c0-27.703,22.531-50.234,50.219-50.234
	c13.609,0,26.344,5.375,35.875,15.094l15.25,15.547l15.234-15.547c9.531-9.719,22.266-15.094,35.875-15.094
	c27.688,0,50.219,22.531,50.219,50.234C490.672,303.469,461.375,337.656,436.797,360.281z"/>
<path d="M337.922,236.672c-17.672,0.016-31.984,14.328-31.984,32l0,0c0,2.734,1.031,5.453,3.125,7.547
	c4.156,4.156,10.906,4.156,15.078,0c2.078-2.094,3.125-4.812,3.125-7.547l0,0c0-5.891,4.781-10.672,10.672-10.672l0,0
	c2.719,0,5.453-1.031,7.531-3.125c4.172-4.156,4.172-10.906,0-15.078C343.391,237.719,340.656,236.656,337.922,236.672z"/>
<g>
</g>
<g>
</g>
<g>
</g>
<g>
</g>
<g>
</g>
<g>
</g>
<g>
</g>
<g>
</g>
<g>
</g>
<g>
</g>
<g>
</g>
<g>
</g>
<g>
</g>
<g>
</g>
<g>
</g>
</svg>
