<svg id="icons" enable-background="new 0 0 64 64" height="512" viewBox="0 0 64 64" width="512" xmlns="http://www.w3.org/2000/svg"><path d="m12.5 4h39v47h-39z" fill="#656d78"/><path d="m41 36c-3.62 0-6.65 2.57-7.35 5.99-.101-.48-.15-.971-.15-1.49 0-.51.05-1.02.15-1.5v-.01c.7-3.42 3.73-5.99 7.35-5.99s6.65 2.57 7.35 5.99v.02c.101.48.15.98.15 1.49s-.05 1.02-.15 1.49c-.7-3.42-3.73-5.99-7.35-5.99z" fill="#ccd1d9"/><path d="m23.5 7 .99 14h-7.99l1-14z" fill="#e6e9ed"/><path d="m46.5 7 1 14h-8l1-14z" fill="#e6e9ed"/><path d="m23 30c-3.63 0-6.65 2.57-7.35 5.99-.101-.48-.15-.971-.15-1.49 0-.51.05-1.02.15-1.5v-.01c.7-3.42 3.72-5.99 7.35-5.99 3.62 0 6.64 2.57 7.35 5.98v.01c.101.49.15.99.15 1.51 0 .51-.06 1.01-.15 1.48-.71-3.41-3.73-5.98-7.35-5.98z" fill="#ccd1d9"/><path d="m9.5 1h45v51.7l-3-1.7v-30-17h-39v17 30l-3 1.8z" fill="#ccd1d9"/><path d="m42.5 60.01h10v2.99h-10z" fill="#aab2bd"/><path d="m30.35 41.98c.101.489.15 1 .15 1.52 0 4.14-3.36 7.5-7.5 7.5-4.15 0-7.5-3.36-7.5-7.5 0-.51.05-1.02.15-1.5v-.01c.7-3.42 3.72-5.99 7.35-5.99 3.62 0 6.64 2.57 7.35 5.98zm-3.85 1.52c0-1.93-1.57-3.5-3.5-3.5-1.939 0-3.5 1.57-3.5 3.5s1.561 3.5 3.5 3.5c1.93 0 3.5-1.57 3.5-3.5z" fill="#e6e9ed"/><path d="m54.5 52.7-3-1.7h-10.5-18-10.5l-3 1.8-2 1.2h49z" fill="#e6e9ed"/><path d="m41 33c-3.62 0-6.65 2.57-7.35 5.99-.101-.48-.15-.971-.15-1.49 0-.51.05-1.02.15-1.5v-.01c.7-3.42 3.73-5.99 7.35-5.99s6.65 2.57 7.35 5.99v.02c.101.48.15.98.15 1.49s-.05 1.02-.15 1.49c-.7-3.42-3.73-5.99-7.35-5.99z" fill="#e6e9ed"/><path d="m11.5 60.01h10v2.99h-10z" fill="#aab2bd"/><path d="m30.35 41.98c-.71-3.41-3.73-5.98-7.35-5.98-3.63 0-6.65 2.57-7.35 5.99-.101-.48-.15-.971-.15-1.49 0-.51.05-1.02.15-1.5v-.01c.7-3.42 3.72-5.99 7.35-5.99 3.62 0 6.64 2.57 7.35 5.98.101.489.15 1 .15 1.52 0 .51-.06 1.01-.15 1.48z" fill="#ccd1d9"/><path d="m48.35 42.01c.101.48.15.98.15 1.49 0 4.14-3.36 7.5-7.5 7.5s-7.5-3.36-7.5-7.5c0-.51.05-1.02.15-1.5v-.01c.7-3.42 3.73-5.99 7.35-5.99s6.65 2.57 7.35 5.99zm-3.85 1.49c0-1.93-1.57-3.5-3.5-3.5s-3.5 1.57-3.5 3.5 1.57 3.5 3.5 3.5 3.5-1.57 3.5-3.5z" fill="#e6e9ed"/><path d="m23 33c-3.63 0-6.65 2.57-7.35 5.99-.101-.48-.15-.971-.15-1.49 0-.51.05-1.02.15-1.5v-.01c.7-3.42 3.72-5.99 7.35-5.99 3.62 0 6.64 2.57 7.35 5.98.101.489.15 1 .15 1.52 0 .51-.06 1.01-.15 1.48-.71-3.41-3.73-5.98-7.35-5.98z" fill="#e6e9ed"/><path d="m35 7 1 14h-8l1-14z" fill="#e6e9ed"/><path d="m56.5 54v3h-2-45-2v-3z" fill="#f5f7fa"/><path d="m41 27c-3.62 0-6.65 2.57-7.35 5.99-.101-.48-.15-.971-.15-1.49 0-4.14 3.36-7.5 7.5-7.5s7.5 3.36 7.5 7.5c0 .51-.05 1.01-.15 1.49-.7-3.42-3.73-5.99-7.35-5.99z" fill="#e6e9ed"/><path d="m23 27c-3.63 0-6.65 2.57-7.35 5.99-.101-.48-.15-.971-.15-1.49 0-4.14 3.35-7.5 7.5-7.5 4.14 0 7.5 3.36 7.5 7.5 0 .51-.06 1-.15 1.48-.71-3.41-3.73-5.98-7.35-5.98z" fill="#e6e9ed"/><g fill="#ccd1d9"><path d="m41 30c-3.62 0-6.65 2.57-7.35 5.99-.101-.48-.15-.971-.15-1.49 0-.51.05-1.02.15-1.5v-.01c.7-3.42 3.73-5.99 7.35-5.99s6.65 2.57 7.35 5.99v.029c.101.48.15.971.15 1.48s-.05 1.02-.15 1.49c-.7-3.419-3.73-5.989-7.35-5.989z"/><path d="m41 40c1.93 0 3.5 1.57 3.5 3.5s-1.57 3.5-3.5 3.5-3.5-1.57-3.5-3.5 1.57-3.5 3.5-3.5z"/><path d="m23 40c1.93 0 3.5 1.57 3.5 3.5s-1.57 3.5-3.5 3.5c-1.939 0-3.5-1.57-3.5-3.5s1.561-3.5 3.5-3.5z"/><path d="m54.5 57v3.01h-2-10-21-10-2v-3.01z"/></g><path d="m54.5 2h-44.996c-.553 0-1-.447-1-1s.447-1 1-1h44.996c.553 0 1 .447 1 1s-.447 1-1 1z"/><path d="m54.5 61.006h-44.996c-.553 0-1-.447-1-1s.447-1 1-1h44.996c.553 0 1 .447 1 1s-.447 1-1 1z"/><path d="m11.5 64c-.553 0-1-.447-1-1v-2.994c0-.553.447-1 1-1s1 .447 1 1v2.994c0 .553-.447 1-1 1z"/><path d="m21.5 64h-10c-.553 0-1-.447-1-1s.447-1 1-1h10c.553 0 1 .447 1 1s-.447 1-1 1z"/><path d="m21.5 64c-.553 0-1-.447-1-1v-2.994c0-.553.447-1 1-1s1 .447 1 1v2.994c0 .553-.447 1-1 1z"/><path d="m42.5 64c-.553 0-1-.447-1-1v-2.994c0-.553.447-1 1-1s1 .447 1 1v2.994c0 .553-.447 1-1 1z"/><path d="m52.5 64h-10c-.553 0-1-.447-1-1s.447-1 1-1h10c.553 0 1 .447 1 1s-.447 1-1 1z"/><path d="m52.5 64c-.553 0-1-.447-1-1v-2.994c0-.553.447-1 1-1s1 .447 1 1v2.994c0 .553-.447 1-1 1z"/><path d="m56.5 57.999h-49c-.553 0-1-.447-1-1v-3c0-.553.447-1 1-1h49c.553 0 1 .447 1 1v3c0 .553-.447 1-1 1zm-48-2h47v-1h-47z"/><path d="m54.5 61.006c-.553 0-1-.447-1-1v-3.007c0-.553.447-1 1-1s1 .447 1 1v3.007c0 .553-.447 1-1 1z"/><path d="m9.504 61.006c-.553 0-1-.447-1-1v-3.006c0-.553.447-1 1-1s1 .447 1 1v3.006c0 .553-.447 1-1 1z"/><path d="m9.504 53.798c-.552 0-1-.447-1-1l-.004-51.798c0-.552.447-1 1-1 .552 0 1 .447 1 1l.004 51.798c0 .552-.447 1-1 1z"/><path d="m54.5 53.8c-.553 0-1-.447-1-1v-51.8c0-.553.447-1 1-1s1 .447 1 1v51.8c0 .553-.447 1-1 1z"/><path d="m51.5 52.001h-39c-.553 0-1-.447-1-1v-47.001c0-.553.447-1 1-1h39c.553 0 1 .447 1 1v47.001c0 .553-.447 1-1 1zm-38-2h37v-45.001h-37z"/><path d="m23 52.003c-4.687 0-8.5-3.813-8.5-8.5s3.813-8.5 8.5-8.5 8.5 3.813 8.5 8.5-3.813 8.5-8.5 8.5zm0-15c-3.584 0-6.5 2.916-6.5 6.5s2.916 6.5 6.5 6.5 6.5-2.916 6.5-6.5-2.916-6.5-6.5-6.5z"/><path d="m30.349 43.015c-.066 0-.134-.007-.201-.021-.541-.11-.89-.639-.779-1.18.087-.43.132-.871.132-1.312 0-3.584-2.916-6.5-6.5-6.5s-6.5 2.916-6.5 6.5c0 .442.044.88.13 1.299.111.541-.237 1.069-.778 1.181-.539.111-1.069-.237-1.181-.778-.113-.551-.171-1.124-.171-1.701 0-4.687 3.813-8.5 8.5-8.5s8.5 3.813 8.5 8.5c0 .574-.058 1.15-.173 1.712-.098.473-.514.8-.979.8z"/><path d="m30.349 40.015c-.066 0-.134-.007-.201-.021-.541-.11-.89-.639-.779-1.18.087-.43.132-.871.132-1.312 0-3.584-2.916-6.5-6.5-6.5s-6.5 2.916-6.5 6.5c0 .442.044.88.13 1.299.111.541-.237 1.069-.778 1.181-.539.111-1.069-.237-1.181-.778-.113-.551-.171-1.124-.171-1.701 0-4.687 3.813-8.5 8.5-8.5s8.5 3.813 8.5 8.5c0 .574-.058 1.15-.173 1.712-.098.473-.514.8-.979.8z"/><path d="m30.349 37.015c-.066 0-.134-.007-.201-.021-.541-.11-.89-.639-.779-1.18.087-.43.132-.871.132-1.312 0-3.584-2.916-6.5-6.5-6.5s-6.5 2.916-6.5 6.5c0 .442.044.88.13 1.299.111.541-.237 1.069-.778 1.181-.539.111-1.069-.237-1.181-.778-.113-.551-.171-1.124-.171-1.701 0-4.687 3.813-8.5 8.5-8.5s8.5 3.813 8.5 8.5c0 .574-.058 1.15-.173 1.712-.098.473-.514.8-.979.8z"/><path d="m48.351 43.015c-.066 0-.134-.007-.201-.021-.541-.11-.89-.639-.779-1.18.086-.423.13-.864.13-1.312 0-3.584-2.916-6.5-6.5-6.5s-6.5 2.916-6.5 6.5c0 .435.044.872.131 1.303.109.541-.241 1.068-.783 1.178-.541.11-1.068-.242-1.178-.783-.112-.56-.17-1.131-.17-1.697 0-4.687 3.813-8.5 8.5-8.5s8.5 3.813 8.5 8.5c0 .581-.058 1.157-.171 1.712-.098.473-.514.8-.979.8z"/><path d="m48.351 40.015c-.066 0-.134-.007-.201-.021-.541-.11-.89-.639-.779-1.18.086-.423.13-.864.13-1.312 0-3.584-2.916-6.5-6.5-6.5s-6.5 2.916-6.5 6.5c0 .435.044.872.131 1.303.109.541-.241 1.068-.783 1.178-.541.111-1.068-.242-1.178-.783-.112-.56-.17-1.131-.17-1.697 0-4.687 3.813-8.5 8.5-8.5s8.5 3.813 8.5 8.5c0 .581-.058 1.157-.171 1.712-.098.473-.514.8-.979.8z"/><path d="m48.351 37.015c-.066 0-.134-.007-.201-.021-.541-.11-.89-.639-.779-1.18.086-.423.13-.864.13-1.312 0-3.584-2.916-6.5-6.5-6.5s-6.5 2.916-6.5 6.5c0 .435.044.872.131 1.303.109.541-.241 1.068-.783 1.178-.541.112-1.068-.242-1.178-.783-.112-.56-.17-1.131-.17-1.697 0-4.687 3.813-8.5 8.5-8.5s8.5 3.813 8.5 8.5c0 .581-.058 1.157-.171 1.712-.098.473-.514.8-.979.8z"/><path d="m30.349 34.016c-.066 0-.134-.007-.201-.021-.541-.11-.89-.639-.779-1.18.087-.43.132-.871.132-1.312 0-3.584-2.916-6.5-6.5-6.5s-6.5 2.916-6.5 6.5c0 .442.044.88.13 1.299.111.541-.237 1.069-.778 1.181-.539.11-1.069-.236-1.181-.778-.113-.551-.171-1.124-.171-1.701 0-4.687 3.813-8.5 8.5-8.5s8.5 3.813 8.5 8.5c0 .574-.058 1.15-.173 1.712-.098.473-.514.8-.979.8z"/><path d="m48.351 34.016c-.066 0-.134-.007-.201-.021-.541-.11-.89-.639-.779-1.18.086-.423.13-.864.13-1.312 0-3.584-2.916-6.5-6.5-6.5s-6.5 2.916-6.5 6.5c0 .435.044.872.131 1.303.109.541-.241 1.068-.783 1.178-.541.108-1.068-.242-1.178-.783-.112-.56-.17-1.131-.17-1.697 0-4.687 3.813-8.5 8.5-8.5s8.5 3.813 8.5 8.5c0 .581-.058 1.157-.171 1.712-.098.473-.514.8-.979.8z"/><path d="m23 48.003c-2.481 0-4.5-2.019-4.5-4.5s2.019-4.5 4.5-4.5 4.5 2.019 4.5 4.5-2.019 4.5-4.5 4.5zm0-7c-1.379 0-2.5 1.121-2.5 2.5s1.121 2.5 2.5 2.5 2.5-1.121 2.5-2.5-1.121-2.5-2.5-2.5z"/><path d="m41 48.003c-2.481 0-4.5-2.019-4.5-4.5s2.019-4.5 4.5-4.5 4.5 2.019 4.5 4.5-2.019 4.5-4.5 4.5zm0-7c-1.379 0-2.5 1.121-2.5 2.5s1.121 2.5 2.5 2.5 2.5-1.121 2.5-2.5-1.121-2.5-2.5-2.5z"/><path d="m41 52.003c-4.687 0-8.5-3.813-8.5-8.5s3.813-8.5 8.5-8.5 8.5 3.813 8.5 8.5-3.813 8.5-8.5 8.5zm0-15c-3.584 0-6.5 2.916-6.5 6.5s2.916 6.5 6.5 6.5 6.5-2.916 6.5-6.5-2.916-6.5-6.5-6.5z"/><path d="m51.5 22.003h-39c-.553 0-1-.447-1-1s.447-1 1-1h39c.553 0 1 .447 1 1s-.447 1-1 1z"/><path d="m16.501 22.003c-.023 0-.048-.001-.072-.003-.551-.039-.966-.518-.926-1.068l.998-14.003c.039-.55.494-.974 1.068-.926.551.039.966.518.926 1.068l-.998 14.003c-.037.527-.476.929-.996.929z"/><path d="m24.495 22.003c-.52 0-.959-.402-.996-.929l-.998-14.003c-.04-.551.375-1.029.926-1.068.569-.053 1.029.376 1.068.926l.998 14.003c.04.551-.375 1.029-.926 1.068-.024.002-.048.003-.072.003z"/><path d="m23.498 8h-6c-.553 0-1-.447-1-1s.447-1 1-1h6c.553 0 1 .447 1 1s-.447 1-1 1z"/><path d="m28.003 22.003c-.023 0-.048-.001-.072-.003-.551-.039-.966-.518-.926-1.068l.998-14.003c.038-.55.508-.974 1.068-.926.551.039.966.518.926 1.068l-.998 14.003c-.037.527-.477.929-.996.929z"/><path d="m35.997 22.003c-.52 0-.959-.402-.996-.929l-.998-14.003c-.04-.551.375-1.029.926-1.068.558-.053 1.029.376 1.068.926l.998 14.003c.04.551-.375 1.029-.926 1.068-.024.002-.048.003-.072.003z"/><path d="m35 8h-6c-.553 0-1-.447-1-1s.447-1 1-1h6c.553 0 1 .447 1 1s-.447 1-1 1z"/><path d="m39.507 22.003c-.023 0-.048-.001-.072-.003-.551-.039-.966-.518-.926-1.068l.998-14.003c.039-.55.497-.974 1.068-.926.551.039.966.518.926 1.068l-.998 14.003c-.037.527-.477.929-.996.929z"/><path d="m47.501 22.003c-.52 0-.959-.402-.996-.929l-.998-14.003c-.04-.551.375-1.029.926-1.068.567-.053 1.029.376 1.068.926l.998 14.003c.04.551-.375 1.029-.926 1.068-.024.002-.049.003-.072.003z"/><path d="m46.504 8h-6c-.553 0-1-.447-1-1s.447-1 1-1h6c.553 0 1 .447 1 1s-.447 1-1 1z"/><path d="m7.501 54.999c-.34 0-.671-.173-.858-.485-.284-.474-.131-1.088.343-1.372l5-2.998c.474-.284 1.088-.131 1.372.343s.131 1.088-.343 1.372l-5 2.998c-.161.096-.339.142-.514.142z"/><path d="m56.499 54.999c-.175 0-.353-.046-.514-.143l-5-2.998c-.474-.284-.627-.898-.343-1.372s.898-.627 1.372-.343l5 2.998c.474.284.627.898.343 1.372-.187.313-.518.486-.858.486z"/></svg>