<svg id="icons" enable-background="new 0 0 64 64" height="512" viewBox="0 0 64 64" width="512" xmlns="http://www.w3.org/2000/svg"><path d="m15.505 5v28 25c0 2.2 1.79 4 4 4h24.99c2.2 0 4-1.8 4-4v-25-28z" fill="#a0d468"/><g fill="#e6e9ed"><path d="m15.505 5c0-2.2 1.79-4 4-4h24.99c2.2 0 4 1.8 4 4z"/><path d="m26.985 26c.829 0 1.5.67 1.5 1.5s-.671 1.5-1.5 1.5h-6.971c-.83 0-1.5-.67-1.5-1.5s.67-1.5 1.5-1.5z"/><path d="m26.985 36c.829 0 1.5.67 1.5 1.5s-.671 1.5-1.5 1.5h-6.971c-.83 0-1.5-.67-1.5-1.5s.67-1.5 1.5-1.5z"/></g><path d="m44.498 62.998h-24.996c-2.757 0-5-2.243-5-5v-52.998c0-2.757 2.243-5 5-5h24.996c2.757 0 5 2.243 5 5v52.998c0 2.757-2.243 5-5 5zm-24.996-60.998c-1.654 0-3 1.346-3 3v52.998c0 1.654 1.346 3 3 3h24.996c1.654 0 3-1.346 3-3v-52.998c0-1.654-1.346-3-3-3z"/><path d="m48.498 34h-32.996c-.553 0-1-.447-1-1s.447-1 1-1h32.996c.553 0 1 .447 1 1s-.447 1-1 1z"/><path d="m26.984 30c-.553 0-1-.447-1-1s.447-1 1-1c.275 0 .5-.225.5-.5s-.225-.5-.5-.5c-.553 0-1-.447-1-1s.447-1 1-1c1.379 0 2.5 1.121 2.5 2.5s-1.121 2.5-2.5 2.5z"/><path d="m20.012 30c-1.379 0-2.5-1.121-2.5-2.5s1.121-2.5 2.5-2.5c.553 0 1 .447 1 1s-.447 1-1 1c-.275 0-.5.225-.5.5s.225.5.5.5c.553 0 1 .447 1 1s-.448 1-1 1z"/><path d="m26.984 30h-6.973c-.553 0-1-.447-1-1s.447-1 1-1h6.973c.553 0 1 .447 1 1s-.447 1-1 1z"/><path d="m26.984 27h-6.973c-.553 0-1-.447-1-1s.447-1 1-1h6.973c.553 0 1 .447 1 1s-.447 1-1 1z"/><path d="m26.984 40c-.553 0-1-.447-1-1s.447-1 1-1c.275 0 .5-.225.5-.5s-.225-.5-.5-.5c-.553 0-1-.447-1-1s.447-1 1-1c1.379 0 2.5 1.121 2.5 2.5s-1.121 2.5-2.5 2.5z"/><path d="m20.012 40c-1.379 0-2.5-1.121-2.5-2.5s1.121-2.5 2.5-2.5c.553 0 1 .447 1 1s-.447 1-1 1c-.275 0-.5.225-.5.5s.225.5.5.5c.553 0 1 .447 1 1s-.448 1-1 1z"/><path d="m26.984 40h-6.973c-.553 0-1-.447-1-1s.447-1 1-1h6.973c.553 0 1 .447 1 1s-.447 1-1 1z"/><path d="m26.984 37h-6.973c-.553 0-1-.447-1-1s.447-1 1-1h6.973c.553 0 1 .447 1 1s-.447 1-1 1z"/><path d="m48.498 6h-32.996c-.553 0-1-.447-1-1s.447-1 1-1h32.996c.553 0 1 .447 1 1s-.447 1-1 1z"/><path d="m19.502 64c-.553 0-1-.447-1-1v-1.002c0-.553.447-1 1-1s1 .447 1 1v1.002c0 .553-.447 1-1 1z"/><path d="m44.498 64c-.553 0-1-.447-1-1v-1.002c0-.553.447-1 1-1s1 .447 1 1v1.002c0 .553-.447 1-1 1z"/></svg>