<svg id="icons" enable-background="new 0 0 64 64" height="512" viewBox="0 0 64 64" width="512" xmlns="http://www.w3.org/2000/svg"><path d="m18.5 59h5 5 5 4v4h-21.99v-4z" fill="#eac6bb"/><path d="m38.5 55h-5-5-5-5-5-4v4h4 2.01 2.99 5 5 5 4 1 4v-4z" fill="#656d78"/><path d="m56.5 27c0 .78-.22 1.521-.62 2.131l-11.38 17.88v7.989h-2-4-5-5-5-5-5-4-2v-36c0-9.939 8.06-18 18-18 9.95 0 18 8.061 18 18v10l6.42-5.06.2-.15c.67-.489 1.49-.79 2.38-.79 2.21 0 4 1.79 4 4z" fill="#ed5565"/><path d="m43.504 20c-.553 0-1-.447-1-1 0-9.374-7.626-17-17-17s-17 7.626-17 17c0 .553-.447 1-1 1s-1-.447-1-1c0-10.477 8.523-19 19-19s19 8.523 19 19c0 .553-.447 1-1 1z"/><path d="m7.504 56c-.553 0-1-.447-1-1v-36c0-.553.447-1 1-1s1 .447 1 1v36c0 .553-.447 1-1 1z"/><path d="m43.504 29.996c-.553 0-1-.447-1-1v-9.996c0-.553.447-1 1-1s1 .447 1 1v9.996c0 .553-.447 1-1 1z"/><path d="m55.883 30.131c-.183 0-.368-.05-.534-.155-.467-.295-.605-.913-.31-1.38.302-.478.462-1.03.462-1.599 0-1.654-1.346-3-3-3-.707 0-1.395.252-1.936.708-.424.359-1.055.304-1.409-.118-.356-.422-.304-1.053.118-1.409.901-.762 2.047-1.181 3.227-1.181 2.757 0 5 2.243 5 5 0 .947-.267 1.87-.772 2.669-.191.301-.515.465-.846.465z"/><path d="m43.505 29.996c-.296 0-.589-.131-.786-.381-.342-.435-.268-1.063.166-1.404l6.618-5.214c.435-.343 1.063-.267 1.404.166.342.435.268 1.063-.166 1.404l-6.618 5.214c-.184.145-.402.215-.618.215z"/><path d="m44.503 48.002c-.184 0-.37-.051-.536-.156-.466-.297-.604-.915-.307-1.381l11.379-17.871c.297-.466.917-.602 1.381-.307.466.297.604.915.307 1.381l-11.379 17.871c-.191.3-.515.463-.845.463z"/><path d="m44.504 56c-.553 0-1-.447-1-1v-7.998c0-.553.447-1 1-1s1 .447 1 1v7.998c0 .553-.447 1-1 1z"/><path d="m44.504 56h-37.001c-.553 0-1-.447-1-1s.447-1 1-1h37.001c.553 0 1 .447 1 1s-.447 1-1 1z"/><path d="m9.504 60c-.553 0-1-.447-1-1v-4c0-.553.447-1 1-1s1 .447 1 1v4c0 .553-.447 1-1 1z"/><path d="m42.504 60h-33c-.553 0-1-.447-1-1s.447-1 1-1h33c.553 0 1 .447 1 1s-.447 1-1 1z"/><path d="m42.504 60c-.553 0-1-.447-1-1v-4c0-.553.447-1 1-1s1 .447 1 1v4c0 .553-.447 1-1 1z"/><path d="m15.507 64c-.553 0-1-.447-1-1v-4c0-.553.447-1 1-1s1 .447 1 1v4c0 .553-.447 1-1 1z"/><path d="m37.501 64c-.553 0-1-.447-1-1v-4c0-.553.447-1 1-1s1 .447 1 1v4c0 .553-.447 1-1 1z"/><path d="m7.53 19.028c-.256 0-.512-.098-.707-.293-.391-.391-.391-1.023 0-1.414l17.029-17.028c.391-.391 1.023-.391 1.414 0s.391 1.023 0 1.414l-17.029 17.028c-.195.196-.451.293-.707.293z"/><path d="m7.504 30.368c-.256 0-.512-.098-.707-.293-.391-.391-.391-1.023 0-1.414l26.329-26.329c.391-.391 1.023-.391 1.414 0s.391 1.023 0 1.414l-26.329 26.329c-.195.196-.451.293-.707.293z"/><path d="m7.504 41.681c-.256 0-.512-.098-.707-.293-.391-.391-.391-1.023 0-1.414l32.434-32.435c.391-.391 1.023-.391 1.414 0s.391 1.023 0 1.414l-32.434 32.435c-.195.195-.451.293-.707.293z"/><path d="m7.499 53c-.256 0-.512-.098-.707-.293-.391-.391-.391-1.023 0-1.414l35.79-35.789c.391-.391 1.023-.391 1.414 0s.391 1.023 0 1.414l-35.79 35.789c-.195.195-.451.293-.707.293z"/><path d="m15.813 56c-.256 0-.512-.098-.707-.293-.391-.391-.391-1.023 0-1.414l27.691-27.692c.391-.391 1.023-.391 1.414 0s.391 1.023 0 1.414l-27.691 27.692c-.196.195-.452.293-.707.293z"/><path d="m27.126 56c-.256 0-.512-.098-.707-.293-.391-.391-.391-1.023 0-1.414l29.193-29.194c.391-.391 1.023-.391 1.414 0s.391 1.023 0 1.414l-29.193 29.194c-.195.195-.451.293-.707.293z"/><path d="m38.44 56c-.256 0-.512-.098-.707-.293-.391-.391-.391-1.023 0-1.414l6.063-6.063c.391-.391 1.023-.391 1.414 0s.391 1.023 0 1.414l-6.063 6.063c-.195.195-.451.293-.707.293z"/><path d="m43.502 19.066c-.256 0-.512-.098-.707-.293l-17.037-17.038c-.391-.391-.391-1.023 0-1.414s1.023-.391 1.414 0l17.037 17.038c.391.391.391 1.023 0 1.414-.195.196-.451.293-.707.293z"/><path d="m50.969 37.848c-.256 0-.512-.098-.707-.293l-33.803-33.804c-.391-.391-.391-1.023 0-1.414s1.023-.391 1.414 0l33.803 33.804c.391.391.391 1.023 0 1.414-.196.195-.451.293-.707.293z"/><path d="m46.569 44.76c-.256 0-.512-.098-.707-.293l-35.507-35.507c-.391-.391-.391-1.023 0-1.414s1.023-.391 1.414 0l35.507 35.507c.391.391.391 1.023 0 1.414-.195.195-.451.293-.707.293z"/><path d="m44.504 54.009c-.256 0-.512-.098-.707-.293l-36.789-36.79c-.391-.391-.391-1.023 0-1.414s1.023-.391 1.414 0l36.789 36.79c.391.391.391 1.023 0 1.414-.195.195-.451.293-.707.293z"/><path d="m35.183 56.001c-.256 0-.512-.098-.707-.293l-27.676-27.675c-.391-.391-.391-1.023 0-1.414s1.023-.391 1.414 0l27.676 27.675c.391.391.391 1.023 0 1.414-.196.195-.452.293-.707.293z"/><path d="m23.863 55.995c-.256 0-.512-.098-.707-.293l-16.356-16.356c-.391-.391-.391-1.023 0-1.414s1.023-.391 1.414 0l16.356 16.356c.391.391.391 1.023 0 1.414-.195.195-.451.293-.707.293z"/><path d="m12.554 56.001c-.256 0-.512-.098-.707-.293l-5.054-5.054c-.391-.391-.391-1.023 0-1.414s1.023-.391 1.414 0l5.054 5.054c.391.391.391 1.023 0 1.414-.196.195-.451.293-.707.293z"/><path d="m13.504 60c-.553 0-1-.447-1-1v-3.999c0-.553.447-1 1-1s1 .447 1 1v3.999c0 .553-.447 1-1 1z"/><path d="m18.503 60c-.553 0-1-.447-1-1v-3.999c0-.553.447-1 1-1s1 .447 1 1v3.999c0 .553-.447 1-1 1z"/><path d="m23.502 60c-.553 0-1-.447-1-1v-3.999c0-.553.447-1 1-1s1 .447 1 1v3.999c0 .553-.447 1-1 1z"/><path d="m28.501 60c-.553 0-1-.447-1-1v-3.999c0-.553.447-1 1-1s1 .447 1 1v3.999c0 .553-.447 1-1 1z"/><path d="m33.5 60c-.553 0-1-.447-1-1v-3.999c0-.553.447-1 1-1s1 .447 1 1v3.999c0 .553-.447 1-1 1z"/><path d="m38.499 60c-.553 0-1-.447-1-1v-3.999c0-.553.447-1 1-1s1 .447 1 1v3.999c0 .553-.447 1-1 1z"/></svg>