<svg height="511pt" viewBox="-3 0 511 511.99834" width="511pt" xmlns="http://www.w3.org/2000/svg"><path d="m310.34375 392c-2.242188-17.121094-5.921875-33.121094-10.402344-48-5.445312-17.761719-12-33.832031-18.960937-48-11.199219-22.875-23.277344-40.800781-32.558594-53.035156 0 0-17.757813 23.671875-3.441406 53.035156v.078125c7.523437 13.527344 15.121093 29.609375 21.363281 47.921875 4.957031 14.558594 9.117188 30.636719 11.679688 48 2.238281 15.046875 3.359374 31.125 2.871093 48-.550781 15.359375-2.320312 31.359375-5.761719 48-.558593 2.804688-1.191406 5.6875-1.917968 8.558594l-1.433594 7.441406h32.5625c1.277344-5.363281 2.398438-10.722656 3.359375-16 3.117187-16.640625 4.71875-32.640625 5.117187-48 .5625-16.800781-.398437-32.800781-2.476562-48zm0 0" fill="#ffce54"/><path d="m244.988281 296v.078125c7.515625 13.527344 15.113281 29.609375 21.355469 47.921875 4.957031 14.558594 9.117188 30.636719 11.679688 48 2.238281 15.046875 3.359374 31.125 2.871093 48-.550781 15.359375-2.320312 31.359375-5.761719 48-.558593 2.804688-1.191406 5.6875-1.917968 8.558594l-1.433594 7.441406h-202.792969c36.640625-34.953125 91.441407-120 51.441407-208h-16c0-26.480469-17.917969-48-40-48 0 0 8-31.921875-31.917969-48h-.089844s8-31.921875-23.917969-56c2.558594-1.203125 55.125-24.960938 23.917969-64h64c-7.757813-38.722656-53.039063-70-55.839844-71.921875l151.839844 71.921875h24l136 72 24-8-16 64-16 16-112-20.960938v20.960938s6.558594 6.558594 16 18.957031c0 .007813-17.75 23.679688-3.433594 53.042969zm0 0" fill="#ed5565"/><path d="m352.421875 152-1.757813-.929688-14.242187 56.929688-12.214844 12.214844 20.214844 3.785156 16-16 16-64zm0 0" fill="#da4453"/><path d="m344.503906 232c-.496094 0-.984375-.050781-1.480468-.136719l-128-24c-4.34375-.816406-7.203126-5-6.386719-9.335937.816406-4.335938 4.945312-7.210938 9.335937-6.394532l123.847656 23.226563 11.449219-11.449219 11.929688-47.710937-10.167969 3.390625c-2.089844.6875-4.335938.503906-6.273438-.519532l-134.238281-71.070312h-22.015625c-1.1875 0-2.355468-.265625-3.425781-.769531l-152-72c-3.992187-1.894531-5.703125-6.664063-3.800781-10.65625 1.890625-3.992188 6.671875-5.6875 10.648437-3.808594l150.375 71.234375h22.203125c1.300782 0 2.589844.316406 3.742188.925781l132.976562 70.402344 20.75-6.921875c2.761719-.917969 5.832032-.265625 7.96875 1.71875 2.136719 1.984375 3.03125 4.984375 2.320313 7.816406l-16 64c-.351563 1.410156-1.078125 2.6875-2.101563 3.714844l-16 16c-1.515625 1.511719-3.554687 2.34375-5.65625 2.34375zm0 0"/><path d="m304.421875 512c-.617187 0-1.238281-.074219-1.863281-.21875-4.296875-1.023438-6.945313-5.34375-5.921875-9.640625 38.523437-161.453125-68.710938-271.398437-69.796875-272.484375-3.121094-3.128906-3.113282-8.195312.015625-11.3125 3.132812-3.121094 8.183593-3.113281 11.304687 0 1.148438 1.152344 114.695313 117.132812 74.039063 287.511719-.871094 3.671875-4.160157 6.144531-7.777344 6.144531zm0 0"/><path d="m112.503906 88h-80c-4.425781 0-8-3.585938-8-8 0-4.417969 3.574219-8 8-8h80c4.421875 0 8 3.582031 8 8 0 4.414062-3.578125 8-8 8zm0 0"/><path d="m72.503906 152h-64c-4.425781 0-8-3.585938-8-8 0-4.417969 3.574219-8 8-8h64c4.421875 0 8 3.582031 8 8 0 4.414062-3.578125 8-8 8zm0 0"/><path d="m88.503906 208h-56c-4.425781 0-8-3.585938-8-8 0-4.417969 3.574219-8 8-8h56c4.421875 0 8 3.582031 8 8 0 4.414062-3.578125 8-8 8zm0 0"/><path d="m96.503906 256h-32c-4.425781 0-8-3.585938-8-8 0-4.417969 3.574219-8 8-8h32c4.421875 0 8 3.582031 8 8 0 4.414062-3.578125 8-8 8zm0 0"/><path d="m64.511719 256c-.640625 0-1.296875-.074219-1.945313-.242188-4.289062-1.070312-6.894531-5.414062-5.824218-9.703124.574218-2.535157 4.910156-25.777344-27.207032-38.632813-4.105468-1.648437-6.105468-6.296875-4.464844-10.398437 1.640626-4.105469 6.328126-6.082032 10.398438-4.457032 36.777344 14.710938 40.152344 43.960938 36.792969 57.367188-.910157 3.640625-4.167969 6.066406-7.75 6.066406zm0 0"/><path d="m32.511719 208c-.640625 0-1.296875-.074219-1.945313-.242188-4.289062-1.070312-6.894531-5.414062-5.824218-9.703124.238281-1.054688 6.070312-27.328126-21.039063-47.664063-3.535156-2.648437-4.257813-7.664063-1.601563-11.199219 2.648438-3.519531 7.664063-4.257812 11.191407-1.601562 35.839843 26.871094 27.34375 62.824218 26.960937 64.335937-.902344 3.648438-4.160156 6.074219-7.742187 6.074219zm0 0"/><path d="m128.503906 304h-24c-4.425781 0-8-3.578125-8-8 0-4.425781 3.574219-8 8-8h24c4.421875 0 8 3.574219 8 8 0 4.421875-3.578125 8-8 8zm0 0"/><path d="m8.511719 152c-3.105469 0-6.050781-1.816406-7.351563-4.839844-1.746094-4.050781.132813-8.753906 4.175782-10.503906 6.726562-2.914062 24.949218-13.539062 28.4375-27.53125 1.871093-7.558594-.582032-15.445312-7.519532-24.125-2.757812-3.449219-2.191406-8.488281 1.25-11.242188 3.460938-2.765624 8.484375-2.191406 11.246094 1.25 10.144531 12.671876 13.679688 25.46875 10.527344 38.046876-6.160156 24.558593-36.351563 37.75-37.632813 38.304687-1.015625.429687-2.085937.640625-3.132812.640625zm0 0"/><path d="m232.503906 232c-4.425781 0-8-3.585938-8-8v-21.167969c0-4.417969 3.574219-8 8-8 4.421875 0 8 3.582031 8 8v21.167969c0 4.414062-3.578125 8-8 8zm0 0"/><path d="m273.300781 504.566406c-.613281 0-1.238281-.070312-1.863281-.214844-4.296875-1.023437-6.941406-5.34375-5.917969-9.640624 20.101563-84.242188-3.832031-152.433594-27.449219-194.800782-2.160156-3.855468-.777343-8.734375 3.089844-10.878906 3.847656-2.152344 8.734375-.777344 10.878906 3.085938 25.007813 44.855468 50.335938 117.058593 29.039063 206.3125-.878906 3.671874-4.160156 6.136718-7.777344 6.136718zm0 0"/><path d="m69.085938 512c-2.113282 0-4.207032-.832031-5.785157-2.472656-3.054687-3.191406-2.941406-8.257813.25-11.3125 36.253907-34.6875 87.519531-115.617188 49.664063-198.90625-1.832032-4.023438-.054688-8.765625 3.96875-10.589844 4.0625-1.855469 8.773437-.039062 10.589844 3.96875 41.570312 91.453125-13.855469 179.496094-53.167969 217.09375-1.542969 1.480469-3.527344 2.21875-5.519531 2.21875zm0 0"/><path d="m96.496094 88c-3.738282 0-7.082032-2.632812-7.832032-6.433594-7.25-36.222656-52.152343-66.609375-52.609374-66.910156-3.664063-2.457031-4.65625-7.425781-2.199219-11.097656 2.453125-3.664063 7.398437-4.664063 11.085937-2.214844 2.074219 1.382812 50.855469 34.328125 59.410156 77.085938.863282 4.335937-1.945312 8.542968-6.273437 9.417968-.535156.101563-1.070313.152344-1.582031.152344zm0 0"/><path d="m104.503906 304c-4.425781 0-8-3.578125-8-8 0-22.058594-14.355468-40-32-40-4.425781 0-8-3.585938-8-8 0-4.417969 3.574219-8 8-8 26.46875 0 48 25.125 48 56 0 4.421875-3.578125 8-8 8zm0 0"/><path d="m240.496094 136c-1.203125 0-2.425782-.273438-3.570313-.839844l-32-16c-3.953125-1.976562-5.550781-6.785156-3.574219-10.738281 1.984376-3.953125 6.789063-5.558594 10.734376-3.574219l32 16c3.953124 1.976563 5.550781 6.78125 3.578124 10.734375-1.410156 2.800781-4.234374 4.417969-7.167968 4.417969zm0 0"/><path d="m224.742188 136c-4.425782 0-8.039063-3.585938-8.039063-8 0-4.417969 3.535156-8 7.949219-8h.089844c4.417968 0 8 3.582031 8 8 0 4.414062-3.582032 8-8 8zm0 0"/><path d="m245.054688 304.015625c-2.960938 0-5.816407-1.648437-7.191407-4.496094-16.28125-33.328125 3.390625-60.226562 4.230469-61.351562 2.664062-3.53125 7.65625-4.257813 11.199219-1.609375 3.539062 2.648437 4.257812 7.664062 1.609375 11.199218-.574219.785157-14.558594 20.382813-2.671875 44.746094 1.9375 3.964844.296875 8.757813-3.679688 10.695313-1.121093.558593-2.3125.816406-3.496093.816406zm0 0"/><path d="m271.886719 512c-.496094 0-1-.050781-1.503907-.144531-4.34375-.832031-7.191406-5.015625-6.367187-9.351563l1.414063-7.433594c.824218-4.34375 5.023437-7.183593 9.351562-6.367187 4.34375.832031 7.191406 5.015625 6.367188 9.351563l-1.414063 7.433593c-.726563 3.839844-4.082031 6.511719-7.847656 6.511719zm0 0"/><path d="m307.8125 496h-32.605469c-4.425781 0-8-3.578125-8-8 0-4.425781 3.574219-8 8-8h32.605469c4.425781 0 8 3.574219 8 8 0 4.421875-3.574219 8-8 8zm0 0"/><path d="m312.964844 448h-31.910156c-4.425782 0-8-3.578125-8-8 0-4.425781 3.574218-8 8-8h31.910156c4.425781 0 8 3.574219 8 8 0 4.421875-3.582032 8-8 8zm0 0"/><path d="m310.535156 400h-32.441406c-4.421875 0-8-3.578125-8-8 0-4.425781 3.578125-8 8-8h32.441406c4.421875 0 8 3.574219 8 8 0 4.421875-3.578125 8-8 8zm0 0"/><path d="m300.023438 352h-33.609376c-4.425781 0-8-3.578125-8-8 0-4.425781 3.574219-8 8-8h33.609376c4.421874 0 8 3.574219 8 8 0 4.421875-3.578126 8-8 8zm0 0"/><path d="m281.046875 304h-36c-4.425781 0-8-3.578125-8-8 0-4.425781 3.574219-8 8-8h36c4.421875 0 8 3.574219 8 8 0 4.421875-3.578125 8-8 8zm0 0"/><path d="m476.503906 224c-4.425781 0-8-3.585938-8-8 0-4.417969 3.574219-8 8-8 6.613282 0 12-5.386719 12-12 0-6.617188-5.386718-12-12-12-4.425781 0-8-3.585938-8-8 0-4.417969 3.574219-8 8-8 15.4375 0 28 12.558594 28 28 0 15.4375-12.5625 28-28 28zm0 0"/><path d="m476.511719 224c-.496094 0-1-.050781-1.503907-.144531l-84-16c-4.335937-.832031-7.1875-5.015625-6.363281-9.351563.824219-4.335937 4.960938-7.203125 9.363281-6.363281l84 16c4.335938.832031 7.183594 5.019531 6.359376 9.355469-.738282 3.839844-4.089844 6.503906-7.855469 6.503906zm0 0"/><path d="m432.511719 248c-.523438 0-1.050781-.050781-1.578125-.160156l-40-8c-4.328125-.867188-7.144532-5.082032-6.269532-9.417969.855469-4.335937 5.09375-7.144531 9.414063-6.273437l40 8c4.328125.867187 7.144531 5.082031 6.273437 9.417968-.761718 3.800782-4.105468 6.433594-7.839843 6.433594zm0 0"/></svg>