<svg height="512pt" viewBox="-60 0 512 512.00771" width="512pt" xmlns="http://www.w3.org/2000/svg"><path d="m184.003906 160.007812v40h-80v-40l16 8 24-24 24 24 14.71875-8zm0 0" fill="#ffce54"/><path d="m182.722656 160.007812-14.71875 8v32h16v-40zm0 0" fill="#f6bb42"/><path d="m384.003906 136.007812-32 72 32 88h-176l40-40v-120zm0 0" fill="#da4453"/><path d="m248.003906 136.007812v120h-208v-160h208zm-64 64v-40h-1.28125l-14.71875 8-24-24-24 24-16-8v40zm0 0" fill="#ed5565"/><path d="m28.003906 8.007812 20 56h-40zm0 0" fill="#e6e9ed"/><path d="m40.003906 256.007812v248h-24v-440h24zm0 0" fill="#965353"/><path d="m16.003906 512.007812c-4.421875 0-8-3.574218-8-8v-440c0-4.425781 3.578125-8 8-8 4.425782 0 8 3.574219 8 8v440c0 4.425782-3.574218 8-8 8zm0 0"/><path d="m40.003906 512.007812c-4.421875 0-8-3.574218-8-8v-440c0-4.425781 3.578125-8 8-8 4.425782 0 8 3.574219 8 8v440c0 4.425782-3.574218 8-8 8zm0 0"/><path d="m48.003906 72.007812h-40c-4.421875 0-7.99999975-3.574218-7.99999975-8 0-4.425781 3.57812475-8 7.99999975-8h40c4.425782 0 8 3.574219 8 8 0 4.425782-3.574218 8-8 8zm0 0"/><path d="m48.003906 72.007812c-3.289062 0-6.367187-2.039062-7.527344-5.3125l-20-56c-1.496093-4.160156.679688-8.734374 4.839844-10.214843 4.152344-1.503907 8.742188.679687 10.214844 4.839843l20 56c1.496094 4.160157-.679688 8.734376-4.839844 10.214844-.878906.320313-1.800781.472656-2.6875.472656zm0 0"/><path d="m8.003906 72.007812c-.886718 0-1.808594-.152343-2.6875-.472656-4.160156-1.480468-6.335937-6.054687-4.839844-10.214844l20-56c1.480469-4.167968 6.070313-6.351562 10.214844-4.839843 4.167969 1.488281 6.335938 6.0625 4.839844 10.214843l-20 56c-1.160156 3.273438-4.238281 5.3125-7.527344 5.3125zm0 0"/><path d="m248.003906 104.007812h-208c-4.421875 0-8-3.574218-8-8 0-4.425781 3.578125-8 8-8h208c4.425782 0 8 3.574219 8 8 0 4.425782-3.574218 8-8 8zm0 0"/><path d="m248.003906 264.007812h-208c-4.421875 0-8-3.574218-8-8 0-4.425781 3.578125-8 8-8h208c4.425782 0 8 3.574219 8 8 0 4.425782-3.574218 8-8 8zm0 0"/><path d="m248.003906 264.007812c-4.421875 0-8-3.574218-8-8v-160c0-4.425781 3.578125-8 8-8 4.425782 0 8 3.574219 8 8v160c0 4.425782-3.574218 8-8 8zm0 0"/><path d="m384.003906 144.007812h-136c-4.421875 0-8-3.574218-8-8 0-4.425781 3.578125-8 8-8h136c4.425782 0 8 3.574219 8 8 0 4.425782-3.574218 8-8 8zm0 0"/><path d="m384.003906 304.007812h-176c-4.421875 0-8-3.574218-8-8 0-4.425781 3.578125-8 8-8h176c4.425782 0 8 3.574219 8 8 0 4.425782-3.574218 8-8 8zm0 0"/><path d="m384.003906 304.007812c-3.261718 0-6.335937-2.015624-7.511718-5.265624l-32-88c-.710938-1.941407-.632813-4.09375.199218-5.984376l32-72c1.800782-4.023437 6.535156-5.839843 10.5625-4.0625 4.039063 1.800782 5.847656 6.519532 4.0625 10.558594l-30.6875 69.050782 30.886719 84.96875c1.511719 4.160156-.632813 8.742187-4.785156 10.246093-.894531.328125-1.820313.488281-2.726563.488281zm0 0"/><path d="m208.003906 304.007812c-2.046875 0-4.09375-.785156-5.65625-2.34375-3.128906-3.128906-3.128906-8.183593 0-11.3125l40-40c3.128906-3.128906 8.183594-3.128906 11.3125 0 3.128906 3.128907 3.128906 8.183594 0 11.3125l-40 40c-1.558594 1.558594-3.609375 2.34375-5.65625 2.34375zm0 0"/><path d="m104.003906 208.007812c-4.421875 0-8-3.574218-8-8v-40c0-4.425781 3.578125-8 8-8 4.425782 0 8 3.574219 8 8v40c0 4.425782-3.574218 8-8 8zm0 0"/><path d="m184.003906 208.007812h-80c-4.421875 0-8-3.574218-8-8 0-4.425781 3.578125-8 8-8h80c4.425782 0 8 3.574219 8 8 0 4.425782-3.574218 8-8 8zm0 0"/><path d="m184.003906 208.007812c-4.421875 0-8-3.574218-8-8v-40c0-4.425781 3.578125-8 8-8 4.425782 0 8 3.574219 8 8v40c0 4.425782-3.574218 8-8 8zm0 0"/><path d="m119.996094 176.007812c-1.199219 0-2.421875-.273437-3.566406-.839843l-16-8c-3.953126-1.976563-5.554688-6.785157-3.578126-10.734375 1.984376-3.953125 6.777344-5.539063 10.738282-3.578125l16 8c3.949218 1.976562 5.550781 6.785156 3.574218 10.734375-1.40625 2.800781-4.230468 4.417968-7.167968 4.417968zm0 0"/><path d="m120.003906 176.007812c-2.046875 0-4.09375-.785156-5.65625-2.34375-3.128906-3.128906-3.128906-8.183593 0-11.3125l24-24c3.128906-3.128906 8.183594-3.128906 11.3125 0 3.128906 3.128907 3.128906 8.183594 0 11.3125l-24 24c-1.558594 1.558594-3.609375 2.34375-5.65625 2.34375zm0 0"/><path d="m168.003906 176.007812c-2.046875 0-4.09375-.785156-5.65625-2.34375l-24-24c-3.128906-3.128906-3.128906-8.183593 0-11.3125 3.128906-3.128906 8.183594-3.128906 11.3125 0l24 24c3.128906 3.128907 3.128906 8.183594 0 11.3125-1.558594 1.558594-3.609375 2.34375-5.65625 2.34375zm0 0"/><path d="m168.011719 176.007812c-2.839844 0-5.589844-1.511718-7.039063-4.183593-2.113281-3.878907-.664062-8.738281 3.214844-10.839844l14.753906-8c3.878906-2.105469 8.742188-.664063 10.839844 3.214844 2.109375 3.878906.664062 8.738281-3.21875 10.839843l-14.75 8c-1.207031.65625-2.511719.96875-3.800781.96875zm0 0"/></svg>