<svg height="512pt" viewBox="-44 0 512 512" width="512pt" xmlns="http://www.w3.org/2000/svg"><path d="m160 192h-32v-21.441406c18.960938-8.878906 32.078125-28.167969 32.078125-50.558594v-19.921875l23.921875 11.921875v88c-6.640625-5.039062-14.960938-8-24-8zm0 0" fill="#e29f33"/><path d="m48 192c-9.039062 0-17.359375 2.960938-24 8v-88l24-12 .078125 20c0 22.320312 13.042969 41.601562 31.921875 50.558594v21.441406zm0 0" fill="#e29f33"/><path d="m32 368c-13.28125 0-24-10.71875-24-24v-112c0-13.039062 6.320312-24.71875 16-32 6.640625-5.039062 14.960938-8 24-8h8v43.199219c-9.601562 4.160156-16 11.914062-16 20.800781v88c0 8.160156.640625 16.238281 1.761719 24zm0 0" fill="#eac6bb"/><path d="m184 88v24l-23.921875-11.921875v-.078125l-56.078125-28 64-32c10 13.359375 16 30 16 48zm0 0" fill="#f6bb42"/><path d="m48 100-24 12v-24c0-44.160156 35.839844-80 80-80 26.160156 0 49.359375 12.558594 64 32zm0 0" fill="#ffce54"/><path d="m91.984375 9c21.183594 3.191406 39.664063 14.601562 52.015625 31 2.152344 2.871094 4.078125 5.921875 5.832031 9.089844l18.167969-9.089844c-14.640625-19.441406-37.839844-32-64-32-2.183594 0-4.335938.160156-6.488281.328125-1.855469.175781-3.695313.398437-5.527344.671875zm0 0" fill="#f6bb42"/><path d="m168 40-18.167969 9.089844c6.433594 11.519531 10.167969 24.78125 10.167969 38.910156v11.960938l.078125.039062v.078125l23.921875 11.921875v-24c0-18-6-34.640625-16-48zm0 0" fill="#edab37"/><path d="m160.078125 100.078125v19.921875c0 22.398438-13.117187 41.679688-32.078125 50.558594-7.28125 3.519531-15.359375 5.441406-23.921875 5.441406-8.636719 0-16.796875-1.921875-24.078125-5.441406-18.878906-8.957032-31.921875-28.238282-31.921875-50.558594l-.078125-20 56-28 56.078125 28zm0 0" fill="#eac6bb"/><path d="m136.078125 88.015625v31.984375c0 22.398438-13.117187 41.679688-32.078125 50.558594-3.792969 1.832031-7.800781 3.203125-11.976562 4.128906 3.878906.839844 7.90625 1.3125 12.054687 1.3125 8.5625 0 16.640625-1.921875 23.921875-5.441406 18.960938-8.878906 32.078125-28.167969 32.078125-50.558594v-20zm0 0" fill="#d3b1a9"/><path d="m184 200c-6.640625-5.039062-14.960938-8-24-8h-32v-21.441406c-7.28125 3.519531-15.359375 5.441406-23.921875 5.441406-8.636719 0-16.796875-1.921875-24.078125-5.441406v21.441406h-24v43.199219c4.71875-2 10.160156-3.199219 16-3.199219 17.679688 0 32 10.71875 32 24 0-13.28125 14.320312-24 32-24 9.601562 0 18.160156 3.121094 24 8.160156 4.960938 4.167969 8 9.769532 8 15.839844v88c0 8.398438 1.28125 16.480469 3.679688 24h4.320312c13.28125 0 24-10.71875 24-24v-112c0-13.039062-6.320312-24.71875-16-32zm0 0" fill="#eac6bb"/><path d="m184 200c-6.640625-5.039062-14.960938-8-24-8h-24c9.039062 0 17.359375 2.960938 24 8 9.679688 7.28125 16 18.960938 16 32v112c0 6.238281-2.433594 11.863281-6.320312 16.136719.542968 2.671875 1.183593 5.3125 2 7.863281h4.320312c13.28125 0 24-10.71875 24-24v-112c0-13.039062-6.320312-24.71875-16-32zm0 0" fill="#d3b1a9"/><path d="m360 326.238281v17.761719c0 88.398438-71.601562 160-160 160-80.238281 0-146.640625-58.960938-158.238281-136-1.121094-7.761719-1.761719-15.839844-1.761719-24v-88c0-8.878906 6.398438-16.640625 16-20.800781 4.71875-2 10.160156-3.199219 16-3.199219 17.679688 0 32 10.71875 32 24 0-13.28125 14.320312-24 32-24 9.601562 0 18.160156 3.121094 24 8.160156 4.960938 4.167969 8 9.769532 8 15.839844v88c0 8.398438 1.28125 16.480469 3.679688 24 10.167968 32.480469 40.480468 56 76.320312 56 44.238281 0 80-35.761719 80-80v-17.761719c5.121094 1.121094 10.480469 1.761719 16 1.761719s10.878906-.640625 16-1.761719zm0 0" fill="#48cfad"/><path d="m136 240.160156c4.960938 4.167969 8 9.769532 8 15.839844v88c0 8.398438 1.28125 16.480469 3.679688 24 10.167968 32.480469 40.480468 56 76.320312 56 4.015625 0 7.921875-.390625 11.785156-.960938-30.378906-4.648437-55.121094-26.328124-64.105468-55.039062-2.398438-7.519531-3.679688-15.601562-3.679688-24v-88c0-6.078125-3.039062-11.679688-8-15.839844-5.839844-5.039062-14.398438-8.160156-24-8.160156-4.296875 0-8.375.65625-12.121094 1.808594 4.671875 1.398437 8.855469 3.527344 12.121094 6.351562zm0 0" fill="#37bc9b"/><path d="m344 240s23.039062-32 72-32v48c0 34.238281-23.921875 62.960938-56 70.238281-5.121094 1.121094-10.480469 1.761719-16 1.761719s-10.878906-.640625-16-1.761719c-32.078125-7.277343-56-36-56-70.238281v-48c48.960938 0 72 32 72 32zm0 0" fill="#e6e9ed"/><path d="m392 210.785156v45.214844c0 34.238281-23.921875 62.960938-56 70.238281-1.304688.28125-2.664062.449219-4 .664063 3.894531.640625 7.878906 1.097656 12 1.097656 5.519531 0 10.878906-.640625 16-1.761719 32.078125-7.277343 56-36 56-70.238281v-48c-8.847656 0-16.832031 1.070312-24 2.785156zm0 0" fill="#ccd1d9"/><path d="m200 512c-4.425781 0-8-3.574219-8-8s3.574219-8 8-8c83.816406 0 152-68.183594 152-152 0-4.425781 3.574219-8 8-8s8 3.574219 8 8c0 92.632812-75.367188 168-168 168zm0 0"/><path d="m200 512c-92.632812 0-168-75.367188-168-168 0-4.425781 3.574219-8 8-8s8 3.574219 8 8c0 83.816406 68.183594 152 152 152 4.425781 0 8 3.574219 8 8s-3.574219 8-8 8zm0 0"/><path d="m248.007812 432c-4.421874 0-8-3.574219-8-8s3.578126-8 8-8c39.695313 0 71.992188-32.296875 71.992188-71.992188 0-4.421874 3.574219-8 8-8s8 3.578126 8 8c0 48.511719-39.480469 87.992188-87.992188 87.992188zm0 0"/><path d="m248.007812 431.992188c-48.511718 0-87.992187-39.480469-87.992187-87.992188 0-4.425781 3.578125-8 8-8 4.425781 0 8 3.574219 8 8 0 39.695312 32.296875 71.992188 71.992187 71.992188 4.425782 0 8 3.574218 8 8 0 4.421874-3.574218 8-8 8zm0 0"/><path d="m344 336c-4.425781 0-8-3.574219-8-8s3.574219-8 8-8c35.289062 0 64-28.710938 64-64 0-4.425781 3.574219-8 8-8s8 3.574219 8 8c0 44.113281-35.886719 80-80 80zm0 0"/><path d="m416 264c-4.425781 0-8-3.574219-8-8v-48c0-4.425781 3.574219-8 8-8s8 3.574219 8 8v48c0 4.425781-3.574219 8-8 8zm0 0"/><path d="m344 272c-4.425781 0-8-3.574219-8-8v-24c0-4.425781 3.574219-8 8-8s8 3.574219 8 8v24c0 4.425781-3.574219 8-8 8zm0 0"/><path d="m343.992188 248c-1.617188 0-3.25-.488281-4.664063-1.503906-3.585937-2.585938-4.40625-7.574219-1.832031-11.167969 1.039062-1.441406 26.007812-35.328125 78.503906-35.328125 4.425781 0 8 3.574219 8 8s-3.574219 8-8 8c-44.382812 0-65.296875 28.382812-65.503906 28.671875-1.566406 2.167969-4.007813 3.328125-6.503906 3.328125zm0 0"/><path d="m344 336c-44.113281 0-80-35.886719-80-80 0-4.425781 3.574219-8 8-8s8 3.574219 8 8c0 35.289062 28.710938 64 64 64 4.425781 0 8 3.574219 8 8s-3.574219 8-8 8zm0 0"/><path d="m272 264c-4.425781 0-8-3.574219-8-8v-48c0-4.425781 3.574219-8 8-8s8 3.574219 8 8v48c0 4.425781-3.574219 8-8 8zm0 0"/><path d="m344.007812 248c-2.488281 0-4.917968-1.152344-6.496093-3.3125-.945313-1.289062-21.617188-28.6875-65.511719-28.6875-4.425781 0-8-3.574219-8-8s3.574219-8 8-8c52.503906 0 77.464844 33.886719 78.503906 35.328125 2.574219 3.59375 1.761719 8.582031-1.832031 11.167969-1.414063 1.015625-3.046875 1.503906-4.664063 1.503906zm0 0"/><path d="m360 352c-4.425781 0-8-3.574219-8-8v-17.792969c0-4.421875 3.574219-8 8-8s8 3.578125 8 8v17.792969c0 4.425781-3.574219 8-8 8zm0 0"/><path d="m328 352c-4.425781 0-8-3.574219-8-8v-17.792969c0-4.421875 3.574219-8 8-8s8 3.578125 8 8v17.792969c0 4.425781-3.574219 8-8 8zm0 0"/><path d="m40 352c-4.425781 0-8-3.574219-8-8v-88.960938c0-4.421874 3.574219-8 8-8s8 3.578126 8 8v88.960938c0 4.425781-3.574219 8-8 8zm0 0"/><path d="m168.015625 352c-4.414063 0-8-3.574219-8-8l-.015625-87.039062c0-4.417969 3.574219-8 8-8 4.414062 0 8 3.574218 8 8l.015625 87.039062c0 4.414062-3.574219 8-8 8zm0 0"/><path d="m200 352c-4.425781 0-8-3.574219-8-8v-112c0-4.425781 3.574219-8 8-8s8 3.574219 8 8v112c0 4.425781-3.574219 8-8 8zm0 0"/><path d="m200 240c-4.425781 0-8-3.574219-8-8 0-17.648438-14.351562-32-32-32-4.425781 0-8-3.574219-8-8s3.574219-8 8-8c26.472656 0 48 21.527344 48 48 0 4.425781-3.574219 8-8 8zm0 0"/><path d="m160 200h-32c-4.425781 0-8-3.574219-8-8s3.574219-8 8-8h32c4.425781 0 8 3.574219 8 8s-3.574219 8-8 8zm0 0"/><path d="m80 200c-4.425781 0-8-3.574219-8-8v-21.425781c0-4.421875 3.574219-8 8-8s8 3.578125 8 8v21.425781c0 4.425781-3.574219 8-8 8zm0 0"/><path d="m128 200c-4.425781 0-8-3.574219-8-8v-21.367188c0-4.425781 3.574219-8 8-8s8 3.574219 8 8v21.367188c0 4.425781-3.574219 8-8 8zm0 0"/><path d="m104.0625 184c-35.285156 0-64-28.710938-64-64 0-4.425781 3.578125-8 8-8 4.425781 0 8 3.574219 8 8 0 26.472656 21.53125 48 48 48 26.472656 0 48-21.527344 48-48 0-4.425781 3.578125-8 8-8 4.425781 0 8 3.574219 8 8 0 35.289062-28.710938 64-64 64zm0 0"/><path d="m184 96c-4.425781 0-8-3.574219-8-8 0-39.703125-32.296875-72-72-72s-72 32.296875-72 72c0 4.425781-3.574219 8-8 8s-8-3.574219-8-8c0-48.519531 39.480469-88 88-88s88 39.480469 88 88c0 4.425781-3.574219 8-8 8zm0 0"/><path d="m24 207.992188c-4.425781 0-8-3.578126-8-8v-111.992188c0-4.425781 3.574219-8 8-8s8 3.574219 8 8v111.992188c0 4.421874-3.574219 8-8 8zm0 0"/><path d="m184 208.007812c-4.425781 0-8-3.574218-8-8v-112.007812c0-4.425781 3.574219-8 8-8s8 3.574219 8 8v112.007812c0 4.425782-3.574219 8-8 8zm0 0"/><path d="m24.007812 120c-2.9375 0-5.769531-1.617188-7.167968-4.425781-1.976563-3.949219-.375-8.757813 3.574218-10.734375l144-71.992188c3.953126-1.96875 8.769532-.375 10.738282 3.578125 1.976562 3.949219.375 8.757813-3.578125 10.734375l-144 71.992188c-1.140625.574218-2.367188.847656-3.566407.847656zm0 0"/><path d="m183.992188 120c-1.199219 0-2.425782-.273438-3.566407-.839844l-80-39.992187c-3.953125-1.976563-5.554687-6.785157-3.578125-10.734375 1.96875-3.953125 6.792969-5.53125 10.738282-3.578125l80 39.992187c3.949218 1.976563 5.550781 6.785156 3.574218 10.738282-1.398437 2.796874-4.230468 4.414062-7.167968 4.414062zm0 0"/><path d="m48.0625 128c-4.40625 0-7.984375-3.558594-8-7.976562l-.0625-20c-.015625-4.414063 3.550781-8.007813 7.976562-8.023438h.023438c4.40625 0 7.984375 3.558594 8 7.976562l.0625 20c.015625 4.414063-3.550781 8.007813-7.972656 8.023438-.011719 0-.019532 0-.027344 0zm0 0"/><path d="m160.0625 128c-4.421875 0-8-3.574219-8-8v-20c0-4.425781 3.578125-8 8-8 4.425781 0 8 3.574219 8 8v20c0 4.425781-3.574219 8-8 8zm0 0"/><path d="m176 376c-4.425781 0-8-3.574219-8-8s3.574219-8 8-8c8.824219 0 16-7.175781 16-16 0-4.425781 3.574219-8 8-8s8 3.574219 8 8c0 17.648438-14.351562 32-32 32zm0 0"/><path d="m8 352c-4.425781 0-8-3.574219-8-8v-112c0-4.425781 3.574219-8 8-8s8 3.574219 8 8v112c0 4.425781-3.574219 8-8 8zm0 0"/><path d="m8 240c-4.425781 0-8-3.574219-8-8 0-26.472656 21.527344-48 48-48 4.425781 0 8 3.574219 8 8s-3.574219 8-8 8c-17.648438 0-32 14.351562-32 32 0 4.425781-3.574219 8-8 8zm0 0"/><path d="m80 200h-32c-4.425781 0-8-3.574219-8-8s3.574219-8 8-8h32c4.425781 0 8 3.574219 8 8s-3.574219 8-8 8zm0 0"/><path d="m32 376c-17.648438 0-32-14.351562-32-32 0-4.425781 3.574219-8 8-8s8 3.574219 8 8c0 8.824219 7.175781 16 16 16 4.425781 0 8 3.574219 8 8s-3.574219 8-8 8zm0 0"/><path d="m104 264c-4.425781 0-8-3.574219-8-8 0-8.671875-10.992188-16-24-16s-24 7.328125-24 16c0 4.425781-3.574219 8-8 8s-8-3.574219-8-8c0-17.648438 17.945312-32 40-32s40 14.351562 40 32c0 4.425781-3.574219 8-8 8zm0 0"/><path d="m168 264c-4.425781 0-8-3.574219-8-8 0-8.671875-10.992188-16-24-16s-24 7.328125-24 16c0 4.425781-3.574219 8-8 8s-8-3.574219-8-8c0-17.648438 17.945312-32 40-32s40 14.351562 40 32c0 4.425781-3.574219 8-8 8zm0 0"/><path d="m176 376h-4.328125c-4.425781 0-8-3.574219-8-8s3.574219-8 8-8h4.328125c4.425781 0 8 3.574219 8 8s-3.574219 8-8 8zm0 0"/><path d="m41.792969 376h-9.792969c-4.425781 0-8-3.574219-8-8s3.574219-8 8-8h9.792969c4.421875 0 8 3.574219 8 8s-3.585938 8-8 8zm0 0"/><path d="m56 243.222656c-4.425781 0-8-3.574218-8-8v-43.222656c0-4.425781 3.574219-8 8-8s8 3.574219 8 8v43.222656c0 4.425782-3.574219 8-8 8zm0 0"/><path d="m160 248.183594c-4.425781 0-8-3.574219-8-8v-48.183594c0-4.425781 3.574219-8 8-8s8 3.574219 8 8v48.183594c0 4.425781-3.574219 8-8 8zm0 0"/></svg>