<svg height="512pt" viewBox="0 0 512 512" width="512pt" xmlns="http://www.w3.org/2000/svg"><path d="m456 392c-13.28125 0-24 10.71875-24 24v88h-24v-160c0-26.480469 21.519531-48 48-48s48 21.519531 48 48-21.519531 48-48 48zm24-48c0-13.28125-10.71875-24-24-24s-24 10.71875-24 24v30.480469c7.039062-4.160157 15.28125-6.480469 24-6.480469 13.28125 0 24-10.71875 24-24zm0 0" fill="#965353"/><path d="m376 496v8h-176c37.199219-12.480469 64.960938-42.960938 75.441406-72h36.558594c35.359375 0 64 28.640625 64 64zm0 0" fill="#ac92ec"/><path d="m312 432h-32c35.359375 0 64 28.640625 64 64v8h32v-8c0-35.359375-28.640625-64-64-64zm0 0" fill="#967adc"/><path d="m200 504h-176v-8c0-35.359375 28.640625-64 64-64h36.558594c10.480468 29.039062 38.242187 59.519531 75.441406 72zm0 0" fill="#ac92ec"/><path d="m200 316c0 11.039062 8.960938 20 20 20h28c13.039062 0 24.71875-6.320312 32-16v88c0 7.601562-1.601562 15.761719-4.558594 24-10.480468 29.039062-38.234375 59.519531-75.441406 72-37.199219-12.480469-64.960938-42.960938-75.441406-72-2.957032-8.238281-4.558594-16.398438-4.558594-24v-88c7.28125 9.679688 18.960938 16 32 16h28c11.039062 0 20-8.960938 20-20zm0 0" fill="#e6e9ed"/><path d="m112 296v-24c0 13.28125 10.71875 24 24 24h44c11.039062 0 20 8.960938 20 20s-8.960938 20-20 20h-28c-13.039062 0-24.71875-6.320312-32-16v-.078125c-5.039062-6.640625-8-14.960937-8-23.921875zm0 0" fill="#f5f7fa"/><path d="m264 296c13.28125 0 24-10.71875 24-24v24c0 8.960938-2.960938 17.28125-8 23.921875v.078125c-7.28125 9.679688-18.960938 16-32 16h-28c-11.039062 0-20-8.960938-20-20s8.960938-20 20-20zm0 0" fill="#f5f7fa"/><path d="m220 296c-11.039062 0-20 8.960938-20 20 0-11.039062-8.960938-20-20-20h-44c-13.28125 0-24-10.71875-24-24v24c0 8.960938 2.960938 17.28125 8 23.921875v49.4375c-24.558594-22-40-53.832031-40-89.359375v-55.921875c32.878906 4.960937 74.640625 7.921875 120 7.921875s87.121094-2.960938 120-7.921875v55.921875c0 35.519531-15.441406 67.441406-40 89.359375v-49.4375c5.039062-6.640625 8-14.960937 8-23.921875v-24c0 13.28125-10.71875 24-24 24zm0 0" fill="#eac6bb"/><path d="m288 227.960938v68.039062c0 7.425781-2.121094 14.34375-5.679688 20.289062-.695312 2.183594-1.503906 4.304688-2.320312 6.429688v46.640625c24.558594-21.917969 40-53.832031 40-89.359375v-55.921875c-9.878906 1.488281-20.65625 2.769531-32 3.882813zm0 0" fill="#d3b1a9"/><path d="m93.921875 166c27.4375-50.71875 87.757813-158 106.078125-158s78.640625 107.28125 106.078125 158c51.761719 6.398438 85.921875 17.441406 85.921875 30 0 11.359375-28.078125 21.519531-72 28.078125-32.878906 4.960937-74.640625 7.921875-120 7.921875s-87.121094-2.960938-120-7.921875c-43.921875-6.550781-72-16.71875-72-28.078125 0-12.558594 34.160156-23.601562 85.921875-30zm0 0" fill="#656d78"/><path d="m200 8c-24 0-120 184-120 184h240s-96-184-120-184zm0 0" fill="#656d78"/><path d="m200 8c-24 0-120 184-120 184s17.664062 8 120 8 120-8 120-8-96-184-120-184zm0 0" fill="#434a54"/><path d="m291.046875 196.777344c23.3125-2.234375 28.953125-4.777344 28.953125-4.777344s-96-184-120-184c-3.785156 0-9.367188 4.59375-16.070312 12.304688 33.460937 38.558593 96.183593 155.832031 107.117187 176.472656zm0 0" fill="#353b44"/><path d="m24 504c-4.425781 0-8-3.574219-8-8 0-39.710938 32.304688-72.015625 72.015625-72.015625 4.425781 0 8 3.574219 8 8 0 4.421875-3.574219 8-8 8-30.886719 0-56.015625 25.128906-56.015625 56.015625 0 4.425781-3.574219 8-8 8zm0 0"/><path d="m376 503.992188c-4.425781 0-8-3.578126-8-8 0-30.871094-25.128906-56-56-56-4.425781 0-8-3.578126-8-8 0-4.425782 3.574219-8 8-8 39.703125 0 72 32.296874 72 72 0 4.421874-3.574219 8-8 8zm0 0"/><path d="m124.566406 440-36.550781-.015625c-4.421875 0-8-3.585937-8-8 0-4.425781 3.585937-8 8-8l36.550781.015625c4.425782 0 8 3.585938 8 8 0 4.425781-3.582031 8-8 8zm0 0"/><path d="m312 439.992188-36.832031-.007813c-4.425781 0-8-3.585937-8-8 0-4.425781 3.585937-8 8-8l36.832031.007813c4.425781 0 8 3.582031 8 8 0 4.421874-3.585938 8-8 8zm0 0"/><path d="m80 295.984375c-4.425781 0-8-3.578125-8-8v-63.847656c0-4.425781 3.574219-8 8-8s8 3.574219 8 8v63.847656c0 4.421875-3.574219 8-8 8zm0 0"/><path d="m320 295.984375c-4.425781 0-8-3.578125-8-8v-63.878906c0-4.425781 3.574219-8 8-8s8 3.574219 8 8v63.878906c0 4.421875-3.574219 8-8 8zm0 0"/><path d="m152 343.976562c-26.472656 0-48-21.527343-48-48 0-4.425781 3.574219-8 8-8s8 3.574219 8 8c0 17.648438 14.351562 32 32 32 4.425781 0 8 3.574219 8 8 0 4.421876-3.574219 8-8 8zm0 0"/><path d="m136 303.976562c-17.648438 0-32-14.351562-32-32 0-4.425781 3.574219-8 8-8s8 3.574219 8 8c0 8.824219 7.175781 16 16 16 4.425781 0 8 3.574219 8 8 0 4.421876-3.574219 8-8 8zm0 0"/><path d="m180 303.976562h-44c-4.425781 0-8-3.578124-8-8 0-4.425781 3.574219-8 8-8h44c4.425781 0 8 3.574219 8 8 0 4.421876-3.574219 8-8 8zm0 0"/><path d="m180 343.976562h-28c-4.425781 0-8-3.578124-8-8 0-4.425781 3.574219-8 8-8h28c4.425781 0 8 3.574219 8 8 0 4.421876-3.574219 8-8 8zm0 0"/><path d="m180 343.976562c-4.425781 0-8-3.578124-8-8 0-4.425781 3.574219-8 8-8 6.617188 0 12-5.382812 12-12 0-6.617187-5.382812-12-12-12-4.425781 0-8-3.578124-8-8 0-4.425781 3.574219-8 8-8 15.441406 0 28 12.558594 28 28 0 15.4375-12.558594 28-28 28zm0 0"/><path d="m112 303.976562c-4.425781 0-8-3.578124-8-8v-24c0-4.425781 3.574219-8 8-8s8 3.574219 8 8v24c0 4.421876-3.574219 8-8 8zm0 0"/><path d="m248 343.976562c-4.425781 0-8-3.578124-8-8 0-4.425781 3.574219-8 8-8 17.648438 0 32-14.351562 32-32 0-4.425781 3.574219-8 8-8s8 3.574219 8 8c0 26.472657-21.527344 48-48 48zm0 0"/><path d="m264 303.976562c-4.425781 0-8-3.578124-8-8 0-4.425781 3.574219-8 8-8 8.824219 0 16-7.175781 16-16 0-4.425781 3.574219-8 8-8s8 3.574219 8 8c0 17.648438-14.351562 32-32 32zm0 0"/><path d="m264 303.976562h-44c-4.425781 0-8-3.578124-8-8 0-4.425781 3.574219-8 8-8h44c4.425781 0 8 3.574219 8 8 0 4.421876-3.574219 8-8 8zm0 0"/><path d="m248 343.976562h-28c-4.425781 0-8-3.578124-8-8 0-4.425781 3.574219-8 8-8h28c4.425781 0 8 3.574219 8 8 0 4.421876-3.574219 8-8 8zm0 0"/><path d="m220 343.976562c-15.441406 0-28-12.5625-28-28 0-15.441406 12.558594-28 28-28 4.425781 0 8 3.574219 8 8 0 4.421876-3.574219 8-8 8-6.617188 0-12 5.382813-12 12 0 6.617188 5.382812 12 12 12 4.425781 0 8 3.574219 8 8 0 4.421876-3.574219 8-8 8zm0 0"/><path d="m288 303.976562c-4.425781 0-8-3.578124-8-8v-24c0-4.425781 3.574219-8 8-8s8 3.574219 8 8v24c0 4.421876-3.574219 8-8 8zm0 0"/><path d="m120 415.976562c-4.425781 0-8-3.578124-8-8v-88.023437c0-4.425781 3.574219-8 8-8s8 3.574219 8 8v88.023437c0 4.421876-3.574219 8-8 8zm0 0"/><path d="m280 415.976562c-4.425781 0-8-3.578124-8-8v-88.023437c0-4.425781 3.574219-8 8-8s8 3.574219 8 8v88.023437c0 4.421876-3.574219 8-8 8zm0 0"/><path d="m200 511.976562c-.855469 0-1.71875-.144531-2.535156-.417968-52.792969-17.664063-85.464844-67.519532-85.464844-103.582032 0-4.425781 3.574219-8 8-8s8 3.574219 8 8c0 30.0625 28.824219 71.855469 72 87.527344 43.175781-15.671875 71.992188-57.472656 71.992188-87.527344 0-4.425781 3.574218-8 8-8 4.421874 0 8 3.574219 8 8 0 36.0625-32.671876 85.917969-85.457032 103.582032-.816406.273437-1.679687.417968-2.535156.417968zm0 0"/><path d="m119.96875 377.382812c-1.90625 0-3.816406-.671874-5.34375-2.046874-27.089844-24.28125-42.625-59.046876-42.625-95.375 0-4.425782 3.574219-8 8-8s8 3.574218 8 8c0 31.792968 13.601562 62.207031 37.3125 83.472656 3.289062 2.941406 3.558594 8 .609375 11.292968-1.578125 1.761719-3.753906 2.65625-5.953125 2.65625zm0 0"/><path d="m280 377.398438c-2.191406 0-4.382812-.894532-5.960938-2.664063-2.941406-3.292969-2.664062-8.351563.625-11.292969 23.726563-21.242187 37.335938-51.664062 37.335938-83.480468 0-4.425782 3.574219-8 8-8s8 3.574218 8 8c0 36.359374-15.542969 71.136718-42.664062 95.398437-1.527344 1.367187-3.441407 2.039063-5.335938 2.039063zm0 0"/><path d="m200 240c-8.167969 0-200-.503906-200-44 0-4.425781 3.574219-8 8-8s8 3.574219 8 8c3.449219 9.886719 67.921875 28 184 28s180.550781-18.113281 184.03125-28.246094c0-4.425781 3.5625-7.875 7.984375-7.875 4.425781 0 7.984375 3.695313 7.984375 8.121094 0 43.503906-191.832031 44-200 44zm0 0"/><path d="m392 204c-4.425781 0-8-3.574219-8-8-1.136719-3.136719-18.128906-14.503906-78.878906-22.070312-4.386719-.546876-7.496094-4.539063-6.945313-8.929688.535157-4.382812 4.527344-7.488281 8.929688-6.945312 92.894531 11.5625 92.894531 31.425781 92.894531 37.945312 0 4.425781-3.574219 8-8 8zm0 0"/><path d="m7.984375 204.128906c-4.425781 0-7.984375-3.703125-7.984375-8.128906 0-6.519531 0-26.375 92.894531-37.953125 4.410157-.527344 8.394531 2.5625 8.929688 6.945313.542969 4.390624-2.558594 8.382812-6.945313 8.929687-60.757812 7.574219-77.75 18.941406-78.910156 22.324219 0 4.425781-3.5625 7.882812-7.984375 7.882812zm0 0"/><path d="m320.007812 200c-2.878906 0-5.671874-1.558594-7.105468-4.296875-43.398438-83.175781-99.117188-175.550781-113.460938-179.757813-4.425781 0-7.730468-3.554687-7.730468-7.976562.007812-4.417969 3.863281-7.96875 8.289062-7.96875 25.105469 0 90.398438 117.976562 127.097656 188.296875 2.039063 3.917969.519532 8.75-3.394531 10.800781-1.191406.613282-2.457031.902344-3.695313.902344zm0 0"/><path d="m79.992188 200c-1.238282 0-2.503907-.289062-3.695313-.902344-3.914063-2.050781-5.433594-6.875-3.394531-10.800781 36.699218-70.320313 101.992187-188.296875 127.097656-188.296875 4.425781 0 8 3.574219 8 8s-3.574219 8-8 8c-13.792969 4.152344-69.503906 96.519531-112.902344 179.703125-1.433594 2.738281-4.226562 4.296875-7.105468 4.296875zm0 0"/><path d="m24 512c-4.425781 0-8-3.574219-8-8v-8c0-4.425781 3.574219-8 8-8s8 3.574219 8 8v8c0 4.425781-3.574219 8-8 8zm0 0"/><path d="m376 512c-4.425781 0-8-3.574219-8-8v-8.007812c0-4.425782 3.574219-8 8-8s8 3.574218 8 8v8.007812c0 4.425781-3.574219 8-8 8zm0 0"/><path d="m456 376c-4.425781 0-8-3.574219-8-8s3.574219-8 8-8c8.824219 0 16-7.175781 16-16s-7.175781-16-16-16-16 7.175781-16 16c0 4.425781-3.574219 8-8 8s-8-3.574219-8-8c0-17.648438 14.351562-32 32-32s32 14.351562 32 32-14.351562 32-32 32zm0 0"/><path d="m432 511.976562c-4.425781 0-8-3.578124-8-8v-159.976562c0-4.425781 3.574219-8 8-8s8 3.574219 8 8v159.976562c0 4.421876-3.574219 8-8 8zm0 0"/><path d="m408 512c-4.425781 0-8-3.574219-8-8v-160c0-4.425781 3.574219-8 8-8s8 3.574219 8 8v160c0 4.425781-3.574219 8-8 8zm0 0"/><path d="m456 400c-4.425781 0-8-3.574219-8-8s3.574219-8 8-8c22.054688 0 40-17.945312 40-40s-17.945312-40-40-40-40 17.945312-40 40c0 4.425781-3.574219 8-8 8s-8-3.574219-8-8c0-30.871094 25.128906-56 56-56s56 25.128906 56 56-25.128906 56-56 56zm0 0"/><path d="m432 424c-4.425781 0-8-3.574219-8-8 0-17.648438 14.351562-32 32-32 4.425781 0 8 3.574219 8 8s-3.574219 8-8 8c-8.824219 0-16 7.175781-16 16 0 4.425781-3.574219 8-8 8zm0 0"/><path d="m432 382.449219c-2.761719 0-5.441406-1.433594-6.929688-3.984375-2.214843-3.824219-.910156-8.710938 2.90625-10.9375 8.480469-4.925782 18.175782-7.527344 28.023438-7.527344 4.425781 0 8 3.574219 8 8s-3.574219 8-8 8c-7.039062 0-13.945312 1.847656-19.992188 5.367188-1.265624.730468-2.640624 1.082031-4.007812 1.082031zm0 0"/><path d="m448 440c-13.230469 0-24-10.769531-24-24 0-4.425781 3.574219-8 8-8s8 3.574219 8 8c0 4.414062 3.585938 8 8 8 4.425781 0 8 3.574219 8 8s-3.574219 8-8 8zm0 0"/><path d="m448 440c-4.425781 0-8-3.574219-8-8s3.574219-8 8-8c4.414062 0 8-3.585938 8-8 0-4.425781 3.574219-8 8-8s8 3.574219 8 8c0 13.230469-10.769531 24-24 24zm0 0"/></svg>