<?xml version="1.0" encoding="utf-8"?>
<!-- Generator: Adobe Illustrator 24.3.0, SVG Export Plug-In . SVG Version: 6.00 Build 0)  -->
<svg version="1.1" id="Layer_1" xmlns="http://www.w3.org/2000/svg" xmlns:xlink="http://www.w3.org/1999/xlink" x="0px" y="0px"
	 viewBox="0 0 512 512" style="enable-background:new 0 0 512 512;" xml:space="preserve">
<style type="text/css">
	.st0{fill:#EAC6BB;}
	.st1{fill:#E6E9ED;}
	.st2{fill:#A0D468;}
	.st3{fill:#8CC152;}
	.st4{fill:#CCD1D9;}
	.st5{fill:#FFCE54;}
	.st6{fill:#DA4453;}
	.st7{fill:#ED5565;}
	.st8{fill:#D3B1A9;}
	.st9{fill:#F6BB42;}
</style>
<path class="st0" d="M408,403.84V432l-24,24l-24-24v-28.16c7.51,2.72,15.6,4.16,24,4.16S400.49,406.56,408,403.84z"/>
<path class="st1" d="M408,432h24l-32,72h-32l-32-72h24l24,24L408,432z"/>
<path class="st2" d="M336,432l32,72h-64c-4.4,0-8-3.6-8-8v-32c0-17.68,14.32-32,32-32H336z"/>
<path class="st2" d="M440,432c17.68,0,32,14.32,32,32v32c0,4.4-3.6,8-8,8h-64l32-72H440z"/>
<path class="st3" d="M440,432h-8l-3.41,7.68C435.51,445.55,440,454.2,440,464v32c0,4.4-3.6,8-8,8h32c4.4,0,8-3.6,8-8v-32
	C472,446.32,457.68,432,440,432z"/>
<path class="st4" d="M432,432h-24c7.89,0,15.01,2.96,20.59,7.68L432,432z"/>
<path class="st5" d="M480,8v160h-80l-16,16l-16-16H144l-16,16l-16-16H32V8H480z"/>
<path class="st6" d="M336,264c0,13.2-10.72,24-24,24v-32c0-13.28,10.72-24,24-24V264z"/>
<path class="st7" d="M472,296v72c0-18-5.92-34.64-16-47.92c0-0.08,0-0.08,0-0.08c-14.64-19.44-37.84-32-64-32h-32
	c-13.28,0-24-10.8-24-24v-32.32h8.32C357.68,221.84,374.16,216,392,216c22.08,0,42.08,8.96,56.56,23.44S472,273.92,472,296z"/>
<path class="st6" d="M448.56,239.44C434.08,224.96,414.08,216,392,216c-5.44,0-10.72,0.6-15.85,1.63
	c15.6,3.2,29.55,10.95,40.41,21.81C431.04,253.92,440,273.92,440,296v8.17c6.02,4.54,11.46,9.81,16,15.83v0.08
	c10.08,13.28,16,29.92,16,47.92v-72C472,273.92,463.04,253.92,448.56,239.44z"/>
<path class="st0" d="M456,320.08V336c0,31.36-20,58-48,67.84c-7.51,2.72-15.6,4.16-24,4.16s-16.49-1.44-24-4.16
	c-28-9.84-48-36.48-48-67.84v-48c13.28,0,24-10.8,24-24c0,13.2,10.72,24,24,24h32c26.16,0,49.36,12.56,64,32V320.08z"/>
<path class="st8" d="M424,294.82V336c0,31.36-20,58-48,67.84c-2.59,0.94-5.28,1.66-8,2.29c5.16,1.2,10.5,1.87,16,1.87
	c8.4,0,16.49-1.44,24-4.16c28-9.84,48-36.49,48-67.84v-15.92c0-0.08,0-0.08,0-0.08C447.74,309.04,436.7,300.38,424,294.82z"/>
<path class="st9" d="M448,8h32v160h-32V8z"/>
<path d="M384,192c-2.05,0-4.1-0.79-5.66-2.34L364.69,176H147.31l-13.66,13.66c-3.13,3.13-8.18,3.13-11.31,0L108.69,176H32
	c-4.43,0-8-3.57-8-8V8c0-4.43,3.57-8,8-8h448c4.43,0,8,3.57,8,8v160c0,4.43-3.57,8-8,8h-76.69l-13.66,13.66
	C388.1,191.21,386.05,192,384,192z M144,160h224c2.13,0,4.16,0.84,5.66,2.34L384,172.69l10.34-10.34c1.5-1.5,3.53-2.34,5.66-2.34h72
	V16H40v144h72c2.13,0,4.16,0.84,5.66,2.34L128,172.69l10.34-10.34C139.84,160.84,141.87,160,144,160z"/>
<path d="M312,343.68c-4.43,0-8-3.57-8-8V288c0-4.43,3.57-8,8-8s8,3.57,8,8v47.68C320,340.11,316.43,343.68,312,343.68z"/>
<path d="M456,344c-4.43,0-8-3.57-8-8v-15.96c0-4.42,3.57-8,8-8s8,3.58,8,8V336C464,340.43,460.43,344,456,344z"/>
<path d="M296,472c-4.43,0-8-3.57-8-8c0-22.05,17.95-40,40-40c4.43,0,8,3.57,8,8s-3.57,8-8,8c-13.23,0-24,10.77-24,24
	C304,468.43,300.43,472,296,472z"/>
<path d="M360,440h-32c-4.43,0-8-3.57-8-8s3.57-8,8-8h32c4.43,0,8,3.57,8,8S364.43,440,360,440z"/>
<path d="M296,504c-4.43,0-8-3.57-8-8v-32c0-4.43,3.57-8,8-8s8,3.57,8,8v32C304,500.43,300.43,504,296,504z"/>
<path d="M304,512c-8.82,0-16-7.18-16-16c0-4.25,3.34-7.31,7.59-7.54c4.54-0.2,7.93,3.33,8.41,7.54c4.41,0,8,3.58,8,8
	C312,508.41,308.43,512,304,512z"/>
<path d="M472,472c-4.43,0-8-3.57-8-8c0-13.23-10.77-24-24-24c-4.43,0-8-3.57-8-8s3.57-8,8-8c22.05,0,40,17.95,40,40
	C480,468.43,476.43,472,472,472z"/>
<path d="M440,440h-32c-4.43,0-8-3.57-8-8s3.57-8,8-8h32c4.43,0,8,3.57,8,8S444.43,440,440,440z"/>
<path d="M472,504c-4.43,0-8-3.57-8-8v-32c0-4.43,3.57-8,8-8s8,3.57,8,8v32C480,500.43,476.43,504,472,504z"/>
<path d="M464,512c-4.43,0-8-3.57-8-8s3.57-8,8-8c0-4.43,3.57-8,8-8s8,3.57,8,8C480,504.82,472.82,512,464,512z"/>
<path d="M464,512H304c-4.43,0-8-3.57-8-8s3.57-8,8-8h160c4.43,0,8,3.57,8,8S468.43,512,464,512z"/>
<path d="M360,440c-4.43,0-8-3.57-8-8v-28.11c0-4.42,3.57-8,8-8s8,3.58,8,8V432C368,436.43,364.43,440,360,440z"/>
<path d="M408,440c-4.43,0-8-3.57-8-8v-28.11c0-4.42,3.57-8,8-8s8,3.58,8,8V432C416,436.43,412.43,440,408,440z"/>
<path d="M383.99,416c-44.11,0-79.99-35.88-79.99-79.98c0-4.42,3.57-8,8-8s8,3.58,8,8c0,35.28,28.7,63.98,63.99,63.98
	c35.3,0,64.01-28.7,64.01-63.98c0-4.42,3.57-8,8-8s8,3.58,8,8C464,380.12,428.11,416,383.99,416z"/>
<path d="M384,464c-2.05,0-4.1-0.79-5.66-2.34l-24-24c-3.13-3.13-3.13-8.18,0-11.31s8.18-3.13,11.31,0l24,24
	c3.13,3.13,3.13,8.18,0,11.31C388.1,463.21,386.05,464,384,464z"/>
<path d="M384,464c-2.05,0-4.1-0.79-5.66-2.34c-3.13-3.13-3.13-8.18,0-11.31l24-24c3.13-3.13,8.18-3.13,11.31,0s3.13,8.18,0,11.31
	l-24,24C388.1,463.21,386.05,464,384,464z"/>
<path d="M360,296c-17.65,0-32-14.35-32-32c0-4.43,3.57-8,8-8s8,3.57,8,8c0,8.82,7.18,16,16,16c4.43,0,8,3.57,8,8S364.43,296,360,296
	z"/>
<path d="M312,296c-4.43,0-8-3.57-8-8s3.57-8,8-8c8.82,0,16-7.18,16-16c0-4.43,3.57-8,8-8s8,3.57,8,8C344,281.65,329.65,296,312,296z
	"/>
<path d="M312,264c-4.43,0-8-3.57-8-8c0-17.65,14.35-32,32-32c4.43,0,8,3.57,8,8s-3.57,8-8,8c-8.82,0-16,7.18-16,16
	C320,260.43,316.43,264,312,264z"/>
<path d="M472,376c-4.43,0-8-3.57-8-8v-72c0-4.43,3.57-8,8-8s8,3.57,8,8v72C480,372.43,476.43,376,472,376z"/>
<path d="M312,296c-4.43,0-8-3.57-8-8v-32c0-4.43,3.57-8,8-8s8,3.57,8,8v32C320,292.43,316.43,296,312,296z"/>
<path d="M392,296h-32c-4.43,0-8-3.57-8-8s3.57-8,8-8h32c4.43,0,8,3.57,8,8S396.43,296,392,296z"/>
<path d="M472,304c-4.43,0-8-3.57-8-8c0-39.7-32.3-72-72-72c-15.59,0-30.43,4.9-42.89,14.18c-3.57,2.62-8.57,1.89-11.2-1.65
	c-2.63-3.54-1.89-8.55,1.65-11.19C354.82,213.99,372.95,208,392,208c48.52,0,88,39.48,88,88C480,300.43,476.43,304,472,304z"/>
<path d="M472,376.02c-4.43,0-8-3.57-8-8c0-39.7-32.3-72-72-72c-4.43,0-8-3.57-8-8c0-4.42,3.57-8,8-8c48.52,0,88,39.48,88,88
	C480,372.44,476.43,376.02,472,376.02z"/>
<path d="M344.33,239.76H336c-4.43,0-8-3.58-8-8c0-4.43,3.57-8,8-8h8.33c4.43,0,8,3.57,8,8
	C352.33,236.18,348.75,239.76,344.33,239.76z"/>
<path d="M336,272c-4.43,0-8-3.57-8-8v-32.24c0-4.43,3.57-8,8-8s8,3.57,8,8V264C344,268.43,340.43,272,336,272z"/>
<path d="M399.99,512c-1.09,0-2.18-0.21-3.24-0.69c-4.04-1.8-5.85-6.52-4.07-10.56l32-72c1.8-4.03,6.54-5.86,10.56-4.07
	c4.04,1.8,5.85,6.52,4.07,10.56l-32,72C405.98,510.22,403.06,512,399.99,512z"/>
<path d="M368.01,512c-3.07,0-5.99-1.77-7.32-4.75l-32-72c-1.79-4.04,0.02-8.77,4.07-10.56c4.05-1.8,8.77,0.03,10.56,4.07l32,72
	c1.79,4.04-0.02,8.77-4.07,10.56C370.19,511.79,369.1,512,368.01,512z"/>
<path d="M136,48H64c-4.43,0-8-3.57-8-8s3.57-8,8-8h72c4.43,0,8,3.57,8,8S140.43,48,136,48z"/>
<path d="M392,80h-72c-4.43,0-8-3.57-8-8s3.57-8,8-8h72c4.43,0,8,3.57,8,8S396.43,80,392,80z"/>
<path d="M216,80H64c-4.43,0-8-3.57-8-8s3.57-8,8-8h152c4.43,0,8,3.57,8,8S220.43,80,216,80z"/>
<path d="M192,48h-24c-4.43,0-8-3.57-8-8s3.57-8,8-8h24c4.43,0,8,3.57,8,8S196.43,48,192,48z"/>
<path d="M352,48H224c-4.43,0-8-3.57-8-8s3.57-8,8-8h128c4.43,0,8,3.57,8,8S356.43,48,352,48z"/>
<path d="M448,48h-64c-4.43,0-8-3.57-8-8s3.57-8,8-8h64c4.43,0,8,3.57,8,8S452.43,48,448,48z"/>
<path d="M136,144H64c-4.43,0-8-3.57-8-8s3.57-8,8-8h72c4.43,0,8,3.57,8,8S140.43,144,136,144z"/>
<path d="M192,144h-24c-4.43,0-8-3.57-8-8s3.57-8,8-8h24c4.43,0,8,3.57,8,8S196.43,144,192,144z"/>
<path d="M352,144H224c-4.43,0-8-3.57-8-8s3.57-8,8-8h128c4.43,0,8,3.57,8,8S356.43,144,352,144z"/>
<path d="M448,144h-64c-4.43,0-8-3.57-8-8s3.57-8,8-8h64c4.43,0,8,3.57,8,8S452.43,144,448,144z"/>
<path d="M88,112H64c-4.43,0-8-3.57-8-8s3.57-8,8-8h24c4.43,0,8,3.57,8,8S92.43,112,88,112z"/>
<path d="M240,112H120c-4.43,0-8-3.57-8-8s3.57-8,8-8h120c4.43,0,8,3.57,8,8S244.43,112,240,112z"/>
<path d="M336,112h-64c-4.43,0-8-3.57-8-8s3.57-8,8-8h64c4.43,0,8,3.57,8,8S340.43,112,336,112z"/>
<path d="M448,112h-80c-4.43,0-8-3.57-8-8s3.57-8,8-8h80c4.43,0,8,3.57,8,8S452.43,112,448,112z"/>
<path d="M288,80h-40c-4.43,0-8-3.57-8-8s3.57-8,8-8h40c4.43,0,8,3.57,8,8S292.43,80,288,80z"/>
<path d="M448,80h-24c-4.43,0-8-3.57-8-8s3.57-8,8-8h24c4.43,0,8,3.57,8,8S452.43,80,448,80z"/>
</svg>
