<?xml version="1.0" encoding="utf-8"?>
<!-- Generator: Adobe Illustrator 24.3.0, SVG Export Plug-In . SVG Version: 6.00 Build 0)  -->
<svg version="1.1" id="Layer_1" xmlns="http://www.w3.org/2000/svg" xmlns:xlink="http://www.w3.org/1999/xlink" x="0px" y="0px"
	 viewBox="0 0 512 512" style="enable-background:new 0 0 512 512;" xml:space="preserve">
<style type="text/css">
	.st0{fill:#ED5565;}
	.st1{fill:#DA4453;}
	.st2{fill:#FFCE54;}
	.st3{fill:#AC92EC;}
	.st4{fill:#967ADC;}
	.st5{fill:#EAC6BB;}
	.st6{fill:#D3B1A9;}
	.st7{fill:#E29F33;}
	.st8{fill:#F6BB42;}
	.st9{fill:#EDAB37;}
</style>
<path class="st0" d="M11.46,9.52v208h135.39l47.79,24v-24h23.89v-208H11.46z"/>
<path class="st1" d="M43.32,9.52H11.46v208h31.86V9.52z"/>
<path class="st2" d="M55.27,101.99l29.87,28.72l-7.09,40.48L115,152.06l36.87,19.12l-7.01-40.48l29.87-28.72l-41.26-5.92L115,59.18
	L96.52,96.06L55.27,101.99z"/>
<path class="st3" d="M495,432v56c0,4.4-3.6,8-8,8H239c-4.4,0-8-3.6-8-8v-56c0-9.04,3.04-17.36,8.08-24.08
	C246.36,398.24,257.96,392,271,392h24v32c0,13.2,28.4,24,68,24s68-10.8,68-24v-32h24c13.04,0,24.64,6.24,31.92,15.92
	C491.96,414.64,495,422.96,495,432z"/>
<path class="st4" d="M486.92,407.92C479.64,398.24,468.04,392,455,392h-24v0.86c9.71,1.98,18.17,7.43,23.92,15.07
	c5.04,6.72,8.08,15.04,8.08,24.08v56c0,4.4-3.6,8-8,8h32c4.4,0,8-3.6,8-8v-56C495,422.96,491.96,414.64,486.92,407.92z"/>
<path class="st5" d="M431,392v32c0,13.2-28.4,24-68,24s-68-10.8-68-24v-32h32v-30.72c11.2,4.32,23.28,6.72,36,6.72s24.8-2.4,36-6.72
	V392H431z"/>
<path class="st5" d="M463,219.44V268c0,42.48-26.56,78.88-64,93.28c-11.2,4.32-23.28,6.72-36,6.72s-24.8-2.4-36-6.72
	c-37.44-14.4-64-50.81-64-93.28v-46.4l112-48.4l88,46.16V219.44z"/>
<path class="st6" d="M431,202.57V268c0,42.48-26.56,78.88-64,93.28c-6.39,2.46-13.09,4.21-20,5.34c5.21,0.85,10.53,1.38,16,1.38
	c12.72,0,24.8-2.4,36-6.72c37.44-14.4,64-50.81,64-93.28v-48.64L431,202.57z"/>
<path class="st7" d="M263,268c0,42.48,26.56,78.88,64,93.28V392h-56c-13.04,0-24.64,6.24-31.92,15.92l-0.08-0.08V232l24-10.4V268z"
	/>
<path class="st7" d="M487,232v175.84l-0.08,0.08C479.64,398.24,468.04,392,455,392h-56v-30.72c37.44-14.4,64-50.81,64-93.28v-48.56
	L487,232z"/>
<path class="st8" d="M487,212v20l-24-12.56v-0.08l-88-46.16l86-37.2C477.24,156.96,487,183.36,487,212z"/>
<path class="st2" d="M263,221.6L239,232v-20c0-68.48,55.52-124,124-124c39.84,0,75.28,18.8,98,48l-86,37.2L263,221.6z"/>
<path class="st8" d="M347.17,89.13c33.17,4.33,62.24,21.7,81.83,46.87c2.64,3.41,5.04,7,7.32,10.68L461,136
	c-22.72-29.2-58.16-48-98-48c-3.27,0-6.48,0.24-9.68,0.5C351.26,88.67,349.2,88.86,347.17,89.13z"/>
<path class="st9" d="M461,136l-24.68,10.68C448.09,165.64,455,188.01,455,212v3.17l8,4.19v0.08L487,232v-20
	C487,183.36,477.24,156.96,461,136z"/>
<path d="M231,440.01c-4.43,0-8-3.57-8-8c0-26.47,21.53-48.01,48-48.01c4.43,0,8,3.57,8,8s-3.57,8-8,8c-17.65,0-32,14.36-32,32.01
	C239,436.43,235.43,440.01,231,440.01z"/>
<path d="M495,440c-4.43,0-8-3.57-8-8c0-17.65-14.35-32-32-32c-4.43,0-8-3.57-8-8s3.57-8,8-8c26.47,0,48,21.53,48,48
	C503,436.43,499.43,440,495,440z"/>
<path d="M327,400h-56c-4.43,0-8-3.57-8-8s3.57-8,8-8h56c4.43,0,8,3.57,8,8S331.43,400,327,400z"/>
<path d="M455,400h-56c-4.43,0-8-3.57-8-8s3.57-8,8-8h56c4.43,0,8,3.57,8,8S459.43,400,455,400z"/>
<path d="M231.01,496c-4.41,0-8-3.57-8-8L223,432c0-4.41,3.57-8,8-8c4.41,0,8,3.57,8,8l0.01,56C239.01,492.41,235.43,496,231.01,496z
	"/>
<path d="M239.01,504c-8.82,0-16-7.18-16-16c0-4.43,3.58-8,8-8c4.43,0,8,3.57,8,8v0.02c4.43,0,8,3.57,8,7.99
	C247.01,500.43,243.43,504,239.01,504z"/>
<path d="M487,504c-4.43,0-8-3.57-8-8s3.57-8,8-8h0.01c0-4.43,3.58-8,8-8c4.42,0,7.99,3.57,7.99,8C503,496.82,495.82,504,487,504z"/>
<path d="M495,496c-4.43,0-8-3.57-8-8v-56c0-4.43,3.57-8,8-8s8,3.57,8,8v56C503,492.43,499.43,496,495,496z"/>
<path d="M487,504H239c-4.43,0-8-3.57-8-8s3.57-8,8-8h248c4.43,0,8,3.57,8,8S491.43,504,487,504z"/>
<path d="M327,400c-4.43,0-8-3.57-8-8v-30.68c0-4.43,3.57-8,8-8s8,3.57,8,8V392C335,396.43,331.43,400,327,400z"/>
<path d="M399,400c-4.43,0-8-3.57-8-8v-30.68c0-4.43,3.57-8,8-8s8,3.57,8,8V392C407,396.43,403.43,400,399,400z"/>
<path d="M363,376c-59.55,0-108-48.45-108-108c0-4.43,3.57-8,8-8s8,3.57,8,8c0,50.73,41.27,92,92,92s92-41.27,92-92
	c0-4.43,3.57-8,8-8s8,3.57,8,8C471,327.55,422.55,376,363,376z"/>
<path d="M487,220c-4.43,0-8-3.57-8-8c0-63.96-52.04-116-116-116s-116,52.04-116,116c0,4.43-3.57,8-8,8s-8-3.57-8-8
	c0-72.79,59.21-132,132-132s132,59.21,132,132C495,216.43,491.43,220,487,220z"/>
<path d="M263,276c-4.43,0-8-3.57-8-8v-46.38c0-4.43,3.57-8,8-8s8,3.57,8,8V268C271,272.43,267.43,276,263,276z"/>
<path d="M463,276c-4.43,0-8-3.57-8-8v-48.6c0-4.42,3.57-8,8-8s8,3.58,8,8V268C471,272.43,467.43,276,463,276z"/>
<path d="M239.01,240c-3.11,0-6.05-1.81-7.35-4.83c-1.75-4.05,0.11-8.76,4.17-10.51l221.99-96c4.04-1.75,8.77,0.11,10.51,4.17
	c1.75,4.05-0.11,8.76-4.17,10.51l-221.99,96C241.14,239.79,240.06,240,239.01,240z"/>
<path d="M486.99,240c-1.25,0-2.52-0.3-3.71-0.91l-112-58.82c-3.91-2.06-5.43-6.89-3.37-10.81c2.07-3.91,6.89-5.4,10.81-3.37
	l112,58.81c3.91,2.06,5.43,6.89,3.37,10.81C492.65,238.45,489.86,240,486.99,240z"/>
<path d="M295,432c-4.43,0-8-3.57-8-8v-32c0-4.43,3.57-8,8-8s8,3.57,8,8v32C303,428.43,299.43,432,295,432z"/>
<path d="M431,432c-4.43,0-8-3.57-8-8v-32c0-4.43,3.57-8,8-8s8,3.57,8,8v32C439,428.43,435.43,432,431,432z"/>
<path d="M363,456c-37.83,0-76-9.89-76-32c0-4.43,3.57-8,8-8s8,3.57,8,8c0,4.41,18.46,16,60,16s60-11.59,60-16c0-4.43,3.57-8,8-8
	s8,3.57,8,8C439,446.11,400.83,456,363,456z"/>
<path d="M239,415.85c-4.43,0-8-3.57-8-8V212c0-4.43,3.57-8,8-8s8,3.57,8,8v195.85C247,412.27,243.43,415.85,239,415.85z"/>
<path d="M487,415.85c-4.43,0-8-3.57-8-8V212c0-4.43,3.57-8,8-8s8,3.57,8,8v195.85C495,412.27,491.43,415.85,487,415.85z"/>
<path d="M194.64,249.52c1.46,0,2.91-0.4,4.18-1.19c2.35-1.46,3.78-4.03,3.78-6.81v-16h15.93c4.41,0,7.96-3.57,7.96-8v-208
	c0-4.43-3.56-8-7.96-8H11.46c-4.41,0-7.96,3.57-7.96,8v208c0,4.43,3.56,8,7.96,8h133.52l46.1,23.16
	C192.2,249.24,193.42,249.52,194.64,249.52z M210.57,209.52h-15.93c-4.41,0-7.96,3.57-7.96,8v11.05l-36.25-18.21
	c-1.1-0.56-2.33-0.85-3.56-0.85H19.43v-192h191.14V209.52z"/>
<path d="M78.09,177.52c1.24,0,2.49-0.3,3.65-0.89L115,159.41l33.26,17.22c2.69,1.39,5.92,1.14,8.37-0.66
	c2.44-1.8,3.65-4.83,3.13-7.83l-6.33-36.3l26.81-25.75c2.2-2.12,3.01-5.31,2.08-8.22c-0.93-2.91-3.44-5.04-6.47-5.48l-37.15-5.31
	l-16.59-33.14c-2.71-5.41-11.53-5.41-14.23,0L91.3,87.06l-37.15,5.31c-3.03,0.44-5.53,2.56-6.47,5.48
	c-0.94,2.92-0.12,6.11,2.08,8.22l26.81,25.75l-6.33,36.3c-0.52,2.99,0.69,6.03,3.13,7.83C74.76,177,76.42,177.52,78.09,177.52z
	 M115,142.41c-1.25,0-2.5,0.3-3.65,0.89l-22.66,11.73l4.3-24.64c0.46-2.63-0.42-5.32-2.34-7.17l-18.04-17.33l25.04-3.57
	c2.58-0.38,4.82-1.98,6-4.33L115,75.33L126.35,98c1.17,2.34,3.42,3.95,6,4.33l25.04,3.57l-18.04,17.33
	c-1.92,1.84-2.8,4.53-2.34,7.17l4.3,24.64l-22.66-11.73C117.5,142.71,116.25,142.41,115,142.41z"/>
</svg>
