<?xml version="1.0" encoding="utf-8"?>
<!-- Generator: Adobe Illustrator 24.3.0, SVG Export Plug-In . SVG Version: 6.00 Build 0)  -->
<svg version="1.1" id="Layer_1" xmlns="http://www.w3.org/2000/svg" xmlns:xlink="http://www.w3.org/1999/xlink" x="0px" y="0px"
	 viewBox="0 0 512 512" style="enable-background:new 0 0 512 512;" xml:space="preserve">
<style type="text/css">
	.st0{fill:#ED5565;}
	.st1{fill:#DA4453;}
	.st2{fill:#161313;}
	.st3{fill:#141010;}
	.st4{fill:#EAC6BB;}
	.st5{fill:#D3B1A9;}
	.st6{fill:#E6E9ED;}
	.st7{fill:#5D9CEC;}
	.st8{fill:#4A89DC;}
</style>
<path class="st0" d="M431.78,256c0,97.2-78.8,176-176,176c-97.2,0-176-78.8-176-176c0-97.2,78.8-176,176-176
	C352.99,80,431.78,158.8,431.78,256z"/>
<path class="st1" d="M255.78,80c-5.4,0-10.73,0.28-16,0.76c89.7,8.08,160,83.43,160,175.24c0,91.8-70.3,167.16-160,175.24
	c5.27,0.48,10.6,0.76,16,0.76c97.2,0,176-78.8,176-176C431.78,158.8,352.98,80,255.78,80z"/>
<path class="st2" d="M327.78,208v24.24l-24-16.24c0,0-16,8-44,8c-27.92,0-52-8-52-8l-24,16.24V208c0-35.36,28.64-64,64-64h48v32
	C313.46,176,327.78,190.32,327.78,208z"/>
<path class="st3" d="M295.78,176v-32h-32v48c17.68,0,32,6.32,32,24v2.96c5.15-1.59,8-2.96,8-2.96l24,16.24V208
	C327.78,190.32,313.46,176,295.78,176z"/>
<path class="st4" d="M327.78,232.24V256c0,28.24-16.32,52.72-40,64.48c-9.6,4.8-20.48,7.52-32,7.52s-22.4-2.72-32-7.52
	c-23.6-11.68-39.84-36-40-64.08v-24.16l24-16.24c0,0,24.08,8,52,8c28,0,44-8,44-8L327.78,232.24z"/>
<path class="st5" d="M303.78,216c0,0-2.85,1.37-8,2.96V256c0,28.24-16.32,52.72-40,64.48c-5.02,2.5-10.38,4.42-16,5.7
	c5.14,1.17,10.5,1.82,16,1.82c11.52,0,22.4-2.72,32-7.52c23.68-11.76,40-36.23,40-64.48v-23.76L303.78,216z"/>
<path class="st6" d="M255.78,328c11.52,0,22.4-2.72,32-7.52V352l-16,8l-16-8l-16,8l-16-8v-31.52
	C233.38,325.28,244.26,328,255.78,328z"/>
<path class="st7" d="M271.78,360l16-8h24c22.16,0,40,17.92,40,40v11.52c-27.6,18-60.64,28.48-96,28.48c-35.44,0-68.4-10.48-96-28.48
	V392c0-22.08,17.92-40,40-40h24l16,8l16-8L271.78,360z"/>
<path class="st8" d="M311.78,352h-24l-1.34,0.67c18.95,3.18,33.34,19.52,33.34,39.33v27.94c11.27-4.41,22-9.9,32-16.42V392
	C351.78,369.92,333.94,352,311.78,352z"/>
<path d="M159.77,400c-4.42,0-8-3.58-8-8c0-26.47,21.53-48,48-48c4.43,0,8,3.57,8,8c0,4.42-3.57,8-8,8c-17.65,0-32,14.35-32,32
	C167.77,396.43,164.2,400,159.77,400z"/>
<path d="M223.77,360h-24c-4.42,0-8-3.58-8-8c0-4.43,3.58-8,8-8h24c4.43,0,8,3.57,8,8C231.77,356.43,228.2,360,223.77,360z"/>
<path d="M159.77,411.52c-4.42,0-8-3.58-8-8V392c0-4.43,3.58-8,8-8c4.43,0,8,3.57,8,8v11.52
	C167.77,407.95,164.2,411.52,159.77,411.52z"/>
<path d="M351.77,400c-4.42,0-8-3.58-8-8c0-17.65-14.35-32-32-32c-4.42,0-8-3.58-8-8c0-4.43,3.58-8,8-8c26.47,0,48,21.53,48,48
	C359.77,396.43,356.2,400,351.77,400z"/>
<path d="M311.77,360h-24c-4.42,0-8-3.58-8-8c0-4.43,3.58-8,8-8h24c4.43,0,8,3.57,8,8C319.77,356.43,316.2,360,311.77,360z"/>
<path d="M351.77,411.52c-4.42,0-8-3.58-8-8V392c0-4.43,3.58-8,8-8c4.43,0,8,3.57,8,8v11.52
	C359.77,407.95,356.2,411.52,351.77,411.52z"/>
<path d="M223.77,360c-4.42,0-8-3.58-8-8v-31.49c0-4.43,3.58-8,8-8c4.43,0,8,3.57,8,8V352C231.77,356.43,228.2,360,223.77,360z"/>
<path d="M287.77,360c-4.42,0-8-3.58-8-8v-31.49c0-4.43,3.58-8,8-8c4.43,0,8,3.57,8,8V352C295.77,356.43,292.2,360,287.77,360z"/>
<path d="M295.77,152h-48c-4.42,0-8-3.59-8-8c0-4.42,3.58-8,8-8h48c4.43,0,8,3.58,8,8C303.77,148.42,300.2,152,295.77,152z"/>
<path d="M255.77,336c-44.11,0-79.99-35.88-79.99-79.98c0-4.42,3.58-8,8-8c4.43,0,8,3.58,8,8c0,35.28,28.7,63.98,63.99,63.98
	c35.3,0,64.01-28.71,64.01-63.98c0-4.42,3.58-8,8-8c4.43,0,8,3.58,8,8C335.77,300.12,299.89,336,255.77,336z"/>
<path d="M183.77,264.41c-4.42,0-8-3.59-8-8V208c0-4.42,3.58-8,8-8c4.43,0,8,3.58,8,8v48.41
	C191.77,260.82,188.2,264.41,183.77,264.41z"/>
<path d="M327.77,264.02c-4.42,0-8-3.59-8-8V208c0-4.42,3.58-8,8-8c4.43,0,8,3.58,8,8v48.02
	C335.77,260.43,332.2,264.02,327.77,264.02z"/>
<path d="M327.77,215.99c-4.42,0-8-3.58-8-8c0-13.23-10.77-23.99-24-23.99c-4.42,0-8-3.59-8-8c0-4.42,3.58-8,8-8
	c22.06,0,40,17.94,40,39.99C335.77,212.41,332.2,215.99,327.77,215.99z"/>
<path d="M295.77,184c-4.42,0-8-3.59-8-8v-32c0-4.42,3.58-8,8-8c4.43,0,8,3.58,8,8v32C303.77,180.42,300.2,184,295.77,184z"/>
<path d="M183.77,216c-4.42,0-8-3.59-8-8c0-39.7,32.3-72,72-72c4.43,0,8,3.58,8,8c0,4.41-3.57,8-8,8c-30.87,0-56,25.12-56,56
	C191.77,212.42,188.2,216,183.77,216z"/>
<path d="M327.77,240.2c-1.54,0-3.09-0.44-4.47-1.37l-24-16.2c-3.66-2.47-4.62-7.45-2.16-11.1c2.48-3.66,7.44-4.64,11.11-2.15
	l24,16.2c3.66,2.47,4.62,7.45,2.16,11.11C332.86,238.97,330.34,240.2,327.77,240.2z"/>
<path d="M259.77,232c-28.89,0-53.5-8.07-54.52-8.41c-4.18-1.39-6.46-5.91-5.07-10.11c1.39-4.19,5.92-6.5,10.11-5.08
	c0.23,0.08,23.27,7.59,49.48,7.59c25.43,0,40.32-7.11,40.47-7.18c3.95-1.93,8.75-0.3,10.7,3.66c1.95,3.95,0.34,8.72-3.59,10.68
	C306.61,223.52,289.26,232,259.77,232z"/>
<path d="M183.78,240.2c-2.57,0-5.09-1.23-6.64-3.52c-2.47-3.66-1.5-8.63,2.16-11.11l24-16.2c3.66-2.49,8.64-1.5,11.11,2.15
	c2.47,3.66,1.5,8.63-2.16,11.1l-24,16.2C186.88,239.76,185.32,240.2,183.78,240.2z"/>
<path d="M239.77,368c-1.2,0-2.42-0.27-3.57-0.84l-16-8c-3.95-1.97-5.55-6.78-3.58-10.73c1.98-3.95,6.79-5.53,10.74-3.57l16,8
	c3.95,1.97,5.55,6.78,3.57,10.73C245.53,366.39,242.7,368,239.77,368z"/>
<path d="M239.78,368c-2.93,0-5.76-1.62-7.17-4.43c-1.98-3.95-0.38-8.76,3.58-10.73l16-8c3.96-1.95,8.75-0.38,10.73,3.57
	c1.98,3.95,0.38,8.76-3.57,10.73l-16,8C242.21,367.73,240.98,368,239.78,368z"/>
<path d="M271.78,368c-2.93,0-5.76-1.62-7.17-4.43c-1.98-3.95-0.38-8.76,3.58-10.73l16-8c3.95-1.95,8.75-0.38,10.73,3.57
	c1.98,3.95,0.38,8.76-3.57,10.73l-16,8C274.21,367.73,272.98,368,271.78,368z"/>
<path d="M271.77,368c-1.2,0-2.42-0.27-3.57-0.84l-16-8c-3.95-1.97-5.55-6.78-3.58-10.73c1.98-3.95,6.79-5.53,10.74-3.57l16,8
	c3.95,1.97,5.55,6.78,3.57,10.73C277.53,366.39,274.7,368,271.77,368z"/>
<path d="M255.77,440c-101.46,0-184-82.54-184-184c0-101.46,82.54-184,184-184s184,82.54,184,184
	C439.77,357.46,357.24,440,255.77,440z M255.77,88c-92.63,0-168,75.36-168,168c0,92.63,75.37,168,168,168s168-75.37,168-168
	C423.77,163.36,348.41,88,255.77,88z"/>
<path d="M255.77,512c-4.42,0-8-3.58-8-8v-72c0-4.43,3.58-8,8-8c4.43,0,8,3.57,8,8v72C263.77,508.43,260.2,512,255.77,512z"/>
<path d="M255.77,512c-2.05,0-4.09-0.79-5.66-2.35c-3.12-3.12-3.12-8.18,0-11.31l16-16c3.13-3.13,8.18-3.13,11.31,0
	c3.13,3.12,3.13,8.18,0,11.31l-16,16C259.87,511.22,257.83,512,255.77,512z"/>
<path d="M255.77,512c-2.05,0-4.09-0.79-5.66-2.35l-16-16c-3.12-3.12-3.12-8.18,0-11.31c3.13-3.13,8.18-3.13,11.31,0l16,16
	c3.13,3.12,3.13,8.18,0,11.31C259.87,511.22,257.83,512,255.77,512z"/>
<path d="M255.77,88c-4.42,0-8-3.59-8-8V8c0-4.42,3.58-8,8-8c4.43,0,8,3.58,8,8v72C263.77,84.42,260.2,88,255.77,88z"/>
<path d="M239.77,32c-2.05,0-4.09-0.79-5.66-2.35c-3.12-3.12-3.12-8.18,0-11.31l16-16c3.13-3.13,8.18-3.13,11.31,0
	c3.13,3.12,3.13,8.18,0,11.31l-16,16C243.87,31.22,241.83,32,239.77,32z"/>
<path d="M271.77,32c-2.05,0-4.09-0.79-5.66-2.35l-16-16c-3.12-3.12-3.12-8.18,0-11.31c3.13-3.13,8.18-3.13,11.31,0l16,16
	c3.13,3.12,3.13,8.18,0,11.31C275.87,31.22,273.83,32,271.77,32z"/>
<path d="M470.55,388c-1.36,0-2.74-0.35-3.99-1.07l-62.36-36c-3.83-2.21-5.14-7.11-2.93-10.93c2.21-3.82,7.11-5.15,10.93-2.93
	l62.36,36c3.83,2.21,5.14,7.11,2.93,10.93C476,386.56,473.31,388,470.55,388z"/>
<path d="M470.55,388c-3.53,0-6.76-2.36-7.72-5.93l-5.86-21.86c-1.15-4.27,1.39-8.66,5.66-9.8c4.27-1.15,8.65,1.38,9.8,5.66
	l5.86,21.86c1.15,4.27-1.39,8.66-5.66,9.8C471.93,387.91,471.24,388,470.55,388z"/>
<path d="M448.69,393.86c-3.53,0-6.76-2.35-7.72-5.93c-1.15-4.27,1.39-8.66,5.66-9.8l21.86-5.86c4.27-1.15,8.65,1.38,9.8,5.66
	c1.15,4.27-1.39,8.66-5.66,9.8l-21.86,5.86C450.07,393.78,449.38,393.86,448.69,393.86z"/>
<path d="M103.35,176c-1.36,0-2.74-0.35-3.99-1.07l-62.35-36c-3.82-2.21-5.14-7.11-2.93-10.93c2.21-3.83,7.11-5.14,10.93-2.93
	l62.35,36c3.83,2.21,5.14,7.11,2.93,10.93C108.81,174.57,106.12,176,103.35,176z"/>
<path d="M46.86,161.86c-3.53,0-6.77-2.36-7.72-5.94l-5.85-21.86c-1.14-4.27,1.39-8.66,5.66-9.8c4.27-1.14,8.66,1.39,9.8,5.66
	l5.85,21.86c1.14,4.27-1.39,8.66-5.66,9.8C48.24,161.77,47.54,161.86,46.86,161.86z"/>
<path d="M41,140c-3.53,0-6.77-2.36-7.72-5.94c-1.14-4.27,1.39-8.66,5.66-9.8l21.85-5.86c4.27-1.14,8.66,1.38,9.8,5.66
	c1.14,4.26-1.39,8.66-5.66,9.8l-21.85,5.86C42.38,139.91,41.69,140,41,140z"/>
<path d="M408.21,176c-2.77,0-5.46-1.43-6.94-4c-2.21-3.83-0.89-8.72,2.93-10.93l62.36-36c3.82-2.21,8.71-0.9,10.93,2.93
	c2.21,3.83,0.9,8.72-2.93,10.93l-62.36,36C410.94,175.66,409.57,176,408.21,176z"/>
<path d="M470.57,140c-0.69,0-1.38-0.09-2.08-0.28l-21.86-5.86c-4.26-1.14-6.8-5.53-5.66-9.8c1.14-4.27,5.54-6.81,9.8-5.66
	l21.86,5.86c4.27,1.14,6.8,5.53,5.66,9.8C477.33,137.64,474.09,140,470.57,140z"/>
<path d="M464.71,161.86c-0.69,0-1.38-0.09-2.08-0.28c-4.26-1.14-6.8-5.53-5.66-9.8l5.85-21.86c1.14-4.27,5.54-6.79,9.8-5.66
	c4.27,1.14,6.8,5.53,5.66,9.8l-5.85,21.86C471.48,159.51,468.25,161.86,464.71,161.86z"/>
<path d="M41.02,387.99c-2.77,0-5.46-1.44-6.94-4c-2.21-3.83-0.89-8.72,2.93-10.93l62.36-35.99c3.81-2.21,8.71-0.89,10.93,2.93
	c2.21,3.83,0.9,8.72-2.93,10.93l-62.36,35.99C43.75,387.65,42.38,387.99,41.02,387.99z"/>
<path d="M62.88,393.85c-0.69,0-1.38-0.09-2.08-0.27l-21.86-5.86c-4.26-1.14-6.81-5.53-5.66-9.8s5.54-6.79,9.8-5.66l21.86,5.86
	c4.27,1.14,6.81,5.53,5.66,9.8C69.63,391.51,66.41,393.85,62.88,393.85z"/>
<path d="M41.02,387.99c-0.69,0-1.39-0.09-2.08-0.27c-4.26-1.14-6.81-5.53-5.66-9.8l5.86-21.85c1.15-4.27,5.53-6.8,9.8-5.66
	c4.27,1.14,6.81,5.53,5.66,9.8l-5.86,21.85C47.77,385.64,44.55,387.99,41.02,387.99z"/>
</svg>
