<svg id="icons" enable-background="new 0 0 64 64" height="512" viewBox="0 0 64 64" width="512" xmlns="http://www.w3.org/2000/svg"><path d="m57.005 58v3c0 1.1-.9 2-2 2h-36c-1.1 0-2-.9-2-2v-3h.99 38.01z" fill="#656d78"/><path d="m17.995 49v3h-5.49c-.83 0-1.5-.67-1.5-1.5s.67-1.5 1.5-1.5z" fill="#e6e9ed"/><path d="m17.995 40v5.01h-10c-2.21 0-4-1.79-4-4v-29-.01c0-2.21 1.79-4 4-4h10v5.01h-8.99v26.99z" fill="#8cc152"/><path d="m56.005 5v1h-38.01v-1c0-2.21 1.79-4 4-4h30.01c2.21 0 4 1.79 4 4z" fill="#e6e9ed"/><path d="m40.005 31v9c0 1.66-1.35 3-3 3-1.66 0-3-1.34-3-3v-9z" fill="#5d9cec"/><path d="m40.005 22.01v8.99h-6v-8.99c0-1.66 1.34-3 3-3 1.65 0 3 1.34 3 3z" fill="#656d78"/><path d="m60.005 6v2l-4 8.01v41.99h-38.01v-6-3-3.99-5.01-26.99-5.01-2h38.01zm-20 34v-9-8.99c0-1.66-1.35-3-3-3-1.66 0-3 1.34-3 3v8.99 9c0 1.66 1.34 3 3 3 1.65 0 3-1.34 3-3z" fill="#a0d468"/><path d="m56 59.002c-.553 0-1-.447-1-1v-41.996c0-.155.036-.309.105-.447l4.004-8.002c.247-.494.848-.693 1.342-.447.494.247.694.848.447 1.342l-3.898 7.79v41.76c0 .553-.447 1-1 1z"/><path d="m17.997 59.002c-.553 0-1-.447-1-1v-53.002c0-.553.447-1 1-1s1 .447 1 1v53.002c0 .553-.447 1-1 1z"/><path d="m60.004 7.002h-42.007c-.553 0-1-.447-1-1s.447-1 1-1h42.007c.553 0 1 .447 1 1s-.447 1-1 1z"/><path d="m17.997 6c-.553 0-1-.447-1-1 0-2.757 2.243-5 5-5 .553 0 1 .447 1 1s-.447 1-1 1c-1.654 0-3 1.346-3 3 0 .553-.447 1-1 1z"/><path d="m56 6c-.553 0-1-.447-1-1 0-1.654-1.346-3-3-3-.553 0-1-.447-1-1s.447-1 1-1c2.757 0 5 2.243 5 5 0 .553-.447 1-1 1z"/><path d="m52 2h-30.003c-.553 0-1-.447-1-1s.447-1 1-1h30.003c.553 0 1 .447 1 1s-.447 1-1 1z"/><path d="m54.999 64h-35.994c-1.654 0-3-1.346-3-3v-3c0-.553.447-1 1-1s1 .447 1 1v3c0 .552.448 1 1 1h35.994c.552 0 1-.448 1-1v-3c0-.553.447-1 1-1s1 .447 1 1v3c0 1.654-1.346 3-3 3z"/><path d="m39.999 23.006c-.553 0-1-.447-1-1 0-1.103-.897-2-2-2s-2 .897-2 2c0 .553-.447 1-1 1s-1-.447-1-1c0-2.206 1.794-4 4-4s4 1.794 4 4c0 .553-.447 1-1 1z"/><path d="m36.999 44.002c-2.206 0-4-1.794-4-4 0-.553.447-1 1-1s1 .447 1 1c0 1.103.897 2 2 2s2-.897 2-2c0-.553.447-1 1-1s1 .447 1 1c0 2.206-1.794 4-4 4z"/><path d="m56 7.002c-.553 0-1-.447-1-1v-1.002c0-.553.447-1 1-1s1 .447 1 1v1.002c0 .553-.447 1-1 1z"/><path d="m39.999 41.002c-.553 0-1-.447-1-1v-17.996c0-.553.447-1 1-1s1 .447 1 1v17.996c0 .553-.447 1-1 1z"/><path d="m33.999 41.002c-.553 0-1-.447-1-1v-17.996c0-.553.447-1 1-1s1 .447 1 1v17.996c0 .553-.447 1-1 1z"/><path d="m39.999 32.002h-6c-.553 0-1-.447-1-1s.447-1 1-1h6c.553 0 1 .447 1 1s-.447 1-1 1z"/><path d="m12.504 52.998c-1.379 0-2.5-1.121-2.5-2.5s1.121-2.5 2.5-2.5c.553 0 1 .447 1 1s-.447 1-1 1c-.275 0-.5.225-.5.5s.225.5.5.5c.553 0 1 .447 1 1s-.447 1-1 1z"/><path d="m17.997 52.998h-5.493c-.553 0-1-.447-1-1s.447-1 1-1h5.493c.553 0 1 .447 1 1s-.447 1-1 1z"/><path d="m18.002 49.998h-5.498c-.553 0-1-.447-1-1s.447-1 1-1h5.498c.553 0 1 .447 1 1s-.447 1-1 1z"/><path d="m60.004 9.004c-.553 0-1-.447-1-1v-2.002c0-.553.447-1 1-1s1 .447 1 1v2.002c0 .553-.447 1-1 1z"/><path d="m17.997 14.008h-8.999c-.553 0-1-.447-1-1s.447-1 1-1h8.999c.553 0 1 .447 1 1s-.447 1-1 1z"/><path d="m8.998 41.004c-.553 0-1-.447-1-1v-26.996c0-.553.447-1 1-1s1 .447 1 1v26.996c0 .553-.447 1-1 1z"/><path d="m3.996 42.006c-.553 0-1-.447-1-1v-28.998c0-.553.447-1 1-1s1 .447 1 1v28.998c0 .553-.447 1-1 1z"/><path d="m18 41.004h-9.002c-.553 0-1-.447-1-1s.447-1 1-1h9.002c.553 0 1 .447 1 1s-.447 1-1 1z"/><path d="m3.996 13c-.553 0-1-.447-1-1 0-2.757 2.243-5 5-5 .553 0 1 .447 1 1s-.447 1-1 1c-1.654 0-3 1.346-3 3 0 .553-.447 1-1 1z"/><path d="m17.995 9h-9.999c-.553 0-1-.447-1-1s.447-1 1-1h9.999c.553 0 1 .447 1 1s-.447 1-1 1z"/><path d="m7.996 46.01c-2.757 0-5-2.243-5-5 0-.553.447-1 1-1s1 .447 1 1c0 1.654 1.346 3 3 3 .553 0 1 .447 1 1s-.447 1-1 1z"/><path d="m17.995 46.01h-9.999c-.553 0-1-.447-1-1s.447-1 1-1h9.999c.553 0 1 .447 1 1s-.447 1-1 1z"/><path d="m56.999 59h-39.994c-.553 0-1-.447-1-1s.447-1 1-1h39.994c.553 0 1 .447 1 1s-.447 1-1 1z"/></svg>