<svg id="icons" enable-background="new 0 0 64 64" height="512" viewBox="0 0 64 64" width="512" xmlns="http://www.w3.org/2000/svg"><path d="m26.98 38.74v22.76c0 .83-.67 1.5-1.5 1.5-.82 0-1.5-.67-1.5-1.5v-22.76c.469.17.969.26 1.5.26.53 0 1.03-.09 1.5-.26z" fill="#ccd1d9"/><path d="m29.98 29.5v5c0 1.96-1.25 3.63-3 4.24-.47.17-.97.26-1.5.26-.531 0-1.031-.09-1.5-.26-1.75-.61-3-2.28-3-4.24v-5c0-2.49 2.02-4.5 4.5-4.5 2.491 0 4.5 2.01 4.5 4.5z" fill="#e6e9ed"/><path d="m54.01 7v26.03h-3-3v-32.01-.02c3.32.01 6 2.68 6 6z" fill="#e6e9ed"/><path d="m51.01 33.03v28.47c0 .83-.68 1.5-1.5 1.5-.83 0-1.5-.67-1.5-1.5v-28.47z" fill="#ccd1d9"/><path d="m37.98 21.82v39.68c0 .83-.67 1.5-1.5 1.5s-1.5-.67-1.5-1.5v-39.68c.479.119.979.18 1.5.18.52 0 1.02-.061 1.5-.18z" fill="#ccd1d9"/><path d="m42.98 7.5v8c0 3.07-2.131 5.649-5 6.32-.48.119-.98.18-1.5.18-.521 0-1.021-.061-1.5-.18-2.871-.671-5-3.25-5-6.32v-8c0-3.59 2.91-6.5 6.5-6.5s6.5 2.91 6.5 6.5z" fill="#e6e9ed"/><path d="m15.99 22v39.5c0 .83-.68 1.5-1.5 1.5-.83 0-1.5-.67-1.5-1.5v-39.5z" fill="#ccd1d9"/><path d="m18.99 14v5c0 1.66-1.34 3-3 3h-3c-1.66 0-3-1.34-3-3v-5h.25 2.75 3z" fill="#e6e9ed"/><path d="m9.99 20.001c-.553 0-1-.447-1-1v-18c0-.553.447-1 1-1s1 .447 1 1v18c0 .553-.447 1-1 1z"/><path d="m12.99 14.999c-.553 0-1-.447-1-1v-12.998c0-.553.447-1 1-1s1 .447 1 1v12.998c0 .553-.447 1-1 1z"/><path d="m15.99 14.999c-.553 0-1-.447-1-1v-12.998c0-.553.447-1 1-1s1 .447 1 1v12.998c0 .553-.447 1-1 1z"/><path d="m18.99 20.001c-.553 0-1-.447-1-1v-18c0-.553.447-1 1-1s1 .447 1 1v18c0 .553-.447 1-1 1z"/><path d="m12.99 23.001c-2.206 0-4-1.794-4-4 0-.553.447-1 1-1s1 .447 1 1c0 1.103.897 2 2 2 .553 0 1 .447 1 1s-.447 1-1 1z"/><path d="m15.99 23.001c-.553 0-1-.447-1-1s.447-1 1-1c1.103 0 2-.897 2-2 0-.553.447-1 1-1s1 .447 1 1c0 2.206-1.794 4-4 4z"/><path d="m15.99 23.001h-3c-.553 0-1-.447-1-1s.447-1 1-1h3c.553 0 1 .447 1 1s-.447 1-1 1z"/><path d="m18.99 15.001h-8.75c-.553 0-1-.447-1-1s.447-1 1-1h8.75c.553 0 1 .447 1 1s-.447 1-1 1z"/><path d="m12.99 62.5c-.553 0-1-.447-1-1v-39.499c0-.553.447-1 1-1s1 .447 1 1v39.499c0 .553-.447 1-1 1z"/><path d="m15.99 62.5c-.553 0-1-.447-1-1v-39.499c0-.553.447-1 1-1s1 .447 1 1v39.499c0 .553-.447 1-1 1z"/><path d="m14.49 64c-1.379 0-2.5-1.121-2.5-2.5 0-.553.447-1 1-1s1 .447 1 1c0 .275.225.5.5.5s.5-.225.5-.5c0-.553.447-1 1-1s1 .447 1 1c0 1.379-1.121 2.5-2.5 2.5z"/><path d="m48.01 62.5c-.553 0-1-.447-1-1v-60.483c0-.553.447-1 1-1s1 .447 1 1v60.483c0 .553-.447 1-1 1z"/><path d="m51.01 62.5c-.553 0-1-.447-1-1v-28.471c0-.553.447-1 1-1s1 .447 1 1v28.471c0 .553-.447 1-1 1z"/><path d="m49.51 64c-1.379 0-2.5-1.121-2.5-2.5 0-.553.447-1 1-1s1 .447 1 1c0 .275.225.5.5.5s.5-.225.5-.5c0-.553.447-1 1-1s1 .447 1 1c0 1.379-1.121 2.5-2.5 2.5z"/><path d="m54.01 34.029h-6c-.553 0-1-.447-1-1s.447-1 1-1h6c.553 0 1 .447 1 1s-.447 1-1 1z"/><path d="m54.01 8.003c-.553 0-1-.447-1-1 0-2.758-2.244-5.002-5.002-5.002-.553 0-1-.447-1-1s.447-1 1-1c3.861 0 7.002 3.141 7.002 7.002 0 .553-.447 1-1 1z"/><path d="m54.01 34.029c-.553 0-1-.447-1-1v-26.026c0-.553.447-1 1-1s1 .447 1 1v26.026c0 .553-.447 1-1 1z"/><path d="m29.979 16.499c-.553 0-1-.447-1-1v-8c0-.553.447-1 1-1s1 .447 1 1v8c0 .553-.448 1-1 1z"/><path d="m34.98 62.5c-.553 0-1-.447-1-1v-39.675c0-.553.447-1 1-1s1 .447 1 1v39.675c0 .553-.447 1-1 1z"/><path d="m37.98 62.5c-.553 0-1-.447-1-1v-39.675c0-.553.447-1 1-1s1 .447 1 1v39.675c0 .553-.447 1-1 1z"/><path d="m36.48 64c-1.379 0-2.5-1.121-2.5-2.5 0-.553.447-1 1-1s1 .447 1 1c0 .275.225.5.5.5s.5-.225.5-.5c0-.553.447-1 1-1s1 .447 1 1c0 1.379-1.121 2.5-2.5 2.5z"/><path d="m36.48 23.001c-4.137 0-7.502-3.365-7.502-7.502 0-.553.447-1 1-1s1 .447 1 1c0 3.034 2.468 5.502 5.502 5.502s5.502-2.468 5.502-5.502c0-.553.447-1 1-1s1 .447 1 1c0 4.137-3.365 7.502-7.502 7.502z"/><path d="m42.982 8.499c-.553 0-1-.447-1-1 0-3.033-2.468-5.501-5.502-5.501s-5.502 2.468-5.502 5.501c0 .553-.447 1-1 1s-1-.447-1-1c0-4.136 3.365-7.501 7.502-7.501s7.502 3.365 7.502 7.501c0 .553-.447 1-1 1z"/><path d="m42.98 16.499c-.553 0-1-.447-1-1v-8c0-.553.447-1 1-1s1 .447 1 1v8c0 .553-.447 1-1 1z"/><path d="m23.988 62.502c-.553 0-1-.447-1-1v-22.761c0-.553.447-1 1-1s1 .447 1 1v22.761c0 .553-.447 1-1 1z"/><path d="m26.988 62.502c-.553 0-1-.447-1-1v-22.761c0-.553.447-1 1-1s1 .447 1 1v22.761c0 .553-.447 1-1 1z"/><path d="m25.488 64.002c-1.379 0-2.5-1.121-2.5-2.5 0-.553.447-1 1-1s1 .447 1 1c0 .275.225.5.5.5s.5-.225.5-.5c0-.553.447-1 1-1s1 .447 1 1c0 1.379-1.121 2.5-2.5 2.5z"/><path d="m29.988 30.501c-.553 0-1-.447-1-1 0-1.93-1.57-3.5-3.5-3.5s-3.5 1.57-3.5 3.5c0 .553-.447 1-1 1s-1-.447-1-1c0-3.032 2.468-5.5 5.5-5.5s5.5 2.468 5.5 5.5c0 .553-.447 1-1 1z"/><path d="m25.488 40.001c-3.032 0-5.5-2.468-5.5-5.5 0-.553.447-1 1-1s1 .447 1 1c0 1.93 1.57 3.5 3.5 3.5s3.5-1.57 3.5-3.5c0-.553.447-1 1-1s1 .447 1 1c0 3.032-2.467 5.5-5.5 5.5z"/><path d="m29.988 35.501c-.553 0-1-.447-1-1v-5c0-.553.447-1 1-1s1 .447 1 1v5c0 .553-.447 1-1 1z"/><path d="m20.988 35.501c-.553 0-1-.447-1-1v-5c0-.553.447-1 1-1s1 .447 1 1v5c0 .553-.447 1-1 1z"/></svg>