<svg id="icons" enable-background="new 0 0 64 64" height="512" viewBox="0 0 64 64" width="512" xmlns="http://www.w3.org/2000/svg"><path d="m32 4.01c8.28 0 15 6.73 15 15 0 8.26-6.72 15-15 15-8.29 0-15-6.74-15-15 0-8.27 6.71-15 15-15zm9 15c0-4.979-4.03-9-9-9s-9 4.021-9 9c0 4.97 4.03 9 9 9s9-4.031 9-9z" fill="#656d78"/><path d="m32 10.01c4.97 0 9 4.021 9 9 0 4.97-4.03 9-9 9s-9-4.03-9-9c0-4.98 4.03-9 9-9z" fill="#545c66"/><path d="m47 19.01c0-8.27-6.72-15-15-15-8.29 0-15 6.73-15 15 0 8.26 6.71 15 15 15 8.28 0 15-6.74 15-15zm-15-18.01c9.94 0 18 8.06 18 18.01 0 9.26-7 16.89-16 17.89-.66.069-1.32.109-2 .109s-1.34-.04-2-.109c-9-1-16-8.631-16-17.891 0-9.949 8.061-18.009 18-18.009z" fill="#e6e9ed"/><path d="m34 36.9v6.1h-4v-6.1c.66.069 1.32.109 2 .109s1.34-.039 2-.109z" fill="#ccd1d9"/><path d="m36 43v16c0 2.21-1.8 4-4 4-2.21 0-4-1.79-4-4v-16h2 4z" fill="#656d78"/><path d="m32 38.002c-10.478 0-19.001-8.523-19.001-19 0-10.478 8.523-19.002 19.001-19.002s19.001 8.524 19.001 19.002c0 10.477-8.523 19-19.001 19zm0-36.002c-9.374 0-17.001 7.627-17.001 17.002 0 9.374 7.627 17 17.001 17s17.001-7.626 17.001-17c0-9.375-7.627-17.002-17.001-17.002z"/><path d="m32 35.002c-8.822 0-16-7.178-16-16s7.178-16 16-16 16 7.178 16 16-7.178 16-16 16zm0-30c-7.72 0-14 6.28-14 14s6.28 14 14 14 14-6.28 14-14-6.28-14-14-14z"/><path d="m32 29.002c-5.514 0-10-4.486-10-10s4.486-10 10-10 10 4.486 10 10-4.486 10-10 10zm0-18c-4.411 0-8 3.589-8 8s3.589 8 8 8 8-3.589 8-8-3.589-8-8-8z"/><path d="m32 64c-2.757 0-5-2.243-5-5 0-.553.447-1 1-1s1 .447 1 1c0 1.654 1.346 3 3 3s3-1.346 3-3c0-.553.447-1 1-1s1 .447 1 1c0 2.757-2.243 5-5 5z"/><path d="m36 60c-.553 0-1-.447-1-1v-16.002c0-.553.447-1 1-1s1 .447 1 1v16.002c0 .553-.447 1-1 1z"/><path d="m36 43.998h-8c-.553 0-1-.447-1-1s.447-1 1-1h8c.553 0 1 .447 1 1s-.447 1-1 1z"/><path d="m28 60c-.553 0-1-.447-1-1v-16.002c0-.553.447-1 1-1s1 .447 1 1v16.002c0 .553-.447 1-1 1z"/><path d="m30 43.998c-.553 0-1-.447-1-1v-6.105c0-.553.447-1 1-1s1 .447 1 1v6.105c0 .553-.447 1-1 1z"/><path d="m34 43.998c-.553 0-1-.447-1-1v-6.105c0-.553.447-1 1-1s1 .447 1 1v6.105c0 .553-.447 1-1 1z"/></svg>