<svg id="icons" enable-background="new 0 0 64 64" height="512" viewBox="0 0 64 64" width="512" xmlns="http://www.w3.org/2000/svg"><path d="m21 19v3.99h-18v-21.99h18v15z" fill="#a0d468"/><path d="m28 11h8 2c2.77 0 5 2.24 5 5h-22c0-2.77 2.24-5 5-5z" fill="#ccd1d9"/><path d="m21 16h22v3h-22z" fill="#e6e9ed"/><path d="m28 1h8v10h-8z" fill="#656d78"/><path d="m43 16v-15h18v21.99h-18v-3.99z" fill="#a0d468"/><path d="m59 38v3h-14v-.06-2.94h3 4 4z" fill="#e6e9ed"/><path d="m43 63v-22h2 14 2v22z" fill="#a0d468"/><path d="m24 38h6v3h-6z" fill="#656d78"/><path d="m34 36h6v5h-6z" fill="#656d78"/><path d="m40 36h-6c0-1.66 1.34-3 3-3v-.01c1.66 0 3 1.35 3 3.01z" fill="#e6e9ed"/><path d="m21 63v-11-11h3 6 4 6 3v22zm3-3h16v-13h-16z" fill="#e6e9ed"/><path d="m24 47h16v13h-16z" fill="#5d9cec"/><path d="m33.994 47-2.002 13h-1.986l2.002-13z" fill="#87bcf4"/><path d="m3 52h18v11h-18z" fill="#a0d468"/><path d="m3 41h18v11h-18z" fill="#a0d468"/><path d="m21 23.988h-17.998c-.553 0-1-.448-1-1v-21.988c0-.552.447-1 1-1h17.998c.553 0 1 .448 1 1v21.988c0 .553-.447 1-1 1zm-16.998-2h15.998v-19.988h-15.998z"/><path d="m60.998 23.988h-17.998c-.553 0-1-.448-1-1v-21.988c0-.552.447-1 1-1h17.998c.553 0 1 .448 1 1v21.988c0 .553-.447 1-1 1zm-16.998-2h15.998v-19.988h-15.998z"/><path d="m21 64h-17.998c-.553 0-1-.447-1-1v-21.996c0-.553.447-1 1-1h17.998c.553 0 1 .447 1 1v21.996c0 .553-.447 1-1 1zm-16.998-2h15.998v-19.996h-15.998z"/><path d="m60.998 64h-17.998c-.553 0-1-.447-1-1v-21.996c0-.553.447-1 1-1h17.998c.553 0 1 .447 1 1v21.996c0 .553-.447 1-1 1zm-16.998-2h15.998v-19.996h-15.998z"/><path d="m43 42h-22c-.553 0-1-.447-1-1s.447-1 1-1h22c.553 0 1 .447 1 1s-.447 1-1 1z"/><path d="m43 64h-22c-.553 0-1-.447-1-1s.447-1 1-1h22c.553 0 1 .447 1 1s-.447 1-1 1z"/><path d="m44.998 41.945c-.553 0-1-.447-1-1v-2.943c0-.553.447-1 1-1s1 .447 1 1v2.943c0 .553-.447 1-1 1z"/><path d="m59 39.002h-14.002c-.553 0-1-.447-1-1s.447-1 1-1h14.002c.553 0 1 .447 1 1s-.447 1-1 1z"/><path d="m59 42.004c-.553 0-1-.447-1-1v-3.002c0-.553.447-1 1-1s1 .447 1 1v3.002c0 .553-.447 1-1 1z"/><path d="m51.998 39.002c-.553 0-1-.447-1-1v-6c0-.552.447-1 1-1s1 .448 1 1v6c0 .553-.447 1-1 1z"/><path d="m47.998 39.002c-.553 0-1-.447-1-1v-1.002c0-.553.447-1 1-1s1 .447 1 1v1.002c0 .553-.447 1-1 1z"/><path d="m55.998 39.002c-.553 0-1-.447-1-1v-1.002c0-.553.447-1 1-1s1 .447 1 1v1.002c0 .553-.447 1-1 1z"/><path d="m45.998 54.008c-.553 0-1-.447-1-1v-2.008c0-.553.447-1 1-1s1 .447 1 1v2.008c0 .553-.447 1-1 1z"/><path d="m45.998 14.004c-.553 0-1-.448-1-1v-2.008c0-.552.447-1 1-1s1 .448 1 1v2.008c0 .552-.447 1-1 1z"/><path d="m5.996 14.004c-.553 0-1-.448-1-1v-2.008c0-.552.447-1 1-1s1 .448 1 1v2.008c0 .552-.447 1-1 1z"/><path d="m21 53.006h-17.998c-.553 0-1-.447-1-1s.447-1 1-1h17.998c.553 0 1 .447 1 1s-.447 1-1 1z"/><path d="m12.996 44.992h-2c-.553 0-1-.447-1-1s.447-1 1-1h2c.553 0 1 .447 1 1s-.447 1-1 1z"/><path d="m12.996 55.998h-2c-.553 0-1-.447-1-1s.447-1 1-1h2c.553 0 1 .447 1 1s-.447 1-1 1z"/><path d="m24 42.004c-.553 0-1-.447-1-1v-3.004c0-.553.447-1 1-1s1 .447 1 1v3.004c0 .553-.447 1-1 1z"/><path d="m30 39h-6c-.553 0-1-.447-1-1s.447-1 1-1h6c.553 0 1 .447 1 1s-.447 1-1 1z"/><path d="m30 42.004c-.553 0-1-.447-1-1v-3.004c0-.553.447-1 1-1s1 .447 1 1v3.004c0 .553-.447 1-1 1z"/><path d="m34 42.004c-.553 0-1-.447-1-1v-5.006c0-.553.447-1 1-1s1 .447 1 1v5.006c0 .553-.447 1-1 1z"/><path d="m40 42.004c-.553 0-1-.447-1-1v-5.006c0-.553.447-1 1-1s1 .447 1 1v5.006c0 .553-.447 1-1 1z"/><path d="m24 39h-4c-.553 0-1-.447-1-1s.447-1 1-1h4c.553 0 1 .447 1 1s-.447 1-1 1z"/><path d="m41 37.003h-8c-.553 0-1-.447-1-1s.447-1 1-1h8c.553 0 1 .447 1 1s-.447 1-1 1z"/><path d="m34 36.998c-.553 0-1-.447-1-1 0-2.204 1.794-3.998 3.998-3.998.553 0 1 .448 1 1 0 .553-.447 1-1 1-1.102 0-1.998.896-1.998 1.998 0 .553-.447 1-1 1z"/><path d="m40 36.998c-.553 0-1-.447-1-1 0-1.104-.898-2.002-2.002-2.002-.553 0-1-.447-1-1 0-.552.447-1 1-1 2.207 0 4.002 1.795 4.002 4.002 0 .553-.447 1-1 1z"/><path d="m36.998 33.996c-.553 0-1-.447-1-1v-.994c0-.552.447-1 1-1s1 .448 1 1v.994c0 .553-.447 1-1 1z"/><path d="m40.002 61h-16.002c-.553 0-1-.447-1-1v-12.999c0-.553.447-1 1-1h16.002c.553 0 1 .447 1 1v12.999c0 .553-.447 1-1 1zm-15.002-2h14.002v-10.999h-14.002z"/><path d="m24.022 45c-.553 0-1.005-.447-1.005-1s.442-1 .994-1h.011c.552 0 1 .447 1 1s-.448 1-1 1z"/><path d="m28.03 45c-.553 0-1.005-.447-1.005-1s.442-1 .994-1h.011c.552 0 1 .447 1 1s-.448 1-1 1z"/><path d="m36.042 45c-.553 0-1.005-.447-1.005-1s.442-1 .994-1h.011c.552 0 1 .447 1 1s-.448 1-1 1z"/><path d="m40.05 45c-.553 0-1.005-.447-1.005-1s.442-1 .994-1h.011c.552 0 1 .447 1 1s-.448 1-1 1z"/><path d="m43 17.001h-22c-.553 0-1-.448-1-1s.447-1 1-1h22c.553 0 1 .448 1 1s-.447 1-1 1z"/><path d="m43 20h-22c-.553 0-1-.448-1-1s.447-1 1-1h22c.553 0 1 .448 1 1s-.447 1-1 1z"/><path d="m21 17.001c-.553 0-1-.448-1-1 0-3.309 2.692-6.001 6.002-6.001.553 0 1 .448 1 1s-.447 1-1 1c-2.207 0-4.002 1.795-4.002 4.001 0 .552-.447 1-1 1z"/><path d="m43 17.001c-.553 0-1-.448-1-1 0-2.205-1.794-3.999-4-3.999-.553 0-1-.448-1-1s.447-1 1-1c3.309 0 6 2.691 6 5.999 0 .552-.447 1-1 1z"/><path d="m38 12h-11.998c-.553 0-1-.448-1-1s.447-1 1-1h11.998c.553 0 1 .448 1 1s-.447 1-1 1z"/><path d="m36.002 12c-.553 0-1-.448-1-1v-10c0-.552.447-1 1-1s1 .448 1 1v10c0 .552-.447 1-1 1z"/><path d="m28 12c-.553 0-1-.448-1-1v-10c0-.552.447-1 1-1s1 .448 1 1v10c0 .552-.447 1-1 1z"/><path d="m36.002 2h-8.002c-.553 0-1-.448-1-1s.447-1 1-1h8.002c.553 0 1 .448 1 1s-.447 1-1 1z"/><path d="m26.003 27.999c-.367 0-.72-.202-.896-.552-.228-.456-.075-1.003.338-1.279-.005-.07-.042-.265-.275-.615-.544-.816-.728-1.579-.545-2.267.21-.787.812-1.122.931-1.182.497-.246 1.095-.045 1.341.449.228.456.075 1.001-.338 1.277.005.071.043.265.275.613.544.816.728 1.579.545 2.267-.209.788-.811 1.124-.929 1.183-.144.072-.297.106-.447.106z"/><path d="m32.003 27.999c-.367 0-.72-.202-.896-.552-.228-.456-.075-1.003.338-1.279-.005-.07-.042-.265-.275-.615-.544-.816-.728-1.579-.545-2.267.21-.787.812-1.122.931-1.182.497-.246 1.095-.045 1.341.449.228.456.075 1.001-.338 1.277.005.071.043.265.275.613.544.816.728 1.579.545 2.267-.209.788-.811 1.124-.929 1.183-.144.072-.297.106-.447.106z"/><path d="m38.001 27.999c-.367 0-.72-.202-.896-.552-.228-.456-.075-1.003.338-1.279-.005-.07-.042-.265-.275-.615-.544-.816-.728-1.579-.545-2.267.21-.787.812-1.122.931-1.182.498-.246 1.096-.045 1.341.449.228.456.075 1.001-.338 1.277.005.071.043.265.275.613.544.816.728 1.579.545 2.267-.209.788-.811 1.124-.929 1.183-.144.072-.297.106-.447.106z"/></svg>