<svg id="icons" enable-background="new 0 0 64 64" height="512" viewBox="0 0 64 64" width="512" xmlns="http://www.w3.org/2000/svg"><path d="m51.99 4.005h-39.99c-3.31 0-5.99 2.68-6 5.99v.01 8.02h51.99v-3.029-4.99-.01c-.01-3.311-2.68-5.991-6-5.991z" fill="#ac92ec"/><path d="m6 22.015h15v31.98h-15z" fill="#ac92ec"/><path d="m52.19 53.995h7.81c1.66 0 3 1.35 3 3 0 1.66-1.34 3-3 3h-56c-1.66 0-3-1.34-3-3 0-1.65 1.34-3 3-3h2 15 10.82z" fill="#656d78"/><path d="m40 27.995h4v4h-4z" fill="#ccd1d9"/><path d="m37 25.024v-.029h9.99v.029 2.971h-2.99-4-3z" fill="#545c66"/><path d="m58 32.005v16h-.01c0 3.25-2.57 5.89-5.8 5.99h-20.37c-3.23-.101-5.801-2.74-5.801-5.99v-16.01h13.981 4 14z" fill="#e6e9ed"/><path d="m57.99 18.024v3.991h-6.99-18-12-15v-3.991z" fill="#e6e9ed"/><path d="m51 22.015v2.98h-4.01-9.99-4v-2.98z" fill="#656d78"/><path d="m61 10.005v4.99h-.16-2.85v-4.99z" fill="#967adc"/><path d="m44.01 8.995c1.101 0 2 .89 2 2 0 1.109-.899 2-2 2-1.109 0-2-.891-2-2 0-1.11.89-2 2-2z" fill="#656d78"/><path d="m4.001 60.996c-2.206 0-4-1.794-4-4s1.794-4 4-4c.553 0 1 .447 1 1s-.447 1-1 1c-1.103 0-2 .897-2 2s.897 2 2 2c.553 0 1 .447 1 1s-.447 1-1 1z"/><path d="m59.999 60.996c-.553 0-1-.447-1-1s.447-1 1-1c1.103 0 2-.897 2-2s-.897-2-2-2c-.553 0-1-.447-1-1s.447-1 1-1c2.206 0 4 1.794 4 4s-1.794 4-4 4z"/><path d="m59.999 54.996h-55.998c-.553 0-1-.447-1-1s.447-1 1-1h55.998c.553 0 1 .447 1 1s-.447 1-1 1z"/><path d="m6.006 11.004c-.553 0-1-.447-1-1 0-3.859 3.141-7 7-7 .553 0 1 .447 1 1s-.447 1-1 1c-2.757 0-5 2.243-5 5 0 .553-.447 1-1 1z"/><path d="m57.994 11.004c-.553 0-1-.447-1-1 0-2.757-2.243-5-5-5-.553 0-1-.447-1-1s.447-1 1-1c3.859 0 7 3.141 7 7 0 .553-.447 1-1 1z"/><path d="m51.994 5.006h-39.988c-.553 0-1-.447-1-1s.447-1 1-1h39.988c.553 0 1 .447 1 1s-.447 1-1 1z"/><path d="m51.994 55.008c-.553 0-1-.447-1-1s.447-1 1-1c2.757 0 5-2.243 5-5 0-.553.447-1 1-1s1 .447 1 1c0 3.859-3.14 7-7 7z"/><path d="m32.02 55.008c-3.859 0-7-3.141-7-7 0-.553.447-1 1-1s1 .447 1 1c0 2.757 2.243 5 5 5 .553 0 1 .447 1 1s-.448 1-1 1z"/><path d="m59.999 60.996h-55.998c-.553 0-1-.447-1-1s.447-1 1-1h55.998c.553 0 1 .447 1 1s-.447 1-1 1z"/><path d="m6.001 54.996c-.553 0-1-.447-1-1v-31.982c0-.553.447-1 1-1s1 .447 1 1v31.982c0 .553-.447 1-1 1z"/><path d="m20.996 54.996c-.553 0-1-.447-1-1v-31.982c0-.553.447-1 1-1s1 .447 1 1v31.982c0 .553-.447 1-1 1z"/><path d="m57.994 23.018c-.553 0-1-.447-1-1v-12.022c0-.553.447-1 1-1s1 .447 1 1v12.021c0 .553-.447 1.001-1 1.001z"/><path d="m6.006 23.018c-.553 0-1-.447-1-1v-12.022c0-.553.447-1 1-1s1 .447 1 1v12.021c0 .553-.447 1.001-1 1.001z"/><path d="m57.994 23.018h-51.988c-.553 0-1-.447-1-1s.447-1 1-1h51.988c.553 0 1 .447 1 1s-.447 1-1 1z"/><path d="m57.994 19.023h-51.988c-.553 0-1-.447-1-1s.447-1 1-1h51.988c.553 0 1 .447 1 1s-.447 1-1 1z"/><path d="m26.02 49.008c-.553 0-1-.447-1-1v-16.01c0-.553.447-1 1-1s1 .447 1 1v16.01c0 .553-.448 1-1 1z"/><path d="m58.005 32.998h-31.985c-.553 0-1-.447-1-1s.447-1 1-1h31.985c.553 0 1 .447 1 1s-.447 1-1 1z"/><path d="m58.005 49.008c-.553 0-1-.447-1-1v-16.008c0-.553.447-1 1-1s1 .447 1 1v16.008c0 .553-.447 1-1 1z"/><path d="m50.999 25.996c-.553 0-1-.447-1-1v-2.979c0-.553.447-1 1-1s1 .447 1 1v2.979c0 .553-.447 1-1 1z"/><path d="m33 25.996c-.553 0-1-.447-1-1v-2.979c0-.553.447-1 1-1s1 .447 1 1v2.979c0 .553-.447 1-1 1z"/><path d="m50.999 25.996h-18c-.553 0-1-.447-1-1s.447-1 1-1h18c.553 0 1 .447 1 1s-.447 1-1 1z"/><path d="m46.995 28.996c-.553 0-1-.447-1-1v-2.976c0-.553.447-1 1-1s1 .447 1 1v2.977c0 .552-.447.999-1 .999z"/><path d="m37.004 28.996c-.553 0-1-.447-1-1v-2.976c0-.553.447-1 1-1s1 .447 1 1v2.977c0 .552-.447.999-1 .999z"/><path d="m46.995 28.996h-9.992c-.553 0-1-.447-1-1s.447-1 1-1h9.992c.553 0 1 .447 1 1s-.447 1-1 1z"/><path d="m40 32.998c-.553 0-1-.447-1-1v-4.002c0-.553.447-1 1-1s1 .447 1 1v4.002c0 .553-.447 1-1 1z"/><path d="m44 32.998c-.553 0-1-.447-1-1v-4.002c0-.553.447-1 1-1s1 .447 1 1v4.002c0 .553-.447 1-1 1z"/><path d="m44.011 13.996c-1.655 0-3.002-1.347-3.002-3.002s1.347-3.002 3.002-3.002c1.654 0 3.001 1.347 3.001 3.002s-1.347 3.002-3.001 3.002zm0-4.004c-.553 0-1.002.449-1.002 1.002s.449 1.002 1.002 1.002c.552 0 1.001-.449 1.001-1.002s-.449-1.002-1.001-1.002z"/><path d="m42.009 11.996h-8c-.553 0-1-.447-1-1s.447-1 1-1h8c.553 0 1 .447 1 1s-.447 1-1 1z"/><path d="m61 11.004h-3.006c-.553 0-1-.447-1-1s.447-1 1-1h3.006c.553 0 1 .447 1 1s-.447 1-1 1z"/><path d="m61 15.998c-.553 0-1-.447-1-1v-4.994c0-.553.447-1 1-1s1 .447 1 1v4.994c0 .553-.447 1-1 1z"/><path d="m60.844 15.998h-2.85c-.553 0-1-.447-1-1s.447-1 1-1h2.85c.553 0 1 .447 1 1s-.448 1-1 1z"/><path d="m25.033 12c-.553 0-1.005-.447-1.005-1s.442-1 .994-1h.011c.552 0 1 .447 1 1s-.448 1-1 1z"/><path d="m21.029 12c-.553 0-1.005-.447-1.005-1s.442-1 .994-1h.011c.552 0 1 .447 1 1s-.448 1-1 1z"/><path d="m17.025 12c-.553 0-1.005-.447-1.005-1s.442-1 .994-1h.011c.552 0 1 .447 1 1s-.448 1-1 1z"/></svg>