<svg id="icons" enable-background="new 0 0 64 64" height="512" viewBox="0 0 64 64" width="512" xmlns="http://www.w3.org/2000/svg"><path d="m8 1h48v12h-48z" fill="#656d78"/><path d="m19.01 5c1.101 0 2 .9 2 2s-.899 2-2 2c-1.109 0-2-.9-2-2s.89-2 2-2z" fill="#e6e9ed"/><path d="m26 5h12v4h-12z" fill="#5d9cec"/><path d="m45.01 5c1.101 0 2 .9 2 2s-.899 2-2 2c-1.109 0-2-.9-2-2s.89-2 2-2z" fill="#e6e9ed"/><path d="m57 13v5h-1-48-1v-5h1 48z" fill="#aab2bd"/><path d="m12 42v17h40v-17-3-17h-40v17zm44-24v45h-48v-45z" fill="#656d78"/><path d="m12 39h40v3h-40z" fill="#4a89dc"/><path d="m12 42h40v17h-40z" fill="#5d9cec"/><path d="m12 22h40v17h-40z" fill="#5d9cec"/><path d="m56 2h-47.999c-.553 0-1-.447-1-1s.447-1 1-1h47.999c.553 0 1 .447 1 1s-.447 1-1 1z"/><path d="m56 64h-47.999c-.553 0-1-.447-1-1s.447-1 1-1h47.999c.553 0 1 .447 1 1s-.447 1-1 1z"/><path d="m56.999 19.005h-49.998c-.553 0-1-.447-1-1v-5c0-.553.447-1 1-1h49.998c.553 0 1 .447 1 1v5c0 .553-.447 1-1 1zm-48.998-2h47.998v-3h-47.998z"/><path d="m8.001 64c-.553 0-1-.447-1-1v-44.995c0-.553.447-1 1-1s1 .447 1 1v44.995c0 .553-.447 1-1 1z"/><path d="m8.001 14.005c-.553 0-1-.447-1-1v-12.005c0-.553.447-1 1-1s1 .447 1 1v12.005c0 .553-.447 1-1 1z"/><path d="m56 64c-.553 0-1-.447-1-1v-44.995c0-.553.447-1 1-1s1 .447 1 1v44.995c0 .553-.447 1-1 1z"/><path d="m56 14.005c-.553 0-1-.447-1-1v-12.005c0-.553.447-1 1-1s1 .447 1 1v12.005c0 .553-.447 1-1 1z"/><path d="m52 60h-39.999c-.553 0-1-.447-1-1v-37c0-.553.447-1 1-1h39.999c.553 0 1 .447 1 1v37c0 .553-.447 1-1 1zm-38.999-2h37.999v-35h-37.999z"/><path d="m52 40.001h-39.999c-.553 0-1-.447-1-1s.447-1 1-1h39.999c.553 0 1 .447 1 1s-.447 1-1 1z"/><path d="m52 43h-39.999c-.553 0-1-.447-1-1s.447-1 1-1h39.999c.553 0 1 .447 1 1s-.447 1-1 1z"/><path d="m19.005 10c-1.654 0-3-1.346-3-3s1.346-3 3-3 3 1.346 3 3-1.346 3-3 3zm0-4c-.552 0-1 .448-1 1s.448 1 1 1 1-.448 1-1-.448-1-1-1z"/><path d="m45.003 10c-1.654 0-3-1.346-3-3s1.346-3 3-3 3 1.346 3 3-1.346 3-3 3zm0-4c-.552 0-1 .448-1 1s.448 1 1 1 1-.448 1-1-.448-1-1-1z"/><path d="m38.001 10h-12c-.553 0-1-.447-1-1v-4c0-.553.447-1 1-1h12c.553 0 1 .447 1 1v4c0 .553-.447 1-1 1zm-11-2h10v-2h-10z"/></svg>