<svg id="icons" enable-background="new 0 0 64 64" height="512" viewBox="0 0 64 64" width="512" xmlns="http://www.w3.org/2000/svg"><path d="m32 12.498c1.109 0 2 .89 2 2 0 1.1-.891 2-2 2-1.1 0-2-.9-2-2 0-1.11.9-2 2-2z" fill="#656d78"/><path d="m48 16.498c3.32 0 6 2.68 6 6h-44c0-3.32 2.68-6 6-6h2.971 13.029z" fill="#ccd1d9"/><path d="m61 25.498c1.1 0 2 .89 2 2 0 1.1-.9 2-2 2h-7v-4z" fill="#656d78"/><path d="m10 22.498h44v3h-44z" fill="#e6e9ed"/><path d="m10 25.498v4h-7c-1.1 0-2-.9-2-2 0-1.11.9-2 2-2z" fill="#656d78"/><path d="m54 29.498v17c0 4.42-3.58 8-8 8h-28c-4.42 0-8-3.58-8-8v-17-4h44z" fill="#5d9cec"/><path d="m60.999 26.5h-57.996c-.553 0-1-.447-1-1s.447-1 1-1h57.996c.553 0 1 .447 1 1s-.447 1-1 1z"/><path d="m3.001 30.5c-1.654 0-3-1.346-3-3s1.346-3 3-3c.553 0 1 .447 1 1s-.447 1-1 1c-.552 0-1 .448-1 1s.448 1 1 1c.553 0 1 .447 1 1s-.447 1-1 1z"/><path d="m60.999 30.5c-.553 0-1-.447-1-1s.447-1 1-1c.552 0 1-.448 1-1s-.448-1-1-1c-.553 0-1-.447-1-1s.447-1 1-1c1.654 0 3 1.346 3 3s-1.346 3-3 3z"/><path d="m9.997 30.5h-6.996c-.553 0-1-.447-1-1s.447-1 1-1h6.996c.553 0 1 .447 1 1s-.447 1-1 1z"/><path d="m10 47.5c-.553 0-1-.447-1-1v-21c0-.553.447-1 1-1s1 .447 1 1v21c0 .553-.447 1-1 1z"/><path d="m60.999 30.5h-6.996c-.553 0-1-.447-1-1s.447-1 1-1h6.996c.553 0 1 .447 1 1s-.447 1-1 1z"/><path d="m54 47.5c-.553 0-1-.447-1-1v-21c0-.553.447-1 1-1s1 .447 1 1v21c0 .553-.447 1-1 1z"/><path d="m17.999 55.5c-4.962 0-8.999-4.037-8.999-9 0-.553.447-1 1-1s1 .447 1 1c0 3.859 3.14 7 6.999 7 .553 0 1 .447 1 1s-.447 1-1 1z"/><path d="m46 55.5c-.553 0-1-.447-1-1s.447-1 1-1c3.859 0 7-3.141 7-7 0-.553.447-1 1-1s1 .447 1 1c0 4.963-4.037 9-9 9z"/><path d="m46 55.5h-28.001c-.553 0-1-.447-1-1s.447-1 1-1h28.001c.553 0 1 .447 1 1s-.447 1-1 1z"/><path d="m10 23.496c-.553 0-1-.447-1-1 0-3.859 3.141-7 7-7 .553 0 1 .447 1 1s-.447 1-1 1c-2.757 0-5 2.243-5 5 0 .553-.447 1-1 1z"/><path d="m54 23.496c-.553 0-1-.447-1-1 0-2.757-2.243-5-5-5-.553 0-1-.447-1-1s.447-1 1-1c3.859 0 7 3.141 7 7 0 .553-.447 1-1 1z"/><path d="m48 17.498h-32c-.553 0-1-.447-1-1s.447-1 1-1h32c.553 0 1 .447 1 1s-.447 1-1 1z"/><path d="m54 23.496h-44c-.553 0-1-.447-1-1s.447-1 1-1h44c.553 0 1 .447 1 1s-.447 1-1 1z"/><path d="m54 26.5c-.553 0-1-.447-1-1v-3.004c0-.553.447-1 1-1s1 .447 1 1v3.004c0 .553-.447 1-1 1z"/><path d="m10 26.5c-.553 0-1-.447-1-1v-3.004c0-.553.447-1 1-1s1 .447 1 1v3.004c0 .553-.447 1-1 1z"/><path d="m32.005 17.498c-1.654 0-3-1.346-3-3s1.346-3 3-3 3 1.346 3 3-1.346 3-3 3zm0-4c-.552 0-1 .448-1 1s.448 1 1 1 1-.448 1-1-.448-1-1-1z"/><path d="m18.974 18.502c-.553 0-1-.447-1-1v-1.004c0-.553.447-1 1-1s1 .447 1 1v1.004c0 .553-.448 1-1 1z"/><path d="m18.972 14.5c-.367 0-.72-.202-.896-.553-.228-.456-.075-1.003.338-1.278-.005-.07-.042-.265-.275-.614-.544-.816-.728-1.579-.545-2.267.209-.788.812-1.123.93-1.183.493-.245 1.094-.047 1.342.447.228.456.075 1.003-.338 1.278.005.07.042.265.275.614.544.816.728 1.579.545 2.267-.209.788-.812 1.123-.93 1.183-.144.072-.296.106-.446.106z"/></svg>