<svg id="icons" enable-background="new 0 0 64 64" height="512" viewBox="0 0 64 64" width="512" xmlns="http://www.w3.org/2000/svg"><path d="m55.99 47.49h2.01v-17c0-5.53-4.48-10-10-10h-7-4-1c5.53 0 9.99 4.46 10 9.99v.01 27.02c0 2.211-1.79 4-4 4h11.99c2.22 0 4-1.789 4-4v-6.02h-2v-2z" fill="#ccd1d9"/><path d="m41 2.49c1.66 0 3 1.34 3 3s-1.34 3-3 3v12h-4v-12c1.66 0 3-1.34 3-3s-1.34-3-3-3z" fill="#f7c292"/><path d="m37 2.49c1.66 0 3 1.34 3 3s-1.34 3-3 3v12h-1-23v-12c-1.66 0-3-1.34-3-3s1.34-3 3-3z" fill="#ffd2a6"/><path d="m58 47.49h5v4h-5.01-2v-2-2z" fill="#ed5565"/><path d="m52 34.49c1.1 0 2 .9 2 2 0 1.11-.9 2-2 2s-2-.89-2-2c0-1.099.9-2 2-2z" fill="#656d78"/><path d="m13 20.49h23c5.53 0 9.99 4.46 10 9.99v.01 27.02c0 2.211-1.79 4-4 4h-37c-2.21 0-4-1.789-4-4v-27.02c0-5.53 4.47-10 10-10z" fill="#e6e9ed"/><path d="m1 31.484c-.553 0-1-.447-1-1 0-6.065 4.935-11 11-11 .553 0 1 .447 1 1s-.447 1-1 1c-4.963 0-9 4.037-9 9 0 .553-.447 1-1 1z"/><path d="m45.998 31.484c-.553 0-1-.447-1-1 0-4.963-4.037-9-9-9-.553 0-1-.447-1-1s.447-1 1-1c6.065 0 11 4.935 11 11 0 .553-.447 1-1 1z"/><path d="m47.995 21.484h-36.995c-.553 0-1-.447-1-1s.447-1 1-1h36.995c.553 0 1 .447 1 1s-.447 1-1 1z"/><path d="m5 62.51c-2.757 0-5-2.243-5-5 0-.553.447-1 1-1s1 .447 1 1c0 1.654 1.346 3 3 3 .553 0 1 .447 1 1s-.447 1-1 1z"/><path d="m1 58.51c-.553 0-1-.447-1-1v-27.026c0-.553.447-1 1-1s1 .447 1 1v27.026c0 .553-.447 1-1 1z"/><path d="m41.997 62.51c-.553 0-1-.447-1-1s.447-1 1-1c1.654 0 3-1.346 3-3 0-.553.447-1 1-1s1 .447 1 1c0 2.757-2.243 5-5 5z"/><path d="m45.997 58.51c-.553 0-1-.447-1-1v-27.028c0-.553.447-1 1-1s1 .447 1 1v27.028c0 .553-.447 1-1 1z"/><path d="m57.995 31.484c-.553 0-1-.447-1-1 0-4.963-4.037-9-9-9-.553 0-1-.447-1-1s.447-1 1-1c6.065 0 11 4.935 11 11 0 .553-.447 1-1 1z"/><path d="m53.994 62.51c-.553 0-1-.447-1-1s.447-1 1-1c1.654 0 3-1.346 3-3 0-.553.447-1 1-1s1 .447 1 1c0 2.757-2.243 5-5 5z"/><path d="m53.994 62.51h-48.994c-.553 0-1-.447-1-1s.447-1 1-1h48.994c.553 0 1 .447 1 1s-.447 1-1 1z"/><path d="m51.999 52.492c-.553 0-1-.447-1-1v-8c0-.553.447-1 1-1s1 .447 1 1v8c0 .553-.447 1-1 1z"/><path d="m63 52.494h-7.006c-.553 0-1-.447-1-1v-4c0-.553.447-1 1-1h7.006c.553 0 1 .447 1 1v4c0 .553-.447 1-1 1zm-6.006-2h5.006v-2h-5.006z"/><path d="m55.994 50.494h-4c-.553 0-1-.447-1-1s.447-1 1-1h4c.553 0 1 .447 1 1s-.447 1-1 1z"/><path d="m57.995 48.492c-.553 0-1-.447-1-1v-17.008c0-.553.447-1 1-1s1 .447 1 1v17.008c0 .553-.447 1-1 1z"/><path d="m57.994 58.51c-.553 0-1-.447-1-1v-6.016c0-.553.447-1 1-1s1 .447 1 1v6.016c0 .553-.447 1-1 1z"/><path d="m52 39.492c-1.654 0-3-1.346-3-3s1.346-3 3-3 3 1.346 3 3-1.346 3-3 3zm0-4c-.552 0-1 .448-1 1s.448 1 1 1 1-.448 1-1-.448-1-1-1z"/><path d="m13.002 9.49c-2.206 0-4-1.794-4-4s1.794-4 4-4c.553 0 1 .447 1 1s-.447 1-1 1c-1.103 0-2 .897-2 2s.897 2 2 2c.553 0 1 .447 1 1s-.447 1-1 1z"/><path d="m36.998 9.49c-.553 0-1-.447-1-1s.447-1 1-1c1.103 0 2-.897 2-2s-.897-2-2-2c-.553 0-1-.447-1-1s.447-1 1-1c2.206 0 4 1.794 4 4s-1.794 4-4 4z"/><path d="m41.002 3.49h-28c-.553 0-1-.447-1-1s.447-1 1-1h28c.553 0 1 .447 1 1s-.447 1-1 1z"/><path d="m36.998 21.484c-.553 0-1-.447-1-1v-11.994c0-.553.447-1 1-1s1 .447 1 1v11.994c0 .553-.447 1-1 1z"/><path d="m41.002 9.49c-.553 0-1-.447-1-1s.447-1 1-1c1.103 0 2-.897 2-2s-.897-2-2-2c-.553 0-1-.447-1-1s.447-1 1-1c2.206 0 4 1.794 4 4s-1.794 4-4 4z"/><path d="m41.002 21.484c-.553 0-1-.447-1-1v-11.994c0-.553.447-1 1-1s1 .447 1 1v11.994c0 .553-.447 1-1 1z"/><path d="m13.002 21.484c-.553 0-1-.447-1-1v-11.994c0-.553.447-1 1-1s1 .447 1 1v11.994c0 .553-.447 1-1 1z"/></svg>