<svg height="512pt" viewBox="0 -8 512.096 512" width="512pt" xmlns="http://www.w3.org/2000/svg"><path d="m497.046875 150.625c9.359375 9.359375 9.359375 24.558594 0 34l-8.957031 8.96875s4.398437 14.71875 8.476562 38h-43.191406c1.441406-12.410156 2.402344-25.921875 2.722656-40 .078125-2.640625.078125-5.28125.078125-7.921875 0-8.640625-.320312-17.128906-.800781-25.28125l7.761719-7.765625c9.351562-9.359375 24.550781-9.359375 33.910156 0zm0 0" fill="#37bc9b"/><path d="m496.558594 231.59375c3.839844 21.199219 7.519531 49.511719 7.519531 80.160156 0 2.636719 0 5.277344-.078125 7.917969h-49.207031c-1.121094-3.359375-3.039063-6.488281-5.679688-9.128906l-9.042969-8.949219s2.402344-8.167969 5.363282-22h.078125c2.640625-12.167969 5.679687-28.722656 7.839843-48zm0 0" fill="#48cfad"/><path d="m497.046875 438.625c9.359375 9.4375 9.359375 24.640625 0 34s-24.558594 9.359375-33.917969 0l-8.722656-8.722656-.316406.25s-54.160156 23.441406-174.082032 23.441406c-119.917968 0-174.078124-23.441406-174.078124-23.441406l-.242188-.25-8.808594 8.722656c-9.359375 9.359375-24.550781 9.359375-33.910156 0s-9.359375-24.5625 0-34l8.960938-8.953125s-2.488282-8.160156-5.449219-22h426.960937c-2.960937 13.839844-5.363281 22-5.363281 22zm0 0" fill="#48cfad"/><path d="m415.128906 344.542969c9.4375 9.359375 24.640625 9.359375 34 0 6.71875-6.800781 8.640625-16.488281 5.679688-24.871094h49.207031c-.71875 36-6.167969 67.921875-10.488281 88h-427.046875c-3.601563-16.800781-8-42-9.761719-70.871094l.960938-1.046875.242187.230469s54.230469 23.527344 174.15625 23.527344c119.929687 0 174.082031-23.527344 174.082031-23.527344l.238282-.230469zm0 0" fill="#37bc9b"/><path d="m48.96875 22.542969 8.960938 8.96875s54.160156-23.457031 174.160156-23.457031c119.917968 0 174.078125 23.457031 174.078125 23.457031l8.960937-8.96875c9.4375-9.359375 24.640625-9.359375 34 0s9.359375 24.5625 0 33.921875l-9.039062 8.949218s4.398437 14.816407 8.558594 38.097657h-433.199219c4.167969-23.28125 8.558593-38.097657 8.558593-38.097657l-8.960937-8.949218c-9.359375-9.359375-9.359375-24.5625 0-33.921875s24.5625-9.359375 33.921875 0zm0 0" fill="#5d9cec"/><path d="m456.007812 191.59375h-447.917968c-.082032-2.640625-.082032-5.28125-.082032-7.921875 0-30.558594 3.601563-58.96875 7.441407-80.160156h433.199219c2.800781 15.28125 5.441406 34.160156 6.71875 54.871093.480468 8.160157.800781 16.640626.800781 25.28125 0 2.640626 0 5.28125-.078125 7.921876h-.082032zm0 0" fill="#4a89dc"/><path d="m456.007812 191.59375h.082032c-.320313 14.078125-1.28125 27.589844-2.722656 40-2.167969 19.277344-5.199219 35.832031-7.839844 48h-426.96875c-4.320313-20.082031-9.757813-52-10.480469-88zm0 0" fill="#5d9cec"/><path d="m18.648438 279.59375h426.800781c-2.960938 13.832031-5.359375 22-5.359375 22l9.039062 8.949219c2.640625 2.640625 4.558594 5.769531 5.679688 9.128906 2.960937 8.390625 1.039062 18.082031-5.679688 24.871094-9.359375 9.359375-24.5625 9.359375-34 0l-8.722656-8.800781-.238281.234374s-54.160157 23.527344-174.078125 23.527344c-119.921875 0-174.160156-23.519531-174.160156-23.519531l-.242188-.230469-.960938 1.046875-7.757812 7.75c-9.359375 9.359375-24.5625 9.359375-33.921875 0-9.359375-9.4375-9.359375-24.640625 0-34l8.960937-8.949219c0-.007812-2.398437-8.1875-5.359374-22.007812zm0 0" fill="#4a89dc"/><path d="m440.144531 309.601562c-.761719 0-1.527343-.113281-2.289062-.335937-4.230469-1.257813-6.648438-5.714844-5.382813-9.945313.160156-.527343 15.679688-53.449218 15.679688-115.632812 0-62.191406-15.527344-115.414062-15.6875-115.945312-1.25-4.230469 1.167968-8.6875 5.398437-9.941407 4.199219-1.214843 8.6875 1.160157 9.945313 5.398438.664062 2.25 16.34375 55.871093 16.34375 120.496093s-15.679688 117.960938-16.351563 120.199219c-1.03125 3.457031-4.214843 5.707031-7.65625 5.707031zm0 0"/><path d="m24.015625 309.601562c-3.457031 0-6.632813-2.242187-7.664063-5.714843-.671874-2.238281-16.351562-55.582031-16.351562-120.199219s15.679688-118.238281 16.34375-120.496094c1.257812-4.238281 5.726562-6.617187 9.945312-5.398437 4.238282 1.253906 6.648438 5.710937 5.398438 9.941406-.160156.53125-15.6875 53.753906-15.6875 115.945313 0 62.304687 15.519531 115.105468 15.679688 115.625 1.265624 4.230468-1.144532 8.695312-5.375 9.953124-.761719.230469-1.535157.34375-2.289063.34375zm0 0"/><path d="m57.984375 39.535156c-3.105469 0-6.046875-1.816406-7.351563-4.832031-1.753906-4.046875.101563-8.75 4.160157-10.503906 2.269531-.992188 57.0625-24.152344 177.277343-24.152344 120.210938 0 175.019532 23.160156 177.289063 24.144531 4.046875 1.761719 5.90625 6.464844 4.160156 10.503906-1.75 4.058594-6.457031 5.9375-10.503906 4.175782-.527344-.222656-54.542969-22.832032-170.9375-22.832032-116.390625 0-170.40625 22.617188-170.933594 22.839844-1.03125.449219-2.105469.65625-3.160156.65625zm0 0"/><path d="m232.078125 367.503906c-120.207031 0-175.015625-23.160156-177.285156-24.144531-4.050781-1.757813-5.90625-6.464844-4.160157-10.503906 1.75-4.054688 6.445313-5.925781 10.503907-4.175781.527343.222656 54.542969 22.832031 170.933593 22.832031 116.394532 0 170.402344-22.601563 170.929688-22.832031 4.046875-1.757813 8.761719.128906 10.503906 4.175781 1.753906 4.046875-.105468 8.753906-4.160156 10.503906-2.253906.984375-57.046875 24.144531-177.265625 24.144531zm0 0"/><path d="m15.039062 64.496094c-2.046874 0-4.09375-.785156-5.65625-2.34375-12.472656-12.480469-12.472656-32.785156 0-45.257813 12.472657-12.488281 32.777344-12.488281 45.257813 0 3.128906 3.128907 3.128906 8.183594 0 11.3125-3.128906 3.128907-8.183594 3.128907-11.3125 0-6.230469-6.222656-16.398437-6.238281-22.632813 0-6.230468 6.242188-6.230468 16.394531 0 22.632813 3.128907 3.128906 3.128907 8.191406 0 11.3125-1.558593 1.558594-3.605468 2.34375-5.65625 2.34375zm0 0"/><path d="m24.03125 73.464844c-2.046875 0-4.085938-.785156-5.648438-2.335938l-8.992187-8.96875c-3.132813-3.121094-3.132813-8.183594-.015625-11.3125 3.128906-3.144531 8.183594-3.128906 11.3125-.015625l8.992188 8.96875c3.136718 3.121094 3.136718 8.183594.015624 11.3125-1.558593 1.566407-3.617187 2.351563-5.664062 2.351563zm0 0"/><path d="m57.96875 39.535156c-2.046875 0-4.097656-.78125-5.65625-2.34375l-8.984375-8.984375c-3.128906-3.128906-3.128906-8.183593 0-11.3125 3.128906-3.125 8.183594-3.125 11.3125 0l8.984375 8.984375c3.128906 3.128906 3.128906 8.183594 0 11.3125-1.5625 1.5625-3.609375 2.34375-5.65625 2.34375zm0 0"/><path d="m449.113281 64.496094c-2.050781 0-4.097656-.785156-5.65625-2.34375-3.128906-3.121094-3.128906-8.183594 0-11.3125 6.230469-6.238282 6.230469-16.390625 0-22.632813-6.257812-6.238281-16.410156-6.222656-22.632812 0-3.128907 3.128907-8.183594 3.128907-11.3125 0-3.128907-3.128906-3.128907-8.183593 0-11.3125 12.488281-12.488281 32.777343-12.488281 45.257812 0 12.46875 12.480469 12.46875 32.785157 0 45.257813-1.5625 1.558594-3.609375 2.34375-5.65625 2.34375zm0 0"/><path d="m440.121094 73.464844c-2.058594 0-4.105469-.785156-5.664063-2.351563-3.121093-3.128906-3.121093-8.191406.015625-11.3125l8.992188-8.96875c3.136718-3.121093 8.191406-3.121093 11.3125.015625 3.117187 3.128906 3.117187 8.191406-.015625 11.3125l-8.992188 8.96875c-1.5625 1.550782-3.601562 2.335938-5.648437 2.335938zm0 0"/><path d="m406.183594 39.535156c-2.046875 0-4.09375-.78125-5.65625-2.34375-3.128906-3.128906-3.128906-8.183594 0-11.3125l8.984375-8.984375c3.128906-3.125 8.183593-3.125 11.3125 0 3.128906 3.128907 3.128906 8.183594 0 11.3125l-8.984375 8.984375c-1.566406 1.5625-3.617188 2.34375-5.65625 2.34375zm0 0"/><path d="m432.136719 359.527344c-8.191407 0-16.382813-3.121094-22.625-9.359375-3.128907-3.128907-3.128907-8.183594 0-11.3125 3.128906-3.128907 8.183593-3.128907 11.3125 0 6.222656 6.214843 16.390625 6.234375 22.632812 0 6.230469-6.238281 6.230469-16.390625 0-22.632813-3.128906-3.125-3.128906-8.191406 0-11.3125 3.128907-3.125 8.183594-3.125 11.3125 0 12.46875 12.480469 12.46875 32.785156 0 45.257813-6.234375 6.238281-14.441406 9.359375-22.632812 9.359375zm0 0"/><path d="m449.113281 318.566406c-2.050781 0-4.089843-.78125-5.648437-2.335937l-8.992188-8.964844c-3.136718-3.121094-3.136718-8.1875-.015625-11.3125 3.128907-3.144531 8.183594-3.128906 11.3125-.015625l8.992188 8.964844c3.132812 3.121094 3.132812 8.1875.015625 11.3125-1.5625 1.570312-3.617188 2.351562-5.664063 2.351562zm0 0"/><path d="m415.167969 352.511719c-2.046875 0-4.097657-.785157-5.65625-2.34375l-8.984375-8.984375c-3.128906-3.128906-3.128906-8.183594 0-11.3125s8.183594-3.128906 11.3125 0l8.984375 8.984375c3.128906 3.128906 3.128906 8.183593 0 11.3125-1.566407 1.558593-3.609375 2.34375-5.65625 2.34375zm0 0"/><path d="m32.007812 359.527344c-8.183593 0-16.382812-3.121094-22.625-9.359375-12.472656-12.480469-12.472656-32.785157 0-45.257813 3.128907-3.125 8.183594-3.125 11.3125 0 3.128907 3.121094 3.128907 8.1875 0 11.3125-6.230468 6.242188-6.230468 16.394532 0 22.632813 6.25 6.242187 16.402344 6.222656 22.632813 0 3.128906-3.128907 8.183594-3.128907 11.3125 0 3.128906 3.128906 3.128906 8.183593 0 11.3125-6.242187 6.238281-14.433594 9.359375-22.632813 9.359375zm0 0"/><path d="m15.039062 318.566406c-2.054687 0-4.101562-.78125-5.664062-2.351562-3.117188-3.125-3.117188-8.191406.015625-11.3125l8.992187-8.964844c3.136719-3.113281 8.191407-3.128906 11.3125.015625 3.121094 3.125 3.121094 8.191406-.015624 11.3125l-8.992188 8.964844c-1.558594 1.554687-3.597656 2.335937-5.648438 2.335937zm0 0"/><path d="m48.984375 352.511719c-2.046875 0-4.097656-.785157-5.65625-2.34375-3.128906-3.128907-3.128906-8.183594 0-11.3125l8.984375-8.984375c3.128906-3.128906 8.183594-3.128906 11.3125 0s3.128906 8.183594 0 11.3125l-8.984375 8.984375c-1.5625 1.558593-3.609375 2.34375-5.65625 2.34375zm0 0"/><path d="m448.6875 111.472656h-433.214844c-4.425781 0-8-3.578125-8-8 0-4.425781 3.574219-8 8-8h433.214844c4.425781 0 8 3.574219 8 8 0 4.421875-3.574219 8-8 8zm0 0"/><path d="m456.007812 199.558594h-447.863281c-4.425781 0-8-3.574219-8-8 0-4.421875 3.574219-8 8-8h447.863281c4.425782 0 8 3.578125 8 8 0 4.425781-3.574218 8-8 8zm0 0"/><path d="m445.550781 287.574219h-426.957031c-4.425781 0-8-3.574219-8-8 0-4.421875 3.574219-8 8-8h426.957031c4.425781 0 8 3.578125 8 8 0 4.425781-3.574219 8-8 8zm0 0"/><path d="m488.089844 437.6875c-.761719 0-1.53125-.113281-2.289063-.335938-4.234375-1.253906-6.648437-5.710937-5.386719-9.945312.160157-.527344 15.683594-53.445312 15.683594-115.628906 0-62.191406-15.53125-115.417969-15.691406-115.945313-1.246094-4.230469 1.167969-8.6875 5.402344-9.945312 4.199218-1.222657 8.6875 1.160156 9.945312 5.402343.660156 2.246094 16.34375 55.871094 16.34375 120.496094 0 64.621094-15.683594 117.957032-16.355468 120.199219-1.03125 3.464844-4.207032 5.703125-7.652344 5.703125zm0 0"/><path d="m71.960938 437.6875c-3.457032 0-6.632813-2.238281-7.664063-5.710938-.503906-1.6875-12.335937-41.847656-15.554687-94.730468-.269532-4.40625 3.089843-8.199219 7.503906-8.46875 4.410156-.21875 8.195312 3.085937 8.472656 7.503906 3.113281 51.054688 14.800781 90.726562 14.914062 91.117188 1.261719 4.234374-1.144531 8.699218-5.375 9.953124-.769531.234376-1.546874.335938-2.296874.335938zm0 0"/><path d="m280.023438 495.601562c-120.207032 0-175.015626-23.160156-177.289063-24.144531-4.046875-1.761719-5.902344-6.464843-4.160156-10.503906 1.753906-4.058594 6.457031-5.929687 10.503906-4.175781.53125.222656 54.546875 22.832031 170.9375 22.832031s170.398437-22.601563 170.929687-22.832031c4.054688-1.761719 8.75.125 10.503907 4.175781 1.75 4.046875-.105469 8.75-4.160157 10.503906-2.257812.984375-57.050781 24.144531-177.265624 24.144531zm0 0"/><path d="m497.054688 192.59375c-2.046876 0-4.09375-.785156-5.65625-2.347656-3.125-3.117188-3.125-8.183594 0-11.308594 6.234374-6.242188 6.234374-16.394531 0-22.632812-6.253907-6.242188-16.40625-6.226563-22.628907 0-3.128906 3.128906-8.183593 3.128906-11.3125 0-3.128906-3.128907-3.128906-8.183594 0-11.3125 12.488281-12.480469 32.773438-12.496094 45.253907 0 12.472656 12.480468 12.472656 32.785156 0 45.253906-1.558594 1.5625-3.605469 2.347656-5.65625 2.347656zm0 0"/><path d="m488.0625 201.558594c-2.054688 0-4.101562-.78125-5.664062-2.351563-3.117188-3.128906-3.117188-8.191406.015624-11.3125l8.992188-8.964843c3.128906-3.121094 8.1875-3.121094 11.3125.015624 3.121094 3.125 3.121094 8.191407-.015625 11.3125l-8.992187 8.964844c-1.558594 1.554688-3.597657 2.335938-5.648438 2.335938zm0 0"/><path d="m455.351562 166.398438c-2.046874 0-4.09375-.78125-5.65625-2.34375-3.128906-3.125-3.128906-8.183594 0-11.3125l7.761719-7.757813c3.128907-3.128906 8.183594-3.128906 11.3125 0 3.125 3.128906 3.125 8.183594 0 11.3125l-7.761719 7.757813c-1.558593 1.570312-3.609374 2.34375-5.65625 2.34375zm0 0"/><path d="m480.078125 487.625c-8.191406 0-16.382813-3.121094-22.621094-9.359375-3.128906-3.128906-3.128906-8.1875 0-11.3125 3.128907-3.128906 8.183594-3.128906 11.3125 0 6.222657 6.222656 16.390625 6.230469 22.628907 0 6.234374-6.242187 6.234374-16.394531 0-22.632813-3.125-3.128906-3.125-8.191406 0-11.3125 3.128906-3.128906 8.1875-3.128906 11.3125 0 12.472656 12.480469 12.472656 32.785157 0 45.257813-6.230469 6.238281-14.4375 9.359375-22.632813 9.359375zm0 0"/><path d="m497.054688 446.65625c-2.046876 0-4.085938-.785156-5.648438-2.335938l-8.992188-8.96875c-3.132812-3.121093-3.132812-8.183593-.015624-11.3125 3.128906-3.144531 8.1875-3.128906 11.3125-.015624l8.992187 8.96875c3.136719 3.121093 3.136719 8.183593.015625 11.3125-1.558594 1.574218-3.613281 2.351562-5.664062 2.351562zm0 0"/><path d="m463.113281 480.609375c-2.050781 0-4.097656-.785156-5.65625-2.34375l-8.984375-8.984375c-3.128906-3.128906-3.128906-8.183594 0-11.3125s8.183594-3.128906 11.3125 0l8.984375 8.984375c3.125 3.125 3.125 8.183594 0 11.3125-1.5625 1.558594-3.609375 2.34375-5.65625 2.34375zm0 0"/><path d="m79.953125 487.625c-8.183594 0-16.386719-3.121094-22.625-9.359375-12.472656-12.480469-12.472656-32.785156 0-45.257813 3.128906-3.128906 8.183594-3.128906 11.3125 0 3.128906 3.121094 3.128906 8.183594 0 11.3125-6.234375 6.238282-6.234375 16.390626 0 22.632813 6.253906 6.230469 16.40625 6.230469 22.632813 0 3.125-3.128906 8.183593-3.128906 11.3125 0 3.125 3.125 3.125 8.183594 0 11.3125-6.242188 6.238281-14.433594 9.359375-22.632813 9.359375zm0 0"/><path d="m62.984375 446.65625c-2.054687 0-4.105469-.785156-5.664063-2.351562-3.121093-3.128907-3.121093-8.191407.015626-11.3125l8.992187-8.96875c3.136719-3.121094 8.191406-3.121094 11.3125.015624 3.121094 3.128907 3.121094 8.191407-.015625 11.3125l-8.992188 8.96875c-1.5625 1.558594-3.601562 2.335938-5.648437 2.335938zm0 0"/><path d="m96.929688 480.609375c-2.050782 0-4.097657-.785156-5.65625-2.34375-3.128907-3.128906-3.128907-8.1875 0-11.3125l8.984374-8.984375c3.125-3.128906 8.183594-3.128906 11.308594 0 3.128906 3.128906 3.128906 8.183594 0 11.3125l-8.980468 8.984375c-1.5625 1.558594-3.609376 2.34375-5.65625 2.34375zm0 0"/><path d="m496.632812 239.566406h-43.25c-4.421874 0-8-3.574218-8-8 0-4.421875 3.578126-8 8-8h43.25c4.421876 0 8 3.578125 8 8 0 4.425782-3.578124 8-8 8zm0 0"/><path d="m503.953125 327.65625h-49.167969c-4.425781 0-8-3.578125-8-8 0-4.425781 3.574219-8 8-8h49.167969c4.421875 0 8 3.574219 8 8 0 4.421875-3.578125 8-8 8zm0 0"/><path d="m493.503906 415.664062h-426.960937c-4.421875 0-8-3.574218-8-8 0-4.425781 3.578125-8 8-8h426.960937c4.425782 0 8 3.574219 8 8 0 4.425782-3.582031 8-8 8zm0 0"/></svg>