<svg height="512pt" viewBox="-48 0 512 512.01311" width="512pt" xmlns="http://www.w3.org/2000/svg"><path d="m408.023438 8.003906v488l-64-24v-440zm0 0" fill="#656d78"/><path d="m344.023438 472.003906v32h-336v-32zm0 0" fill="#656d78"/><path d="m208.023438 432.003906h104v40h-104zm0 0" fill="#ccd1d9"/><path d="m208.023438 392.003906h104v40h-104zm0 0" fill="#ccd1d9"/><path d="m280.023438 128.003906h-48v16c-8.882813 0-16 7.121094-16 16v160h24v16h32v-16h32v-168h-8c-8.882813 0-16-7.199218-16-16zm-24-24h88v368h-32v-80h-104v80h-32v-368zm0 0" fill="#545c66"/><path d="m272.023438 320.003906v16h-32v-144c0-8.878906 7.117187-16 16-16 8.800781 0 16 7.121094 16 16zm0 0" fill="#5d9cec"/><path d="m304.023438 152.003906v168h-32v-128c0-8.878906-7.199219-16-16-16-8.882813 0-16 7.121094-16 16v128h-24v-160c0-8.878906 7.117187-16 16-16v-16h48v8c0 8.800782 7.117187 16 16 16zm0 0" fill="#4a89dc"/><path d="m256.023438 80.003906h88v24h-88zm0 0" fill="#aab2bd"/><path d="m176.023438 80.003906h80v24h-80zm0 0" fill="#aab2bd"/><path d="m256.023438 80.003906h-80v-48h168v48zm0 0" fill="#545c66"/><path d="m344.023438 8.003906v24h-336v-24zm0 0" fill="#656d78"/><path d="m176.023438 104.003906v368h-168v-440h168zm0 0" fill="#656d78"/><path d="m344.007812 40.019531h-336c-4.425781 0-7.9999995-3.574219-7.9999995-8v-24.007812c0-4.421875 3.5742185-8.0000002 7.9999995-8.0000002h336c4.421876 0 8 3.5781252 8 8.0000002v24.007812c0 4.425781-3.578124 8-8 8zm-328-16h320v-8.007812h-320zm0 0"/><path d="m344.03125 512.011719c-4.425781 0-8-3.574219-8-8v-471.992188c0-4.421875 3.574219-8 8-8 4.421875 0 8 3.578125 8 8v471.992188c0 4.425781-3.578125 8-8 8zm0 0"/><path d="m8.015625 512.011719c-4.425781 0-8-3.574219-8-8v-471.992188c0-4.421875 3.574219-8 8-8 4.421875 0 8 3.578125 8 8v471.992188c0 4.425781-3.578125 8-8 8zm0 0"/><path d="m344.007812 512.011719h-335.96875c-4.425781 0-7.9999995-3.574219-7.9999995-8 0-4.421875 3.5742185-8 7.9999995-8h335.96875c4.421876 0 8 3.578125 8 8 0 4.425781-3.578124 8-8 8zm0 0"/><path d="m344.03125 480.011719h-336.015625c-4.425781 0-8-3.574219-8-8 0-4.421875 3.574219-8 8-8h336.015625c4.421875 0 8 3.578125 8 8 0 4.425781-3.578125 8-8 8zm0 0"/><path d="m176.015625 480.011719c-4.425781 0-8-3.574219-8-8v-439.992188c0-4.421875 3.574219-8 8-8 4.421875 0 8 3.578125 8 8v439.992188c0 4.425781-3.578125 8-8 8zm0 0"/><path d="m136.023438 288.027344c-4.425782 0-8-3.574219-8-8v-48c0-4.421875 3.574218-8 8-8 4.421874 0 8 3.578125 8 8v48c0 4.425781-3.578126 8-8 8zm0 0"/><path d="m136.023438 240.027344h-8c-4.425782 0-8-3.574219-8-8 0-4.421875 3.574218-8 8-8h8c4.421874 0 8 3.578125 8 8 0 4.425781-3.578126 8-8 8zm0 0"/><path d="m136.023438 288.027344h-8c-4.425782 0-8-3.574219-8-8 0-4.421875 3.574218-8 8-8h8c4.421874 0 8 3.578125 8 8 0 4.425781-3.578126 8-8 8zm0 0"/><path d="m408.039062 504.046875c-.945312 0-1.898437-.167969-2.816406-.503906l-64.03125-24.027344c-3.121094-1.167969-5.183594-4.160156-5.183594-7.496094v-440c0-3.335937 2.070313-6.320312 5.183594-7.496093l64.03125-24.023438c2.472656-.902344 5.207032-.5742188 7.367188.914062 2.160156 1.503907 3.449218 3.949219 3.449218 6.574219v488.046875c0 2.625-1.289062 5.082032-3.449218 6.578125-1.359375.945313-2.941406 1.433594-4.550782 1.433594zm-56.03125-37.570313 48.03125 18.023438v-464.957031l-48.03125 18.023437zm0 0"/><path d="m344.007812 88.011719h-167.992187c-4.425781 0-8-3.574219-8-8 0-4.421875 3.574219-8 8-8h167.992187c4.421876 0 8 3.578125 8 8 0 4.425781-3.578124 8-8 8zm0 0"/><path d="m344.007812 112.011719h-167.992187c-4.425781 0-8-3.574219-8-8 0-4.421875 3.574219-8 8-8h167.992187c4.421876 0 8 3.578125 8 8 0 4.425781-3.578124 8-8 8zm0 0"/><path d="m304.015625 328.035156c-4.425781 0-8-3.574218-8-8v-168.015625c0-4.421875 3.574219-8 8-8 4.421875 0 8 3.578125 8 8v168.015625c0 4.425782-3.578125 8-8 8zm0 0"/><path d="m216 328.035156c-4.425781 0-8-3.574218-8-8v-160.007812c0-4.421875 3.574219-8 8-8 4.421875 0 8 3.578125 8 8v160.007812c0 4.425782-3.578125 8-8 8zm0 0"/><path d="m272.007812 200.019531c-4.425781 0-8-3.574219-8-8 0-4.414062-3.585937-8-8-8-4.417968 0-8 3.585938-8 8 0 4.425781-3.578124 8-8 8-4.425781 0-8-3.574219-8-8 0-13.230469 10.765626-24 24-24 13.230469 0 24 10.769531 24 24 0 4.425781-3.578124 8-8 8zm0 0"/><path d="m240 344.027344c-4.425781 0-8-3.582032-8-8l.007812-144.007813c0-4.421875 3.582032-8 8-8 4.421876 0 8 3.585938 8 8l-.007812 144.007813c0 4.425781-3.585938 8-8 8zm0 0"/><path d="m272.007812 344.027344c-4.425781 0-8-3.574219-8-8v-144.007813c0-4.421875 3.574219-8 8-8 4.421876 0 8 3.578125 8 8v144.007813c0 4.425781-3.578124 8-8 8zm0 0"/><path d="m272.007812 344.027344h-32.007812c-4.425781 0-8-3.574219-8-8 0-4.421875 3.574219-8 8-8h32.007812c4.421876 0 8 3.578125 8 8 0 4.425781-3.578124 8-8 8zm0 0"/><path d="m304.015625 328.035156h-32.007813c-4.425781 0-8-3.574218-8-8 0-4.421875 3.574219-8 8-8h32.007813c4.421875 0 8 3.578125 8 8 0 4.425782-3.578125 8-8 8zm0 0"/><path d="m239.207031 328.035156h-23.207031c-4.425781 0-8-3.574218-8-8 0-4.421875 3.574219-8 8-8h23.207031c4.421875 0 8 3.578125 8 8 0 4.425782-3.578125 8-8 8zm0 0"/><path d="m216 168.027344c-4.425781 0-8-3.574219-8-8 0-13.230469 10.765625-24 24-24 4.421875 0 8 3.578125 8 8 0 4.425781-3.578125 8-8 8-4.417969 0-8 3.585937-8 8 0 4.425781-3.578125 8-8 8zm0 0"/><path d="m232 152.027344c-4.425781 0-8-3.574219-8-8v-16.007813c0-4.421875 3.574219-8 8-8 4.421875 0 8 3.578125 8 8v16.007813c0 4.425781-3.578125 8-8 8zm0 0"/><path d="m280 144.011719c-4.425781 0-8-3.574219-8-8v-7.992188c0-4.421875 3.574219-8 8-8 4.421875 0 8 3.578125 8 8v7.992188c0 4.425781-3.578125 8-8 8zm0 0"/><path d="m296.015625 160.027344c-4.417969 0-7.992187-3.574219-8-7.992188-.007813-4.421875 3.566406-8 7.992187-8.007812l8-.007813h.007813c4.414063 0 7.992187 3.578125 8 7.992188.007813 4.425781-3.570313 8-7.992187 8.007812zm0 0"/><path d="m280 136.019531h-48c-4.425781 0-8-3.574219-8-8 0-4.421875 3.574219-8 8-8h48c4.421875 0 8 3.578125 8 8 0 4.425781-3.578125 8-8 8zm0 0"/><path d="m296.015625 160.027344c-13.242187 0-24.015625-10.773438-24.015625-24.015625 0-4.421875 3.574219-8 8-8 4.421875 0 8 3.578125 8 8 0 4.425781 3.589844 8.015625 8.015625 8.015625 4.421875 0 8 3.578125 8 8 0 4.425781-3.578125 8-8 8zm0 0"/><path d="m272.007812 320.027344h-7.960937c-4.425781 0-8-3.574219-8-8 0-4.421875 3.574219-8 8-8h7.960937c4.421876 0 8 3.578125 8 8 0 4.425781-3.578124 8-8 8zm0 0"/><path d="m256 136.011719c-4.425781 0-8-3.574219-8-8v-56.007813c0-4.421875 3.574219-8 8-8 4.421875 0 8 3.578125 8 8v56.007813c0 4.425781-3.578125 8-8 8zm0 0"/><path d="m312.0625 480.011719c-4.425781 0-8-3.574219-8-8v-31.976563h-88v31.976563c0 4.425781-3.574219 8-8 8s-8-3.574219-8-8v-39.976563c0-4.421875 3.574219-8 8-8h104c4.425781 0 8 3.578125 8 8v39.976563c0 4.425781-3.574219 8-8 8zm0 0"/><path d="m312.0625 439.988281c-4.425781 0-8-3.574219-8-8v-31.976562h-88v31.976562c0 4.425781-3.574219 8-8 8s-8-3.574219-8-8v-39.976562c0-4.421875 3.574219-8 8-8h104c4.425781 0 8 3.578125 8 8v39.976562c0 4.425781-3.574219 8-8 8zm0 0"/></svg>