<svg height="512pt" viewBox="0 -83 512 511" width="512pt" xmlns="http://www.w3.org/2000/svg"><path d="m263.921875 152.570312h64c0 17.683594-14.320313 32-32 32-17.683594 0-32-14.316406-32-32zm0 0" fill="#e6e9ed"/><path d="m424 152.570312v64h-256v-64h95.921875c0 17.683594 14.316406 32 32 32 17.679687 0 32-14.316406 32-32zm0 0" fill="#ed5565"/><path d="m447.921875 192.652344v47.917968h-304v-88h24.078125v64h256v-64h23.921875zm0 0" fill="#e6e9ed"/><path d="m504 120.570312v216h-24v-216zm0 0" fill="#965353"/><path d="m480 160.570312v32.082032h-32.078125v-32.082032zm0 0" fill="#ccd1d9"/><path d="m119.921875 144.570312v16h-87.921875v-48h55.921875c17.679687 0 32 14.320313 32 32zm0 0" fill="#e6e9ed"/><path d="m143.921875 160.570312v32.082032h-111.921875v-32.082032zm0 0" fill="#ccd1d9"/><path d="m480 192.652344v95.917968h-448v-95.917968h111.921875v47.917968h304v-47.917968zm0 0" fill="#844747"/><path d="m32 112.570312v224h-24v-328.078124h24zm0 0" fill="#965353"/><path d="m143.902344 200.628906h-111.886719c-4.421875 0-8-3.578125-8-8 0-4.425781 3.578125-8 8-8h111.886719c4.425781 0 8 3.574219 8 8 0 4.421875-3.574219 8-8 8zm0 0"/><path d="m479.96875 296.597656h-447.953125c-4.421875 0-8-3.578125-8-8 0-4.425781 3.578125-8 8-8h447.953125c4.421875 0 8 3.574219 8 8 0 4.421875-3.578125 8-8 8zm0 0"/><path d="m32 344.5625h-24c-4.425781 0-8-3.574219-8-8v-328.0625c0-4.425781 3.574219-8 8-8h24c4.425781 0 8 3.574219 8 8v328.0625c0 4.425781-3.574219 8-8 8zm-16-16h8v-312.0625h-8zm0 0"/><path d="m504 344.5625h-24c-4.425781 0-8-3.574219-8-8v-215.949219c0-4.425781 3.574219-8 8-8h24c4.425781 0 8 3.574219 8 8v215.949219c0 4.425781-3.574219 8-8 8zm-16-16h8v-199.949219h-8zm0 0"/><path d="m119.953125 152.613281c-4.425781 0-8-3.578125-8-8 0-13.257812-10.792969-24.042969-24.050781-24.042969-4.421875 0-8-3.574218-8-8 0-4.421874 3.578125-8 8-8 22.082031 0 40.050781 17.960938 40.050781 40.042969 0 4.421875-3.578125 8-8 8zm0 0"/><path d="m143.902344 168.589844h-111.871094c-4.421875 0-8-3.578125-8-8 0-4.425782 3.578125-8 8-8h111.871094c4.425781 0 8 3.574218 8 8 0 4.421875-3.574219 8-8 8zm0 0"/><path d="m87.902344 120.597656h-55.949219c-4.425781 0-8-3.578125-8-8 0-4.425781 3.574219-8 8-8h55.949219c4.425781 0 8 3.574219 8 8 0 4.421875-3.574219 8-8 8zm0 0"/><path d="m119.953125 168.589844c-4.425781 0-8-3.578125-8-8v-15.976563c0-4.425781 3.574219-8 8-8 4.421875 0 8 3.574219 8 8v15.976563c0 4.421875-3.578125 8-8 8zm0 0"/><path d="m143.902344 248.605469c-4.421875 0-8-3.578125-8-8v-88.027344c0-4.421875 3.578125-8 8-8 4.425781 0 8 3.578125 8 8v88.027344c0 4.421875-3.574219 8-8 8zm0 0"/><path d="m447.9375 248.605469c-4.425781 0-8-3.578125-8-8v-88.027344c0-4.421875 3.574219-8 8-8 4.421875 0 8 3.578125 8 8v88.027344c0 4.421875-3.578125 8-8 8zm0 0"/><path d="m447.9375 160.578125h-304.035156c-4.421875 0-8-3.574219-8-8 0-4.421875 3.578125-8 8-8h304.035156c4.421875 0 8 3.578125 8 8 0 4.425781-3.578125 8-8 8zm0 0"/><path d="m479.96875 200.628906h-32.03125c-4.425781 0-8-3.578125-8-8 0-4.425781 3.574219-8 8-8h32.03125c4.421875 0 8 3.574219 8 8 0 4.421875-3.578125 8-8 8zm0 0"/><path d="m447.9375 248.605469h-304.035156c-4.421875 0-8-3.578125-8-8 0-4.425781 3.578125-8 8-8h304.035156c4.421875 0 8 3.574219 8 8 0 4.421875-3.578125 8-8 8zm0 0"/><path d="m295.921875 192.578125c-22.058594 0-40-17.941406-40-40 0-4.421875 3.574219-8 8-8 4.421875 0 8 3.578125 8 8 0 13.234375 10.765625 24 24 24 13.230469 0 24-10.765625 24-24 0-4.421875 3.574219-8 8-8 4.421875 0 8 3.578125 8 8 0 22.058594-17.945313 40-40 40zm0 0"/><path d="m480 168.589844h-32c-4.425781 0-8-3.578125-8-8 0-4.425782 3.574219-8 8-8h32c4.425781 0 8 3.574218 8 8 0 4.421875-3.574219 8-8 8zm0 0"/><path d="m424 224.578125h-256c-4.425781 0-8-3.574219-8-8 0-4.421875 3.574219-8 8-8h256c4.425781 0 8 3.578125 8 8 0 4.425781-3.574219 8-8 8zm0 0"/><path d="m424 224.578125c-4.425781 0-8-3.574219-8-8v-64c0-4.421875 3.574219-8 8-8s8 3.578125 8 8v64c0 4.425781-3.574219 8-8 8zm0 0"/><path d="m168 224.578125c-4.425781 0-8-3.574219-8-8v-64c0-4.421875 3.574219-8 8-8s8 3.578125 8 8v64c0 4.425781-3.574219 8-8 8zm0 0"/></svg>