<svg height="512pt" viewBox="0 -87 512 511" width="512pt" xmlns="http://www.w3.org/2000/svg"><path d="m456 24.515625v128h-48v-32c0-8.878906-7.121094-16-16-16h-96c-8.878906 0-16 7.121094-16 16v32h-48v-32c0-8.878906-7.121094-16-16-16h-96c-8.878906 0-16 7.121094-16 16v32h-48v-128c0-8.878906 7.121094-16 16-16h368c8.800781 0 16 7.121094 16 16zm0 0" fill="#656d78"/><path d="m232 120.515625v32h-128v-32c0-8.878906 7.121094-16 16-16h96c8.878906 0 16 7.121094 16 16zm0 0" fill="#e6e9ed"/><path d="m408 120.515625v32h-128v-32c0-8.878906 7.121094-16 16-16h96c8.878906 0 16 7.121094 16 16zm0 0" fill="#e6e9ed"/><path d="m392 296.515625h80v32h-80zm0 0" fill="#656d78"/><path d="m40 296.515625h80v32h-80zm0 0" fill="#656d78"/><path d="m504 280.515625c0 8.871094-7.199219 16-16 16h-464c-8.878906 0-16-7.128906-16-16v-24h496zm0 0" fill="#e6e9ed"/><path d="m456 152.515625c26.480469 0 48 21.441406 48 48v56h-496v-56c0-26.558594 21.441406-48 48-48zm0 0" fill="#5d9cec"/><path d="m8 208.5c-4.425781 0-8-3.574219-8-8 0-30.871094 25.128906-56 56-56 4.425781 0 8 3.585938 8 8s-3.574219 8-8 8c-22.054688 0-40 17.945312-40 40 0 4.425781-3.574219 8-8 8zm0 0"/><path d="m504 208.5c-4.414062 0-8-3.574219-8-8-.007812-22.054688-17.953125-40-40-40-4.425781 0-8-3.585938-8-8s3.574219-8 8-8c30.863281 0 55.992188 25.121094 56 56 0 4.414062-3.574219 8-8 8zm0 0"/><path d="m456 160.507812h-400c-4.425781 0-8-3.582031-8-8 0-4.414062 3.574219-8 8-8h400c4.425781 0 8 3.585938 8 8 0 4.417969-3.574219 8-8 8zm0 0"/><path d="m8 288.546875c-4.425781 0-8-3.574219-8-8v-80.046875c0-4.425781 3.574219-8 8-8s8 3.574219 8 8v80.046875c0 4.425781-3.574219 8-8 8zm0 0"/><path d="m24 304.546875c-13.230469 0-24-10.765625-24-24 0-4.421875 3.574219-8 8-8s8 3.578125 8 8c0 4.417969 3.585938 8 8 8 4.425781 0 8 3.578125 8 8 0 4.425781-3.574219 8-8 8zm0 0"/><path d="m504 288.546875c-4.425781 0-8-3.574219-8-8v-80.046875c0-4.425781 3.574219-8 8-8s8 3.574219 8 8v80.046875c0 4.425781-3.574219 8-8 8zm0 0"/><path d="m488 304.546875c-4.425781 0-8-3.574219-8-8 0-4.421875 3.574219-8 8-8 4.414062 0 8-3.582031 8-8 0-4.421875 3.574219-8 8-8s8 3.578125 8 8c0 13.234375-10.769531 24-24 24zm0 0"/><path d="m488 304.546875h-464c-4.425781 0-8-3.574219-8-8 0-4.421875 3.574219-8 8-8h464c4.425781 0 8 3.578125 8 8 0 4.425781-3.574219 8-8 8zm0 0"/><path d="m504 264.53125h-496c-4.425781 0-8-3.574219-8-8 0-4.421875 3.574219-8 8-8h496c4.425781 0 8 3.578125 8 8 0 4.425781-3.574219 8-8 8zm0 0"/><path d="m40.015625 336.53125c-4.421875 0-8-3.574219-8-8v-31.984375c0-4.421875 3.578125-8 8-8 4.425781 0 8 3.578125 8 8v31.984375c0 4.425781-3.574219 8-8 8zm0 0"/><path d="m120.015625 336.53125h-80c-4.421875 0-8-3.574219-8-8 0-4.421875 3.578125-8 8-8h80c4.425781 0 8 3.578125 8 8 0 4.425781-3.574219 8-8 8zm0 0"/><path d="m120.015625 336.53125c-4.421875 0-8-3.574219-8-8v-31.984375c0-4.421875 3.578125-8 8-8 4.425781 0 8 3.578125 8 8v31.984375c0 4.425781-3.574219 8-8 8zm0 0"/><path d="m391.984375 336.53125c-4.425781 0-8-3.574219-8-8v-31.984375c0-4.421875 3.574219-8 8-8 4.421875 0 8 3.578125 8 8v31.984375c0 4.425781-3.578125 8-8 8zm0 0"/><path d="m471.984375 336.53125h-80c-4.425781 0-8-3.574219-8-8 0-4.421875 3.574219-8 8-8h80c4.421875 0 8 3.578125 8 8 0 4.425781-3.578125 8-8 8zm0 0"/><path d="m471.984375 336.53125c-4.425781 0-8-3.574219-8-8v-31.984375c0-4.421875 3.574219-8 8-8 4.421875 0 8 3.578125 8 8v31.984375c0 4.425781-3.578125 8-8 8zm0 0"/><path d="m56 160.507812c-4.425781 0-8-3.582031-8-8v-127.992187c0-4.414063 3.574219-8 8-8s8 3.585937 8 8v127.984375c0 4.425781-3.574219 8.007812-8 8.007812zm0 0"/><path d="m456 160.507812c-4.425781 0-8-3.582031-8-8v-127.992187c0-4.414063 3.574219-8 8-8s8 3.585937 8 8v127.984375c0 4.425781-3.574219 8.007812-8 8.007812zm0 0"/><path d="m439.984375 16.515625h-367.96875c-4.421875 0-8-3.582031-8-8 0-4.414063 3.578125-8 8-8h367.96875c4.421875 0 8 3.585937 8 8 0 4.417969-3.578125 8-8 8zm0 0"/><path d="m103.984375 128.523438c-4.425781 0-8-3.582032-8-8 0-13.238282 10.769531-24.007813 24-24.007813 4.421875 0 8 3.585937 8 8 0 4.417969-3.578125 8-8 8-4.417969 0-8 3.59375-8 8.007813 0 4.425781-3.578125 8-8 8zm0 0"/><path d="m232.015625 128.523438c-4.421875 0-8-3.582032-8-8 0-4.40625-3.582031-7.992188-8-7.992188-4.421875 0-8-3.582031-8-8 0-4.414062 3.578125-8 8-8 13.230469 0 24 10.761719 24 23.992188 0 4.425781-3.574219 8-8 8zm0 0"/><path d="m103.984375 160.523438c-4.425781 0-8-3.582032-8-8v-32c0-4.414063 3.574219-8 8-8 4.421875 0 8 3.585937 8 8v32c0 4.425781-3.578125 8-8 8zm0 0"/><path d="m232.015625 160.507812c-4.421875 0-8-3.582031-8-8v-31.976562c0-4.414062 3.578125-8 8-8 4.425781 0 8 3.585938 8 8v31.976562c0 4.417969-3.574219 8-8 8zm0 0"/><path d="m216.015625 112.53125h-96.03125c-4.425781 0-8-3.582031-8-8 0-4.414062 3.574219-8 8-8h96.03125c4.425781 0 8 3.585938 8 8 0 4.417969-3.574219 8-8 8zm0 0"/><path d="m280 128.523438c-4.425781 0-8-3.582032-8-8 0-13.230469 10.769531-24.007813 24-24.007813 4.425781 0 8 3.585937 8 8 0 4.417969-3.574219 8-8 8-4.414062 0-8 3.59375-8 8.007813 0 4.425781-3.574219 8-8 8zm0 0"/><path d="m408.03125 128.523438c-4.421875 0-8-3.582032-8-8 0-4.40625-3.582031-7.992188-8-7.992188-4.421875 0-8-3.582031-8-8 0-4.414062 3.578125-8 8-8 13.234375 0 24 10.761719 24 23.992188 0 4.425781-3.574219 8-8 8zm0 0"/><path d="m280 160.523438c-4.425781 0-8-3.582032-8-8v-32c0-4.414063 3.574219-8 8-8s8 3.585937 8 8v32c0 4.425781-3.574219 8-8 8zm0 0"/><path d="m408.03125 160.507812c-4.421875 0-8-3.582031-8-8v-31.976562c0-4.414062 3.578125-8 8-8 4.425781 0 8 3.585938 8 8v31.976562c0 4.417969-3.574219 8-8 8zm0 0"/><path d="m392.03125 112.53125h-96.03125c-4.425781 0-8-3.582031-8-8 0-4.414062 3.574219-8 8-8h96.03125c4.425781 0 8 3.585938 8 8 0 4.417969-3.574219 8-8 8zm0 0"/><path d="m56 32.515625c-4.425781 0-8-3.582031-8-8 0-13.238281 10.777344-24.015625 24.015625-24.015625 4.425781 0 8 3.585938 8 8s-3.574219 8-8 8c-4.421875 0-8.015625 3.601562-8.015625 8.015625 0 4.417969-3.574219 8-8 8zm0 0"/><path d="m456 32.515625c-4.425781 0-8-3.582031-8-8 0-4.414063-3.59375-8.015625-8.015625-8.015625-4.425781 0-8-3.585938-8-8s3.574219-8 8-8c13.238281.007812 24.015625 10.777344 24.015625 24.015625 0 4.425781-3.574219 8-8 8zm0 0"/></svg>