<svg height="512pt" viewBox="0 -16 512 511" width="512pt" xmlns="http://www.w3.org/2000/svg"><path d="m504 8.484375v24h-496v-24zm0 0" fill="#e6e9ed"/><path d="m55.921875 384.484375v88h-39.921875v-127.921875c22.078125.082031 39.839844 17.839844 39.839844 39.921875zm0 0" fill="#5d9cec"/><path d="m48 344.5625h8c22 0 39.921875 17.839844 39.921875 39.921875h.078125v88h-40.078125v-88h-.082031c0-22.082031-17.769532-39.839844-39.839844-39.921875zm0 0" fill="#4a89dc"/><path d="m96 344.5625c22.078125 0 39.921875 17.839844 39.921875 39.921875h.078125v88h-40v-88h-.078125c0-22.082031-17.921875-39.921875-39.921875-39.921875zm0 0" fill="#5d9cec"/><path d="m432 344.5625h24c-22.078125 0-39.921875 17.839844-39.921875 39.921875h-.078125v88h-40.078125v-88h.15625c0-22.082031 17.84375-39.921875 39.921875-39.921875zm0 0" fill="#5d9cec"/><path d="m496 344.5625c-22.078125.082031-39.839844 17.839844-39.839844 39.921875h-.160156v88h-40v-88h.078125c0-22.082031 17.84375-39.921875 39.921875-39.921875zm0 0" fill="#4a89dc"/><path d="m496 344.5625v127.921875h-40v-88h.160156c0-22.082031 17.761719-39.839844 39.839844-39.921875zm0 0" fill="#5d9cec"/><path d="m496 56.484375v288.078125c-35.359375 0-64-28.636719-64-64.078125h.160156v-224zm0 0" fill="#5d9cec"/><path d="m464 344.5625c-53.121094 0-96.078125-42.957031-96.078125-96.078125h.15625v-192h64.082031v224h-.160156c0 35.441406 28.640625 64.078125 64 64.078125zm0 0" fill="#4a89dc"/><path d="m456 344.5625h-24c-70.800781 0-128-57.277344-128-128v-160.078125h64.078125v192h-.15625c0 53.121094 42.957031 96.078125 96.078125 96.078125zm0 0" fill="#5d9cec"/><path d="m48 344.5625c53.039062 0 96.078125-42.957031 96.078125-96.078125h-.15625v-192h64.078125v160.078125c0 70.722656-57.28125 128-128 128zm0 0" fill="#5d9cec"/><path d="m144.078125 248.484375c0 53.121094-43.039063 96.078125-96.078125 96.078125h-32c35.441406-.078125 64-28.636719 64-64.078125h-.160156v-224h64.082031v192zm0 0" fill="#4a89dc"/><path d="m79.839844 280.484375h.160156c0 35.441406-28.558594 64-64 64.078125v-288.078125h63.839844zm0 0" fill="#5d9cec"/><path d="m504 40.5h-496c-4.425781 0-8-3.574219-8-8s3.574219-8 8-8h496c4.425781 0 8 3.574219 8 8s-3.574219 8-8 8zm0 0"/><path d="m504 16.5h-496c-4.425781 0-8-3.574219-8-8s3.574219-8 8-8h496c4.425781 0 8 3.574219 8 8s-3.574219 8-8 8zm0 0"/><path d="m207.984375 224.53125c-4.425781 0-8-3.574219-8-8v-160.015625c0-4.421875 3.574219-8 8-8 4.421875 0 8 3.578125 8 8v160.015625c0 4.425781-3.578125 8-8 8zm0 0"/><path d="m79.984375 352.546875c-4.425781 0-8-3.574219-8-8 0-4.421875 3.574219-8 8-8 66.175781 0 120.023437-53.832031 120.023437-120.015625 0-4.421875 3.578126-8 8-8 4.425782 0 8 3.578125 8 8 0 75-61.023437 136.015625-136.023437 136.015625zm0 0"/><path d="m79.984375 352.546875c-4.425781 0-8-3.574219-8-8 0-4.421875 3.574219-8 8-8 66.175781 0 120.023437-53.832031 120.023437-120.015625 0-4.421875 3.578126-8 8-8 4.425782 0 8 3.578125 8 8 0 75-61.023437 136.015625-136.023437 136.015625zm0 0"/><path d="m15.929688 352.546875c-4.425782 0-8-3.574219-8-8 0-4.421875 3.574218-8 8-8 30.894531 0 56.03125-25.136719 56.03125-56.03125 0-4.421875 3.574218-8 8-8 4.421874 0 8 3.578125 8 8 0 39.71875-32.3125 72.03125-72.03125 72.03125zm0 0"/><path d="m47.96875 352.546875c-4.425781 0-8-3.574219-8-8 0-4.421875 3.574219-8 8-8 48.566406 0 88.078125-39.503906 88.078125-88.078125 0-4.425781 3.578125-8 8-8 4.425781 0 8 3.574219 8 8 0 57.390625-46.6875 104.078125-104.078125 104.078125zm0 0"/><path d="m143.921875 256.46875c-4.425781 0-8-3.578125-8-8v-191.953125c0-4.421875 3.574219-8 8-8 4.421875 0 8 3.578125 8 8v191.953125c0 4.421875-3.578125 8-8 8zm0 0"/><path d="m79.832031 288.515625c-4.425781 0-8-3.574219-8-8v-224c0-4.421875 3.574219-8 8-8s8 3.578125 8 8v224c0 4.425781-3.574219 8-8 8zm0 0"/><path d="m207.984375 64.515625h-191.984375c-4.425781 0-8-3.574219-8-8 0-4.421875 3.574219-8 8-8h191.984375c4.421875 0 8 3.578125 8 8 0 4.425781-3.578125 8-8 8zm0 0"/><path d="m16 480.46875c-4.425781 0-8-3.578125-8-8v-415.953125c0-4.421875 3.574219-8 8-8s8 3.578125 8 8v415.953125c0 4.421875-3.574219 8-8 8zm0 0"/><path d="m96 352.546875h-80c-4.425781 0-8-3.574219-8-8 0-4.421875 3.574219-8 8-8h80c4.425781 0 8 3.578125 8 8 0 4.425781-3.574219 8-8 8zm0 0"/><path d="m55.839844 392.46875c-4.425782 0-8-3.578125-8-8 0-17.601562-14.320313-31.921875-31.917969-31.921875-4.425781 0-8-3.574219-8-8 0-4.421875 3.574219-8 8-8 26.421875 0 47.917969 21.503906 47.917969 47.921875 0 4.421875-3.574219 8-8 8zm0 0"/><path d="m55.945312 480.46875c-4.425781 0-8-3.578125-8-8v-88c0-4.425781 3.574219-8 8-8 4.421876 0 8 3.574219 8 8v88c0 4.421875-3.578124 8-8 8zm0 0"/><path d="m95.878906 392.46875c-4.421875 0-8-3.578125-8-8 0-17.601562-14.320312-31.921875-31.917968-31.921875-4.425782 0-8-3.574219-8-8 0-4.421875 3.574218-8 8-8 26.421874 0 47.917968 21.503906 47.917968 47.921875 0 4.421875-3.574218 8-8 8zm0 0"/><path d="m95.984375 480.46875c-4.425781 0-8-3.578125-8-8v-88c0-4.425781 3.574219-8 8-8 4.421875 0 8 3.574219 8 8v88c0 4.421875-3.578125 8-8 8zm0 0"/><path d="m135.921875 392.46875c-4.425781 0-8-3.578125-8-8 0-17.601562-14.320313-31.921875-31.921875-31.921875-4.425781 0-8-3.574219-8-8 0-4.421875 3.574219-8 8-8 26.425781 0 47.921875 21.503906 47.921875 47.921875 0 4.421875-3.578125 8-8 8zm0 0"/><path d="m136.023438 480.46875c-4.421876 0-8-3.578125-8-8v-88c0-4.425781 3.578124-8 8-8 4.425781 0 8 3.574219 8 8v88c0 4.421875-3.574219 8-8 8zm0 0"/><path d="m136.023438 480.46875h-120.023438c-4.425781 0-8-3.578125-8-8 0-4.425781 3.574219-8 8-8h120.023438c4.425781 0 8 3.574219 8 8 0 4.421875-3.574219 8-8 8zm0 0"/><path d="m16 48.5c-4.425781 0-8-3.574219-8-8v-8c0-4.425781 3.574219-8 8-8s8 3.574219 8 8v8c0 4.425781-3.574219 8-8 8zm0 0"/><path d="m79.992188 48.5c-4.425782 0-8-3.574219-8-8v-8c0-4.425781 3.574218-8 8-8 4.421874 0 8 3.574219 8 8v8c0 4.425781-3.578126 8-8 8zm0 0"/><path d="m143.921875 48.5c-4.425781 0-8-3.574219-8-8v-8c0-4.425781 3.574219-8 8-8 4.421875 0 8 3.574219 8 8v8c0 4.425781-3.578125 8-8 8zm0 0"/><path d="m207.847656 48.5c-4.421875 0-8-3.574219-8-8v-8c0-4.425781 3.578125-8 8-8 4.425782 0 8 3.574219 8 8v8c0 4.425781-3.574218 8-8 8zm0 0"/><path d="m303.984375 224.53125c-4.425781 0-8-3.574219-8-8v-160.015625c0-4.421875 3.574219-8 8-8 4.421875 0 8 3.578125 8 8v160.015625c0 4.425781-3.578125 8-8 8zm0 0"/><path d="m431.984375 352.546875c-75 0-136.023437-61.015625-136.023437-136.015625 0-4.421875 3.574218-8 8-8 4.421874 0 8 3.578125 8 8 0 66.175781 53.839843 120.015625 120.023437 120.015625 4.421875 0 8 3.578125 8 8 0 4.425781-3.578125 8-8 8zm0 0"/><path d="m431.984375 352.546875c-75 0-136.023437-61.015625-136.023437-136.015625 0-4.421875 3.574218-8 8-8 4.421874 0 8 3.578125 8 8 0 66.175781 53.839843 120.015625 120.023437 120.015625 4.421875 0 8 3.578125 8 8 0 4.425781-3.578125 8-8 8zm0 0"/><path d="m496.039062 352.546875c-39.71875 0-72.03125-32.3125-72.03125-72.03125 0-4.421875 3.578126-8 8-8 4.425782 0 8 3.578125 8 8 0 30.894531 25.136719 56.03125 56.03125 56.03125 4.425782 0 8 3.578125 8 8 0 4.425781-3.574218 8-8 8zm0 0"/><path d="m464 352.546875c-57.390625 0-104.078125-46.6875-104.078125-104.078125 0-4.425781 3.574219-8 8-8 4.421875 0 8 3.574219 8 8 0 48.566406 39.503906 88.078125 88.078125 88.078125 4.425781 0 8 3.578125 8 8 0 4.425781-3.574219 8-8 8zm0 0"/><path d="m368.046875 256.46875c-4.421875 0-8-3.578125-8-8v-191.953125c0-4.421875 3.578125-8 8-8 4.425781 0 8 3.578125 8 8v191.953125c0 4.421875-3.574219 8-8 8zm0 0"/><path d="m432.136719 288.515625c-4.425781 0-8-3.574219-8-8v-224c0-4.421875 3.574219-8 8-8 4.421875 0 8 3.578125 8 8v224c0 4.425781-3.585938 8-8 8zm0 0"/><path d="m495.96875 64.515625h-191.984375c-4.425781 0-8-3.574219-8-8 0-4.421875 3.574219-8 8-8h191.984375c4.421875 0 8 3.578125 8 8 0 4.425781-3.578125 8-8 8zm0 0"/><path d="m495.96875 480.46875c-4.425781 0-8-3.578125-8-8v-415.953125c0-4.421875 3.574219-8 8-8 4.421875 0 8 3.578125 8 8v415.953125c0 4.421875-3.578125 8-8 8zm0 0"/><path d="m495.96875 352.546875h-80c-4.425781 0-8-3.574219-8-8 0-4.421875 3.574219-8 8-8h80c4.421875 0 8 3.578125 8 8 0 4.425781-3.578125 8-8 8zm0 0"/><path d="m456.128906 392.46875c-4.425781 0-8-3.578125-8-8 0-26.425781 21.503906-47.921875 47.917969-47.921875 4.425781 0 8 3.578125 8 8 0 4.425781-3.574219 8-8 8-17.597656 0-31.917969 14.320313-31.917969 31.921875 0 4.421875-3.585937 8-8 8zm0 0"/><path d="m456.023438 480.46875c-4.421876 0-8-3.578125-8-8v-88c0-4.425781 3.578124-8 8-8 4.425781 0 8 3.574219 8 8v88c0 4.421875-3.574219 8-8 8zm0 0"/><path d="m416.089844 392.46875c-4.425782 0-8-3.578125-8-8 0-26.425781 21.503906-47.921875 47.917968-47.921875 4.425782 0 8 3.578125 8 8 0 4.425781-3.574218 8-8 8-17.601562 0-31.917968 14.320313-31.917968 31.921875 0 4.421875-3.585938 8-8 8zm0 0"/><path d="m415.984375 480.46875c-4.425781 0-8-3.578125-8-8v-88c0-4.425781 3.574219-8 8-8 4.421875 0 8 3.574219 8 8v88c0 4.421875-3.578125 8-8 8zm0 0"/><path d="m376.046875 392.46875c-4.421875 0-8-3.578125-8-8 0-26.425781 21.503906-47.921875 47.921875-47.921875 4.421875 0 8 3.578125 8 8 0 4.425781-3.578125 8-8 8-17.601562 0-31.921875 14.320313-31.921875 31.921875 0 4.421875-3.574219 8-8 8zm0 0"/><path d="m375.945312 480.46875c-4.425781 0-8-3.578125-8-8v-88c0-4.425781 3.574219-8 8-8 4.421876 0 8 3.574219 8 8v88c0 4.421875-3.578124 8-8 8zm0 0"/><path d="m495.96875 480.46875h-120.023438c-4.425781 0-8-3.578125-8-8 0-4.425781 3.574219-8 8-8h120.023438c4.421875 0 8 3.574219 8 8 0 4.421875-3.578125 8-8 8zm0 0"/><path d="m495.96875 48.5c-4.425781 0-8-3.574219-8-8v-8c0-4.425781 3.574219-8 8-8 4.421875 0 8 3.574219 8 8v8c0 4.425781-3.578125 8-8 8zm0 0"/><path d="m431.976562 48.5c-4.425781 0-8-3.574219-8-8v-8c0-4.425781 3.574219-8 8-8 4.421876 0 8 3.574219 8 8v8c0 4.425781-3.578124 8-8 8zm0 0"/><path d="m368.046875 48.5c-4.421875 0-8-3.574219-8-8v-8c0-4.425781 3.578125-8 8-8 4.425781 0 8 3.574219 8 8v8c0 4.425781-3.574219 8-8 8zm0 0"/><path d="m304.121094 48.5c-4.425782 0-8-3.574219-8-8v-8c0-4.425781 3.574218-8 8-8 4.421875 0 8 3.574219 8 8v8c0 4.425781-3.585938 8-8 8zm0 0"/></svg>