<svg height="512pt" viewBox="-104 0 512 512" width="512pt" xmlns="http://www.w3.org/2000/svg"><path d="m224.222656 8-.078125 40c0 8.878906-7.128906 16-16 16h-111.921875c-8.871094 0-16-7.121094-16-16l-.078125-40zm0 0" fill="#656d78"/><path d="m248.222656 280h-192.078125c-8.800781 0-16 7.199219-16 16v-95.921875h8.078125v-24h-8.078125v-152.078125c0-8.878906 7.199219-16 16-16h24l.078125 40c0 8.878906 7.128906 16 16 16h111.921875c8.871094 0 16-7.121094 16-16l.078125-40h23.921875c8.871094 0 16.078125 7.121094 16 16h.078125v152.078125h-8.078125v24h8v94.320313c-.800781-8.078126-7.671875-14.398438-15.921875-14.398438zm0 0" fill="#545c66"/><path d="m16.222656 200.078125h-8v-24h40v24zm0 0" fill="#656d78"/><path d="m40.144531 296v8h-23.921875v-103.921875h23.921875zm0 0" fill="#ccd1d9"/><path d="m264.222656 176.078125h31.921875v24h-40v-24zm0 0" fill="#656d78"/><path d="m288.144531 200.078125v103.921875h-24v-103.921875zm0 0" fill="#ccd1d9"/><g fill="#656d78"><path d="m280.144531 472c8.800781 0 16 7.199219 16 16 0 8.878906-7.199219 16-16 16-8.871093 0-16-7.121094-16-16 0-8.800781 7.121094-16 16-16zm0 0"/><path d="m152.0625 472c8.800781 0 16 7.199219 16 16 0 8.878906-7.199219 16-16 16-8.871094 0-16-7.121094-16-16 0-8.800781 7.128906-16 16-16zm0 0"/><path d="m23.984375 472c8.871094 0 16 7.199219 16 16 0 8.878906-7.128906 16-16 16-8.800781 0-16-7.121094-16-16 0-8.800781 7.207031-16 16-16zm0 0"/></g><path d="m16.121094 456h.023437v-16l120-24v32.078125zm0 0" fill="#aab2bd"/><path d="m288.007812 456-119.863281-8v-32l119.839844 24v16zm0 0" fill="#aab2bd"/><path d="m168.144531 448v8h-32v-40h32zm0 0" fill="#ccd1d9"/><path d="m168.191406 360.078125v55.921875h-32v-55.921875zm0 0" fill="#ccd1d9"/><path d="m200.144531 344.078125c0 8.808594-7.128906 16-16 16h-64c-8.800781 0-16-7.191406-16-16v-8.078125h96zm0 0" fill="#e6e9ed"/><path d="m264.144531 294.398438v9.601562h.078125c0 17.679688-14.3125 32-32 32h-160.078125c-17.671875 0-32-14.320312-32-32v-8c0-8.800781 7.199219-16 16-16h192.078125c8.25 0 15.121094 6.320312 15.921875 14.398438zm0 0" fill="#656d78"/><path d="m152.03125 512c-13.230469 0-24-10.769531-24-24s10.769531-24 24-24c13.234375 0 24 10.769531 24 24s-10.765625 24-24 24zm0-32c-4.414062 0-8 3.585938-8 8s3.585938 8 8 8c4.417969 0 8-3.585938 8-8s-3.582031-8-8-8zm0 0"/><path d="m24 512c-13.230469 0-24-10.769531-24-24s10.769531-24 24-24 24 10.769531 24 24-10.769531 24-24 24zm0-32c-4.414062 0-8 3.585938-8 8s3.585938 8 8 8 8-3.585938 8-8-3.585938-8-8-8zm0 0"/><path d="m16.128906 464c-4.425781 0-8-3.574219-8-8v-16c0-4.425781 3.574219-8 8-8 4.421875 0 8 3.574219 8 8v16c0 4.425781-3.578125 8-8 8zm0 0"/><path d="m16.128906 464.015625c-4.175781 0-7.695312-3.238281-7.976562-7.472656-.289063-4.40625 3.046875-8.214844 7.457031-8.511719l119.992187-7.96875c4.308594-.191406 8.222657 3.050781 8.511719 7.457031.285157 4.410157-3.050781 8.214844-7.457031 8.511719l-119.992188 7.96875c-.175781.007812-.359374.015625-.535156.015625zm0 0"/><path d="m16.136719 448c-3.738281 0-7.082031-2.625-7.832031-6.433594-.863282-4.335937 1.941406-8.542968 6.269531-9.414062l119.984375-23.984375c4.378906-.902344 8.554687 1.945312 9.417968 6.273437.863282 4.335938-1.945312 8.542969-6.273437 9.414063l-119.992187 23.984375c-.527344.113281-1.0625.160156-1.574219.160156zm0 0"/><path d="m280.113281 512c-13.234375 0-24-10.769531-24-24s10.765625-24 24-24c13.230469 0 24 10.769531 24 24s-10.769531 24-24 24zm0-32c-4.417969 0-8 3.585938-8 8s3.582031 8 8 8c4.414063 0 8-3.585938 8-8s-3.585937-8-8-8zm0 0"/><path d="m287.984375 464c-4.425781 0-8-3.574219-8-8v-16c0-4.425781 3.574219-8 8-8 4.421875 0 8 3.574219 8 8v16c0 4.425781-3.578125 8-8 8zm0 0"/><path d="m287.984375 464.015625c-.175781 0-.359375-.007813-.535156-.015625l-119.847657-8c-4.410156-.296875-7.746093-4.113281-7.457031-8.511719.296875-4.410156 4.167969-7.65625 8.511719-7.457031l119.847656 8c4.40625.296875 7.742188 4.113281 7.457032 8.511719-.28125 4.234375-3.800782 7.472656-7.976563 7.472656zm0 0"/><path d="m287.976562 448c-.519531 0-1.046874-.046875-1.578124-.160156l-119.839844-23.984375c-4.328125-.863281-7.144532-5.078125-6.269532-9.414063.855469-4.335937 5.085938-7.175781 9.414063-6.273437l119.839844 23.984375c4.328125.863281 7.144531 5.078125 6.273437 9.414062-.761718 3.808594-4.105468 6.433594-7.839844 6.433594zm0 0"/><path d="m168.128906 464h-32c-4.425781 0-8-3.574219-8-8s3.574219-8 8-8h32c4.421875 0 8 3.574219 8 8s-3.578125 8-8 8zm0 0"/><path d="m136.128906 464c-4.425781 0-8-3.574219-8-8v-96.03125c0-4.425781 3.574219-8 8-8 4.421875 0 8 3.574219 8 8v96.03125c0 4.425781-3.578125 8-8 8zm0 0"/><path d="m168.128906 464c-4.425781 0-8-3.574219-8-8v-96.03125c0-4.425781 3.574219-8 8-8 4.421875 0 8 3.574219 8 8v96.03125c0 4.425781-3.578125 8-8 8zm0 0"/><path d="m168.128906 424.015625h-32c-4.425781 0-8-3.574219-8-8 0-4.421875 3.574219-8 8-8h32c4.421875 0 8 3.578125 8 8 0 4.425781-3.578125 8-8 8zm0 0"/><path d="m120.160156 368.046875c-13.230468 0-24-10.765625-24-24 0-4.421875 3.574219-8 8-8 4.425782 0 8 3.578125 8 8 0 4.417969 3.582032 8 8 8 4.425782 0 8 3.578125 8 8 0 4.425781-3.585937 8-8 8zm0 0"/><path d="m184.160156 368.046875c-4.425781 0-8-3.574219-8-8 0-4.421875 3.574219-8 8-8 4.414063 0 8-3.582031 8-8 0-4.421875 3.574219-8 8-8 4.425782 0 8 3.578125 8 8 0 13.234375-10.769531 24-24 24zm0 0"/><path d="m184.160156 368.046875h-64c-4.425781 0-8-3.574219-8-8 0-4.421875 3.574219-8 8-8h64c4.425782 0 8 3.578125 8 8 0 4.425781-3.585937 8-8 8zm0 0"/><path d="m136.128906 392.046875h-15.96875c-4.425781 0-8-3.574219-8-8 0-4.421875 3.574219-8 8-8h15.96875c4.421875 0 8 3.578125 8 8 0 4.425781-3.578125 8-8 8zm0 0"/><path d="m72.144531 344.03125c-22.054687 0-40-17.941406-40-40 0-4.421875 3.574219-8 8-8 4.421875 0 8 3.578125 8 8 0 13.234375 10.765625 24 24 24 4.421875 0 8 3.578125 8 8 0 4.425781-3.578125 8-8 8zm0 0"/><path d="m208.128906 72.03125c-4.425781 0-8-3.574219-8-8 0-4.421875 3.574219-8 8-8 4.421875 0 8.015625-3.582031 8.015625-8 0-4.421875 3.574219-8 8-8 4.421875 0 8 3.578125 8 8 0 13.234375-10.777343 24-24.015625 24zm0 0"/><path d="m232.191406 344.03125c-4.421875 0-8-3.574219-8-8 0-4.421875 3.578125-8 8-8 13.234375 0 24-10.765625 24-24 0-4.421875 3.578125-8 8-8 4.425782 0 8 3.578125 8 8 0 22.058594-17.953125 40-40 40zm0 0"/><path d="m232.191406 344.03125h-160.046875c-4.425781 0-8-3.574219-8-8 0-4.421875 3.574219-8 8-8h160.046875c4.425782 0 8 3.578125 8 8 0 4.425781-3.582031 8-8 8zm0 0"/><path d="m200.160156 352.046875c-4.425781 0-8-3.574219-8-8v-8.015625c0-4.421875 3.574219-8 8-8 4.425782 0 8 3.578125 8 8v8.015625c0 4.425781-3.585937 8-8 8zm0 0"/><path d="m104.160156 352.046875c-4.425781 0-8-3.574219-8-8v-7.390625c0-4.425781 3.574219-8 8-8 4.425782 0 8 3.574219 8 8v7.390625c0 4.425781-3.585937 8-8 8zm0 0"/><path d="m40.144531 304.03125c-4.425781 0-8-3.574219-8-8 0-13.238281 10.777344-24.015625 24.015625-24.015625 4.425782 0 8 3.578125 8 8 0 4.425781-3.574218 8-8 8-4.425781 0-8.015625 3.59375-8.015625 8.015625 0 4.425781-3.578125 8-8 8zm0 0"/><path d="m264.191406 304.03125c-4.421875 0-8-3.574219-8-8 0-4.421875-3.589844-8.015625-8.015625-8.015625-4.421875 0-8-3.574219-8-8 0-4.421875 3.578125-8 8-8 13.238281 0 24.015625 10.777344 24.015625 24.015625 0 4.425781-3.582031 8-8 8zm0 0"/><path d="m248.175781 288.015625h-192.015625c-4.425781 0-8-3.574219-8-8 0-4.421875 3.574219-8 8-8h192.015625c4.425781 0 8 3.578125 8 8 0 4.425781-3.582031 8-8 8zm0 0"/><path d="m40.144531 312.03125h-23.96875c-4.421875 0-8-3.574219-8-8v-103.984375c0-4.421875 3.578125-8 8-8h23.96875c4.421875 0 8 3.578125 8 8v103.984375c0 4.425781-3.578125 8-8 8zm-15.96875-16h7.96875v-87.984375h-7.96875zm0 0"/><path d="m16.175781 312.03125h-8c-4.421875 0-8-3.574219-8-8 0-4.421875 3.578125-8 8-8h8c4.425781 0 8 3.578125 8 8 0 4.425781-3.582031 8-8 8zm0 0"/><path d="m48.175781 208.046875h-40c-4.421875 0-8-3.574219-8-8v-24c0-4.421875 3.578125-8 8-8h40c4.425781 0 8 3.578125 8 8v24c0 4.425781-3.582031 8-8 8zm-32-16h24v-8h-24zm0 0"/><path d="m288.128906 312.03125h-23.96875c-4.425781 0-8-3.574219-8-8v-103.984375c0-4.421875 3.574219-8 8-8h23.96875c4.421875 0 8 3.578125 8 8v103.984375c0 4.425781-3.578125 8-8 8zm-15.96875-16h7.96875v-87.984375h-7.96875zm0 0"/><path d="m296.128906 312.03125h-8c-4.425781 0-8-3.574219-8-8 0-4.421875 3.574219-8 8-8h8c4.421875 0 8 3.578125 8 8 0 4.425781-3.578125 8-8 8zm0 0"/><path d="m296.128906 208.046875h-40c-4.425781 0-8-3.574219-8-8v-24c0-4.421875 3.574219-8 8-8h40c4.421875 0 8 3.578125 8 8v24c0 4.425781-3.578125 8-8 8zm-32-16h24v-8h-24zm0 0"/><path d="m40.144531 184.046875c-4.425781 0-8-3.574219-8-8v-152.046875c0-4.425781 3.574219-8 8-8 4.421875 0 8 3.574219 8 8v152.046875c0 4.425781-3.578125 8-8 8zm0 0"/><path d="m264.175781 184.046875c-4.421875 0-8-3.574219-8-8v-152.046875c0-4.425781 3.578125-8 8-8 4.425781 0 8 3.574219 8 8v152.046875c0 4.425781-3.582031 8-8 8zm0 0"/><path d="m248.160156 16.015625h-191.984375c-4.421875 0-8-3.574219-8-8 0-4.421875 3.578125-8 8-8h191.984375c4.425782 0 8 3.578125 8 8 0 4.425781-3.585937 8-8 8zm0 0"/><path d="m224.144531 56.03125c-4.425781 0-8-3.582031-8-8.007812l.03125-40.015626c0-4.414062 3.585938-7.992187 8-7.992187h.007813c4.417968 0 7.992187 3.585937 7.992187 8.007813l-.03125 40.015624c0 4.417969-3.585937 7.992188-8 7.992188zm0 0"/><path d="m96.191406 72.03125c-6.429687 0-12.464844-2.503906-17-7.046875-4.519531-4.527344-7.007812-10.558594-7-16.96875.007813-4.414063 3.585938-7.984375 8-7.984375h.015625c4.417969.007812 7.992188 3.59375 7.984375 8.015625 0 2.128906.824219 4.128906 2.328125 5.632813 1.503907 1.511718 3.519531 2.351562 5.671875 2.351562 4.425782 0 8 3.578125 8 8 0 4.425781-3.582031 8-8 8zm0 0"/><path d="m264.160156 32c-4.625.222656-8.007812-3.585938-8-8.015625 0-2.128906-.824218-4.128906-2.328125-5.632813-1.511719-1.519531-3.527343-2.351562-5.671875-2.351562-4.425781 0-8-3.574219-8-8s3.574219-8 8-8c6.433594 0 12.464844 2.503906 17 7.046875 4.519532 4.527344 7.007813 10.5625 7 16.96875-.007812 4.417969-3.59375 7.984375-8 7.984375zm0 0"/><path d="m40.144531 32c-4.425781 0-8-3.574219-8-8 0-13.230469 10.777344-24 24.015625-24 4.425782 0 8 3.574219 8 8s-3.574218 8-8 8c-4.425781 0-8.015625 3.585938-8.015625 8 0 4.425781-3.578125 8-8 8zm0 0"/><path d="m80.191406 56.03125c-4.414062 0-7.992187-3.574219-8-7.992188l-.046875-40.015624c-.007812-4.414063 3.566407-8.0000005 7.992188-8.007813h.007812c4.414063 0 7.992188 3.578125 8 7.992187l.046875 40.015626c.007813 4.417968-3.574218 8-8 8.007812zm0 0"/><path d="m208.128906 72.03125h-111.9375c-4.421875 0-8-3.574219-8-8 0-4.421875 3.578125-8 8-8h111.9375c4.421875 0 8 3.578125 8 8 0 4.425781-3.578125 8-8 8zm0 0"/><path d="m208.128906 136.097656h-111.9375c-4.421875 0-8-3.578125-8-8 0-4.425781 3.578125-8 8-8h111.9375c4.421875 0 8 3.574219 8 8 0 4.421875-3.578125 8-8 8zm0 0"/><path d="m208.128906 184.144531h-111.9375c-4.421875 0-8-3.578125-8-8 0-4.425781 3.578125-8 8-8h111.9375c4.421875 0 8 3.574219 8 8 0 4.421875-3.578125 8-8 8zm0 0"/><path d="m208.128906 232.183594h-111.9375c-4.421875 0-8-3.574219-8-8 0-4.421875 3.578125-8 8-8h111.9375c4.421875 0 8 3.578125 8 8 0 4.425781-3.578125 8-8 8zm0 0"/></svg>