<svg height="512pt" viewBox="-40 0 512 512" width="512pt" xmlns="http://www.w3.org/2000/svg"><path d="m160 101.441406v-53.441406l24 8 32-24 32 24 24-8v53.527344c-15.441406 6.632812-29.761719 18.472656-56 18.472656-26.230469 0-40.550781-11.839844-56-18.480469zm0 0" fill="#ffce54"/><path d="m248 56v57.265625c8.816406-3.792969 16.265625-8.425781 24-11.746094v-53.519531zm0 0" fill="#f6bb42"/><path d="m120 104c22.089844 0 40 17.921875 40 40s-17.910156 40-40 40c-13.039062 0-24.71875-6.320312-32-16-5.039062-6.640625-8-14.960938-8-24 0-19.359375 13.769531-35.519531 32-39.199219 2.558594-.5625 5.28125-.800781 8-.800781zm0 0" fill="#fc6e51"/><path d="m352 144c0 9.039062-2.953125 17.359375-8 24-7.273438 9.679688-18.953125 16-32 16-22.078125 0-40-17.921875-40-40s17.921875-40 40-40c2.726562 0 5.449219.238281 8 .800781 18.238281 3.679688 32 19.839844 32 39.199219zm0 0" fill="#fc6e51"/><path d="m320 104.800781c-2.550781-.554687-5.273438-.800781-8-.800781-4.167969 0-8.121094.824219-11.894531 2.007812 16.125 5.128907 27.894531 20.136719 27.894531 37.992188 0 9.039062-2.953125 17.359375-8 24-4.894531 6.519531-11.832031 11.464844-19.800781 14.023438 3.753906 1.160156 7.664062 1.976562 11.800781 1.976562 13.046875 0 24.726562-6.320312 32-16 5.046875-6.640625 8-14.960938 8-24 0-19.359375-13.761719-35.519531-32-39.199219zm0 0" fill="#e9573f"/><path d="m128.160156 104.800781c-2.550781-.554687-5.273437-.800781-8-.800781-4.167968 0-8.121094.824219-11.894531 2.007812 16.132813 5.128907 27.894531 20.136719 27.894531 37.992188 0 9.039062-2.953125 17.359375-8 24-4.894531 6.519531-11.832031 11.464844-19.800781 14.023438 3.753906 1.160156 7.664063 1.976562 11.800781 1.976562 13.046875 0 24.726563-6.320312 32-16 5.046875-6.640625 8-14.960938 8-24 0-19.359375-13.761718-35.519531-32-39.199219zm0 0" fill="#e9573f"/><g fill="#a0d468"><path d="m160 101.519531c15.449219 6.640625 29.769531 18.480469 56 18.480469 26.238281 0 40.558594-11.839844 56-18.480469 12.726562-5.597656 26.238281-7.679687 48 3.273438-2.550781-.554688-5.273438-.800781-8-.800781-22.078125 0-40 17.917968-40 40 0 22.078124 17.921875 40 40 40 13.046875 0 24.726562-6.320313 32-16 0 0 24 8 24 32 0 12.71875-18 36.640624-48 56.320312-26.550781 17.527344-62.640625 31.6875-104 31.6875s-77.441406-14.160156-104-31.679688c-30-19.679687-48-43.601562-48-56.320312 0-24 24-32 24-32 7.28125 9.679688 18.960938 16 32 16 22.089844 0 40-17.921875 40-40s-17.910156-40-40-40c-2.71875 0-5.441406.238281-8 .800781 21.769531-10.960937 35.28125-8.878906 48-3.28125zm0 0"/><path d="m32 492c0 1.441406-.230469 2.71875-.71875 4-1.601562 4.640625-6.082031 8-11.28125 8-6.640625 0-12-5.359375-12-12s5.359375-12 12-12c1.449219 0 2.726562.238281 4 .71875 4.640625 1.601562 8 6.082031 8 11.28125zm0 0"/><path d="m103.28125 496c-1.601562 4.640625-6.082031 8-11.28125 8-5.191406 0-9.679688-3.359375-11.273438-8-.488281-1.28125-.726562-2.558594-.726562-4 0-6.640625 5.359375-12 12-12 1.449219 0 2.726562.238281 4 .71875 4.640625 1.601562 8 6.082031 8 11.28125 0 1.441406-.230469 2.71875-.71875 4zm0 0"/><path d="m151.28125 496c-1.601562 4.640625-6.082031 8-11.28125 8-5.191406 0-9.679688-3.359375-11.273438-8-.488281-1.28125-.726562-2.558594-.726562-4 0-6.640625 5.359375-12 12-12s12 5.359375 12 12c0 1.441406-.230469 2.71875-.71875 4zm0 0"/><path d="m199.28125 496c-1.601562 4.640625-6.082031 8-11.28125 8-5.191406 0-9.679688-3.359375-11.273438-8-.488281-1.28125-.726562-2.558594-.726562-4 0-5.199219 3.359375-9.679688 8-11.28125 1.28125-.480469 2.558594-.71875 4-.71875 6.640625 0 12 5.359375 12 12 0 1.441406-.230469 2.71875-.71875 4zm0 0"/><path d="m255.28125 496c-1.601562 4.640625-6.082031 8-11.28125 8-5.191406 0-9.679688-3.359375-11.273438-8-.488281-1.28125-.726562-2.558594-.726562-4 0-6.640625 5.359375-12 12-12 1.449219 0 2.726562.238281 4 .71875 4.640625 1.601562 8 6.082031 8 11.28125 0 1.441406-.230469 2.71875-.71875 4zm0 0"/><path d="m303.28125 496c-1.601562 4.640625-6.082031 8-11.28125 8-5.191406 0-9.679688-3.359375-11.273438-8-.488281-1.28125-.726562-2.558594-.726562-4 0-6.640625 5.359375-12 12-12s12 5.359375 12 12c0 1.441406-.230469 2.71875-.71875 4zm0 0"/><path d="m412 480c6.640625 0 12 5.359375 12 12s-5.359375 12-12 12c-5.191406 0-9.679688-3.359375-11.273438-8-.488281-1.28125-.726562-2.558594-.726562-4 0-5.199219 3.359375-9.679688 8-11.28125 1.28125-.480469 2.558594-.71875 4-.71875zm0 0"/><path d="m351.28125 496c-1.601562 4.640625-6.082031 8-11.28125 8-5.191406 0-9.679688-3.359375-11.273438-8-.488281-1.28125-.726562-2.558594-.726562-4 0-5.199219 3.359375-9.679688 8-11.28125 1.28125-.480469 2.558594-.71875 4-.71875 6.640625 0 12 5.359375 12 12 0 1.441406-.230469 2.71875-.71875 4zm0 0"/></g><path d="m360.320312 459.679688 47.679688 21.039062c-4.640625 1.601562-8 6.082031-8 11.28125 0 1.441406.238281 2.71875.726562 4h-49.445312c.488281-1.28125.71875-2.558594.71875-4 0-6.640625-5.359375-12-12-12-1.441406 0-2.71875.238281-4 .71875l-16-11.917969v-140.800781s72-40 96-8c23.128906 30.878906-50.480469 132.480469-55.679688 139.679688zm0 0" fill="#80b23f"/><path d="m184 480.71875-16-11.917969v-84.800781c0-26.480469 21.519531-48 48-48 26.488281 0 48 21.519531 48 48v84.800781l-16 11.917969c-1.273438-.480469-2.550781-.71875-4-.71875-6.640625 0-12 5.359375-12 12 0 1.441406.238281 2.71875.726562 4h-33.445312c.488281-1.28125.71875-2.558594.71875-4 0-6.640625-5.359375-12-12-12-1.441406 0-2.71875.238281-4 .71875zm0 0" fill="#80b23f"/><path d="m112 424v44.800781l-16 11.917969c-1.273438-.480469-2.550781-.71875-4-.71875-6.640625 0-12 5.359375-12 12 0 1.441406.238281 2.71875.726562 4h-49.445312c.488281-1.28125.71875-2.558594.71875-4 0-5.199219-3.359375-9.679688-8-11.28125l47.679688-21.039062c-5.191407-7.199219-78.800782-108.800782-55.679688-139.679688 24-32 96 8 96 8zm0 0" fill="#80b23f"/><path d="m168 468.800781 16 11.917969c-4.640625 1.601562-8 6.082031-8 11.28125 0 1.441406.238281 2.71875.726562 4h-25.445312c.488281-1.28125.71875-2.558594.71875-4 0-6.640625-5.359375-12-12-12s-12 5.359375-12 12c0 1.441406.238281 2.71875.726562 4h-25.445312c.488281-1.28125.71875-2.558594.71875-4 0-5.199219-3.359375-9.679688-8-11.28125l16-11.917969v-212.480469c26.558594 17.519532 62.640625 31.679688 104 31.679688s77.449219-14.160156 104-31.679688v212.480469l16 11.917969c-4.640625 1.601562-8 6.082031-8 11.28125 0 1.441406.238281 2.71875.726562 4h-25.445312c.488281-1.28125.71875-2.558594.71875-4 0-6.640625-5.359375-12-12-12s-12 5.359375-12 12c0 1.441406.238281 2.71875.726562 4h-25.445312c.488281-1.28125.71875-2.558594.71875-4 0-5.199219-3.359375-9.679688-8-11.28125l16-11.917969v-84.800781c0-26.480469-21.511719-48-48-48-26.480469 0-48 21.519531-48 48zm0 0" fill="#8cc152"/><path d="m232.238281 192c-4.421875 0-8.039062-3.574219-8.039062-8s3.535156-8 7.953125-8h.085937c4.417969 0 8 3.574219 8 8s-3.582031 8-8 8zm0 0"/><path d="m216.238281 16c-4.421875 0-8.039062-3.574219-8.039062-8s3.535156-8 7.953125-8h.085937c4.417969 0 8 3.574219 8 8s-3.582031 8-8 8zm0 0"/><path d="m272.238281 32c-4.421875 0-8.039062-3.574219-8.039062-8s3.535156-8 7.953125-8h.085937c4.417969 0 8 3.574219 8 8s-3.582031 8-8 8zm0 0"/><path d="m160.238281 32c-4.421875 0-8.039062-3.574219-8.039062-8s3.535156-8 7.953125-8h.085937c4.417969 0 8 3.574219 8 8s-3.582031 8-8 8zm0 0"/><path d="m200.238281 192c-4.421875 0-8.039062-3.574219-8.039062-8s3.535156-8 7.953125-8h.085937c4.417969 0 8 3.574219 8 8s-3.582031 8-8 8zm0 0"/><path d="m120.007812 192c-26.472656 0-48.007812-21.527344-48.007812-48s21.535156-48 48.007812-48c26.464844 0 47.992188 21.527344 47.992188 48s-21.527344 48-47.992188 48zm0-80c-17.648437 0-32.007812 14.351562-32.007812 32s14.359375 32 32.007812 32c17.640626 0 31.992188-14.351562 31.992188-32s-14.351562-32-31.992188-32zm0 0"/><path d="m216 128c-21.960938 0-36.144531-7.433594-48.648438-13.976562-15.902343-8.34375-27.382812-14.359376-51.75-2.078126-3.953124 1.992188-8.761718.40625-10.746093-3.539062-1.992188-3.933594-.40625-8.75 3.535156-10.742188 31.6875-16 49.328125-6.753906 66.378906 2.175782 11.414063 5.984375 23.207031 12.160156 41.230469 12.160156 4.425781 0 8 3.574219 8 8s-3.574219 8-8 8zm0 0"/><path d="m216 296c-4.425781 0-8-3.574219-8-8s3.574219-8 8-8c84.246094 0 144-60.664062 144-80 0-18.023438-18.359375-24.351562-18.542969-24.40625-4.183593-1.402344-6.457031-5.929688-5.066406-10.128906 1.402344-4.183594 5.890625-6.433594 10.128906-5.066406 1.199219.417968 29.480469 10.167968 29.480469 39.601562 0 28.632812-67.558594 96-160 96zm0 0"/><path d="m216 296c-92.441406 0-160-67.367188-160-96 0-29.433594 28.28125-39.183594 29.488281-39.59375 4.230469-1.367188 8.726563.875 10.128907 5.066406 1.390624 4.191406-.875 8.726563-5.066407 10.128906-.71875.230469-18.550781 6.605469-18.550781 24.398438 0 19.335938 59.753906 80 144 80 4.425781 0 8 3.574219 8 8s-3.574219 8-8 8zm0 0"/><path d="m311.992188 192c-26.464844 0-47.992188-21.527344-47.992188-48s21.527344-48 47.992188-48c26.472656 0 48.007812 21.527344 48.007812 48s-21.535156 48-48.007812 48zm0-80c-17.640626 0-31.992188 14.351562-31.992188 32s14.351562 32 31.992188 32c17.648437 0 32.007812-14.351562 32.007812-32s-14.359375-32-32.007812-32zm0 0"/><path d="m216 128c-4.425781 0-8-3.574219-8-8s3.574219-8 8-8c18.023438 0 29.816406-6.175781 41.222656-12.160156 17.050782-8.9375 34.707032-18.183594 66.378906-2.175782 3.941407 1.992188 5.527344 6.808594 3.535157 10.742188-1.984375 3.945312-6.785157 5.546875-10.746094 3.539062-24.335937-12.289062-35.832031-6.265624-51.75 2.078126-12.496094 6.542968-26.679687 13.976562-48.640625 13.976562zm0 0"/><path d="m244 512c-11.03125 0-20-8.96875-20-20s8.96875-20 20-20 20 8.96875 20 20-8.96875 20-20 20zm0-24c-2.199219 0-4 1.800781-4 4s1.800781 4 4 4 4-1.800781 4-4-1.800781-4-4-4zm0 0"/><path d="m292 512c-11.03125 0-20-8.96875-20-20s8.96875-20 20-20 20 8.96875 20 20-8.96875 20-20 20zm0-24c-2.199219 0-4 1.800781-4 4s1.800781 4 4 4 4-1.800781 4-4-1.800781-4-4-4zm0 0"/><path d="m340 512c-11.03125 0-20-8.96875-20-20s8.96875-20 20-20 20 8.96875 20 20-8.96875 20-20 20zm0-24c-2.199219 0-4 1.800781-4 4s1.800781 4 4 4 4-1.800781 4-4-1.800781-4-4-4zm0 0"/><path d="m335.992188 488.703125c-1.65625 0-3.328126-.511719-4.769532-1.574219l-31.976562-23.769531c-3.542969-2.632813-4.277344-7.648437-1.644532-11.191406 2.628907-3.527344 7.644532-4.28125 11.191407-1.648438l31.976562 23.769531c3.542969 2.632813 4.277344 7.648438 1.644531 11.191407-1.566406 2.105469-3.972656 3.222656-6.421874 3.222656zm0 0"/><path d="m248.03125 488.703125c-2.445312 0-4.855469-1.117187-6.429688-3.222656-2.632812-3.542969-1.898437-8.550781 1.644532-11.191407l31.976562-23.785156c3.53125-2.632812 8.554688-1.894531 11.191406 1.648438 2.632813 3.542968 1.898438 8.550781-1.644531 11.191406l-31.96875 23.785156c-1.433593 1.054688-3.113281 1.574219-4.769531 1.574219zm0 0"/><path d="m328.710938 504h-25.429688c-4.425781 0-8-3.574219-8-8s3.574219-8 8-8h25.429688c4.425781 0 8 3.574219 8 8s-3.574219 8-8 8zm0 0"/><path d="m280.710938 504h-25.429688c-4.425781 0-8-3.574219-8-8s3.574219-8 8-8h25.429688c4.425781 0 8 3.574219 8 8s-3.574219 8-8 8zm0 0"/><path d="m264 392c-4.425781 0-8-3.574219-8-8 0-22.054688-17.945312-40-40-40s-40 17.945312-40 40c0 4.425781-3.574219 8-8 8s-8-3.574219-8-8c0-30.871094 25.128906-56 56-56s56 25.128906 56 56c0 4.425781-3.574219 8-8 8zm0 0"/><path d="m168 476.816406c-4.425781 0-8-3.578125-8-8v-84.816406c0-4.425781 3.574219-8 8-8s8 3.574219 8 8v84.816406c0 4.414063-3.574219 8-8 8zm0 0"/><path d="m264 476.816406c-4.425781 0-8-3.578125-8-8v-84.816406c0-4.425781 3.574219-8 8-8s8 3.574219 8 8v84.816406c0 4.414063-3.574219 8-8 8zm0 0"/><path d="m320 476.816406c-4.425781 0-8-3.578125-8-8v-212.425781c0-4.421875 3.574219-8 8-8s8 3.578125 8 8v212.425781c0 4.414063-3.574219 8-8 8zm0 0"/><path d="m188 512c-11.03125 0-20-8.96875-20-20s8.96875-20 20-20 20 8.96875 20 20-8.96875 20-20 20zm0-24c-2.199219 0-4 1.800781-4 4s1.800781 4 4 4 4-1.800781 4-4-1.800781-4-4-4zm0 0"/><path d="m140 512c-11.03125 0-20-8.96875-20-20s8.96875-20 20-20 20 8.96875 20 20-8.96875 20-20 20zm0-24c-2.199219 0-4 1.800781-4 4s1.800781 4 4 4 4-1.800781 4-4-1.800781-4-4-4zm0 0"/><path d="m92 512c-11.03125 0-20-8.96875-20-20s8.96875-20 20-20 20 8.96875 20 20-8.96875 20-20 20zm0-24c-2.199219 0-4 1.800781-4 4s1.800781 4 4 4 4-1.800781 4-4-1.800781-4-4-4zm0 0"/><path d="m96.007812 488.703125c-2.449218 0-4.855468-1.117187-6.433593-3.222656-2.628907-3.542969-1.894531-8.558594 1.648437-11.191407l31.976563-23.769531c3.554687-2.640625 8.5625-1.886719 11.191406 1.648438 2.632813 3.542969 1.898437 8.558593-1.648437 11.191406l-31.972657 23.769531c-1.433593 1.054688-3.105469 1.574219-4.761719 1.574219zm0 0"/><path d="m183.96875 488.703125c-1.65625 0-3.335938-.511719-4.769531-1.574219l-31.976563-23.785156c-3.542968-2.640625-4.277344-7.648438-1.648437-11.191406 2.640625-3.535156 7.65625-4.273438 11.195312-1.648438l31.972657 23.785156c3.546874 2.640626 4.28125 7.648438 1.648437 11.191407-1.558594 2.105469-3.976563 3.222656-6.421875 3.222656zm0 0"/><path d="m128.71875 504h-25.429688c-4.425781 0-8-3.574219-8-8s3.574219-8 8-8h25.429688c4.425781 0 8 3.574219 8 8s-3.574219 8-8 8zm0 0"/><path d="m176.71875 504h-25.429688c-4.425781 0-8-3.574219-8-8s3.574219-8 8-8h25.429688c4.425781 0 8 3.574219 8 8s-3.574219 8-8 8zm0 0"/><path d="m112 476.816406c-4.425781 0-8-3.578125-8-8v-212.65625c0-4.425781 3.574219-8 8-8s8 3.574219 8 8v212.65625c0 4.414063-3.574219 8-8 8zm0 0"/><path d="m232.726562 504h-33.429687c-4.425781 0-8-3.574219-8-8s3.574219-8 8-8h33.429687c4.425782 0 8 3.574219 8 8s-3.574218 8-8 8zm0 0"/><path d="m412 512c-11.03125 0-20-8.96875-20-20s8.96875-20 20-20 20 8.96875 20 20-8.96875 20-20 20zm0-24c-2.199219 0-4 1.800781-4 4s1.800781 4 4 4 4-1.800781 4-4-1.800781-4-4-4zm0 0"/><path d="m359.992188 468.121094c-1.648438 0-3.320313-.503906-4.753907-1.570313-3.550781-2.621093-4.292969-7.628906-1.671875-11.183593 31.746094-42.917969 70.121094-111.808594 56.042969-130.558594-16.226563-21.632813-67.378906.039062-85.714844 10.191406-3.847656 2.160156-8.734375.753906-10.871093-3.113281-2.136719-3.863281-.757813-8.726563 3.113281-10.871094 3.183593-1.777344 78.40625-42.9375 106.269531-5.824219 26.257812 34.992188-42.023438 130.832032-55.972656 149.6875-1.578125 2.121094-3.984375 3.242188-6.441406 3.242188zm0 0"/><path d="m407.992188 488.710938c-1.082032 0-2.167969-.214844-3.214844-.679688l-56-24.710938c-4.050782-1.785156-5.875-6.503906-4.097656-10.542968 1.777343-4.042969 6.519531-5.855469 10.542968-4.097656l56 24.710937c4.050782 1.785156 5.875 6.503906 4.097656 10.546875-1.320312 2.992188-4.25 4.773438-7.328124 4.773438zm0 0"/><path d="m400.703125 504h-49.421875c-4.425781 0-8-3.574219-8-8s3.574219-8 8-8h49.421875c4.425781 0 8 3.574219 8 8s-3.574219 8-8 8zm0 0"/><path d="m320.007812 432c-1.609374 0-3.230468-.488281-4.640624-1.496094-3.589844-2.558594-4.429688-7.558594-1.855469-11.160156l39.984375-56c2.558594-3.589844 7.566406-4.433594 11.160156-1.855469 3.589844 2.558594 4.433594 7.558594 1.855469 11.160157l-39.984375 56c-1.558594 2.183593-4.023438 3.351562-6.519532 3.351562zm0 0"/><path d="m20 512c-11.03125 0-20-8.96875-20-20s8.96875-20 20-20 20 8.96875 20 20-8.96875 20-20 20zm0-24c-2.199219 0-4 1.800781-4 4s1.800781 4 4 4 4-1.800781 4-4-1.800781-4-4-4zm0 0"/><path d="m72.007812 468.121094c-2.457031 0-4.863281-1.121094-6.441406-3.242188-13.949218-18.855468-82.230468-114.695312-55.972656-149.6875 27.847656-37.136718 103.085938 4.046875 106.269531 5.824219 3.863281 2.152344 5.25 7.015625 3.113281 10.871094-2.136718 3.855469-7.023437 5.265625-10.871093 3.113281-18.328125-10.160156-69.488281-31.832031-85.714844-10.191406-14.09375 18.777344 24.289063 87.648437 56.042969 130.558594 2.628906 3.554687 1.878906 8.5625-1.671875 11.183593-1.433594 1.058594-3.105469 1.570313-4.753907 1.570313zm0 0"/><path d="m24.007812 488.710938c-3.078124 0-6.007812-1.78125-7.328124-4.773438-1.785157-4.042969.046874-8.769531 4.097656-10.546875l56-24.710937c4.046875-1.769532 8.773437.054687 10.542968 4.097656 1.785157 4.039062-.046874 8.765625-4.097656 10.542968l-56 24.710938c-1.046875.464844-2.132812.679688-3.214844.679688zm0 0"/><path d="m80.71875 504h-49.421875c-4.425781 0-8-3.574219-8-8s3.574219-8 8-8h49.421875c4.425781 0 8 3.574219 8 8s-3.574219 8-8 8zm0 0"/><path d="m111.992188 432c-2.503907 0-4.960938-1.167969-6.511719-3.351562l-39.984375-56c-2.566406-3.59375-1.734375-8.59375 1.855468-11.160157 3.59375-2.578125 8.601563-1.734375 11.160157 1.855469l39.984375 56c2.566406 3.59375 1.734375 8.59375-1.855469 11.160156-1.417969 1.007813-3.039063 1.496094-4.648437 1.496094zm0 0"/><path d="m128 152h-16c-4.425781 0-8-3.574219-8-8s3.574219-8 8-8h16c4.425781 0 8 3.574219 8 8s-3.574219 8-8 8zm0 0"/><path d="m320 152h-16c-4.425781 0-8-3.574219-8-8s3.574219-8 8-8h16c4.425781 0 8 3.574219 8 8s-3.574219 8-8 8zm0 0"/><path d="m216 256c-50.097656 0-83.40625-24.550781-84.800781-25.601562-3.535157-2.644532-4.253907-7.664063-1.597657-11.191407 2.644532-3.535156 7.644532-4.253906 11.183594-1.613281.304688.222656 30.679688 22.40625 75.214844 22.40625s74.910156-22.183594 75.207031-22.414062c3.546875-2.640626 8.5625-1.890626 11.191407 1.628906 2.632812 3.539062 1.921874 8.527344-1.605469 11.175781-1.386719 1.058594-34.695313 25.609375-84.792969 25.609375zm0 0"/><path d="m272 109.472656c-4.425781 0-8-3.578125-8-8v-53.472656c0-4.425781 3.574219-8 8-8s8 3.574219 8 8v53.472656c0 4.414063-3.574219 8-8 8zm0 0"/><path d="m248 64c-3.351562 0-6.472656-2.121094-7.585938-5.472656-1.398437-4.191406.867188-8.726563 5.058594-10.121094l24-8c4.222656-1.40625 8.71875.867188 10.121094 5.058594 1.398438 4.191406-.867188 8.726562-5.058594 10.121094l-24 8c-.847656.277343-1.703125.414062-2.535156.414062zm0 0"/><path d="m160 109.472656c-4.425781 0-8-3.578125-8-8v-53.472656c0-4.425781 3.574219-8 8-8s8 3.574219 8 8v53.472656c0 4.414063-3.574219 8-8 8zm0 0"/><path d="m184 64c-.832031 0-1.6875-.136719-2.527344-.414062l-24-8c-4.183594-1.394532-6.457031-5.921876-5.058594-10.121094 1.402344-4.183594 5.890626-6.464844 10.121094-5.058594l24 8c4.183594 1.394531 6.457032 5.921875 5.058594 10.121094-1.121094 3.351562-4.242188 5.472656-7.59375 5.472656zm0 0"/><path d="m247.992188 64c-1.671876 0-3.351563-.519531-4.792969-1.601562l-32-24c-3.535157-2.644532-4.253907-7.664063-1.597657-11.191407 2.644532-3.535156 7.671876-4.246093 11.191407-1.597656l32 24c3.535156 2.648437 4.253906 7.664063 1.597656 11.191406-1.558594 2.09375-3.957031 3.199219-6.398437 3.199219zm0 0"/><path d="m184.007812 64c-2.441406 0-4.832031-1.105469-6.40625-3.199219-2.65625-3.527343-1.9375-8.542969 1.597657-11.191406l32-24c3.519531-2.65625 8.542969-1.945313 11.191406 1.597656 2.65625 3.527344 1.9375 8.546875-1.597656 11.191407l-32 24c-1.433594 1.082031-3.113281 1.601562-4.785157 1.601562zm0 0"/></svg>