<svg height="512pt" viewBox="-72 0 512 512.002" width="512pt" xmlns="http://www.w3.org/2000/svg"><path d="m255.984375 80.003906-72-72-72 72-48-24v112h240v-112zm0 0" fill="#ffce54"/><path d="m271.984375 72.003906v96h32v-112zm0 0" fill="#f6bb42"/><path d="m351.984375 450.640625v45.363281c0 4.476563-3.519531 8-8 8h-320c-4.398437 0-8-3.523437-8-8v-45.363281c8.640625 12.960937 23.359375 21.441406 40.082031 21.441406h103.917969c13.273437 0 24-10.71875 24-24 0 13.28125 10.71875 24 24 24h104c16.71875 0 31.441406-8.480469 40-21.441406zm0 0" fill="#ed5565"/><path d="m319.984375 471.339844v24.664062c0 4.476563-3.519531 8-8 8h32c4.480469 0 8-3.523437 8-8v-45.363281c-7.167969 10.839844-18.65625 18.464844-32 20.699219zm0 0" fill="#da4453"/><path d="m199.984375 88.003906v8l-8 16h-16l-8-16v-8l8-16h16zm0 0" fill="#ed5565"/><path d="m303.984375 168.003906v32c-13.28125 0-24 10.71875-24 24 0 39.757813-32.167969 72-72 72l-8-8h-32l-8 8c-39.757813 0-72-32.242187-72-72 0-13.28125-10.726563-24-24-24v-32zm0 0" fill="#eac6bb"/><path d="m303.984375 216.003906c0 46.078125-25.917969 86.078125-64.078125 106.15625-16.730469 8.882813-35.761719 13.84375-55.921875 13.84375-20.167969 0-39.191406-4.960937-55.917969-13.84375-38.082031-20.078125-64.082031-60.078125-64.082031-106.15625v-16c13.273437 0 24 10.71875 24 24 0 39.757813 32.242187 72 72 72l8-8h32l8 8c39.832031 0 72-32.242187 72-72 0-13.28125 10.71875-24 24-24zm0 0" fill="#965353"/><path d="m271.984375 168.003906v48c0 23.375-6.695313 45.167969-18.253906 63.613282 16.046875-13.207032 26.253906-33.214844 26.253906-55.613282 0-13.28125 10.71875-24 24-24v-32zm0 0" fill="#d3b1a9"/><path d="m279.984375 224.003906c0 22.398438-10.207031 42.40625-26.253906 55.613282-11.21875 17.90625-27.027344 32.648437-45.824219 42.535156-12.226562 6.496094-25.695312 10.859375-39.921875 12.761718 2.550781.335938 5.128906.601563 7.71875.792969.082031 0 .167969.015625.242187.015625 2.65625.183594 5.335938.28125 8.039063.28125 20.160156 0 39.191406-4.960937 55.921875-13.84375 38.160156-20.078125 64.078125-60.078125 64.078125-106.15625v-16c-13.28125 0-24 10.71875-24 24zm0 0" fill="#844747"/><path d="m239.984375 360.082031v8h-32c-13.199219 0-23.917969 10.726563-23.917969 23.921875h-.082031c-.078125-13.195312-10.726563-23.921875-24-23.921875h-32v-45.839843l.082031-.082032c16.726563 8.882813 35.75 13.84375 55.917969 13.84375 20.160156 0 39.191406-4.960937 55.921875-13.84375l.078125.082032zm0 0" fill="#eac6bb"/><path d="m239.984375 368.082031v-8h88c17.679687 0 32 14.320313 32 32v32c0 9.832031-2.960937 18.960938-8 26.558594-8.558594 12.960937-23.28125 21.441406-40 21.441406h-104c-13.28125 0-24-10.71875-24-24 0 13.28125-10.726563 24-24 24h-103.917969c-16.722656 0-31.441406-8.480469-40.082031-21.441406-5.039063-7.597656-8-16.726563-8-26.558594v-32c0-17.679687 14.320313-32 32-32h88v8h32c13.273437 0 23.921875 10.726563 24 23.921875h.082031c0-13.195312 10.71875-23.921875 23.917969-23.921875zm0 0" fill="#e6e9ed"/><path d="m327.984375 360.082031h-32c17.679687 0 32 14.320313 32 32v32c0 9.832031-2.960937 18.960938-8 26.558594-8.558594 12.960937-23.28125 21.441406-40 21.441406h32c16.71875 0 31.441406-8.480469 40-21.441406 5.039063-7.597656 8-16.726563 8-26.558594v-32c0-17.679687-14.320313-32-32-32zm0 0" fill="#ccd1d9"/><path d="m183.984375 344.019531c-70.574219 0-128-57.425781-128-128 0-4.417969 3.578125-8 8-8 4.425781 0 8 3.582031 8 8 0 61.757813 50.242187 112 112 112 61.761719 0 112-50.242187 112-112 0-4.417969 3.578125-8 8-8 4.425781 0 8 3.582031 8 8 0 70.574219-57.421875 128-128 128zm0 0"/><path d="m63.984375 224.011719c-4.421875 0-8-3.585938-8-8v-56.007813c0-4.417968 3.578125-8 8-8 4.425781 0 8 3.582032 8 8v56.015625c0 4.414063-3.574219 7.992188-8 7.992188zm0 0"/><path d="m303.984375 224.011719c-4.421875 0-8-3.585938-8-8v-56.007813c0-4.417968 3.578125-8 8-8 4.425781 0 8 3.582032 8 8v56.015625c0 4.414063-3.574219 7.992188-8 7.992188zm0 0"/><path d="m207.984375 303.953125c-2.046875 0-4.09375-.78125-5.65625-2.34375l-5.65625-5.65625h-25.375l-5.65625 5.65625c-3.128906 3.128906-8.183594 3.128906-11.3125 0s-3.128906-8.183594 0-11.3125l8-8c1.496094-1.496094 3.527344-2.34375 5.65625-2.34375h32c2.128906 0 4.160156.839844 5.65625 2.34375l8 8c3.128906 3.128906 3.128906 8.183594 0 11.3125-1.558594 1.5625-3.609375 2.34375-5.65625 2.34375zm0 0"/><path d="m159.984375 303.953125c-44.113281 0-80-35.886719-80-80 0-4.414063 3.578125-8 8-8 4.425781 0 8 3.585937 8 8 0 35.296875 28.710937 64 64 64 4.425781 0 8 3.578125 8 8 0 4.425781-3.574219 8-8 8zm0 0"/><path d="m87.984375 231.953125c-4.421875 0-8-3.582031-8-8 0-8.824219-7.175781-16-16-16-4.421875 0-8-3.582031-8-8 0-4.414063 3.578125-8 8-8 17.648437 0 32 14.351563 32 32 0 4.417969-3.574219 8-8 8zm0 0"/><path d="m207.984375 303.953125c-4.421875 0-8-3.574219-8-8 0-4.421875 3.578125-8 8-8 35.289063 0 64-28.710937 64-64 0-4.414063 3.578125-8 8-8 4.425781 0 8 3.585937 8 8 0 44.113281-35.886719 80-80 80zm0 0"/><path d="m279.984375 231.953125c-4.421875 0-8-3.582031-8-8 0-17.648437 14.351563-32 32-32 4.425781 0 8 3.585937 8 8 0 4.417969-3.574219 8-8 8-8.824219 0-16 7.175781-16 16 0 4.417969-3.574219 8-8 8zm0 0"/><path d="m303.984375 176.003906h-240c-4.421875 0-8-3.585937-8-8 0-4.417968 3.578125-8 8-8h240c4.425781 0 8 3.582032 8 8 0 4.414063-3.574219 8-8 8zm0 0"/><path d="m303.984375 152.003906h-240c-4.421875 0-8-3.585937-8-8 0-4.417968 3.578125-8 8-8h240c4.425781 0 8 3.582032 8 8 0 4.414063-3.574219 8-8 8zm0 0"/><path d="m303.984375 168.003906c-4.421875 0-8-3.585937-8-8v-104c0-4.417968 3.578125-8 8-8 4.425781 0 8 3.582032 8 8v104c0 4.414063-3.574219 8-8 8zm0 0"/><path d="m63.984375 168.003906c-4.421875 0-8-3.585937-8-8v-104c0-4.417968 3.578125-8 8-8 4.425781 0 8 3.582032 8 8v104c0 4.414063-3.574219 8-8 8zm0 0"/><path d="m111.976562 88.003906c-1.199218 0-2.421874-.273437-3.566406-.84375l-48-24c-3.953125-1.972656-5.554687-6.78125-3.578125-10.734375 1.984375-3.953125 6.785157-5.550781 10.738281-3.574219l48 24c3.949219 1.972657 5.550782 6.78125 3.574219 10.734376-1.40625 2.800781-4.230469 4.417968-7.167969 4.417968zm0 0"/><path d="m255.992188 88.003906c-2.933594 0-5.757813-1.617187-7.167969-4.425781-1.976563-3.953125-.375-8.761719 3.578125-10.734375l48-24c3.949218-1.976562 8.75-.378906 10.734375 3.574219 1.976562 3.953125.375 8.761719-3.574219 10.734375l-48 24c-1.144531.578125-2.371094.851562-3.570312.851562zm0 0"/><path d="m111.984375 88.003906c-2.046875 0-4.09375-.785156-5.65625-2.347656-3.128906-3.125-3.128906-8.183594 0-11.308594l72-72c3.128906-3.128906 8.183594-3.128906 11.3125 0 3.128906 3.125 3.128906 8.183594 0 11.308594l-72 72c-1.558594 1.5625-3.609375 2.347656-5.65625 2.347656zm0 0"/><path d="m255.984375 88.003906c-2.046875 0-4.09375-.785156-5.65625-2.347656l-72-72c-3.128906-3.125-3.128906-8.183594 0-11.308594 3.128906-3.128906 8.183594-3.128906 11.3125 0l72 72c3.128906 3.125 3.128906 8.183594 0 11.308594-1.558594 1.5625-3.609375 2.347656-5.65625 2.347656zm0 0"/><path d="m191.984375 120.003906h-16c-3.03125 0-5.800781-1.714844-7.160156-4.425781l-8-16c-.550781-1.105469-.839844-2.335937-.839844-3.574219v-8c0-1.242187.289063-2.472656.839844-3.578125l8-16c1.359375-2.710937 4.128906-4.421875 7.160156-4.421875h16c3.03125 0 5.800781 1.710938 7.160156 4.421875l8 16c.550781 1.105469.839844 2.335938.839844 3.578125v8c0 1.238282-.289063 2.46875-.839844 3.574219l-8 16c-1.359375 2.710937-4.128906 4.425781-7.160156 4.425781zm-11.054687-16h6.109374l4.945313-9.890625v-4.222656l-4.945313-9.886719h-6.109374l-4.945313 9.886719v4.222656zm0 0"/><path d="m304.226562 40.003906c-4.425781 0-8.042968-3.585937-8.042968-8 0-4.417968 3.539062-8 7.953125-8h.089843c4.414063 0 8 3.582032 8 8 0 4.414063-3.585937 8-8 8zm0 0"/><path d="m64.226562 40.003906c-4.425781 0-8.042968-3.585937-8.042968-8 0-4.417968 3.539062-8 7.953125-8h.089843c4.414063 0 8 3.582032 8 8 0 4.414063-3.585937 8-8 8zm0 0"/><path d="m15.984375 504.003906c-4.421875 0-8-3.585937-8-8l.015625-45.363281c0-4.421875 3.585938-8 8-8 4.425781 0 8 3.585937 8 8l-.015625 45.363281c0 4.421875-3.582031 8-8 8zm0 0"/><path d="m23.984375 512.003906c-8.824219 0-16-7.179687-16-16 0-4.425781 3.578125-8 8-8 4.425781 0 8 3.574219 8 8v.015625c4.425781 0 8 3.566407 8 7.992188 0 4.414062-3.574219 7.992187-8 7.992187zm0 0"/><path d="m343.984375 512.003906c-4.421875 0-8-3.578125-8-8 0-4.425781 3.578125-8 8-8h.015625c0-4.425781 3.570312-8 7.992188-8 4.417968 0 7.992187 3.574219 7.992187 8 0 8.820313-7.175781 16-16 16zm0 0"/><path d="m351.984375 504.003906c-4.421875 0-8-3.578125-8-8v-45.394531c0-4.421875 3.578125-8 8-8 4.425781 0 8 3.578125 8 8v45.394531c0 4.421875-3.574219 8-8 8zm0 0"/><path d="m343.984375 512.003906h-320c-4.421875 0-8-3.578125-8-8 0-4.425781 3.578125-8 8-8h320c4.425781 0 8 3.574219 8 8 0 4.421875-3.574219 8-8 8zm0 0"/><path d="m127.984375 376.113281c-4.421875 0-8-3.574219-8-8v-45.855469c0-4.421874 3.578125-8 8-8 4.425781 0 8 3.578126 8 8v45.855469c0 4.417969-3.574219 8-8 8zm0 0"/><path d="m159.984375 376.097656h-32c-4.421875 0-8-3.574218-8-8 0-4.421875 3.578125-8 8-8h32c4.425781 0 8 3.578125 8 8 0 4.425782-3.574219 8-8 8zm0 0"/><path d="m183.96875 400.082031c-4.421875 0-8-3.574219-8-8 0-8.816406-7.167969-15.984375-15.984375-15.984375-4.421875 0-8-3.574218-8-8 0-4.421875 3.578125-8 8-8 17.632813 0 31.984375 14.351563 31.984375 31.984375 0 4.425781-3.574219 8-8 8zm0 0"/><path d="m127.984375 368.097656h-88c-4.421875 0-8-3.574218-8-8 0-4.421875 3.578125-8 8-8h88c4.425781 0 8 3.578125 8 8 0 4.425782-3.574219 8-8 8zm0 0"/><path d="m8 400.082031c-4.421875 0-8-3.574219-8-8 0-22.054687 17.9375-39.992187 39.984375-39.992187 4.425781 0 8 3.574218 8 8 0 4.425781-3.574219 8-8 8-13.222656 0-23.984375 10.769531-23.984375 23.992187 0 4.425781-3.574219 8-8 8zm0 0"/><path d="m56.015625 480.097656c-30.886719 0-56.015625-25.128906-56.015625-56.015625 0-4.425781 3.578125-8 8-8 4.425781 0 8 3.574219 8 8 0 22.0625 17.953125 40.015625 40.015625 40.015625 4.425781 0 8 3.578125 8 8 0 4.425782-3.574219 8-8 8zm0 0"/><path d="m8 432.082031c-4.421875 0-8-3.574219-8-8v-32c0-4.425781 3.578125-8 8-8 4.425781 0 8 3.574219 8 8v32c0 4.425781-3.574219 8-8 8zm0 0"/><path d="m159.984375 480.097656h-103.96875c-4.421875 0-8-3.574218-8-8 0-4.421875 3.578125-8 8-8h103.96875c4.425781 0 8 3.578125 8 8 0 4.425782-3.574219 8-8 8zm0 0"/><path d="m159.984375 480.097656c-4.421875 0-8-3.574218-8-8 0-4.421875 3.578125-8 8-8 8.824219 0 16-7.175781 16-16 0-4.421875 3.578125-8 8-8 4.425781 0 8 3.578125 8 8 0 17.648438-14.351563 32-32 32zm0 0"/><path d="m239.984375 376.113281c-4.421875 0-8-3.574219-8-8v-45.855469c0-4.421874 3.578125-8 8-8 4.425781 0 8 3.578126 8 8v45.855469c0 4.417969-3.574219 8-8 8zm0 0"/><path d="m239.984375 376.097656h-32c-4.421875 0-8-3.574218-8-8 0-4.421875 3.578125-8 8-8h32c4.425781 0 8 3.578125 8 8 0 4.425782-3.574219 8-8 8zm0 0"/><path d="m184.082031 400.003906c-4.425781 0-8-3.578125-8-8 0-17.59375 14.3125-31.90625 31.902344-31.90625 4.425781 0 8 3.578125 8 8 0 4.425782-3.574219 8-8 8-8.773437 0-15.902344 7.136719-15.902344 15.90625 0 4.421875-3.585937 8-8 8zm0 0"/><path d="m327.984375 368.097656h-88c-4.421875 0-8-3.574218-8-8 0-4.421875 3.578125-8 8-8h88c4.425781 0 8 3.578125 8 8 0 4.425782-3.574219 8-8 8zm0 0"/><path d="m359.96875 400.082031c-4.421875 0-8-3.574219-8-8 0-13.222656-10.757812-23.992187-23.984375-23.992187-4.421875 0-8-3.574219-8-8 0-4.425782 3.578125-8 8-8 22.046875 0 39.984375 17.9375 39.984375 39.992187 0 4.425781-3.574219 8-8 8zm0 0"/><path d="m311.953125 480.097656c-4.425781 0-8-3.574218-8-8 0-4.421875 3.574219-8 8-8 22.0625 0 40.015625-17.953125 40.015625-40.015625 0-4.425781 3.578125-8 8-8 4.425781 0 8 3.574219 8 8 0 30.886719-25.128906 56.015625-56.015625 56.015625zm0 0"/><path d="m359.96875 432.082031c-4.421875 0-8-3.574219-8-8v-32c0-4.425781 3.578125-8 8-8 4.425781 0 8 3.574219 8 8v32c0 4.425781-3.574219 8-8 8zm0 0"/><path d="m311.953125 480.097656h-103.96875c-4.421875 0-8-3.574218-8-8 0-4.421875 3.578125-8 8-8h103.96875c4.425781 0 8 3.578125 8 8 0 4.425782-3.574219 8-8 8zm0 0"/><path d="m207.984375 480.097656c-17.648437 0-32-14.351562-32-32 0-4.421875 3.578125-8 8-8 4.425781 0 8 3.578125 8 8 0 8.824219 7.175781 16 16 16 4.425781 0 8 3.578125 8 8 0 4.425782-3.574219 8-8 8zm0 0"/><path d="m24.226562 456.003906c-4.425781 0-8.042968-3.578125-8.042968-8 0-4.425781 3.539062-8 7.953125-8h.089843c4.414063 0 8 3.574219 8 8 0 4.421875-3.585937 8-8 8zm0 0"/><path d="m24.226562 392.003906c-4.425781 0-8.042968-3.578125-8.042968-8 0-4.425781 3.539062-8 7.953125-8h.089843c4.414063 0 8 3.574219 8 8 0 4.421875-3.585937 8-8 8zm0 0"/><path d="m56.226562 424.003906c-4.425781 0-8.042968-3.578125-8.042968-8 0-4.425781 3.539062-8 7.953125-8h.089843c4.414063 0 8 3.574219 8 8 0 4.421875-3.585937 8-8 8zm0 0"/><path d="m88.226562 456.003906c-4.425781 0-8.042968-3.578125-8.042968-8 0-4.425781 3.539062-8 7.953125-8h.089843c4.414063 0 8 3.574219 8 8 0 4.421875-3.585937 8-8 8zm0 0"/><path d="m88.226562 392.003906c-4.425781 0-8.042968-3.578125-8.042968-8 0-4.425781 3.539062-8 7.953125-8h.089843c4.414063 0 8 3.574219 8 8 0 4.421875-3.585937 8-8 8zm0 0"/><path d="m120.226562 424.003906c-4.425781 0-8.042968-3.578125-8.042968-8 0-4.425781 3.539062-8 7.953125-8h.089843c4.414063 0 8 3.574219 8 8 0 4.421875-3.585937 8-8 8zm0 0"/><path d="m152.226562 456.003906c-4.425781 0-8.042968-3.578125-8.042968-8 0-4.425781 3.539062-8 7.953125-8h.089843c4.414063 0 8 3.574219 8 8 0 4.421875-3.585937 8-8 8zm0 0"/><path d="m152.226562 392.003906c-4.425781 0-8.042968-3.578125-8.042968-8 0-4.425781 3.539062-8 7.953125-8h.089843c4.414063 0 8 3.574219 8 8 0 4.421875-3.585937 8-8 8zm0 0"/><path d="m184.226562 424.003906c-4.425781 0-8.042968-3.578125-8.042968-8 0-4.425781 3.539062-8 7.953125-8h.089843c4.414063 0 8 3.574219 8 8 0 4.421875-3.585937 8-8 8zm0 0"/><path d="m216.226562 456.003906c-4.425781 0-8.042968-3.578125-8.042968-8 0-4.425781 3.539062-8 7.953125-8h.089843c4.414063 0 8 3.574219 8 8 0 4.421875-3.585937 8-8 8zm0 0"/><path d="m216.226562 392.003906c-4.425781 0-8.042968-3.578125-8.042968-8 0-4.425781 3.539062-8 7.953125-8h.089843c4.414063 0 8 3.574219 8 8 0 4.421875-3.585937 8-8 8zm0 0"/><path d="m248.226562 424.003906c-4.425781 0-8.042968-3.578125-8.042968-8 0-4.425781 3.539062-8 7.953125-8h.089843c4.414063 0 8 3.574219 8 8 0 4.421875-3.585937 8-8 8zm0 0"/><path d="m280.226562 456.003906c-4.425781 0-8.042968-3.578125-8.042968-8 0-4.425781 3.539062-8 7.953125-8h.089843c4.414063 0 8 3.574219 8 8 0 4.421875-3.585937 8-8 8zm0 0"/><path d="m280.226562 392.003906c-4.425781 0-8.042968-3.578125-8.042968-8 0-4.425781 3.539062-8 7.953125-8h.089843c4.414063 0 8 3.574219 8 8 0 4.421875-3.585937 8-8 8zm0 0"/><path d="m312.226562 424.003906c-4.425781 0-8.042968-3.578125-8.042968-8 0-4.425781 3.539062-8 7.953125-8h.089843c4.414063 0 8 3.574219 8 8 0 4.421875-3.585937 8-8 8zm0 0"/><path d="m344.226562 456.003906c-4.425781 0-8.042968-3.578125-8.042968-8 0-4.425781 3.539062-8 7.953125-8h.089843c4.414063 0 8 3.574219 8 8 0 4.421875-3.585937 8-8 8zm0 0"/><path d="m344.226562 392.003906c-4.425781 0-8.042968-3.578125-8.042968-8 0-4.425781 3.539062-8 7.953125-8h.089843c4.414063 0 8 3.574219 8 8 0 4.421875-3.585937 8-8 8zm0 0"/></svg>