<svg height="512pt" viewBox="0 0 512 512" width="512pt" xmlns="http://www.w3.org/2000/svg"><path d="m192 8 240 48c-53.039062 0-96 42.960938-96 96 0 79.601562 64.398438 144 144 144-159.199219 0-288-128.800781-288-288zm0 0" fill="#ac92ec"/><path d="m248 460.71875 32 43.28125h-136l32-43.679688c10.160156 2.398438 20.878906 3.679688 32 3.679688 14.558594 0 27.761719-1.199219 40-3.28125zm0 0" fill="#f6bb42"/><path d="m208 256c8.878906 0 16 7.121094 16 16 0 8.800781-7.121094 16-16 16-8.800781 0-16-7.199219-16-16 0-8.878906 7.199219-16 16-16zm0 0" fill="#ffce54"/><path d="m112.558594 344c19.679687-22.960938 55.042968-40 95.441406-40 38.078125 0 71.679688 18.160156 91.839844 39.601562l-.480469.398438h-186.558594c-.082031 0-.160156 0-.242187 0zm0 0" fill="#ffce54"/><path d="m60 400h38.640625c2.71875 8.398438 7.4375 16.480469 13.917969 24-18.488282 0-41.597656 0-52.558594 0-28.71875 0-52-23.28125-52-52s23.28125-52 52-52c27.839844 0 35.921875 24.078125 52.558594 24-5.839844 6.800781-10.238282 14.078125-13.125 21.601562-8.875-2.882812-15.679688-8.402343-21.121094-12.722656-7.433594-6-11.351562-8.878906-18.3125-8.878906-15.441406 0-28 12.558594-28 28s12.558594 28 28 28zm0 0" fill="#f6bb42"/><path d="m480 360v8c-105.441406 14.078125-142.960938 77.601562-232 92.71875-12.238281 2.082031-25.441406 3.28125-40 3.28125-11.121094 0-21.839844-1.28125-32-3.679688-26.71875-6.167968-49.199219-19.679687-63.441406-36.320312-6.488282-7.519531-11.199219-15.601562-13.917969-24-1.761719-5.28125-2.640625-10.640625-2.640625-16 0-6.160156 1.199219-12.398438 3.441406-18.398438 2.878906-7.523437 7.277344-14.808593 13.125-21.601562h.234375 186.558594l.488281-.398438c2.632813 2.71875 5.039063 5.511719 7.191406 8.398438 21.121094 20.960938 100.960938-8 148.960938-8zm0 0" fill="#ffce54"/><path d="m208 472c-4.425781 0-8-3.574219-8-8s3.574219-8 8-8c61.734375 0 99.457031-21.960938 139.382812-45.214844 34-19.800781 69.089844-40.234375 120.769532-49.074218l-14.527344-9.6875c-16.753906.34375-37.800781 4.121093-58.175781 7.785156-40 7.183594-77.777344 13.96875-94.035157-2.121094-3.132812-3.113281-3.167968-8.175781-.054687-11.320312 3.121094-3.136719 8.167969-3.160157 11.320313-.054688 10.335937 10.246094 47.3125 3.609375 79.9375-2.257812 22.046874-3.957032 44.855468-8.054688 63.382812-8.054688 1.574219 0 3.128906.472656 4.441406 1.34375l24 16c2.222656 1.488281 3.558594 3.984375 3.558594 6.65625v8c0 4.007812-2.96875 7.398438-6.945312 7.929688-54.511719 7.261718-90.664063 28.316406-125.621094 48.679687-41.847656 24.367187-81.378906 47.390625-147.433594 47.390625zm0 0"/><path d="m299.320312 352-186.527343-.015625c-4.425781 0-8-3.585937-8-8 0-4.425781 3.582031-8 8-8l186.527343.015625c4.421876 0 8 3.585938 8 8 0 4.425781-3.585937 8-8 8zm0 0"/><path d="m208 296c-13.230469 0-24-10.769531-24-24s10.769531-24 24-24 24 10.769531 24 24-10.769531 24-24 24zm0-32c-4.414062 0-8 3.585938-8 8s3.585938 8 8 8 8-3.585938 8-8-3.585938-8-8-8zm0 0"/><path d="m208 472c-63.921875 0-120-41.128906-120-88s56.078125-88 120-88c4.425781 0 8 3.574219 8 8s-3.574219 8-8 8c-59.519531 0-104 38.015625-104 72s44.480469 72 104 72c4.425781 0 8 3.574219 8 8s-3.574219 8-8 8zm0 0"/><path d="m307.054688 360.015625c-2.421876 0-4.824219-1.09375-6.390626-3.175781-16.863281-22.320313-52.054687-44.839844-92.664062-44.839844-4.425781 0-8-3.574219-8-8s3.574219-8 8-8c49.265625 0 87.585938 27.574219 105.433594 51.191406 2.664062 3.519532 1.964844 8.535156-1.5625 11.199219-1.4375 1.105469-3.136719 1.625-4.816406 1.625zm0 0"/><path d="m208 312c-4.425781 0-8-3.574219-8-8v-16c0-4.425781 3.574219-8 8-8s8 3.574219 8 8v16c0 4.425781-3.574219 8-8 8zm0 0"/><path d="m280.007812 512c-2.457031 0-4.863281-1.128906-6.441406-3.238281l-32-43.257813c-2.628906-3.550781-1.878906-8.558594 1.671875-11.183594 3.554688-2.640624 8.5625-1.855468 11.1875 1.671876l32 43.253906c2.628907 3.554687 1.878907 8.5625-1.671875 11.1875-1.425781 1.0625-3.097656 1.566406-4.746094 1.566406zm0 0"/><path d="m143.992188 512c-1.640626 0-3.296876-.503906-4.71875-1.542969-3.570313-2.617187-4.335938-7.617187-1.730469-11.175781l32-43.648438c2.617187-3.570312 7.625-4.34375 11.175781-1.730468 3.570312 2.617187 4.335938 7.617187 1.730469 11.175781l-32 43.648437c-1.570313 2.136719-3.992188 3.273438-6.457031 3.273438zm0 0"/><path d="m280 512h-136c-4.425781 0-8-3.574219-8-8s3.574219-8 8-8h136c4.425781 0 8 3.574219 8 8s-3.574219 8-8 8zm0 0"/><path d="m112.535156 432h-52.535156c-33.089844 0-60-26.910156-60-60s26.910156-60 60-60c18.542969 0 30.007812 9.304688 38.382812 16.097656 6.015626 4.878906 9.9375 7.886719 14.105469 7.886719.113281 0 .207031-.007813.304688 0 4.351562 0 7.917969 3.488281 8 7.847656.078125 4.425781-3.441407 8.070313-7.847657 8.152344-10.417968-.046875-17.578124-5.746094-24.640624-11.472656-7.9375-6.433594-15.433594-12.511719-28.304688-12.511719-24.257812 0-44 19.742188-44 44s19.742188 44 44 44h52.535156c4.425782 0 8 3.574219 8 8s-3.574218 8-8 8zm0 0"/><path d="m98.625 408h-38.625c-19.847656 0-36-16.152344-36-36s16.152344-36 36-36c10.089844 0 15.921875 4.679688 23.304688 10.609375 5.207031 4.183594 11.109374 8.925781 18.65625 11.40625 4.191406 1.382813 6.480468 5.90625 5.101562 10.105469-1.382812 4.191406-5.910156 6.480468-10.101562 5.101562-10.304688-3.390625-18.03125-9.597656-23.671876-14.132812-7.152343-5.746094-9.242187-7.089844-13.289062-7.089844-11.03125 0-20 8.96875-20 20s8.96875 20 20 20h38.625c4.421875 0 8 3.574219 8 8s-3.578125 8-8 8zm0 0"/><path d="m488 344c-4.425781 0-8-3.574219-8-8s3.574219-8 8-8c4.414062 0 8-3.585938 8-8 0-4.425781 3.574219-8 8-8s8 3.574219 8 8c0 13.230469-10.769531 24-24 24zm0 0"/><path d="m504 328c-4.425781 0-8-3.574219-8-8 0-8.824219-7.175781-16-16-16-4.425781 0-8-3.574219-8-8s3.574219-8 8-8c17.648438 0 32 14.351562 32 32 0 4.425781-3.574219 8-8 8zm0 0"/><path d="m480 304c-83.816406 0-152-68.183594-152-152 0-4.425781 3.574219-8 8-8s8 3.574219 8 8c0 74.992188 61.007812 136 136 136 4.425781 0 8 3.574219 8 8s-3.574219 8-8 8zm0 0"/><path d="m480 304c-163.214844 0-296-132.785156-296-296 0-4.425781 3.574219-8 8-8s8 3.574219 8 8c0 154.390625 125.609375 280 280 280 4.425781 0 8 3.574219 8 8s-3.574219 8-8 8zm0 0"/><path d="m336 160c-4.425781 0-8-3.574219-8-8 0-57.34375 46.65625-104 104-104 4.425781 0 8 3.574219 8 8s-3.574219 8-8 8c-48.519531 0-88 39.480469-88 88 0 4.425781-3.574219 8-8 8zm0 0"/><path d="m240.238281 160c-4.421875 0-8.039062-3.574219-8.039062-8s3.535156-8 7.953125-8h.085937c4.417969 0 8 3.574219 8 8s-3.582031 8-8 8zm0 0"/><path d="m272.238281 192c-4.421875 0-8.039062-3.574219-8.039062-8s3.535156-8 7.953125-8h.085937c4.417969 0 8 3.574219 8 8s-3.582031 8-8 8zm0 0"/><path d="m304.238281 224c-4.421875 0-8.039062-3.574219-8.039062-8s3.535156-8 7.953125-8h.085937c4.417969 0 8 3.574219 8 8s-3.582031 8-8 8zm0 0"/><path d="m336.238281 256c-4.421875 0-8.039062-3.574219-8.039062-8s3.535156-8 7.953125-8h.085937c4.417969 0 8 3.574219 8 8s-3.582031 8-8 8zm0 0"/><path d="m208.238281 64c-4.421875 0-8.039062-3.574219-8.039062-8s3.535156-8 7.953125-8h.085937c4.417969 0 8 3.574219 8 8s-3.582031 8-8 8zm0 0"/><path d="m240.238281 96c-4.421875 0-8.039062-3.574219-8.039062-8s3.535156-8 7.953125-8h.085937c4.417969 0 8 3.574219 8 8s-3.582031 8-8 8zm0 0"/><path d="m272.238281 128c-4.421875 0-8.039062-3.574219-8.039062-8s3.535156-8 7.953125-8h.085937c4.417969 0 8 3.574219 8 8s-3.582031 8-8 8zm0 0"/><path d="m304.238281 160c-4.421875 0-8.039062-3.574219-8.039062-8s3.535156-8 7.953125-8h.085937c4.417969 0 8 3.574219 8 8s-3.582031 8-8 8zm0 0"/><path d="m336.238281 192c-4.421875 0-8.039062-3.574219-8.039062-8s3.535156-8 7.953125-8h.085937c4.417969 0 8 3.574219 8 8s-3.582031 8-8 8zm0 0"/><path d="m240.238281 32c-4.421875 0-8.039062-3.574219-8.039062-8s3.535156-8 7.953125-8h.085937c4.417969 0 8 3.574219 8 8s-3.582031 8-8 8zm0 0"/><path d="m272.238281 64c-4.421875 0-8.039062-3.574219-8.039062-8s3.535156-8 7.953125-8h.085937c4.417969 0 8 3.574219 8 8s-3.582031 8-8 8zm0 0"/><path d="m304.238281 96c-4.421875 0-8.039062-3.574219-8.039062-8s3.535156-8 7.953125-8h.085937c4.417969 0 8 3.574219 8 8s-3.582031 8-8 8zm0 0"/><path d="m336.238281 128c-4.421875 0-8.039062-3.574219-8.039062-8s3.535156-8 7.953125-8h.085937c4.417969 0 8 3.574219 8 8s-3.582031 8-8 8zm0 0"/><path d="m336.238281 64c-4.421875 0-8.039062-3.574219-8.039062-8s3.535156-8 7.953125-8h.085937c4.417969 0 8 3.574219 8 8s-3.582031 8-8 8zm0 0"/></svg>