<svg height="512pt" viewBox="0 -32 512 512" width="512pt" xmlns="http://www.w3.org/2000/svg"><path d="m280 392v48h-48v-48zm0 0" fill="#f5f7fa"/><path d="m480 392v48h-200v-48zm0 0" fill="#e6e9ed"/><path d="m232 392v48h-200v-48zm0 0" fill="#e6e9ed"/><path d="m32 328h32v64h-32zm0 0" fill="#ccd1d9"/><path d="m64 280c13.28125 0 24 10.71875 24 24 0 13.199219-10.71875 24-24 24h-32c-13.28125 0-24-10.800781-24-24 0-13.28125 10.71875-24 24-24 8.878906 0 16-7.199219 16-16 0 8.800781 7.121094 16 16 16zm0 0" fill="#ffce54"/><path d="m112 216c-13.28125 0-24 10.71875-24 24 0 13.199219 10.71875 24 24 24h32c13.28125 0 24-10.800781 24-24 0-13.28125-10.71875-24-24-24-8.878906 0-16-7.199219-16-16 0 8.800781-7.121094 16-16 16zm0 0" fill="#ffce54"/><path d="m112 264h32v64h-32zm0 0" fill="#ccd1d9"/><path d="m232 392h-120v-64h144v64zm0 0" fill="#e6e9ed"/><path d="m272 328h128v64h-144v-64zm0 0" fill="#e6e9ed"/><path d="m448 328h32v64h-32zm0 0" fill="#ccd1d9"/><path d="m480 280c13.28125 0 24 10.71875 24 24 0 13.199219-10.71875 24-24 24h-32c-13.28125 0-24-10.800781-24-24 0-13.28125 10.71875-24 24-24 8.878906 0 16-7.199219 16-16 0 8.800781 7.121094 16 16 16zm0 0" fill="#ffce54"/><path d="m480 280c-8.878906 0-16-7.199219-16-16 0 7.425781-5.089844 13.648438-12 15.441406 1.28125.328125 2.609375.558594 4 .558594 13.28125 0 24 10.71875 24 24 0 13.199219-10.71875 24-24 24h24c13.28125 0 24-10.800781 24-24 0-13.28125-10.71875-24-24-24zm0 0" fill="#f6bb42"/><path d="m400 216c13.28125 0 24 10.71875 24 24 0 13.199219-10.71875 24-24 24h-32c-13.28125 0-24-10.800781-24-24 0-13.28125 10.71875-24 24-24 8.878906 0 16-7.199219 16-16 0 8.800781 7.121094 16 16 16zm0 0" fill="#ffce54"/><path d="m368 264h32v64h-32zm0 0" fill="#ccd1d9"/><path d="m336.160156 280c0 5.921875-3.273437 11.199219-8.160156 13.921875-2.320312 1.277344-4.960938 2.078125-7.839844 2.078125h-16.160156v-48c0 8.800781 7.121094 16 16 16h.160156c8.800782 0 16 7.121094 16 16zm0 0" fill="#f6bb42"/><path d="m320.160156 296c2.878906 0 5.519532-.800781 7.839844-2.078125v34.078125h-24v-32zm0 0" fill="#aab2bd"/><path d="m272 296v32h-32v-32c0-8.878906 7.199219-16 16-16s16 7.121094 16 16zm0 0" fill="#ed5565"/><path d="m208 296v32h-24v-34.078125c2.320312 1.277344 4.960938 2.078125 7.839844 2.078125zm0 0" fill="#aab2bd"/><path d="m208 248v48h-16.160156c-2.878906 0-5.519532-.800781-7.839844-2.078125-4.878906-2.722656-8.160156-8-8.160156-13.921875 0-8.878906 7.191406-16 16-16h.160156c8.878906 0 16-7.199219 16-16zm0 0" fill="#f6bb42"/><path d="m304 248v80h-32v-32c0-8.878906-7.199219-16-16-16s-16 7.121094-16 16v32h-32v-88h96zm0 0" fill="#ccd1d9"/><path d="m208 240v-40h-8c-39.761719 0-72-32.320312-72-72 0-39.761719 32.238281-72 72-72h32c13.28125 0 24-10.800781 24-24 0 13.199219 10.71875 24 24 24h32c39.761719 0 72 32.238281 72 72 0 39.601562-32.078125 71.839844-71.679688 72h-8.320312v40zm0 0" fill="#ffce54"/><path d="m304 200h-24c39.761719 0 72-32.320312 72-72 0-39.761719-32.238281-72-72-72h32c39.761719 0 72 32.238281 72 72 0 39.679688-32.238281 72-72 72zm0 0" fill="#f6bb42"/><path d="m112 384h288v8h-288zm0 0" fill="#ccd1d9"/><g fill="#f6bb42"><path d="m400 216c-8.878906 0-16-7.199219-16-16 0 7.425781-5.089844 13.648438-12 15.441406 1.28125.328125 2.609375.558594 4 .558594 13.28125 0 24 10.71875 24 24 0 13.199219-10.71875 24-24 24h24c13.28125 0 24-10.800781 24-24 0-13.28125-10.71875-24-24-24zm0 0"/><path d="m144 216c-8.878906 0-16-7.199219-16-16 0 7.425781-5.089844 13.648438-12 15.441406 1.28125.328125 2.609375.558594 4 .558594 13.28125 0 24 10.71875 24 24 0 13.199219-10.71875 24-24 24h24c13.28125 0 24-10.800781 24-24 0-13.28125-10.71875-24-24-24zm0 0"/><path d="m64 280c-8.878906 0-16-7.199219-16-16 0 7.425781-5.089844 13.648438-12 15.441406 1.28125.328125 2.609375.558594 4 .558594 13.28125 0 24 10.71875 24 24 0 13.199219-10.71875 24-24 24h24c13.28125 0 24-10.800781 24-24 0-13.28125-10.71875-24-24-24zm0 0"/><path d="m208 200h96v40h-96zm0 0"/></g><path d="m480 448h-448c-4.425781 0-8-3.574219-8-8s3.574219-8 8-8h448c4.425781 0 8 3.574219 8 8s-3.574219 8-8 8zm0 0"/><path d="m232 400h-200c-4.425781 0-8-3.574219-8-8s3.574219-8 8-8h200c4.425781 0 8 3.574219 8 8s-3.574219 8-8 8zm0 0"/><path d="m32 448c-4.425781 0-8-3.574219-8-8v-48c0-4.425781 3.574219-8 8-8s8 3.574219 8 8v48c0 4.425781-3.574219 8-8 8zm0 0"/><path d="m232 448c-4.425781 0-8-3.574219-8-8v-56c0-4.425781 3.574219-8 8-8s8 3.574219 8 8v56c0 4.425781-3.574219 8-8 8zm0 0"/><path d="m480 400h-200c-4.425781 0-8-3.574219-8-8s3.574219-8 8-8h200c4.425781 0 8 3.574219 8 8s-3.574219 8-8 8zm0 0"/><path d="m480 448c-4.425781 0-8-3.574219-8-8v-48c0-4.425781 3.574219-8 8-8s8 3.574219 8 8v48c0 4.425781-3.574219 8-8 8zm0 0"/><path d="m280 448c-4.425781 0-8-3.574219-8-8v-56c0-4.425781 3.574219-8 8-8s8 3.574219 8 8v56c0 4.425781-3.574219 8-8 8zm0 0"/><path d="m280 400h-48c-4.425781 0-8-3.574219-8-8s3.574219-8 8-8h48c4.425781 0 8 3.574219 8 8s-3.574219 8-8 8zm0 0"/><path d="m256 448c-4.425781 0-8-3.574219-8-8v-16c0-4.425781 3.574219-8 8-8s8 3.574219 8 8v16c0 4.425781-3.574219 8-8 8zm0 0"/><path d="m200 208c-44.113281 0-80-35.886719-80-80s35.886719-80 80-80c4.425781 0 8 3.574219 8 8s-3.574219 8-8 8c-35.289062 0-64 28.710938-64 64s28.710938 64 64 64c4.425781 0 8 3.574219 8 8s-3.574219 8-8 8zm0 0"/><path d="m312 208c-4.425781 0-8-3.574219-8-8s3.574219-8 8-8c35.289062 0 64-28.710938 64-64s-28.710938-64-64-64c-4.425781 0-8-3.574219-8-8s3.574219-8 8-8c44.113281 0 80 35.886719 80 80s-35.886719 80-80 80zm0 0"/><path d="m232 64c-4.425781 0-8-3.574219-8-8s3.574219-8 8-8c8.824219 0 16-7.175781 16-16 0-4.425781 3.574219-8 8-8s8 3.574219 8 8c0 17.648438-14.351562 32-32 32zm0 0"/><path d="m280 64c-17.648438 0-32-14.351562-32-32 0-4.425781 3.574219-8 8-8s8 3.574219 8 8c0 8.824219 7.175781 16 16 16 4.425781 0 8 3.574219 8 8s-3.574219 8-8 8zm0 0"/><path d="m232 64h-32c-4.425781 0-8-3.574219-8-8s3.574219-8 8-8h32c4.425781 0 8 3.574219 8 8s-3.574219 8-8 8zm0 0"/><path d="m312 64h-32c-4.425781 0-8-3.574219-8-8s3.574219-8 8-8h32c4.425781 0 8 3.574219 8 8s-3.574219 8-8 8zm0 0"/><path d="m256 40c-4.425781 0-8-3.574219-8-8v-24c0-4.425781 3.574219-8 8-8s8 3.574219 8 8v24c0 4.425781-3.574219 8-8 8zm0 0"/><path d="m232 208h-32c-4.425781 0-8-3.574219-8-8s3.574219-8 8-8h32c4.425781 0 8 3.574219 8 8s-3.574219 8-8 8zm0 0"/><path d="m312.328125 208h-32c-4.425781 0-8-3.574219-8-8s3.574219-8 8-8h32c4.425781 0 8 3.574219 8 8s-3.574219 8-8 8zm0 0"/><path d="m208 336c-4.425781 0-8-3.574219-8-8v-128c0-4.425781 3.574219-8 8-8s8 3.574219 8 8v128c0 4.425781-3.574219 8-8 8zm0 0"/><path d="m304 336c-4.425781 0-8-3.574219-8-8v-128c0-4.425781 3.574219-8 8-8s8 3.574219 8 8v128c0 4.425781-3.574219 8-8 8zm0 0"/><path d="m304 248h-96c-4.425781 0-8-3.574219-8-8s3.574219-8 8-8h96c4.425781 0 8 3.574219 8 8s-3.574219 8-8 8zm0 0"/><path d="m256 400.007812c-4.425781 0-8-3.574218-8-8v-64.007812c0-4.425781 3.574219-8 8-8s8 3.574219 8 8v64.007812c0 4.425782-3.574219 8-8 8zm0 0"/><path d="m400 336h-288c-4.425781 0-8-3.574219-8-8s3.574219-8 8-8h288c4.425781 0 8 3.574219 8 8s-3.574219 8-8 8zm0 0"/><path d="m272 304c-4.425781 0-8-3.574219-8-8 0-4.414062-3.585938-8-8-8s-8 3.585938-8 8c0 4.425781-3.574219 8-8 8s-8-3.574219-8-8c0-13.230469 10.769531-24 24-24s24 10.769531 24 24c0 4.425781-3.574219 8-8 8zm0 0"/><path d="m240 336c-4.425781 0-8-3.574219-8-8v-32c0-4.425781 3.574219-8 8-8s8 3.574219 8 8v32c0 4.425781-3.574219 8-8 8zm0 0"/><path d="m272 336c-4.425781 0-8-3.574219-8-8v-32c0-4.425781 3.574219-8 8-8s8 3.574219 8 8v32c0 4.425781-3.574219 8-8 8zm0 0"/><path d="m112 400.007812c-4.425781 0-8-3.574218-8-8v-64.007812c0-4.425781 3.574219-8 8-8s8 3.574219 8 8v64.007812c0 4.425782-3.574219 8-8 8zm0 0"/><path d="m400 400.007812c-4.425781 0-8-3.574218-8-8v-64.007812c0-4.425781 3.574219-8 8-8s8 3.574219 8 8v64.007812c0 4.425782-3.574219 8-8 8zm0 0"/><path d="m112 272c-17.648438 0-32-14.351562-32-32s14.351562-32 32-32c4.425781 0 8 3.574219 8 8s-3.574219 8-8 8c-8.824219 0-16 7.175781-16 16s7.175781 16 16 16c4.425781 0 8 3.574219 8 8s-3.574219 8-8 8zm0 0"/><path d="m144 272c-4.425781 0-8-3.574219-8-8s3.574219-8 8-8c8.824219 0 16-7.175781 16-16s-7.175781-16-16-16c-4.425781 0-8-3.574219-8-8s3.574219-8 8-8c17.648438 0 32 14.351562 32 32s-14.351562 32-32 32zm0 0"/><path d="m112 224c-4.425781 0-8-3.574219-8-8s3.574219-8 8-8c4.414062 0 8-3.585938 8-8 0-4.425781 3.574219-8 8-8s8 3.574219 8 8c0 13.230469-10.769531 24-24 24zm0 0"/><path d="m144 224c-13.230469 0-24-10.769531-24-24 0-4.425781 3.574219-8 8-8s8 3.574219 8 8c0 4.414062 3.585938 8 8 8 4.425781 0 8 3.574219 8 8s-3.574219 8-8 8zm0 0"/><path d="m144 272h-32c-4.425781 0-8-3.574219-8-8s3.574219-8 8-8h32c4.425781 0 8 3.574219 8 8s-3.574219 8-8 8zm0 0"/><path d="m144 336.007812c-4.425781 0-8-3.574218-8-8v-64.007812c0-4.425781 3.574219-8 8-8s8 3.574219 8 8v64.007812c0 4.425782-3.574219 8-8 8zm0 0"/><path d="m112 336.007812c-4.425781 0-8-3.574218-8-8v-64.007812c0-4.425781 3.574219-8 8-8s8 3.574219 8 8v64.007812c0 4.425782-3.574219 8-8 8zm0 0"/><path d="m191.832031 304c-13.230469 0-24-10.769531-24-24 0-13.222656 10.769531-23.992188 24-23.992188 4.425781 0 8 3.578126 8 8 0 4.425782-3.574219 8-8 8-4.417969 0-8 3.585938-8 7.992188 0 4.414062 3.582031 8 8 8 4.425781 0 8 3.574219 8 8s-3.574219 8-8 8zm0 0"/><path d="m208 304h-16.167969c-4.425781 0-8-3.574219-8-8s3.574219-8 8-8h16.167969c4.425781 0 8 3.574219 8 8s-3.574219 8-8 8zm0 0"/><path d="m191.992188 272.007812c-4.425782 0-8-3.574218-8-8 0-4.421874 3.574218-8 8-8 4.414062 0 8.007812-3.59375 8.007812-8.007812 0-4.425781 3.574219-8 8-8s8 3.574219 8 8c0 13.230469-10.777344 24.007812-24.007812 24.007812zm0 0"/><path d="m184 336.007812c-4.425781 0-8-3.574218-8-8v-34.070312c0-4.425781 3.574219-8 8-8s8 3.574219 8 8v34.070312c0 4.425782-3.574219 8-8 8zm0 0"/><path d="m400 272c-4.425781 0-8-3.574219-8-8s3.574219-8 8-8c8.824219 0 16-7.175781 16-16s-7.175781-16-16-16c-4.425781 0-8-3.574219-8-8s3.574219-8 8-8c17.648438 0 32 14.351562 32 32s-14.351562 32-32 32zm0 0"/><path d="m368 272c-17.648438 0-32-14.351562-32-32s14.351562-32 32-32c4.425781 0 8 3.574219 8 8s-3.574219 8-8 8c-8.824219 0-16 7.175781-16 16s7.175781 16 16 16c4.425781 0 8 3.574219 8 8s-3.574219 8-8 8zm0 0"/><path d="m400 224c-13.230469 0-24-10.769531-24-24 0-4.425781 3.574219-8 8-8s8 3.574219 8 8c0 4.414062 3.585938 8 8 8 4.425781 0 8 3.574219 8 8s-3.574219 8-8 8zm0 0"/><path d="m368 224c-4.425781 0-8-3.574219-8-8s3.574219-8 8-8c4.414062 0 8-3.585938 8-8 0-4.425781 3.574219-8 8-8s8 3.574219 8 8c0 13.230469-10.769531 24-24 24zm0 0"/><path d="m400 272h-32c-4.425781 0-8-3.574219-8-8s3.574219-8 8-8h32c4.425781 0 8 3.574219 8 8s-3.574219 8-8 8zm0 0"/><path d="m368 336.007812c-4.425781 0-8-3.574218-8-8v-64.007812c0-4.425781 3.574219-8 8-8s8 3.574219 8 8v64.007812c0 4.425782-3.574219 8-8 8zm0 0"/><path d="m400 336.007812c-4.425781 0-8-3.574218-8-8v-64.007812c0-4.425781 3.574219-8 8-8s8 3.574219 8 8v64.007812c0 4.425782-3.574219 8-8 8zm0 0"/><path d="m480 336c-4.425781 0-8-3.574219-8-8s3.574219-8 8-8c8.824219 0 16-7.175781 16-16s-7.175781-16-16-16c-4.425781 0-8-3.574219-8-8s3.574219-8 8-8c17.648438 0 32 14.351562 32 32s-14.351562 32-32 32zm0 0"/><path d="m448 336c-17.648438 0-32-14.351562-32-32s14.351562-32 32-32c4.425781 0 8 3.574219 8 8s-3.574219 8-8 8c-8.824219 0-16 7.175781-16 16s7.175781 16 16 16c4.425781 0 8 3.574219 8 8s-3.574219 8-8 8zm0 0"/><path d="m480 288c-13.230469 0-24-10.769531-24-24 0-4.425781 3.574219-8 8-8s8 3.574219 8 8c0 4.414062 3.585938 8 8 8 4.425781 0 8 3.574219 8 8s-3.574219 8-8 8zm0 0"/><path d="m448 288c-4.425781 0-8-3.574219-8-8s3.574219-8 8-8c4.414062 0 8-3.585938 8-8 0-4.425781 3.574219-8 8-8s8 3.574219 8 8c0 13.230469-10.769531 24-24 24zm0 0"/><path d="m480 336h-32c-4.425781 0-8-3.574219-8-8s3.574219-8 8-8h32c4.425781 0 8 3.574219 8 8s-3.574219 8-8 8zm0 0"/><path d="m448 400.007812c-4.425781 0-8-3.574218-8-8v-64.007812c0-4.425781 3.574219-8 8-8s8 3.574219 8 8v64.007812c0 4.425782-3.574219 8-8 8zm0 0"/><path d="m480 400.007812c-4.425781 0-8-3.574218-8-8v-64.007812c0-4.425781 3.574219-8 8-8s8 3.574219 8 8v64.007812c0 4.425782-3.574219 8-8 8zm0 0"/><path d="m64 336c-4.425781 0-8-3.574219-8-8s3.574219-8 8-8c8.824219 0 16-7.175781 16-16s-7.175781-16-16-16c-4.425781 0-8-3.574219-8-8s3.574219-8 8-8c17.648438 0 32 14.351562 32 32s-14.351562 32-32 32zm0 0"/><path d="m32 336c-17.648438 0-32-14.351562-32-32s14.351562-32 32-32c4.425781 0 8 3.574219 8 8s-3.574219 8-8 8c-8.824219 0-16 7.175781-16 16s7.175781 16 16 16c4.425781 0 8 3.574219 8 8s-3.574219 8-8 8zm0 0"/><path d="m64 288c-13.230469 0-24-10.769531-24-24 0-4.425781 3.574219-8 8-8s8 3.574219 8 8c0 4.414062 3.585938 8 8 8 4.425781 0 8 3.574219 8 8s-3.574219 8-8 8zm0 0"/><path d="m32 288c-4.425781 0-8-3.574219-8-8s3.574219-8 8-8c4.414062 0 8-3.585938 8-8 0-4.425781 3.574219-8 8-8s8 3.574219 8 8c0 13.230469-10.769531 24-24 24zm0 0"/><path d="m64 336h-32c-4.425781 0-8-3.574219-8-8s3.574219-8 8-8h32c4.425781 0 8 3.574219 8 8s-3.574219 8-8 8zm0 0"/><path d="m32 400.007812c-4.425781 0-8-3.574218-8-8v-64.007812c0-4.425781 3.574219-8 8-8s8 3.574219 8 8v64.007812c0 4.425782-3.574219 8-8 8zm0 0"/><path d="m64 400.007812c-4.425781 0-8-3.574218-8-8v-64.007812c0-4.425781 3.574219-8 8-8s8 3.574219 8 8v64.007812c0 4.425782-3.574219 8-8 8zm0 0"/><path d="m320.167969 304c-4.425781 0-8-3.574219-8-8s3.574219-8 8-8c4.417969 0 8-3.585938 8-8 0-4.40625-3.582031-7.992188-8-7.992188-4.425781 0-8-3.574218-8-8 0-4.421874 3.574219-8 8-8 13.230469 0 24 10.769532 24 23.992188 0 13.230469-10.769531 24-24 24zm0 0"/><path d="m320.167969 304h-16.167969c-4.425781 0-8-3.574219-8-8s3.574219-8 8-8h16.167969c4.425781 0 8 3.574219 8 8s-3.582031 8-8 8zm0 0"/><path d="m320.007812 272.007812c-13.230468 0-24.007812-10.777343-24.007812-24.007812 0-4.425781 3.574219-8 8-8s8 3.574219 8 8c0 4.414062 3.59375 8.007812 8.007812 8.007812 4.425782 0 8 3.578126 8 8 0 4.425782-3.574218 8-8 8zm0 0"/><path d="m328 336.007812c-4.425781 0-8-3.574218-8-8v-34.070312c0-4.425781 3.574219-8 8-8s8 3.574219 8 8v34.070312c0 4.425782-3.574219 8-8 8zm0 0"/><path d="m232 248c-4.425781 0-8-3.574219-8-8v-8c0-4.425781 3.574219-8 8-8s8 3.574219 8 8v8c0 4.425781-3.574219 8-8 8zm0 0"/><path d="m280 248c-4.425781 0-8-3.574219-8-8v-8c0-4.425781 3.574219-8 8-8s8 3.574219 8 8v8c0 4.425781-3.574219 8-8 8zm0 0"/><path d="m256 248c-4.425781 0-8-3.574219-8-8v-8c0-4.425781 3.574219-8 8-8s8 3.574219 8 8v8c0 4.425781-3.574219 8-8 8zm0 0"/></svg>