<svg height="512pt" viewBox="-88 0 512 512.00647" width="512pt" xmlns="http://www.w3.org/2000/svg"><path d="m224.003906 24.007812v48h-112v-48l24 8 32-24 32 24zm0 0" fill="#ffce54"/><path d="m200.003906 32.007812v40h24v-48zm0 0" fill="#f6bb42"/><path d="m280.003906 400.007812c26.558594 0 48 21.519532 48 48v48c0 4.398438-3.519531 8-8 8h-304c-4.402344 0-8-3.601562-8-8v-48c0-26.480468 21.511719-48 48.078125-48h15.921875v32c0 26.558594 21.511719 48 48 48h96c26.558594 0 48-21.441406 48-48v-32zm0 0" fill="#ec87c0"/><path d="m264.003906 400.007812v32c0 26.558594-21.441406 48-48 48h-96c-26.488281 0-48-21.441406-48-48v-32h32v32c0 8.878907 7.191406 16 16 16h96c8.871094 0 16-7.121093 16-16v-32zm0 0" fill="#e6e9ed"/><path d="m232.003906 400.007812v32c0 8.878907-7.128906 16-16 16h-96c-8.808594 0-16-7.121093-16-16v-32h16v-42c14.71875 6.398438 30.960938 10 48 10 17.039063 0 33.28125-3.601562 48-10v42zm0 0" fill="#eac6bb"/><path d="m264.003906 400.007812h-16c5.625 0 10.992188 1.015626 16 2.789063zm0 0" fill="#ccd1d9"/><path d="m280.003906 400.007812h-16v2.789063c18.65625 6.59375 32 24.335937 32 45.210937v48c0 4.398438-3.519531 8-8 8h32c4.480469 0 8-3.601562 8-8v-48c0-26.480468-21.441406-48-48-48zm0 0" fill="#d770ad"/><path d="m312.003906 216.007812-24-11.921874v43.921874c0 12.230469-1.839844 24-5.199218 35.039063-.800782 2.71875-1.761719 5.441406-2.800782 8.078125l.078125.089844v68.792968l16 16 16-16v-144zm0 0" fill="#703838"/><path d="m168.082031 144.246094 119.921875 59.839844v43.921874c0 12.230469-1.839844 24-5.199218 35.039063-.800782 2.71875-1.761719 5.441406-2.800782 8.078125-11.519531 30-34.71875 54.089844-64 66.882812-14.71875 6.398438-30.960937 10-48 10-17.039062 0-33.28125-3.601562-48-10-29.199218-12.722656-52.402344-36.800781-63.921875-66.722656v-.078125c-1.117187-2.640625-2-5.359375-2.796875-8.167969-3.449218-11.03125-5.28125-22.800781-5.28125-35.03125l.078125-43.921874 120-59.917969zm0 0" fill="#eac6bb"/><path d="m256.003906 188.117188v59.890624c0 12.230469-1.839844 24-5.199218 35.039063-.800782 2.71875-1.761719 5.441406-2.800782 8.078125-11.519531 30-34.71875 54.089844-64 66.882812-10.023437 4.359376-20.800781 7.292969-32 8.808594 5.246094.695313 10.558594 1.191406 16 1.191406 17.039063 0 33.28125-3.601562 48-10 29.28125-12.800781 52.480469-36.882812 64-66.882812 1.039063-2.636719 2-5.359375 2.800782-8.078125 3.359374-11.039063 5.199218-22.808594 5.199218-35.039063v-43.921874zm0 0" fill="#d3b1a9"/><path d="m312.082031 192.007812v24h-.078125l-24-11.921874-119.921875-59.839844v-.078125l103.921875-51.839844c24.800782 25.839844 40.078125 60.957031 40.078125 99.679687zm0 0" fill="#844747"/><path d="m224.003906 59.285156c18.238282 7.679688 34.480469 18.960938 48 33.042969l-103.921875 51.839844-120 59.917969-24 11.921874h-.078125v-24h.078125c0-59.601562 36.242188-110.800781 87.921875-132.640624v12.640624h112zm0 0" fill="#965353"/><path d="m272.003906 92.328125-22.394531 11.167969c19.050781 24.398437 30.472656 55.09375 30.472656 88.503906v8.125l7.921875 3.960938 24 11.921874h.078125v-24c0-38.722656-15.277343-73.839843-40.078125-99.679687zm0 0" fill="#773e3e"/><path d="m249.609375 103.503906 22.394531-11.175781c-13.519531-14.082031-29.761718-25.363281-48-33.042969v12.722656h-8.503906c8.871094 5.878907 17.128906 12.636719 24.503906 20.320313 3.398438 3.542969 6.574219 7.292969 9.605469 11.175781zm0 0" fill="#844747"/><path d="m53.285156 283.046875c-3.449218-11.039063-5.28125-22.808594-5.28125-35.039063l.078125-43.921874-24 11.921874h-.078125v144l16 16 16-16 .078125-40v-28.800781c-1.117187-2.640625-2-5.359375-2.796875-8.160156zm0 0" fill="#703838"/><path d="m8.003906 456.03125c-4.425781 0-7.99999975-3.578125-7.99999975-8 0-30.890625 25.12890575-56.015625 56.01562475-56.015625 4.421875 0 8 3.574219 8 8 0 4.421875-3.578125 8-8 8-22.0625 0-40.015625 17.949219-40.015625 40.015625 0 4.421875-3.578125 8-8 8zm0 0"/><path d="m328.003906 456.023438c-4.425781 0-8-3.578126-8-8 0-22.058594-17.945312-40-40-40-4.425781 0-8-3.578126-8-8 0-4.425782 3.574219-8 8-8 30.871094 0 56 25.128906 56 56 0 4.421874-3.578125 8-8 8zm0 0"/><path d="m120.003906 408.023438-63.984375-.007813c-4.425781 0-8-3.585937-8-8 0-4.425781 3.582031-8 8-8l63.984375.007813c4.421875 0 8 3.582031 8 8 0 4.421874-3.585937 8-8 8zm0 0"/><path d="m280.003906 408.023438-64-.007813c-4.425781 0-8-3.585937-8-8 0-4.425781 3.582032-8 8-8l64 .007813c4.421875 0 8 3.582031 8 8 0 4.421874-3.585937 8-8 8zm0 0"/><path d="m8.011719 504.007812c-4.417969 0-8.0000002-3.578124-8.0000002-8l-.00781255-47.976562c0-4.417969 3.57421875-8 7.99999975-8 4.414063 0 8 3.574219 8 8l.007813 47.976562c0 4.414063-3.578125 8-8 8zm0 0"/><path d="m16.011719 512.007812c-8.824219 0-16.0000002-7.175781-16.0000002-16 0-4.425781 3.5742192-8 8.0000002-8 4.421875 0 8 3.574219 8 8v.015626c4.421875 0 8 3.566406 8 7.992187 0 4.414063-3.578125 7.992187-8 7.992187zm0 0"/><path d="m320.003906 512.007812c-4.425781 0-8-3.578124-8-8 0-4.425781 3.574219-8 8-8h.015625c0-4.425781 3.566407-8 7.992188-8 4.414062 0 7.992187 3.574219 7.992187 8 0 8.824219-7.175781 16-16 16zm0 0"/><path d="m328.003906 504.007812c-4.425781 0-8-3.578124-8-8v-47.984374c0-4.425782 3.574219-8 8-8 4.421875 0 8 3.574218 8 8v47.984374c0 4.421876-3.578125 8-8 8zm0 0"/><path d="m320.003906 512.007812h-303.992187c-4.425781 0-8-3.578124-8-8 0-4.425781 3.574219-8 8-8h303.992187c4.421875 0 8 3.574219 8 8 0 4.421876-3.578125 8-8 8zm0 0"/><path d="m120.003906 408.023438c-4.425781 0-8-3.578126-8-8v-42c0-4.425782 3.574219-8 8-8 4.421875 0 8 3.574218 8 8v42c0 4.421874-3.578125 8-8 8zm0 0"/><path d="m216.003906 408.015625c-4.425781 0-8-3.578125-8-8v-41.992187c0-4.425782 3.574219-8 8-8 4.421875 0 8 3.574218 8 8v41.992187c0 4.421875-3.578125 8-8 8zm0 0"/><path d="m168.003906 376.015625c-70.578125 0-128-57.425781-128-128 0-4.417969 3.574219-8 8-8 4.421875 0 8 3.582031 8 8 0 61.757813 50.238282 112 112 112 61.757813 0 112-50.242187 112-112 0-4.417969 3.574219-8 8-8 4.421875 0 8 3.582031 8 8 0 70.574219-57.425781 128-128 128zm0 0"/><path d="m48.003906 256.015625c-4.425781 0-8-3.585937-8-8l.015625-43.953125c0-4.417969 3.582031-8 8-8 4.421875 0 8 3.582031 8 8l-.015625 43.953125c0 4.421875-3.585937 8-8 8zm0 0"/><path d="m288.003906 256.015625c-4.425781 0-8-3.585937-8-8v-43.945313c0-4.414062 3.574219-8 8-8 4.421875 0 8 3.585938 8 8v43.945313c0 4.414063-3.578125 8-8 8zm0 0"/><path d="m312.066406 200.007812c-4.421875 0-8-3.585937-8-8 0-54.832031-32.648437-104.042968-83.167968-125.351562-4.070313-1.722656-5.976563-6.410156-4.253907-10.480469 1.71875-4.074219 6.414063-5.976562 10.480469-4.265625 56.453125 23.824219 92.941406 78.816406 92.941406 140.097656 0 4.414063-3.574218 8-8 8zm0 0"/><path d="m24.066406 200.007812c-4.421875 0-8-3.585937-8-8 0-61.21875 36.433594-116.183593 92.816406-140.050781 4.039063-1.703125 8.769532.175781 10.488282 4.25 1.71875 4.0625-.175782 8.757813-4.246094 10.488281-50.457031 21.351563-83.058594 70.535157-83.058594 125.3125 0 4.414063-3.574218 8-8 8zm0 0"/><path d="m24.003906 368.007812c-4.425781 0-8-3.578124-8-8v-168c0-4.417968 3.574219-8 8-8 4.421875 0 8 3.582032 8 8v168c0 4.421876-3.578125 8-8 8zm0 0"/><path d="m56.003906 368.007812c-4.425781 0-8-3.585937-8-8l.015625-68.808593c0-4.425781 3.582031-8 8-8 4.421875 0 8 3.582031 8 8l-.015625 68.808593c0 4.421876-3.585937 8-8 8zm0 0"/><path d="m24.074219 224.007812c-2.933594 0-5.765625-1.625-7.167969-4.433593-1.976562-3.953125-.367188-8.757813 3.585938-10.726563l247.933593-123.65625c3.976563-1.96875 8.769531-.351562 10.730469 3.589844 1.976562 3.953125.367188 8.761719-3.585938 10.730469l-247.933593 123.65625c-1.144531.566406-2.371094.839843-3.5625.839843zm0 0"/><path d="m40.011719 384.007812c-2.046875 0-4.097657-.785156-5.65625-2.34375l-16.007813-16c-3.128906-3.128906-3.128906-8.1875 0-11.3125 3.128906-3.128906 8.183594-3.128906 11.3125 0l16.007813 16c3.128906 3.125 3.128906 8.183594 0 11.3125-1.5625 1.558594-3.609375 2.34375-5.65625 2.34375zm0 0"/><path d="m40.011719 384.007812c-2.046875 0-4.097657-.785156-5.65625-2.34375-3.128907-3.128906-3.128907-8.1875 0-11.3125l16.007812-16c3.128907-3.128906 8.183594-3.128906 11.3125 0 3.128907 3.125 3.128907 8.183594 0 11.3125l-16.007812 16c-1.5625 1.558594-3.609375 2.34375-5.65625 2.34375zm0 0"/><path d="m40.011719 344.007812c-2.046875 0-4.097657-.785156-5.65625-2.34375l-16.007813-16c-3.128906-3.128906-3.128906-8.1875 0-11.3125 3.128906-3.128906 8.183594-3.128906 11.3125 0l16.007813 16c3.128906 3.125 3.128906 8.183594 0 11.3125-1.5625 1.558594-3.609375 2.34375-5.65625 2.34375zm0 0"/><path d="m40.011719 344.007812c-2.046875 0-4.097657-.785156-5.65625-2.34375-3.128907-3.128906-3.128907-8.1875 0-11.3125l16.007812-16c3.128907-3.128906 8.183594-3.128906 11.3125 0 3.128907 3.125 3.128907 8.183594 0 11.3125l-16.007812 16c-1.5625 1.558594-3.609375 2.34375-5.65625 2.34375zm0 0"/><path d="m40.011719 304.007812c-2.046875 0-4.097657-.785156-5.65625-2.34375l-16.007813-16c-3.128906-3.128906-3.128906-8.1875 0-11.3125 3.128906-3.128906 8.183594-3.128906 11.3125 0l16.007813 16c3.128906 3.125 3.128906 8.183594 0 11.3125-1.5625 1.558594-3.609375 2.34375-5.65625 2.34375zm0 0"/><path d="m40.011719 304.007812c-2.046875 0-4.097657-.785156-5.65625-2.34375-3.128907-3.128906-3.128907-8.1875 0-11.3125l12.894531-12.898437c3.128906-3.125 8.183594-3.125 11.3125 0 3.128906 3.128906 3.128906 8.183594 0 11.3125l-12.894531 12.898437c-1.5625 1.558594-3.609375 2.34375-5.65625 2.34375zm0 0"/><path d="m40.011719 264.007812c-2.046875 0-4.097657-.785156-5.65625-2.335937l-16.007813-16c-3.128906-3.128906-3.128906-8.195313 0-11.320313 3.128906-3.128906 8.183594-3.121093 11.3125 0l16.007813 16c3.128906 3.125 3.128906 8.191407 0 11.320313-1.5625 1.550781-3.609375 2.335937-5.65625 2.335937zm0 0"/><path d="m40.011719 264.007812c-2.046875 0-4.097657-.785156-5.65625-2.34375-3.128907-3.128906-3.128907-8.1875 0-11.3125l7.992187-7.984374c3.128906-3.121094 8.183594-3.128907 11.3125.007812 3.128906 3.128906 3.128906 8.183594 0 11.3125l-7.992187 7.984375c-1.5625 1.550781-3.609375 2.335937-5.65625 2.335937zm0 0"/><path d="m312.035156 368.007812c-4.425781 0-8-3.578124-8-8v-168c0-4.417968 3.574219-8 8-8 4.425782 0 8 3.582032 8 8v168c0 4.421876-3.574218 8-8 8zm0 0"/><path d="m280.035156 368.007812c-4.414062 0-8-3.578124-8-8l-.015625-68.808593c0-4.417969 3.574219-8 8-8 4.414063 0 8 3.574219 8 8l.015625 68.808593c0 4.414063-3.574218 8-8 8zm0 0"/><path d="m311.964844 224.007812c-1.195313 0-2.417969-.273437-3.5625-.839843l-143.949219-71.800781c-3.953125-1.976563-5.5625-6.777344-3.585937-10.730469 1.96875-3.949219 6.769531-5.550781 10.726562-3.589844l143.953125 71.800781c3.953125 1.976563 5.558594 6.773438 3.585937 10.726563-1.402343 2.808593-4.234374 4.433593-7.167968 4.433593zm0 0"/><path d="m296.027344 384.007812c-2.046875 0-4.097656-.785156-5.65625-2.34375-3.128906-3.128906-3.128906-8.1875 0-11.3125l16.007812-16c3.128906-3.128906 8.183594-3.128906 11.3125 0 3.128906 3.125 3.128906 8.183594 0 11.3125l-16.007812 16c-1.558594 1.558594-3.609375 2.34375-5.65625 2.34375zm0 0"/><path d="m296.027344 384.007812c-2.046875 0-4.097656-.785156-5.65625-2.34375l-16.007813-16c-3.128906-3.128906-3.128906-8.1875 0-11.3125 3.128907-3.128906 8.183594-3.128906 11.3125 0l16.007813 16c3.128906 3.125 3.128906 8.183594 0 11.3125-1.558594 1.558594-3.609375 2.34375-5.65625 2.34375zm0 0"/><path d="m296.027344 344.007812c-2.046875 0-4.097656-.785156-5.65625-2.34375-3.128906-3.128906-3.128906-8.1875 0-11.3125l16.007812-16c3.128906-3.128906 8.183594-3.128906 11.3125 0 3.128906 3.125 3.128906 8.183594 0 11.3125l-16.007812 16c-1.558594 1.558594-3.609375 2.34375-5.65625 2.34375zm0 0"/><path d="m296.027344 344.007812c-2.046875 0-4.097656-.785156-5.65625-2.34375l-16.007813-16c-3.128906-3.128906-3.128906-8.1875 0-11.3125 3.128907-3.128906 8.183594-3.128906 11.3125 0l16.007813 16c3.128906 3.125 3.128906 8.183594 0 11.3125-1.558594 1.558594-3.609375 2.34375-5.65625 2.34375zm0 0"/><path d="m296.027344 304.007812c-2.046875 0-4.097656-.785156-5.65625-2.34375-3.128906-3.128906-3.128906-8.1875 0-11.3125l16.007812-16c3.128906-3.128906 8.183594-3.128906 11.3125 0 3.128906 3.125 3.128906 8.183594 0 11.3125l-16.007812 16c-1.558594 1.558594-3.609375 2.34375-5.65625 2.34375zm0 0"/><path d="m296.027344 304.007812c-2.046875 0-4.097656-.785156-5.65625-2.34375l-12.894532-12.898437c-3.128906-3.128906-3.128906-8.183594 0-11.3125 3.125-3.125 8.183594-3.125 11.3125 0l12.894532 12.898437c3.128906 3.125 3.128906 8.183594 0 11.3125-1.558594 1.558594-3.609375 2.34375-5.65625 2.34375zm0 0"/><path d="m296.027344 264.007812c-2.046875 0-4.097656-.785156-5.65625-2.34375-3.128906-3.128906-3.128906-8.195312 0-11.320312l16.007812-16c3.128906-3.121094 8.183594-3.121094 11.3125 0 3.128906 3.117188 3.128906 8.191406 0 11.320312l-16.007812 16c-1.558594 1.558594-3.609375 2.34375-5.65625 2.34375zm0 0"/><path d="m296.027344 264.007812c-2.046875 0-4.097656-.785156-5.65625-2.335937l-7.992188-7.984375c-3.128906-3.128906-3.128906-8.183594 0-11.3125 3.128906-3.136719 8.183594-3.128906 11.3125-.007812l7.992188 7.984374c3.128906 3.125 3.128906 8.183594 0 11.3125-1.558594 1.558594-3.609375 2.34375-5.65625 2.34375zm0 0"/><path d="m112.003906 80.007812c-4.425781 0-8-3.585937-8-8v-48c0-4.417968 3.574219-8 8-8 4.421875 0 8 3.582032 8 8v48c0 4.414063-3.578125 8-8 8zm0 0"/><path d="m224.003906 80.007812h-112c-4.425781 0-8-3.585937-8-8 0-4.417968 3.574219-8 8-8h112c4.421875 0 8 3.582032 8 8 0 4.414063-3.578125 8-8 8zm0 0"/><path d="m224.003906 80.007812c-4.425781 0-8-3.585937-8-8v-48c0-4.417968 3.574219-8 8-8 4.421875 0 8 3.582032 8 8v48c0 4.414063-3.578125 8-8 8zm0 0"/><path d="m136.003906 40.007812c-.832031 0-1.6875-.136718-2.527344-.417968l-24-8c-4.183593-1.398438-6.457031-5.925782-5.058593-10.121094 1.402343-4.183594 5.890625-6.46875 10.121093-5.054688l24 8c4.183594 1.402344 6.457032 5.929688 5.054688 10.121094-1.117188 3.351563-4.238281 5.472656-7.589844 5.472656zm0 0"/><path d="m136.011719 40.007812c-2.441407 0-4.832031-1.105468-6.410157-3.203124-2.65625-3.535157-1.933593-8.550782 1.601563-11.199219l32-24c3.527344-2.664063 8.542969-1.933594 11.191406 1.601562 2.65625 3.535157 1.9375 8.550781-1.597656 11.199219l-32 24c-1.433594 1.082031-3.113281 1.601562-4.785156 1.601562zm0 0"/><path d="m199.996094 40.007812c-1.671875 0-3.351563-.519531-4.792969-1.601562l-32-24c-3.535156-2.648438-4.257813-7.664062-1.601563-11.199219 2.648438-3.527343 7.664063-4.25 11.195313-1.601562l32 24c3.535156 2.648437 4.253906 7.664062 1.597656 11.199219-1.558593 2.097656-3.960937 3.203124-6.398437 3.203124zm0 0"/><path d="m200.003906 40.007812c-3.351562 0-6.472656-2.121093-7.585937-5.472656-1.398438-4.191406.867187-8.71875 5.058593-10.121094l24-8c4.222657-1.40625 8.71875.871094 10.117188 5.054688 1.402344 4.195312-.863281 8.722656-5.054688 10.121094l-24 8c-.847656.289062-1.703124.417968-2.535156.417968zm0 0"/><path d="m104.003906 440.007812c-4.425781 0-8-3.578124-8-8v-31.984374c0-4.425782 3.574219-8 8-8 4.421875 0 8 3.574218 8 8v31.984374c0 4.421876-3.578125 8-8 8zm0 0"/><path d="m120.003906 456.007812c-13.234375 0-24-10.769531-24-24 0-4.425781 3.574219-8 8-8 4.421875 0 8 3.574219 8 8 0 4.414063 3.582032 8 8 8 4.421875 0 8 3.574219 8 8 0 4.421876-3.578125 8-8 8zm0 0"/><path d="m232.003906 440.007812c-4.425781 0-8-3.578124-8-8v-31.984374c0-4.425782 3.574219-8 8-8 4.421875 0 8 3.574218 8 8v31.984374c0 4.421876-3.578125 8-8 8zm0 0"/><path d="m216.003906 456.007812c-4.425781 0-8-3.578124-8-8 0-4.425781 3.574219-8 8-8 4.414063 0 8-3.585937 8-8 0-4.425781 3.574219-8 8-8 4.421875 0 8 3.574219 8 8 0 13.230469-10.769531 24-24 24zm0 0"/><path d="m216.003906 456.007812h-96c-4.425781 0-8-3.578124-8-8 0-4.425781 3.574219-8 8-8h96c4.421875 0 8 3.574219 8 8 0 4.421876-3.578125 8-8 8zm0 0"/><path d="m120.003906 488.007812c-30.871094 0-56-25.128906-56-56 0-4.425781 3.574219-8 8-8 4.421875 0 8 3.574219 8 8 0 22.054688 17.941406 40 40 40 4.421875 0 8 3.574219 8 8 0 4.421876-3.578125 8-8 8zm0 0"/><path d="m72.003906 440.007812c-4.425781 0-8-3.578124-8-8v-31.984374c0-4.425782 3.574219-8 8-8 4.421875 0 8 3.574218 8 8v31.984374c0 4.421876-3.578125 8-8 8zm0 0"/><path d="m216.003906 488.007812c-4.425781 0-8-3.578124-8-8 0-4.425781 3.574219-8 8-8 22.054688 0 40-17.945312 40-40 0-4.425781 3.574219-8 8-8 4.421875 0 8 3.574219 8 8 0 30.871094-25.128906 56-56 56zm0 0"/><path d="m264.003906 440.007812c-4.425781 0-8-3.578124-8-8v-31.984374c0-4.425782 3.574219-8 8-8 4.421875 0 8 3.574218 8 8v31.984374c0 4.421876-3.578125 8-8 8zm0 0"/><path d="m216.003906 488.007812h-96c-4.425781 0-8-3.578124-8-8 0-4.425781 3.574219-8 8-8h96c4.421875 0 8 3.574219 8 8 0 4.421876-3.578125 8-8 8zm0 0"/></svg>