<svg height="512pt" viewBox="-88 0 512 512.00402" width="512pt" xmlns="http://www.w3.org/2000/svg"><path d="m311.363281 403.765625c10.238281 8.71875 16.640625 21.679687 16.640625 36.238281v56c0 4.398438-3.601562 8-8 8h-304c-4.402344 0-8-3.601562-8-8v-56c0-14.558594 6.476563-27.601562 16.71875-36.320312l4.71875 6.082031c1.679688 2.46875 42.5625 62.238281 138.5625 62.238281s136.957032-59.679687 138.636719-62.238281zm0 0" fill="#ac92ec"/><path d="m280.003906 392.003906c12 0 22.957032 4.398438 31.359375 11.761719l-4.722656 6c-1.679687 2.558594-42.636719 62.238281-138.636719 62.238281s-136.882812-59.769531-138.5625-62.238281l-4.71875-6.082031c8.398438-7.359375 19.28125-11.679688 31.28125-11.679688 0 0 32 48 112 48s112-48 112-48zm0 0" fill="#e6e9ed"/><path d="m280.003906 392.003906s-32 48-112 48-112-48-112-48h64v-42c14.71875 6.398438 30.957032 10 48 10 17.039063 0 33.277344-3.601562 48-10v42zm0 0" fill="#eac6bb"/><path d="m280.003906 392.003906h-32c9.46875 0 18.230469 2.824219 25.660156 7.585938 4.296876-4.539063 6.339844-7.585938 6.339844-7.585938zm0 0" fill="#d3b1a9"/><path d="m279.363281 403.765625c6.503907 5.535156 11.445313 12.796875 14.191407 21.085937 8.328124-8.144531 12.566406-14.304687 13.085937-15.085937l4.722656-6c-8.402343-7.363281-19.359375-11.761719-31.359375-11.761719 0 0-2.042968 3.046875-6.339844 7.585938 1.984376 1.277344 3.921876 2.613281 5.699219 4.175781zm0 0" fill="#ccd1d9"/><path d="m311.363281 403.765625-4.722656 6c-.511719.78125-4.757813 6.941406-13.085937 15.085937 1.582031 4.753907 2.449218 9.839844 2.449218 15.152344v56c0 4.398438-3.601562 8-8 8h32c4.398438 0 8-3.601562 8-8v-56c0-14.558594-6.402344-27.519531-16.640625-36.238281zm0 0" fill="#967adc"/><path d="m288.003906 238.882812v1.121094c0 49.191406-29.601562 91.511719-72 110-14.722656 6.398438-30.960937 10-48 10-17.042968 0-33.28125-3.601562-48-10-42.402344-18.558594-72-60.808594-72-110v-1.039062c13.757813-3.601563 23.917969-16.082032 23.917969-30.960938h.230469c0-17.679687 14.320312-32 32-32v-.078125c34.242187 0 62.242187-26.808593 63.921875-60.640625 1.679687 33.832032 29.679687 60.640625 63.917969 60.640625v.078125c17.683593 0 32 14.320313 32 32h.242187c.007813 14.800782 10.085937 27.28125 23.769531 30.878906zm0 0" fill="#eac6bb"/><path d="m264.242188 208.003906h-.238282c0-8.070312-3.082031-15.34375-8-20.96875v52.96875c0 49.191406-29.601562 91.511719-72 110-10.027344 4.359375-20.792968 7.296875-32 8.808594 5.246094.695312 10.558594 1.191406 16 1.191406 17.039063 0 33.277344-3.601562 48-10 42.398438-18.488281 72-60.808594 72-110v-1.121094c-13.683594-3.597656-23.761718-16.078124-23.761718-30.878906zm0 0" fill="#d3b1a9"/><path d="m272.003906 64.003906 8 48h-224l8-48c80 24 104-56 104-56s24 80 104 56zm0 0" fill="#ffce54"/><path d="m272.003906 64.003906c-11.570312 3.472656-21.945312 4.710938-31.265625 4.390625l7.265625 43.609375h32zm0 0" fill="#f6bb42"/><path d="m296.003906 184.003906v56c-2.808594 0-5.449218-.398437-8-1.121094-13.683594-3.597656-23.761718-16.085937-23.761718-30.878906h-.238282c0-17.679687-14.320312-32-32-32v-.078125c-34.242187 0-62.242187-26.808593-63.921875-60.640625.078125-1.042968.078125-2.167968.078125-3.28125h105.683594c13.992188 20.480469 22.160156 45.28125 22.160156 72zm0 0" fill="#965353"/><path d="m273.835938 112.003906h-32c14 20.480469 22.167968 45.28125 22.167968 72v24h.238282c0 14.800782 10.078124 27.28125 23.761718 30.878906 2.550782.722657 5.191406 1.121094 8 1.121094v-56c0-26.71875-8.167968-51.519531-22.167968-72zm0 0" fill="#844747"/><path d="m168.003906 112.003906c0 1.121094 0 2.238282.078125 3.28125-1.679687 33.832032-29.679687 60.640625-63.921875 60.640625v.078125c-17.679687 0-32 14.320313-32 32h-.238281c0 14.878906-10.167969 27.359375-23.917969 30.960938-2.5625.640625-5.203125 1.039062-8 1.039062v-56c0-20.078125 4.636719-39.121094 12.871094-56 2.726562-5.601562 5.839844-10.960937 9.277344-16zm0 0" fill="#965353"/><path d="m8.003906 448.027344c-4.425781 0-7.99999975-3.574219-7.99999975-8 0-30.886719 25.12499975-56.015625 56.01562475-56.015625 4.421875 0 8 3.578125 8 8 0 4.425781-3.578125 8-8 8-22.066406 0-40.015625 17.953125-40.015625 40.015625 0 4.425781-3.578125 8-8 8zm0 0"/><path d="m328.003906 448.019531c-4.425781 0-8-3.574219-8-8 0-22.054687-17.945312-40-40-40-4.425781 0-8-3.574219-8-8 0-4.421875 3.574219-8 8-8 30.871094 0 56 25.128907 56 56 0 4.425781-3.578125 8-8 8zm0 0"/><path d="m120.003906 400.019531-63.984375-.007812c-4.425781 0-8-3.582031-8-8 0-4.421875 3.582031-8 8-8l63.984375.007812c4.421875 0 8 3.585938 8 8 0 4.425781-3.585937 8-8 8zm0 0"/><path d="m280.003906 400.019531-64-.007812c-4.425781 0-8-3.582031-8-8 0-4.421875 3.582032-8 8-8l64 .007812c4.421875 0 8 3.585938 8 8 0 4.425781-3.585937 8-8 8zm0 0"/><path d="m8.011719 504.003906c-4.417969 0-8.0000002-3.574218-8.0000002-8l-.00781255-55.976562c0-4.414063 3.57421875-8 7.99999975-8 4.414063 0 8 3.578125 8 8l.007813 55.976562c0 4.417969-3.578125 8-8 8zm0 0"/><path d="m16.011719 512.003906c-8.824219 0-16.0000002-7.175781-16.0000002-16 0-4.425781 3.5742192-8 8.0000002-8 4.421875 0 8 3.574219 8 8v.015625c4.421875 0 8 3.570313 8 7.992188 0 4.417969-3.578125 7.992187-8 7.992187zm0 0"/><path d="m320.003906 512.003906c-4.425781 0-8-3.574218-8-8 0-4.425781 3.574219-8 8-8h.015625c0-4.425781 3.566407-8 7.992188-8 4.414062 0 7.992187 3.574219 7.992187 8 0 8.824219-7.179687 16-16 16zm0 0"/><path d="m328.003906 504.003906c-4.425781 0-8-3.574218-8-8v-55.984375c0-4.421875 3.574219-8 8-8 4.421875 0 8 3.578125 8 8v55.984375c0 4.425782-3.578125 8-8 8zm0 0"/><path d="m320.003906 512.003906h-303.992187c-4.425781 0-8-3.574218-8-8 0-4.425781 3.574219-8 8-8h303.992187c4.421875 0 8 3.574219 8 8 0 4.425782-3.578125 8-8 8zm0 0"/><path d="m120.003906 400.019531c-4.425781 0-8-3.574219-8-8v-42c0-4.421875 3.574219-8 8-8 4.421875 0 8 3.578125 8 8v42c0 4.425781-3.578125 8-8 8zm0 0"/><path d="m216.003906 400.011719c-4.425781 0-8-3.574219-8-8v-41.992188c0-4.421875 3.574219-8 8-8 4.421875 0 8 3.578125 8 8v41.992188c0 4.425781-3.578125 8-8 8zm0 0"/><path d="m168.003906 368.011719c-70.578125 0-128-57.421875-128-128 0-4.414063 3.574219-8 8-8 4.421875 0 8 3.585937 8 8 0 61.761719 50.238282 112 112 112 61.757813 0 112-50.238281 112-112 0-4.414063 3.574219-8 8-8 4.421875 0 8 3.585937 8 8 0 70.578125-57.425781 128-128 128zm0 0"/><path d="m296.003906 192.003906c-4.425781 0-8-3.582031-8-8 0-24.214844-7.179687-47.550781-20.761718-67.480468-2.496094-3.648438-1.542969-8.625 2.105468-11.113282 3.664063-2.476562 8.628906-1.542968 11.117188 2.105469 15.394531 22.59375 23.539062 49.039063 23.539062 76.488281 0 4.417969-3.578125 8-8 8zm0 0"/><path d="m40.003906 192.003906c-4.425781 0-8-3.582031-8-8 0-20.863281 4.597656-40.878906 13.671875-59.503906 2.863281-5.871094 6.183594-11.59375 9.863281-17 2.503907-3.648438 7.472657-4.601562 11.117188-2.113281 3.65625 2.488281 4.601562 7.464843 2.121094 11.113281-3.253906 4.785156-6.183594 9.832031-8.71875 15.007812-8 16.425782-12.054688 34.082032-12.054688 52.496094 0 4.417969-3.578125 8-8 8zm0 0"/><path d="m296.003906 248.003906c-4.425781 0-8-3.582031-8-8v-56c0-4.414062 3.574219-8 8-8 4.421875 0 8 3.585938 8 8v56c0 4.417969-3.578125 8-8 8zm0 0"/><path d="m40.003906 248.011719c-4.425781 0-8-3.582031-8-8v-56.007813c0-4.414062 3.574219-8 8-8 4.421875 0 8 3.585938 8 8v56.007813c0 4.417969-3.578125 8-8 8zm0 0"/><path d="m231.992188 183.988281c-39.695313 0-71.988282-32.296875-71.988282-71.992187 0-4.417969 3.574219-8 8-8 4.421875 0 8 3.582031 8 8 0 30.871094 25.117188 55.992187 55.988282 55.992187 4.425781 0 8 3.582031 8 8 0 4.414063-3.574219 8-8 8zm0 0"/><path d="m296.25 248.011719c-22.0625 0-40.007812-17.953125-40.007812-40.007813 0-4.414062 3.574218-8 8-8 4.421874 0 8 3.585938 8 8 0 13.238282 10.777343 24.007813 24.007812 24.007813 4.425781 0 8 3.585937 8 8 0 4.417969-3.574219 8-8 8zm0 0"/><path d="m263.992188 216.003906c-4.421876 0-8-3.582031-8-8 0-13.230468-10.765626-24-24-24-4.421876 0-8-3.582031-8-8 0-4.414062 3.578124-8 8-8 22.058593 0 40 17.945313 40 40 0 4.417969-3.574219 8-8 8zm0 0"/><path d="m104.128906 183.988281c-4.421875 0-8-3.585937-8-8 0-4.417969 3.578125-8 8-8 30.875 0 55.992188-25.121093 55.992188-55.992187 0-4.417969 3.578125-8 8-8 4.425781 0 8 3.582031 8 8 0 39.695312-32.296875 71.992187-71.992188 71.992187zm0 0"/><path d="m39.867188 248.011719c-4.425782 0-8-3.582031-8-8 0-4.414063 3.574218-8 8-8 13.230468 0 24.007812-10.769531 24.007812-24.007813 0-4.414062 3.574219-8 8-8 4.421875 0 8 3.585938 8 8 0 22.054688-17.945312 40.007813-40.007812 40.007813zm0 0"/><path d="m72.128906 216.003906c-4.421875 0-8-3.582031-8-8 0-22.054687 17.945313-40 40-40 4.425782 0 8 3.585938 8 8 0 4.417969-3.574218 8-8 8-13.230468 0-24 10.769532-24 24 0 4.417969-3.582031 8-8 8zm0 0"/><path d="m48.003906 248.011719c-4.425781 0-8-3.582031-8-8v-1.046875c0-4.417969 3.574219-8 8-8 4.421875 0 8 3.582031 8 8v1.046875c0 4.417969-3.578125 8-8 8zm0 0"/><path d="m288.003906 248.011719c-4.394531 0-7.96875-3.542969-8-7.945313l-.011718-1.078125c-.03125-4.417969 3.523437-8.023437 7.945312-8.054687h.054688c4.394531 0 7.96875 3.542968 8 7.941406l.011718 1.082031c.03125 4.414063-3.523437 8.023438-7.945312 8.054688-.015625 0-.039063 0-.054688 0zm0 0"/><path d="m167.992188 448.019531c-83.328126 0-117.230469-49.472656-118.628907-51.566406-2.457031-3.679687-1.457031-8.648437 2.214844-11.097656s8.632813-1.457031 11.085937 2.207031c1.355469 1.984375 31.144532 44.457031 105.328126 44.457031 74.851562 0 105.058593-43.992187 105.355468-44.441406 2.4375-3.671875 7.421875-4.660156 11.09375-2.214844 3.679688 2.457031 4.671875 7.425781 2.214844 11.097657-1.40625 2.101562-35.34375 51.558593-118.664062 51.558593zm0 0"/><path d="m167.992188 480.019531c-100.167969 0-143.46875-63.136719-145.261719-65.824219-2.457031-3.679687-1.464844-8.648437 2.207031-11.101562 3.679688-2.449219 8.640625-1.457031 11.105469 2.207031 1.589843 2.398438 40.246093 58.710938 131.949219 58.710938 91.851562 0 130.378906-56.289063 131.976562-58.679688 2.449219-3.6875 7.417969-4.703125 11.089844-2.222656 3.679687 2.445313 4.679687 7.414063 2.222656 11.085937-1.785156 2.6875-44.960938 65.824219-145.289062 65.824219zm0 0"/><path d="m306.617188 417.773438c-1.734376 0-3.480469-.5625-4.941407-1.722657-3.472656-2.734375-4.066406-7.765625-1.328125-11.230469l4.949219-6.28125c2.746094-3.464843 7.769531-4.0625 11.234375-1.328124 3.460938 2.738281 4.0625 7.769531 1.328125 11.234374l-4.953125 6.277344c-1.578125 2-3.921875 3.050782-6.289062 3.050782zm0 0"/><path d="m29.394531 417.757812c-2.402343 0-4.769531-1.074218-6.335937-3.113281l-4.753906-6.152343c-2.703126-3.503907-2.0625-8.519532 1.441406-11.214844 3.503906-2.714844 8.535156-2.050782 11.214844 1.4375l4.753906 6.152344c2.703125 3.503906 2.0625 8.519531-1.441406 11.21875-1.449219 1.117187-3.175782 1.671874-4.878907 1.671874zm0 0"/><path d="m279.992188 120.003906h-223.988282c-4.425781 0-8-3.582031-8-8 0-4.414062 3.574219-8 8-8h223.988282c4.425781 0 8 3.585938 8 8 0 4.417969-3.574219 8-8 8zm0 0"/><path d="m56.011719 120.003906c-.441407 0-.875-.03125-1.320313-.113281-4.363281-.726563-7.304687-4.847656-6.578125-9.207031l8-48c.722657-4.359375 4.832031-7.328125 9.199219-6.574219 4.363281.726563 7.304688 4.847656 6.578125 9.207031l-8 48c-.648437 3.910156-4.039063 6.6875-7.878906 6.6875zm0 0"/><path d="m279.984375 120.003906c-3.839844 0-7.230469-2.777344-7.878906-6.679687l-8-48c-.726563-4.359375 2.214843-8.480469 6.578125-9.207031 4.335937-.746094 8.476562 2.214843 9.199218 6.574218l8 48c.726563 4.359375-2.21875 8.480469-6.578124 9.207032-.445313.074218-.878907.105468-1.320313.105468zm0 0"/><path d="m92.675781 76.539062c-9.363281 0-19.648437-1.480468-30.96875-4.871093-4.234375-1.273438-6.632812-5.726563-5.367187-9.960938 1.261718-4.230469 5.695312-6.65625 9.957031-5.367187 71.257813 21.382812 93.152344-47.703125 94.050781-50.648438 1.277344-4.222656 5.742188-6.605468 9.964844-5.335937 4.226562 1.273437 6.617188 5.71875 5.351562 9.945312-.222656.765625-20.703124 66.238281-82.988281 66.238281zm0 0"/><path d="m243.328125 76.539062c-62.292969 0-82.765625-65.472656-82.988281-66.238281-1.265625-4.234375 1.132812-8.6875 5.367187-9.960937 4.246094-1.273438 8.6875 1.136718 9.957031 5.367187.898438 2.9375 22.816407 72.03125 94.042969 50.632813 4.238281-1.265625 8.695313 1.136718 9.957031 5.367187 1.265626 4.234375-1.132812 8.6875-5.367187 9.960938-11.3125 3.390625-21.613281 4.871093-30.96875 4.871093zm0 0"/><path d="m144.242188 416.003906c-4.425782 0-8.039063-3.574218-8.039063-8 0-4.425781 3.535156-8 7.949219-8h.089844c4.414062 0 8 3.574219 8 8 0 4.425782-3.585938 8-8 8zm0 0"/><path d="m168.242188 424.003906c-4.425782 0-8.039063-3.574218-8.039063-8 0-4.425781 3.535156-8 7.949219-8h.089844c4.414062 0 8 3.574219 8 8 0 4.425782-3.585938 8-8 8zm0 0"/><path d="m192.242188 416.003906c-4.425782 0-8.039063-3.574218-8.039063-8 0-4.425781 3.535156-8 7.949219-8h.089844c4.414062 0 8 3.574219 8 8 0 4.425782-3.585938 8-8 8zm0 0"/><path d="m168.242188 88.003906c-4.425782 0-8.039063-3.582031-8.039063-8 0-4.414062 3.535156-8 7.949219-8h.089844c4.414062 0 8 3.585938 8 8 0 4.417969-3.585938 8-8 8zm0 0"/></svg>