<svg height="512pt" viewBox="0 -24 512 512" width="512pt" xmlns="http://www.w3.org/2000/svg"><path d="m376 351.921875c0-66.242187-53.761719-120-120-120s-120 53.757813-120 120v56.078125h-.71875c-2.402344-14.320312-11.203125-26.550781-23.28125-33.59375v-22.484375c0-79.441406 64.480469-144 144-144s144 64.558594 144 144v22.484375c-12.078125 7.042969-20.878906 19.273438-23.28125 33.59375h-.71875zm0 0" fill="#5d9cec"/><path d="m256 183.921875c92.800781 0 168 75.277344 168 168v16.078125c-8.71875 0-16.960938 2.320312-24 6.40625v-22.484375c0-79.441406-64.480469-144-144-144s-144 64.558594-144 144v22.484375c-7.121094-4.085938-15.28125-6.40625-24-6.40625v-16.078125c0-92.722656 75.199219-168 168-168zm0 0" fill="#48cfad"/><path d="m424 351.921875c0-92.722656-75.199219-168-168-168s-168 75.277344-168 168v16.078125c-8.71875 0-16.960938 2.320312-24 6.40625v-22.484375c0-106 86-192 192-192s192 86 192 192v22.484375c-7.039062-4.085938-15.28125-6.40625-24-6.40625zm0 0" fill="#ffce54"/><path d="m256 135.921875c119.28125 0 216 96.71875 216 216v40.078125h-6.480469c-4.238281-7.273438-10.238281-13.359375-17.519531-17.59375v-22.484375c0-106-86-192-192-192s-192 86-192 192v22.484375c-7.28125 4.234375-13.28125 10.320312-17.519531 17.59375h-6.480469v-40.078125c0-119.28125 96.71875-216 216-216zm0 0" fill="#ed5565"/><path d="m448 374.40625c7.28125 4.234375 13.28125 10.320312 17.519531 17.59375h6.480469c17.679688 0 32 14.320312 32 32 0 17.601562-14.320312 32-32 32h-104c-13.28125 0-24-10.800781-24-24 0-13.273438 10.71875-24 24-24h8.71875c2.402344-14.320312 11.203125-26.550781 23.28125-33.59375 7.039062-4.085938 15.28125-6.40625 24-6.40625s16.960938 2.320312 24 6.40625zm0 0" fill="#e6e9ed"/><path d="m46.480469 392c4.238281-7.273438 10.238281-13.359375 17.519531-17.59375 7.039062-4.085938 15.28125-6.40625 24-6.40625s16.878906 2.320312 24 6.40625c12.078125 7.042969 20.878906 19.273438 23.28125 33.59375h8.71875c13.28125 0 24 10.726562 24 24 0 13.199219-10.71875 24-24 24h-104c-17.679688 0-32-14.398438-32-32 0-17.679688 14.320312-32 32-32zm0 0" fill="#e6e9ed"/><path d="m72 48c13.28125 0 24 10.726562 24 24 0 13.199219-10.71875 24-24 24s-24-10.800781-24-24c0-13.273438 10.71875-24 24-24zm0 0" fill="#ffce54"/><path d="m144 464h-104c-22.054688 0-40-17.945312-40-40s17.945312-40 40-40h2.089844c10.421875-14.910156 27.605468-24 45.910156-24 25.105469 0 46.671875 16.464844 53.632812 40h2.367188c17.648438 0 32 14.351562 32 32s-14.351562 32-32 32zm-104-64c-13.230469 0-24 10.769531-24 24s10.769531 24 24 24h104c8.824219 0 16-7.175781 16-16s-7.175781-16-16-16h-8.71875c-3.90625 0-7.242188-2.824219-7.890625-6.671875-3.246094-19.3125-19.824219-33.328125-39.390625-33.328125-14.191406 0-27.464844 7.664062-34.609375 20.007812-1.429687 2.472657-4.070313 3.992188-6.917969 3.992188zm0 0"/><path d="m472 464h-104c-17.648438 0-32-14.351562-32-32s14.351562-32 32-32h2.367188c6.960937-23.535156 28.527343-40 53.632812-40 18.304688 0 35.496094 9.089844 45.910156 24h2.089844c22.054688 0 40 17.945312 40 40s-17.945312 40-40 40zm-104-48c-8.824219 0-16 7.175781-16 16s7.175781 16 16 16h104c13.230469 0 24-10.769531 24-24s-10.769531-24-24-24h-6.472656c-2.847656 0-5.496094-1.519531-6.917969-3.992188-7.144531-12.34375-20.417969-20.007812-34.609375-20.007812-19.566406 0-36.144531 14.015625-39.390625 33.328125-.648437 3.847656-3.984375 6.671875-7.890625 6.671875zm0 0"/><path d="m472 359.992188c-4.425781 0-8-3.578126-8-8 0-114.695313-93.304688-208-208-208s-208 93.304687-208 208c0 4.421874-3.574219 8-8 8s-8-3.578126-8-8c0-123.511719 100.488281-224 224-224s224 100.488281 224 224c0 4.421874-3.574219 8-8 8zm0 0"/><path d="m448 359.992188c-4.425781 0-8-3.578126-8-8 0-101.464844-82.535156-184-184-184s-184 82.535156-184 184c0 4.421874-3.574219 8-8 8s-8-3.578126-8-8c0-110.28125 89.71875-200 200-200s200 89.71875 200 200c0 4.421874-3.574219 8-8 8zm0 0"/><path d="m424 359.992188c-4.425781 0-8-3.578126-8-8 0-88.222657-71.777344-160-160-160s-160 71.777343-160 160c0 4.421874-3.574219 8-8 8s-8-3.578126-8-8c0-97.046876 78.953125-176 176-176s176 78.953124 176 176c0 4.421874-3.574219 8-8 8zm0 0"/><path d="m400 359.992188c-4.425781 0-8-3.578126-8-8 0-74.992188-61.007812-136-136-136s-136 61.007812-136 136c0 4.421874-3.574219 8-8 8s-8-3.578126-8-8c0-83.816407 68.183594-152 152-152s152 68.183593 152 152c0 4.421874-3.574219 8-8 8zm0 0"/><path d="m376 359.992188c-4.425781 0-8-3.578126-8-8 0-61.761719-50.238281-112-112-112s-112 50.238281-112 112c0 4.421874-3.574219 8-8 8s-8-3.578126-8-8c0-70.578126 57.425781-128 128-128s128 57.421874 128 128c0 4.421874-3.574219 8-8 8zm0 0"/><path d="m40 400c-4.425781 0-8-3.574219-8-8v-40.007812c0-4.425782 3.574219-8 8-8s8 3.574218 8 8v40.007812c0 4.425781-3.574219 8-8 8zm0 0"/><path d="m64 382.457031c-4.425781 0-8-3.578125-8-8v-22.464843c0-4.425782 3.574219-8 8-8s8 3.574218 8 8v22.464843c0 4.414063-3.574219 8-8 8zm0 0"/><path d="m88 376c-4.425781 0-8-3.574219-8-8v-16.007812c0-4.425782 3.574219-8 8-8s8 3.574218 8 8v16.007812c0 4.425781-3.574219 8-8 8zm0 0"/><path d="m112 382.449219c-4.425781 0-8-3.578125-8-8v-22.457031c0-4.425782 3.574219-8 8-8s8 3.574218 8 8v22.457031c0 4.414062-3.574219 8-8 8zm0 0"/><path d="m136 416c-4.425781 0-8-3.574219-8-8v-56.007812c0-4.425782 3.574219-8 8-8s8 3.574218 8 8v56.007812c0 4.425781-3.574219 8-8 8zm0 0"/><path d="m472 400c-4.425781 0-8-3.574219-8-8v-40.007812c0-4.425782 3.574219-8 8-8s8 3.574218 8 8v40.007812c0 4.425781-3.574219 8-8 8zm0 0"/><path d="m448 382.457031c-4.425781 0-8-3.578125-8-8v-22.464843c0-4.425782 3.574219-8 8-8s8 3.574218 8 8v22.464843c0 4.414063-3.574219 8-8 8zm0 0"/><path d="m424 376c-4.425781 0-8-3.574219-8-8v-16.007812c0-4.425782 3.574219-8 8-8s8 3.574218 8 8v16.007812c0 4.425781-3.574219 8-8 8zm0 0"/><path d="m400 382.449219c-4.425781 0-8-3.578125-8-8v-22.457031c0-4.425782 3.574219-8 8-8s8 3.574218 8 8v22.457031c0 4.414062-3.574219 8-8 8zm0 0"/><path d="m376 416c-4.425781 0-8-3.574219-8-8v-56.007812c0-4.425782 3.574219-8 8-8s8 3.574218 8 8v56.007812c0 4.425781-3.574219 8-8 8zm0 0"/><path d="m463.992188 135.96875c-1.214844 0-2.457032-.273438-3.601563-.855469-3.917969-1.992187-5.511719-6.753906-3.542969-10.6875.410156-.839843 10.449219-20.425781 31.152344-20.425781 4.425781 0 8 3.574219 8 8s-3.574219 8-8 8c-10.734375 0-16.808594 11.503906-16.863281 11.625-1.425781 2.757812-4.242188 4.34375-7.144531 4.34375zm0 0"/><path d="m464 136c-3.351562 0-6.472656-2.121094-7.585938-5.472656-6.742187-20.214844-19.519531-27.128906-20.0625-27.414063-3.878906-2.042969-5.441406-6.839843-3.441406-10.753906 2-3.894531 6.722656-5.496094 10.664063-3.519531.777343.390625 19.066406 9.792968 28.011719 36.625 1.398437 4.191406-.867188 8.726562-5.058594 10.121094-.839844.277343-1.695313.414062-2.527344.414062zm0 0"/><path d="m72 104c-17.648438 0-32-14.351562-32-32s14.351562-32 32-32 32 14.351562 32 32-14.351562 32-32 32zm0-48c-8.824219 0-16 7.175781-16 16s7.175781 16 16 16 16-7.175781 16-16-7.175781-16-16-16zm0 0"/><path d="m72 32c-4.425781 0-8-3.574219-8-8v-16c0-4.425781 3.574219-8 8-8s8 3.574219 8 8v16c0 4.425781-3.574219 8-8 8zm0 0"/><path d="m72 144c-4.425781 0-8-3.574219-8-8v-16c0-4.425781 3.574219-8 8-8s8 3.574219 8 8v16c0 4.425781-3.574219 8-8 8zm0 0"/><path d="m38.054688 46.0625c-2.046876 0-4.09375-.78125-5.65625-2.34375l-11.308594-11.3125c-3.128906-3.125-3.128906-8.183594 0-11.308594 3.125-3.128906 8.183594-3.128906 11.308594 0l11.3125 11.308594c3.128906 3.128906 3.128906 8.1875 0 11.3125-1.558594 1.5625-3.605469 2.34375-5.65625 2.34375zm0 0"/><path d="m117.257812 125.246094c-2.050781 0-4.097656-.78125-5.65625-2.34375l-11.3125-11.308594c-3.128906-3.128906-3.128906-8.1875 0-11.3125 3.125-3.128906 8.183594-3.128906 11.3125 0l11.308594 11.3125c3.128906 3.125 3.128906 8.183594 0 11.308594-1.558594 1.570312-3.605468 2.34375-5.652344 2.34375zm0 0"/><path d="m24.007812 80h-16c-4.421874 0-7.9999995-3.574219-7.9999995-8s3.5781255-8 7.9999995-8h16c4.425782 0 8 3.574219 8 8s-3.574218 8-8 8zm0 0"/><path d="m136 79.992188h-16c-4.425781 0-8-3.578126-8-8 0-4.425782 3.574219-8 8-8h16c4.425781 0 8 3.574218 8 8 0 4.421874-3.574219 8-8 8zm0 0"/><path d="m26.761719 125.246094c-2.050781 0-4.097657-.78125-5.65625-2.34375-3.128907-3.125-3.128907-8.183594 0-11.308594l11.308593-11.3125c3.128907-3.128906 8.1875-3.128906 11.3125 0 3.128907 3.125 3.128907 8.183594 0 11.3125l-11.3125 11.308594c-1.566406 1.570312-3.605468 2.34375-5.652343 2.34375zm0 0"/><path d="m105.9375 46.054688c-2.050781 0-4.097656-.78125-5.65625-2.34375-3.128906-3.125-3.128906-8.183594 0-11.3125l11.320312-11.320313c3.125-3.125 8.183594-3.125 11.308594 0 3.128906 3.128906 3.128906 8.1875 0 11.3125l-11.316406 11.320313c-1.5625 1.5625-3.609375 2.34375-5.65625 2.34375zm0 0"/><path d="m360.007812 72c-3.023437 0-5.917968-1.71875-7.273437-4.648438-1.847656-4.015624-.09375-8.765624 3.914063-10.617187 4.441406-2.046875 19.535156-8.734375 27.351562-8.734375 4.425781 0 8 3.574219 8 8s-3.574219 8-8 8c-2.609375 0-12.257812 3.398438-20.648438 7.265625-1.085937.503906-2.222656.734375-3.34375.734375zm0 0"/><path d="m360.007812 72c-2.582031 0-5.121093-1.246094-6.65625-3.550781-.105468-.152344-9.878906-14.632813-21.472656-21.585938-3.789062-2.269531-5.015625-7.183593-2.742187-10.976562 2.261719-3.789063 7.175781-5.023438 10.976562-2.742188 14.710938 8.824219 26.0625 25.710938 26.535157 26.421875 2.449218 3.671875 1.457031 8.632813-2.207032 11.089844-1.363281.902344-2.914062 1.34375-4.433594 1.34375zm0 0"/></svg>