<svg height="512pt" viewBox="-16 0 512 512.00283" width="512pt" xmlns="http://www.w3.org/2000/svg"><g fill="#ec87c0"><path d="m104.003906 158.601562c29.121094-16.957031 61.523438-28.878906 96-34.640624l1.523438.800781c-7.84375 14.882812-15.050782 32.488281-19.921875 52.5625-71.199219 20.398437-128.808594 72.878906-156.238281 140.796875-17.363282-39.359375-17.363282-69.359375-17.363282-69.359375 6-8.957031 12.402344-17.589844 19.441406-25.832031 10.71875-12.878907 22.640626-24.808594 35.519532-35.445313 12.800781-10.882813 26.480468-20.5625 41.039062-28.882813zm0 0"/><path d="m392.003906 8.042969-43.199218 91.441406-21.4375-11.601563zm0 0"/><path d="m348.804688 99.484375-17.917969 38.078125-30.320313-16.480469 26.800782-33.199219zm0 0"/><path d="m330.886719 137.5625-18.882813 40-1.757812 2.878906-38.480469-23.757812.238281-.402344 28.5625-35.199219zm0 0"/></g><path d="m264.003906 151.960938 7.761719 4.722656 38.488281 23.757812 161.75 99.601563-31.917968 40.167969-123.121094-24.726563c-16.167969 15.519531-37.917969 24.558594-60.960938 24.558594v.167969c0 36.640624 10.722656 70.800781 29.121094 99.441406 31.679688 49.199218 86.242188 82.320312 148.558594 84.320312-279.117188-1.523437-375.277344-110.800781-408.316406-185.84375 27.4375-67.910156 85.039062-120.398437 156.238281-140.796875 4.871093-20.082031 12.078125-37.679687 19.921875-52.5625 20.878906-39.765625 46.476562-60.726562 46.476562-60.726562zm0 0" fill="#e6e9ed"/><path d="m285.125 419.644531c-18.398438-28.640625-29.121094-62.800781-29.121094-99.441406v-.167969c20.3125 0-8.957031 0-32 0v.167969c0 36.640625 10.722656 70.800781 29.121094 99.441406 20.296875 31.519531 51.082031 61.328125 86.945312 79.238281 28.679688 3.097657 59.78125 4.886719 93.613282 5.078126-62.316406-2-116.878906-35.117188-148.558594-84.316407zm0 0" fill="#ccd1d9"/><path d="m310.246094 180.441406-38.488282-23.757812-7.753906-4.722656-16-87.917969s-6.351562 5.246093-15.246094 15.3125l14.96875 82.238281 30.519532 18.839844 169.421875 103.570312-25.597657 32.582032 18.015626 3.617187 31.917968-40.160156zm0 0" fill="#ccd1d9"/><path d="m264.246094 224.003906c-4.425782 0-8.039063-3.585937-8.039063-8 0-4.417968 3.535157-8 7.949219-8h.089844c4.414062 0 8 3.582032 8 8 0 4.414063-3.585938 8-8 8zm0 0"/><path d="m256.140625 328.003906c-7.277344 0-14.625-.832031-21.902344-2.527344-20.664062-4.824218-38.722656-16-52.199219-32.335937-2.816406-3.410156-2.328124-8.457031 1.078126-11.265625 3.417968-2.808594 8.449218-2.320312 11.265624 1.078125 11.222657 13.609375 26.269532 22.921875 43.503907 26.945313 26.398437 6.167968 53.910156-1.382813 73.566406-20.191407 3.167969-3.054687 8.25-2.953125 11.3125.246094 3.054687 3.195313 2.945313 8.257813-.25 11.3125-18.167969 17.371094-41.925781 26.738281-66.375 26.738281zm0 0"/><path d="m440.070312 328.210938c-.519531 0-1.058593-.046876-1.585937-.160157l-123.085937-24.734375c-4.328126-.867187-7.136719-5.089844-6.265626-9.425781.863282-4.328125 5.097657-7.160156 9.425782-6.265625l123.085937 24.738281c4.328125.863281 7.136719 5.085938 6.265625 9.421875-.769531 3.800782-4.105468 6.425782-7.839844 6.425782zm0 0"/><path d="m471.996094 288.003906c-1.429688 0-2.871094-.386718-4.183594-1.183594l-208-128c-3.757812-2.320312-4.925781-7.242187-2.613281-11 2.300781-3.769531 7.214843-4.945312 11.007812-2.625l208 128c3.757813 2.3125 4.925781 7.238282 2.613281 11.007813-1.511718 2.449219-4.136718 3.800781-6.824218 3.800781zm0 0"/><path d="m181.597656 185.308594c-.632812 0-1.273437-.074219-1.902344-.234375-4.296874-1.046875-6.921874-5.375-5.875-9.671875 18.441407-75.390625 67.058594-115.902344 69.121094-117.589844 3.417969-2.800781 8.449219-2.296875 11.25 1.109375 2.796875 3.410156 2.300782 8.449219-1.105468 11.257813-.464844.375-46.609376 39.039062-63.71875 109.023437-.898438 3.65625-4.167969 6.105469-7.769532 6.105469zm0 0"/><path d="m263.996094 160.003906c-3.796875 0-7.167969-2.703125-7.855469-6.570312l-16-88c-.800781-4.34375 2.089844-8.511719 6.441406-9.304688 4.34375-.757812 8.511719 2.089844 9.296875 6.441406l16 88c.796875 4.34375-2.089844 8.511719-6.441406 9.304688-.488281.085938-.960938.128906-1.441406.128906zm0 0"/><path d="m440.054688 328.210938c-1.746094 0-3.503907-.566407-4.96875-1.734376-3.464844-2.753906-4.039063-7.785156-1.289063-11.242187l31.945313-40.207031c2.75-3.449219 7.785156-4.023438 11.238281-1.289063 3.464843 2.753907 4.042969 7.785157 1.289062 11.242188l-31.945312 40.207031c-1.574219 1.984375-3.910157 3.023438-6.269531 3.023438zm0 0"/><path d="m439.796875 512.003906c-65.542969 0-125.863281-32.898437-161.359375-88.015625-19.910156-30.914062-30.433594-66.800781-30.433594-103.777343 0-4.425782 3.578125-8 8-8 4.425782 0 8 3.574218 8 8 0 33.894531 9.640625 66.792968 27.882813 95.121093 32.535156 50.511719 87.824219 80.671875 147.910156 80.671875 4.425781 0 8 3.574219 8 8 0 4.421875-3.582031 8-8 8zm0 0"/><path d="m25.398438 326.140625c-1 0-2.015626-.1875-2.992188-.578125-4.105469-1.65625-6.082031-6.320312-4.433594-10.414062 28.359375-70.234376 88.695313-124.632813 161.410156-145.523438 4.292969-1.246094 8.679688 1.242188 9.894532 5.480469 1.214844 4.25-1.230469 8.679687-5.480469 9.898437-68.015625 19.542969-124.464844 70.429688-150.984375 136.136719-1.253906 3.101563-4.253906 5-7.414062 5zm0 0"/><path d="m7.996094 256.722656c-1.519532 0-3.0625-.433594-4.421875-1.335937-3.679688-2.449219-4.679688-7.40625-2.234375-11.085938 45.226562-68.019531 117.160156-114.746093 197.34375-128.195312 4.328125-.71875 8.480468 2.210937 9.210937 6.570312.726563 4.359375-2.210937 8.488281-6.570312 9.214844-75.832031 12.703125-143.871094 56.914063-186.65625 121.265625-1.535157 2.3125-4.085938 3.566406-6.671875 3.566406zm0 0"/><path d="m154.972656 160.410156c-3.261718 0-6.335937-2.015625-7.511718-5.269531l-5.472657-15.042969c-1.511719-4.152344.632813-8.742187 4.785157-10.253906 4.175781-1.503906 8.742187.632812 10.25 4.78125l5.46875 15.042969c1.511718 4.152343-.628907 8.742187-4.78125 10.253906-.90625.335937-1.832032.488281-2.738282.488281zm0 0"/><path d="m112.011719 180.441406c-2.765625 0-5.453125-1.429687-6.933594-4l-7.992187-13.847656c-2.207032-3.832031-.894532-8.71875 2.925781-10.925781 3.816406-2.21875 8.722656-.90625 10.929687 2.925781l7.992188 13.847656c2.207031 3.832032.894531 8.722656-2.929688 10.929688-1.253906.726562-2.628906 1.070312-3.992187 1.070312zm0 0"/><path d="m73.171875 207.636719c-2.285156 0-4.550781-.976563-6.140625-2.859375l-10.273438-12.253906c-2.832031-3.382813-2.390624-8.433594.992188-11.273438 3.398438-2.832031 8.441406-2.382812 11.273438.992188l10.269531 12.257812c2.832031 3.382812 2.390625 8.429688-.992188 11.269531-1.488281 1.25-3.3125 1.867188-5.128906 1.867188zm0 0"/><path d="m39.636719 241.164062c-1.816407 0-3.632813-.617187-5.136719-1.875l-12.246094-10.277343c-3.382812-2.839844-3.832031-7.890625-.984375-11.273438 2.832031-3.367187 7.871094-3.832031 11.265625-.984375l12.246094 10.28125c3.382812 2.839844 3.832031 7.886719.984375 11.273438-1.574219 1.878906-3.839844 2.855468-6.128906 2.855468zm0 0"/><path d="m271.996094 164.265625c-1.765625 0-3.542969-.582031-5.023438-1.78125-3.4375-2.785156-3.96875-7.816406-1.183594-11.25l120-148.261719c2.777344-3.433594 7.824219-3.976562 11.25-1.1875 3.4375 2.785156 3.964844 7.816406 1.183594 11.25l-120 148.265625c-1.578125 1.949219-3.890625 2.964844-6.226562 2.964844zm0 0"/><path d="m311.996094 185.59375c-1.144532 0-2.300782-.246094-3.40625-.765625-3.992188-1.882813-5.703125-6.65625-3.824219-10.648437l80-169.59375c1.878906-3.992188 6.65625-5.695313 10.648437-3.824219 3.992188 1.882812 5.703126 6.65625 3.824219 10.648437l-80 169.59375c-1.367187 2.894532-4.242187 4.589844-7.242187 4.589844zm0 0"/><path d="m330.863281 145.570312c-1.289062 0-2.601562-.3125-3.816406-.976562l-30.34375-16.503906c-3.882813-2.109375-5.320313-6.96875-3.210937-10.847656 2.113281-3.878907 6.984374-5.328126 10.847656-3.207032l30.34375 16.503906c3.882812 2.113282 5.320312 6.96875 3.210937 10.847657-1.441406 2.671875-4.191406 4.183593-7.03125 4.183593zm0 0"/><path d="m348.789062 107.5c-1.289062 0-2.597656-.3125-3.816406-.976562l-21.414062-11.648438c-3.882813-2.113281-5.320313-6.96875-3.210938-10.847656 2.113282-3.871094 6.984375-5.320313 10.851563-3.199219l21.414062 11.648437c3.878907 2.109376 5.320313 6.964844 3.207031 10.847657-1.445312 2.664062-4.199218 4.175781-7.03125 4.175781zm0 0"/></svg>