<svg id="icons" enable-background="new 0 0 64 64" height="512" viewBox="0 0 64 64" width="512" xmlns="http://www.w3.org/2000/svg"><path d="m13.511 26.189c-1.54 1.45-2.49 3.51-2.49 5.79s.95 4.34 2.49 5.79c-.689.72-1.38 1.65-2.01 2.71-4.83-1.22-10.48-4.57-10.48-8.5s5.65-7.28 10.48-8.5c.63 1.06 1.32 1.991 2.01 2.71z" fill="#8cc152"/><path d="m40.521 11.45.011.01c-1.07.629-2 1.319-2.721 2.01-1.449-1.54-3.51-2.49-5.79-2.49-2.279 0-4.34.95-5.79 2.49-.72-.69-1.649-1.381-2.71-2.01 1.221-4.83 4.57-10.48 8.5-10.48 3.93-.001 7.28 5.65 8.5 10.47z" fill="#8cc152"/><path d="m25.031 48.859c.33.601.729 1.14 1.199 1.63-.72.69-1.649 1.38-2.71 2.01-4.279 2.551-10.64 4.181-13.42 1.4-2.779-2.78-1.149-9.14 1.4-13.42.63-1.06 1.32-1.99 2.01-2.71.49.47 1.03.87 1.63 1.2-.77 2.7-.1 5.729 2.03 7.859 2.131 2.132 5.161 2.802 7.861 2.031z" fill="#a0d468"/><path d="m26.23 13.47c-.47.49-.869 1.029-1.199 1.63-2.71-.771-5.73-.101-7.86 2.03-2.13 2.129-2.8 5.16-2.03 7.859-.6.33-1.14.73-1.63 1.2-.689-.72-1.38-1.65-2.01-2.71-2.55-4.279-4.18-10.641-1.4-13.42 2.78-2.78 9.141-1.15 13.42 1.4 1.06.63 1.99 1.32 2.709 2.011z" fill="#a0d468"/><path d="m52.5 23.521c4.83 1.22 10.479 4.57 10.479 8.5s-5.649 7.28-10.479 8.5c-.63-1.06-1.32-1.99-2.01-2.71 1.54-1.45 2.489-3.51 2.489-5.79s-.949-4.34-2.489-5.79c.69-.72 1.38-1.651 2.01-2.71z" fill="#8cc152"/><path d="m53.94 10.06c2.78 2.779 1.15 9.141-1.399 13.42-.63 1.06-1.32 1.99-2.01 2.71-.49-.47-1.03-.87-1.631-1.2.771-2.699.101-5.73-2.029-7.859-2.13-2.131-5.16-2.801-7.86-2.03-.33-.601-.729-1.14-1.2-1.63.721-.69 1.65-1.381 2.721-2.01 4.279-2.552 10.629-4.182 13.408-1.401z" fill="#a0d468"/><path d="m52.541 40.479c2.55 4.28 4.18 10.64 1.399 13.42-2.779 2.78-9.14 1.15-13.42-1.4-1.06-.63-1.989-1.319-2.71-2.01.471-.49.87-1.029 1.2-1.63 2.7.771 5.73.101 7.86-2.03 2.13-2.13 2.8-5.149 2.029-7.859.601-.33 1.141-.73 1.631-1.2.691.719 1.381 1.65 2.011 2.709z" fill="#a0d468"/><path d="m37.77 50.53c.721.69 1.65 1.38 2.71 2.01-1.22 4.83-4.569 10.48-8.5 10.48-3.93 0-7.279-5.65-8.5-10.48 1.061-.63 1.99-1.319 2.71-2.01 1.45 1.54 3.511 2.49 5.79 2.49 2.28.001 4.34-.95 5.79-2.49z" fill="#8cc152"/><path d="m50.531 26.189c1.54 1.45 2.489 3.51 2.489 5.79s-.949 4.34-2.489 5.79c-.49.47-1.03.87-1.631 1.2.771 2.71.101 5.729-2.029 7.859-2.13 2.131-5.16 2.801-7.86 2.03-.33.601-.729 1.14-1.2 1.63-1.449 1.54-3.51 2.49-5.79 2.49-2.279 0-4.34-.95-5.79-2.49-.47-.49-.869-1.029-1.199-1.63-2.7.771-5.73.101-7.86-2.03-2.13-2.13-2.8-5.159-2.03-7.859-.6-.33-1.14-.73-1.63-1.2-1.54-1.45-2.49-3.51-2.49-5.79s.95-4.34 2.49-5.79c.49-.47 1.03-.87 1.63-1.2-.77-2.699-.1-5.73 2.03-7.859 2.13-2.131 5.15-2.801 7.86-2.03.33-.601.729-1.14 1.199-1.63 1.45-1.54 3.511-2.49 5.79-2.49 2.28 0 4.341.95 5.79 2.49.471.49.87 1.029 1.2 1.63 2.7-.771 5.73-.101 7.86 2.03 2.13 2.129 2.8 5.16 2.029 7.859.601.33 1.141.731 1.631 1.2z" fill="#e6e9ed"/><path d="m53.021 31.979c0-2.28-.949-4.34-2.489-5.79-.49-.47-1.03-.87-1.631-1.2.771-2.699.101-5.73-2.029-7.859-2.073-2.074-4.996-2.752-7.641-2.078 1.331.345 2.593 1.033 3.637 2.078 2.13 2.129 2.8 5.16 2.029 7.859.601.33 1.141.73 1.631 1.2 1.54 1.45 2.489 3.51 2.489 5.79s-.949 4.34-2.489 5.79c-.49.47-1.03.87-1.631 1.2.771 2.71.101 5.729-2.029 7.859-1.044 1.044-2.306 1.732-3.637 2.078 2.645.675 5.567-.004 7.641-2.078 2.13-2.13 2.8-5.149 2.029-7.859.601-.33 1.141-.73 1.631-1.2 1.539-1.45 2.489-3.509 2.489-5.79z" fill="#ccd1d9"/><path d="m32 54c-3.006 0-5.801-1.507-7.466-3.978-.569.11-1.148.167-1.73.167-2.402 0-4.661-.936-6.359-2.633-2.125-2.125-3.036-5.167-2.467-8.092-2.471-1.663-3.977-4.458-3.978-7.464 0-3.007 1.507-5.802 3.978-7.465-.569-2.924.341-5.966 2.466-8.092 1.698-1.698 3.957-2.633 6.359-2.633.582 0 1.162.056 1.731.167 1.665-2.471 4.46-3.977 7.466-3.977s5.801 1.506 7.466 3.978c.569-.111 1.149-.167 1.731-.167 2.403 0 4.662.936 6.359 2.634 2.125 2.126 3.036 5.167 2.466 8.091 2.472 1.664 3.979 4.459 3.978 7.464 0 3.005-1.506 5.8-3.978 7.464.57 2.924-.341 5.966-2.466 8.092-1.697 1.698-3.955 2.633-6.358 2.633-.583 0-1.163-.056-1.733-.167-1.664 2.472-4.459 3.978-7.465 3.978zm-6.993-6.118c.355 0 .694.19.874.514 1.237 2.223 3.582 3.604 6.119 3.604 2.538 0 4.882-1.381 6.118-3.604.226-.405.701-.601 1.148-.476.627.179 1.277.27 1.932.27 1.869 0 3.625-.727 4.944-2.047 1.794-1.795 2.475-4.43 1.777-6.876-.127-.447.07-.923.476-1.148 2.224-1.237 3.605-3.581 3.605-6.119.001-2.537-1.38-4.881-3.604-6.118-.405-.226-.603-.702-.476-1.148.697-2.446.017-5.08-1.777-6.875-1.32-1.321-3.076-2.048-4.945-2.048-.653 0-1.303.09-1.93.269-.445.13-.923-.069-1.148-.475-1.238-2.224-3.583-3.605-6.12-3.605s-4.882 1.381-6.119 3.604c-.226.406-.702.604-1.148.475-.627-.179-1.276-.269-1.93-.269-1.868 0-3.625.727-4.945 2.047-1.793 1.794-2.475 4.429-1.777 6.876.127.447-.07.922-.476 1.148-2.224 1.237-3.605 3.581-3.605 6.119.001 2.537 1.382 4.882 3.604 6.118.405.226.603.701.476 1.147-.697 2.448-.016 5.083 1.778 6.877 1.32 1.319 3.077 2.047 4.945 2.047.653 0 1.303-.091 1.929-.27.092-.024.184-.037.275-.037z"/><path d="m23.5 12.478c-.082 0-.164-.01-.247-.031-.535-.136-.859-.68-.724-1.215 1.147-4.515 4.615-11.232 9.471-11.232 4.854 0 8.323 6.715 9.47 11.229.137.535-.188 1.079-.723 1.215-.527.134-1.08-.187-1.215-.723-1.215-4.779-4.364-9.721-7.532-9.721-3.17 0-6.318 4.944-7.531 9.724-.115.452-.523.754-.969.754z"/><path d="m32.001 64c-4.856 0-8.324-6.716-9.471-11.23-.136-.535.188-1.079.724-1.216.532-.133 1.079.188 1.216.724 1.213 4.779 4.361 9.722 7.531 9.722s6.318-4.944 7.531-9.724c.136-.536.679-.855 1.216-.724.535.137.859.681.724 1.216-1.147 4.515-4.615 11.232-9.471 11.232z"/><path d="m13.485 27.209c-.263 0-.524-.103-.721-.307-3.601-3.747-7.423-13.497-3.391-17.529 4.033-4.033 13.783-.21 17.53 3.392.397.382.41 1.016.027 1.414-.383.399-1.016.411-1.414.028-3.48-3.345-11.906-6.242-14.729-3.419s.074 11.248 3.419 14.729c.383.398.37 1.031-.027 1.414-.195.185-.445.278-.694.278z"/><path d="m49.689 56.354c-4.472 0-9.984-2.612-12.592-5.118-.397-.383-.41-1.016-.027-1.414.383-.397 1.015-.41 1.414-.027 3.48 3.346 11.907 6.242 14.729 3.419 2.824-2.825-.073-11.249-3.42-14.729-.383-.398-.37-1.031.027-1.414.398-.382 1.031-.371 1.414.027 3.603 3.746 7.427 13.495 3.393 17.529-1.226 1.227-2.982 1.727-4.938 1.727z"/><path d="m11.478 41.501c-.082 0-.164-.01-.247-.03-4.514-1.147-11.23-4.615-11.231-9.471.001-4.858 6.718-8.326 11.231-9.471.532-.135 1.079.187 1.216.723.136.536-.188 1.08-.724 1.215-4.779 1.214-9.722 4.363-9.723 7.533.001 3.168 4.944 6.318 9.723 7.531.535.137.859.681.724 1.216-.116.453-.523.754-.969.754z"/><path d="m52.521 41.5c-.446 0-.854-.301-.969-.754-.136-.535.188-1.079.724-1.216 4.78-1.213 9.724-4.361 9.724-7.531s-4.943-6.318-9.723-7.531c-.535-.136-.859-.68-.724-1.215.136-.536.68-.859 1.216-.723 4.515 1.145 11.231 4.612 11.231 9.469 0 4.856-6.717 8.324-11.231 9.471-.083.02-.165.03-.248.03z"/><path d="m14.313 56.354c-1.956 0-3.713-.499-4.94-1.727-4.03-4.032-.208-13.782 3.393-17.529.383-.397 1.015-.41 1.414-.027.397.383.41 1.016.027 1.414-3.345 3.48-6.242 11.905-3.42 14.729 2.827 2.824 11.251-.074 14.729-3.419.399-.383 1.031-.37 1.414.027.383.398.37 1.031-.027 1.414-2.607 2.505-8.119 5.118-12.59 5.118z"/><path d="m50.515 27.209c-.249 0-.499-.093-.693-.279-.397-.383-.41-1.016-.027-1.414 3.346-3.481 6.241-11.907 3.418-14.731-2.824-2.823-11.248.073-14.728 3.421-.398.383-1.031.371-1.414-.027s-.371-1.031.027-1.414c3.745-3.604 13.495-7.427 17.528-3.394 4.032 4.033.211 13.784-3.391 17.531-.196.204-.458.307-.72.307z"/></svg>