<svg id="icons" enable-background="new 0 0 64 64" height="512" viewBox="0 0 64 64" width="512" xmlns="http://www.w3.org/2000/svg"><path d="m15 21c0 4 1.38 7.67 3.68 10.57-.05.029-.1.05-.149.069-1.08.57-2.271.98-3.53 1.19-.65.111-1.321.171-2.001.171-6.63 0-12-5.38-12-12 0-6.63 5.37-12 12-12 2.05 0 3.989.51 5.68 1.42l.011.01c-2.311 2.9-3.691 6.57-3.691 10.57z" fill="#8cc152"/><path d="m36.005 46.97 9.31-15.399c1.13.609 2.37 1.04 3.681 1.26l-11.991 27.169h-10l-12-27.17c1.26-.21 2.449-.62 3.529-1.19l9.281 15.351.17-.03-1.99-10.05c1.869.7 3.89 1.09 6.01 1.09 2.11 0 4.13-.38 6-1.09z" fill="#83b246"/><path d="m51 9c6.62 0 12 5.37 12 12 0 6.62-5.38 12-12 12-.69 0-1.36-.06-2.01-.17-1.311-.22-2.551-.65-3.681-1.26 2.311-2.9 3.691-6.57 3.691-10.57s-1.38-7.67-3.7-10.57l.01-.01c1.69-.91 3.629-1.42 5.69-1.42z" fill="#8cc152"/><path d="m45.3 10.43c2.32 2.9 3.7 6.57 3.7 10.57s-1.38 7.67-3.69 10.57c-1.89 2.39-4.41 4.25-7.31 5.34-1.87.71-3.89 1.09-6 1.09-2.12 0-4.14-.39-6.011-1.09-2.899-1.09-5.409-2.95-7.31-5.34-2.299-2.9-3.679-6.57-3.679-10.57s1.38-7.67 3.69-10.57c3.1-3.92 7.911-6.43 13.31-6.43s10.2 2.51 13.3 6.43z" fill="#a0d468"/><path d="m13 33.999c-7.168 0-13-5.832-13-13s5.832-13 13-13c2.149 0 4.279.536 6.159 1.55.486.262.668.868.405 1.354-.262.486-.866.669-1.354.405-1.589-.856-3.391-1.31-5.21-1.31-6.065 0-11 4.935-11 11s4.935 11 11 11c1.819 0 3.621-.453 5.21-1.31.487-.264 1.093-.08 1.354.405.263.486.081 1.093-.405 1.354-1.88 1.016-4.01 1.552-6.159 1.552z"/><path d="m51 33.999c-2.149 0-4.279-.536-6.159-1.55-.486-.262-.668-.868-.405-1.354.262-.485.867-.669 1.354-.405 1.589.856 3.391 1.31 5.21 1.31 6.065 0 11-4.935 11-11s-4.935-11-11-11c-1.819 0-3.621.453-5.21 1.31-.489.264-1.093.08-1.354-.405-.263-.486-.081-1.093.405-1.354 1.88-1.014 4.01-1.55 6.159-1.55 7.168 0 13 5.832 13 13s-5.832 12.998-13 12.998z"/><path d="m32 38.999c-9.925 0-18-8.075-18-18s8.075-18 18-18 18 8.075 18 18-8.075 18-18 18zm0-34c-8.822 0-16 7.178-16 16s7.178 16 16 16 16-7.178 16-16-7.178-16-16-16z"/><path d="m27.001 61.001c-.385 0-.751-.222-.916-.596l-12-27.168c-.223-.506.006-1.096.511-1.319.51-.221 1.097.006 1.319.511l12 27.168c.223.506-.006 1.096-.511 1.319-.132.058-.268.085-.403.085z"/><path d="m36.999 61.001c-.135 0-.271-.027-.403-.085-.505-.224-.733-.813-.511-1.319l11.998-27.169c.224-.503.813-.732 1.319-.511.505.224.733.813.511 1.319l-11.998 27.169c-.165.373-.531.596-.916.596z"/><path d="m35.996 47.995c-.176 0-.354-.046-.516-.145-.474-.285-.625-.899-.339-1.372l9.318-15.426c.284-.474.9-.628 1.372-.339.474.285.625.899.339 1.372l-9.318 15.426c-.187.312-.517.484-.856.484z"/><path d="m27.817 47.995c-.339 0-.669-.172-.856-.483l-9.318-15.426c-.286-.473-.135-1.087.339-1.372.472-.289 1.087-.135 1.372.339l9.318 15.426c.286.473.135 1.087-.339 1.372-.161.098-.34.144-.516.144z"/><path d="m27.997 47.995c-.468 0-.886-.329-.979-.806l-2-10.086c-.107-.542.244-1.067.786-1.175.539-.115 1.068.243 1.175.786l2 10.086c.107.542-.244 1.067-.786 1.175-.066.014-.131.02-.196.02z"/><path d="m36.003 47.995c-.064 0-.13-.006-.195-.02-.542-.107-.894-.633-.786-1.175l2-10.086c.106-.542.636-.9 1.175-.786.542.107.894.633.786 1.175l-2 10.086c-.094.477-.512.806-.98.806z"/><path d="m37 61.001h-10c-.553 0-1-.447-1-1s.447-1 1-1h10c.553 0 1 .447 1 1s-.447 1-1 1z"/></svg>