<svg id="icons" enable-background="new 0 0 64 64" height="512" viewBox="0 0 64 64" width="512" xmlns="http://www.w3.org/2000/svg"><path d="m23 21.5v3h-1-13-1v-3z" fill="#ccd1d9"/><path d="m22 24.5v6c0 1.65-1.34 3-3 3h-7c-1.66 0-3-1.34-3-3v-6z" fill="#aab2bd"/><path d="m39.5 42.5c3.87 0 7 3.13 7 7s-3.13 7-7 7h-15c-3.87 0-7-3.13-7-7s3.13-7 7-7z" fill="#e6e9ed"/><path d="m39.5 42.5h-15v-3h1 13 1z" fill="#ccd1d9"/><path d="m38.5 33.5v6h-13v-6c0-1.65 1.34-3 3-3h7c1.66 0 3 1.34 3 3z" fill="#aab2bd"/><path d="m56 21.5v3h-1-13-1v-3z" fill="#ccd1d9"/><path d="m55 24.5v6c0 1.65-1.34 3-3 3h-7c-1.66 0-3-1.34-3-3v-6z" fill="#aab2bd"/><path d="m56 7.5c3.87 0 7 3.13 7 7s-3.13 7-7 7h-15c-3.87 0-7-3.13-7-7s3.13-7 7-7z" fill="#e6e9ed"/><path d="m23 7.5c3.87 0 7 3.13 7 7s-3.13 7-7 7h-15c-3.87 0-7-3.13-7-7s3.13-7 7-7z" fill="#e6e9ed"/><path d="m7.998 22.5c-4.411 0-8-3.589-8-8s3.589-8 8-8c.553 0 1 .447 1 1s-.447 1-1 1c-3.309 0-6 2.691-6 6s2.691 6 6 6c.553 0 1 .447 1 1s-.447 1-1 1z"/><path d="m23.002 22.5c-.553 0-1-.447-1-1s.447-1 1-1c3.309 0 6-2.691 6-6s-2.691-6-6-6c-.553 0-1-.447-1-1s.447-1 1-1c4.411 0 8 3.589 8 8s-3.589 8-8 8z"/><path d="m23.002 8.5h-15.004c-.553 0-1-.447-1-1s.447-1 1-1h15.004c.553 0 1 .447 1 1s-.447 1-1 1z"/><path d="m23.002 22.5h-15.004c-.553 0-1-.447-1-1s.447-1 1-1h15.004c.553 0 1 .447 1 1s-.447 1-1 1z"/><path d="m23.002 25.5c-.553 0-1-.447-1-1v-3c0-.553.447-1 1-1s1 .447 1 1v3c0 .553-.447 1-1 1z"/><path d="m7.998 25.5c-.553 0-1-.447-1-1v-3c0-.553.447-1 1-1s1 .447 1 1v3c0 .553-.447 1-1 1z"/><path d="m23.002 25.5h-15.004c-.553 0-1-.447-1-1s.447-1 1-1h15.004c.553 0 1 .447 1 1s-.447 1-1 1z"/><path d="m8.996 31.496c-.553 0-1-.447-1-1v-5.996c0-.553.447-1 1-1s1 .447 1 1v5.996c0 .553-.447 1-1 1z"/><path d="m21.998 31.496c-.553 0-1-.447-1-1v-5.996c0-.553.447-1 1-1s1 .447 1 1v5.996c0 .553-.447 1-1 1z"/><path d="m11.998 34.498c-2.207 0-4.002-1.795-4.002-4.002 0-.553.447-1 1-1s1 .447 1 1c0 1.104.898 2.002 2.002 2.002.553 0 1 .447 1 1s-.447 1-1 1z"/><path d="m18.998 34.496c-.553 0-1-.447-1-1s.447-1 1-1c1.103 0 2-.897 2-2 0-.553.447-1 1-1s1 .447 1 1c0 2.206-1.794 4-4 4z"/><path d="m18.998 34.498h-7c-.553 0-1-.447-1-1s.447-1 1-1h7c.553 0 1 .447 1 1s-.447 1-1 1z"/><path d="m40.998 22.5c-4.411 0-8-3.589-8-8s3.589-8 8-8c.553 0 1 .447 1 1s-.447 1-1 1c-3.309 0-6 2.691-6 6s2.691 6 6 6c.553 0 1 .447 1 1s-.447 1-1 1z"/><path d="m56.002 22.5c-.553 0-1-.447-1-1s.447-1 1-1c3.309 0 6-2.691 6-6s-2.691-6-6-6c-.553 0-1-.447-1-1s.447-1 1-1c4.411 0 8 3.589 8 8s-3.589 8-8 8z"/><path d="m56.002 8.5h-15.004c-.553 0-1-.447-1-1s.447-1 1-1h15.004c.553 0 1 .447 1 1s-.447 1-1 1z"/><path d="m56.002 22.5h-15.004c-.553 0-1-.447-1-1s.447-1 1-1h15.004c.553 0 1 .447 1 1s-.447 1-1 1z"/><path d="m56.002 25.5c-.553 0-1-.447-1-1v-3c0-.553.447-1 1-1s1 .447 1 1v3c0 .553-.447 1-1 1z"/><path d="m40.998 25.5c-.553 0-1-.447-1-1v-3c0-.553.447-1 1-1s1 .447 1 1v3c0 .553-.447 1-1 1z"/><path d="m56.002 25.5h-15.004c-.553 0-1-.447-1-1s.447-1 1-1h15.004c.553 0 1 .447 1 1s-.447 1-1 1z"/><path d="m41.996 31.496c-.553 0-1-.447-1-1v-5.996c0-.553.447-1 1-1s1 .447 1 1v5.996c0 .553-.447 1-1 1z"/><path d="m54.998 31.496c-.553 0-1-.447-1-1v-5.996c0-.553.447-1 1-1s1 .447 1 1v5.996c0 .553-.447 1-1 1z"/><path d="m44.998 34.498c-2.207 0-4.002-1.795-4.002-4.002 0-.553.447-1 1-1s1 .447 1 1c0 1.104.898 2.002 2.002 2.002.553 0 1 .447 1 1s-.447 1-1 1z"/><path d="m51.998 34.496c-.553 0-1-.447-1-1s.447-1 1-1c1.103 0 2-.897 2-2 0-.553.447-1 1-1s1 .447 1 1c0 2.206-1.794 4-4 4z"/><path d="m51.998 34.498h-7c-.553 0-1-.447-1-1s.447-1 1-1h7c.553 0 1 .447 1 1s-.447 1-1 1z"/><path d="m39.5 57.5c-.553 0-1-.447-1-1s.447-1 1-1c3.309 0 6-2.691 6-6s-2.691-6-6-6c-.553 0-1-.447-1-1s.447-1 1-1c4.411 0 8 3.589 8 8s-3.589 8-8 8z"/><path d="m24.496 57.5c-4.411 0-8-3.589-8-8s3.589-8 8-8c.553 0 1 .447 1 1s-.447 1-1 1c-3.309 0-6 2.691-6 6s2.691 6 6 6c.553 0 1 .447 1 1s-.447 1-1 1z"/><path d="m39.5 57.5h-15.004c-.553 0-1-.447-1-1s.447-1 1-1h15.004c.553 0 1 .447 1 1s-.447 1-1 1z"/><path d="m39.5 43.5h-15.004c-.553 0-1-.447-1-1s.447-1 1-1h15.004c.553 0 1 .447 1 1s-.447 1-1 1z"/><path d="m24.496 43.5c-.553 0-1-.447-1-1v-3c0-.553.447-1 1-1s1 .447 1 1v3c0 .553-.447 1-1 1z"/><path d="m39.5 43.5c-.553 0-1-.447-1-1v-3c0-.553.447-1 1-1s1 .447 1 1v3c0 .553-.447 1-1 1z"/><path d="m39.5 40.5h-15.004c-.553 0-1-.447-1-1s.447-1 1-1h15.004c.553 0 1 .447 1 1s-.447 1-1 1z"/><path d="m38.502 40.5c-.553 0-1-.447-1-1v-5.996c0-.553.447-1 1-1s1 .447 1 1v5.996c0 .553-.447 1-1 1z"/><path d="m25.5 40.5c-.553 0-1-.447-1-1v-5.996c0-.553.447-1 1-1s1 .447 1 1v5.996c0 .553-.447 1-1 1z"/><path d="m38.502 34.504c-.553 0-1-.447-1-1 0-1.104-.898-2.002-2.002-2.002-.553 0-1-.447-1-1s.447-1 1-1c2.207 0 4.002 1.795 4.002 4.002 0 .553-.447 1-1 1z"/><path d="m25.5 34.504c-.553 0-1-.447-1-1 0-2.206 1.794-4 4-4 .553 0 1 .447 1 1s-.447 1-1 1c-1.103 0-2 .897-2 2 0 .553-.447 1-1 1z"/><path d="m35.5 31.502h-7c-.553 0-1-.447-1-1s.447-1 1-1h7c.553 0 1 .447 1 1s-.447 1-1 1z"/></svg>