<svg id="icons" enable-background="new 0 0 64 64" height="512" viewBox="0 0 64 64" width="512" xmlns="http://www.w3.org/2000/svg"><path d="m26.857 23.982c-.141.15-.28.301-.431.45-4.68 4.69-12.279 4.69-16.97 0-4.68-4.68-9.16-16.76-4.47-21.45 4.68-4.68 16.76-.21 21.439 4.48 4.542 4.541 4.692 11.821.432 16.52z" fill="#a0d468"/><path d="m37.137 23.982c-4.26-4.699-4.109-11.979.431-16.52 4.689-4.69 16.76-9.16 21.449-4.48 4.681 4.69.211 16.771-4.479 21.45-4.69 4.69-12.28 4.69-16.97 0-.151-.149-.291-.299-.431-.45z" fill="#a0d468"/><path d="m46.997 47.003c0 3.32-2.68 6-5.99 6h-18.01c-3.32 0-6-2.68-6-6 0-6.62 5.37-12 12-12h3 3c6.63 0 12 5.38 12 12z" fill="#ec87c0"/><path d="m41.007 53.003c3.311 0 5.99-2.68 5.99-6 0 6.63-5.37 12-12 12-1.66 0-3 1.34-3 3 0-1.66-1.34-3-3-3-6.63 0-12-5.37-12-12 0 3.32 2.68 6 6 6z" fill="#e6e9ed"/><path d="m29 60.005c-7.168 0-13-5.832-13-13s5.832-13 13-13c.553 0 1 .447 1 1s-.447 1-1 1c-6.065 0-11 4.935-11 11s4.935 11 11 11c.553 0 1 .447 1 1s-.447 1-1 1z"/><path d="m32 63.005c-.553 0-1-.447-1-1 0-1.103-.897-2-2-2-.553 0-1-.447-1-1s.447-1 1-1c2.206 0 4 1.794 4 4 0 .553-.447 1-1 1z"/><path d="m35 60.005c-.553 0-1-.447-1-1s.447-1 1-1c6.065 0 11-4.935 11-11s-4.935-11-11-11c-.553 0-1-.447-1-1s.447-1 1-1c7.168 0 13 5.832 13 13s-5.832 13-13 13z"/><path d="m32 63.005c-.553 0-1-.447-1-1 0-2.206 1.794-4 4-4 .553 0 1 .447 1 1s-.447 1-1 1c-1.103 0-2 .897-2 2 0 .553-.447 1-1 1z"/><path d="m35 36.001h-6c-.553 0-1-.447-1-1s.447-1 1-1h6c.553 0 1 .447 1 1s-.447 1-1 1z"/><path d="m32 64c-.553 0-1-.447-1-1v-.995c0-.553.447-1 1-1s1 .447 1 1v.995c0 .553-.447 1-1 1z"/><path d="m23 54.005c-3.859 0-7-3.141-7-7 0-.553.447-1 1-1s1 .447 1 1c0 2.757 2.243 5 5 5 .553 0 1 .447 1 1s-.447 1-1 1z"/><path d="m41.005 54c-.553 0-1-.447-1-1s.447-1 1-1c2.754 0 4.995-2.241 4.995-4.995 0-.553.447-1 1-1s1 .447 1 1c0 3.857-3.138 6.995-6.995 6.995z"/><path d="m41.005 54.005h-18.005c-.553 0-1-.447-1-1s.447-1 1-1h18.005c.553 0 1 .447 1 1s-.447 1-1 1z"/><path d="m17.946 28.948c-3.473 0-6.737-1.353-9.192-3.808-4.679-4.678-9.787-17.55-4.477-22.862 1.512-1.511 3.702-2.278 6.51-2.278 5.927 0 13.103 3.507 16.352 6.756 2.455 2.455 3.808 5.72 3.808 9.192s-1.353 6.737-3.808 9.192-5.72 3.808-9.193 3.808zm-7.159-26.948c-2.258 0-3.973.569-5.096 1.692-4.011 4.012-.133 15.425 4.477 20.034 2.078 2.078 4.84 3.222 7.778 3.222s5.7-1.144 7.778-3.222 3.222-4.84 3.222-7.778-1.144-5.7-3.222-7.778c-2.967-2.967-9.522-6.17-14.937-6.17z"/><path d="m31.999 36.004c-.473 0-.894-.337-.982-.818-.024-.13-2.599-13.16-17.788-22.578-.469-.291-.613-.907-.322-1.377.292-.468.907-.613 1.377-.322 15.983 9.91 18.597 23.35 18.7 23.917.1.543-.26 1.063-.803 1.162-.061.011-.122.016-.182.016z"/><path d="m46.054 28.948c-3.473 0-6.737-1.353-9.192-3.808s-3.808-5.72-3.808-9.192 1.353-6.737 3.808-9.192c3.248-3.249 10.424-6.756 16.351-6.756 2.808 0 4.998.767 6.51 2.278 5.311 5.312.202 18.184-4.477 22.862-2.455 2.456-5.72 3.808-9.192 3.808zm7.159-26.948c-5.415 0-11.97 3.203-14.938 6.17-2.078 2.078-3.222 4.84-3.222 7.778s1.144 5.7 3.222 7.778 4.84 3.222 7.778 3.222 5.7-1.144 7.778-3.222c4.609-4.609 8.487-16.022 4.477-20.034-1.122-1.123-2.837-1.692-5.095-1.692z"/><path d="m32.001 36.004c-.06 0-.121-.005-.182-.017-.543-.1-.902-.619-.803-1.162.104-.567 2.717-14.007 18.7-23.917.47-.291 1.086-.146 1.377.322.291.47.146 1.086-.322 1.377-15.189 9.418-17.764 22.448-17.788 22.578-.088.482-.509.819-.982.819z"/></svg>