<svg id="icons" enable-background="new 0 0 64 64" height="512" viewBox="0 0 64 64" width="512" xmlns="http://www.w3.org/2000/svg"><path d="m25 5v12.34c-.92-.53-1.939-.93-3.02-1.149l.02-.141v-8.05z" fill="#8cc152"/><path d="m45 1v4 11.05c-.33-.03-.66-.05-1-.05-.68 0-1.34.07-1.979.19l-.021-.14v-8.05-4z" fill="#a0d468"/><g fill="#8cc152"><path d="m42 16.05.021.141c-1.081.219-2.101.619-3.021 1.149v-12.34l3 3z"/><path d="m48 8v8.84c-.93-.41-1.939-.68-3-.79v-11.05z"/><path d="m19 5v11.05c-1.06.11-2.069.38-3 .79v-8.84z"/></g><path d="m22 4v4 8.05l-.02.141c-.64-.121-1.299-.191-1.98-.191-.34 0-.67.02-1 .05v-11.05-4z" fill="#a0d468"/><path d="m53.601 31c-.57 5.05-1.74 12.54-3.311 19-1.71 7.12-3.899 13-6.29 13-3.47 0-6.52-12.4-8.31-23-1.07-6.29-1.69-11.95-1.69-14 0-3.7 2.01-6.93 5-8.66.92-.53 1.94-.93 3.021-1.149.639-.121 1.299-.191 1.979-.191.34 0 .67.02 1 .05 1.061.11 2.07.38 3 .79 3.54 1.54 6 5.061 6 9.16 0 .97-.14 2.74-.399 5z" fill="#fc6e51"/><path d="m28.311 40c-1.79 10.6-4.841 23-8.311 23-2.39 0-4.58-5.88-6.29-13-1.569-6.46-2.74-13.95-3.31-19-.26-2.26-.4-4.03-.4-5 0-4.1 2.47-7.62 6-9.16.931-.41 1.94-.68 3-.79.33-.03.66-.05 1-.05.681 0 1.34.07 1.98.19 1.08.22 2.1.619 3.02 1.149 2.99 1.73 5 4.96 5 8.66 0 2.051-.62 7.711-1.689 14.001z" fill="#fc6e51"/><path d="m48 16.84c-.93-.41-1.939-.68-3-.79-.33-.03-.66-.05-1-.05-.513 0-1.011.051-1.501.121.877.136 1.717.374 2.498.719 3.54 1.54 6 5.061 6 9.16 0 .97-.14 2.74-.399 5-.57 5.05-1.74 12.54-3.311 19-1.346 5.603-2.988 10.424-4.792 12.229.49.495.993.771 1.505.771 2.391 0 4.58-5.88 6.29-13 1.57-6.46 2.74-13.95 3.311-19 .259-2.26.399-4.03.399-5 0-4.1-2.46-7.62-6-9.16z" fill="#e9573f"/><path d="m25 17.34c-.92-.53-1.939-.93-3.02-1.149-.64-.121-1.299-.191-1.98-.191-.34 0-.67.02-1 .05-.169.018-.335.046-.502.071.16.023.322.04.479.069 1.08.22 2.1.619 3.02 1.149 2.99 1.73 5 4.96 5 8.66 0 2.05-.62 7.71-1.689 14-1.526 9.036-3.968 19.374-6.806 22.229.489.491.988.772 1.498.772 3.47 0 6.521-12.4 8.311-23 1.069-6.29 1.689-11.95 1.689-14 0-3.7-2.01-6.93-5-8.66z" fill="#e9573f"/><path d="m19.998 64c-7.083 0-11-34.396-11-37.997 0-6.065 4.935-11 11-11s11 4.935 11 11c0 3.601-3.917 37.997-11 37.997zm0-46.997c-4.963 0-9 4.037-9 9 0 2.695 1.133 11.968 2.908 20.362 2.61 12.342 5.057 15.635 6.092 15.635s3.483-3.293 6.093-15.635c1.774-8.394 2.907-17.666 2.907-20.362 0-4.963-4.037-9-9-9z"/><path d="m14.002 32h-3.607c-.553 0-1-.447-1-1s.447-1 1-1h3.607c.553 0 1 .447 1 1s-.447 1-1 1z"/><path d="m28.314 41h-3.313c-.553 0-1-.447-1-1s.447-1 1-1h3.313c.553 0 1 .447 1 1s-.447 1-1 1z"/><path d="m17.002 51h-3.301c-.553 0-1-.447-1-1s.447-1 1-1h3.301c.553 0 1 .447 1 1s-.447 1-1 1z"/><path d="m19.002 17.054c-.553 0-1-.447-1-1v-15.054c0-.553.447-1 1-1s1 .447 1 1v15.054c0 .552-.447 1-1 1z"/><path d="m22.002 5c-.256 0-.512-.098-.707-.293l-3-3c-.391-.391-.391-1.023 0-1.414s1.023-.391 1.414 0l3 3c.391.391.391 1.023 0 1.414-.195.195-.451.293-.707.293z"/><path d="m22.002 17.054c-.553 0-1-.447-1-1v-12.054c0-.553.447-1 1-1s1 .447 1 1v12.054c0 .552-.447 1-1 1z"/><path d="m22.002 9.002c-.256 0-.512-.098-.707-.293-.391-.39-.391-1.023 0-1.414l3-3.002c.391-.391 1.023-.391 1.414 0 .391.39.391 1.023 0 1.414l-3 3.002c-.195.195-.451.293-.707.293z"/><path d="m25.002 18.343c-.553 0-1-.447-1-1v-12.343c0-.553.447-1 1-1s1 .447 1 1v12.343c0 .553-.447 1-1 1z"/><path d="m16.002 9.002c-.256 0-.512-.098-.707-.293-.391-.39-.391-1.023 0-1.414l3-3.002c.391-.391 1.023-.391 1.414 0 .391.39.391 1.023 0 1.414l-3 3.002c-.195.195-.451.293-.707.293z"/><path d="m16.002 17.836c-.553 0-1-.447-1-1v-8.833c0-.553.447-1 1-1s1 .447 1 1v8.833c0 .553-.447 1-1 1z"/><path d="m44.002 64c-7.083 0-11-34.396-11-37.997 0-6.065 4.935-11 11-11s11 4.935 11 11c0 3.601-3.917 37.997-11 37.997zm0-46.997c-4.963 0-9 4.037-9 9 0 2.696 1.133 11.969 2.907 20.362 2.61 12.342 5.058 15.635 6.093 15.635s3.482-3.293 6.092-15.635c1.775-8.395 2.908-17.667 2.908-20.362 0-4.963-4.037-9-9-9z"/><path d="m53.605 32h-3.607c-.553 0-1-.447-1-1s.447-1 1-1h3.607c.553 0 1 .447 1 1s-.447 1-1 1z"/><path d="m38.998 41h-3.313c-.553 0-1-.447-1-1s.447-1 1-1h3.313c.553 0 1 .447 1 1s-.447 1-1 1z"/><path d="m50.299 51h-3.301c-.553 0-1-.447-1-1s.447-1 1-1h3.301c.553 0 1 .447 1 1s-.447 1-1 1z"/><path d="m44.998 17.054c-.553 0-1-.447-1-1v-15.054c0-.553.447-1 1-1s1 .447 1 1v15.054c0 .552-.447 1-1 1z"/><path d="m41.998 5c-.256 0-.512-.098-.707-.293-.391-.391-.391-1.023 0-1.414l3-3c.391-.391 1.023-.391 1.414 0s.391 1.023 0 1.414l-3 3c-.195.195-.451.293-.707.293z"/><path d="m41.998 17.054c-.553 0-1-.447-1-1v-12.054c0-.553.447-1 1-1s1 .447 1 1v12.054c0 .552-.447 1-1 1z"/><path d="m41.998 9.002c-.256 0-.512-.098-.707-.293l-3-3.002c-.391-.391-.391-1.024 0-1.414.391-.391 1.023-.391 1.414 0l3 3.002c.391.391.391 1.024 0 1.414-.195.195-.451.293-.707.293z"/><path d="m38.998 18.343c-.553 0-1-.447-1-1v-12.343c0-.553.447-1 1-1s1 .447 1 1v12.343c0 .553-.447 1-1 1z"/><path d="m47.998 9.002c-.256 0-.512-.098-.707-.293l-3-3.002c-.391-.391-.391-1.024 0-1.414.391-.391 1.023-.391 1.414 0l3 3.002c.391.391.391 1.024 0 1.414-.195.195-.451.293-.707.293z"/><path d="m47.998 17.836c-.553 0-1-.447-1-1v-8.833c0-.553.447-1 1-1s1 .447 1 1v8.833c0 .553-.447 1-1 1z"/></svg>