<svg id="icons" enable-background="new 0 0 64 64" height="512" viewBox="0 0 64 64" width="512" xmlns="http://www.w3.org/2000/svg"><path d="m32.002 64c-.553 0-1-.447-1-1v-62c0-.553.447-1 1-1s1 .447 1 1v62c0 .553-.447 1-1 1z"/><path d="m32.002 7c-.256 0-.512-.098-.707-.293-.391-.391-.391-1.023 0-1.414l2.999-2.998c.391-.391 1.023-.391 1.414 0s.391 1.023 0 1.414l-2.999 2.998c-.195.195-.451.293-.707.293z"/><path d="m32.002 7c-.256 0-.512-.098-.707-.293l-2.999-2.998c-.391-.391-.391-1.023 0-1.414s1.023-.391 1.414 0l2.999 2.998c.391.391.391 1.023 0 1.414-.195.195-.451.293-.707.293z"/><path d="m32.002 19.994c-.256 0-.512-.098-.707-.293-.391-.391-.391-1.023 0-1.414l13.009-13.01c.391-.391 1.023-.391 1.414 0s.391 1.023 0 1.414l-13.009 13.01c-.195.195-.451.293-.707.293z"/><path d="m42.002 9.994c-.553 0-1-.447-1-1v-4c0-.553.447-1 1-1s1 .447 1 1v4c0 .553-.447 1-1 1z"/><path d="m46.002 9.994h-4c-.553 0-1-.447-1-1s.447-1 1-1h4c.553 0 1 .447 1 1s-.447 1-1 1z"/><path d="m43.002 12.994h-4c-.553 0-1-.447-1-1s.447-1 1-1h4c.553 0 1 .447 1 1s-.447 1-1 1z"/><path d="m39.002 12.994c-.553 0-1-.447-1-1v-4c0-.553.447-1 1-1s1 .447 1 1v4c0 .553-.447 1-1 1z"/><path d="m39.999 15.996h-4c-.553 0-1-.447-1-1s.447-1 1-1h4c.553 0 1 .447 1 1s-.447 1-1 1z"/><path d="m35.999 15.996c-.553 0-1-.447-1-1v-3.998c0-.553.447-1 1-1s1 .447 1 1v3.998c0 .553-.447 1-1 1z"/><path d="m32.002 19.994c-.256 0-.512-.098-.707-.293l-13.009-13.01c-.391-.391-.391-1.023 0-1.414s1.023-.391 1.414 0l13.009 13.01c.391.391.391 1.023 0 1.414-.195.195-.451.293-.707.293z"/><path d="m22.002 9.994c-.553 0-1-.447-1-1v-4c0-.553.447-1 1-1s1 .447 1 1v4c0 .553-.447 1-1 1z"/><path d="m22.002 9.994h-4c-.553 0-1-.447-1-1s.447-1 1-1h4c.553 0 1 .447 1 1s-.447 1-1 1z"/><path d="m25.002 12.994h-4c-.553 0-1-.447-1-1s.447-1 1-1h4c.553 0 1 .447 1 1s-.447 1-1 1z"/><path d="m25.002 12.994c-.553 0-1-.447-1-1v-4c0-.553.447-1 1-1s1 .447 1 1v4c0 .553-.447 1-1 1z"/><path d="m28.005 15.996h-4c-.553 0-1-.447-1-1s.447-1 1-1h4c.553 0 1 .447 1 1s-.447 1-1 1z"/><path d="m28.005 15.996c-.553 0-1-.447-1-1v-3.998c0-.553.447-1 1-1s1 .447 1 1v3.998c0 .553-.447 1-1 1z"/><path d="m32.002 34.002c-.256 0-.512-.098-.707-.293-.391-.391-.391-1.023 0-1.414l17.013-17.012c.391-.391 1.023-.391 1.414 0s.391 1.023 0 1.414l-17.013 17.012c-.195.195-.451.293-.707.293z"/><path d="m42.002 24.002c-.553 0-1-.447-1-1v-5c0-.553.447-1 1-1s1 .447 1 1v5c0 .553-.447 1-1 1z"/><path d="m47.003 24.002h-5.001c-.553 0-1-.447-1-1s.447-1 1-1h5.001c.553 0 1 .447 1 1s-.447 1-1 1z"/><path d="m45.005 21c-.553 0-1-.447-1-1v-5.002c0-.553.447-1 1-1s1 .447 1 1v5.002c0 .553-.447 1-1 1z"/><path d="m50.006 21h-5.001c-.553 0-1-.447-1-1s.447-1 1-1h5.001c.553 0 1 .447 1 1s-.447 1-1 1z"/><path d="m44.003 27.002h-5.001c-.553 0-1-.447-1-1s.447-1 1-1h5.001c.553 0 1 .447 1 1s-.447 1-1 1z"/><path d="m39.002 27.002c-.553 0-1-.447-1-1v-5c0-.553.447-1 1-1s1 .447 1 1v5c0 .553-.447 1-1 1z"/><path d="m41 30.006h-5.001c-.553 0-1-.447-1-1s.447-1 1-1h5.001c.553 0 1 .447 1 1s-.447 1-1 1z"/><path d="m35.999 30.006c-.553 0-1-.447-1-1v-5c0-.553.447-1 1-1s1 .447 1 1v5c0 .553-.447 1-1 1z"/><path d="m32.002 34.002c-.256 0-.512-.098-.707-.293l-17.013-17.012c-.391-.391-.391-1.023 0-1.414s1.023-.391 1.414 0l17.013 17.012c.391.391.391 1.023 0 1.414-.195.195-.451.293-.707.293z"/><path d="m22.002 24.002c-.553 0-1-.447-1-1v-5c0-.553.447-1 1-1s1 .447 1 1v5c0 .553-.447 1-1 1z"/><path d="m22.002 24.002h-5.001c-.553 0-1-.447-1-1s.447-1 1-1h5.001c.553 0 1 .447 1 1s-.447 1-1 1z"/><path d="m18.999 21c-.553 0-1-.447-1-1v-5.002c0-.553.447-1 1-1s1 .447 1 1v5.002c0 .553-.447 1-1 1z"/><path d="m18.999 21h-5.001c-.553 0-1-.447-1-1s.447-1 1-1h5.001c.553 0 1 .447 1 1s-.447 1-1 1z"/><path d="m25.002 27.002h-5.001c-.553 0-1-.447-1-1s.447-1 1-1h5.001c.553 0 1 .447 1 1s-.447 1-1 1z"/><path d="m25.002 27.002c-.553 0-1-.447-1-1v-5c0-.553.447-1 1-1s1 .447 1 1v5c0 .553-.447 1-1 1z"/><path d="m28.005 30.006h-5.001c-.553 0-1-.447-1-1s.447-1 1-1h5.001c.553 0 1 .447 1 1s-.447 1-1 1z"/><path d="m28.005 30.006c-.553 0-1-.447-1-1v-5c0-.553.447-1 1-1s1 .447 1 1v5c0 .553-.447 1-1 1z"/><path d="m32.002 50.018c-.256 0-.512-.098-.707-.293l-21.017-21.016c-.391-.391-.391-1.023 0-1.414s1.023-.391 1.414 0l21.017 21.016c.391.391.391 1.023 0 1.414-.195.195-.451.293-.707.293z"/><path d="m22.002 40.018c-.553 0-1-.447-1-1v-6.002c0-.553.447-1 1-1s1 .447 1 1v6.002c0 .552-.447 1-1 1z"/><path d="m22.002 40.018h-6.002c-.553 0-1-.447-1-1s.447-1 1-1h6.002c.553 0 1 .447 1 1s-.447 1-1 1z"/><path d="m18.999 37.016c-.553 0-1-.447-1-1v-6.002c0-.553.447-1 1-1s1 .447 1 1v6.002c0 .552-.447 1-1 1z"/><path d="m18.999 37.016h-6.002c-.553 0-1-.447-1-1s.447-1 1-1h6.002c.553 0 1 .447 1 1s-.447 1-1 1z"/><path d="m15.996 34.012c-.553 0-1-.447-1-1v-6.002c0-.553.447-1 1-1s1 .447 1 1v6.002c0 .552-.447 1-1 1z"/><path d="m15.996 34.012h-6.002c-.553 0-1-.447-1-1s.447-1 1-1h6.002c.553 0 1 .447 1 1s-.447 1-1 1z"/><path d="m25.002 43.018h-6.002c-.553 0-1-.447-1-1s.447-1 1-1h6.002c.553 0 1 .447 1 1s-.447 1-1 1z"/><path d="m25.002 43.018c-.553 0-1-.447-1-1v-6c0-.553.447-1 1-1s1 .447 1 1v6c0 .552-.447 1-1 1z"/><path d="m28.005 46.021h-6.002c-.553 0-1-.447-1-1s.447-1 1-1h6.002c.553 0 1 .447 1 1s-.447 1-1 1z"/><path d="m28.005 46.021c-.553 0-1-.447-1-1v-6.001c0-.553.447-1 1-1s1 .447 1 1v6.002c0 .552-.447.999-1 .999z"/><path d="m31.998 50.018c-.256 0-.512-.098-.707-.293-.391-.391-.391-1.023 0-1.414l21.017-21.016c.391-.391 1.023-.391 1.414 0s.391 1.023 0 1.414l-21.017 21.016c-.195.195-.451.293-.707.293z"/><path d="m41.998 40.018c-.553 0-1-.447-1-1v-6.002c0-.553.447-1 1-1s1 .447 1 1v6.002c0 .552-.447 1-1 1z"/><path d="m48 40.018h-6.002c-.553 0-1-.447-1-1s.447-1 1-1h6.002c.553 0 1 .447 1 1s-.447 1-1 1z"/><path d="m45.001 37.016c-.553 0-1-.447-1-1v-6.002c0-.553.447-1 1-1s1 .447 1 1v6.002c0 .552-.447 1-1 1z"/><path d="m51.003 37.016h-6.002c-.553 0-1-.447-1-1s.447-1 1-1h6.002c.553 0 1 .447 1 1s-.447 1-1 1z"/><path d="m48.004 34.012c-.553 0-1-.447-1-1v-6.002c0-.553.447-1 1-1s1 .447 1 1v6.002c0 .552-.447 1-1 1z"/><path d="m54.006 34.012h-6.002c-.553 0-1-.447-1-1s.447-1 1-1h6.002c.553 0 1 .447 1 1s-.447 1-1 1z"/><path d="m45 43.018h-6.002c-.553 0-1-.447-1-1s.447-1 1-1h6.002c.553 0 1 .447 1 1s-.447 1-1 1z"/><path d="m38.998 43.018c-.553 0-1-.447-1-1v-6c0-.553.447-1 1-1s1 .447 1 1v6c0 .552-.447 1-1 1z"/><path d="m41.997 46.021h-6.002c-.553 0-1-.447-1-1s.447-1 1-1h6.002c.553 0 1 .447 1 1s-.447 1-1 1z"/><path d="m35.995 46.021c-.553 0-1-.447-1-1v-6.001c0-.553.447-1 1-1s1 .447 1 1v6.002c0 .552-.447.999-1 .999z"/></svg>