<svg id="icons" enable-background="new 0 0 64 64" height="512" viewBox="0 0 64 64" width="512" xmlns="http://www.w3.org/2000/svg"><path d="m47 17.59v43.41c0 1.1-.9 2-2 2-1.11 0-2-.9-2-2v-43.41c.61.26 1.29.41 2 .41s1.39-.15 2-.41z" fill="#8cc152"/><path d="m50 13c0 .31-.03.62-.09.92-.3 1.65-1.42 3.01-2.91 3.66v.01c-.61.26-1.29.41-2 .41s-1.39-.15-2-.41v-.01c-1.5-.65-2.61-2.021-2.91-3.67-.06-.3-.09-.6-.09-.91 0-2.76 2.24-12 5-12s5 9.24 5 12z" fill="#a0d468"/><path d="m37 13c0 .31-.03.62-.09.92-.3 1.65-1.42 3.01-2.91 3.66v.01c-.61.26-1.29.41-2 .41s-1.39-.15-2-.41v-.01c-1.5-.65-2.61-2.021-2.91-3.67-.06-.3-.09-.6-.09-.91 0-2.76 2.24-12 5-12s5 9.24 5 12z" fill="#a0d468"/><path d="m34 17.59v43.41c0 1.1-.9 2-2 2-1.11 0-2-.9-2-2v-43.41c.61.26 1.29.41 2 .41s1.39-.15 2-.41z" fill="#8cc152"/><path d="m21 17.59v43.41c0 1.1-.9 2-2 2-1.11 0-2-.9-2-2v-43.41c.61.26 1.29.41 2 .41s1.39-.15 2-.41z" fill="#8cc152"/><path d="m24 13c0 .31-.03.61-.09.91-.3 1.649-1.41 3.02-2.91 3.67v.01c-.61.26-1.29.41-2 .41s-1.39-.15-2-.41v-.01c-1.5-.65-2.61-2.021-2.91-3.67-.06-.3-.09-.6-.09-.91 0-2.76 2.24-12 5-12s5 9.24 5 12z" fill="#a0d468"/><path d="m17.001 62c-.553 0-1-.447-1-1v-43.413c0-.553.447-1 1-1s1 .447 1 1v43.413c0 .553-.447 1-1 1z"/><path d="m21.001 62c-.553 0-1-.447-1-1v-43.414c0-.553.447-1 1-1s1 .447 1 1v43.414c0 .553-.447 1-1 1z"/><path d="m19.001 19.004c-3.309 0-6-2.691-6-6 0-2.195 2.015-13.002 6-13.002s6 10.807 6 13.002c0 3.309-2.691 6-6 6zm0-17.002c-1.59 0-4 7.812-4 11.002 0 2.206 1.794 4 4 4s4-1.794 4-4c0-3.191-2.41-11.002-4-11.002z"/><path d="m17 10.004c-.256 0-.512-.098-.707-.293-.391-.391-.391-1.023 0-1.414l2-2c.391-.391 1.023-.391 1.414 0s.391 1.023 0 1.414l-2 2c-.195.195-.451.293-.707.293z"/><path d="m21 10.004c-.256 0-.512-.098-.707-.293l-2-2c-.391-.391-.391-1.023 0-1.414s1.023-.391 1.414 0l2 2c.391.391.391 1.023 0 1.414-.195.195-.451.293-.707.293z"/><path d="m20.003 15.004c-.256 0-.512-.098-.707-.293-.391-.391-.391-1.023 0-1.414l2-2c.391-.391 1.023-.391 1.414 0s.391 1.023 0 1.414l-2 2c-.195.195-.451.293-.707.293z"/><path d="m23.918 14.919c-.256 0-.512-.098-.707-.293l-1.915-1.915c-.391-.391-.391-1.023 0-1.414s1.023-.391 1.414 0l1.915 1.915c.391.391.391 1.023 0 1.414-.195.195-.451.293-.707.293z"/><path d="m14.087 14.922c-.256 0-.512-.098-.707-.293-.391-.391-.391-1.023 0-1.414l1.917-1.918c.391-.391 1.023-.391 1.414 0s.391 1.023 0 1.414l-1.917 1.918c-.195.195-.451.293-.707.293z"/><path d="m18.004 15.004c-.256 0-.512-.098-.707-.293l-2-2c-.391-.391-.391-1.023 0-1.414s1.023-.391 1.414 0l2 2c.391.391.391 1.023 0 1.414-.195.195-.451.293-.707.293z"/><path d="m19.001 63.998c-1.654 0-3-1.346-3-3 0-.553.447-1 1-1s1 .447 1 1c0 .552.448 1 1 1s1-.448 1-1c0-.553.447-1 1-1s1 .447 1 1c0 1.654-1.346 3-3 3z"/><path d="m30 62c-.553 0-1-.447-1-1v-43.413c0-.553.447-1 1-1s1 .447 1 1v43.413c0 .553-.447 1-1 1z"/><path d="m34 62c-.553 0-1-.447-1-1v-43.414c0-.553.447-1 1-1s1 .447 1 1v43.414c0 .553-.447 1-1 1z"/><path d="m32 19.004c-3.309 0-6-2.691-6-6 0-2.195 2.015-13.002 6-13.002s6 10.807 6 13.002c0 3.309-2.691 6-6 6zm0-17.002c-1.59 0-4 7.812-4 11.002 0 2.206 1.794 4 4 4s4-1.794 4-4c0-3.191-2.41-11.002-4-11.002z"/><path d="m29.999 10.004c-.256 0-.512-.098-.707-.293-.391-.391-.391-1.023 0-1.414l2-2c.391-.391 1.023-.391 1.414 0s.391 1.023 0 1.414l-2 2c-.195.195-.451.293-.707.293z"/><path d="m33.999 10.004c-.256 0-.512-.098-.707-.293l-2-2c-.391-.391-.391-1.023 0-1.414s1.023-.391 1.414 0l2 2c.391.391.391 1.023 0 1.414-.195.195-.451.293-.707.293z"/><path d="m33.002 15.004c-.256 0-.512-.098-.707-.293-.391-.391-.391-1.023 0-1.414l2-2c.391-.391 1.023-.391 1.414 0s.391 1.023 0 1.414l-2 2c-.195.195-.451.293-.707.293z"/><path d="m36.917 14.919c-.256 0-.512-.098-.707-.293l-1.915-1.915c-.391-.391-.391-1.023 0-1.414s1.023-.391 1.414 0l1.915 1.915c.391.391.391 1.023 0 1.414-.195.195-.451.293-.707.293z"/><path d="m27.086 14.922c-.256 0-.512-.098-.707-.293-.391-.391-.391-1.023 0-1.414l1.917-1.918c.391-.391 1.023-.391 1.414 0s.391 1.023 0 1.414l-1.917 1.918c-.195.195-.451.293-.707.293z"/><path d="m31.003 15.004c-.256 0-.512-.098-.707-.293l-2-2c-.391-.391-.391-1.023 0-1.414s1.023-.391 1.414 0l2 2c.391.391.391 1.023 0 1.414-.195.195-.451.293-.707.293z"/><path d="m32 63.998c-1.654 0-3-1.346-3-3 0-.553.447-1 1-1s1 .447 1 1c0 .552.448 1 1 1s1-.448 1-1c0-.553.447-1 1-1s1 .447 1 1c0 1.654-1.346 3-3 3z"/><path d="m42.999 62c-.553 0-1-.447-1-1v-43.413c0-.553.447-1 1-1s1 .447 1 1v43.413c0 .553-.447 1-1 1z"/><path d="m46.999 62c-.553 0-1-.447-1-1v-43.414c0-.553.447-1 1-1s1 .447 1 1v43.414c0 .553-.447 1-1 1z"/><path d="m44.999 19.004c-3.309 0-6-2.691-6-6 0-2.195 2.015-13.002 6-13.002s6 10.807 6 13.002c0 3.309-2.691 6-6 6zm0-17.002c-1.59 0-4 7.812-4 11.002 0 2.206 1.794 4 4 4s4-1.794 4-4c0-3.191-2.41-11.002-4-11.002z"/><path d="m42.998 10.004c-.256 0-.512-.098-.707-.293-.391-.391-.391-1.023 0-1.414l2-2c.391-.391 1.023-.391 1.414 0s.391 1.023 0 1.414l-2 2c-.195.195-.451.293-.707.293z"/><path d="m46.998 10.004c-.256 0-.512-.098-.707-.293l-2-2c-.391-.391-.391-1.023 0-1.414s1.023-.391 1.414 0l2 2c.391.391.391 1.023 0 1.414-.195.195-.451.293-.707.293z"/><path d="m46.001 15.004c-.256 0-.512-.098-.707-.293-.391-.391-.391-1.023 0-1.414l2-2c.391-.391 1.023-.391 1.414 0s.391 1.023 0 1.414l-2 2c-.195.195-.451.293-.707.293z"/><path d="m49.916 14.919c-.256 0-.512-.098-.707-.293l-1.915-1.915c-.391-.391-.391-1.023 0-1.414s1.023-.391 1.414 0l1.915 1.915c.391.391.391 1.023 0 1.414-.195.195-.451.293-.707.293z"/><path d="m40.085 14.922c-.256 0-.512-.098-.707-.293-.391-.391-.391-1.023 0-1.414l1.917-1.918c.391-.391 1.023-.391 1.414 0s.391 1.023 0 1.414l-1.917 1.918c-.195.195-.451.293-.707.293z"/><path d="m44.002 15.004c-.256 0-.512-.098-.707-.293l-2-2c-.391-.391-.391-1.023 0-1.414s1.023-.391 1.414 0l2 2c.391.391.391 1.023 0 1.414-.195.195-.451.293-.707.293z"/><path d="m44.999 63.998c-1.654 0-3-1.346-3-3 0-.553.447-1 1-1s1 .447 1 1c0 .552.448 1 1 1s1-.448 1-1c0-.553.447-1 1-1s1 .447 1 1c0 1.654-1.346 3-3 3z"/></svg>