<svg id="icons" enable-background="new 0 0 64 64" height="512" viewBox="0 0 64 64" width="512" xmlns="http://www.w3.org/2000/svg"><path d="m39.5 1.01c1.65 0 3 1.34 3 3s-1.35 3-3 3v9.12.01c-.49-.08-.99-.13-1.5-.13s-1.01.05-1.5.13v-12.13c0-1.66 1.34-3 3-3z" fill="#a0d468"/><path d="m46.5 24.51v9.5c0 15.82-12.629 28.66-28.379 28.98 6.34-.32 11.379-5.56 11.379-11.98v-26.46-.04c0-4.19 3.02-7.66 7-8.37.49-.08.99-.13 1.5-.13s1.01.05 1.5.13c3.98.71 7 4.179 7 8.37z" fill="#ed5565"/><path d="m39.5 16.14c-.49-.08-.99-.13-1.5-.13s-1.01.05-1.5.13c3.979.711 6.998 4.181 6.998 8.37v9.5c0 13.179-8.768 24.281-20.799 27.81-1.398.674-2.943 1.088-4.578 1.171 15.75-.321 28.379-13.161 28.379-28.981v-9.5c0-4.191-3.02-7.66-7-8.37z" fill="#da4453"/><path d="m46.5 25.496c-.553 0-1-.447-1-1 0-4.136-3.364-7.5-7.5-7.5s-7.5 3.364-7.5 7.5c0 .553-.447 1-1 1s-1-.447-1-1c0-5.238 4.262-9.5 9.5-9.5s9.5 4.262 9.5 9.5c0 .553-.447 1-1 1z"/><path d="m17.5 63.998c-.553 0-1-.447-1-1s.447-1 1-1c15.438 0 27.999-12.56 27.999-27.998 0-.553.447-1 1-1s1 .447 1 1c0 16.541-13.457 29.998-29.999 29.998z"/><path d="m17.504 64c-.553 0-1-.447-1-1s.447-1 1-1c6.063 0 10.997-4.934 10.997-10.998 0-.553.447-1 1-1s1 .447 1 1c0 7.167-5.83 12.998-12.997 12.998z"/><path d="m29.501 52.002c-.553 0-1-.447-1-1v-26.461c0-.553.447-1 1-1s1 .447 1 1v26.461c0 .553-.447 1-1 1z"/><path d="m36.499 17.129c-.553 0-1-.447-1-1v-12.129c0-.553.447-1 1-1s1 .447 1 1v12.129c0 .553-.447 1-1 1z"/><path d="m39.5 17.115c-.553 0-1-.447-1-1v-12.115c0-.553.447-1 1-1s1 .447 1 1v12.115c0 .553-.447 1-1 1z"/><path d="m46.499 35c-.553 0-1-.447-1-1v-9.504c0-.553.447-1 1-1s1 .447 1 1v9.504c0 .553-.447 1-1 1z"/><path d="m39.5 8.002c-.553 0-1-.447-1-1s.447-1 1-1c1.103 0 2-.897 2-2 0-1.104-.897-2.002-2-2.002-1.104 0-2.001.898-2.001 2.002 0 .553-.447 1-1 1s-1-.447-1-1c0-2.207 1.795-4.002 4.001-4.002s4 1.795 4 4.002c0 2.206-1.794 4-4 4z"/></svg>