<svg id="icons" enable-background="new 0 0 64 64" height="512" viewBox="0 0 64 64" width="512" xmlns="http://www.w3.org/2000/svg"><path d="m24.5 9v.01h-10l2-8.01h6z" fill="#83b246"/><path d="m49.5 9v.01h-10l2-8.01h6z" fill="#83b246"/><path d="m54.5 53v.01c-.01 5.52-4.48 9.99-10 9.99-5.53 0-9.99-4.471-10-9.99v-.01-38.98-.01c0-2.76 2.23-5 5-5h10v-.01c2.76 0 5 2.239 5 5.01v.01z" fill="#a0d468"/><path d="m29.51 14.02v38.98h-.01c0 5.52-4.48 10-10 10s-9.99-4.471-10-9.99v-.01-38.98-.01c0-2.76 2.24-5 5-5h10v-.01c2.77 0 5.01 2.239 5.01 5.01z" fill="#a0d468"/><path d="m49.5 9v.01h-2.906c2.714.053 4.903 2.263 4.903 5v.01 38.98.01c-.009 5.008-3.694 9.141-8.5 9.866.491.073.99.124 1.503.124 5.52 0 9.99-4.471 10-9.99v-.01-38.98-.01c0-2.771-2.24-5.01-5-5.01z" fill="#8cc152"/><path d="m24.5 9v.01h-2.905c2.724.053 4.913 2.263 4.913 5v.01 38.98h-.01c0 5.009-3.693 9.148-8.5 9.875.491.074.99.125 1.502.125 5.52 0 10-4.48 10-10h.01v-38.98-.01c0-2.771-2.24-5.01-5.01-5.01z" fill="#8cc152"/><path d="m9.498 54.012c-.553 0-1-.447-1-1v-38.989c0-.553.447-1 1-1s1 .447 1 1v38.988c0 .553-.447 1.001-1 1.001z"/><path d="m29.506 54.012c-.553 0-1-.447-1-1v-38.989c0-.553.447-1 1-1s1 .447 1 1v38.988c0 .553-.447 1.001-1 1.001z"/><path d="m19.498 64c-6.065 0-11-4.935-11-11 0-.553.447-1 1-1s1 .447 1 1c0 4.963 4.037 9 9 9s9-4.037 9-9c0-.553.447-1 1-1s1 .447 1 1c0 6.065-4.935 11-11 11z"/><path d="m9.498 15.012c-.553 0-1-.447-1-1 0-3.309 2.692-6 6.001-6 .553 0 1 .447 1 1s-.447 1-1 1c-2.206 0-4.001 1.794-4.001 4 0 .552-.447 1-1 1z"/><path d="m29.506 15.012c-.553 0-1-.447-1-1 0-2.21-1.798-4.008-4.008-4.008-.553 0-1-.447-1-1s.447-1 1-1c3.313 0 6.008 2.695 6.008 6.008 0 .552-.447 1-1 1z"/><path d="m14.5 10.012c-.08 0-.162-.01-.243-.029-.536-.134-.861-.677-.729-1.213l2-8.012c.135-.535.678-.859 1.213-.729.536.134.861.677.729 1.213l-2 8.012c-.115.454-.522.758-.97.758z"/><path d="m24.496 10.004c-.448 0-.855-.303-.969-.758l-2-8.004c-.135-.535.191-1.078.728-1.212.533-.135 1.078.19 1.212.728l2 8.004c.135.535-.191 1.078-.728 1.212-.081.02-.163.03-.243.03z"/><path d="m24.497 10.012h-9.998c-.553 0-1-.447-1-1s.447-1 1-1h9.998c.553 0 1 .447 1 1s-.447 1-1 1z"/><path d="m22.497 2h-5.998c-.553 0-1-.447-1-1s.447-1 1-1h5.998c.553 0 1 .447 1 1s-.447 1-1 1z"/><path d="m16.5 57.014c-.553 0-1-.447-1-1v-41.99c0-.553.447-1 1-1s1 .447 1 1v41.99c0 .552-.447 1-1 1z"/><path d="m22.5 57.014c-.553 0-1-.447-1-1v-41.99c0-.553.447-1 1-1s1 .447 1 1v41.99c0 .552-.447 1-1 1z"/><path d="m34.494 54.012c-.553 0-1-.447-1-1v-38.989c0-.553.447-1 1-1s1 .447 1 1v38.988c0 .553-.447 1.001-1 1.001z"/><path d="m54.502 54.012c-.553 0-1-.447-1-1v-38.989c0-.553.447-1 1-1s1 .447 1 1v38.988c0 .553-.447 1.001-1 1.001z"/><path d="m44.494 64c-6.065 0-11-4.935-11-11 0-.553.447-1 1-1s1 .447 1 1c0 4.963 4.037 9 9 9s9-4.037 9-9c0-.553.447-1 1-1s1 .447 1 1c0 6.065-4.934 11-11 11z"/><path d="m34.494 15.012c-.553 0-1-.447-1-1 0-3.309 2.692-6 6.001-6 .553 0 1 .447 1 1s-.447 1-1 1c-2.206 0-4.001 1.794-4.001 4 0 .552-.447 1-1 1z"/><path d="m54.502 15.012c-.553 0-1-.447-1-1 0-2.21-1.798-4.008-4.008-4.008-.553 0-1-.447-1-1s.447-1 1-1c3.313 0 6.008 2.695 6.008 6.008 0 .552-.447 1-1 1z"/><path d="m39.496 10.012c-.08 0-.162-.01-.243-.029-.536-.134-.861-.677-.729-1.213l2-8.012c.134-.535.677-.859 1.213-.729.536.134.861.677.729 1.213l-2 8.012c-.114.454-.522.758-.97.758z"/><path d="m49.492 10.004c-.448 0-.855-.303-.969-.758l-2-8.004c-.135-.535.191-1.078.728-1.212.533-.135 1.078.19 1.212.728l2 8.004c.135.535-.191 1.078-.728 1.212-.081.02-.163.03-.243.03z"/><path d="m49.493 10.012h-9.998c-.553 0-1-.447-1-1s.447-1 1-1h9.998c.553 0 1 .447 1 1s-.447 1-1 1z"/><path d="m47.493 2h-5.998c-.553 0-1-.447-1-1s.447-1 1-1h5.998c.553 0 1 .447 1 1s-.447 1-1 1z"/><path d="m41.496 57.014c-.553 0-1-.447-1-1v-41.99c0-.553.447-1 1-1s1 .447 1 1v41.99c0 .552-.447 1-1 1z"/><path d="m47.496 57.014c-.553 0-1-.447-1-1v-41.99c0-.553.447-1 1-1s1 .447 1 1v41.99c0 .552-.447 1-1 1z"/></svg>