<svg id="icons" enable-background="new 0 0 64 64" height="512" viewBox="0 0 64 64" width="512" xmlns="http://www.w3.org/2000/svg"><path d="m28 59c0 2.17 1.73 3.94 3.89 3.99h-3.89v.01c-2.21 0-4-1.79-4-4h.01v-26.06c.641.199 1.32.109 1.891-.21.229.8.85 1.47 1.71 1.699.13.04.26.061.39.07v24.501z" fill="#8cc152"/><path d="m36 34.49v24.51h.01c0 2.18-1.75 3.95-3.91 4h-.1v-.01-27.99c.89 0 1.66-.479 2.08-1.19.51.48 1.2.75 1.92.68z" fill="#8cc152"/><path d="m29.92 33.81c.42.711 1.19 1.19 2.08 1.19v27.99h-.11c-2.16-.05-3.89-1.82-3.89-3.99v-24.5c.72.07 1.42-.2 1.92-.69z" fill="#83b246"/><path d="m40 32.94v26.06h.01c0 2.21-1.79 4-4 4h-.01-3.9c2.16-.05 3.91-1.82 3.91-4h-.01v-24.51c.13-.01.26-.03.4-.07.859-.229 1.479-.89 1.699-1.689.581.319 1.261.409 1.901.209z" fill="#83b246"/><path d="m24.01 32.94c-.18-.04-.35-.11-.51-.21-.77-.45-1.19-1.25-1.2-2.08-.8.21-1.689 0-2.319-.62-.631-.63-.83-1.521-.631-2.32-.83-.01-1.63-.439-2.069-1.21-.45-.76-.41-1.67-.011-2.39-.8-.23-1.46-.851-1.689-1.7-.23-.86.04-1.73.62-2.32-.711-.43-1.201-1.2-1.201-2.09s.49-1.65 1.19-2.08c-.57-.59-.841-1.46-.61-2.31.229-.86.89-1.48 1.689-1.71-.399-.721-.439-1.63.011-2.4.439-.76 1.239-1.19 2.069-1.2-.199-.8 0-1.689.631-2.319.63-.631 1.52-.831 2.32-.631.01-.819.431-1.63 1.2-2.069.77-.45 1.68-.41 2.4-.01.22-.801.85-1.461 1.7-1.691.86-.23 1.721.04 2.32.62.42-.71 1.19-1.2 2.08-1.2s1.66.49 2.08 1.2c.6-.58 1.46-.84 2.32-.61.86.22 1.48.89 1.7 1.69.73-.41 1.631-.44 2.4.01.77.44 1.2 1.24 1.2 2.07.81-.21 1.689 0 2.319.62.631.63.831 1.52.631 2.32.83.01 1.63.44 2.069 1.2.45.771.42 1.68.011 2.4.8.229 1.46.85 1.689 1.71.24.85-.03 1.72-.61 2.31.711.43 1.191 1.19 1.191 2.08s-.48 1.66-1.19 2.09c.57.59.841 1.46.61 2.32-.229.85-.89 1.47-1.689 1.689.399.73.439 1.631-.011 2.4-.439.771-1.239 1.2-2.069 1.21.199.8 0 1.68-.631 2.311-.63.63-1.51.829-2.319.63-.01.83-.431 1.63-1.2 2.069-.16.09-.33.17-.5.221-.64.199-1.32.109-1.9-.21-.22.8-.84 1.46-1.699 1.689-.141.04-.271.061-.4.07-.72.069-1.41-.2-1.92-.681-.422.713-1.192 1.192-2.082 1.192s-1.66-.479-2.08-1.19c-.5.49-1.2.761-1.92.69-.13-.01-.26-.03-.39-.07-.86-.229-1.48-.899-1.71-1.699-.57.319-1.25.409-1.89.209z" fill="#a0d468"/><path d="m32.002 63.999c-2.759 0-5.004-2.245-5.004-5.004 0-.553.447-1 1-1s1 .447 1 1c0 1.656 1.348 3.004 3.004 3.004.553 0 1 .447 1 1s-.447 1-1 1z"/><path d="m32.002 63.999c-.553 0-1-.447-1-1s.447-1 1-1c1.656 0 3.004-1.348 3.004-3.004 0-.553.447-1 1-1s1 .447 1 1c0 2.759-2.245 5.004-5.004 5.004z"/><path d="m36.006 63.999c-.553 0-1-.447-1-1s.447-1 1-1c1.656 0 3.004-1.348 3.004-3.004 0-.553.447-1 1-1s1 .447 1 1c0 2.759-2.245 5.004-5.004 5.004z"/><path d="m36 63.995-7.997-.004c-.552 0-.999-.448-.999-1 0-.553.448-1 1-1l7.997.004c.552 0 .999.448.999 1 0 .553-.448 1-1 1z"/><path d="m32.002 63.993c-.553 0-1-.447-1-1v-27.993c0-.553.447-1 1-1s1 .447 1 1v27.993c0 .553-.447 1-1 1z"/><path d="m36 59.995c-.553 0-1-.447-1-1v-24.505c0-.553.447-1 1-1s1 .447 1 1v24.505c0 .553-.447 1-1 1z"/><path d="m40 59.995c-.553 0-1-.447-1-1v-26.069c0-.553.447-1 1-1s1 .447 1 1v26.069c0 .553-.447 1-1 1z"/><path d="m28.004 63.999c-2.759 0-5.004-2.245-5.004-5.004 0-.553.447-1 1-1s1 .447 1 1c0 1.656 1.348 3.004 3.004 3.004.553 0 1 .447 1 1s-.447 1-1 1z"/><path d="m24.01 59.995c-.553 0-1-.447-1-1v-26.069c0-.553.447-1 1-1s1 .447 1 1v26.069c0 .553-.447 1-1 1z"/><path d="m28.002 59.995c-.553 0-1-.447-1-1v-24.496c0-.553.447-1 1-1s1 .447 1 1v24.496c0 .553-.447 1-1 1z"/><path d="m32.001 36c-.85 0-1.644-.308-2.258-.853-.733.366-1.599.46-2.396.247-.824-.223-1.513-.728-1.965-1.415-.803.162-1.663.026-2.377-.381-.74-.433-1.272-1.099-1.531-1.878-.833-.051-1.607-.397-2.2-.988-.6-.603-.942-1.382-.992-2.202-.779-.259-1.442-.791-1.867-1.526-.427-.735-.558-1.578-.391-2.387-.684-.455-1.194-1.146-1.412-1.947-.215-.827-.121-1.673.245-2.407-.547-.615-.856-1.409-.857-2.259.001-.851.311-1.646.858-2.263-.362-.732-.46-1.584-.249-2.39.223-.827.728-1.517 1.415-1.971-.16-.808-.029-1.659.393-2.383.414-.72 1.085-1.255 1.862-1.518.048-.823.392-1.604.994-2.206.592-.593 1.365-.939 2.199-.991.259-.78.792-1.444 1.529-1.868.709-.412 1.574-.552 2.379-.391.453-.688 1.142-1.192 1.963-1.413.824-.213 1.672-.116 2.396.246 1.234-1.097 3.293-1.095 4.523.002.729-.362 1.595-.455 2.4-.238.804.211 1.496.722 1.953 1.409.811-.168 1.672-.028 2.388.391.735.421 1.268 1.084 1.525 1.864.832.051 1.605.398 2.198.991.602.601.945 1.379.993 2.2.779.259 1.441.792 1.865 1.528.421.721.552 1.57.39 2.378.688.453 1.192 1.142 1.413 1.965.219.807.123 1.661-.243 2.396.548.616.856 1.41.856 2.261.001.851-.308 1.646-.854 2.261.365.731.459 1.574.246 2.394-.218.81-.729 1.503-1.414 1.959.167.81.035 1.653-.394 2.39-.413.72-1.084 1.256-1.863 1.519-.049.822-.392 1.603-.993 2.204-.593.594-1.369.941-2.204.991-.263.778-.8 1.45-1.523 1.867-.709.416-1.569.557-2.384.39-.455.684-1.146 1.195-1.951 1.413-.831.216-1.678.116-2.404-.245-.617.545-1.411.854-2.261.854zm-2.082-3.191c.042 0 .084.003.126.008.305.039.575.216.732.479.526.882 1.917.883 2.449-.003.157-.262.425-.438.728-.477.302-.039.606.061.825.273.366.354.889.494 1.372.366.477-.129.849-.502.989-.996.083-.294.296-.534.579-.651.279-.117.602-.1.869.05.441.247.979.249 1.408-.002.438-.252.701-.707.707-1.219.004-.307.147-.595.391-.781.242-.187.556-.256.856-.176.482.125 1.011-.014 1.361-.366.355-.355.492-.865.366-1.365-.075-.298-.01-.612.178-.855.187-.243.475-.387.781-.39.513-.006.967-.267 1.215-.699.255-.438.256-.965.005-1.415-.148-.268-.167-.588-.05-.87s.357-.495.651-.578c.496-.141.869-.513.999-.996.125-.482-.012-.995-.369-1.365-.213-.219-.313-.524-.273-.827.04-.304.218-.571.48-.728.441-.263.705-.719.704-1.222 0-.505-.264-.962-.704-1.225-.265-.157-.442-.428-.481-.732-.039-.306.065-.611.281-.83.353-.356.492-.873.363-1.349-.132-.49-.506-.865-1.001-1.006-.295-.084-.535-.298-.651-.581s-.097-.604.054-.872c.247-.438.245-.975-.003-1.401-.253-.439-.708-.702-1.22-.708-.307-.004-.595-.147-.781-.391s-.252-.559-.176-.855c.126-.498-.011-1.008-.366-1.362-.352-.353-.875-.488-1.365-.366-.298.075-.612.009-.855-.178-.243-.188-.387-.476-.39-.782-.005-.511-.267-.965-.7-1.214-.441-.258-.971-.25-1.408-.002-.267.151-.59.17-.873.054-.284-.117-.498-.358-.582-.653-.138-.49-.518-.872-.99-.995-.508-.139-1.005.009-1.37.36-.22.214-.525.313-.827.273-.303-.04-.57-.217-.728-.479-.526-.886-1.918-.887-2.45-.001-.156.262-.424.438-.727.478-.309.04-.607-.061-.826-.272-.36-.35-.887-.497-1.365-.368-.481.129-.856.503-.997.998-.084.295-.298.534-.581.651-.284.115-.604.097-.871-.053-.432-.243-.976-.247-1.403.004-.439.252-.702.707-.708 1.22-.004.307-.147.595-.391.781s-.558.253-.856.176c-.481-.122-1.011.014-1.361.366-.356.355-.493.865-.367 1.364.076.297.011.612-.176.855s-.475.387-.781.391c-.513.005-.968.267-1.217.7-.252.433-.254.972-.007 1.412.149.267.168.588.051.87-.116.283-.356.497-.651.58-.494.141-.867.515-.998 1.002-.124.475.016.997.366 1.355.214.219.316.523.277.826-.039.304-.215.573-.478.73-.443.267-.708.726-.709 1.228.001.5.266.958.709 1.225.262.156.438.424.478.727s-.061.606-.272.826c-.358.37-.496.885-.369 1.374.129.474.503.848.999.988.294.084.533.297.65.579s.099.603-.051.87c-.25.449-.249.976.002 1.408.252.437.707.699 1.22.705.307.004.594.147.78.39.188.243.253.558.178.854-.126.5.011 1.012.366 1.369.348.347.876.489 1.364.361.296-.075.613-.011.855.177.243.188.388.476.391.782.006.513.27.972.707 1.228.412.236.974.237 1.403-.005.267-.15.588-.169.872-.054.283.117.497.357.58.652.141.496.516.87 1.004 1.003.464.122.998-.019 1.35-.366.188-.185.442-.287.704-.287z"/></svg>