<svg id="icons" enable-background="new 0 0 64 64" height="512" viewBox="0 0 64 64" width="512" xmlns="http://www.w3.org/2000/svg"><path d="m52.995 25.49c1.66 0 7.01 1.34 7.01 3s-5.35 3-7.01 3c-1.65 0-3-1.34-3-3s1.35-3 3-3z" fill="#a0d468"/><path d="m46.995 56.51v2.99c0 1.1-.9 2-2 2h-4c-5.53 0-10-4.47-10-10v-8.99-.01c0-4.43 3.58-8.01 8-8.01h4c2.22 0 4 1.79 4 4v4.02c-3.31 0-6 2.69-6 6 0 3.32 2.691 8 6 8z" fill="#ffd2a6"/><path d="m46.995 42.51v14c-3.31 0-6-4.68-6-8 0-3.31 2.691-6 6-6z" fill="#f7c292"/><path d="m46.995 42.51c3.32 0 6 2.69 6 6 0 3.32-2.68 8-6 8z" fill="#f7c292"/><path d="m63.005 42.51v8.99h-.01c0 5.53-4.47 10-10 10h-4c-1.1 0-2-.89-2-2v-2.99c3.32 0 6-4.68 6-8 0-3.31-2.68-6-6-6v-4.02c0-2.21 1.79-4 4-4h4c4.43 0 8.01 3.59 8.01 8.01z" fill="#ffd2a6"/><path d="m14.005 5.5c0 1.66-1.34 3-3 3s-7.01-1.34-7.01-3 5.35-3 7.01-3 3 1.34 3 3z" fill="#a0d468"/><path d="m33.015 19.52v8.99c0 5.53-4.47 10-10 10h-4c-1.109 0-2.01-.899-2.01-2 0 1.101-.89 2-2 2h-4c-5.529 0-10-4.47-10-10h-.01v-8.99-.01c0-4.43 3.59-8.01 8.02-8.01h3.99c2.21 0 4 1.79 4 4 0-2.21 1.79-4 4-4h4c4.431 0 8.01 3.58 8.01 8.01z" fill="#ed5565"/><path d="m25.005 11.5h-3.003c4.431 0 8.01 3.58 8.01 8.01v.01 8.99c0 5.53-4.47 10-10 10h3.003c5.53 0 10-4.47 10-10v-8.99-.01c0-4.43-3.579-8.01-8.01-8.01z" fill="#da4453"/><path d="m11.002 39.509c-6.065 0-11-4.935-11-11 0-.553.447-1 1-1s1 .447 1 1c0 4.963 4.037 9 9 9 .553 0 1 .447 1 1s-.447 1-1 1z"/><path d="m15.006 39.509c-.553 0-1-.447-1-1s.447-1 1-1c.552 0 1-.448 1-1 0-.553.447-1 1-1s1 .447 1 1c0 1.654-1.346 3-3 3z"/><path d="m23.012 39.509c-.553 0-1-.447-1-1s.447-1 1-1c4.963 0 9-4.037 9-9 0-.553.447-1 1-1s1 .447 1 1c0 6.065-4.935 11-11 11z"/><path d="m19.01 39.509c-1.656 0-3.004-1.347-3.004-3.003 0-.553.447-1 1-1s1 .447 1 1 .45 1.003 1.004 1.003c.553 0 1 .447 1 1s-.447 1-1 1z"/><path d="m15.006 39.509h-4.004c-.553 0-1-.447-1-1s.447-1 1-1h4.004c.553 0 1 .447 1 1s-.447 1-1 1z"/><path d="m23.012 39.509h-4.002c-.553 0-1-.447-1-1s.447-1 1-1h4.002c.553 0 1 .447 1 1s-.448 1-1 1z"/><path d="m17.002 16.502c-.553 0-1-.447-1-1 0-1.654-1.346-3-3-3-.553 0-1-.447-1-1s.447-1 1-1c2.757 0 5 2.243 5 5 0 .553-.447 1-1 1z"/><path d="m17.002 16.502c-.553 0-1-.447-1-1 0-2.757 2.243-5 5-5 .553 0 1 .447 1 1s-.447 1-1 1c-1.654 0-3 1.346-3 3 0 .553-.447 1-1 1z"/><path d="m33.012 20.506c-.553 0-1-.447-1-1 0-3.863-3.143-7.006-7.006-7.006-.553 0-1-.447-1-1s.447-1 1-1c4.966 0 9.006 4.04 9.006 9.006 0 .553-.448 1-1 1z"/><path d="m25.006 12.502h-4.004c-.553 0-1-.447-1-1s.447-1 1-1h4.004c.553 0 1 .447 1 1s-.447 1-1 1z"/><path d="m33.012 29.509c-.553 0-1-.447-1-1v-8.989c0-.553.447-1 1-1s1 .447 1 1v8.989c0 .553-.448 1-1 1z"/><path d="m.996 20.513c-.553 0-1-.447-1-1 0-4.97 4.044-9.013 9.014-9.013.553 0 1 .447 1 1s-.447 1-1 1c-3.867 0-7.014 3.146-7.014 7.013 0 .552-.447 1-1 1z"/><path d="m13.002 12.502h-3.992c-.553 0-1-.447-1-1s.447-1 1-1h3.992c.553 0 1 .447 1 1s-.447 1-1 1z"/><path d="m.996 29.509c-.553 0-1-.447-1-1v-8.989c0-.553.447-1 1-1s1 .447 1 1v8.989c0 .553-.447 1-1 1z"/><path d="m17.002 16.502c-.553 0-1-.448-1-1l.004-13c0-.553.448-1 1-1 .553 0 1 .448 1 1l-.004 13c0 .553-.448 1-1 1z"/><path d="m11.002 9.5c-1.141 0-8.004-1.152-8.004-4s6.863-4 8.004-4c2.206 0 4 1.794 4 4s-1.794 4-4 4zm-5.982-4c.485.79 4.333 2 5.982 2 1.103 0 2-.897 2-2s-.897-2-2-2c-1.649 0-5.497 1.21-5.982 2z"/><path d="m16.939 6.501h-6.938c-.553 0-1-.447-1-1s.447-1 1-1h6.938c.553 0 1 .447 1 1s-.447 1-1 1z"/><path d="m52.998 62.5c-.553 0-1-.447-1-1s.447-1 1-1c4.963 0 9-4.037 9-9 0-.553.447-1 1-1s1 .447 1 1c0 6.065-4.935 11-11 11z"/><path d="m48.994 62.5c-1.654 0-3-1.346-3-3 0-.553.447-1 1-1s1 .447 1 1c0 .552.448 1 1 1 .553 0 1 .447 1 1s-.447 1-1 1z"/><path d="m40.988 62.5c-6.065 0-11-4.935-11-11 0-.553.447-1 1-1s1 .447 1 1c0 4.963 4.037 9 9 9 .553 0 1 .447 1 1s-.447 1-1 1z"/><path d="m44.99 62.5c-.553 0-1-.447-1-1s.447-1 1-1c.554 0 1.004-.45 1.004-1.003s.447-1 1-1 1 .447 1 1c0 1.656-1.348 3.003-3.004 3.003z"/><path d="m52.998 62.5h-4.004c-.553 0-1-.447-1-1s.447-1 1-1h4.004c.553 0 1 .447 1 1s-.447 1-1 1z"/><path d="m44.99 62.5h-4.002c-.553 0-1-.447-1-1s.447-1 1-1h4.002c.553 0 1 .447 1 1s-.447 1-1 1z"/><path d="m46.998 39.493c-.553 0-1-.447-1-1 0-2.757 2.243-5 5-5 .553 0 1 .447 1 1s-.447 1-1 1c-1.654 0-3 1.346-3 3 0 .553-.447 1-1 1z"/><path d="m46.998 39.493c-.553 0-1-.447-1-1 0-1.654-1.346-3-3-3-.553 0-1-.447-1-1s.447-1 1-1c2.757 0 5 2.243 5 5 0 .553-.447 1-1 1z"/><path d="m30.988 43.497c-.553 0-1-.447-1-1 0-4.966 4.04-9.006 9.006-9.006.553 0 1 .447 1 1s-.447 1-1 1c-3.863 0-7.006 3.143-7.006 7.006 0 .553-.447 1-1 1z"/><path d="m42.998 35.493h-4.004c-.553 0-1-.447-1-1s.447-1 1-1h4.004c.553 0 1 .447 1 1s-.447 1-1 1z"/><path d="m30.988 52.5c-.553 0-1-.447-1-1v-8.989c0-.553.447-1 1-1s1 .447 1 1v8.989c0 .553-.447 1-1 1z"/><path d="m63.004 43.504c-.553 0-1-.447-1-1 0-3.867-3.146-7.013-7.014-7.013-.553 0-1-.447-1-1s.447-1 1-1c4.97 0 9.014 4.043 9.014 9.013 0 .553-.447 1-1 1z"/><path d="m54.99 35.493h-3.992c-.553 0-1-.447-1-1s.447-1 1-1h3.992c.553 0 1 .447 1 1s-.447 1-1 1z"/><path d="m63.004 52.5c-.553 0-1-.447-1-1v-8.989c0-.553.447-1 1-1s1 .447 1 1v8.989c0 .553-.447 1-1 1z"/><path d="m46.998 60.5c-.552 0-1-.447-1-1l-.004-34.007c0-.552.447-1 1-1 .552 0 1 .447 1 1l.004 34.007c0 .552-.447 1-1 1z"/><path d="m52.998 32.491c-2.206 0-4-1.794-4-4s1.794-4 4-4c1.141 0 8.004 1.152 8.004 4s-6.863 4-8.004 4zm0-6c-1.103 0-2 .897-2 2s.897 2 2 2c1.649 0 5.497-1.21 5.982-2-.485-.79-4.333-2-5.982-2z"/><path d="m53.998 29.492h-6.938c-.553 0-1-.447-1-1s.447-1 1-1h6.938c.553 0 1 .447 1 1s-.447 1-1 1z"/><path d="m46.996 57.515c-4.061 0-7-5.377-7-9.002 0-3.859 3.141-7 7-7s7 3.141 7 7c0 3.625-2.939 9.002-7 9.002zm0-14.002c-2.757 0-5 2.243-5 5 0 2.992 2.472 7.002 5 7.002s5-4.01 5-7.002c0-2.757-2.243-5-5-5z"/><path d="m44.026 48.499c-.553 0-1.005-.447-1.005-1s.442-1 .994-1h.011c.552 0 1 .447 1 1s-.448 1-1 1z"/><path d="m50.026 48.499c-.553 0-1.005-.447-1.005-1s.442-1 .994-1h.011c.552 0 1 .447 1 1s-.448 1-1 1z"/></svg>