<svg id="icons" enable-background="new 0 0 64 64" height="512" viewBox="0 0 64 64" width="512" xmlns="http://www.w3.org/2000/svg"><path d="m15.01 4c0 1.66-1.351 3-3 3-1.66 0-7.01-1.34-7.01-3s5.35-3 7.01-3c1.649 0 3 1.34 3 3z" fill="#a0d468"/><path d="m60 26.99c0 1.66-5.351 3-7 3-1.66 0-2.99-1.33-3-2.99v-.01c0-1.65 1.34-3 3-3 1.649 0 7 1.35 7 3z" fill="#a0d468"/><path d="m47 40c8 4.42 8 11.58 0 16-8-4.42-8-11.58 0-16z" fill="#965353"/><path d="m63 46v4c0 7.18-5.82 13-13 13h-6c-7.181 0-13-5.82-13-13v-4c0-7.18 5.819-13 13-13h6c7.18 0 13 5.82 13 13zm-16 10c8-4.42 8-11.58 0-16-8 4.42-8 11.58 0 16z" fill="#ffd2a6"/><path d="m20 10.01c7.18 0 13 5.82 13 13v4c0 7.181-5.82 13-13 13h-6c7.18 0 13-5.819 13-13v-4c0-7.18-5.82-13-13-13z" fill="#e9573f"/><path d="m27 23.01v4c0 7.181-5.82 13-13 13-7.181 0-13-5.819-13-13v-4c0-7.18 5.819-13 13-13 7.18 0 13 5.82 13 13z" fill="#fc6e51"/><path d="m18.006 10.998c-.553 0-1-.448-1-1l.002-8.996c0-.553.448-1 1-1 .553 0 1 .448 1 1l-.002 8.996c0 .553-.448 1-1 1z"/><path d="m12.006 8c-1.141 0-8.004-1.152-8.004-4s6.863-4 8.004-4c2.206 0 4 1.794 4 4s-1.794 4-4 4zm-5.983-4c.484.79 4.332 2 5.982 2 1.103 0 2-.897 2-2s-.897-2-2-2c-1.649 0-5.495 1.21-5.982 2z"/><path d="m17.941 5.002h-6.936c-.553 0-1-.447-1-1s.447-1 1-1h6.936c.553 0 1 .447 1 1s-.447 1-1 1z"/><path d="m27 24.01c-.553 0-1-.447-1-1 0-6.617-5.383-12-12-12s-12 5.383-12 12c0 .553-.447 1-1 1s-1-.447-1-1c0-7.72 6.28-14 14-14s14 6.28 14 14c0 .553-.447 1-1 1z"/><path d="m14 41.006c-7.72 0-14-6.28-14-14 0-.553.447-1 1-1s1 .447 1 1c0 6.617 5.383 12 12 12s12-5.383 12-12c0-.553.447-1 1-1s1 .447 1 1c0 7.72-6.28 14-14 14z"/><path d="m1 28.006c-.553 0-1-.447-1-1v-3.996c0-.553.447-1 1-1s1 .447 1 1v3.996c0 .553-.447 1-1 1z"/><path d="m27 28.006c-.553 0-1-.447-1-1v-3.996c0-.553.447-1 1-1s1 .447 1 1v3.996c0 .553-.447 1-1 1z"/><path d="m32.998 24.01c-.553 0-1-.447-1-1 0-6.617-5.383-12-12-12-.553 0-1-.447-1-1s.447-1 1-1c7.72 0 14 6.28 14 14 0 .553-.447 1-1 1z"/><path d="m19.998 41.006c-.553 0-1-.447-1-1s.447-1 1-1c6.617 0 12-5.383 12-12 0-.553.447-1 1-1s1 .447 1 1c0 7.72-6.28 14-14 14z"/><path d="m32.998 28.006c-.553 0-1-.447-1-1v-3.996c0-.553.447-1 1-1s1 .447 1 1v3.996c0 .553-.447 1-1 1z"/><path d="m19.998 41.006h-5.998c-.553 0-1-.447-1-1s.447-1 1-1h5.998c.553 0 1 .447 1 1s-.447 1-1 1z"/><path d="m19.998 11.01h-5.998c-.553 0-1-.447-1-1s.447-1 1-1h5.998c.553 0 1 .447 1 1s-.447 1-1 1z"/><path d="m46.996 33.992c-.552 0-1-.447-1-1l-.004-8.996c0-.552.447-1 1-1 .552 0 1 .447 1 1l.004 8.996c0 .552-.447 1-1 1z"/><path d="m52.996 30.994c-2.206 0-4-1.794-4-4s1.794-4 4-4c1.141 0 8.004 1.152 8.004 4s-6.863 4-8.004 4zm0-6c-1.103 0-2 .897-2 2s.897 2 2 2c1.649 0 5.497-1.21 5.982-2-.486-.79-4.333-2-5.982-2z"/><path d="m53.996 27.996h-6.938c-.553 0-1-.447-1-1s.447-1 1-1h6.938c.553 0 1 .447 1 1s-.447 1-1 1z"/><path d="m63 47.004c-.553 0-1-.447-1-1 0-6.617-5.383-12-12-12-.553 0-1-.447-1-1s.447-1 1-1c7.72 0 14 6.28 14 14 0 .553-.447 1-1 1z"/><path d="m50 64c-.553 0-1-.447-1-1s.447-1 1-1c6.617 0 12-5.383 12-12 0-.553.447-1 1-1s1 .447 1 1c0 7.72-6.28 14-14 14z"/><path d="m63 51c-.553 0-1-.447-1-1v-3.996c0-.553.447-1 1-1s1 .447 1 1v3.996c0 .553-.447 1-1 1z"/><path d="m31.002 47.004c-.553 0-1-.447-1-1 0-7.72 6.28-14 14-14 .553 0 1 .447 1 1s-.447 1-1 1c-6.617 0-12 5.383-12 12 0 .553-.447 1-1 1z"/><path d="m44.002 64c-7.72 0-14-6.28-14-14 0-.553.447-1 1-1s1 .447 1 1c0 6.617 5.383 12 12 12 .553 0 1 .447 1 1s-.447 1-1 1z"/><path d="m31.002 51c-.553 0-1-.447-1-1v-3.996c0-.553.447-1 1-1s1 .447 1 1v3.996c0 .553-.447 1-1 1z"/><path d="m50 64h-5.998c-.553 0-1-.447-1-1s.447-1 1-1h5.998c.553 0 1 .447 1 1s-.447 1-1 1z"/><path d="m50 34.004h-5.998c-.553 0-1-.447-1-1s.447-1 1-1h5.998c.553 0 1 .447 1 1s-.447 1-1 1z"/><path d="m47.002 57c-.167 0-.333-.042-.483-.125-4.204-2.322-6.519-5.475-6.519-8.876s2.315-6.554 6.519-8.876c.301-.166.666-.166.967 0 4.202 2.322 6.517 5.475 6.517 8.876s-2.314 6.554-6.517 8.876c-.151.083-.317.125-.484.125zm0-15.85c-3.231 1.913-5.002 4.331-5.002 6.849s1.771 4.936 5.002 6.849c3.229-1.913 5-4.331 5-6.849s-1.771-4.936-5-6.849z"/></svg>