<svg id="icons" enable-background="new 0 0 64 64" height="512" viewBox="0 0 64 64" width="512" xmlns="http://www.w3.org/2000/svg"><path d="m32.49 8c0-3.87 3.14-7 7-7 3.87 0 15.01 3.13 15.01 7 0 3.67-10.03 6.68-14.36 6.98-1.939-1.511-4.18-2.65-6.609-3.311-.661-1.069-1.041-2.329-1.041-3.669z" fill="#a0d468"/><path d="m47.5 29.99v23.01c0 5.53-4.47 10-10 10h-2c-14.37 0-26-11.63-26-26v-7.01c0-10.49 8.51-19 19-19 1.74 0 3.43.229 5.03.68 2.43.66 4.67 1.8 6.609 3.311 4.481 3.469 7.361 8.909 7.361 15.009z" fill="#ed5565"/><path d="m40.14 14.98c-1.939-1.511-4.18-2.65-6.609-3.311-1.601-.45-3.29-.68-5.03-.68-.686 0-1.362.04-2.028.111 1.045.107 2.068.291 3.055.568 2.43.66 4.67 1.8 6.609 3.311 4.48 3.47 7.36 8.909 7.36 15.01v23.011c0 5.305-4.115 9.621-9.331 9.967.441.021.887.033 1.334.033h2c5.53 0 10-4.47 10-10v-23.01c0-6.1-2.88-11.54-7.36-15.01z" fill="#da4453"/><path d="m47.499 30.994c-.553 0-1-.447-1-1 0-9.925-8.075-18-18-18s-18 8.075-18 18c0 .553-.447 1-1 1s-1-.447-1-1c0-11.028 8.972-20 20-20s20 8.972 20 20c0 .553-.447 1-1 1z"/><path d="m35.499 63.998c-14.888 0-27-12.112-27-27 0-.553.447-1 1-1s1 .447 1 1c0 13.785 11.215 25 25 25 .553 0 1 .447 1 1s-.447 1-1 1z"/><path d="m37.499 63.998h-2c-.553 0-1-.447-1-1s.447-1 1-1h2c.553 0 1 .447 1 1s-.447 1-1 1z"/><path d="m9.499 37.998c-.553 0-1-.447-1-1v-7.004c0-.553.447-1 1-1s1 .447 1 1v7.004c0 .553-.447 1-1 1z"/><path d="m47.499 54c-.553 0-1-.447-1-1v-23.006c0-.553.447-1 1-1s1 .447 1 1v23.006c0 .553-.447 1-1 1z"/><path d="m28.499 11.994c-.553 0-1-.447-1-1v-7.992c0-.553.447-1 1-1s1 .447 1 1v7.992c0 .553-.447 1-1 1z"/><path d="m37.499 64c-.553 0-1-.447-1-1s.447-1 1-1c4.963 0 9-4.037 9-9 0-.553.447-1 1-1s1 .447 1 1c0 6.065-4.935 11-11 11z"/><path d="m40.138 15.977c-.521 0-.961-.404-.997-.932-.037-.551.379-1.028.93-1.066 4.814-.33 13.431-3.471 13.431-5.979 0-2.797-9.943-6-14.008-6-3.309 0-6 2.691-6 6 0 1.112.307 2.199.887 3.142.289.471.143 1.087-.327 1.376-.473.289-1.087.143-1.376-.327-.774-1.259-1.184-2.707-1.184-4.19 0-4.411 3.589-8 8-8 3.428 0 16.008 2.912 16.008 8 0 4.842-11.607 7.722-15.294 7.975-.024 0-.047.001-.07.001z"/><path d="m43.497 9h-14.998c-.553 0-1-.447-1-1s.447-1 1-1h14.998c.553 0 1 .447 1 1s-.447 1-1 1z"/></svg>