<svg id="icons" enable-background="new 0 0 64 64" height="512" viewBox="0 0 64 64" width="512" xmlns="http://www.w3.org/2000/svg"><path d="m32 7.495c5.471 0 10.4 2.31 13.86 6.01-7.74.04-14.39 4.73-17.311 11.41-3.939-3.13-8.859-5.1-14.229-5.37v-.01c2.781-7.04 9.651-12.04 17.68-12.04z" fill="#83b246"/><path d="m45.86 13.505c1.86 1.98 3.3 4.351 4.17 6.98-6.48 1.87-11.88 6.3-15.03 12.12-1.6-2.98-3.81-5.601-6.45-7.69 2.921-6.68 9.57-11.37 17.31-11.41z" fill="#83b246"/><path d="m35 32.605c.681 1.239 1.25 2.54 1.7 3.89-5.68-6.72-14.18-10.99-23.68-10.99h-.02-5.27c-.471-1.92-.73-3.93-.73-6h6.01c.44 0 .881.01 1.311.04 5.37.271 10.29 2.24 14.229 5.37 2.64 2.09 4.85 4.71 6.45 7.69z" fill="#8cc152"/><path d="m56.07 26.285c-7.37 1.68-13.73 5.979-18.061 11.87-.42-.57-.85-1.12-1.31-1.66-.45-1.35-1.02-2.65-1.7-3.89 3.15-5.82 8.55-10.25 15.03-12.12 2.21-.641 4.55-.98 6.97-.98.001 2.35-.318 4.62-.929 6.78z" fill="#a0d468"/><path d="m56.07 26.285c2.229-.51 4.55-.78 6.93-.78 0 12.891-7.87 23.95-19.069 28.62-.46-5.95-2.58-11.43-5.921-15.97 4.33-5.89 10.69-10.19 18.06-11.87z" fill="#8cc152"/><path d="m38.01 38.155c3.341 4.54 5.461 10.02 5.921 15.97-3.671 1.53-7.7 2.38-11.931 2.38-17.12 0-31-13.88-31-31h6.73 5.27.021c9.5 0 18 4.271 23.68 10.99.459.54.889 1.09 1.309 1.66z" fill="#a0d468"/><path d="m32 57.504c-.553 0-1-.447-1-1s.447-1 1-1c16.542 0 30-13.458 30-30 0-.552.447-1 1-1s1 .448 1 1c0 17.645-14.355 32-32 32z"/><path d="m7.726 26.504c-.449 0-.857-.305-.97-.76-.502-2.032-.756-4.132-.756-6.243 0-.552.447-1 1-1s1 .448 1 1c0 1.949.234 3.888.697 5.763.133.536-.195 1.078-.731 1.21-.08.021-.161.03-.24.03z"/><path d="m56.071 27.281c-.09 0-.181-.012-.271-.038-.531-.149-.842-.702-.692-1.233.592-2.108.892-4.298.892-6.509 0-.552.447-1 1-1s1 .448 1 1c0 2.394-.325 4.766-.967 7.05-.124.442-.525.73-.962.73z"/><path d="m50.029 21.482c-.419 0-.809-.265-.948-.684-2.456-7.358-9.32-12.302-17.081-12.302-7.444 0-14.021 4.476-16.753 11.403-.203.514-.781.765-1.298.563-.514-.203-.766-.783-.563-1.297 3.037-7.696 10.343-12.669 18.614-12.669 8.623 0 16.25 5.494 18.978 13.67.175.524-.107 1.09-.632 1.265-.105.034-.212.051-.317.051z"/><path d="m28.546 25.908c-.133 0-.269-.027-.399-.084-.506-.221-.737-.811-.516-1.317 3.165-7.248 10.317-11.962 18.221-12.009h.006c.55 0 .997.444 1 .994.003.552-.441 1.002-.994 1.006-7.113.042-13.551 4.285-16.4 10.81-.165.376-.532.6-.918.6z"/><path d="m43.922 55.127c-.519 0-.956-.399-.996-.925-1.176-15.531-14.316-27.698-29.914-27.698-.553 0-1-.448-1-1s.447-1 1-1c16.639 0 30.654 12.979 31.908 29.547.042.551-.371 1.03-.922 1.072-.025.003-.051.004-.076.004z"/><path d="m32 57.504c-17.645 0-32-14.354-32-32 0-.552.447-1 1-1s1 .448 1 1c0 16.542 13.458 30 30 30 .553 0 1 .447 1 1s-.447 1-1 1z"/><path d="m38.004 39.15c-.205 0-.413-.063-.592-.194-.444-.327-.54-.953-.213-1.398 6.01-8.174 15.655-13.054 25.801-13.054.553 0 1 .448 1 1s-.447 1-1 1c-9.512 0-18.555 4.575-24.189 12.239-.197.267-.499.407-.807.407z"/><path d="" style="fill:none;stroke:#000;stroke-width:2;stroke-linecap:round;stroke-linejoin:round;stroke-miterlimit:10"/><path d="m13 26.504h-12c-.553 0-1-.448-1-1s.447-1 1-1h12c.553 0 1 .448 1 1s-.447 1-1 1z"/><path d="m36.699 37.494c-.418 0-.807-.263-.947-.681-3.29-9.758-12.431-16.315-22.746-16.315-.553 0-1-.448-1-1s.447-1 1-1c11.174 0 21.076 7.104 24.641 17.676.177.523-.104 1.091-.628 1.267-.106.037-.214.053-.32.053z"/><path d="m34.999 33.605c-.161 0-.323-.039-.475-.121-.486-.263-.667-.87-.404-1.355 4.551-8.408 13.317-13.63 22.88-13.63.553 0 1 .448 1 1s-.447 1-1 1c-8.827 0-16.92 4.821-21.12 12.583-.182.333-.526.523-.881.523z"/><path d="m13.006 20.499h-6.006c-.553 0-1-.448-1-1s.447-1 1-1h6.006c.553 0 1 .448 1 1s-.447 1-1 1z"/></svg>