<svg id="icons" enable-background="new 0 0 64 64" height="512" viewBox="0 0 64 64" width="512" xmlns="http://www.w3.org/2000/svg"><path d="m37 8.5c-1.11 0-2-.89-2-2v-3h-6v3c0 1.11-.9 2-2 2-14.36 0-26 11.64-26 26s11.64 26 26 26h10c14.36 0 26-11.64 26-26s-11.64-26-26-26z" fill="#ffd2a6"/><g fill="#ed5565"><path d="m27 13.5c1.65 0 3 1.34 3 3 0 1.65-1.35 3-3 3-1.66 0-3-1.35-3-3 0-1.66 1.34-3 3-3z"/><path d="m21 28.5c1.65 0 3 1.34 3 3 0 1.65-1.35 3-3 3-1.66 0-3-1.35-3-3 0-1.66 1.34-3 3-3z"/><path d="m15 43.5c1.65 0 3 1.34 3 3 0 1.65-1.35 3-3 3-1.66 0-3-1.35-3-3 0-1.66 1.34-3 3-3z"/><path d="m15 19.5c1.65 0 3 1.34 3 3 0 1.65-1.35 3-3 3-1.66 0-3-1.35-3-3 0-1.66 1.34-3 3-3z"/><path d="m21 22.5c1.65 0 3 1.34 3 3 0 1.65-1.35 3-3 3-1.66 0-3-1.35-3-3 0-1.66 1.34-3 3-3z"/><path d="m15 31.5c1.65 0 3 1.34 3 3 0 1.65-1.35 3-3 3-1.66 0-3-1.35-3-3 0-1.66 1.34-3 3-3z"/><path d="m15 25.5c1.65 0 3 1.34 3 3 0 1.65-1.35 3-3 3-1.66 0-3-1.35-3-3 0-1.66 1.34-3 3-3z"/><path d="m15 37.5c1.65 0 3 1.34 3 3 0 1.65-1.35 3-3 3-1.66 0-3-1.35-3-3 0-1.66 1.34-3 3-3z"/><path d="m27 19.5c1.65 0 3 1.34 3 3 0 1.65-1.35 3-3 3-1.66 0-3-1.35-3-3 0-1.66 1.34-3 3-3z"/><path d="m27 49.5c1.65 0 3 1.34 3 3 0 1.65-1.35 3-3 3-1.66 0-3-1.35-3-3 0-1.66 1.34-3 3-3z"/><path d="m9 34.5c1.66 0 3 1.34 3 3 0 1.65-1.34 3-3 3s-3-1.35-3-3c0-1.66 1.34-3 3-3z"/><path d="m27 25.5c1.65 0 3 1.34 3 3 0 1.65-1.35 3-3 3-1.66 0-3-1.35-3-3 0-1.66 1.34-3 3-3z"/><path d="m27 31.5c1.65 0 3 1.34 3 3 0 1.65-1.35 3-3 3-1.66 0-3-1.35-3-3 0-1.66 1.34-3 3-3z"/><path d="m21 40.5c1.65 0 3 1.34 3 3 0 1.65-1.35 3-3 3-1.66 0-3-1.35-3-3 0-1.66 1.34-3 3-3z"/><path d="m9 28.5c1.66 0 3 1.34 3 3 0 1.65-1.34 3-3 3s-3-1.35-3-3c0-1.66 1.34-3 3-3z"/><path d="m27 43.5c1.65 0 3 1.34 3 3 0 1.65-1.35 3-3 3-1.66 0-3-1.35-3-3 0-1.66 1.34-3 3-3z"/><path d="m27 37.5c1.65 0 3 1.34 3 3 0 1.65-1.35 3-3 3-1.66 0-3-1.35-3-3 0-1.66 1.34-3 3-3z"/><path d="m21 34.5c1.65 0 3 1.34 3 3 0 1.65-1.35 3-3 3-1.66 0-3-1.35-3-3 0-1.66 1.34-3 3-3z"/><path d="m21 46.5c1.65 0 3 1.34 3 3 0 1.65-1.35 3-3 3-1.66 0-3-1.35-3-3 0-1.66 1.34-3 3-3z"/><path d="m21 16.5c1.65 0 3 1.34 3 3 0 1.65-1.35 3-3 3-1.66 0-3-1.35-3-3 0-1.66 1.34-3 3-3z"/><path d="m49 43.5c1.66 0 3 1.34 3 3s-1.34 3-3 3-3-1.34-3-3 1.34-3 3-3z"/><path d="m49 31.5c1.66 0 3 1.34 3 3s-1.34 3-3 3-3-1.34-3-3 1.34-3 3-3z"/><path d="m52 28.5c0 1.66-1.34 3-3 3s-3-1.34-3-3 1.34-3 3-3 3 1.34 3 3z"/><path d="m37 19.5c1.66 0 3 1.34 3 3s-1.34 3-3 3-3-1.34-3-3 1.34-3 3-3z"/><path d="m46 43.5c0 1.66-1.34 3-3 3s-3-1.34-3-3c0-1.65 1.34-3 3-3s3 1.35 3 3z"/><path d="m55 34.5c1.65 0 3 1.35 3 3 0 1.66-1.35 3-3 3-1.66 0-3-1.34-3-3 0-1.65 1.34-3 3-3z"/><path d="m40 16.5c0 1.66-1.34 3-3 3s-3-1.34-3-3 1.34-3 3-3 3 1.34 3 3z"/><path d="m46 25.5c0 1.66-1.34 3-3 3s-3-1.34-3-3c0-1.65 1.34-3 3-3s3 1.35 3 3z"/><path d="m46 37.5c0 1.66-1.34 3-3 3s-3-1.34-3-3c0-1.65 1.34-3 3-3s3 1.35 3 3z"/><path d="m46 31.5c0 1.66-1.34 3-3 3s-3-1.34-3-3c0-1.65 1.34-3 3-3s3 1.35 3 3z"/><path d="m46 19.5c0 1.66-1.34 3-3 3s-3-1.34-3-3c0-1.65 1.34-3 3-3s3 1.35 3 3z"/><path d="m49 37.5c1.66 0 3 1.34 3 3s-1.34 3-3 3-3-1.34-3-3 1.34-3 3-3z"/><path d="m49 19.5c1.66 0 3 1.34 3 3s-1.34 3-3 3-3-1.34-3-3 1.34-3 3-3z"/><path d="m43 46.5c1.66 0 3 1.35 3 3 0 1.66-1.34 3-3 3s-3-1.34-3-3c0-1.65 1.34-3 3-3z"/><path d="m55 28.5c1.65 0 3 1.35 3 3 0 1.66-1.35 3-3 3-1.66 0-3-1.34-3-3 0-1.65 1.34-3 3-3z"/><path d="m37 31.5c1.66 0 3 1.34 3 3s-1.34 3-3 3-3-1.34-3-3 1.34-3 3-3z"/><path d="m37 25.5c1.66 0 3 1.34 3 3s-1.34 3-3 3-3-1.34-3-3 1.34-3 3-3z"/><path d="m37 43.5c1.66 0 3 1.34 3 3s-1.34 3-3 3-3-1.34-3-3 1.34-3 3-3z"/><path d="m37 49.5c1.66 0 3 1.34 3 3s-1.34 3-3 3-3-1.34-3-3 1.34-3 3-3z"/><path d="m37 37.5c1.66 0 3 1.34 3 3s-1.34 3-3 3-3-1.34-3-3 1.34-3 3-3z"/></g><path d="m27 61.5c-14.888 0-27-12.112-27-27s12.112-27 27-27c.553 0 1 .447 1 1s-.447 1-1 1c-13.785 0-25 11.215-25 25s11.215 25 25 25c.553 0 1 .447 1 1s-.447 1-1 1z"/><path d="m37 61.5c-.553 0-1-.447-1-1s.447-1 1-1c13.785 0 25-11.215 25-25s-11.215-25-25-25c-.553 0-1-.447-1-1s.447-1 1-1c14.888 0 27 12.112 27 27s-12.112 27-27 27z"/><path d="m37 61.5h-10c-.553 0-1-.447-1-1s.447-1 1-1h10c.553 0 1 .447 1 1s-.447 1-1 1z"/><path d="m27 9.5c-.553 0-1-.447-1-1s.447-1 1-1c.552 0 1-.448 1-1 0-.553.447-1 1-1s1 .447 1 1c0 1.654-1.346 3-3 3z"/><path d="m37 9.5c-1.654 0-3-1.346-3-3 0-.553.447-1 1-1s1 .447 1 1c0 .552.448 1 1 1 .553 0 1 .447 1 1s-.447 1-1 1z"/><path d="m29 7.5c-.553 0-1-.447-1-1v-3c0-.553.447-1 1-1s1 .447 1 1v3c0 .553-.447 1-1 1z"/><path d="m35 4.5h-6c-.553 0-1-.447-1-1s.447-1 1-1h6c.553 0 1 .447 1 1s-.447 1-1 1z"/><path d="m35 7.5c-.553 0-1-.447-1-1v-3c0-.553.447-1 1-1s1 .447 1 1v3c0 .553-.447 1-1 1z"/><path d="m27 20.498c-2.206 0-4-1.794-4-4s1.794-4 4-4 4 1.794 4 4-1.794 4-4 4zm0-6c-1.103 0-2 .897-2 2s.897 2 2 2 2-.897 2-2-.897-2-2-2z"/><path d="m27 26.498c-2.206 0-4-1.794-4-4s1.794-4 4-4 4 1.794 4 4-1.794 4-4 4zm0-6c-1.103 0-2 .897-2 2s.897 2 2 2 2-.897 2-2-.897-2-2-2z"/><path d="m27 32.498c-2.206 0-4-1.794-4-4s1.794-4 4-4 4 1.794 4 4-1.794 4-4 4zm0-6c-1.103 0-2 .897-2 2s.897 2 2 2 2-.897 2-2-.897-2-2-2z"/><path d="m27 38.498c-2.206 0-4-1.794-4-4s1.794-4 4-4 4 1.794 4 4-1.794 4-4 4zm0-6c-1.103 0-2 .897-2 2s.897 2 2 2 2-.897 2-2-.897-2-2-2z"/><path d="m27 44.498c-2.206 0-4-1.794-4-4s1.794-4 4-4 4 1.794 4 4-1.794 4-4 4zm0-6c-1.103 0-2 .897-2 2s.897 2 2 2 2-.897 2-2-.897-2-2-2z"/><path d="m27 50.498c-2.206 0-4-1.794-4-4s1.794-4 4-4 4 1.794 4 4-1.794 4-4 4zm0-6c-1.103 0-2 .897-2 2s.897 2 2 2 2-.897 2-2-.897-2-2-2z"/><path d="m15 26.498c-2.206 0-4-1.794-4-4s1.794-4 4-4 4 1.794 4 4-1.794 4-4 4zm0-6c-1.103 0-2 .897-2 2s.897 2 2 2 2-.897 2-2-.897-2-2-2z"/><path d="m15 32.498c-2.206 0-4-1.794-4-4s1.794-4 4-4 4 1.794 4 4-1.794 4-4 4zm0-6c-1.103 0-2 .897-2 2s.897 2 2 2 2-.897 2-2-.897-2-2-2z"/><path d="m15 38.498c-2.206 0-4-1.794-4-4s1.794-4 4-4 4 1.794 4 4-1.794 4-4 4zm0-6c-1.103 0-2 .897-2 2s.897 2 2 2 2-.897 2-2-.897-2-2-2z"/><path d="m15 44.498c-2.206 0-4-1.794-4-4s1.794-4 4-4 4 1.794 4 4-1.794 4-4 4zm0-6c-1.103 0-2 .897-2 2s.897 2 2 2 2-.897 2-2-.897-2-2-2z"/><path d="m15 50.498c-2.206 0-4-1.794-4-4s1.794-4 4-4 4 1.794 4 4-1.794 4-4 4zm0-6c-1.103 0-2 .897-2 2s.897 2 2 2 2-.897 2-2-.897-2-2-2z"/><path d="m27 56.498c-2.206 0-4-1.794-4-4s1.794-4 4-4 4 1.794 4 4-1.794 4-4 4zm0-6c-1.103 0-2 .897-2 2s.897 2 2 2 2-.897 2-2-.897-2-2-2z"/><path d="m21 23.495c-2.206 0-4-1.794-4-4s1.794-4 4-4 4 1.794 4 4-1.794 4-4 4zm0-6c-1.103 0-2 .897-2 2s.897 2 2 2 2-.897 2-2-.897-2-2-2z"/><path d="m21 29.495c-2.206 0-4-1.794-4-4s1.794-4 4-4 4 1.794 4 4-1.794 4-4 4zm0-6c-1.103 0-2 .897-2 2s.897 2 2 2 2-.897 2-2-.897-2-2-2z"/><path d="m21 35.495c-2.206 0-4-1.794-4-4s1.794-4 4-4 4 1.794 4 4-1.794 4-4 4zm0-6c-1.103 0-2 .897-2 2s.897 2 2 2 2-.897 2-2-.897-2-2-2z"/><path d="m21 41.495c-2.206 0-4-1.794-4-4s1.794-4 4-4 4 1.794 4 4-1.794 4-4 4zm0-6c-1.103 0-2 .897-2 2s.897 2 2 2 2-.897 2-2-.897-2-2-2z"/><path d="m9.001 35.495c-2.206 0-4-1.794-4-4s1.794-4 4-4 4 1.794 4 4-1.794 4-4 4zm0-6c-1.103 0-2 .897-2 2s.897 2 2 2 2-.897 2-2-.897-2-2-2z"/><path d="m9.001 41.495c-2.206 0-4-1.794-4-4s1.794-4 4-4 4 1.794 4 4-1.794 4-4 4zm0-6c-1.103 0-2 .897-2 2s.897 2 2 2 2-.897 2-2-.897-2-2-2z"/><path d="m21 47.495c-2.206 0-4-1.794-4-4s1.794-4 4-4 4 1.794 4 4-1.794 4-4 4zm0-6c-1.103 0-2 .897-2 2s.897 2 2 2 2-.897 2-2-.897-2-2-2z"/><path d="m21 53.495c-2.206 0-4-1.794-4-4s1.794-4 4-4 4 1.794 4 4-1.794 4-4 4zm0-6c-1.103 0-2 .897-2 2s.897 2 2 2 2-.897 2-2-.897-2-2-2z"/><path d="m37.002 56.5c-2.206 0-4-1.794-4-4s1.794-4 4-4 4 1.794 4 4-1.794 4-4 4zm0-6c-1.103 0-2 .897-2 2s.897 2 2 2 2-.897 2-2-.898-2-2-2z"/><path d="m37.002 50.5c-2.206 0-4-1.794-4-4s1.794-4 4-4 4 1.794 4 4-1.794 4-4 4zm0-6c-1.103 0-2 .897-2 2s.897 2 2 2 2-.897 2-2-.898-2-2-2z"/><path d="m37.002 44.5c-2.206 0-4-1.794-4-4s1.794-4 4-4 4 1.794 4 4-1.794 4-4 4zm0-6c-1.103 0-2 .897-2 2s.897 2 2 2 2-.897 2-2-.898-2-2-2z"/><path d="m37.002 38.5c-2.206 0-4-1.794-4-4s1.794-4 4-4 4 1.794 4 4-1.794 4-4 4zm0-6c-1.103 0-2 .897-2 2s.897 2 2 2 2-.897 2-2-.898-2-2-2z"/><path d="m37.002 32.5c-2.206 0-4-1.794-4-4s1.794-4 4-4 4 1.794 4 4-1.794 4-4 4zm0-6c-1.103 0-2 .897-2 2s.897 2 2 2 2-.897 2-2-.898-2-2-2z"/><path d="m37.002 26.5c-2.206 0-4-1.794-4-4s1.794-4 4-4 4 1.794 4 4-1.794 4-4 4zm0-6c-1.103 0-2 .897-2 2s.897 2 2 2 2-.897 2-2-.898-2-2-2z"/><path d="m49.002 50.5c-2.206 0-4-1.794-4-4s1.794-4 4-4 4 1.794 4 4-1.794 4-4 4zm0-6c-1.103 0-2 .897-2 2s.897 2 2 2 2-.897 2-2-.898-2-2-2z"/><path d="m49.002 44.5c-2.206 0-4-1.794-4-4s1.794-4 4-4 4 1.794 4 4-1.794 4-4 4zm0-6c-1.103 0-2 .897-2 2s.897 2 2 2 2-.897 2-2-.898-2-2-2z"/><path d="m49.002 38.5c-2.206 0-4-1.794-4-4s1.794-4 4-4 4 1.794 4 4-1.794 4-4 4zm0-6c-1.103 0-2 .897-2 2s.897 2 2 2 2-.897 2-2-.898-2-2-2z"/><path d="m49.002 32.5c-2.206 0-4-1.794-4-4s1.794-4 4-4 4 1.794 4 4-1.794 4-4 4zm0-6c-1.103 0-2 .897-2 2s.897 2 2 2 2-.897 2-2-.898-2-2-2z"/><path d="m49.002 26.5c-2.206 0-4-1.794-4-4s1.794-4 4-4 4 1.794 4 4-1.794 4-4 4zm0-6c-1.103 0-2 .897-2 2s.897 2 2 2 2-.897 2-2-.898-2-2-2z"/><path d="m37.002 20.5c-2.206 0-4-1.794-4-4s1.794-4 4-4 4 1.794 4 4-1.794 4-4 4zm0-6c-1.103 0-2 .897-2 2s.897 2 2 2 2-.897 2-2-.898-2-2-2z"/><path d="m43.002 53.502c-2.206 0-4-1.794-4-4s1.794-4 4-4 4 1.794 4 4-1.794 4-4 4zm0-6c-1.103 0-2 .897-2 2s.897 2 2 2 2-.897 2-2-.898-2-2-2z"/><path d="m43.002 47.502c-2.206 0-4-1.794-4-4s1.794-4 4-4 4 1.794 4 4-1.794 4-4 4zm0-6c-1.103 0-2 .897-2 2s.897 2 2 2 2-.897 2-2-.898-2-2-2z"/><path d="m43.002 41.502c-2.206 0-4-1.794-4-4s1.794-4 4-4 4 1.794 4 4-1.794 4-4 4zm0-6c-1.103 0-2 .897-2 2s.897 2 2 2 2-.897 2-2-.898-2-2-2z"/><path d="m43.002 35.502c-2.206 0-4-1.794-4-4s1.794-4 4-4 4 1.794 4 4-1.794 4-4 4zm0-6c-1.103 0-2 .897-2 2s.897 2 2 2 2-.897 2-2-.898-2-2-2z"/><path d="m54.999 41.502c-2.206 0-4-1.794-4-4s1.794-4 4-4 4 1.794 4 4-1.794 4-4 4zm0-6c-1.103 0-2 .897-2 2s.897 2 2 2 2-.897 2-2-.897-2-2-2z"/><path d="m54.999 35.502c-2.206 0-4-1.794-4-4s1.794-4 4-4 4 1.794 4 4-1.794 4-4 4zm0-6c-1.103 0-2 .897-2 2s.897 2 2 2 2-.897 2-2-.897-2-2-2z"/><path d="m43.002 29.502c-2.206 0-4-1.794-4-4s1.794-4 4-4 4 1.794 4 4-1.794 4-4 4zm0-6c-1.103 0-2 .897-2 2s.897 2 2 2 2-.897 2-2-.898-2-2-2z"/><path d="m43.002 23.502c-2.206 0-4-1.794-4-4s1.794-4 4-4 4 1.794 4 4-1.794 4-4 4zm0-6c-1.103 0-2 .897-2 2s.897 2 2 2 2-.897 2-2-.898-2-2-2z"/></svg>