<svg id="icons" enable-background="new 0 0 64 64" height="512" viewBox="0 0 64 64" width="512" xmlns="http://www.w3.org/2000/svg"><path d="m35 1v47c0 3.31 2.69 6 6 6 3.32 0 6-2.69 6-6v-35c0-6.63-5.359-12-12-12z" fill="#8cc152"/><path d="m23 10c-3.31 0-6 2.689-6 6v.01 34.99c0 6.63 5.37 12 12 12v-46.99-.01c0-3.311-2.689-6-6-6z" fill="#8cc152"/><g fill="#a0d468"><path d="m41 9.01c1.66 0 3 1.34 3 3s-1.34 3-3 3c-1.649 0-3-1.34-3-3s1.351-3 3-3z"/><path d="m41 27c1.66 0 3 1.34 3 3s-1.34 3-3 3c-1.649 0-3-1.34-3-3s1.351-3 3-3z"/><path d="m41 36c1.66 0 3 1.34 3 3 0 1.649-1.34 3-3 3-1.649 0-3-1.351-3-3 0-1.66 1.351-3 3-3z"/><path d="m41 18.01c1.66 0 3 1.34 3 3 0 1.65-1.34 3-3 3-1.649 0-3-1.35-3-3 0-1.66 1.351-3 3-3z"/><path d="m41 45c1.66 0 3 1.34 3 3s-1.34 3-3 3c-1.649 0-3-1.34-3-3s1.351-3 3-3z"/><path d="m23 31c1.66 0 3 1.35 3 3 0 1.66-1.34 3-3 3-1.649 0-3-1.34-3-3 0-1.65 1.351-3 3-3z"/><path d="m23 40c1.66 0 3 1.34 3 3s-1.34 3-3 3c-1.649 0-3-1.34-3-3s1.351-3 3-3z"/><path d="m23 22.01c1.66 0 3 1.34 3 3 0 1.65-1.34 3-3 3-1.649 0-3-1.35-3-3 0-1.66 1.351-3 3-3z"/><path d="m23 48.99c1.66 0 3 1.35 3 3 0 1.659-1.34 3-3 3-1.649 0-3-1.341-3-3 0-1.65 1.351-3 3-3z"/><path d="m23 13c1.66 0 3 1.35 3 3 0 1.66-1.34 3-3 3-1.649 0-3-1.34-3-3 0-1.65 1.351-3 3-3z"/></g><path d="m29 64c-7.168 0-13-5.832-13-13 0-.553.447-1 1-1s1 .447 1 1c0 6.065 4.935 11 11 11 .553 0 1 .447 1 1s-.447 1-1 1z"/><path d="m29 64c-.553 0-1-.447-1-1v-46.996c0-.552.447-1 1-1s1 .448 1 1v46.996c0 .553-.447 1-1 1z"/><path d="m17 52c-.553 0-1-.447-1-1v-34.996c0-.552.447-1 1-1s1 .448 1 1v34.996c0 .553-.447 1-1 1z"/><path d="m29 17c-.553 0-1-.448-1-1 0-2.757-2.243-5-5-5s-5 2.243-5 5c0 .552-.447 1-1 1s-1-.448-1-1c0-3.86 3.141-7 7-7s7 3.14 7 7c0 .552-.447 1-1 1z"/><path d="m23 11c-.553 0-1-.448-1-1v-7c0-.552.447-1 1-1s1 .448 1 1v7c0 .552-.447 1-1 1z"/><path d="m23 4c-.553 0-1-.448-1-1 0-1.654 1.346-3 3-3 .553 0 1 .448 1 1s-.447 1-1 1c-.552 0-1 .449-1 1 0 .552-.447 1-1 1z"/><path d="m23 20.001c-2.206 0-4-1.794-4-4s1.794-4 4-4 4 1.794 4 4-1.794 4-4 4zm0-6c-1.103 0-2 .897-2 2s.897 2 2 2 2-.897 2-2-.897-2-2-2z"/><path d="m23 29.006c-2.206 0-4-1.794-4-4s1.794-4 4-4 4 1.794 4 4-1.794 4-4 4zm0-6c-1.103 0-2 .897-2 2s.897 2 2 2 2-.897 2-2-.897-2-2-2z"/><path d="m23 38.002c-2.206 0-4-1.795-4-4.001s1.794-4.001 4-4.001 4 1.795 4 4.001-1.794 4.001-4 4.001zm0-6.002c-1.103 0-2 .897-2 2.001s.897 2.001 2 2.001 2-.897 2-2.001-.897-2.001-2-2.001z"/><path d="m23 46.997c-2.206 0-4-1.795-4-4.001s1.794-4 4-4 4 1.794 4 4-1.794 4.001-4 4.001zm0-6.001c-1.103 0-2 .897-2 2 0 1.104.897 2.001 2 2.001s2-.897 2-2.001c0-1.102-.897-2-2-2z"/><path d="m23 55.992c-2.206 0-4-1.795-4-4.001s1.794-4 4-4 4 1.794 4 4-1.794 4.001-4 4.001zm0-6.001c-1.103 0-2 .897-2 2 0 1.104.897 2.001 2 2.001s2-.897 2-2.001c0-1.102-.897-2-2-2z"/><path d="m47 14c-.553 0-1-.448-1-1 0-6.065-4.935-11-11-11-.553 0-1-.448-1-1s.447-1 1-1c7.168 0 13 5.832 13 13 0 .552-.447 1-1 1z"/><path d="m35 48.996c-.553 0-1-.447-1-1v-46.996c0-.552.447-1 1-1s1 .448 1 1v46.996c0 .553-.447 1-1 1z"/><path d="m47 48.996c-.553 0-1-.447-1-1v-34.996c0-.552.447-1 1-1s1 .448 1 1v34.996c0 .553-.447 1-1 1z"/><path d="m41 55c-3.859 0-7-3.141-7-7 0-.553.447-1 1-1s1 .447 1 1c0 2.757 2.243 5 5 5s5-2.243 5-5c0-.553.447-1 1-1s1 .447 1 1c0 3.859-3.141 7-7 7z"/><path d="m41 62c-.553 0-1-.447-1-1v-7c0-.553.447-1 1-1s1 .447 1 1v7c0 .553-.447 1-1 1z"/><path d="m39 64c-.553 0-1-.447-1-1s.447-1 1-1c.552 0 1-.448 1-1 0-.553.447-1 1-1s1 .447 1 1c0 1.654-1.346 3-3 3z"/><path d="m41 51.999c-2.206 0-4-1.794-4-4s1.794-4 4-4 4 1.794 4 4-1.794 4-4 4zm0-6c-1.103 0-2 .897-2 2s.897 2 2 2 2-.897 2-2-.897-2-2-2z"/><path d="m41 42.994c-2.206 0-4-1.794-4-4s1.794-4 4-4 4 1.794 4 4-1.794 4-4 4zm0-6c-1.103 0-2 .897-2 2s.897 2 2 2 2-.897 2-2-.897-2-2-2z"/><path d="m41 34c-2.206 0-4-1.795-4-4.001s1.794-4.001 4-4.001 4 1.795 4 4.001-1.794 4.001-4 4.001zm0-6.002c-1.103 0-2 .897-2 2.001s.897 2.001 2 2.001 2-.897 2-2.001-.897-2.001-2-2.001z"/><path d="m41 25.004c-2.206 0-4-1.794-4-4s1.794-4.001 4-4.001 4 1.795 4 4.001c0 2.205-1.794 4-4 4zm0-6.001c-1.103 0-2 .897-2 2.001 0 1.103.897 2 2 2s2-.897 2-2c0-1.104-.897-2.001-2-2.001z"/><path d="m41 16.009c-2.206 0-4-1.794-4-4s1.794-4.001 4-4.001 4 1.795 4 4.001c0 2.205-1.794 4-4 4zm0-6.001c-1.103 0-2 .897-2 2.001 0 1.103.897 2 2 2s2-.897 2-2c0-1.104-.897-2.001-2-2.001z"/></svg>