<svg id="icons" enable-background="new 0 0 64 64" height="512" viewBox="0 0 64 64" width="512" xmlns="http://www.w3.org/2000/svg"><path d="m46.998 33h2l-3 4-3-4h2 1z" fill="#a0d468"/><path d="m49.998 33c7.18 0 13 5.81 13 13 0 9.39-7.609 17-17 17-9.389 0-16.998-7.61-16.998-17 0-7.19 5.809-13 12.998-13h1l3 4 3-4zm9.01 13c0-4.97-4.029-9-9-9v4c2.76 0 5 2.24 5 5 0 4.29-3 7.87-7.01 8.78v4.069h.01c6.23-.969 11-6.349 11-12.849zm-15 12.85v-4.07c-4.01-.91-7.01-4.49-7.01-8.78 0-2.76 2.24-5 5-5v-4c-4.969 0-8.998 4.03-8.998 9 0 6.5 4.768 11.88 10.998 12.85z" fill="#ed5565"/><path d="m50.008 37c4.971 0 9 4.03 9 9 0 6.5-4.77 11.88-11 12.85h-.01v-4.07c4.01-.91 7.01-4.49 7.01-8.78 0-2.76-2.24-5-5-5z" fill="#da4453"/><path d="m44.008 54.78v4.069h-.01c-6.23-.969-10.998-6.349-10.998-12.849 0-4.97 4.029-9 8.998-9v4c-2.76 0-5 2.24-5 5 0 4.29 3 7.87 7.01 8.78z" fill="#da4453"/><path d="m19.002 10h3c7.18 0 13 5.81 13 13 0 9.39-7.611 17-17 17-9.391 0-17-7.61-17-17 0-7.19 5.809-13 13-13h3 1z" fill="#ed5565"/><path d="m22.002 10h-3-1-.002c7.18 0 13 5.81 13 13 0 8.712-6.555 15.88-15 16.872.658.077 1.322.128 2.002.128 9.389 0 17-7.61 17-17 0-7.19-5.82-13-13-13z" fill="#da4453"/><path d="m18 41c-9.925 0-18-8.075-18-18 0-.552.447-1 1-1s1 .448 1 1c0 8.822 7.178 16 16 16s16-7.178 16-16c0-.552.447-1 1-1s1 .448 1 1c0 9.925-8.075 18-18 18z"/><path d="m1 24c-.553 0-1-.448-1-1 0-7.72 6.28-14 14-14 .553 0 1 .448 1 1s-.447 1-1 1c-6.617 0-12 5.383-12 12 0 .552-.447 1-1 1z"/><path d="m35 24c-.553 0-1-.448-1-1 0-6.617-5.383-12-12-12-.553 0-1-.448-1-1s.447-1 1-1c7.72 0 14 6.28 14 14 0 .552-.447 1-1 1z"/><path d="m22 11h-8c-.553 0-1-.448-1-1s.447-1 1-1h8c.553 0 1 .448 1 1s-.447 1-1 1z"/><path d="m46 64c-9.925 0-18-8.075-18-18 0-.553.447-1 1-1s1 .447 1 1c0 8.822 7.178 16 16 16s16-7.178 16-16c0-.553.447-1 1-1s1 .447 1 1c0 9.925-8.075 18-18 18z"/><path d="m29 47c-.553 0-1-.447-1-1 0-7.72 6.28-14 14-14 .553 0 1 .448 1 1 0 .553-.447 1-1 1-6.617 0-12 5.383-12 12 0 .553-.447 1-1 1z"/><path d="m62.998 47c-.553 0-1-.447-1-1 0-6.617-5.383-12-12-12-.553 0-1-.447-1-1 0-.552.447-1 1-1 7.72 0 14 6.28 14 14 0 .553-.447 1-1 1z"/><path d="m49.998 34h-7.998c-.553 0-1-.447-1-1 0-.552.447-1 1-1h7.998c.553 0 1 .448 1 1 0 .553-.447 1-1 1z"/><path d="m14.002 10.999c-2.757 0-5-2.243-5-5 0-.552.447-1 1-1s1 .448 1 1c0 1.654 1.346 3 3 3 .553 0 1 .448 1 1s-.447 1-1 1z"/><path d="m22 10.999c-.553 0-1-.448-1-1s.447-1 1-1c1.654 0 3-1.346 3-3 0-.552.447-1 1-1s1 .448 1 1c0 2.757-2.243 5-5 5z"/><path d="m18.996 10.999c-.553 0-1-.448-1-1s.447-1 1-1c1.103 0 2-.897 2-1.999 0-.552.447-1 1-1s1 .448 1 1c0 2.205-1.794 3.999-4 3.999z"/><path d="m18 11c-.553 0-1-.448-1-1v-9c0-.552.447-1 1-1s1 .448 1 1v9c0 .552-.447 1-1 1z"/><path d="m17.002 10.999c-2.204 0-3.998-1.794-3.998-3.999 0-.552.447-1 1-1s1 .448 1 1c0 1.102.896 1.999 1.998 1.999.553 0 1 .448 1 1s-.447 1-1 1z"/><path d="m42 33.998c-2.757 0-5-2.243-5-5 0-.552.447-1 1-1s1 .448 1 1c0 1.654 1.346 3 3 3 .553 0 1 .448 1 1 0 .553-.447 1-1 1z"/><path d="m49.998 33.998c-.553 0-1-.447-1-1 0-.552.447-1 1-1 1.654 0 3-1.346 3-3 0-.552.447-1 1-1s1 .448 1 1c0 2.757-2.243 5-5 5z"/><path d="m46.996 33.998c-.553 0-1-.447-1-1 0-.552.447-1 1-1 1.102 0 1.998-.897 1.998-1.999 0-.552.447-1 1-1s1 .448 1 1c0 2.205-1.794 3.999-3.998 3.999z"/><path d="m46 33.999c-.553 0-1-.447-1-1v-9c0-.552.447-1 1-1s1 .448 1 1v9c0 .553-.447 1-1 1z"/><path d="m45.002 33.998c-2.206 0-4-1.794-4-3.999 0-.552.447-1 1-1s1 .448 1 1c0 1.102.897 1.999 2 1.999.553 0 1 .448 1 1 0 .553-.447 1-1 1z"/><path d="m46.001 38c-.304 0-.604-.138-.801-.399l-3.002-4c-.331-.442-.242-1.069.199-1.4.443-.332 1.069-.241 1.4.2l3.002 4c.331.442.242 1.069-.199 1.4-.18.134-.39.199-.599.199z"/><path d="m45.999 38c-.209 0-.419-.065-.599-.2-.442-.331-.532-.958-.2-1.399l3-4c.332-.44.958-.531 1.399-.2.442.331.532.958.2 1.399l-3 4c-.195.262-.495.4-.8.4z"/><path d="m35.026 46.998c-.553 0-1.005-.447-1.005-1s.442-1 .994-1h.011c.552 0 1 .447 1 1s-.448 1-1 1z"/><path d="m36.501 52.5c-.553 0-1.005-.447-1.005-1s.442-1 .994-1h.011c.552 0 1 .447 1 1s-.448 1-1 1z"/><path d="m40.528 56.527c-.553 0-1.005-.447-1.005-1s.442-1 .994-1h.011c.552 0 1 .447 1 1s-.448 1-1 1z"/><path d="m44.001 59.847c-.051 0-.102-.004-.153-.012-6.866-1.06-11.848-6.878-11.848-13.835 0-.553.447-1 1-1s1 .447 1 1c0 5.867 4.364 10.965 10.152 11.858.546.084.92.595.836 1.141-.076.494-.502.848-.987.848z"/><path d="m44.009 55.779c-.073 0-.147-.008-.222-.024-4.585-1.037-7.787-5.049-7.787-9.755 0-.553.447-1 1-1s1 .447 1 1c0 3.706 2.619 6.987 6.229 7.804.538.122.877.657.755 1.196-.106.464-.518.779-.975.779z"/><path d="m33 47c-.553 0-1-.447-1-1 0-5.514 4.486-10 10-10 .553 0 1 .447 1 1s-.447 1-1 1c-4.411 0-8 3.589-8 8 0 .553-.447 1-1 1z"/><path d="m37 47c-.553 0-1-.447-1-1 0-3.309 2.691-6 6-6 .553 0 1 .447 1 1s-.447 1-1 1c-2.206 0-4 1.794-4 4 0 .553-.447 1-1 1z"/><path d="m42 42c-.553 0-1-.447-1-1v-4c0-.553.447-1 1-1s1 .447 1 1v4c0 .553-.447 1-1 1z"/><path d="m44.008 59.847c-.553 0-1-.447-1-1v-4.067c0-.553.447-1 1-1s1 .447 1 1v4.067c0 .552-.447 1-1 1z"/><path d="m37.079 42.05c-.553 0-1.005-.447-1.005-1s.442-1 .994-1h.011c.552 0 1 .447 1 1s-.448 1-1 1z"/><path d="m57.04 46.998c-.553 0-1.005-.447-1.005-1s.442-1 .994-1h.011c.552 0 1 .447 1 1s-.448 1-1 1z"/><path d="m55.567 52.5c-.553 0-1.005-.447-1.005-1s.442-1 .994-1h.011c.552 0 1 .447 1 1s-.448 1-1 1z"/><path d="m51.54 56.527c-.553 0-1.005-.447-1.005-1s.442-1 .994-1h.011c.552 0 1 .447 1 1s-.448 1-1 1z"/><path d="m48.007 59.847c-.485 0-.911-.354-.987-.848-.084-.546.29-1.057.836-1.141 5.788-.893 10.152-5.992 10.152-11.858 0-.553.447-1 1-1s1 .447 1 1c0 6.844-5.093 12.792-11.848 13.835-.052.008-.102.012-.153.012z"/><path d="m47.999 55.779c-.457 0-.869-.315-.975-.779-.122-.539.217-1.074.755-1.196 3.609-.816 6.229-4.098 6.229-7.804 0-.553.447-1 1-1s1 .447 1 1c0 4.706-3.202 8.718-7.787 9.755-.075.016-.149.024-.222.024z"/><path d="m59.008 47c-.553 0-1-.447-1-1 0-4.411-3.589-8-8-8-.553 0-1-.447-1-1s.447-1 1-1c5.514 0 10 4.486 10 10 0 .553-.447 1-1 1z"/><path d="m55.008 47c-.553 0-1-.447-1-1 0-2.206-1.794-4-4-4-.553 0-1-.447-1-1s.447-1 1-1c3.309 0 6 2.691 6 6 0 .553-.447 1-1 1z"/><path d="m50.008 42c-.553 0-1-.447-1-1v-4c0-.553.447-1 1-1s1 .447 1 1v4c0 .553-.447 1-1 1z"/><path d="m48 59.847c-.553 0-1-.447-1-1v-4.067c0-.553.447-1 1-1s1 .447 1 1v4.067c0 .552-.447 1-1 1z"/><path d="m54.987 42.05c-.553 0-1.005-.447-1.005-1s.442-1 .994-1h.011c.552 0 1 .447 1 1s-.448 1-1 1z"/></svg>