<svg id="icons" enable-background="new 0 0 64 64" height="512" viewBox="0 0 64 64" width="512" xmlns="http://www.w3.org/2000/svg"><path d="m17.974 35.02c0 7.04 5.2 12.87 11.98 13.851l-.011.069c-.55.23-1.119.431-1.71.591-7.449 2.069-15.17-2.301-17.239-9.75-2.06-7.451-3.051-34.451 4.4-36.521 2.61-.729 5.92 1.71 9.19 5.51-3.971 8.39-6.61 21.23-6.61 26.25z" fill="#8cc152"/><path d="m34.023 48.87c6.761-.99 11.95-6.82 11.95-13.851 0-5.02-2.649-17.89-6.63-26.279 3.29-3.82 6.61-6.271 9.23-5.551 7.449 2.07 6.46 29.08 4.399 36.53-2.07 7.45-9.79 11.811-17.24 9.75-.588-.169-1.158-.369-1.709-.599z" fill="#8cc152"/><path d="m34.023 48.87c-.67.1-1.35.149-2.05.149-.689 0-1.36-.05-2.02-.149-6.78-.98-11.98-6.811-11.98-13.851 0-5.02 2.64-17.859 6.61-26.25 2.14-4.54 4.67-7.77 7.39-7.77 2.7 0 5.23 3.22 7.37 7.74 3.98 8.39 6.63 21.26 6.63 26.279.001 7.032-5.189 12.862-11.95 13.852z" fill="#a0d468"/><path d="m31.984 50.02c-8.271 0-15-6.729-15-15 0-6.774 5.987-35.02 15-35.02s15 28.245 15 35.02c0 8.271-6.728 15-15 15zm0-48.02c-6.39 0-13 24.52-13 33.02 0 7.168 5.832 13 13 13s13-5.832 13-13c0-8.5-6.61-33.02-13-33.02z"/><path d="m31.984 63.999c-.553 0-1-.447-1-1v-43.992c0-.553.447-1 1-1s1 .447 1 1v43.992c0 .553-.447 1-1 1z"/><path d="m39.489 50.976c-1.324 0-2.668-.177-4.005-.547-.62-.172-1.236-.386-1.829-.636-.509-.215-.747-.802-.533-1.311.215-.509.804-.744 1.311-.533.514.217 1.048.402 1.586.552 6.914 1.917 14.087-2.146 16.003-9.052.992-3.573 1.764-12.017 1.338-19.959-.476-8.858-2.357-14.59-5.036-15.333-1.922-.54-4.836 1.326-8.206 5.237-.362.419-.994.463-1.41.105-.419-.36-.466-.992-.105-1.41 4.016-4.661 7.463-6.639 10.257-5.86 4.68 1.299 6.116 10.045 6.498 17.153.437 8.147-.373 16.873-1.407 20.602-1.843 6.633-7.89 10.992-14.462 10.992z"/><path d="m32.016 63.935c-.089 0-.179-.012-.269-.036-.532-.147-.844-.699-.696-1.231l3.737-13.47c.148-.532.699-.84 1.231-.696.532.147.844.699.696 1.231l-3.737 13.47c-.123.442-.525.732-.962.732z"/><path d="m24.51 51.041c-6.572 0-12.619-4.357-14.46-10.991-1.034-3.729-1.844-12.454-1.407-20.602.382-7.108 1.818-15.854 6.498-17.153 2.796-.768 6.241 1.199 10.257 5.86.36.418.313 1.05-.105 1.41-.417.358-1.049.313-1.41-.105-3.37-3.911-6.288-5.774-8.206-5.237-2.679.743-4.561 6.475-5.036 15.333-.426 7.942.346 16.386 1.338 19.959 1.916 6.906 9.089 10.971 16.002 9.052.539-.149 1.073-.335 1.587-.552.508-.21 1.096.024 1.311.533.214.509-.024 1.096-.533 1.311-.593.25-1.209.464-1.83.636-1.337.369-2.683.546-4.006.546z"/><path d="m31.983 64c-.438 0-.84-.29-.963-.732l-3.737-13.47c-.147-.532.164-1.084.696-1.231.531-.146 1.083.164 1.231.696l3.737 13.47c.147.532-.164 1.084-.696 1.231-.089.024-.179.036-.268.036z"/></svg>