<svg id="icons" enable-background="new 0 0 64 64" height="512" viewBox="0 0 64 64" width="512" xmlns="http://www.w3.org/2000/svg"><path d="m63 37c0 6.62-5.381 12-12 12-6.631 0-12-5.38-12-12v-10c0-6.62 5.369-12 12-12 6.619 0 12 5.38 12 12z" fill="#965353"/><path d="m51 15c-.51 0-1.009.042-1.503.104 5.912.742 10.5 5.785 10.5 11.896v10c0 6.111-4.588 11.154-10.5 11.896.494.062.993.104 1.503.104 6.619 0 12-5.38 12-12v-10c0-6.62-5.381-12-12-12z" fill="#844747"/><path d="m22.989 5c6.63 0 12 5.37 12 12s-5.37 12-12 12h-9.989c-6.631 0-12-5.37-12-12s5.369-12 12-12z" fill="#965353"/><path d="m35 47c0 6.63-5.381 12-12 12h-10c-6.631 0-12-5.37-12-12s5.369-12 12-12h9.989c6.63 0 12 5.37 12.011 12z" fill="#965353"/><path d="m22.989 5h-3.003c6.63 0 12 5.37 12 12s-5.37 12-12 12h3.003c6.63 0 12-5.37 12-12s-5.37-12-12-12z" fill="#844747"/><path d="m22.989 35h-3.003c6.63 0 12 5.37 12.011 12 0 6.63-5.381 12-12 12h3.003c6.619 0 12-5.37 12-12-.011-6.63-5.381-12-12.011-12z" fill="#844747"/><path d="m13 29.998c-7.168 0-13-5.832-13-13s5.832-13 13-13c.553 0 1 .447 1 1s-.447 1-1 1c-6.065 0-11 4.935-11 11s4.935 11 11 11c.553 0 1 .447 1 1s-.447 1-1 1z"/><path d="m22.994 29.998c-.553 0-1-.447-1-1s.447-1 1-1c6.065 0 11-4.935 11-11s-4.935-11-11-11c-.553 0-1-.447-1-1s.447-1 1-1c7.168 0 13 5.832 13 13s-5.832 13-13 13z"/><path d="m22.994 5.996h-9.994c-.553 0-1-.447-1-1s.447-1 1-1h9.994c.553 0 1 .447 1 1s-.447 1-1 1z"/><path d="m22.994 30h-9.994c-.553 0-1-.447-1-1s.447-1 1-1h9.994c.553 0 1 .447 1 1s-.447 1-1 1z"/><path d="m12.996 29.998c-.553 0-1-.447-1-1v-2c0-.553.447-1 1-1s1 .447 1 1v2c0 .553-.447 1-1 1z"/><path d="m22.994 7.998c-.553 0-1-.447-1-1v-2c0-.553.447-1 1-1s1 .447 1 1v2c0 .553-.447 1-1 1z"/><path d="m18.026 17.998c-.553 0-1.005-.447-1.005-1s.442-1 .994-1h.011c.552 0 1 .447 1 1s-.448 1-1 1z"/><path d="m9.024 10.993c-.553 0-1.005-.447-1.005-1s.442-1 .994-1h.011c.552 0 1 .447 1 1s-.448 1-1 1z"/><path d="m27.028 24.996c-.553 0-1.005-.447-1.005-1s.442-1 .994-1h.011c.552 0 1 .447 1 1s-.448 1-1 1z"/><path d="m22.996 60.002c-.553 0-1-.447-1-1s.447-1 1-1c6.065 0 11-4.935 11-11-.002-6.065-4.938-11-11.002-11-.553 0-1-.447-1-1s.447-1 1-1c7.167 0 13 5.832 13.002 13 0 7.168-5.832 13-13 13z"/><path d="m13.002 60.002c-7.168 0-13-5.832-13-13-.001-3.472 1.351-6.736 3.806-9.192 2.456-2.455 5.72-3.808 9.192-3.808.553 0 1 .447 1 1s-.447 1-1 1c-2.938 0-5.7 1.145-7.777 3.222-2.078 2.078-3.222 4.84-3.221 7.778 0 6.065 4.935 11 11 11 .553 0 1 .447 1 1s-.447 1-1 1z"/><path d="m22.994 36h-9.994c-.553 0-1-.447-1-1s.447-1 1-1h9.994c.553 0 1 .447 1 1s-.447 1-1 1z"/><path d="m22.996 60.004h-9.994c-.553 0-1-.447-1-1s.447-1 1-1h9.994c.553 0 1 .447 1 1s-.447 1-1 1z"/><path d="m22.998 60.002c-.553 0-1-.447-1-1v-2c0-.553.447-1 1-1s1 .447 1 1v2c0 .553-.447 1-1 1z"/><path d="m13 38.002c-.553 0-1-.447-1-1v-2c0-.553.447-1 1-1s1 .447 1 1v2c0 .553-.447 1-1 1z"/><path d="m18.028 48.002c-.553 0-1.005-.447-1.005-1s.442-1 .994-1h.011c.552 0 1 .447 1 1s-.448 1-1 1z"/><path d="m27.03 40.997c-.553 0-1.005-.447-1.005-1s.442-1 .994-1h.011c.552 0 1 .447 1 1s-.448 1-1 1z"/><path d="m9.028 55c-.553 0-1.005-.447-1.005-1s.442-1 .994-1h.011c.552 0 1 .447 1 1s-.448 1-1 1z"/><path d="m62.998 28.003c-.553 0-1-.447-1-1 0-6.065-4.935-11-11-11s-11 4.935-11 11c0 .553-.447 1-1 1s-1-.447-1-1c0-7.168 5.832-13 13-13s13 5.832 13 13c0 .553-.447 1-1 1z"/><path d="m50.998 49.997c-7.168 0-13-5.832-13-13 0-.553.447-1 1-1s1 .447 1 1c0 6.065 4.935 11 11 11s11-4.935 11-11c0-.553.447-1 1-1s1 .447 1 1c0 7.168-5.832 13-13 13z"/><path d="m63 37.997c-.553 0-1-.447-1-1v-9.994c0-.553.447-1 1-1s1 .447 1 1v9.994c0 .553-.447 1-1 1z"/><path d="m38.996 37.997c-.553 0-1-.447-1-1v-9.994c0-.553.447-1 1-1s1 .447 1 1v9.994c0 .553-.447 1-1 1z"/><path d="m40.998 28h-2c-.553 0-1-.447-1-1s.447-1 1-1h2c.553 0 1 .447 1 1s-.447 1-1 1z"/><path d="m62.998 37.997h-2c-.553 0-1-.447-1-1s.447-1 1-1h2c.553 0 1 .447 1 1s-.447 1-1 1z"/><path d="m51.028 33c-.553 0-1.005-.447-1.005-1s.442-1 .994-1h.011c.552 0 1 .447 1 1s-.448 1-1 1z"/><path d="m58.034 23.998c-.553 0-1.005-.447-1.005-1s.442-1 .994-1h.011c.552 0 1 .447 1 1s-.448 1-1 1z"/><path d="m44.03 42.001c-.553 0-1.005-.447-1.005-1s.442-1 .994-1h.011c.552 0 1 .447 1 1s-.448 1-1 1z"/></svg>