<svg id="icons" enable-background="new 0 0 64 64" height="512" viewBox="0 0 64 64" width="512" xmlns="http://www.w3.org/2000/svg"><path d="m38.995 7v4.34h-.011c-2.33.83-3.989 3.05-3.989 5.66h-2.99-.021-2.989c0-5.53 4.47-10 10-10z" fill="#a0d468"/><path d="m41.854 17c2.141 0 4.04.75 5.46 2.01 1.87 1.641 2.931 4.15 2.65 6.95l-2.07 22.08c-.279 2.8-2.479 5.32-5.24 6.96-2.1 1.25-4.52 2-6.649 2h-4-.021-3.989c-2.141 0-4.551-.75-6.65-2-2.76-1.65-4.97-4.16-5.25-6.96l-2.06-22.08c-.28-2.8.779-5.31 2.649-6.95 1.42-1.26 3.311-2.01 5.45-2.01h6.86 2.989.021 2.99z" fill="#fc6e51"/><path d="m8.654 21.02c1.4-1.229 3.24-1.979 5.33-2.02v.01h2.7c-1.87 1.641-2.93 4.15-2.649 6.95l2.06 22.08c.28 2.8 2.49 5.31 5.25 6.96h-3.21c-2.16 0-4.23-.77-5.91-2.05h-.01c-2.17-1.65-3.69-4.141-3.97-6.91l-2.21-18.08c-.28-2.79.76-5.28 2.609-6.94z" fill="#e9573f"/><path d="m42.654 55c2.761-1.64 4.961-4.16 5.24-6.96l2.07-22.08c.28-2.8-.78-5.31-2.65-6.95h2.69v-.01c2.09.03 3.93.78 5.32 2.02h.01c1.859 1.65 2.91 4.15 2.63 6.94l-2.21 18.08c-.28 2.77-1.811 5.26-3.98 6.91-1.68 1.28-3.75 2.05-5.92 2.05z" fill="#e9573f"/><path d="m48.694 18.96c-1.728-1.909-4.154-2.96-6.835-2.96h-9.852c-.013 0-.026 0-.039.001h-9.828c-2.681 0-5.107 1.051-6.835 2.96-1.727 1.908-2.531 4.428-2.265 7.088l2.065 22.095c.547 5.459 7.498 9.855 12.89 9.855h3.995.01.01 3.995c5.391 0 12.343-4.396 12.89-9.863l2.063-22.081c.266-2.667-.537-5.187-2.264-7.095zm.273 6.903-2.063 22.081c-.434 4.338-6.356 8.055-10.899 8.055h-3.995c-.013 0-.026 0-.039.001h-3.977c-4.543 0-10.464-3.717-10.898-8.048l-2.065-22.095c-.21-2.098.414-4.069 1.757-5.554s3.244-2.302 5.352-2.302h9.852c.013 0 .026 0 .039-.001h9.828c2.109 0 4.009.817 5.352 2.302s1.967 3.457 1.756 5.561z"/><path d="m38.994 6.001c-6.065 0-11 4.935-11 11 0 .553.447 1 1 1s1-.447 1-1c0-4.625 3.506-8.442 8-8.941v2.611c-2.419 1.148-4.001 3.609-4.001 6.331 0 .553.447 1 1 1s1-.447 1-1c0-2.102 1.32-3.987 3.289-4.704.412-.124.712-.505.712-.958v-4.339c0-.553-.447-1-1-1z"/><path d="m1.004 28.93 1.88 12.79c.62 6.11 3.11 10.28 9.34 11.23-2.16-1.66-3.69-4.14-3.97-6.91l-2.21-18.08c-.28-2.78.77-5.28 2.62-6.93-4.25.13-7.66 3.61-7.66 7.9z" fill="#dd4a36"/><path d="m63 28.93-1.88 12.79c-.62 6.11-3.116 10.28-9.346 11.23 2.16-1.66 3.696-4.14 3.976-6.91l2.21-18.08c.28-2.78-.779-5.28-2.629-6.93 4.25.13 7.669 3.61 7.669 7.9z" fill="#dd4a36"/><path d="m61.848 23.137c-1.611-1.878-3.906-2.985-6.463-3.12-.571-.035-1.023.395-1.052.946-.029.552.395 1.023.946 1.052 2.006.105 3.799.966 5.051 2.425 1.26 1.468 1.842 3.392 1.646 5.364l-2.218 14.136c-.409 4.079-3.959 7.599-8.083 8.013-.347.035-.22 1.995.098 1.995.034 0 .068-.002.101-.005 5.12-.515 9.365-4.728 9.867-9.748l2.218-14.136c.258-2.577-.491-5.035-2.111-6.922z"/><path d="m13.143 53.495h.001z"/><path d="m12.325 51.952c-4.124-.414-7.674-3.933-8.09-8.068l-2.204-14.024c-.203-2.027.379-3.952 1.639-5.42 1.252-1.459 3.045-2.32 5.051-2.425.55-.03.974-.5.946-1.052-.03-.55-.496-.982-1.052-.946-2.557.135-4.852 1.242-6.463 3.12-1.62 1.887-2.369 4.345-2.104 6.978l2.204 14.024c.509 5.075 4.754 9.289 9.874 9.804.034.003.546-1.956.199-1.991z"/><path d="m21.346 53.997h-3.204c-.009 0-.018 0-.026.001-4.454-.014-8.432-3.621-8.879-8.076l-2.208-18.063c-.21-2.098.414-4.069 1.757-5.554 1.31-1.449 3.151-2.261 5.198-2.3h.006 2.695c.552 0 1-.447 1-1s-.447-1-1-1h-2.486c-.02-.001-.041-.002-.061-.002-2.681 0-5.107 1.051-6.835 2.96-1.727 1.908-2.531 4.428-2.261 7.116l2.208 18.063c.544 5.434 5.431 9.855 10.892 9.855h3.204c.552 0 1-.447 1-1s-.447-1-1-1z"/><path d="m56.696 20.963c-1.728-1.909-4.154-2.96-6.835-2.96-.021 0-.041.001-.061.002h-2.484c-.553 0-1 .447-1 1s.447 1 1 1h2.695.005c2.047.039 3.887.853 5.197 2.3 1.343 1.484 1.967 3.456 1.76 5.532l-2.214 18.105c-.444 4.442-4.437 8.055-8.901 8.055h-3.204c-.553 0-1 .447-1 1s.447 1 1 1h3.204c5.461 0 10.348-4.421 10.888-9.834l2.214-18.105c.266-2.667-.537-5.187-2.264-7.095z"/></svg>