<svg id="icons" enable-background="new 0 0 64 64" height="512" viewBox="0 0 64 64" width="512" xmlns="http://www.w3.org/2000/svg"><path d="m40.006 1v5.09c-2.842.47-5 2.94-5 5.91h-3-.012-2.988c0-6.08 4.92-11 11-11z" fill="#a0d468"/><path d="m53.676 15c3.85 0 6.68 3.14 6.289 6.97l-3.59 31.07c-.391 3.83-3.859 6.96-7.711 6.96h-1.619c.91-1.12 1.51-2.49 1.66-3.96l3.58-37.08c.15-1.47-.17-2.84-.85-3.96z" fill="#da4453"/><path d="m15.295 56.04c.15 1.47.75 2.84 1.66 3.96h-1.621c-3.85 0-7.318-3.13-7.709-6.96l-3.59-31.07c-.39-3.83 2.44-6.97 6.289-6.97h2.24c-.68 1.12-1 2.49-.85 3.96z" fill="#da4453"/><path d="m31.994 12h.012 3 10.988c2.371 0 4.361 1.19 5.441 3 .68 1.12 1 2.49.85 3.96l-3.58 37.08c-.15 1.47-.75 2.84-1.66 3.96-1.449 1.81-3.68 3-6.051 3h-8.988-.012-8.988c-2.371 0-4.602-1.19-6.051-3-.91-1.12-1.51-2.49-1.66-3.96l-3.58-37.08c-.15-1.47.17-2.84.85-3.96 1.08-1.81 3.07-3 5.441-3h11z" fill="#ed5565"/><path d="m32.002 64.001h-8.994c-4.358 0-8.264-3.527-8.706-7.862l-3.583-37.079c-.218-2.133.424-4.153 1.808-5.686 1.384-1.531 3.328-2.375 5.477-2.375h13.999c.553 0 1 .447 1 1s-.447 1-1 1h-14c-1.575 0-2.993.609-3.992 1.716-1 1.106-1.462 2.579-1.302 4.146l3.583 37.079c.341 3.34 3.354 6.061 6.716 6.061h8.994c.553 0 1 .447 1 1s-.447 1-1 1z"/><path d="m29.006 12.999c-.553 0-1-.447-1-1 0-6.617 5.383-12 12-12 .553 0 1 .447 1 1s-.447 1-1 1c-5.514 0-10 4.486-10 10 0 .553-.447 1-1 1z"/><path d="m35.006 12.999c-.553 0-1-.447-1-1 0-3.434 2.454-6.336 5.835-6.902.542-.098 1.06.275 1.151.821.091.545-.276 1.061-.821 1.151-2.413.404-4.165 2.478-4.165 4.93 0 .553-.447 1-1 1z"/><path d="m40.006 7.083c-.553 0-1-.447-1-1v-5.084c0-.553.447-1 1-1s1 .447 1 1v5.084c0 .553-.447 1-1 1z"/><path d="m15.332 60.998c-4.358 0-8.264-3.527-8.706-7.862l-3.581-31.056c-.22-2.15.422-4.171 1.806-5.703 1.384-1.531 3.328-2.375 5.477-2.375.553 0 1 .447 1 1s-.447 1-1 1c-1.575 0-2.993.609-3.992 1.716-1 1.106-1.462 2.579-1.302 4.146l3.58 31.056c.343 3.357 3.355 6.078 6.718 6.078.553 0 1 .447 1 1s-.447 1-1 1z"/><path d="m12.562 16.002h-2.234c-.553 0-1-.447-1-1s.447-1 1-1h2.234c.553 0 1 .447 1 1s-.448 1-1 1z"/><path d="m16.953 60.998h-1.621c-.553 0-1-.447-1-1s.447-1 1-1h1.621c.553 0 1 .447 1 1s-.447 1-1 1z"/><path d="m40.992 64.001h-8.994c-.553 0-1-.447-1-1s.447-1 1-1h8.994c3.362 0 6.375-2.721 6.716-6.065l3.583-37.069c.16-1.572-.302-3.045-1.302-4.151-.999-1.106-2.417-1.716-3.992-1.716h-13.999c-.553 0-1-.447-1-1s.447-1 1-1h13.999c2.148 0 4.093.844 5.477 2.375 1.384 1.532 2.025 3.553 1.808 5.69l-3.583 37.069c-.443 4.34-4.348 7.867-8.707 7.867z"/><path d="m48.668 60.998c-.553 0-1-.447-1-1s.447-1 1-1c3.362 0 6.375-2.721 6.716-6.065l3.585-31.081c.158-1.555-.304-3.027-1.304-4.134-.999-1.106-2.417-1.716-3.992-1.716-.553 0-1-.447-1-1s.447-1 1-1c2.148 0 4.093.844 5.477 2.375 1.384 1.532 2.025 3.553 1.808 5.69l-3.585 31.081c-.441 4.323-4.347 7.85-8.705 7.85z"/><path d="m53.673 16.002h-2.234c-.553 0-1-.447-1-1s.447-1 1-1h2.234c.553 0 1 .447 1 1s-.447 1-1 1z"/><path d="m48.668 60.998h-1.621c-.553 0-1-.447-1-1s.447-1 1-1h1.621c.553 0 1 .447 1 1s-.447 1-1 1z"/></svg>