<svg id="icons" enable-background="new 0 0 64 64" height="512" viewBox="0 0 64 64" width="512" xmlns="http://www.w3.org/2000/svg"><path d="m51 42c0 10.49-8.511 19-19 19-10.49 0-19-8.51-19-19 0-6.39 3.159-10.56 8-12.84 1.229-.59 2.569-1.04 3.989-1.38 1.28-.311 2.62-.53 4.021-.65.969-.09 1.969-.13 2.99-.13.33 0 .67 0 1 .01 1.38.04 2.72.16 4 .37 1.409.22 2.75.54 4 .97 5.96 2.02 10 6.41 10 13.65z" fill="#ed5565"/><path d="m41 28.35c-1.25-.43-2.591-.75-4-.97-1.28-.21-2.62-.33-4-.37-.33-.01-.67-.01-1-.01-.694 0-1.374.026-2.046.066 1.04.061 2.063.153 3.042.313 1.409.22 2.75.54 4 .97 5.96 2.021 10 6.41 10 13.65 0 9.813-7.449 17.892-16.998 18.893.658.07 1.325.108 2.002.108 10.489 0 19-8.51 19-19 0-7.24-4.04-11.63-10-13.65z" fill="#da4453"/><path d="m41 16.01v12.34c-1.25-.43-2.591-.75-4-.97v-14.37z" fill="#a0d468"/><path d="m37 13.01v14.37c-1.28-.21-2.62-.33-4-.37v-.01-19l4-2z" fill="#8cc152"/><path d="m33 27v.01c-.33-.01-.67-.01-1-.01-1.021 0-2.021.04-2.99.13l-.01-.11v-21.02-5l4 2v5z" fill="#a0d468"/><path d="m29 27.02.01.11c-1.4.12-2.74.34-4.021.65v-.01-12.76-6.01h.011l4-3z" fill="#8cc152"/><path d="m24.989 27.77v.011c-1.42.34-2.76.79-3.989 1.38l-.011-.01v-16.141l4 2z" fill="#a0d468"/><path d="m32 61.998c-11.028 0-20-8.972-20-20 0-10.017 7.477-15.996 20-15.996s20 5.979 20 15.996c0 11.028-8.972 20-20 20zm0-33.996c-5.412 0-18 1.364-18 13.996 0 9.925 8.075 18 18 18s18-8.075 18-18c0-12.632-12.588-13.996-18-13.996z"/><path d="m32 64c-.553 0-1-.447-1-1v-2.002c0-.553.447-1 1-1s1 .447 1 1v2.002c0 .553-.447 1-1 1z"/><path d="m28.998 28.017c-.553 0-1-.447-1-1l-.001-26.017c0-.553.447-1 1-1s1 .447 1 1l.001 26.017c0 .552-.447 1-1 1z"/><path d="m32.998 28c-.553 0-1-.447-1-1v-24c0-.553.447-1 1-1s1 .447 1 1v24c0 .553-.447 1-1 1z"/><path d="m32.997 4c-.15 0-.303-.034-.446-.105l-4.001-2c-.494-.247-.694-.848-.447-1.342s.848-.693 1.342-.447l4.001 2c.494.247.694.848.447 1.342-.175.35-.529.552-.896.552z"/><path d="m36.999 28.376c-.553 0-1-.447-1-1v-21.376c0-.553.447-1 1-1s1 .447 1 1v21.376c0 .553-.447 1-1 1z"/><path d="m32.998 8.999c-.367 0-.721-.202-.896-.553-.247-.494-.047-1.095.447-1.342l4.001-1.999c.494-.245 1.096-.047 1.342.447.247.494.047 1.095-.447 1.342l-4.001 1.999c-.143.072-.296.106-.446.106z"/><path d="m41.005 29.348c-.553 0-1-.447-1-1v-12.341c0-.553.447-1 1-1s1 .447 1 1v12.341c0 .552-.447 1-1 1z"/><path d="m41.002 17.007c-.209 0-.419-.065-.599-.2l-4.001-3c-.442-.331-.532-.958-.2-1.399.331-.442.958-.53 1.399-.2l4.001 3c.442.331.532.958.2 1.399-.196.262-.495.4-.8.4z"/><path d="m24.994 28.773c-.553 0-1-.447-1-1v-18.773c0-.553.447-1 1-1s1 .447 1 1v18.773c0 .553-.447 1-1 1z"/><path d="m24.997 10c-.305 0-.604-.138-.801-.4-.332-.441-.242-1.068.2-1.399l4.001-3c.44-.332 1.068-.243 1.399.2.332.441.242 1.068-.2 1.399l-4.001 3c-.179.135-.389.2-.598.2z"/><path d="m20.99 30.153c-.553 0-1-.447-1-1v-16.146c0-.553.447-1 1-1s1 .447 1 1v16.146c0 .553-.447 1-1 1z"/><path d="m24.991 16.006c-.15 0-.303-.034-.446-.105l-4.001-1.999c-.494-.247-.694-.848-.447-1.342s.848-.693 1.342-.447l4.001 1.999c.494.247.694.848.447 1.342-.175.35-.529.552-.896.552z"/></svg>