<svg id="icons" enable-background="new 0 0 64 64" height="512" viewBox="0 0 64 64" width="512" xmlns="http://www.w3.org/2000/svg"><path d="m27.368 20.383c-3.91 3.9-10.23 3.9-14.13-.01-3.91-3.9-7.45-13.77-3.54-17.68 3.899-3.9 13.77-.36 17.68 3.54 3.9 3.899 3.9 10.239 0 14.14z" fill="#a0d468"/><path d="m36.638 20.383-.01-.01c-3.91-3.9-3.91-10.24 0-14.14 3.9-3.9 13.77-7.44 17.68-3.54 3.9 3.91.36 13.779-3.54 17.68-3.9 3.91-10.23 3.91-14.13.01z" fill="#a0d468"/><path d="m35.008 56.003c-1.66 0-3 1.34-3 3h-.01c0-1.66-1.34-3-3-3h-4c-6.62 0-12-5.38-12-12 0-6.63 5.38-12 12-12h7 7c6.63 0 12 5.37 12 12 0 6.62-5.37 12-12 12z" fill="#656d78"/><path d="m38.998 32.003h-4.004c6.63 0 12 5.37 12 12 0 6.615-5.363 11.992-11.986 11.999v.001h3.99c6.63 0 12-5.38 12-12 0-6.63-5.37-12-12-12z" fill="#545c66"/><path d="m25.001 57.004c-7.168 0-13-5.832-13-13s5.832-13 13-13c.553 0 1 .447 1 1s-.447 1-1 1c-6.065 0-11 4.935-11 11s4.935 11 11 11c.553 0 1 .447 1 1s-.447 1-1 1z"/><path d="m39.001 57.004c-.553 0-1-.447-1-1s.447-1 1-1c6.065 0 11-4.935 11-11s-4.935-11-11-11c-.553 0-1-.447-1-1s.447-1 1-1c7.168 0 13 5.832 13 13s-5.832 13-13 13z"/><path d="m39.001 33.004h-14c-.553 0-1-.447-1-1s.447-1 1-1h14c.553 0 1 .447 1 1s-.447 1-1 1z"/><path d="m29.001 57.004h-4c-.553 0-1-.447-1-1s.447-1 1-1h4c.553 0 1 .447 1 1s-.447 1-1 1z"/><path d="m32.001 60.004c-.553 0-1-.447-1-1 0-1.103-.897-2-2-2-.553 0-1-.447-1-1s.447-1 1-1c2.206 0 4 1.794 4 4 0 .553-.447 1-1 1z"/><path d="m39.001 57.004h-3.999c-.553 0-1-.447-1-1s.447-1 1-1h3.999c.553 0 1 .447 1 1s-.447 1-1 1z"/><path d="m32.002 60.004c-.553 0-1-.447-1-1 0-2.206 1.794-4 4-4 .553 0 1 .447 1 1s-.447 1-1 1c-1.103 0-2 .897-2 2 0 .553-.447 1-1 1z"/><path d="m32.001 64c-.553 0-1-.447-1-1v-3.996c0-.553.447-1 1-1s1 .447 1 1v3.996c0 .553-.447 1-1 1z"/><path d="m20.304 24.307c-2.938 0-5.701-1.144-7.778-3.222-3.975-3.976-8.109-14.525-3.539-19.096 1.301-1.301 3.254-1.989 5.647-1.989 4.957 0 10.73 2.811 13.448 5.528 2.078 2.077 3.222 4.84 3.222 7.778s-1.144 5.701-3.222 7.778c-2.077 2.079-4.84 3.223-7.778 3.223zm-5.67-22.307c-1.877 0-3.301.473-4.232 1.403-3.281 3.281-.187 12.542 3.538 16.268 1.7 1.7 3.96 2.636 6.364 2.636s4.664-.936 6.364-2.636 2.636-3.96 2.636-6.364-.936-4.664-2.636-6.364c-2.378-2.378-7.654-4.943-12.034-4.943z"/><path d="m32 33.004c-.553 0-1-.447-1-1 0-10.368-14.681-21.322-14.829-21.432-.444-.328-.539-.954-.211-1.398.328-.443.953-.539 1.398-.211.639.471 15.642 11.663 15.642 23.041 0 .553-.447 1-1 1z"/><path d="m43.696 24.307c-2.938 0-5.701-1.144-7.778-3.222-2.078-2.077-3.222-4.84-3.222-7.778s1.144-5.701 3.222-7.778c2.718-2.718 8.491-5.529 13.448-5.529 2.393 0 4.346.688 5.646 1.989 4.57 4.57.437 15.12-3.538 19.096-2.077 2.078-4.839 3.222-7.778 3.222zm5.67-22.307c-4.38 0-9.656 2.565-12.034 4.942-1.7 1.7-2.636 3.96-2.636 6.364s.936 4.664 2.636 6.364 3.96 2.636 6.364 2.636 4.664-.936 6.364-2.636c3.725-3.726 6.819-12.986 3.538-16.268-.931-.929-2.355-1.402-4.232-1.402z"/><path d="m32 33.004c-.553 0-1-.447-1-1 0-11.378 15.003-22.57 15.642-23.041.444-.328 1.07-.232 1.398.211.328.444.233 1.07-.211 1.398-.148.11-14.829 11.064-14.829 21.432 0 .553-.447 1-1 1z"/></svg>