<svg id="icons" enable-background="new 0 0 64 64" height="512" viewBox="0 0 64 64" width="512" xmlns="http://www.w3.org/2000/svg"><path d="m30 15v14h-3v-15.99z" fill="#8cc152"/><path d="m34 10v19h-4v-14-14l4 3z" fill="#a0d468"/><path d="m37 8v21h-3v-19z" fill="#8cc152"/><path d="m37 29c0 1.11.9 2 2 2 6.63 0 12 5.37 12 12 0 9.81-7.45 17.89-17 18.89-.66.07-1.32.11-2 .11s-1.35-.04-2.01-.11c-9.56-1-16.99-9.08-16.99-18.89 0-6.63 5.37-12 12-12 1.1 0 2-.89 2-2h3 4z" fill="#ffce54"/><path d="m39 31v.698c4.656 1.649 7.996 6.078 7.996 11.302 0 9.81-7.45 17.89-17 18.89h-.003c.659.07 1.328.11 2.007.11.68 0 1.34-.04 2-.11 9.55-1 17-9.08 17-18.89 0-6.63-5.37-12-12-12z" fill="#f6bb42"/><path d="m32 63c-11.029 0-20.003-8.974-20.003-20.003 0-.553.447-1 1-1s1 .447 1 1c0 9.927 8.076 18.003 18.003 18.003s18.003-8.076 18.003-18.003c0-.553.447-1 1-1s1 .447 1 1c0 11.029-8.974 20.003-20.003 20.003z"/><path d="m51.002 44.001c-.553 0-1-.447-1-1 0-6.066-4.935-11.001-11.001-11.001-.553 0-1-.447-1-1s.447-1 1-1c7.169 0 13.001 5.832 13.001 13.001 0 .553-.447 1-1 1z"/><path d="m39.004 32.002c-1.655 0-3.002-1.347-3.002-3.002 0-.553.447-1 1-1s1 .447 1 1 .449 1.002 1.002 1.002 1 .447 1 1-.447 1-1 1z"/><path d="m13.001 44.001c-.553 0-1-.447-1-1 0-7.169 5.832-13.001 13.001-13.001.553 0 1 .447 1 1s-.447 1-1 1c-6.066 0-11.001 4.935-11.001 11.001 0 .553-.447 1-1 1z"/><path d="m24.999 32.002c-.553 0-1-.447-1-1s.447-1 1-1 1.002-.449 1.002-1.002.447-1 1-1 1 .447 1 1c0 1.655-1.347 3.002-3.002 3.002z"/><path d="m37.002 30h-10.001c-.553 0-1-.447-1-1s.447-1 1-1h10.001c.553 0 1 .447 1 1s-.447 1-1 1z"/><path d="m30.002 30c-.553 0-1-.447-1-1v-27.999c0-.553.447-1 1-1s1 .447 1 1v27.999c0 .553-.447 1-1 1z"/><path d="m34.002 30c-.553 0-1-.447-1-1v-24.999c0-.553.447-1 1-1s1 .447 1 1v24.999c0 .553-.447 1-1 1z"/><path d="m34.001 5.001c-.209 0-.419-.065-.599-.2l-4-3c-.442-.331-.532-.958-.2-1.399.331-.443.958-.531 1.399-.2l4 3c.442.331.532.958.2 1.399-.196.262-.495.4-.8.4z"/><path d="m37.002 30c-.553 0-1-.447-1-1v-20.998c0-.553.447-1 1-1s1 .447 1 1v20.998c0 .553-.447 1-1 1z"/><path d="m34.003 11.001c-.323 0-.641-.156-.833-.445-.307-.46-.182-1.081.277-1.387l3-1.999c.46-.307 1.081-.183 1.387.277.307.46.182 1.081-.277 1.387l-3 1.999c-.171.113-.364.168-.554.168z"/><path d="m27.002 30c-.553 0-1-.447-1-1v-15.993c0-.553.447-1 1-1s1 .447 1 1v15.993c0 .553-.447 1-1 1z"/><path d="m30.001 16.006c-.19 0-.383-.055-.554-.168l-3-1.999c-.459-.306-.584-.927-.277-1.387.305-.46.925-.584 1.387-.277l3 1.999c.459.306.584.927.277 1.387-.192.289-.51.445-.833.445z"/><path d="m32 63.999c-.553 0-1-.447-1-1v-.999c0-.553.447-1 1-1s1 .447 1 1v.999c0 .553-.447 1-1 1z"/><path d="m34.002 63.999c-.553 0-1-.447-1-1v-1.104c0-.553.447-1 1-1s1 .447 1 1v1.104c0 .553-.447 1-1 1z"/><path d="m29.993 63.998c-.553 0-1-.447-1-1v-1.103c0-.553.447-1 1-1s1 .447 1 1v1.103c0 .553-.447 1-1 1z"/></svg>