<svg id="icons" enable-background="new 0 0 64 64" height="512" viewBox="0 0 64 64" width="512" xmlns="http://www.w3.org/2000/svg"><path d="m35 .939v17h-.01-5.96v-12z" fill="#a0d468"/><path d="m29 17.939h.03 5.96c0 6.63 5.37 12 12 12h.01c5.521 0 10 4.47 10 10 0 13.14-10.13 21.19-23 21.94-.659.04-1.329.06-2 .06-13.81 0-25-8.19-25-22 0-5.53 4.471-10 10-10 6.631 0 12-5.37 12-12z" fill="#e6e9ed"/><path d="m47 29.939h-.01-3.994c5.521 0 10 4.47 10 10 0 13.128-10.111 21.175-22.965 21.938.65.038 1.306.063 1.969.063.671 0 1.341-.02 2-.06 12.87-.75 23-8.801 23-21.94 0-5.531-4.479-10.001-10-10.001z" fill="#ccd1d9"/><path d="m32 62.998c-15.309 0-26-9.457-26-22.997 0-.553.447-1 1-1s1 .447 1 1c0 12.362 9.869 20.997 24 20.997s24-8.635 24-20.997c0-.553.447-1 1-1s1 .447 1 1c0 13.54-10.691 22.997-26 22.997z"/><path d="m7 41.001c-.553 0-1-.447-1-1 0-6.065 4.935-11 11-11 .553 0 1 .447 1 1s-.447 1-1 1c-4.963 0-9 4.037-9 9 0 .553-.447 1-1 1z"/><path d="m17.001 30.999c-.553 0-1-.447-1-1s.447-1 1-1c6.065 0 11-4.935 11-11 0-.553.447-1 1-1s1 .447 1 1c0 7.168-5.832 13-13 13z"/><path d="m57 41.001c-.553 0-1-.447-1-1 0-4.963-4.037-9-9-9-.553 0-1-.447-1-1s.447-1 1-1c6.065 0 11 4.935 11 11 0 .553-.447 1-1 1z"/><path d="m46.999 30.999c-7.168 0-13-5.832-13-13 0-.553.447-1 1-1s1 .447 1 1c0 6.065 4.935 11 11 11 .553 0 1 .447 1 1s-.447 1-1 1z"/><path d="m26.004 54.998c-.262 0-.523-.103-.72-.306-5.689-5.896-5.689-15.492 0-21.389.385-.396 1.017-.409 1.414-.025s.409 1.017.025 1.414c-4.951 5.131-4.951 13.48 0 18.611.384.397.372 1.03-.025 1.414-.194.188-.444.281-.694.281z"/><path d="m37.999 54.999c-.25 0-.5-.093-.694-.28-.397-.384-.409-1.017-.025-1.414 4.95-5.131 4.95-13.48 0-18.611-.384-.397-.372-1.03.025-1.414.398-.384 1.031-.371 1.414.025 5.688 5.896 5.688 15.492 0 21.389-.197.202-.458.305-.72.305z"/><path d="m34.999 18.999h-5.998c-.553 0-1-.447-1-1s.447-1 1-1h5.998c.553 0 1 .447 1 1s-.447 1-1 1z"/><path d="m29.038 18.999c-.553 0-1-.447-1-1v-11.994c0-.553.447-1 1-1s1 .447 1 1v11.994c0 .553-.447 1-1 1z"/><path d="m35 18.999c-.553 0-1-.447-1-1v-16.999c0-.553.447-1 1-1s1 .447 1 1v16.999c0 .553-.447 1-1 1z"/><path d="m29.04 7c-.286 0-.569-.121-.768-.357-.354-.423-.299-1.054.124-1.409l5.961-5c.425-.353 1.055-.299 1.409.124s.299 1.054-.124 1.409l-5.961 5c-.187.156-.414.233-.641.233z"/><path d="m32 64c-.553 0-1-.447-1-1v-1.002c0-.553.447-1 1-1s1 .447 1 1v1.002c0 .553-.447 1-1 1z"/><path d="m34 64c-.553 0-1-.447-1-1v-1.061c0-.553.447-1 1-1s1 .447 1 1v1.061c0 .553-.447 1-1 1z"/><path d="m29.991 63.922c-.553 0-1-.447-1-1v-.982c0-.553.447-1 1-1s1 .447 1 1v.982c0 .553-.447 1-1 1z"/></svg>