<svg id="icons" enable-background="new 0 0 64 64" height="512" viewBox="0 0 64 64" width="512" xmlns="http://www.w3.org/2000/svg"><path d="m46 16.01c0 2.211 1.79 4 4 4-1 28.24-15.91 39.14-15.91 39.14-2.11 2.36-5.18 3.85-8.59 3.85-6.35 0-11.5-5.149-11.5-11.5 0-3.68 1.73-6.95 4.42-9.06 0 0 .01 0 .01-.01 14.57-9.44 13.58-22.42 13.58-22.42 2.21-.01 3.99-1.789 3.99-4 0 2.761 2.24 5 5 5s5-2.239 5-5z" fill="#ac92ec"/><path d="m43 1v7.23c-.64-.14-1.31-.22-2-.22s-1.36.08-2 .221v-5.231z" fill="#83b246"/><path d="m50 17.01v3c-2.21 0-4-1.789-4-4 0 2.761-2.24 5-5 5s-5-2.239-5-5c0 2.211-1.78 3.99-3.99 4v-3c0-4.28 2.99-7.869 6.99-8.78.64-.141 1.31-.221 2-.221s1.36.08 2 .221c4.01.911 7 4.5 7 8.78z" fill="#a0d468"/><path d="m46 16.01c0 2.211 1.79 4 4 4-1 28.24-15.91 39.14-15.91 39.14-2.11 2.36-5.18 3.85-8.59 3.85-6.35 0-11.5-5.149-11.5-11.5 0-3.68 1.73-6.95 4.42-9.06 0 0 .01 0 .01-.01 14.57-9.44 13.58-22.42 13.58-22.42 2.21-.01 3.99-1.789 3.99-4 0 2.761 2.24 5 5 5s5-2.239 5-5z" fill="#ac92ec"/><path d="m46 16.01c0 .112-.025.218-.033.328.017.223.029.445.029.672v3c-1 28.24-15.91 39.141-15.91 39.141-1.689 1.89-3.999 3.206-6.603 3.662.009.001.018.002.026.004.314.055.632.1.953.131.343.031.687.052 1.038.052 3.41 0 6.48-1.49 8.59-3.85 0 0 14.91-10.9 15.91-39.141-2.21.001-4-1.788-4-3.999z" fill="#967adc"/><path d="m43 8.23c-.64-.14-1.31-.22-2-.22s-1.36.08-2 .221c0 0-.001 0-.002.001 3.797.862 6.675 4.129 6.969 8.106.008-.11.033-.216.033-.328 0 2.211 1.79 4 4 4v-3c0-4.28-2.99-7.869-7-8.78z" fill="#8cc152"/><path d="m50 18.002c-.553 0-1-.447-1-1 0-4.409-3.587-7.997-7.996-7.997-4.41 0-7.998 3.588-7.998 7.997 0 .553-.447 1-1 1s-1-.447-1-1c0-5.513 4.485-9.997 9.998-9.997 5.512 0 9.996 4.484 9.996 9.997 0 .553-.447 1-1 1z"/><path d="m25.5 63.999c-6.893 0-12.5-5.607-12.5-12.5 0-3.876 1.754-7.469 4.813-9.856.436-.341 1.063-.264 1.403.173.34.436.263 1.063-.173 1.403-2.569 2.007-4.043 5.024-4.043 8.28 0 5.79 4.71 10.5 10.5 10.5 2.991 0 5.848-1.282 7.839-3.517.369-.413 1.001-.447 1.412-.082.412.368.449 1 .082 1.412-2.371 2.662-5.772 4.187-9.333 4.187z"/><path d="m18.423 43.435c-.328 0-.649-.161-.841-.457-.3-.463-.167-1.082.297-1.383 13.866-8.974 13.166-21.008 13.13-21.516-.04-.55.373-1.029.923-1.07.563-.047 1.029.371 1.071.92.042.555.868 13.698-14.038 23.346-.168.108-.356.16-.542.16z"/><path d="m34.09 60.147c-.309 0-.611-.142-.808-.409-.326-.444-.23-1.07.214-1.397.146-.106 14.535-11.004 15.505-38.371.019-.54.463-.965.998-.965.013 0 .024 0 .036.001.552.02.983.482.964 1.034-1.005 28.404-15.696 39.458-16.321 39.915-.178.13-.384.192-.588.192z"/><path d="m50 21.005c-2.757 0-5-2.243-5-5 0-.553.447-1 1-1s1 .447 1 1c0 1.654 1.346 3 3 3 .553 0 1 .447 1 1s-.447 1-1 1z"/><path d="m41 22.005c-3.309 0-6-2.691-6-6 0-.553.447-1 1-1s1 .447 1 1c0 2.206 1.794 4 4 4 .553 0 1 .447 1 1s-.447 1-1 1z"/><path d="m41 22.005c-.553 0-1-.447-1-1s.447-1 1-1c2.206 0 4-1.794 4-4 0-.553.447-1 1-1s1 .447 1 1c0 3.308-2.691 6-6 6z"/><path d="m32 21.005c-.553 0-1-.447-1-1s.447-1 1-1c1.654 0 3-1.346 3-3 0-.553.447-1 1-1s1 .447 1 1c0 2.757-2.243 5-5 5z"/><path d="m50 21.005c-.553 0-1-.447-1-1v-3.003c0-.553.447-1 1-1s1 .447 1 1v3.003c0 .553-.447 1-1 1z"/><path d="m32.006 21.005c-.553 0-1-.447-1-1v-3.003c0-.553.447-1 1-1s1 .447 1 1v3.003c0 .553-.447 1-1 1z"/><path d="m43 9.229c-.553 0-1-.447-1-1v-7.228c0-.553.447-1 1-1s1 .447 1 1v7.228c0 .552-.447 1-1 1z"/><path d="m39.001 4.001c-.367 0-.72-.202-.896-.553-.247-.494-.047-1.095.447-1.342l4-2c.494-.245 1.094-.047 1.342.447.247.494.047 1.095-.447 1.342l-4 2c-.143.072-.296.106-.446.106z"/><path d="m39 9.229c-.553 0-1-.447-1-1v-5.228c0-.553.447-1 1-1s1 .447 1 1v5.229c0 .552-.447.999-1 .999z"/></svg>