<svg id="icons" enable-background="new 0 0 64 64" height="512" viewBox="0 0 64 64" width="512" xmlns="http://www.w3.org/2000/svg"><path d="m15.391 13.88c.409-.149.829-.2 1.239-.17l13.37 49.29-19.1-40.26-1.9-4c.01-1.03.53-2.03 1.49-2.58s2.09-.51 2.979 0c.191-1.01.882-1.9 1.922-2.28z" fill="#8cc152"/><path d="m60 27.75-26 35.25 19.09-40.26c.181.03.351.08.521.14 1.04.38 1.729 1.271 1.92 2.29.89-.51 2.02-.56 2.979 0 .96.55 1.48 1.55 1.49 2.58z" fill="#83b246"/><path d="m47.37 13.71c.41-.04.83.021 1.24.17 1.04.38 1.729 1.271 1.91 2.28.899-.51 2.029-.55 2.989 0 .95.55 1.48 1.55 1.48 2.58l-1.9 4-19.089 40.26z" fill="#8cc152"/><path d="m10.9 22.74 19.1 40.26-26-35.25c0-1.03.53-2.03 1.49-2.58.95-.56 2.08-.51 2.979 0 .181-1.02.87-1.91 1.91-2.29.171-.06.351-.109.521-.14z" fill="#83b246"/><path d="m32 63h-2l-13.37-49.29-1.62-5.97c0-1.03.53-2.03 1.49-2.58.95-.56 2.08-.51 2.98 0 .18-1.02.88-1.91 1.91-2.29 1.039-.38 2.149-.14 2.939.521.36-.961 1.2-1.73 2.28-1.921 1.09-.189 2.14.24 2.81 1.03.521-.89 1.472-1.5 2.581-1.5 1.101 0 2.061.61 2.58 1.5.67-.79 1.71-1.22 2.8-1.03 1.09.2 1.931.96 2.28 1.921.8-.66 1.9-.9 2.94-.521s1.729 1.271 1.92 2.29c.89-.51 2.02-.56 2.979 0 .96.55 1.48 1.55 1.49 2.58l-1.62 5.97-13.369 49.29z" fill="#a0d468"/><path d="m15.012 8.739c-.001 0-.003 0-.004 0-.552-.002-.998-.452-.996-1.004.006-1.422.767-2.743 1.986-3.447.891-.515 1.911-.658 2.882-.432.454-.882 1.226-1.58 2.174-1.926.952-.345 1.993-.307 2.91.079.601-.793 1.483-1.348 2.479-1.523.996-.176 2.014.044 2.851.584.728-.676 1.694-1.07 2.706-1.07 1.011 0 1.977.393 2.705 1.069.838-.539 1.86-.757 2.853-.583.994.177 1.875.73 2.476 1.52.916-.39 1.944-.426 2.913-.077.949.348 1.72 1.046 2.174 1.927.967-.226 1.988-.082 2.881.432 1.221.705 1.981 2.025 1.987 3.445.002.552-.444 1.002-.996 1.004-.001 0-.003 0-.004 0-.551 0-.998-.445-1-.996-.003-.723-.371-1.366-.986-1.721-.616-.354-1.36-.352-1.99.005-.281.16-.624.174-.918.037-.293-.137-.502-.409-.561-.728-.129-.711-.604-1.282-1.271-1.526-.667-.243-1.4-.11-1.958.353-.25.207-.583.28-.897.196-.313-.084-.565-.315-.678-.619-.252-.678-.82-1.158-1.52-1.282-.697-.12-1.398.133-1.867.686-.211.248-.531.373-.851.349-.323-.028-.612-.212-.776-.492-.364-.625-1.006-.999-1.716-.999-.711 0-1.354.373-1.719.999-.163.28-.452.463-.775.492-.322.023-.64-.102-.85-.348-.471-.554-1.174-.81-1.867-.687-.699.123-1.266.602-1.518 1.282-.112.304-.365.535-.679.619-.31.084-.647.011-.897-.196-.558-.462-1.288-.595-1.957-.351-.667.243-1.143.813-1.271 1.525-.059.319-.268.59-.561.728-.294.137-.636.123-.918-.037-.63-.358-1.374-.361-1.99-.006-.615.355-.983.999-.986 1.723-.002.55-.449.996-1 .996z"/><path d="m29.997 64c-.44 0-.844-.293-.964-.738l-14.986-55.262c-.145-.533.17-1.083.703-1.227.534-.143 1.083.17 1.227.704l14.986 55.261c.145.533-.17 1.082-.703 1.227-.088.024-.176.035-.263.035z"/><path d="m34.003 64c-.087 0-.175-.011-.263-.035-.533-.145-.848-.693-.703-1.227l14.986-55.262c.144-.533.691-.848 1.227-.704.533.145.848.694.703 1.228l-14.986 55.262c-.12.445-.524.738-.964.738z"/><path d="m54.994 19.743c-.551 0-.998-.445-1-.996-.003-.722-.372-1.365-.987-1.721-.615-.355-1.36-.353-1.989.005-.281.161-.624.174-.918.037-.293-.137-.502-.408-.561-.728-.129-.711-.604-1.281-1.271-1.525-.268-.097-.545-.135-.817-.113-.542.053-1.033-.365-1.078-.916-.044-.55.365-1.033.916-1.078.566-.046 1.124.03 1.664.227.948.347 1.719 1.044 2.173 1.926.968-.227 1.989-.082 2.881.432 1.221.706 1.981 2.026 1.987 3.445.002.552-.444 1.002-.996 1.004-.001.001-.003.001-.004.001z"/><path d="m34.001 64c-.144 0-.289-.031-.428-.097-.499-.236-.712-.833-.475-1.332l20.992-44.257c.237-.498.832-.711 1.332-.475.499.236.712.833.475 1.332l-20.992 44.258c-.171.36-.529.571-.904.571z"/><path d="m59.999 28.748c-.551 0-.998-.445-1-.996-.003-.723-.371-1.366-.986-1.721-.617-.354-1.361-.353-1.99.005-.281.161-.623.174-.918.037-.293-.137-.502-.409-.561-.728-.129-.711-.604-1.282-1.271-1.526-.108-.039-.224-.07-.341-.089-.545-.091-.912-.607-.821-1.152.091-.544.607-.911 1.151-.821.232.039.463.1.691.182.952.349 1.724 1.047 2.178 1.928.968-.227 1.989-.082 2.881.432 1.221.705 1.981 2.025 1.987 3.445.002.552-.444 1.002-.996 1.004-.001 0-.003 0-.004 0z"/><path d="m34.001 64c-.206 0-.414-.063-.593-.195-.444-.328-.539-.954-.211-1.398l25.997-35.252c.328-.444.954-.54 1.398-.211.444.328.539.954.211 1.398l-25.996 35.252c-.197.265-.499.406-.806.406z"/><path d="m9.006 19.743c-.001 0-.003 0-.004 0-.552-.002-.998-.452-.996-1.004.006-1.42.766-2.739 1.985-3.445.892-.513 1.91-.66 2.883-.433.454-.881 1.225-1.579 2.172-1.925.537-.194 1.093-.271 1.659-.229.551.042.963.523.921 1.073s-.534.965-1.073.921c-.277-.021-.556.017-.823.114-.665.243-1.14.813-1.269 1.524-.059.319-.268.59-.561.728-.294.138-.637.124-.918-.037-.63-.357-1.375-.36-1.991-.005-.613.355-.982.999-.985 1.721-.002.551-.449.997-1 .997z"/><path d="m29.999 64c-.375 0-.733-.211-.904-.571l-20.992-44.258c-.237-.499-.024-1.096.475-1.332.502-.237 1.096-.023 1.332.475l20.992 44.257c.237.499.024 1.096-.475 1.332-.139.066-.284.097-.428.097z"/><path d="m4.001 28.748c-.001 0-.003 0-.004 0-.552-.002-.998-.452-.996-1.004.006-1.42.767-2.741 1.986-3.445.892-.514 1.912-.658 2.882-.433.453-.881 1.224-1.579 2.171-1.926.235-.084.466-.145.698-.184.542-.09 1.06.276 1.151.821s-.276 1.061-.821 1.152c-.117.02-.232.051-.348.092-.661.242-1.136.813-1.265 1.524-.059.319-.268.59-.561.728-.294.138-.636.125-.918-.037-.629-.358-1.374-.361-1.991-.005-.614.355-.982.998-.985 1.721-.001.55-.448.996-.999.996z"/><path d="m29.999 64c-.307 0-.609-.141-.806-.406l-25.997-35.253c-.328-.445-.233-1.071.211-1.398.444-.329 1.07-.233 1.398.211l25.997 35.252c.328.444.233 1.07-.211 1.398-.178.133-.386.196-.592.196z"/><path d="m32 64c-.553 0-1-.447-1-1v-49c0-.552.447-1 1-1s1 .448 1 1v49c0 .553-.447 1-1 1z"/><path d="m34.002 64h-4.004c-.553 0-1-.447-1-1s.447-1 1-1h4.004c.553 0 1 .447 1 1s-.447 1-1 1z"/></svg>