<svg id="icons" enable-background="new 0 0 64 64" height="512" viewBox="0 0 64 64" width="512" xmlns="http://www.w3.org/2000/svg"><path d="m39.49 57v2.5c0 1.93-1.57 3.5-3.5 3.5-1.931 0-3.5-1.57-3.5-3.5v-2.5c0-1.11.899-2 2-2h3c1.1 0 2 .89 2 2z" fill="#e6e9ed"/><path d="m47.51 7c0 1.11-.89 2-2 2h-3c-1.1 0-2-.89-2-2v-2.5c0-1.93 1.57-3.5 3.5-3.5s3.5 1.57 3.5 3.5z" fill="#e6e9ed"/><path d="m45.51 9v54l-3-3v-51z" fill="#a0d468"/><path d="m37.49 4v51h-3v-48-6z" fill="#a0d468"/><path d="m31.51 4.5v2.5c0 1.11-.89 2-2 2h-3c-1.1 0-2-.89-2-2v-2.5c0-1.93 1.57-3.5 3.5-3.5s3.5 1.57 3.5 3.5z" fill="#e6e9ed"/><path d="m29.51 59.5v3.5l-3-3v-51h3z" fill="#a0d468"/><path d="m21.49 4v51h-3v-54z" fill="#a0d468"/><path d="m23.49 57v2.5c0 1.93-1.561 3.5-3.5 3.5-1.931 0-3.5-1.57-3.5-3.5v-2.5c0-1.11.899-2 2-2h3c1.11 0 2 .89 2 2z" fill="#e6e9ed"/><path d="m19.99 64c-2.481 0-4.5-2.019-4.5-4.5 0-.553.447-1 1-1s1 .447 1 1c0 1.379 1.121 2.5 2.5 2.5s2.5-1.121 2.5-2.5c0-.553.447-1 1-1s1 .447 1 1c0 2.481-2.018 4.5-4.5 4.5z"/><path d="m16.49 57.998c-.553 0-1-.447-1-1 0-1.654 1.346-3 3-3 .553 0 1 .447 1 1s-.447 1-1 1c-.552 0-1 .448-1 1 0 .553-.447 1-1 1z"/><path d="m23.49 57.998c-.553 0-1-.447-1-1 0-.552-.448-1-1-1-.553 0-1-.447-1-1s.447-1 1-1c1.654 0 3 1.346 3 3 0 .553-.447 1-1 1z"/><path d="m16.49 60.5c-.553 0-1-.447-1-1v-2.502c0-.553.447-1 1-1s1 .447 1 1v2.502c0 .553-.447 1-1 1z"/><path d="m23.49 60.5c-.553 0-1-.447-1-1v-2.502c0-.553.447-1 1-1s1 .447 1 1v2.502c0 .553-.447 1-1 1z"/><path d="m18.49 55.998c-.553 0-1-.447-1-1v-53.998c0-.553.447-1 1-1s1 .447 1 1v53.998c0 .553-.447 1-1 1z"/><path d="m21.49 55.998c-.553 0-1-.447-1-1v-51c0-.553.447-1 1-1s1 .447 1 1v51c0 .553-.447 1-1 1z"/><path d="m21.49 55.998h-3c-.553 0-1-.447-1-1s.447-1 1-1h3c.553 0 1 .447 1 1s-.447 1-1 1z"/><path d="m21.49 4.998c-.256 0-.512-.098-.707-.293l-3-2.998c-.391-.39-.391-1.023 0-1.414s1.023-.391 1.414 0l3 2.998c.391.39.391 1.023 0 1.414-.195.195-.451.293-.707.293z"/><path d="m31.51 5.5c-.553 0-1-.447-1-1 0-1.379-1.121-2.5-2.5-2.5s-2.5 1.121-2.5 2.5c0 .553-.447 1-1 1s-1-.447-1-1c0-2.481 2.019-4.5 4.5-4.5s4.5 2.019 4.5 4.5c0 .553-.447 1-1 1z"/><path d="m29.51 10.002c-.553 0-1-.447-1-1s.447-1 1-1c.552 0 1-.448 1-1 0-.553.447-1 1-1s1 .447 1 1c0 1.654-1.346 3-3 3z"/><path d="m26.512 10.002c-1.654 0-3-1.346-3-3 0-.553.447-1 1-1s1 .447 1 1c0 .552.448 1 1 1 .553 0 1 .447 1 1s-.448 1-1 1z"/><path d="m31.51 8.002c-.553 0-1-.447-1-1v-2.502c0-.553.447-1 1-1s1 .447 1 1v2.502c0 .553-.447 1-1 1z"/><path d="m24.512 8.002c-.553 0-1-.447-1-1v-2.502c0-.553.447-1 1-1s1 .447 1 1v2.502c0 .553-.448 1-1 1z"/><path d="m29.51 64c-.553 0-1-.447-1-1v-53.998c0-.553.447-1 1-1s1 .447 1 1v53.998c0 .553-.447 1-1 1z"/><path d="m26.512 61.002c-.553 0-1-.447-1-1v-51c0-.553.447-1 1-1s1 .447 1 1v51c0 .553-.448 1-1 1z"/><path d="m29.51 10.002h-2.998c-.553 0-1-.447-1-1s.447-1 1-1h2.998c.553 0 1 .447 1 1s-.447 1-1 1z"/><path d="m29.51 64c-.256 0-.512-.098-.707-.293l-2.998-2.998c-.391-.391-.391-1.023 0-1.414s1.023-.391 1.414 0l2.998 2.998c.391.391.391 1.023 0 1.414-.196.195-.451.293-.707.293z"/><path d="m35.99 64c-2.481 0-4.5-2.019-4.5-4.5 0-.553.447-1 1-1s1 .447 1 1c0 1.379 1.121 2.5 2.5 2.5s2.5-1.121 2.5-2.5c0-.553.447-1 1-1s1 .447 1 1c0 2.481-2.018 4.5-4.5 4.5z"/><path d="m32.49 57.998c-.553 0-1-.447-1-1 0-1.654 1.346-3 3-3 .553 0 1 .447 1 1s-.447 1-1 1c-.552 0-1 .448-1 1 0 .553-.447 1-1 1z"/><path d="m39.488 57.998c-.553 0-1-.447-1-1 0-.552-.448-1-1-1-.553 0-1-.447-1-1s.447-1 1-1c1.654 0 3 1.346 3 3 0 .553-.447 1-1 1z"/><path d="m32.49 60.5c-.553 0-1-.447-1-1v-2.502c0-.553.447-1 1-1s1 .447 1 1v2.502c0 .553-.447 1-1 1z"/><path d="m39.488 60.5c-.553 0-1-.447-1-1v-2.502c0-.553.447-1 1-1s1 .447 1 1v2.502c0 .553-.447 1-1 1z"/><path d="m34.49 55.998c-.553 0-1-.447-1-1v-53.998c0-.553.447-1 1-1s1 .447 1 1v53.998c0 .553-.447 1-1 1z"/><path d="m37.488 55.998c-.553 0-1-.447-1-1v-51c0-.553.447-1 1-1s1 .447 1 1v51c0 .553-.447 1-1 1z"/><path d="m37.488 55.998h-2.998c-.553 0-1-.447-1-1s.447-1 1-1h2.998c.553 0 1 .447 1 1s-.447 1-1 1z"/><path d="m37.488 4.998c-.256 0-.512-.098-.707-.293l-2.998-2.998c-.391-.391-.391-1.023 0-1.414s1.023-.391 1.414 0l2.998 2.998c.391.391.391 1.023 0 1.414-.195.195-.451.293-.707.293z"/><path d="m47.51 5.5c-.553 0-1-.447-1-1 0-1.379-1.121-2.5-2.5-2.5s-2.5 1.121-2.5 2.5c0 .553-.447 1-1 1s-1-.447-1-1c0-2.481 2.019-4.5 4.5-4.5s4.5 2.019 4.5 4.5c0 .553-.447 1-1 1z"/><path d="m45.51 10.002c-.553 0-1-.447-1-1s.447-1 1-1c.552 0 1-.448 1-1 0-.553.447-1 1-1s1 .447 1 1c0 1.654-1.346 3-3 3z"/><path d="m42.51 10.002c-1.654 0-3-1.346-3-3 0-.553.447-1 1-1s1 .447 1 1c0 .552.448 1 1 1 .553 0 1 .447 1 1s-.447 1-1 1z"/><path d="m47.51 8.002c-.553 0-1-.447-1-1v-2.502c0-.553.447-1 1-1s1 .447 1 1v2.502c0 .553-.447 1-1 1z"/><path d="m40.51 8.002c-.553 0-1-.447-1-1v-2.502c0-.553.447-1 1-1s1 .447 1 1v2.502c0 .553-.447 1-1 1z"/><path d="m45.51 64c-.553 0-1-.447-1-1v-53.998c0-.553.447-1 1-1s1 .447 1 1v53.998c0 .553-.447 1-1 1z"/><path d="m42.51 61.002c-.553 0-1-.447-1-1v-51c0-.553.447-1 1-1s1 .447 1 1v51c0 .553-.447 1-1 1z"/><path d="m45.51 10.002h-3c-.553 0-1-.447-1-1s.447-1 1-1h3c.553 0 1 .447 1 1s-.447 1-1 1z"/><path d="m45.51 64c-.256 0-.512-.098-.707-.293l-3-2.998c-.391-.39-.391-1.023 0-1.414s1.023-.391 1.414 0l3 2.998c.391.39.391 1.023 0 1.414-.196.195-.451.293-.707.293z"/></svg>