<svg id="icons" enable-background="new 0 0 64 64" height="512" viewBox="0 0 64 64" width="512" xmlns="http://www.w3.org/2000/svg"><path d="m35.995 23h2c-.621.84-1 1.87-1 3 0-1.12-.371-2.16-1-3z" fill="#da4453"/><path d="m25.995 23h2c-.621.84-1 1.87-1 3 0-1.12-.371-2.16-1-3z" fill="#da4453"/><path d="m50.574 35.5c.87.9 1.42 2.13 1.42 3.49 0 1.37-.539 2.6-1.439 3.5-.89.92-2.15 1.5-3.55 1.5h-.011c-1.39 0-2.649-.57-3.56-1.49-.88-.91-1.43-2.13-1.43-3.51 0-1.36.54-2.59 1.42-3.49.92.92 2.18 1.5 3.58 1.5s2.661-.58 3.57-1.5z" fill="#ed5565"/><path d="m50.564 42.5c.88.9 1.43 2.14 1.43 3.5 0 2.76-2.229 4.99-4.989 5h-.011c-.029 0-.069 0-.1-.01-2.71-.05-4.89-2.271-4.89-4.99 0-1.36.54-2.6 1.43-3.5.91.92 2.17 1.49 3.56 1.49h.011c1.399 0 2.66-.58 3.55-1.5z" fill="#da4453"/><path d="m50.574 35.5c-.909.92-2.17 1.5-3.569 1.5-1.4 0-2.66-.58-3.58-1.5-.88-.9-1.42-2.14-1.42-3.5 0-.34-.04-.68-.101-1.01.031.01.061.01.09.01 2.421 0 4.44-1.72 4.9-4h.11c2.76 0 5 2.24 5 5 .001 1.36-.539 2.6-1.43 3.5z" fill="#da4453"/><path d="m37.995 23h-2-8-2-3.99-.01c-1.19 0-2.32-.26-3.33-.73-2.75-1.26-4.66-4.039-4.66-7.27 0 2.2 1.779 3.99 3.979 4h.021 12 4 12c2.21 0 4-1.79 4-4 0 3.23-1.91 6.02-4.67 7.28-1.011.46-2.141.72-3.33.72h-.011z" fill="#a0d468"/><path d="m37.005 51.9c-.01-.311-.04-.61-.09-.9h.08c2.76 0 4.999-2.24 4.999-5h.011c0 2.72 2.18 4.94 4.89 4.99v.01c.07.32.1.66.1 1 0 2.76-2.239 5-5 5-.029 0-.06 0-.09-.01-2.689-.04-4.86-2.21-4.899-4.9 0-.03 0-.06 0-.09s-.001-.07-.001-.1z" fill="#ed5565"/><path d="m46.994 26c0 .34-.029.68-.1 1-.46 2.28-2.479 4-4.9 4-.029 0-.06 0-.09-.01-2.72-.04-4.909-2.26-4.909-4.99 0-1.13.379-2.16 1-3h3.999.011c1.189 0 2.319-.26 3.33-.72 1.019.92 1.659 2.24 1.659 3.72z" fill="#ed5565"/><path d="m42.005 32c0 1.36.54 2.6 1.42 3.5-.88.9-1.42 2.13-1.42 3.49h-.011c0-1.351-.539-2.58-1.419-3.48.88-.91 1.43-2.14 1.43-3.51z" fill="#d3374e"/><path d="m42.005 38.99c0 1.38.55 2.6 1.43 3.51-.89.9-1.43 2.14-1.43 3.5h-.011c0-1.36-.55-2.6-1.439-3.5.89-.91 1.439-2.13 1.439-3.51z" fill="#d3374e"/><path d="m32.005 58c0-.35-.03-.68-.1-1.01.03.01.07.01.1.01 2.74 0 4.949-2.19 5-4.91.039 2.69 2.21 4.86 4.899 4.9.07.33.11.66.11 1.01 0 2.76-2.24 5-5.01 5-2.759 0-4.999-2.24-4.999-5z" fill="#da4453"/><path d="m33.425 35.5c-.881-.9-1.42-2.14-1.42-3.5 0-.34-.04-.68-.1-1.01.03.01.06.01.09.01 2.76 0 5-2.24 5-5 0 2.73 2.189 4.95 4.909 4.99.061.33.101.67.101 1.01 0 1.37-.55 2.6-1.43 3.51-.91.92-2.181 1.49-3.57 1.49-1.401 0-2.66-.58-3.58-1.5z" fill="#da4453"/><path d="m40.575 35.51c.88.9 1.419 2.13 1.419 3.48 0 1.38-.55 2.6-1.439 3.51-.899.92-2.17 1.49-3.56 1.49-1.391 0-2.66-.57-3.561-1.49-.891-.91-1.439-2.13-1.439-3.51 0-1.36.549-2.59 1.43-3.49.92.92 2.18 1.5 3.58 1.5 1.39 0 2.66-.57 3.57-1.49z" fill="#ed5565"/><path d="m40.555 42.5c.89.9 1.439 2.14 1.439 3.5 0 2.76-2.239 5-4.999 5-.03 0-.051 0-.08 0-2.721-.04-4.92-2.27-4.92-5 0-1.36.549-2.6 1.439-3.5.9.92 2.17 1.49 3.561 1.49 1.39 0 2.66-.57 3.56-1.49z" fill="#da4453"/><path d="m27.015 51.83c0-.28-.04-.561-.09-.83h.06.011c2.76-.01 4.989-2.24 4.989-5h.011c0 2.73 2.199 4.96 4.92 5 .05.29.08.59.09.9-.01.029-.01.069-.01.1s0 .06.01.09c-.051 2.72-2.26 4.91-5 4.91-.03 0-.07 0-.1-.01-2.66-.04-4.811-2.17-4.891-4.82.01-.06.01-.11.01-.17s-.001-.11-.01-.17z" fill="#ed5565"/><path d="m35.995 23c.629.84 1 1.88 1 3 0 2.76-2.24 5-5 5-.03 0-.061 0-.09-.01-2.721-.04-4.91-2.26-4.91-4.99 0-1.13.379-2.16 1-3z" fill="#ed5565"/><path d="m34.005 18.47v.53h-4v-.53-17.47l4 4z" fill="#8cc152"/><path d="m32.005 32c0 1.36.539 2.6 1.42 3.5-.881.9-1.43 2.13-1.43 3.49h-.011c0-1.351-.53-2.58-1.409-3.48.879-.91 1.43-2.14 1.43-3.51z" fill="#d3374e"/><path d="m31.995 38.99c0 1.38.549 2.6 1.439 3.51-.891.9-1.439 2.14-1.439 3.5h-.011c0-1.36-.54-2.6-1.43-3.5.88-.91 1.43-2.13 1.43-3.51z" fill="#d3374e"/><path d="m31.905 56.99c.069.33.1.66.1 1.01 0 2.76-2.23 5-5 5-2.76 0-5-2.24-5-5 0-.34.039-.68.1-1 2.67-.04 4.83-2.17 4.91-4.83.08 2.65 2.23 4.78 4.89 4.82z" fill="#da4453"/><path d="m30.575 35.51c-.91.92-2.181 1.49-3.57 1.49-1.4 0-2.67-.58-3.58-1.51-.881-.9-1.42-2.13-1.42-3.49 0-.34-.04-.68-.1-1h.09c2.76 0 5-2.24 5-5 0 2.73 2.189 4.95 4.91 4.99.06.33.1.67.1 1.01 0 1.37-.551 2.6-1.43 3.51z" fill="#da4453"/><path d="m30.575 35.51c.879.9 1.409 2.13 1.409 3.48 0 1.38-.55 2.6-1.43 3.51-.91.92-2.17 1.49-3.56 1.49h-.011c-1.399 0-2.659-.58-3.55-1.5-.9-.9-1.439-2.13-1.439-3.5 0-1.36.549-2.601 1.43-3.5.91.93 2.18 1.51 3.58 1.51 1.391 0 2.661-.57 3.571-1.49z" fill="#ed5565"/><path d="m30.555 42.5c.89.9 1.43 2.14 1.43 3.5 0 2.76-2.229 4.99-4.989 5h-.011c-.02 0-.04 0-.06 0-2.73-.04-4.93-2.26-4.93-5 0-1.36.549-2.6 1.43-3.5l.01-.01c.891.92 2.15 1.5 3.55 1.5h.011c1.389 0 2.649-.57 3.559-1.49z" fill="#da4453"/><path d="m27.015 51.83c-.01.06-.01.11-.01.17s0 .11.01.17c-.08 2.66-2.24 4.79-4.91 4.83-.029 0-.05 0-.08 0-2.76 0-5-2.24-5-5 0-.34.03-.68.1-1v-.01c2.701-.07 4.86-2.28 4.86-4.99h.011c0 2.74 2.199 4.96 4.93 5 .049.27.089.55.089.83z" fill="#ed5565"/><path d="m25.995 23c.629.84 1 1.88 1 3 0 2.76-2.24 5-5 5-.03 0-.061 0-.09 0-2.381-.04-4.351-1.75-4.811-4-.07-.32-.1-.66-.1-1 0-1.48.64-2.81 1.67-3.73 1.01.471 2.14.73 3.33.73h.01z" fill="#ed5565"/><path d="m23.435 42.49-.01.01c-.881.9-1.43 2.14-1.43 3.5h-.011c0-1.36-.55-2.6-1.43-3.5.88-.91 1.43-2.13 1.43-3.51h.011c0 1.37.539 2.6 1.44 3.5z" fill="#d3374e"/><path d="m22.005 32c0 1.36.539 2.59 1.42 3.49-.881.899-1.43 2.14-1.43 3.5h-.011c0-1.351-.54-2.58-1.409-3.48.879-.91 1.43-2.14 1.43-3.51z" fill="#d3374e"/><path d="m20.575 35.51c-.91.92-2.181 1.49-3.57 1.49-1.4 0-2.67-.58-3.58-1.51-.881-.9-1.42-2.13-1.42-3.49 0-2.76 2.24-5 5-5h.09c.46 2.25 2.43 3.96 4.811 4 .06.32.1.66.1 1-.001 1.37-.552 2.6-1.431 3.51z" fill="#da4453"/><path d="m20.575 35.51c.869.9 1.409 2.13 1.409 3.48 0 1.38-.55 2.6-1.43 3.51-.91.92-2.17 1.49-3.56 1.49h-.011c-1.399 0-2.649-.57-3.56-1.49-.881-.91-1.43-2.13-1.43-3.51 0-1.36.539-2.601 1.43-3.5.91.93 2.18 1.51 3.58 1.51 1.392 0 2.662-.57 3.572-1.49z" fill="#ed5565"/><path d="m20.555 42.5c.88.9 1.43 2.14 1.43 3.5 0 2.71-2.159 4.92-4.86 4.99-.04.01-.091.01-.13.01h-.011c-2.77-.01-4.989-2.24-4.989-5 0-1.36.539-2.6 1.43-3.5.91.92 2.16 1.49 3.56 1.49h.011c1.389 0 2.649-.57 3.559-1.49z" fill="#da4453"/><path d="m37.013 63.999c-3.309 0-6-2.691-6-6 0-.404.04-.809.119-1.201.109-.541.63-.893 1.179-.782.541.109.892.637.782 1.179-.053.262-.08.533-.08.805 0 2.206 1.794 4 4 4s4-1.794 4-4c0-.271-.027-.543-.081-.808-.11-.541.238-1.069.779-1.18.541-.108 1.069.238 1.18.779.081.396.122.802.122 1.208 0 3.309-2.692 6-6 6z"/><path d="m27.013 63.999c-3.309 0-6-2.691-6-6 0-.404.04-.809.119-1.201.108-.541.632-.893 1.179-.782.541.109.892.637.782 1.179-.053.262-.08.533-.08.805 0 2.206 1.794 4 4 4s4-1.794 4-4c0-.271-.027-.543-.081-.808-.11-.541.238-1.069.779-1.18.542-.108 1.069.238 1.18.779.081.396.122.802.122 1.208 0 3.309-2.692 6-6 6z"/><path d="m41.999 57.998c-3.309 0-6-2.691-6-6 0-.4.04-.803.118-1.194.108-.542.638-.896 1.177-.784.541.108.893.635.784 1.177-.053.263-.079.532-.079.802 0 2.206 1.794 4 4 4s4-1.794 4-4c0-.271-.026-.54-.08-.8-.109-.541.24-1.069.781-1.18.55-.102 1.069.241 1.18.781.079.392.119.794.119 1.198 0 3.309-2.691 6-6 6z"/><path d="m32.013 57.998c-3.309 0-6-2.691-6-6 0-.4.04-.803.118-1.194.108-.542.635-.896 1.177-.784.541.108.893.635.784 1.177-.053.263-.079.532-.079.802 0 2.206 1.794 4 4 4s4-1.794 4-4c0-.271-.026-.54-.08-.8-.109-.541.24-1.069.781-1.18.55-.102 1.069.241 1.18.781.079.392.119.794.119 1.198 0 3.309-2.692 6-6 6z"/><path d="m22.026 57.998c-3.309 0-6-2.691-6-6 0-.4.04-.803.118-1.194.107-.542.636-.896 1.177-.784.541.108.893.635.784 1.177-.053.263-.079.532-.079.802 0 2.206 1.794 4 4 4s4-1.794 4-4c0-.271-.026-.54-.08-.8-.109-.541.24-1.069.781-1.18.55-.102 1.069.241 1.18.781.079.392.119.794.119 1.198 0 3.309-2.691 6-6 6z"/><path d="m21.999 32.001c-3.309 0-6-2.691-6-6 0-1.703.729-3.333 1.997-4.471.41-.37 1.043-.335 1.412.076s.335 1.044-.076 1.412c-.848.76-1.333 1.847-1.333 2.982 0 2.206 1.794 4 4 4s4-1.794 4-4c0-.874-.276-1.704-.8-2.399-.332-.441-.244-1.068.197-1.4.443-.332 1.069-.242 1.4.197.786 1.046 1.202 2.291 1.202 3.603.001 3.309-2.69 6-5.999 6z"/><path d="m31.999 32.001c-3.309 0-6-2.691-6-6 0-1.315.418-2.564 1.207-3.612.333-.439.959-.53 1.401-.196.44.333.528.96.196 1.401-.526.697-.805 1.53-.805 2.407 0 2.206 1.794 4 4 4s4-1.794 4-4c0-.874-.276-1.704-.8-2.399-.332-.441-.244-1.068.197-1.4.443-.332 1.069-.242 1.4.197.786 1.046 1.202 2.291 1.202 3.603.002 3.308-2.689 5.999-5.998 5.999z"/><path d="m41.999 32.001c-3.309 0-6-2.691-6-6 0-1.315.418-2.564 1.207-3.612.333-.439.959-.53 1.401-.196.44.333.528.96.196 1.401-.526.697-.805 1.53-.805 2.407 0 2.206 1.794 4 4 4s4-1.794 4-4c0-1.134-.484-2.219-1.329-2.977-.411-.369-.445-1.001-.076-1.412s1.002-.444 1.412-.076c1.267 1.137 1.993 2.765 1.993 4.465.001 3.309-2.69 6-5.999 6z"/><path d="m47.006 52.001c-3.309 0-6-2.691-6-6 0-1.583.61-3.076 1.72-4.205.386-.395 1.019-.399 1.414-.012.394.387.399 1.02.012 1.414-.738.752-1.146 1.747-1.146 2.803 0 2.206 1.794 4 4 4 .553 0 1 .447 1 1s-.447 1-1 1z"/><path d="m46.999 52.001c-.553 0-1-.447-1-1s.447-1 1-1c2.206 0 4-1.794 4-4 0-1.056-.407-2.051-1.146-2.803-.388-.395-.382-1.027.012-1.414.395-.388 1.027-.383 1.414.012 1.109 1.129 1.72 2.622 1.72 4.205 0 3.309-2.691 6-6 6z"/><path d="m37.002 52.001c-3.309 0-6-2.691-6-6 0-1.583.61-3.076 1.72-4.205.385-.395 1.019-.399 1.414-.012.394.387.399 1.02.012 1.414-.738.752-1.146 1.747-1.146 2.803 0 2.206 1.794 4 4 4 .553 0 1 .447 1 1s-.447 1-1 1z"/><path d="m36.995 52.001c-.553 0-1-.447-1-1s.447-1 1-1c2.206 0 4-1.794 4-4 0-1.056-.407-2.051-1.146-2.803-.388-.395-.382-1.027.012-1.414.395-.388 1.027-.383 1.414.012 1.109 1.129 1.72 2.622 1.72 4.205 0 3.309-2.691 6-6 6z"/><path d="m26.998 52.001c-3.309 0-6-2.691-6-6 0-1.583.61-3.076 1.72-4.205.387-.395 1.019-.399 1.414-.012.394.387.399 1.02.012 1.414-.738.752-1.146 1.747-1.146 2.803 0 2.206 1.794 4 4 4 .553 0 1 .447 1 1s-.447 1-1 1z"/><path d="m26.991 52.001c-.553 0-1-.447-1-1s.447-1 1-1c2.206 0 4-1.794 4-4 0-1.056-.407-2.051-1.146-2.803-.388-.395-.382-1.027.012-1.414.395-.388 1.026-.383 1.414.012 1.109 1.129 1.72 2.622 1.72 4.205 0 3.309-2.691 6-6 6z"/><path d="m16.994 52.001c-3.309 0-6-2.691-6-6 0-1.583.61-3.076 1.72-4.205.386-.395 1.019-.399 1.414-.012.394.387.399 1.02.012 1.414-.738.752-1.146 1.747-1.146 2.803 0 2.206 1.794 4 4 4 .553 0 1 .447 1 1s-.447 1-1 1z"/><path d="m16.987 52.001c-.553 0-1-.447-1-1s.447-1 1-1c2.206 0 4-1.794 4-4 0-1.056-.407-2.051-1.146-2.803-.388-.395-.382-1.027.012-1.414.395-.388 1.028-.383 1.414.012 1.109 1.129 1.72 2.622 1.72 4.205 0 3.309-2.691 6-6 6z"/><path d="m47.006 44.994c-3.309 0-6-2.691-6-6 0-1.583.61-3.076 1.72-4.205.386-.395 1.019-.399 1.414-.012.394.387.399 1.02.012 1.414-.738.752-1.146 1.747-1.146 2.803 0 2.206 1.794 4 4 4 .553 0 1 .447 1 1s-.447 1-1 1z"/><path d="m46.999 44.994c-.553 0-1-.447-1-1s.447-1 1-1c2.206 0 4-1.794 4-4 0-1.056-.407-2.051-1.146-2.803-.388-.395-.382-1.027.012-1.414.395-.388 1.027-.383 1.414.012 1.109 1.129 1.72 2.622 1.72 4.205 0 3.309-2.691 6-6 6z"/><path d="m37.002 44.994c-3.309 0-6-2.691-6-6 0-1.583.61-3.076 1.72-4.205.385-.395 1.019-.399 1.414-.012.394.387.399 1.02.012 1.414-.738.752-1.146 1.747-1.146 2.803 0 2.206 1.794 4 4 4 .553 0 1 .447 1 1s-.447 1-1 1z"/><path d="m36.995 44.994c-.553 0-1-.447-1-1s.447-1 1-1c2.206 0 4-1.794 4-4 0-1.056-.407-2.051-1.146-2.803-.388-.395-.382-1.027.012-1.414.395-.388 1.027-.383 1.414.012 1.109 1.129 1.72 2.622 1.72 4.205 0 3.309-2.691 6-6 6z"/><path d="m26.998 44.994c-3.309 0-6-2.691-6-6 0-1.583.61-3.076 1.72-4.205.387-.395 1.019-.399 1.414-.012.394.387.399 1.02.012 1.414-.738.752-1.146 1.747-1.146 2.803 0 2.206 1.794 4 4 4 .553 0 1 .447 1 1s-.447 1-1 1z"/><path d="m26.991 44.994c-.553 0-1-.447-1-1s.447-1 1-1c2.206 0 4-1.794 4-4 0-1.056-.407-2.051-1.146-2.803-.388-.395-.382-1.027.012-1.414.395-.388 1.026-.383 1.414.012 1.109 1.129 1.72 2.622 1.72 4.205 0 3.309-2.691 6-6 6z"/><path d="m16.994 44.994c-3.309 0-6-2.691-6-6 0-1.583.61-3.076 1.72-4.205.386-.395 1.019-.399 1.414-.012.394.387.399 1.02.012 1.414-.738.752-1.146 1.747-1.146 2.803 0 2.206 1.794 4 4 4 .553 0 1 .447 1 1s-.447 1-1 1z"/><path d="m16.987 44.994c-.553 0-1-.447-1-1s.447-1 1-1c2.206 0 4-1.794 4-4 0-1.056-.407-2.051-1.146-2.803-.388-.395-.382-1.027.012-1.414.395-.388 1.028-.383 1.414.012 1.109 1.129 1.72 2.622 1.72 4.205 0 3.309-2.691 6-6 6z"/><path d="m17.006 38.001c-3.309 0-6-2.691-6-6s2.691-6 6-6c.553 0 1.047.447 1.047 1s-.4 1-.953 1c-2.3 0-4.094 1.794-4.094 4s1.794 4 4 4 4-1.794 4-4c0-.271-.026-.541-.08-.803-.109-.541.241-1.068.782-1.179.542-.107 1.068.241 1.179.782.079.392.119.795.119 1.199 0 3.31-2.692 6.001-6 6.001z"/><path d="m37.006 38.001c-3.309 0-6-2.691-6-6 0-.404.04-.808.119-1.199.11-.541.637-.893 1.179-.782.541.11.892.638.782 1.179-.054.262-.08.531-.08.803 0 2.206 1.794 4 4 4s4-1.794 4-4c0-.271-.027-.543-.081-.808-.11-.541.238-1.069.779-1.18.54-.107 1.069.238 1.18.779.081.396.122.802.122 1.208 0 3.309-2.692 6-6 6z"/><path d="m27.006 38.001c-3.309 0-6-2.691-6-6 0-.404.04-.808.119-1.199.11-.541.639-.893 1.179-.782.541.11.892.638.782 1.179-.054.262-.08.531-.08.803 0 2.206 1.794 4 4 4s4-1.794 4-4c0-.271-.027-.543-.081-.808-.11-.541.238-1.069.779-1.18.541-.107 1.069.238 1.18.779.081.396.122.802.122 1.208 0 3.309-2.692 6-6 6z"/><path d="m47.006 38.001c-3.309 0-6-2.691-6-6 0-.402.04-.804.119-1.195.11-.54.632-.885 1.18-.781.541.11.891.639.781 1.18-.054.26-.08.528-.08.797 0 2.206 1.794 4 4 4s4-1.794 4-4-1.794-4-4-4c-.549-.019-1.052-.419-1.066-.971-.016-.553.38-1.012.933-1.027l.134-.002c3.309 0 6 2.691 6 6s-2.693 5.999-6.001 5.999z"/><path d="m41.999 24.003h-20c-.553 0-1-.447-1-1s.447-1 1-1h20c.553 0 1 .447 1 1s-.447 1-1 1z"/><path d="m22.006 24.003c-4.963 0-9-4.037-9-9 0-.553.447-1 1-1s1 .447 1 1c0 3.859 3.141 7 7 7 .553 0 1 .447 1 1s-.447 1-1 1z"/><path d="m42.007 24.003c-.553 0-1-.447-1-1s.447-1 1-1c3.859 0 7-3.141 7-7 0-.553.447-1 1-1s1 .447 1 1c0 4.963-4.037 9-9 9z"/><path d="m18.006 20.003c-2.757 0-5-2.243-5-5 0-.553.447-1 1-1s1 .447 1 1c0 1.654 1.346 3 3 3 .553 0 1 .447 1 1s-.447 1-1 1z"/><path d="m46.007 20.003c-.553 0-1-.447-1-1s.447-1 1-1c1.654 0 3-1.346 3-3 0-.553.447-1 1-1s1 .447 1 1c0 2.757-2.243 5-5 5z"/><path d="m46.007 20.003h-28.02c-.553 0-1-.447-1-1s.447-1 1-1h28.02c.553 0 1 .447 1 1s-.447 1-1 1z"/><path d="m30.007 20.003c-.553 0-1-.447-1-1v-18.001c0-.553.447-1 1-1s1 .447 1 1v18.001c0 .553-.447 1-1 1z"/><path d="m34.005 20.003c-.553 0-1-.447-1-1v-14.002c0-.553.447-1 1-1s1 .447 1 1v14.002c0 .553-.447 1-1 1z"/><path d="m34.005 6.001c-.256 0-.512-.098-.707-.293l-4-4c-.391-.391-.391-1.023 0-1.414s1.023-.391 1.414 0l4 4c.391.391.391 1.023 0 1.414-.195.195-.451.293-.707.293z"/></svg>