<svg id="icons" enable-background="new 0 0 64 64" height="512" viewBox="0 0 64 64" width="512" xmlns="http://www.w3.org/2000/svg"><path d="m34.056 1v11h-4v-9z" fill="#8cc152"/><path d="m45.055 12c1.66 0 3-1.34 3-3 0 4.43-3.58 8-8 8v.01h-16v-.01c-4.42 0-8-3.57-8-8 0 1.66 1.351 3 3 3h10 4z" fill="#a0d468"/><path d="m53.385 24.71-8.66 30.59c-1.2 4.24-5.78 7.7-10.18 7.7h-5.98c-4.399 0-8.909-3.479-10.02-7.74l-7.97-30.51c-1.11-4.26 1.58-7.74 5.979-7.74h7.5 16 7.51c4.401 0 7.021 3.46 5.821 7.7z" fill="#ed5565"/><path d="m47.564 17.01h-4.004c4.4 0 7.021 3.46 5.82 7.7l-8.66 30.59c-1.2 4.24-5.78 7.7-10.18 7.7h4.004c4.399 0 8.979-3.46 10.18-7.7l8.66-30.59c1.201-4.24-1.419-7.7-5.82-7.7z" fill="#da4453"/><path d="m34.49 64h-5.982c-4.838 0-9.768-3.808-10.989-8.487l-7.969-30.513c-.617-2.366-.228-4.614 1.099-6.331s3.403-2.662 5.848-2.662h31.008c2.448 0 4.511.943 5.808 2.657 1.296 1.714 1.644 3.956.977 6.313l-8.66 30.597c-1.314 4.646-6.311 8.426-11.14 8.426zm-17.994-45.993c-1.812 0-3.325.669-4.265 1.885-.938 1.216-1.204 2.851-.746 4.603l7.969 30.513c.989 3.79 5.136 6.992 9.054 6.992h5.982c3.927 0 8.147-3.192 9.216-6.971l8.658-30.597c.491-1.739.262-3.359-.648-4.562-.909-1.202-2.405-1.864-4.212-1.864h-31.008z"/><path d="m24.003 18.003c-4.963 0-9-4.037-9-9 0-.553.447-1 1-1s1 .447 1 1c0 3.859 3.141 7 7 7 .553 0 1 .447 1 1s-.447 1-1 1z"/><path d="m39.996 18.003c-.553 0-1-.447-1-1s.447-1 1-1c3.859 0 7-3.141 7-7 0-.553.447-1 1-1s1 .447 1 1c0 4.963-4.037 9-9 9z"/><path d="m19.003 13.003c-2.206 0-4-1.794-4-4 0-.553.447-1 1-1s1 .447 1 1c0 1.103.897 2 2 2 .553 0 1 .447 1 1s-.447 1-1 1z"/><path d="m44.997 13.002c-.553 0-1-.447-1-1s.447-1 1-1c1.103 0 1.999-.896 1.999-1.999 0-.553.447-1 1-1s1 .447 1 1c0 2.205-1.794 3.999-3.999 3.999z"/><path d="m44.997 13.003h-25.994c-.553 0-1-.447-1-1s.447-1 1-1h25.994c.553 0 1 .447 1 1s-.447 1-1 1z"/><path d="m34.002 13.003c-.553 0-1-.447-1-1v-11.003c0-.553.447-1 1-1s1 .447 1 1v11.003c0 .553-.447 1-1 1z"/><path d="m30.001 13.003c-.553 0-1-.447-1-1v-9.001c0-.553.447-1 1-1s1 .447 1 1v9.001c0 .553-.447 1-1 1z"/><path d="m30.002 4.001c-.367 0-.72-.202-.896-.553-.247-.494-.047-1.095.447-1.342l4.001-2.001c.493-.244 1.094-.047 1.342.447.247.494.047 1.095-.447 1.342l-4.001 2.001c-.143.072-.296.106-.446.106z"/><path d="m16 24.999c-.553 0-1-.447-1-1v-2c0-.553.447-1 1-1s1 .447 1 1v2c0 .553-.447 1-1 1z"/><path d="m24 24.999c-.553 0-1-.447-1-1v-2c0-.553.447-1 1-1s1 .447 1 1v2c0 .553-.447 1-1 1z"/><path d="m32 24.999c-.553 0-1-.447-1-1v-2c0-.553.447-1 1-1s1 .447 1 1v2c0 .553-.447 1-1 1z"/><path d="m40 24.999c-.553 0-1-.447-1-1v-2c0-.553.447-1 1-1s1 .447 1 1v2c0 .553-.447 1-1 1z"/><path d="m48 24.999c-.553 0-1-.447-1-1v-2c0-.553.447-1 1-1s1 .447 1 1v2c0 .553-.447 1-1 1z"/><path d="m20 32c-.553 0-1-.447-1-1v-2c0-.553.447-1 1-1s1 .447 1 1v2c0 .553-.447 1-1 1z"/><path d="m28 32c-.553 0-1-.447-1-1v-2c0-.553.447-1 1-1s1 .447 1 1v2c0 .553-.447 1-1 1z"/><path d="m36 32c-.553 0-1-.447-1-1v-2c0-.553.447-1 1-1s1 .447 1 1v2c0 .553-.447 1-1 1z"/><path d="m44 32c-.553 0-1-.447-1-1v-2c0-.553.447-1 1-1s1 .447 1 1v2c0 .553-.447 1-1 1z"/><path d="m24 39.001c-.553 0-1-.447-1-1v-2c0-.553.447-1 1-1s1 .447 1 1v2c0 .553-.447 1-1 1z"/><path d="m32 39.001c-.553 0-1-.447-1-1v-2c0-.553.447-1 1-1s1 .447 1 1v2c0 .553-.447 1-1 1z"/><path d="m16 39.001c-.553 0-1-.447-1-1v-2c0-.553.447-1 1-1s1 .447 1 1v2c0 .553-.447 1-1 1z"/><path d="m40 39.001c-.553 0-1-.447-1-1v-2c0-.553.447-1 1-1s1 .447 1 1v2c0 .553-.447 1-1 1z"/><path d="m48 39.001c-.553 0-1-.447-1-1v-2c0-.553.447-1 1-1s1 .447 1 1v2c0 .553-.447 1-1 1z"/><path d="m20 46.002c-.553 0-1-.447-1-1v-2c0-.553.447-1 1-1s1 .447 1 1v2c0 .553-.447 1-1 1z"/><path d="m28 46.002c-.553 0-1-.447-1-1v-2c0-.553.447-1 1-1s1 .447 1 1v2c0 .553-.447 1-1 1z"/><path d="m36 46.002c-.553 0-1-.447-1-1v-2c0-.553.447-1 1-1s1 .447 1 1v2c0 .553-.447 1-1 1z"/><path d="m44 46.002c-.553 0-1-.447-1-1v-2c0-.553.447-1 1-1s1 .447 1 1v2c0 .553-.447 1-1 1z"/><path d="m24 53.003c-.553 0-1-.447-1-1v-2c0-.553.447-1 1-1s1 .447 1 1v2c0 .553-.447 1-1 1z"/><path d="m32 53.003c-.553 0-1-.447-1-1v-2c0-.553.447-1 1-1s1 .447 1 1v2c0 .553-.447 1-1 1z"/><path d="m40 53.003c-.553 0-1-.447-1-1v-2c0-.553.447-1 1-1s1 .447 1 1v2c0 .553-.447 1-1 1z"/><path d="m28 60.004c-.553 0-1-.447-1-1v-2c0-.553.447-1 1-1s1 .447 1 1v2c0 .553-.447 1-1 1z"/><path d="m36 60.004c-.553 0-1-.447-1-1v-2c0-.553.447-1 1-1s1 .447 1 1v2c0 .553-.447 1-1 1z"/></svg>