<svg id="icons" enable-background="new 0 0 64 64" height="512" viewBox="0 0 64 64" width="512" xmlns="http://www.w3.org/2000/svg"><path d="m37.036 11.766c4.7 4.69 4.7 12.281 0 16.971l-11.31 11.31c-4.69 4.69-12.28 4.69-16.971 0l-.709-.71-1.411-1.41-1.409-1.41-.711-.71c-4.689-4.689-4.689-12.28 0-16.97l11.311-11.32c4.689-4.689 12.28-4.689 16.97 0l.71.71 1.41 1.41 1.42 1.42z" fill="#965353"/><path d="m37.036 11.766-.7-.71-1.42-1.42-1.41-1.41-.002-.001.701.71c4.7 4.69 4.7 12.28 0 16.971l-11.31 11.31c-4.688 4.688-12.272 4.689-16.963.006l.703.705 1.411 1.41.709.71c4.69 4.69 12.28 4.69 16.971 0l11.31-11.31c4.7-4.69 4.7-12.281 0-16.971z" fill="#844747"/><path d="m58.606 34.396c5.859 5.86 5.859 15.36 0 21.21-5.86 5.861-15.36 5.86-21.221 0-5.85-5.85-5.85-15.351 0-21.209 5.861-5.861 15.361-5.861 21.221-.001zm-4.62 10.61-1.75-1.76v-2.48h-2.49l-1.75-1.75-1.749 1.75-2.491.001.01 2.48-1.76 1.759 1.76 1.75-.01 2.48h2.49l1.75 1.76 1.759-1.76h2.48l.001-2.481z" fill="#a0d468"/><path d="m52.236 43.246 1.75 1.76-1.75 1.749-.001 2.481h-2.48l-1.759 1.76-1.75-1.76h-2.49l.01-2.48-1.76-1.75 1.76-1.759-.01-2.48 2.491-.001 1.749-1.75 1.75 1.75h2.49z" fill="#e6e9ed"/><path d="m15.831 8.518c-.256 0-.512-.098-.707-.293-.391-.39-.391-1.023 0-1.414 2.456-2.457 5.72-3.811 9.19-3.812 3.471 0 6.735 1.354 9.192 3.812.391.391.391 1.023 0 1.414s-1.023.391-1.414 0c-2.079-2.08-4.842-3.226-7.778-3.226s-5.698 1.146-7.776 3.226c-.195.195-.451.293-.707.293z"/><path d="m37.042 29.729c-.256 0-.512-.098-.707-.293-.391-.391-.391-1.023 0-1.414 2.08-2.079 3.226-4.842 3.226-7.777 0-2.937-1.146-5.699-3.226-7.779-.391-.391-.391-1.023 0-1.414s1.023-.391 1.414 0c2.458 2.458 3.812 5.723 3.812 9.193s-1.354 6.734-3.812 9.191c-.195.196-.451.293-.707.293z"/><path d="m17.244 44.551c-3.329 0-6.657-1.267-9.192-3.801-.391-.391-.391-1.023 0-1.414s1.023-.391 1.414 0c4.29 4.288 11.269 4.287 15.557-.001.391-.391 1.023-.391 1.414 0s.391 1.023 0 1.414c-2.534 2.534-5.864 3.802-9.193 3.802z"/><path d="m4.517 36.8c-.256 0-.512-.098-.707-.293-5.068-5.068-5.068-13.316 0-18.385.391-.391 1.023-.391 1.414 0s.391 1.023 0 1.414c-4.289 4.289-4.289 11.268 0 15.557.391.391.391 1.023 0 1.414-.196.195-.452.293-.707.293z"/><path d="m4.517 19.829c-.256 0-.512-.098-.707-.293-.391-.391-.391-1.023 0-1.414l11.314-11.311c.391-.391 1.023-.391 1.414 0s.391 1.023 0 1.414l-11.314 11.311c-.196.195-.452.293-.707.293z"/><path d="m25.729 41.042c-.256 0-.512-.098-.707-.293-.391-.391-.391-1.023 0-1.414l11.313-11.313c.391-.391 1.023-.391 1.414 0s.391 1.023 0 1.414l-11.312 11.313c-.196.195-.452.293-.708.293z"/><path d="m37.042 12.759c-.256 0-.512-.098-.707-.293l-4.242-4.241c-.391-.391-.391-1.023 0-1.414s1.023-.391 1.414 0l4.242 4.241c.391.391.391 1.023 0 1.414-.195.195-.451.293-.707.293z"/><path d="m8.759 41.042c-.256 0-.512-.098-.707-.293l-4.242-4.242c-.391-.391-.391-1.023 0-1.414s1.023-.391 1.414 0l4.242 4.242c.391.391.391 1.023 0 1.414-.195.195-.451.293-.707.293z"/><path d="m4.517 38.215c-.256 0-.512-.098-.707-.292-.391-.391-.391-1.023-.001-1.415l.707-.708c.391-.391 1.024-.39 1.415-.001.391.391.391 1.023.001 1.415l-.707.708c-.196.195-.453.293-.708.293z"/><path d="m5.931 39.629c-.256 0-.512-.098-.707-.292-.391-.391-.391-1.023-.001-1.415l.707-.708c.391-.391 1.024-.39 1.415-.001.391.391.391 1.023.001 1.415l-.707.708c-.196.195-.452.293-.708.293z"/><path d="m7.345 41.043c-.256 0-.512-.098-.707-.292-.391-.391-.391-1.023-.001-1.415l.707-.708c.391-.391 1.024-.39 1.415-.001.391.391.391 1.023.001 1.415l-.707.708c-.196.195-.452.293-.708.293z"/><path d="m33.507 9.224c-.256 0-.513-.098-.708-.293-.39-.392-.39-1.024.001-1.415l.709-.708c.391-.389 1.024-.39 1.415.001.39.392.39 1.024-.001 1.415l-.709.708c-.195.194-.451.292-.707.292z"/><path d="m34.921 10.638c-.256 0-.513-.098-.708-.293-.39-.392-.39-1.024.001-1.415l.709-.708c.391-.389 1.024-.39 1.415.001.39.392.39 1.024-.001 1.415l-.709.708c-.195.194-.451.292-.707.292z"/><path d="m36.335 12.052c-.257 0-.513-.098-.708-.294-.39-.391-.39-1.024.002-1.414l.709-.707c.391-.389 1.023-.391 1.414.002.39.391.39 1.024-.002 1.414l-.709.707c-.195.194-.45.292-.706.292z"/><path d="m6.666 21.953c-.553 0-1.005-.447-1.005-1s.442-1 .994-1h.011c.552 0 1 .447 1 1s-.448 1-1 1z"/><path d="m6.666 27.609c-.553 0-1.005-.447-1.005-1s.442-1 .994-1h.011c.552 0 1 .447 1 1s-.448 1-1 1z"/><path d="m6.666 33.267c-.553 0-1.005-.447-1.005-1s.442-1 .994-1h.011c.552 0 1 .447 1 1s-.448 1-1 1z"/><path d="m12.322 16.296c-.553 0-1.005-.447-1.005-1s.442-1 .994-1h.011c.552 0 1 .447 1 1s-.448 1-1 1z"/><path d="m12.322 21.953c-.553 0-1.005-.447-1.005-1s.442-1 .994-1h.011c.552 0 1 .447 1 1s-.448 1-1 1z"/><path d="m12.322 27.609c-.553 0-1.005-.447-1.005-1s.442-1 .994-1h.011c.552 0 1 .447 1 1s-.448 1-1 1z"/><path d="m12.322 33.267c-.553 0-1.005-.447-1.005-1s.442-1 .994-1h.011c.552 0 1 .447 1 1s-.448 1-1 1z"/><path d="m12.322 38.924c-.553 0-1.005-.447-1.005-1s.442-1 .994-1h.011c.552 0 1 .447 1 1s-.448 1-1 1z"/><path d="m17.98 10.64c-.553 0-1.005-.447-1.005-1s.442-1 .994-1h.011c.552 0 1 .447 1 1s-.448 1-1 1z"/><path d="m17.98 16.296c-.553 0-1.005-.447-1.005-1s.442-1 .994-1h.011c.552 0 1 .447 1 1s-.448 1-1 1z"/><path d="m17.98 21.953c-.553 0-1.005-.447-1.005-1s.442-1 .994-1h.011c.552 0 1 .447 1 1s-.448 1-1 1z"/><path d="m17.98 27.609c-.553 0-1.005-.447-1.005-1s.442-1 .994-1h.011c.552 0 1 .447 1 1s-.448 1-1 1z"/><path d="m17.98 33.267c-.553 0-1.005-.447-1.005-1s.442-1 .994-1h.011c.552 0 1 .447 1 1s-.448 1-1 1z"/><path d="m17.98 38.924c-.553 0-1.005-.447-1.005-1s.442-1 .994-1h.011c.552 0 1 .447 1 1s-.448 1-1 1z"/><path d="m23.637 10.64c-.553 0-1.005-.447-1.005-1s.442-1 .994-1h.011c.552 0 1 .447 1 1s-.449 1-1 1z"/><path d="m23.637 16.296c-.553 0-1.005-.447-1.005-1s.442-1 .994-1h.011c.552 0 1 .447 1 1s-.449 1-1 1z"/><path d="m23.637 21.953c-.553 0-1.005-.447-1.005-1s.442-1 .994-1h.011c.552 0 1 .447 1 1s-.449 1-1 1z"/><path d="m23.637 27.609c-.553 0-1.005-.447-1.005-1s.442-1 .994-1h.011c.552 0 1 .447 1 1s-.449 1-1 1z"/><path d="m23.637 33.267c-.553 0-1.005-.447-1.005-1s.442-1 .994-1h.011c.552 0 1 .447 1 1s-.449 1-1 1z"/><path d="m23.637 38.924c-.553 0-1.005-.447-1.005-1s.442-1 .994-1h.011c.552 0 1 .447 1 1s-.449 1-1 1z"/><path d="m29.293 10.64c-.553 0-1.005-.447-1.005-1s.442-1 .994-1h.011c.552 0 1 .447 1 1s-.448 1-1 1z"/><path d="m29.293 16.296c-.553 0-1.005-.447-1.005-1s.442-1 .994-1h.011c.552 0 1 .447 1 1s-.448 1-1 1z"/><path d="m29.293 21.953c-.553 0-1.005-.447-1.005-1s.442-1 .994-1h.011c.552 0 1 .447 1 1s-.448 1-1 1z"/><path d="m29.293 27.609c-.553 0-1.005-.447-1.005-1s.442-1 .994-1h.011c.552 0 1 .447 1 1s-.448 1-1 1z"/><path d="m29.293 33.267c-.553 0-1.005-.447-1.005-1s.442-1 .994-1h.011c.552 0 1 .447 1 1s-.448 1-1 1z"/><path d="m34.949 16.296c-.553 0-1.005-.447-1.005-1s.442-1 .994-1h.011c.552 0 1 .447 1 1s-.448 1-1 1z"/><path d="m34.949 21.953c-.553 0-1.005-.447-1.005-1s.442-1 .994-1h.011c.552 0 1 .447 1 1s-.448 1-1 1z"/><path d="m34.949 27.609c-.553 0-1.005-.447-1.005-1s.442-1 .994-1h.011c.552 0 1 .447 1 1s-.448 1-1 1z"/><path d="m47.999 51.991c-.266 0-.521-.105-.708-.294l-1.46-1.463-2.067.002h-.001c-.266 0-.52-.105-.707-.293s-.293-.442-.293-.708l.002-2.067-1.463-1.461c-.188-.188-.293-.441-.293-.707s.105-.52.293-.707l1.463-1.462-.002-2.066c0-.266.105-.521.293-.708s.441-.293.707-.293l2.068.001 1.461-1.463c.375-.375 1.039-.375 1.414 0l1.461 1.462h2.068c.266 0 .52.105.707.293s.293.442.293.708l-.002 2.065 1.465 1.463c.188.188.293.441.293.707s-.105.521-.294.708l-1.462 1.46v2.068c0 .266-.105.52-.293.707s-.442.293-.707.293h-.001l-2.065-.002-1.463 1.464c-.187.188-.441.293-.707.293zm-1.754-3.757c.266 0 .521.105.708.294l1.046 1.048 1.049-1.049c.188-.188.441-.293.707-.293h.001l1.479.001v-1.482c0-.266.105-.521.294-.708l1.047-1.045-1.05-1.049c-.188-.188-.293-.442-.293-.708l.001-1.479h-1.481c-.266 0-.52-.105-.707-.293l-1.047-1.047-1.047 1.048c-.188.188-.441.293-.707.293l-1.481-.001.001 1.48c0 .266-.105.521-.293.708l-1.048 1.048 1.048 1.047c.188.188.293.442.293.708l-.001 1.48z"/><path d="m48.029 37c-.553 0-1.005-.447-1.005-1s.442-1 .994-1h.011c.552 0 1 .447 1 1s-.448 1-1 1z"/><path d="m45.029 33.997c-.553 0-1.005-.447-1.005-1s.442-1 .994-1h.011c.552 0 1 .447 1 1s-.448 1-1 1z"/><path d="m51.029 33.997c-.553 0-1.005-.447-1.005-1s.442-1 .994-1h.011c.552 0 1 .447 1 1s-.448 1-1 1z"/><path d="m41.666 39.636c-.553 0-1.005-.447-1.005-1s.442-1 .994-1h.011c.552 0 1 .447 1 1s-.448 1-1 1z"/><path d="m39.029 46c-.553 0-1.005-.447-1.005-1s.442-1 .994-1h.011c.552 0 1 .447 1 1s-.448 1-1 1z"/><path d="m41.666 52.365c-.553 0-1.005-.447-1.005-1s.442-1 .994-1h.011c.552 0 1 .447 1 1s-.448 1-1 1z"/><path d="m48.031 55.001c-.553 0-1.005-.447-1.005-1s.442-1 .994-1h.011c.552 0 1 .447 1 1s-.448 1-1 1z"/><path d="m54.396 52.363c-.553 0-1.005-.447-1.005-1s.442-1 .994-1h.011c.552 0 1 .447 1 1s-.448 1-1 1z"/><path d="m57.031 45.998c-.553 0-1.005-.447-1.005-1s.442-1 .994-1h.011c.552 0 1 .447 1 1s-.448 1-1 1z"/><path d="m48.001 61.001c-4.273 0-8.293-1.664-11.316-4.687-6.237-6.237-6.237-16.388 0-22.628 3.022-3.021 7.041-4.686 11.315-4.686s8.293 1.663 11.313 4.685c3.022 3.022 4.688 7.04 4.688 11.314s-1.665 8.293-4.688 11.314c-3.021 3.024-7.039 4.688-11.312 4.688zm-.001-30c-3.74 0-7.257 1.456-9.901 4.1-5.457 5.46-5.457 14.343 0 19.8 2.646 2.645 6.162 4.101 9.902 4.101 3.739 0 7.254-1.456 9.898-4.101s4.102-6.16 4.102-9.9c0-3.739-1.457-7.256-4.102-9.9-2.643-2.645-6.159-4.1-9.899-4.1z"/><path d="m36.027 49.002c-.553 0-1.005-.447-1.005-1s.442-1 .994-1h.011c.552 0 1 .447 1 1s-.448 1-1 1z"/><path d="m36.027 43.002c-.553 0-1.005-.447-1.005-1s.442-1 .994-1h.011c.552 0 1 .447 1 1s-.448 1-1 1z"/><path d="m51.031 58.005c-.553 0-1.005-.447-1.005-1s.442-1 .994-1h.011c.552 0 1 .447 1 1s-.448 1-1 1z"/><path d="m45.031 58.005c-.553 0-1.005-.447-1.005-1s.442-1 .994-1h.011c.552 0 1 .447 1 1s-.448 1-1 1z"/><path d="m60.035 43c-.553 0-1.005-.447-1.005-1s.442-1 .994-1h.011c.552 0 1 .447 1 1s-.448 1-1 1z"/><path d="m60.035 49c-.553 0-1.005-.447-1.005-1s.442-1 .994-1h.011c.552 0 1 .447 1 1s-.448 1-1 1z"/><path d="m54.393 39.634c-.553 0-1.005-.447-1.005-1s.442-1 .994-1h.011c.552 0 1 .447 1 1s-.449 1-1 1z"/></svg>