<svg id="icons" enable-background="new 0 0 64 64" height="512" viewBox="0 0 64 64" width="512" xmlns="http://www.w3.org/2000/svg"><path d="m20 3v1.12c-.66-.08-1.32-.12-2-.12-.681 0-1.34.04-2 .12v-1.12c0-1.1.899-2 2-2 1.109 0 2 .9 2 2z" fill="#e9573f"/><path d="m46 46h-14c0-3.86 1.569-7.36 4.1-9.9z" fill="#dd4a36"/><path d="m63 46c0 9.39-7.61 17-17 17-9.391 0-17-7.61-17-17s7.609-17 17-17c9.39 0 17 7.61 17 17zm-3 0c0-3.86-1.57-7.36-4.101-9.9-2.529-2.53-6.029-4.1-9.899-4.1s-7.37 1.57-9.9 4.1c-2.53 2.54-4.1 6.04-4.1 9.9s1.569 7.36 4.1 9.9c2.53 2.53 6.03 4.1 9.9 4.1s7.37-1.57 9.899-4.1c2.531-2.54 4.101-6.04 4.101-9.9z" fill="#fc6e51"/><path d="m60 46c0 3.86-1.57 7.36-4.101 9.9l-9.899-9.9z" fill="#dd4a36"/><g fill="#e9573f"><path d="m46 32v14l-9.9-9.9c2.53-2.53 6.03-4.1 9.9-4.1z"/><path d="m60 46h-14l9.899-9.9c2.531 2.54 4.101 6.04 4.101 9.9z"/><path d="m46 46 9.899 9.9c-2.529 2.53-6.029 4.1-9.899 4.1z"/><path d="m46 46-9.9 9.9c-2.53-2.54-4.1-6.04-4.1-9.9z"/></g><path d="m46 46v14c-3.87 0-7.37-1.57-9.9-4.1z" fill="#dd4a36"/><path d="m55.899 36.1-9.899 9.9v-14c3.87 0 7.37 1.57 9.899 4.1z" fill="#dd4a36"/><path d="m20 4.12c8.45.99 15 8.17 15 16.88 0 9.39-7.61 17-17 17-9.391 0-17-7.61-17-17 0-8.71 6.55-15.89 15-16.88.66-.08 1.319-.12 2-.12.68 0 1.34.04 2 .12z" fill="#fc6e51"/><path d="m18 39.004c-9.925 0-18-8.075-18-18s8.075-18 18-18 18 8.075 18 18-8.075 18-18 18zm0-34c-8.822 0-16 7.178-16 16s7.178 16 16 16 16-7.178 16-16-7.178-16-16-16z"/><path d="m46 64c-9.925 0-18-8.075-18-18s8.075-18 18-18 18 8.075 18 18-8.075 18-18 18zm0-34c-8.822 0-16 7.178-16 16s7.178 16 16 16 16-7.178 16-16-7.178-16-16-16z"/><path d="m46 61c-8.271 0-15-6.729-15-15s6.729-15 15-15 15 6.729 15 15-6.729 15-15 15zm0-28c-7.168 0-13 5.832-13 13s5.832 13 13 13 13-5.832 13-13-5.832-13-13-13z"/><path d="m20 4c-.553 0-1-.447-1-1 0-.552-.448-1-1-1s-1 .448-1 1c0 .553-.447 1-1 1s-1-.447-1-1c0-1.654 1.346-3 3-3s3 1.346 3 3c0 .553-.447 1-1 1z"/><path d="m20 5.121c-.553 0-1-.447-1-1v-1.121c0-.553.447-1 1-1s1 .447 1 1v1.121c0 .553-.447 1-1 1z"/><path d="m16 5.121c-.553 0-1-.447-1-1v-1.121c0-.553.447-1 1-1s1 .447 1 1v1.121c0 .553-.447 1-1 1z"/><path d="m24.029 30.01c-.553 0-1.005-.447-1.005-1s.442-1 .994-1h.011c.552 0 1 .447 1 1s-.448 1-1 1z"/><path d="m26.028 33.01c-.553 0-1.005-.447-1.005-1s.442-1 .994-1h.011c.552 0 1 .447 1 1s-.448 1-1 1z"/><path d="m22.029 33.01c-.553 0-1.005-.447-1.005-1s.442-1 .994-1h.011c.552 0 1 .447 1 1s-.448 1-1 1z"/><path d="m46 61c-.553 0-1-.447-1-1v-28c0-.553.447-1 1-1s1 .447 1 1v28c0 .553-.447 1-1 1z"/><path d="m55.899 56.9c-.256 0-.512-.098-.707-.293l-19.798-19.8c-.391-.391-.391-1.023 0-1.414s1.023-.391 1.414 0l19.799 19.801c.391.391.391 1.023 0 1.414-.196.195-.452.292-.708.292z"/><path d="m60.001 47h-28c-.553 0-1-.447-1-1s.447-1 1-1h28c.553 0 1 .447 1 1s-.447 1-1 1z"/><path d="m36.101 56.898c-.256 0-.512-.098-.707-.293-.391-.391-.391-1.023 0-1.414l19.801-19.797c.391-.391 1.023-.391 1.414 0s.391 1.023 0 1.414l-19.801 19.797c-.196.196-.452.293-.707.293z"/></svg>