<svg id="icons" enable-background="new 0 0 64 64" height="512" viewBox="0 0 64 64" width="512" xmlns="http://www.w3.org/2000/svg"><path d="m32.955 15.36c-.32-2.46-2.42-4.351-4.96-4.351s-4.64 1.891-4.96 4.351c-1.59 12.531-11.04 18.64-11.04 31.64 0 8.84 7.16 16 16 16s16-7.16 16-16c0-13-9.45-19.109-11.04-31.64z" fill="#ffd2a6"/><path d="m32.995 6.01v-.01c0-2.76 2.24-5 5-5s14.01 2.24 14.01 5c0 2.771-11.25 5-14.01 5s-4.99-2.22-5-4.99z" fill="#a0d468"/><path d="m27.995 35c4.42 0 8 7.59 8 12 0 4.42-3.58 8-8 8-4.41 0-8-3.58-8-8 0-4.41 3.59-12 8-12z" fill="#965353"/><path d="m27.995 35c-.514 0-1.014.111-1.5.301 3.7 1.432 6.497 7.802 6.497 11.699 0 3.905-2.797 7.15-6.497 7.854.486.093.986.146 1.5.146 4.42 0 8-3.58 8-8 0-4.41-3.58-12-8-12z" fill="#844747"/><path d="m32.955 15.36c-.32-2.46-2.42-4.351-4.96-4.351-.521 0-1.012.104-1.482.254 1.814.581 3.187 2.152 3.439 4.097 1.59 12.531 11.04 18.64 11.04 31.64 0 8.312-6.331 15.135-14.436 15.921.475.046.953.079 1.439.079 8.84 0 16-7.16 16-16 0-13-9.45-19.109-11.04-31.64z" fill="#f7c292"/><path d="m27.996 64c-9.374 0-17-7.626-17-17 0-.553.447-1 1-1s1 .447 1 1c0 8.271 6.729 15 15 15s15-6.729 15-15c0-.553.447-1 1-1s1 .447 1 1c0 9.374-7.626 17-17 17z"/><path d="m32.954 16.355c-.495 0-.926-.367-.99-.871-.258-1.984-1.963-3.48-3.968-3.48-.553 0-1-.447-1-1s.447-1 1-1c3.006 0 5.564 2.245 5.95 5.223.071.548-.314 1.05-.862 1.12-.044.006-.087.008-.13.008z"/><path d="m43.996 48c-.553 0-1-.447-1-1 0-6.734-2.614-11.521-5.383-16.587-2.404-4.4-4.891-8.951-5.651-14.931-.069-.548.318-1.048.866-1.118.551-.059 1.049.318 1.118.866.713 5.604 3.107 9.986 5.422 14.224 2.767 5.064 5.628 10.301 5.628 17.546 0 .553-.447 1-1 1z"/><path d="m23.038 16.355c-.043 0-.086-.003-.13-.009-.548-.07-.934-.572-.862-1.12.386-2.978 2.944-5.223 5.95-5.223.553 0 1 .447 1 1s-.447 1-1 1c-2.005 0-3.71 1.496-3.968 3.48-.064.505-.495.872-.99.872z"/><path d="m11.996 48c-.553 0-1-.447-1-1 0-7.245 2.861-12.481 5.628-17.546 2.314-4.237 4.709-8.62 5.422-14.224.07-.548.572-.923 1.118-.866.548.07.936.57.866 1.118-.761 5.979-3.247 10.53-5.651 14.931-2.769 5.066-5.383 9.853-5.383 16.587 0 .553-.447 1-1 1z"/><path d="m27.996 55.999c-4.963 0-9-4.037-9-9 0-4.567 3.712-13.004 9-13.004s9 8.437 9 13.004c0 4.963-4.037 9-9 9zm0-20.004c-3.609 0-7 6.864-7 11.004 0 3.859 3.141 7 7 7s7-3.141 7-7c0-4.14-3.391-11.004-7-11.004z"/><path d="m27.996 12.004c-.553 0-1-.447-1-1v-10.004c0-.553.447-1 1-1s1 .447 1 1v10.004c0 .553-.447 1-1 1z"/><path d="m37.995 12.001c-3.309 0-6-2.691-6-6s2.691-6 6-6c1.739 0 15.009 1.923 15.009 6s-13.27 6-15.009 6zm0-10c-2.206 0-4 1.794-4 4s1.794 4 4 4c3.888 0 13.009-2.583 13.009-4s-9.121-4-13.009-4z"/><path d="m42.996 7.002h-15c-.553 0-1-.447-1-1s.447-1 1-1h15c.553 0 1 .447 1 1s-.447 1-1 1z"/></svg>