<svg id="icons" enable-background="new 0 0 64 64" height="512" viewBox="0 0 64 64" width="512" xmlns="http://www.w3.org/2000/svg"><path d="m41.43 5.63c-2.95-1.06-6.12-1.63-9.43-1.63-15.46 0-28 12.54-28 28 0 2.83.42 5.56 1.21 8.14 3.48 11.49 14.16 19.86 26.79 19.86s23.31-8.37 26.79-19.86c.79-2.58 1.21-5.31 1.21-8.14 0-12.15-7.75-22.5-18.57-26.37z" fill="#ccd1d9"/><path d="m21 26c0 1.66-1.34 3-3 3s-3-1.34-3-3v-1-1c0-1.66 1.34-3 3-3s3 1.34 3 3v1z" fill="#844747"/><path d="m56 31v2c0 1.66-1.34 3-3 3s-3-1.34-3-3v-1-1c0-1.66 1.34-3 3-3s3 1.34 3 3z" fill="#844747"/><path d="m54 22c1.66 0 3 1.34 3 3s-1.34 3-3 3h-1-1c-1.66 0-3-1.34-3-3s1.34-3 3-3z" fill="#965353"/><path d="m54 36c1.66 0 3 1.34 3 3 0 .21-.02.41-.06.61-.28 1.36-1.49 2.39-2.94 2.39h-2c-1.66 0-3-1.34-3-3s1.34-3 3-3h1z" fill="#965353"/><path d="m49 39v1c0 1.66-1.34 3-3 3s-3-1.34-3-3v-1-1c0-1.66 1.34-3 3-3s3 1.34 3 3z" fill="#844747"/><path d="m49 25v1c0 1.66-1.34 3-3 3s-3-1.34-3-3v-1-1c0-1.66 1.34-3 3-3s3 1.34 3 3z" fill="#844747"/><path d="m47 15c1.66 0 3 1.35 3 3 0 1.66-1.34 3-3 3h-1-1c-1.66 0-3-1.34-3-3 0-1.65 1.34-3 3-3z" fill="#965353"/><path d="m47 29c1.66 0 3 1.35 3 3 0 1.66-1.34 3-3 3h-1-1c-1.66 0-3-1.34-3-3 0-1.65 1.34-3 3-3h1z" fill="#965353"/><path d="m42 46c0-1.66 1.34-3 3-3h1 1c1.66 0 3 1.34 3 3 0 1.65-1.34 3-3 3h-2c-1.66 0-3-1.35-3-3z" fill="#965353"/><path d="m42 46v1c0 1.66-1.34 3-3 3s-3-1.34-3-3v-1-1c0-1.66 1.34-3 3-3s3 1.34 3 3z" fill="#844747"/><path d="m42 32v1c0 1.66-1.34 3-3 3s-3-1.34-3-3v-1-1c0-1.66 1.34-3 3-3s3 1.34 3 3z" fill="#844747"/><path d="m42 18v1c0 1.66-1.34 3-3 3s-3-1.34-3-3v-1-1c0-1.66 1.34-3 3-3s3 1.34 3 3z" fill="#844747"/><g fill="#965353"><path d="m40 8c.21 0 .41.02.61.06 1.36.28 2.39 1.5 2.39 2.94 0 1.66-1.34 3-3 3h-1-1c-1.66 0-3-1.34-3-3 0-1.65 1.34-3 3-3z"/><path d="m40 22c1.66 0 3 1.34 3 3s-1.34 3-3 3h-1-1c-1.66 0-3-1.34-3-3s1.34-3 3-3h1z"/><path d="m40 36c1.66 0 3 1.34 3 3s-1.34 3-3 3h-1-1c-1.66 0-3-1.34-3-3s1.34-3 3-3h1z"/><path d="m40 50c1.66 0 3 1.34 3 3 0 1.65-1.34 3-3 3h-2c-1.66 0-3-1.35-3-3 0-1.66 1.34-3 3-3h1z"/><path d="m12 36c1.66 0 3 1.34 3 3s-1.34 3-3 3h-2c-1.45 0-2.66-1.03-2.94-2.39-.04-.2-.06-.4-.06-.61 0-1.66 1.34-3 3-3h1z"/><path d="m12 22c1.66 0 3 1.34 3 3s-1.34 3-3 3h-1-1c-1.66 0-3-1.34-3-3s1.34-3 3-3z"/></g><path d="m14 32v1c0 1.66-1.34 3-3 3s-3-1.34-3-3v-2c0-1.66 1.34-3 3-3s3 1.34 3 3z" fill="#844747"/><path d="m19 43c1.66 0 3 1.34 3 3 0 1.65-1.34 3-3 3h-2c-1.66 0-3-1.35-3-3 0-1.66 1.34-3 3-3h1z" fill="#965353"/><path d="m19 15c1.66 0 3 1.35 3 3 0 1.66-1.34 3-3 3h-1-1c-1.66 0-3-1.34-3-3 0-1.65 1.34-3 3-3z" fill="#965353"/><path d="m21 40c0 1.66-1.34 3-3 3s-3-1.34-3-3v-1-1c0-1.66 1.34-3 3-3s3 1.34 3 3v1z" fill="#844747"/><path d="m18 29h1c1.66 0 3 1.35 3 3 0 1.66-1.34 3-3 3h-1-1c-1.66 0-3-1.34-3-3 0-1.65 1.34-3 3-3z" fill="#965353"/><path d="m21 39c0-1.66 1.35-3 3-3h1 1c1.66 0 3 1.34 3 3s-1.34 3-3 3h-1-1c-1.65 0-3-1.34-3-3z" fill="#965353"/><path d="m28 19c0 1.66-1.34 3-3 3s-3-1.34-3-3v-1-1c0-1.66 1.34-3 3-3s3 1.34 3 3v1z" fill="#844747"/><path d="m28 33c0 1.66-1.34 3-3 3s-3-1.34-3-3v-1-1c0-1.66 1.34-3 3-3s3 1.34 3 3v1z" fill="#844747"/><path d="m28 47c0 1.66-1.34 3-3 3s-3-1.34-3-3v-1-1c0-1.66 1.34-3 3-3s3 1.34 3 3v1z" fill="#844747"/><path d="m28 46c0-1.66 1.34-3 3-3h1 1c1.66 0 3 1.34 3 3 0 1.65-1.34 3-3 3h-1-1c-1.66 0-3-1.35-3-3z" fill="#965353"/><path d="m28 18c0-1.65 1.34-3 3-3h1 1c1.66 0 3 1.35 3 3 0 1.66-1.34 3-3 3h-1-1c-1.66 0-3-1.34-3-3z" fill="#965353"/><path d="m35 11v1c0 1.66-1.34 3-3 3s-3-1.34-3-3v-1-1c0-1.65 1.34-3 3-3s3 1.35 3 3z" fill="#844747"/><path d="m35 25v1c0 1.66-1.34 3-3 3s-3-1.34-3-3v-1-1c0-1.66 1.34-3 3-3s3 1.34 3 3z" fill="#844747"/><path d="m35 39v1c0 1.66-1.34 3-3 3s-3-1.34-3-3v-1-1c0-1.66 1.34-3 3-3s3 1.34 3 3z" fill="#844747"/><path d="m35 54c0 1.65-1.34 3-3 3s-3-1.35-3-3v-1-1c0-1.66 1.34-3 3-3s3 1.34 3 3v1z" fill="#844747"/><path d="m21 53c0-1.66 1.35-3 3-3h1 1c1.66 0 3 1.34 3 3 0 1.65-1.34 3-3 3h-2c-1.65 0-3-1.35-3-3z" fill="#965353"/><path d="m21 25c0-1.66 1.35-3 3-3h1 1c1.66 0 3 1.34 3 3s-1.34 3-3 3h-1-1c-1.65 0-3-1.34-3-3z" fill="#965353"/><path d="m24 8h2c1.66 0 3 1.35 3 3 0 1.66-1.34 3-3 3h-1-1c-1.65 0-3-1.34-3-3 0-1.65 1.35-3 3-3z" fill="#965353"/><path d="m28 32c0-1.65 1.34-3 3-3h1 1c1.66 0 3 1.35 3 3 0 1.66-1.34 3-3 3h-1-1c-1.66 0-3-1.34-3-3z" fill="#965353"/><path d="m5.21 40.14c3.48 11.49 14.16 19.86 26.79 19.86s23.31-8.37 26.79-19.86c.79-2.58 1.21-5.31 1.21-8.14 0-12.15-7.75-22.5-18.57-26.37-2.95-1.06-6.12-1.63-9.43-1.63-15.46 0-28 12.54-28 28 0 2.83.42 5.56 1.21 8.14zm-4.21-8.14c0-17.12 13.88-31 31-31s31 13.88 31 31-13.88 31-31 31-31-13.88-31-31z" fill="#e6e9ed"/><path d="m32 64c-17.645 0-32-14.355-32-32s14.355-32 32-32 32 14.355 32 32-14.355 32-32 32zm0-62c-16.542 0-30 13.458-30 30s13.458 30 30 30 30-13.458 30-30-13.458-30-30-30z"/><path d="m32 61c-15.99 0-29-13.01-29-29 0-15.991 13.01-29 29-29s29 13.009 29 29c0 15.99-13.01 29-29 29zm0-56c-14.888 0-27 12.112-27 27s12.112 27 27 27 27-12.112 27-27-12.112-27-27-27z"/><path d="m35 11.004c-.553 0-1-.448-1-1 0-1.103-.897-2-2-2s-2 .897-2 2c0 .552-.447 1-1 1s-1-.448-1-1c0-2.206 1.794-4 4-4s4 1.794 4 4c0 .552-.447 1-1 1z"/><path d="m32 16.004c-2.206 0-4-1.794-4-4 0-.552.447-1 1-1s1 .448 1 1c0 1.103.897 2 2 2s2-.897 2-2c0-.552.447-1 1-1s1 .448 1 1c0 2.205-1.794 4-4 4z"/><path d="m29 13.004c-.553 0-1-.448-1-1v-2c0-.552.447-1 1-1s1 .448 1 1v2c0 .552-.447 1-1 1z"/><path d="m35 13.004c-.553 0-1-.448-1-1v-2c0-.552.447-1 1-1s1 .448 1 1v2c0 .552-.447 1-1 1z"/><path d="m42 18c-.553 0-1-.448-1-1 0-1.103-.897-2-2-2s-2 .897-2 2c0 .552-.447 1-1 1s-1-.448-1-1c0-2.206 1.794-4 4-4s4 1.794 4 4c0 .552-.447 1-1 1z"/><path d="m39 23c-2.206 0-4-1.794-4-4 0-.552.447-1 1-1s1 .448 1 1c0 1.103.897 2 2 2s2-.897 2-2c0-.552.447-1 1-1s1 .448 1 1c0 2.206-1.794 4-4 4z"/><path d="m36 20c-.553 0-1-.448-1-1v-2c0-.552.447-1 1-1s1 .448 1 1v2c0 .552-.447 1-1 1z"/><path d="m42 20c-.553 0-1-.448-1-1v-2c0-.552.447-1 1-1s1 .448 1 1v2c0 .552-.447 1-1 1z"/><path d="m28 18c-.553 0-1-.448-1-1 0-1.103-.897-2-2-2s-2 .897-2 2c0 .552-.447 1-1 1s-1-.448-1-1c0-2.206 1.794-4 4-4s4 1.794 4 4c0 .552-.447 1-1 1z"/><path d="m25 23c-2.206 0-4-1.794-4-4 0-.552.447-1 1-1s1 .448 1 1c0 1.103.897 2 2 2s2-.897 2-2c0-.552.447-1 1-1s1 .448 1 1c0 2.206-1.794 4-4 4z"/><path d="m22 20c-.553 0-1-.448-1-1v-2c0-.552.447-1 1-1s1 .448 1 1v2c0 .552-.447 1-1 1z"/><path d="m28 20c-.553 0-1-.448-1-1v-2c0-.552.447-1 1-1s1 .448 1 1v2c0 .552-.447 1-1 1z"/><path d="m39.999 15.004c-.553 0-1-.448-1-1s.447-1 1-1c1.103 0 2-.897 2-2s-.897-2-2-2c-.553 0-1-.448-1-1s.447-1 1-1c2.206 0 4 1.794 4 4s-1.794 4-4 4z"/><path d="m37.999 15.004c-2.206 0-4-1.794-4-4s1.794-4 4-4c.553 0 1 .448 1 1s-.447 1-1 1c-1.103 0-2 .897-2 2s.897 2 2 2c.553 0 1 .448 1 1s-.447 1-1 1z"/><path d="m39.999 9.004h-2c-.553 0-1-.448-1-1s.447-1 1-1h2c.553 0 1 .448 1 1s-.447 1-1 1z"/><path d="m39.999 15.004h-2c-.553 0-1-.448-1-1s.447-1 1-1h2c.553 0 1 .448 1 1s-.447 1-1 1z"/><path d="m33 22.004c-.553 0-1-.448-1-1s.447-1 1-1c1.103 0 2-.897 2-2s-.897-2-2-2c-.553 0-1-.448-1-1s.447-1 1-1c2.206 0 4 1.794 4 4s-1.794 4-4 4z"/><path d="m31 22.004c-2.206 0-4-1.794-4-4s1.794-4 4-4c.553 0 1 .448 1 1s-.447 1-1 1c-1.103 0-2 .897-2 2s.897 2 2 2c.553 0 1 .448 1 1s-.447 1-1 1z"/><path d="m33 16.004h-2c-.553 0-1-.448-1-1s.447-1 1-1h2c.553 0 1 .448 1 1s-.447 1-1 1z"/><path d="m33 22.004h-2c-.553 0-1-.448-1-1s.447-1 1-1h2c.553 0 1 .448 1 1s-.447 1-1 1z"/><path d="m19 22.004c-.553 0-1-.448-1-1s.447-1 1-1c1.103 0 2-.897 2-2s-.897-2-2-2c-.553 0-1-.448-1-1s.447-1 1-1c2.206 0 4 1.794 4 4s-1.794 4-4 4z"/><path d="m17 22.004c-2.206 0-4-1.794-4-4s1.794-4 4-4c.553 0 1 .448 1 1s-.447 1-1 1c-1.103 0-2 .897-2 2s.897 2 2 2c.553 0 1 .448 1 1s-.447 1-1 1z"/><path d="m19 16.004h-2c-.553 0-1-.448-1-1s.447-1 1-1h2c.553 0 1 .448 1 1s-.447 1-1 1z"/><path d="m19 22.004h-2c-.553 0-1-.448-1-1s.447-1 1-1h2c.553 0 1 .448 1 1s-.447 1-1 1z"/><path d="m47 22.004c-.553 0-1-.448-1-1s.447-1 1-1c1.103 0 2-.897 2-2s-.897-2-2-2c-.553 0-1-.448-1-1s.447-1 1-1c2.206 0 4 1.794 4 4s-1.794 4-4 4z"/><path d="m45 22.004c-2.206 0-4-1.794-4-4s1.794-4 4-4c.553 0 1 .448 1 1s-.447 1-1 1c-1.103 0-2 .897-2 2s.897 2 2 2c.553 0 1 .448 1 1s-.447 1-1 1z"/><path d="m47 16.004h-2c-.553 0-1-.448-1-1s.447-1 1-1h2c.553 0 1 .448 1 1s-.447 1-1 1z"/><path d="m47 22.004h-2c-.553 0-1-.448-1-1s.447-1 1-1h2c.553 0 1 .448 1 1s-.447 1-1 1z"/><path d="m42 32.001c-.553 0-1-.448-1-1 0-1.103-.897-2-2-2s-2 .897-2 2c0 .552-.447 1-1 1s-1-.448-1-1c0-2.206 1.794-4 4-4s4 1.794 4 4c0 .552-.447 1-1 1z"/><path d="m39 37.001c-2.206 0-4-1.794-4-4 0-.552.447-1 1-1s1 .448 1 1c0 1.103.897 2 2 2s2-.897 2-2c0-.552.447-1 1-1s1 .448 1 1c0 2.206-1.794 4-4 4z"/><path d="m36 34.001c-.553 0-1-.447-1-1v-2c0-.552.447-1 1-1s1 .448 1 1v2c0 .553-.447 1-1 1z"/><path d="m42 34.001c-.553 0-1-.447-1-1v-2c0-.552.447-1 1-1s1 .448 1 1v2c0 .553-.447 1-1 1z"/><path d="m56 32.001c-.553 0-1-.448-1-1 0-1.103-.897-2-2-2s-2 .897-2 2c0 .552-.447 1-1 1s-1-.448-1-1c0-2.206 1.794-4 4-4s4 1.794 4 4c0 .552-.447 1-1 1z"/><path d="m53 37.001c-2.206 0-4-1.794-4-4 0-.552.447-1 1-1s1 .448 1 1c0 1.103.897 2 2 2s2-.897 2-2c0-.552.447-1 1-1s1 .448 1 1c0 2.206-1.794 4-4 4z"/><path d="m50 34.001c-.553 0-1-.447-1-1v-2c0-.552.447-1 1-1s1 .448 1 1v2c0 .553-.447 1-1 1z"/><path d="m56 34.001c-.553 0-1-.447-1-1v-2c0-.552.447-1 1-1s1 .448 1 1v2c0 .553-.447 1-1 1z"/><path d="m14 32.001c-.553 0-1-.448-1-1 0-1.103-.897-2-2-2s-2 .897-2 2c0 .552-.447 1-1 1s-1-.448-1-1c0-2.206 1.794-4 4-4s4 1.794 4 4c0 .552-.447 1-1 1z"/><path d="m11 37.001c-2.206 0-4-1.794-4-4 0-.552.447-1 1-1s1 .448 1 1c0 1.103.897 2 2 2s2-.897 2-2c0-.552.447-1 1-1s1 .448 1 1c0 2.206-1.794 4-4 4z"/><path d="m8 34.001c-.553 0-1-.447-1-1v-2c0-.552.447-1 1-1s1 .448 1 1v2c0 .553-.447 1-1 1z"/><path d="m14 34.001c-.553 0-1-.447-1-1v-2c0-.552.447-1 1-1s1 .448 1 1v2c0 .553-.447 1-1 1z"/><path d="m28 32.001c-.553 0-1-.448-1-1 0-1.103-.897-2-2-2s-2 .897-2 2c0 .552-.447 1-1 1s-1-.448-1-1c0-2.206 1.794-4 4-4s4 1.794 4 4c0 .552-.447 1-1 1z"/><path d="m25 37.001c-2.206 0-4-1.794-4-4 0-.552.447-1 1-1s1 .448 1 1c0 1.103.897 2 2 2s2-.897 2-2c0-.552.447-1 1-1s1 .448 1 1c0 2.206-1.794 4-4 4z"/><path d="m22 34.001c-.553 0-1-.447-1-1v-2c0-.552.447-1 1-1s1 .448 1 1v2c0 .553-.447 1-1 1z"/><path d="m28 34.001c-.553 0-1-.447-1-1v-2c0-.552.447-1 1-1s1 .448 1 1v2c0 .553-.447 1-1 1z"/><path d="m33 36.005c-.553 0-1-.447-1-1s.447-1 1-1c1.103 0 2-.897 2-2s-.897-2-2-2c-.553 0-1-.448-1-1s.447-1 1-1c2.206 0 4 1.794 4 4s-1.794 4-4 4z"/><path d="m31 36.005c-2.206 0-4-1.794-4-4s1.794-4 4-4c.553 0 1 .448 1 1s-.447 1-1 1c-1.103 0-2 .897-2 2s.897 2 2 2c.553 0 1 .447 1 1s-.447 1-1 1z"/><path d="m33 30.005h-2c-.553 0-1-.448-1-1s.447-1 1-1h2c.553 0 1 .448 1 1s-.447 1-1 1z"/><path d="m33 36.005h-2c-.553 0-1-.447-1-1s.447-1 1-1h2c.553 0 1 .447 1 1s-.447 1-1 1z"/><path d="m19 36.005c-.553 0-1-.447-1-1s.447-1 1-1c1.103 0 2-.897 2-2s-.897-2-2-2c-.553 0-1-.448-1-1s.447-1 1-1c2.206 0 4 1.794 4 4s-1.794 4-4 4z"/><path d="m17 36.005c-2.206 0-4-1.794-4-4s1.794-4 4-4c.553 0 1 .448 1 1s-.447 1-1 1c-1.103 0-2 .897-2 2s.897 2 2 2c.553 0 1 .447 1 1s-.447 1-1 1z"/><path d="m19 30.005h-2c-.553 0-1-.448-1-1s.447-1 1-1h2c.553 0 1 .448 1 1s-.447 1-1 1z"/><path d="m19 36.005h-2c-.553 0-1-.447-1-1s.447-1 1-1h2c.553 0 1 .447 1 1s-.447 1-1 1z"/><path d="m47 36.005c-.553 0-1-.447-1-1s.447-1 1-1c1.103 0 2-.897 2-2s-.897-2-2-2c-.553 0-1-.448-1-1s.447-1 1-1c2.206 0 4 1.794 4 4s-1.794 4-4 4z"/><path d="m45 36.005c-2.206 0-4-1.794-4-4s1.794-4 4-4c.553 0 1 .448 1 1s-.447 1-1 1c-1.103 0-2 .897-2 2s.897 2 2 2c.553 0 1 .447 1 1s-.447 1-1 1z"/><path d="m47 30.005h-2c-.553 0-1-.448-1-1s.447-1 1-1h2c.553 0 1 .448 1 1s-.447 1-1 1z"/><path d="m47 36.005h-2c-.553 0-1-.447-1-1s.447-1 1-1h2c.553 0 1 .447 1 1s-.447 1-1 1z"/><path d="m26.002 15.004c-.553 0-1-.448-1-1s.447-1 1-1c1.103 0 2-.897 2-2s-.897-2-2-2c-.553 0-1-.448-1-1s.447-1 1-1c2.206 0 4 1.794 4 4s-1.794 4-4 4z"/><path d="m24.002 15.004c-2.206 0-4-1.794-4-4s1.794-4 4-4c.553 0 1 .448 1 1s-.447 1-1 1c-1.103 0-2 .897-2 2s.897 2 2 2c.553 0 1 .448 1 1s-.447 1-1 1z"/><path d="m26.002 9.004h-2c-.553 0-1-.448-1-1s.447-1 1-1h2c.553 0 1 .448 1 1s-.447 1-1 1z"/><path d="m26.002 15.004h-2c-.553 0-1-.448-1-1s.447-1 1-1h2c.553 0 1 .448 1 1s-.447 1-1 1z"/><path d="m32.001 57.996c-2.206 0-4-1.794-4-4 0-.553.447-1 1-1s1 .447 1 1c0 1.103.897 2 2 2s2-.897 2-2c0-.553.447-1 1-1s1 .447 1 1c0 2.206-1.794 4-4 4z"/><path d="m35.001 52.996c-.553 0-1-.447-1-1 0-1.103-.897-2-2-2s-2 .897-2 2c0 .553-.447 1-1 1s-1-.447-1-1c0-2.206 1.794-4 4-4s4 1.794 4 4c0 .553-.447 1-1 1z"/><path d="m35.001 54.996c-.553 0-1-.447-1-1v-2c0-.553.447-1 1-1s1 .447 1 1v2c0 .553-.447 1-1 1z"/><path d="m29.001 54.996c-.553 0-1-.447-1-1v-2c0-.553.447-1 1-1s1 .447 1 1v2c0 .553-.447 1-1 1z"/><path d="m25.001 51c-2.206 0-4-1.794-4-4 0-.553.447-1 1-1s1 .447 1 1c0 1.103.897 2 2 2s2-.897 2-2c0-.553.447-1 1-1s1 .447 1 1c0 2.206-1.794 4-4 4z"/><path d="m28.001 46c-.553 0-1-.447-1-1 0-1.103-.897-2-2-2s-2 .897-2 2c0 .553-.447 1-1 1s-1-.447-1-1c0-2.206 1.794-4 4-4s4 1.794 4 4c0 .553-.447 1-1 1z"/><path d="m28.001 48c-.553 0-1-.447-1-1v-2c0-.553.447-1 1-1s1 .447 1 1v2c0 .553-.447 1-1 1z"/><path d="m22.001 48c-.553 0-1-.447-1-1v-2c0-.553.447-1 1-1s1 .447 1 1v2c0 .553-.447 1-1 1z"/><path d="m39.001 51c-2.206 0-4-1.794-4-4 0-.553.447-1 1-1s1 .447 1 1c0 1.103.897 2 2 2s2-.897 2-2c0-.553.447-1 1-1s1 .447 1 1c0 2.206-1.794 4-4 4z"/><path d="m42.001 46c-.553 0-1-.447-1-1 0-1.103-.897-2-2-2s-2 .897-2 2c0 .553-.447 1-1 1s-1-.447-1-1c0-2.206 1.794-4 4-4s4 1.794 4 4c0 .553-.447 1-1 1z"/><path d="m42.001 48c-.553 0-1-.447-1-1v-2c0-.553.447-1 1-1s1 .447 1 1v2c0 .553-.447 1-1 1z"/><path d="m36.001 48c-.553 0-1-.447-1-1v-2c0-.553.447-1 1-1s1 .447 1 1v2c0 .553-.447 1-1 1z"/><path d="m24.002 56.996c-2.206 0-4-1.794-4-4s1.794-4 4-4c.553 0 1 .447 1 1s-.447 1-1 1c-1.103 0-2 .897-2 2s.897 2 2 2c.553 0 1 .447 1 1s-.447 1-1 1z"/><path d="m26.002 56.996c-.553 0-1-.447-1-1s.447-1 1-1c1.103 0 2-.897 2-2s-.897-2-2-2c-.553 0-1-.447-1-1s.447-1 1-1c2.206 0 4 1.794 4 4s-1.794 4-4 4z"/><path d="m26.002 56.996h-2c-.553 0-1-.447-1-1s.447-1 1-1h2c.553 0 1 .447 1 1s-.447 1-1 1z"/><path d="m26.002 50.996h-2c-.553 0-1-.447-1-1s.447-1 1-1h2c.553 0 1 .447 1 1s-.447 1-1 1z"/><path d="m31.001 49.996c-2.206 0-4-1.794-4-4s1.794-4 4-4c.553 0 1 .447 1 1s-.447 1-1 1c-1.103 0-2 .897-2 2s.897 2 2 2c.553 0 1 .447 1 1s-.447 1-1 1z"/><path d="m33.001 49.996c-.553 0-1-.447-1-1s.447-1 1-1c1.103 0 2-.897 2-2s-.897-2-2-2c-.553 0-1-.447-1-1s.447-1 1-1c2.206 0 4 1.794 4 4s-1.794 4-4 4z"/><path d="m33.001 49.996h-2c-.553 0-1-.447-1-1s.447-1 1-1h2c.553 0 1 .447 1 1s-.447 1-1 1z"/><path d="m33.001 43.996h-2c-.553 0-1-.447-1-1s.447-1 1-1h2c.553 0 1 .447 1 1s-.447 1-1 1z"/><path d="m45.001 49.996c-2.206 0-4-1.794-4-4s1.794-4 4-4c.553 0 1 .447 1 1s-.447 1-1 1c-1.103 0-2 .897-2 2s.897 2 2 2c.553 0 1 .447 1 1s-.447 1-1 1z"/><path d="m47.001 49.996c-.553 0-1-.447-1-1s.447-1 1-1c1.103 0 2-.897 2-2s-.897-2-2-2c-.553 0-1-.447-1-1s.447-1 1-1c2.206 0 4 1.794 4 4s-1.794 4-4 4z"/><path d="m47.001 49.996h-2c-.553 0-1-.447-1-1s.447-1 1-1h2c.553 0 1 .447 1 1s-.447 1-1 1z"/><path d="m47.001 43.996h-2c-.553 0-1-.447-1-1s.447-1 1-1h2c.553 0 1 .447 1 1s-.447 1-1 1z"/><path d="m17.001 49.996c-2.206 0-4-1.794-4-4s1.794-4 4-4c.553 0 1 .447 1 1s-.447 1-1 1c-1.103 0-2 .897-2 2s.897 2 2 2c.553 0 1 .447 1 1s-.447 1-1 1z"/><path d="m19.001 49.996c-.553 0-1-.447-1-1s.447-1 1-1c1.103 0 2-.897 2-2s-.897-2-2-2c-.553 0-1-.447-1-1s.447-1 1-1c2.206 0 4 1.794 4 4s-1.794 4-4 4z"/><path d="m19.001 49.996h-2c-.553 0-1-.447-1-1s.447-1 1-1h2c.553 0 1 .447 1 1s-.447 1-1 1z"/><path d="m19.001 43.996h-2c-.553 0-1-.447-1-1s.447-1 1-1h2c.553 0 1 .447 1 1s-.447 1-1 1z"/><path d="m37.999 56.996c-2.206 0-4-1.794-4-4s1.794-4 4-4c.553 0 1 .447 1 1s-.447 1-1 1c-1.103 0-2 .897-2 2s.897 2 2 2c.553 0 1 .447 1 1s-.447 1-1 1z"/><path d="m39.999 56.996c-.553 0-1-.447-1-1s.447-1 1-1c1.103 0 2-.897 2-2s-.897-2-2-2c-.553 0-1-.447-1-1s.447-1 1-1c2.206 0 4 1.794 4 4s-1.794 4-4 4z"/><path d="m39.999 56.996h-2c-.553 0-1-.447-1-1s.447-1 1-1h2c.553 0 1 .447 1 1s-.447 1-1 1z"/><path d="m39.999 50.996h-2c-.553 0-1-.447-1-1s.447-1 1-1h2c.553 0 1 .447 1 1s-.447 1-1 1z"/><path d="m35 25c-.553 0-1-.448-1-1 0-1.103-.897-2-2-2s-2 .897-2 2c0 .552-.447 1-1 1s-1-.448-1-1c0-2.206 1.794-4 4-4s4 1.794 4 4c0 .552-.447 1-1 1z"/><path d="m32 30c-2.206 0-4-1.794-4-4 0-.552.447-1 1-1s1 .448 1 1c0 1.103.897 2 2 2s2-.897 2-2c0-.552.447-1 1-1s1 .448 1 1c0 2.206-1.794 4-4 4z"/><path d="m29 27c-.553 0-1-.448-1-1v-2c0-.552.447-1 1-1s1 .448 1 1v2c0 .552-.447 1-1 1z"/><path d="m35 27c-.553 0-1-.448-1-1v-2c0-.552.447-1 1-1s1 .448 1 1v2c0 .552-.447 1-1 1z"/><path d="m49 25c-.553 0-1-.448-1-1 0-1.103-.897-2-2-2s-2 .897-2 2c0 .552-.447 1-1 1s-1-.448-1-1c0-2.206 1.794-4 4-4s4 1.794 4 4c0 .552-.447 1-1 1z"/><path d="m46 30c-2.206 0-4-1.794-4-4 0-.552.447-1 1-1s1 .448 1 1c0 1.103.897 2 2 2s2-.897 2-2c0-.552.447-1 1-1s1 .448 1 1c0 2.206-1.794 4-4 4z"/><path d="m43 27c-.553 0-1-.448-1-1v-2c0-.552.447-1 1-1s1 .448 1 1v2c0 .552-.447 1-1 1z"/><path d="m49 27c-.553 0-1-.448-1-1v-2c0-.552.447-1 1-1s1 .448 1 1v2c0 .552-.447 1-1 1z"/><path d="m39.999 29c-.553 0-1-.448-1-1s.447-1 1-1c1.103 0 2-.897 2-2s-.897-2-2-2c-.553 0-1-.448-1-1s.447-1 1-1c2.206 0 4 1.794 4 4s-1.794 4-4 4z"/><path d="m37.999 29c-2.206 0-4-1.794-4-4s1.794-4 4-4c.553 0 1 .448 1 1s-.447 1-1 1c-1.103 0-2 .897-2 2s.897 2 2 2c.553 0 1 .448 1 1s-.447 1-1 1z"/><path d="m39.999 23h-2c-.553 0-1-.448-1-1s.447-1 1-1h2c.553 0 1 .448 1 1s-.447 1-1 1z"/><path d="m39.999 29h-2c-.553 0-1-.448-1-1s.447-1 1-1h2c.553 0 1 .448 1 1s-.447 1-1 1z"/><path d="m54 29c-.553 0-1-.448-1-1s.447-1 1-1c1.103 0 2-.897 2-2s-.897-2-2-2c-.553 0-1-.448-1-1s.447-1 1-1c2.206 0 4 1.794 4 4s-1.794 4-4 4z"/><path d="m52 29c-2.206 0-4-1.794-4-4s1.794-4 4-4c.553 0 1 .448 1 1s-.447 1-1 1c-1.103 0-2 .897-2 2s.897 2 2 2c.553 0 1 .448 1 1s-.447 1-1 1z"/><path d="m54 23h-2c-.553 0-1-.448-1-1s.447-1 1-1h2c.553 0 1 .448 1 1s-.447 1-1 1z"/><path d="m54 29h-2c-.553 0-1-.448-1-1s.447-1 1-1h2c.553 0 1 .448 1 1s-.447 1-1 1z"/><path d="m26.002 29c-.553 0-1-.448-1-1s.447-1 1-1c1.103 0 2-.897 2-2s-.897-2-2-2c-.553 0-1-.448-1-1s.447-1 1-1c2.206 0 4 1.794 4 4s-1.794 4-4 4z"/><path d="m24.002 29c-2.206 0-4-1.794-4-4s1.794-4 4-4c.553 0 1 .448 1 1s-.447 1-1 1c-1.103 0-2 .897-2 2s.897 2 2 2c.553 0 1 .448 1 1s-.447 1-1 1z"/><path d="m26.002 23h-2c-.553 0-1-.448-1-1s.447-1 1-1h2c.553 0 1 .448 1 1s-.447 1-1 1z"/><path d="m26.002 29h-2c-.553 0-1-.448-1-1s.447-1 1-1h2c.553 0 1 .448 1 1s-.447 1-1 1z"/><path d="m20.999 25c-.553 0-1-.448-1-1 0-1.103-.897-2-2-2s-2 .897-2 2c0 .552-.447 1-1 1s-1-.448-1-1c0-2.206 1.794-4 4-4s4 1.794 4 4c0 .552-.447 1-1 1z"/><path d="m17.999 30c-2.206 0-4-1.794-4-4 0-.552.447-1 1-1s1 .448 1 1c0 1.103.897 2 2 2s2-.897 2-2c0-.552.447-1 1-1s1 .448 1 1c0 2.206-1.794 4-4 4z"/><path d="m14.999 27c-.553 0-1-.448-1-1v-2c0-.552.447-1 1-1s1 .448 1 1v2c0 .552-.447 1-1 1z"/><path d="m20.999 27c-.553 0-1-.448-1-1v-2c0-.552.447-1 1-1s1 .448 1 1v2c0 .552-.447 1-1 1z"/><path d="m12.001 29c-.553 0-1-.448-1-1s.447-1 1-1c1.103 0 2-.897 2-2s-.897-2-2-2c-.553 0-1-.448-1-1s.447-1 1-1c2.206 0 4 1.794 4 4s-1.794 4-4 4z"/><path d="m10.001 29c-2.206 0-4-1.794-4-4s1.794-4 4-4c.553 0 1 .448 1 1s-.447 1-1 1c-1.103 0-2 .897-2 2s.897 2 2 2c.553 0 1 .448 1 1s-.447 1-1 1z"/><path d="m12.001 23h-2c-.553 0-1-.448-1-1s.447-1 1-1h2c.553 0 1 .448 1 1s-.447 1-1 1z"/><path d="m12.001 29h-2c-.553 0-1-.448-1-1s.447-1 1-1h2c.553 0 1 .448 1 1s-.447 1-1 1z"/><path d="m35 39c-.553 0-1-.447-1-1 0-1.103-.897-2-2-2s-2 .897-2 2c0 .553-.447 1-1 1s-1-.447-1-1c0-2.206 1.794-4 4-4s4 1.794 4 4c0 .553-.447 1-1 1z"/><path d="m32 44c-2.206 0-4-1.794-4-4 0-.553.447-1 1-1s1 .447 1 1c0 1.103.897 2 2 2s2-.897 2-2c0-.553.447-1 1-1s1 .447 1 1c0 2.206-1.794 4-4 4z"/><path d="m29 41c-.553 0-1-.447-1-1v-2c0-.553.447-1 1-1s1 .447 1 1v2c0 .553-.447 1-1 1z"/><path d="m35 41c-.553 0-1-.447-1-1v-2c0-.553.447-1 1-1s1 .447 1 1v2c0 .553-.447 1-1 1z"/><path d="m49 39c-.553 0-1-.447-1-1 0-1.103-.897-2-2-2s-2 .897-2 2c0 .553-.447 1-1 1s-1-.447-1-1c0-2.206 1.794-4 4-4s4 1.794 4 4c0 .553-.447 1-1 1z"/><path d="m46 44c-2.206 0-4-1.794-4-4 0-.553.447-1 1-1s1 .447 1 1c0 1.103.897 2 2 2s2-.897 2-2c0-.553.447-1 1-1s1 .447 1 1c0 2.206-1.794 4-4 4z"/><path d="m43 41c-.553 0-1-.447-1-1v-2c0-.553.447-1 1-1s1 .447 1 1v2c0 .553-.447 1-1 1z"/><path d="m49 41c-.553 0-1-.447-1-1v-2c0-.553.447-1 1-1s1 .447 1 1v2c0 .553-.447 1-1 1z"/><path d="m39.999 43c-.553 0-1-.447-1-1s.447-1 1-1c1.103 0 2-.897 2-2s-.897-2-2-2c-.553 0-1-.447-1-1s.447-1 1-1c2.206 0 4 1.794 4 4s-1.794 4-4 4z"/><path d="m37.999 43c-2.206 0-4-1.794-4-4s1.794-4 4-4c.553 0 1 .447 1 1s-.447 1-1 1c-1.103 0-2 .897-2 2s.897 2 2 2c.553 0 1 .447 1 1s-.447 1-1 1z"/><path d="m39.999 37h-2c-.553 0-1-.447-1-1s.447-1 1-1h2c.553 0 1 .447 1 1s-.447 1-1 1z"/><path d="m39.999 43h-2c-.553 0-1-.447-1-1s.447-1 1-1h2c.553 0 1 .447 1 1s-.447 1-1 1z"/><path d="m54 43c-.553 0-1-.447-1-1s.447-1 1-1c1.103 0 2-.897 2-2s-.897-2-2-2c-.553 0-1-.447-1-1s.447-1 1-1c2.206 0 4 1.794 4 4s-1.794 4-4 4z"/><path d="m52 43c-2.206 0-4-1.794-4-4s1.794-4 4-4c.553 0 1 .447 1 1s-.447 1-1 1c-1.103 0-2 .897-2 2s.897 2 2 2c.553 0 1 .447 1 1s-.447 1-1 1z"/><path d="m54 37h-2c-.553 0-1-.447-1-1s.447-1 1-1h2c.553 0 1 .447 1 1s-.447 1-1 1z"/><path d="m54 43h-2c-.553 0-1-.447-1-1s.447-1 1-1h2c.553 0 1 .447 1 1s-.447 1-1 1z"/><path d="m26.002 43c-.553 0-1-.447-1-1s.447-1 1-1c1.103 0 2-.897 2-2s-.897-2-2-2c-.553 0-1-.447-1-1s.447-1 1-1c2.206 0 4 1.794 4 4s-1.794 4-4 4z"/><path d="m24.002 43c-2.206 0-4-1.794-4-4s1.794-4 4-4c.553 0 1 .447 1 1s-.447 1-1 1c-1.103 0-2 .897-2 2s.897 2 2 2c.553 0 1 .447 1 1s-.447 1-1 1z"/><path d="m26.002 37h-2c-.553 0-1-.447-1-1s.447-1 1-1h2c.553 0 1 .447 1 1s-.447 1-1 1z"/><path d="m26.002 43h-2c-.553 0-1-.447-1-1s.447-1 1-1h2c.553 0 1 .447 1 1s-.447 1-1 1z"/><path d="m20.999 39c-.553 0-1-.447-1-1 0-1.103-.897-2-2-2s-2 .897-2 2c0 .553-.447 1-1 1s-1-.447-1-1c0-2.206 1.794-4 4-4s4 1.794 4 4c0 .553-.447 1-1 1z"/><path d="m17.999 44c-2.206 0-4-1.794-4-4 0-.553.447-1 1-1s1 .447 1 1c0 1.103.897 2 2 2s2-.897 2-2c0-.553.447-1 1-1s1 .447 1 1c0 2.206-1.794 4-4 4z"/><path d="m14.999 41c-.553 0-1-.447-1-1v-2c0-.553.447-1 1-1s1 .447 1 1v2c0 .553-.447 1-1 1z"/><path d="m20.999 41c-.553 0-1-.447-1-1v-2c0-.553.447-1 1-1s1 .447 1 1v2c0 .553-.447 1-1 1z"/><path d="m12.001 43c-.553 0-1-.447-1-1s.447-1 1-1c1.103 0 2-.897 2-2s-.897-2-2-2c-.553 0-1-.447-1-1s.447-1 1-1c2.206 0 4 1.794 4 4s-1.794 4-4 4z"/><path d="m10.001 43c-2.206 0-4-1.794-4-4s1.794-4 4-4c.553 0 1 .447 1 1s-.447 1-1 1c-1.103 0-2 .897-2 2s.897 2 2 2c.553 0 1 .447 1 1s-.447 1-1 1z"/><path d="m12.001 37h-2c-.553 0-1-.447-1-1s.447-1 1-1h2c.553 0 1 .447 1 1s-.447 1-1 1z"/><path d="m12.001 43h-2c-.553 0-1-.447-1-1s.447-1 1-1h2c.553 0 1 .447 1 1s-.447 1-1 1z"/></svg>