<svg id="icons" enable-background="new 0 0 64 64" height="512" viewBox="0 0 64 64" width="512" xmlns="http://www.w3.org/2000/svg"><path d="m30.006 6c0 2.76-2.24 5-5 5-2.771 0-14.012-2.24-14.012-5s11.24-5 14.012-5c2.76 0 5 2.24 5 5z" fill="#a0d468"/><path d="m52.994 45h.012c0 9.94-8.061 18-18 18-9.941 0-18-8.06-18-18 0-13 9.398-15.47 11-28 .439-3.39 3.408-6 7-6 3.578 0 6.549 2.61 7 6 1.59 12.53 10.988 15 10.988 28z" fill="#ffce54"/><path d="m52.994 45c0-13-9.398-15.47-10.988-28-.451-3.39-3.422-6-7-6-.697 0-1.369.101-2.006.284 2.637.761 4.639 2.983 5.002 5.716 1.59 12.53 10.988 15 10.988 28h.012c0 9.263-7.002 16.886-15.998 17.883.658.072 1.324.117 2.002.117 9.939 0 18-8.06 18-18z" fill="#f6bb42"/><path d="m35.004 64c-10.477 0-19-8.523-19-19 0-.553.447-1 1-1s1 .447 1 1c0 9.374 7.626 17 17 17s17-7.626 17-17c0-.553.447-1 1-1s1 .447 1 1c0 10.477-8.524 19-19 19z"/><path d="m28.005 18c-.044 0-.088-.003-.133-.009-.547-.072-.932-.575-.859-1.123.519-3.915 3.955-6.868 7.991-6.868.553 0 1 .447 1 1s-.447 1-1 1c-3.037 0-5.62 2.206-6.009 5.132-.066.503-.496.868-.99.868z"/><path d="m17.006 46.002c-.553 0-1-.447-1-1 0-7.205 2.818-11.392 5.545-15.44 2.332-3.463 4.743-7.045 5.461-12.688.07-.547.566-.928 1.118-.866.548.07.936.57.866 1.118-.778 6.114-3.324 9.896-5.787 13.553-2.676 3.975-5.203 7.729-5.203 14.323 0 .553-.447 1-1 1z"/><path d="m42.003 18c-.494 0-.924-.365-.99-.868-.389-2.926-2.972-5.132-6.009-5.132-.553 0-1-.447-1-1s.447-1 1-1c4.036 0 7.472 2.953 7.991 6.868.072.548-.313 1.051-.859 1.123-.045.006-.089.009-.133.009z"/><path d="m53.002 46.002c-.553 0-1-.447-1-1 0-6.595-2.527-10.349-5.203-14.323-2.463-3.657-5.009-7.438-5.787-13.553-.069-.548.318-1.048.866-1.118.552-.063 1.049.319 1.118.866.718 5.643 3.129 9.225 5.461 12.688 2.727 4.049 5.545 8.235 5.545 15.44 0 .553-.447 1-1 1z"/><path d="m35.004 12.004c-.553 0-1-.447-1-1v-10.004c0-.553.447-1 1-1s1 .447 1 1v10.004c0 .553-.447 1-1 1z"/><path d="m25.005 12.001c-1.739 0-15.009-1.923-15.009-6s13.27-6 15.009-6c3.309 0 6 2.691 6 6s-2.692 6-6 6zm0-10c-3.888 0-13.009 2.583-13.009 4s9.121 4 13.009 4c2.206 0 4-1.794 4-4s-1.794-4-4-4z"/><path d="m35.004 7.002h-15c-.553 0-1-.447-1-1s.447-1 1-1h15c.553 0 1 .447 1 1s-.447 1-1 1z"/></svg>