<svg id="icons" enable-background="new 0 0 64 64" height="512" viewBox="0 0 64 64" width="512" xmlns="http://www.w3.org/2000/svg"><path d="m40 59.999c10.49 0 19-8.51 19-19h3c0 12.15-9.85 22-22 22-9.92 0-18.3-6.56-21.05-15.58-.62-2.04-.95-4.189-.95-6.42h.22 2.78c0 10.49 8.51 19 19 19z" fill="#a0d468"/><path d="m59 40.999c0 10.49-8.51 19-19 19s-19-8.51-19-19h8.78 10.32z" fill="#ed5565"/><path d="m29.78 40.999h-8.78-2.78-.22c0 2.23.33 4.38.95 6.42-9.72-2.28-16.95-11.01-16.95-21.42 0-12.15 9.85-22 22-22s22 9.85 22 22c0 5.8-2.24 11.07-5.9 15z" fill="#8cc152"/><path d="m18.95 48.418c-.076 0-.152-.009-.229-.026-10.434-2.452-17.72-11.659-17.72-22.391 0-12.683 10.317-23 23-23s23 10.317 23 23c0 5.841-2.192 11.409-6.173 15.68-.376.406-1.01.427-1.413.05-.404-.377-.427-1.01-.05-1.413 3.634-3.899 5.636-8.983 5.636-14.316 0-11.579-9.421-21-21-21s-21 9.421-21 21c0 9.8 6.652 18.206 16.177 20.443.538.126.871.665.745 1.202-.109.46-.52.771-.973.771z"/><path d="m39.999 63.999c-12.683 0-23-10.317-23-23 0-.553.447-1 1-1s1 .447 1 1c0 11.579 9.421 21 21 21s21-9.421 21-21c0-.553.447-1 1-1s1 .447 1 1c0 12.683-10.317 23-23 23z"/><path d="m39.999 60.999c-11.028 0-20-8.972-20-20 0-.553.447-1 1-1s1 .447 1 1c0 9.925 8.075 18 18 18s18-8.075 18-18c0-.553.447-1 1-1s1 .447 1 1c0 11.028-8.972 20-20 20z"/><path d="m18.224 42c-.295 0-.586-.129-.783-.378-7.921-9.961-7.124-24.288 1.853-33.326.392-.391 1.023-.392 1.415-.005.392.39.394 1.022.004 1.415-8.263 8.318-8.996 21.504-1.706 30.672.343.432.271 1.062-.161 1.404-.185.147-.405.218-.622.218z"/><path d="m29.778 41.999c-.218 0-.438-.071-.621-.217-.433-.344-.504-.974-.161-1.405 7.289-9.167 6.556-22.353-1.707-30.671-.389-.393-.387-1.025.005-1.415.392-.389 1.023-.387 1.415.005 8.977 9.038 9.773 23.365 1.853 33.325-.198.249-.489.378-.784.378z"/><path d="m24.001 5.001c-.553 0-1-.447-1-1 0-2.206 1.794-4 4-4 .553 0 1 .447 1 1s-.447 1-1 1c-1.103 0-2 .897-2 2 0 .553-.447 1-1 1z"/><path d="m61.999 41.999h-44c-.553 0-1-.447-1-1s.447-1 1-1h44c.553 0 1 .447 1 1s-.447 1-1 1z"/><path d="m28.03 48.999c-.553 0-1.005-.447-1.005-1s.442-1 .994-1h.011c.552 0 1 .447 1 1s-.448 1-1 1z"/><path d="m32.03 52.999c-.553 0-1.005-.447-1.005-1s.442-1 .994-1h.011c.552 0 1 .447 1 1s-.448 1-1 1z"/><path d="m36.03 56.999c-.553 0-1.005-.447-1.005-1s.442-1 .994-1h.011c.552 0 1 .447 1 1s-.448 1-1 1z"/><path d="m32.03 44.999c-.553 0-1.005-.447-1.005-1s.442-1 .994-1h.011c.552 0 1 .447 1 1s-.448 1-1 1z"/><path d="m36.03 48.999c-.553 0-1.005-.447-1.005-1s.442-1 .994-1h.011c.552 0 1 .447 1 1s-.448 1-1 1z"/><path d="m40.03 52.999c-.553 0-1.005-.447-1.005-1s.442-1 .994-1h.011c.552 0 1 .447 1 1s-.448 1-1 1z"/><path d="m44.03 56.999c-.553 0-1.005-.447-1.005-1s.442-1 .994-1h.011c.552 0 1 .447 1 1s-.448 1-1 1z"/><path d="m40.03 44.999c-.553 0-1.005-.447-1.005-1s.442-1 .994-1h.011c.552 0 1 .447 1 1s-.448 1-1 1z"/><path d="m44.03 48.999c-.553 0-1.005-.447-1.005-1s.442-1 .994-1h.011c.552 0 1 .447 1 1s-.448 1-1 1z"/><path d="m48.03 52.999c-.553 0-1.005-.447-1.005-1s.442-1 .994-1h.011c.552 0 1 .447 1 1s-.448 1-1 1z"/><path d="m48.03 44.999c-.553 0-1.005-.447-1.005-1s.442-1 .994-1h.011c.552 0 1 .447 1 1s-.448 1-1 1z"/><path d="m52.03 48.999c-.553 0-1.005-.447-1.005-1s.442-1 .994-1h.011c.552 0 1 .447 1 1s-.448 1-1 1z"/></svg>