<svg id="icons" enable-background="new 0 0 64 64" height="512" viewBox="0 0 64 64" width="512" xmlns="http://www.w3.org/2000/svg"><path d="m60 39.002c0 10.49-8.5 19-19 19-10.49 0-19-8.51-19-19h9c0 5.521 4.479 10 10 10 5.52 0 10-4.479 10-10z" fill="#ffd2a6"/><path d="m40.76 39.002h10.24c0 5.521-4.48 10-10 10-5.521 0-10-4.479-10-10z" fill="#f7c292"/><path d="m41 58.002c10.5 0 19-8.51 19-19h3c0 12.15-9.85 22-22 22-8.98 0-16.7-5.38-20.12-13.1-1.21-2.721-1.88-5.73-1.88-8.9h3c0 10.49 8.51 19 19 19z" fill="#ffce54"/><path d="m45 26.002c0 4.86-1.57 9.36-4.24 13h-9.76-9-3c0 3.17.67 6.18 1.88 8.9-11.151-1.07-19.88-10.47-19.88-21.9 0-12.15 9.85-22 22-22 12.16 0 22 9.85 22 22z" fill="#f6bb42"/><path d="m23 4.002c-.675 0-1.342.035-2.001.095 11.219 1.012 19.997 10.43 19.997 21.905 0 4.86-1.57 9.36-4.24 13h4.004c2.67-3.64 4.24-8.14 4.24-13 0-12.15-9.84-22-22-22z" fill="#edab37"/><path d="m20.877 48.902c-.032 0-.063-.001-.097-.005-11.846-1.134-20.78-10.977-20.78-22.895 0-12.683 10.317-23 23-23s23.001 10.317 23.001 23c0 4.93-1.536 9.629-4.441 13.59-.327.444-.952.542-1.398.215-.445-.327-.541-.953-.215-1.398 2.652-3.615 4.055-7.905 4.055-12.406 0-11.579-9.421-21-21.001-21-11.579 0-21 9.421-21 21 0 10.882 8.156 19.869 18.972 20.905.55.053.952.541.899 1.091-.05.516-.485.903-.995.903z"/><path d="m23 5.002c-.553 0-1-.447-1-1v-1.002c0-.553.447-1 1-1s1 .447 1 1v1.002c0 .553-.447 1-1 1z"/><path d="m40.999 62c-12.683 0-23-10.317-23-23 0-.553.447-1 1-1s1 .447 1 1c0 11.579 9.421 21 21 21s21-9.421 21-21c0-.553.447-1 1-1s1 .447 1 1c0 12.683-10.317 23-23 23z"/><path d="m40.999 59c-11.028 0-20-8.972-20-20 0-.553.447-1 1-1s1 .447 1 1c0 9.925 8.075 18 18 18s18-8.075 18-18c0-.553.447-1 1-1s1 .447 1 1c0 11.028-8.972 20-20 20z"/><path d="m40.999 49.998c-6.064 0-10.998-4.934-10.998-10.998 0-.553.447-1 1-1s1 .447 1 1c0 4.962 4.036 8.998 8.998 8.998s8.998-4.036 8.998-8.998c0-.553.447-1 1-1s1 .447 1 1c0 6.064-4.934 10.998-10.998 10.998z"/><path d="m62.999 40h-44c-.553 0-1-.447-1-1s.447-1 1-1h44c.553 0 1 .447 1 1s-.447 1-1 1z"/><path d="m37.029 43c-.553 0-1.005-.447-1.005-1s.442-1 .994-1h.011c.552 0 1 .447 1 1s-.448 1-1 1z"/><path d="m41.033 43c-.553 0-1.005-.447-1.005-1s.442-1 .994-1h.011c.552 0 1 .447 1 1s-.448 1-1 1z"/><path d="m45.037 43c-.553 0-1.005-.447-1.005-1s.442-1 .994-1h.011c.552 0 1 .447 1 1s-.448 1-1 1z"/><path d="m39.031 46.002c-.553 0-1.005-.447-1.005-1s.442-1 .994-1h.011c.552 0 1 .447 1 1s-.448 1-1 1z"/><path d="m43.035 46.002c-.553 0-1.005-.447-1.005-1s.442-1 .994-1h.011c.552 0 1 .447 1 1s-.448 1-1 1z"/></svg>