<svg id="icons" enable-background="new 0 0 64 64" height="512" viewBox="0 0 64 64" width="512" xmlns="http://www.w3.org/2000/svg"><path d="m34.005 8v7.34c-.619-.22-1.29-.34-1.989-.34-.71 0-1.38.12-2.011.35v-.01-7.34c0-3.87 3.131-7 7-7v4c-1.659 0-3 1.35-3 3z" fill="#a0d468"/><path d="m38.016 55v2c0 3.319-2.69 6-6 6-3.311 0-6-2.681-6-6v-2c3.31-.01 5.989-2.681 5.989-6h.011c0 3.319 2.689 6 6 6z" fill="#ac92ec"/><path d="m32.005 49c0 3.319-2.68 5.99-5.989 6h-.011c-3.31 0-6-2.681-6-6v-1.99-.01c3.32-.01 5.99-2.681 5.99-6h.021c0 3.319 2.67 5.99 5.989 6v.01z" fill="#967adc"/><path d="m44.016 47.01v1.99c0 3.319-2.69 6-6 6-3.311 0-6-2.681-6-6h-.011v-1.99-.01h.011c3.279 0 5.939-2.63 6-5.9.05 3.271 2.71 5.9 5.989 5.9h.011z" fill="#967adc"/><path d="m50.005 39.01v1.99c0 3.319-2.68 5.99-5.989 6h-.011c-3.279 0-5.939-2.63-5.989-5.9 0-.03 0-.069 0-.1v-1.99-.01c3.31-.01 5.979-2.69 5.979-6h.01c0 3.319 2.69 6 6 6z" fill="#ac92ec"/><path d="m38.016 39.01v1.99.1c-.061 3.271-2.721 5.9-6 5.9h-.011c-3.319-.01-5.989-2.681-5.989-6v-1.99-.01c3.27-.01 5.93-2.63 5.989-5.9.051 3.271 2.71 5.9 5.99 5.9h.021z" fill="#ac92ec"/><path d="m56.005 29.01v3.99c0 3.319-2.68 6-6 6-3.31 0-6-2.681-6-6v-1.99-.01c3.311 0 6-2.69 6-6v-1.99c3.32 0 6 2.679 6 6z" fill="#967adc"/><path d="m44.005 31.01v1.99h-.01c0 3.31-2.67 5.99-5.979 6-.011 0-.011 0-.021 0-3.28 0-5.939-2.63-5.99-5.9-.01-.03-.01-.069-.01-.1v-1.99-.01h.021c3.279 0 5.939-2.641 6-5.9.05 3.26 2.71 5.9 5.989 5.9z" fill="#967adc"/><path d="m26.016 39.01v1.99h-.021c0 3.319-2.67 5.99-5.99 6h-.01c-3.31 0-6-2.681-6-6v-1.99-.01c3.311 0 6-2.681 6-6h.01c0 3.319 2.69 6 6 6h.011z" fill="#ac92ec"/><path d="m19.995 31.01v1.99c0 3.319-2.689 6-6 6-3.31 0-6-2.681-6-6v-3.99c0-3.32 2.69-6 6-6v1.99c0 3.31 2.69 6 6 6z" fill="#967adc"/><path d="m26.016 25c0 3.3 2.67 5.99 5.979 6v.01 1.99c0 .03 0 .069.01.1-.06 3.271-2.72 5.891-5.989 5.9h-.011c-3.31 0-6-2.681-6-6h-.01v-1.99-.01c3.32 0 6-2.69 6-6z" fill="#967adc"/><g fill="#ac92ec"><path d="m34.005 15.34c2.311.81 3.971 2.979 4.011 5.56-.011.03-.011.07-.011.101v4c0 .03 0 .069.011.1-.061 3.26-2.721 5.9-6 5.9-.011 0-.011 0-.021 0-3.31-.01-5.979-2.7-5.979-6v-4c0-2.61 1.659-4.83 3.989-5.65.631-.231 1.301-.351 2.011-.351.699 0 1.37.12 1.989.34z"/><path d="m50.005 23.01v1.99c0 3.31-2.689 6-6 6-3.279 0-5.939-2.641-5.989-5.9 0-.03 0-.069 0-.1v-4c0-.03 0-.07 0-.101.05-3.27 2.71-5.899 5.989-5.899 3.311 0 6 2.68 6 6z"/><path d="m25.995 21v4c0 3.31-2.68 6-6 6-3.31 0-6-2.69-6-6v-1.99-2.01c0-3.32 2.69-6 6-6 3.32 0 6 2.68 6 6z"/></g><path d="m32.014 64c-3.859 0-7-3.141-7-7 0-.553.447-1 1-1s1 .447 1 1c0 2.757 2.243 5 5 5s5-2.243 5-5c0-.553.447-1 1-1s1 .447 1 1c0 3.859-3.141 7-7 7z"/><path d="m26.014 58c-.553 0-1-.447-1-1v-2.002c0-.553.447-1 1-1s1 .447 1 1v2.002c0 .553-.448 1-1 1z"/><path d="m38.014 58c-.553 0-1-.447-1-1v-2.002c0-.553.447-1 1-1s1 .447 1 1v2.002c0 .553-.448 1-1 1z"/><path d="m38.014 55.998c-3.859 0-7-3.141-7-7 0-.553.447-1 1-1s1 .447 1 1c0 2.757 2.243 5 5 5s5-2.243 5-5c0-.553.447-1 1-1s1 .447 1 1c0 3.859-3.141 7-7 7z"/><path d="m44.014 49.998c-.553 0-1-.447-1-1v-1.996c0-.553.447-1 1-1s1 .447 1 1v1.996c0 .553-.448 1-1 1z"/><path d="m26.003 55.998c-3.859 0-7-3.141-7-7 0-.553.447-1 1-1s1 .447 1 1c0 2.757 2.243 5 5 5s5-2.243 5-5c0-.553.447-1 1-1s1 .447 1 1c0 3.859-3.141 7-7 7z"/><path d="m20.003 49.998c-.553 0-1-.447-1-1v-1.996c0-.553.447-1 1-1s1 .447 1 1v1.996c0 .553-.447 1-1 1z"/><path d="m32.003 49.998c-.553 0-1-.447-1-1v-1.996c0-.553.447-1 1-1s1 .447 1 1v1.996c0 .553-.447 1-1 1z"/><path d="m32.008 47.999c-3.859 0-7-3.141-7-7 0-.553.447-1 1-1s1 .447 1 1c0 2.757 2.243 5 5 5s5-2.243 5-5c0-.553.447-1 1-1s1 .447 1 1c0 3.859-3.141 7-7 7z"/><path d="m26.008 41.999c-.553 0-1-.447-1-1v-1.996c0-.553.447-1 1-1s1 .447 1 1v1.996c0 .553-.447 1-1 1z"/><path d="m38.008 41.999c-.553 0-1-.447-1-1v-1.996c0-.553.447-1 1-1s1 .447 1 1v1.996c0 .553-.447 1-1 1z"/><path d="m44.003 47.999c-3.859 0-7-3.141-7-7 0-.553.447-1 1-1s1 .447 1 1c0 2.757 2.243 5 5 5s5-2.243 5-5c0-.553.447-1 1-1s1 .447 1 1c0 3.859-3.141 7-7 7z"/><path d="m50.003 41.999c-.553 0-1-.447-1-1v-1.996c0-.553.447-1 1-1s1 .447 1 1v1.996c0 .553-.447 1-1 1z"/><path d="m19.997 47.999c-3.859 0-7-3.141-7-7 0-.553.447-1 1-1s1 .447 1 1c0 2.757 2.243 5 5 5s5-2.243 5-5c0-.553.447-1 1-1s1 .447 1 1c0 3.859-3.141 7-7 7z"/><path d="m13.997 41.999c-.553 0-1-.447-1-1v-1.996c0-.553.447-1 1-1s1 .447 1 1v1.996c0 .553-.447 1-1 1z"/><path d="m26.002 40c-3.859 0-7-3.141-7-7 0-.553.447-1 1-1s1 .447 1 1c0 2.757 2.243 5 5 5s5-2.243 5-5c0-.553.447-1 1-1s1 .447 1 1c0 3.859-3.141 7-7 7z"/><path d="m37.997 40c-3.859 0-7-3.141-7-7 0-.553.447-1 1-1s1 .447 1 1c0 2.757 2.243 5 5 5s5-2.243 5-5c0-.553.447-1 1-1s1 .447 1 1c0 3.859-3.141 7-7 7z"/><path d="m31.997 34c-.553 0-1-.447-1-1v-1.996c0-.553.447-1 1-1s1 .447 1 1v1.996c0 .553-.447 1-1 1z"/><path d="m50.005 40c-3.859 0-7-3.141-7-7 0-.553.447-1 1-1s1 .447 1 1c0 2.757 2.243 5 5 5s5-2.243 5-5c0-.553.447-1 1-1s1 .447 1 1c0 3.859-3.141 7-7 7z"/><path d="m56.005 30.002c-.553 0-1-.447-1-1 0-2.757-2.243-5-5-5-.553 0-1-.447-1-1s.447-1 1-1c3.859 0 7 3.141 7 7 0 .553-.447 1-1 1z"/><path d="m44.005 34c-.553 0-1-.447-1-1v-1.996c0-.553.447-1 1-1s1 .447 1 1v1.996c0 .553-.447 1-1 1z"/><path d="m56.005 34c-.553 0-1-.447-1-1v-3.998c0-.553.447-1 1-1s1 .447 1 1v3.998c0 .553-.447 1-1 1z"/><path d="m13.991 40c-3.859 0-7-3.141-7-7 0-.553.447-1 1-1s1 .447 1 1c0 2.757 2.243 5 5 5s5-2.243 5-5c0-.553.447-1 1-1s1 .447 1 1c0 3.859-3.14 7-7 7z"/><path d="m7.991 30.002c-.553 0-1-.447-1-1 0-3.859 3.141-7 7-7 .553 0 1 .447 1 1s-.447 1-1 1c-2.757 0-5 2.243-5 5 0 .553-.447 1-1 1z"/><path d="m7.991 34c-.553 0-1-.447-1-1v-3.998c0-.553.447-1 1-1s1 .447 1 1v3.998c0 .553-.447 1-1 1z"/><path d="m19.991 34c-.553 0-1-.447-1-1v-1.996c0-.553.447-1 1-1s1 .447 1 1v1.996c0 .553-.447 1-1 1z"/><path d="m32.008 31.992c-3.859 0-7-3.141-7-7 0-.553.447-1 1-1s1 .447 1 1c0 2.757 2.243 5 5 5s5-2.243 5-5c0-.553.447-1 1-1s1 .447 1 1c0 3.86-3.141 7-7 7z"/><path d="m38.008 21.994c-.553 0-1-.447-1-1 0-2.757-2.243-5-5-5s-5 2.243-5 5c0 .553-.447 1-1 1s-1-.447-1-1c0-3.859 3.141-7 7-7s7 3.141 7 7c0 .553-.447 1-1 1z"/><path d="m26.008 25.992c-.553 0-1-.447-1-1v-3.998c0-.553.447-1 1-1s1 .447 1 1v3.998c0 .553-.447 1-1 1z"/><path d="m38.008 25.992c-.553 0-1-.447-1-1v-3.998c0-.553.447-1 1-1s1 .447 1 1v3.998c0 .553-.447 1-1 1z"/><path d="m44.003 31.992c-3.859 0-7-3.141-7-7 0-.553.447-1 1-1s1 .447 1 1c0 2.757 2.243 5 5 5s5-2.243 5-5c0-.553.447-1 1-1s1 .447 1 1c0 3.86-3.141 7-7 7z"/><path d="m50.003 21.994c-.553 0-1-.447-1-1 0-2.757-2.243-5-5-5s-5 2.243-5 5c0 .553-.447 1-1 1s-1-.447-1-1c0-3.859 3.141-7 7-7s7 3.141 7 7c0 .553-.447 1-1 1z"/><path d="m38.003 25.992c-.553 0-1-.447-1-1v-3.998c0-.553.447-1 1-1s1 .447 1 1v3.998c0 .553-.447 1-1 1z"/><path d="m50.003 25.992c-.553 0-1-.447-1-1v-3.998c0-.553.447-1 1-1s1 .447 1 1v3.998c0 .553-.447 1-1 1z"/><path d="m19.997 31.992c-3.859 0-7-3.141-7-7 0-.553.447-1 1-1s1 .447 1 1c0 2.757 2.243 5 5 5s5-2.243 5-5c0-.553.447-1 1-1s1 .447 1 1c0 3.86-3.141 7-7 7z"/><path d="m25.997 21.994c-.553 0-1-.447-1-1 0-2.757-2.243-5-5-5s-5 2.243-5 5c0 .553-.447 1-1 1s-1-.447-1-1c0-3.859 3.141-7 7-7s7 3.141 7 7c0 .553-.447 1-1 1z"/><path d="m13.997 25.992c-.553 0-1-.447-1-1v-3.998c0-.553.447-1 1-1s1 .447 1 1v3.998c0 .553-.447 1-1 1z"/><path d="m25.997 25.992c-.553 0-1-.447-1-1v-3.998c0-.553.447-1 1-1s1 .447 1 1v3.998c0 .553-.447 1-1 1z"/><path d="m30.003 16.339c-.553 0-1-.447-1-1v-7.339c0-.553.447-1 1-1s1 .447 1 1v7.339c0 .553-.447 1-1 1z"/><path d="m34.003 16.339c-.553 0-1-.447-1-1v-7.339c0-.553.447-1 1-1s1 .447 1 1v7.339c0 .553-.447 1-1 1z"/><path d="m30.003 9c-.553 0-1-.447-1-1 0-4.411 3.589-8 8-8 .553 0 1 .447 1 1s-.447 1-1 1c-3.309 0-6 2.691-6 6 0 .553-.447 1-1 1z"/><path d="m34.003 9c-.553 0-1-.447-1-1 0-2.206 1.794-4 4-4 .553 0 1 .447 1 1s-.447 1-1 1c-1.103 0-2 .897-2 2 0 .553-.447 1-1 1z"/><path d="m37.003 6c-.553 0-1-.447-1-1v-4c0-.553.447-1 1-1s1 .447 1 1v4c0 .553-.447 1-1 1z"/></svg>