<svg id="icons" enable-background="new 0 0 64 64" height="512" viewBox="0 0 64 64" width="512" xmlns="http://www.w3.org/2000/svg"><path d="m48 35c7.729 0 14 6.261 14 14 0 7.73-6.271 14-14 14-7.73 0-14-6.27-14-14 0-7.739 6.27-14 14-14z" fill="#ed5565"/><path d="m16 35c7.729 0 14 6.261 14 14 0 7.73-6.271 14-14 14-7.73 0-14-6.27-14-14 0-7.739 6.27-14 14-14z" fill="#ed5565"/><path d="m48 35c-.682 0-1.347.065-2.002.159 6.779.973 11.998 6.784 11.998 13.841 0 7.049-5.219 12.866-11.998 13.841.655.094 1.32.159 2.002.159 7.729 0 14-6.27 14-14 0-7.739-6.271-14-14-14z" fill="#da4453"/><path d="m16 35c-.682 0-1.347.065-2.002.159 6.779.973 11.998 6.784 11.998 13.841 0 7.049-5.219 12.866-11.998 13.841.655.094 1.32.159 2.002.159 7.729 0 14-6.27 14-14 0-7.739-6.271-14-14-14z" fill="#da4453"/><path d="m16.001 64c-8.271 0-15-6.729-15-15s6.729-15 15-15 15 6.729 15 15-6.729 15-15 15zm0-28c-7.168 0-13 5.832-13 13s5.832 13 13 13 13-5.832 13-13-5.832-13-13-13z"/><path d="m47.999 64c-8.271 0-15-6.729-15-15s6.729-15 15-15 15 6.729 15 15-6.728 15-15 15zm0-28c-7.168 0-13 5.832-13 13s5.832 13 13 13 13-5.832 13-13-5.832-13-13-13z"/><path d="m16.001 36c-.553 0-1-.447-1-1 0-19.299 15.7-35 34.999-35 .553 0 1 .447 1 1s-.447 1-1 1c-18.195 0-32.999 14.804-32.999 33 0 .553-.447 1-1 1z"/><path d="m47.999 36c-.553 0-1-.447-1-1 0-12.131-9.869-22-22-22-.553 0-1-.447-1-1s.447-1 1-1c13.233 0 24 10.767 24 24 0 .553-.447 1-1 1z"/></svg>