<svg id="icons" enable-background="new 0 0 64 64" height="512" viewBox="0 0 64 64" width="512" xmlns="http://www.w3.org/2000/svg"><path d="m32 60c1.57 0 3.08-.25 4.5-.71v3.71h-9.01v-3.72c1.42.47 2.93.72 4.51.72z" fill="#83b246"/><path d="m40.82 5.82c-3.41 1-6.44 2.89-8.811 5.399l-.009-.009c-2.39-2.51-5.42-4.4-8.84-5.39v-.01c1.87-2.89 5.13-4.81 8.83-4.81 3.71 0 6.97 1.92 8.83 4.82z" fill="#83b246"/><path d="m26.51 45.5h-.02v-.12-20.38c0-1.08.09-2.13.25-3.16.65-4.09 2.53-7.76 5.27-10.62l-.01-.01c-2.39-2.51-5.42-4.4-8.84-5.39-1.79-.54-3.689-.82-5.65-.82v13.02 23.97 3.51c0 6.43 4.181 11.89 9.98 13.78 1.42.47 2.93.72 4.51.72 1.57 0 3.08-.25 4.5-.71v-.01c-5.79-1.9-9.99-7.34-9.99-13.78z" fill="#8cc152"/><path d="m40.82 5.82c-3.41 1-6.44 2.89-8.811 5.399-2.739 2.86-4.619 6.53-5.27 10.62-.16 1.03-.25 2.08-.25 3.16v20.38.12h.02c0 6.44 4.2 11.88 9.99 13.78 5.8-1.891 9.99-7.34 9.99-13.78v-27.479-13.02c-1.968 0-3.869.28-5.669.82z" fill="#a0d468"/><path d="m26.491 26.001c-.553 0-1-.448-1-1 0-11.58 9.421-21 21-21 .553 0 1 .448 1 1s-.447 1-1 1c-10.477 0-19 8.523-19 19 0 .553-.447 1-1 1z"/><path d="m36.506 26.001c-.553 0-1-.448-1-1 0-4.404 3.583-7.986 7.987-7.986.553 0 1 .448 1 1s-.447 1-1 1c-3.302 0-5.987 2.686-5.987 5.986 0 .553-.447 1-1 1z"/><path d="m36.506 49.99c-.553 0-1-.447-1-1 0-4.409 3.588-7.996 7.997-7.996.553 0 1 .447 1 1s-.447 1-1 1c-3.307 0-5.997 2.689-5.997 5.996 0 .553-.447 1-1 1z"/><path d="m26.74 22.843c-.365 0-.717-.2-.893-.548-1.026-2.023-3.074-3.28-5.344-3.28-.553 0-1-.448-1-1s.447-1 1-1c3.027 0 5.759 1.677 7.127 4.376.25.493.054 1.094-.439 1.344-.144.074-.298.108-.451.108z"/><path d="m26.493 46.385c-.339 0-.67-.172-.857-.484-1.097-1.819-3.019-2.906-5.142-2.906-.553 0-1-.447-1-1s.447-1 1-1c2.831 0 5.394 1.448 6.854 3.875.285.473.133 1.087-.341 1.372-.16.097-.338.143-.514.143z"/><path d="m36.505 37.99c-.553 0-1-.447-1-1 0-3.304-2.688-5.991-5.992-5.991-.553 0-1-.448-1-1s.447-1 1-1c4.407 0 7.992 3.584 7.992 7.991 0 .553-.447 1-1 1z"/><path d="m46.491 46.504c-.553 0-1-.447-1-1v-40.503c0-.552.447-1 1-1s1 .448 1 1v40.502c0 .554-.447 1.001-1 1.001z"/><path d="m31.998 12.21c-.264 0-.527-.104-.725-.311-3.62-3.804-8.509-5.898-13.767-5.898-.553 0-1-.448-1-1s.447-1 1-1c5.811 0 11.214 2.315 15.216 6.52.381.4.365 1.033-.035 1.414-.193.184-.441.275-.689.275z"/><path d="m17.507 46.504c-.553 0-1-.447-1-1v-40.503c0-.552.447-1 1-1s1 .448 1 1v40.502c0 .554-.447 1.001-1 1.001z"/><path d="m32 60.998c-8.543 0-15.493-6.95-15.493-15.494 0-.553.447-1 1-1s1 .447 1 1c0 7.44 6.053 13.494 13.493 13.494s13.493-6.054 13.493-13.494c0-.553.447-1 1-1s1 .447 1 1c0 8.544-6.95 15.494-15.493 15.494z"/><path d="m36.508 60.285c-.103 0-.207-.016-.311-.05-6.389-2.087-10.682-8.007-10.682-14.731 0-.553.447-1 1-1s1 .447 1 1c0 5.856 3.738 11.013 9.303 12.831.525.171.812.735.64 1.261-.138.422-.529.689-.95.689z"/><path d="m26.491 46.504c-.553 0-1-.447-1-1v-20.503c0-.552.447-1 1-1s1 .448 1 1v20.502c0 .554-.447 1.001-1 1.001z"/><path d="m36.506 64c-.553 0-1-.447-1-1v-37.999c0-.552.447-1 1-1s1 .448 1 1v37.999c0 .553-.447 1-1 1z"/><path d="m40.827 6.821c-.329 0-.65-.162-.842-.458-1.759-2.733-4.747-4.363-7.992-4.363-3.24 0-6.227 1.628-7.988 4.355-.3.464-.918.597-1.383.297-.464-.3-.597-.918-.297-1.382 2.132-3.3 5.746-5.27 9.668-5.27 3.928 0 7.544 1.974 9.674 5.28.299.464.165 1.083-.3 1.382-.167.108-.354.159-.54.159z"/><path d="m27.493 64c-.553 0-1-.447-1-1v-3.717c0-.553.447-1 1-1s1 .447 1 1v3.717c0 .553-.447 1-1 1z"/><path d="m36.506 64h-9.013c-.553 0-1-.447-1-1s.447-1 1-1h9.013c.553 0 1 .447 1 1s-.447 1-1 1z"/></svg>