<svg id="icons" enable-background="new 0 0 64 64" height="512" viewBox="0 0 64 64" width="512" xmlns="http://www.w3.org/2000/svg"><path d="m18.9 7.494h3.998v55.508h-3.998z" fill="#83b246"/><path d="m13.146 53.889c.81-.541 1.75-.82 2.689-.83-.01 1 .28 2 .87 2.859-1.54.26-3.16-.209-4.34-1.389.241-.24.501-.461.781-.64z" fill="#8cc152"/><path d="m15.836 53.059c-.939.01-1.88.289-2.689.83-.03-.02-.05-.051-.08-.07-1.561-1.561-1.561-4.09 0-5.65.78-.779 1.8-1.17 2.83-1.17 1.02 0 2.04.391 2.819 1.17l-1.409 1.41c-.96.96-1.451 2.22-1.471 3.48z" fill="#83b246"/><path d="m19.426 47.459c.971.979 1.46 2.26 1.46 3.539 0 1.281-.489 2.561-1.46 3.531-.17.17-.34.318-.529.459-.65.49-1.41.811-2.19.93-.59-.859-.88-1.859-.87-2.859.021-1.26.511-2.52 1.471-3.48l1.409-1.41h.011z" fill="#a0d468"/><path d="m24.886 5.098c.32-.06.66-.1 1.011-.1 0 1.67-.82 3.15-2.08 4.06-.19-1.02-.7-1.939-1.42-2.64.669-.66 1.529-1.12 2.489-1.32z" fill="#8cc152"/><g fill="#a0d468"><path d="m19.426 20.468c.971.97 1.46 2.25 1.46 3.53s-.489 2.56-1.46 3.54c-.77.77-1.72 1.24-2.72 1.39-.59-.859-.88-1.859-.87-2.859.011-1.261.5-2.521 1.471-3.48l1.42-1.42z"/><path d="m19.426 29.458c.971.979 1.46 2.26 1.46 3.54 0 1.281-.489 2.56-1.46 3.531-.77.77-1.72 1.238-2.72 1.398-.59-.859-.88-1.859-.87-2.859.011-1.26.5-2.52 1.471-3.49l1.409-1.41h.011z"/><path d="m25.956 17.079c.01.99-.28 1.99-.87 2.85-.989-.149-1.95-.62-2.72-1.39-.98-.98-1.47-2.26-1.47-3.54s.489-2.561 1.47-3.53l.7.71h.01l1.41 1.41c.97.969 1.46 2.23 1.47 3.49z"/></g><path d="m13.146 17.899c.81-.54 1.75-.811 2.689-.82-.01.99.28 1.99.87 2.85-.27.05-.54.07-.81.07-1.28 0-2.55-.48-3.53-1.46.241-.241.501-.46.781-.64z" fill="#8cc152"/><path d="m24.896 4.999c0 .03 0 .07-.011.1-.96.2-1.819.66-2.489 1.32-.891-.88-2.13-1.42-3.5-1.42h-2c0-2.21 1.79-4 4-4s4 1.79 4 4z" fill="#83b246"/><path d="m15.836 35.068c-.939.01-1.88.279-2.689.83h-.011c-.029-.039-.039-.051-.069-.07-1.561-1.57-1.561-4.1 0-5.66.78-.78 1.8-1.17 2.83-1.17 1.02 0 2.029.39 2.819 1.17l-1.409 1.41c-.971.97-1.46 2.231-1.471 3.49z" fill="#83b246"/><path d="m25.086 19.928c.59-.859.88-1.859.87-2.85.94.01 1.88.28 2.69.82.279.18.54.399.779.64-.979.979-2.25 1.46-3.529 1.46-.27.001-.54-.02-.81-.07z" fill="#8cc152"/><path d="m19.426 38.459c.971.979 1.46 2.26 1.46 3.539 0 1.281-.489 2.561-1.46 3.531-.77.77-1.72 1.229-2.72 1.389-.59-.859-.88-1.859-.87-2.85.011-1.26.5-2.52 1.471-3.49l1.409-1.41h.011z" fill="#a0d468"/><path d="m28.716 12.178c1.561 1.561 1.561 4.09 0 5.65-.02.02-.05.05-.069.07-.811-.54-1.75-.811-2.69-.82-.01-1.26-.5-2.521-1.47-3.49l-1.41-1.41c1.559-1.559 4.079-1.559 5.639 0z" fill="#83b246"/><path d="m13.146 26.899c.81-.54 1.75-.82 2.689-.83-.01 1 .28 2 .87 2.859-.27.05-.54.07-.81.07-1.28 0-2.55-.48-3.53-1.46.24-.24.5-.45.77-.64h.011z" fill="#8cc152"/><path d="m15.836 26.069c-.939.01-1.88.29-2.689.83h-.011c-.029-.03-.039-.051-.069-.07-1.561-1.561-1.561-4.09 0-5.66.78-.78 1.8-1.17 2.83-1.17 1.02 0 2.04.39 2.83 1.17l-1.42 1.42c-.971.959-1.46 2.219-1.471 3.48z" fill="#83b246"/><path d="m13.146 35.898c.81-.551 1.75-.82 2.689-.83-.01 1 .28 2 .87 2.859-.27.051-.54.07-.81.07-1.28 0-2.55-.49-3.53-1.469.24-.24.5-.451.77-.631h.011z" fill="#8cc152"/><path d="m15.836 44.068c-.939.01-1.88.279-2.689.82-.03-.02-.05-.041-.08-.07-1.561-1.561-1.561-4.09 0-5.65.78-.779 1.8-1.17 2.83-1.17 1.02 0 2.029.391 2.819 1.17l-1.409 1.41c-.971.971-1.46 2.231-1.471 3.49z" fill="#83b246"/><path d="m20.896 9.999c-2.761 0-5-2.24-5-5h1 2c1.37 0 2.609.54 3.5 1.42.72.7 1.229 1.62 1.42 2.64-.82.59-1.83.94-2.92.94z" fill="#a0d468"/><path d="m19.426 11.468c.971.97 1.46 2.25 1.46 3.53s-.489 2.56-1.46 3.54c-.77.77-1.72 1.24-2.72 1.39-.59-.859-.88-1.859-.87-2.85.011-1.26.5-2.521 1.471-3.49l1.409-1.41h.011z" fill="#a0d468"/><path d="m15.836 17.079c-.939.01-1.88.28-2.689.82-.03-.021-.05-.04-.08-.07-1.561-1.561-1.561-4.09 0-5.65 1.56-1.56 4.08-1.56 5.649 0l-1.409 1.41c-.971.969-1.46 2.23-1.471 3.49z" fill="#83b246"/><path d="m13.146 44.889c.81-.541 1.75-.811 2.689-.82-.01.99.28 1.99.87 2.85-.27.051-.55.07-.81.07-1.28 0-2.561-.48-3.53-1.459.241-.241.501-.462.781-.641z" fill="#8cc152"/><path d="m25.086 37.928c.59-.859.88-1.859.87-2.859.94.01 1.88.279 2.69.83.279.17.54.391.779.631-.979.979-2.25 1.469-3.529 1.469-.27-.001-.54-.02-.81-.071z" fill="#8cc152"/><path d="m28.716 21.168c1.561 1.57 1.561 4.1 0 5.66-.02.02-.04.04-.06.07h-.01c-.811-.54-1.75-.811-2.69-.83-.01-1.261-.5-2.521-1.47-3.48l-1.42-1.42c.78-.78 1.8-1.17 2.83-1.17 1.02.001 2.041.39 2.82 1.17z" fill="#83b246"/><path d="m20.896 32.999c0-1.28.489-2.561 1.47-3.54l.7.71h.01l1.41 1.41c.97.97 1.46 2.23 1.47 3.49.01 1-.28 2-.87 2.859-.989-.16-1.95-.629-2.72-1.398-.98-.971-1.47-2.251-1.47-3.531z" fill="#a0d468"/><path d="m28.716 30.168c1.561 1.56 1.561 4.089 0 5.65-.02.029-.05.051-.069.08-.811-.551-1.75-.82-2.69-.83-.01-1.26-.5-2.52-1.47-3.49l-1.41-1.41c.78-.78 1.8-1.17 2.82-1.17 1.019.001 2.04.39 2.819 1.17z" fill="#83b246"/><path d="m25.086 28.928c.59-.859.88-1.859.87-2.859.94.02 1.88.29 2.69.83h.01c.27.189.53.399.77.64-.979.979-2.25 1.46-3.529 1.46-.271 0-.541-.021-.811-.071z" fill="#8cc152"/><path d="m25.956 26.069c.01 1-.28 2-.87 2.859-.989-.149-1.95-.62-2.72-1.39-.98-.98-1.47-2.26-1.47-3.54s.489-2.561 1.47-3.54l.7.71 1.42 1.42c.97.96 1.46 2.22 1.47 3.481z" fill="#a0d468"/><path d="m28.716 39.168c1.561 1.561 1.561 4.09 0 5.65-.02.029-.05.051-.069.07-.811-.541-1.75-.811-2.69-.82-.01-1.26-.5-2.52-1.47-3.49l-1.41-1.41c.78-.779 1.8-1.17 2.82-1.17 1.019 0 2.04.391 2.819 1.17z" fill="#83b246"/><path d="m25.086 46.918c.59-.859.88-1.859.87-2.85.94.01 1.88.279 2.69.82.279.18.54.4.779.641-.97.979-2.25 1.459-3.529 1.459-.27 0-.54-.019-.81-.07z" fill="#8cc152"/><path d="m20.896 41.998c0-1.279.489-2.561 1.47-3.539l.7.709h.01l1.41 1.41c.97.971 1.46 2.23 1.47 3.49.01.99-.28 1.99-.87 2.85-.989-.15-1.95-.619-2.72-1.389-.98-.97-1.47-2.25-1.47-3.531z" fill="#a0d468"/><path d="m28.716 48.168c1.561 1.561 1.561 4.09 0 5.65-.02.02-.04.041-.06.07h-.01c-.811-.541-1.75-.811-2.69-.83-.01-1.25-.5-2.51-1.47-3.48l-1.41-1.41c.78-.779 1.8-1.17 2.82-1.17s2.041.391 2.82 1.17z" fill="#83b246"/><path d="m28.646 53.889h.01c.27.189.53.4.77.641-1.18 1.18-2.8 1.648-4.34 1.389.59-.859.88-1.859.87-2.859.94.018 1.88.288 2.69.829z" fill="#8cc152"/><path d="m25.956 53.059c.01 1-.28 2-.87 2.859-.77-.119-1.529-.43-2.189-.93-.19-.141-.36-.289-.53-.459-.98-.98-1.47-2.25-1.47-3.531 0-1.279.489-2.561 1.47-3.539l.7.709h.01l1.41 1.41c.969.971 1.459 2.231 1.469 3.481z" fill="#a0d468"/><path d="m41.119 7.494h3.998v55.508h-3.998z" fill="#83b246"/><path d="m35.365 53.889c.81-.541 1.75-.82 2.689-.83-.01 1 .28 2 .87 2.859-1.54.26-3.16-.209-4.34-1.389.241-.24.501-.461.781-.64z" fill="#8cc152"/><path d="m38.055 53.059c-.939.01-1.88.289-2.689.83-.03-.02-.05-.051-.08-.07-1.561-1.561-1.561-4.09 0-5.65.78-.779 1.8-1.17 2.83-1.17 1.02 0 2.04.391 2.819 1.17l-1.409 1.41c-.961.96-1.451 2.22-1.471 3.48z" fill="#83b246"/><path d="m41.645 47.459c.971.979 1.46 2.26 1.46 3.539 0 1.281-.489 2.561-1.46 3.531-.17.17-.34.318-.529.459-.65.49-1.41.811-2.19.93-.59-.859-.88-1.859-.87-2.859.021-1.26.511-2.52 1.471-3.48l1.409-1.41h.011z" fill="#a0d468"/><path d="m47.104 5.098c.32-.06.66-.1 1.011-.1 0 1.67-.82 3.15-2.08 4.06-.19-1.02-.7-1.939-1.42-2.64.67-.66 1.53-1.12 2.489-1.32z" fill="#8cc152"/><path d="m41.645 20.468c.971.97 1.46 2.25 1.46 3.53s-.489 2.56-1.46 3.54c-.77.77-1.72 1.24-2.72 1.39-.59-.859-.88-1.859-.87-2.859.011-1.261.5-2.521 1.471-3.48l1.42-1.42z" fill="#a0d468"/><path d="m41.645 29.458c.971.979 1.46 2.26 1.46 3.54 0 1.281-.489 2.56-1.46 3.531-.77.77-1.72 1.238-2.72 1.398-.59-.859-.88-1.859-.87-2.859.011-1.26.5-2.52 1.471-3.49l1.409-1.41h.011z" fill="#a0d468"/><path d="m48.175 17.079c.01.99-.28 1.99-.87 2.85-.989-.149-1.95-.62-2.72-1.39-.98-.98-1.47-2.26-1.47-3.54s.489-2.561 1.47-3.53l.7.71h.01l1.41 1.41c.97.969 1.46 2.23 1.47 3.49z" fill="#a0d468"/><path d="m35.365 17.899c.81-.54 1.75-.811 2.689-.82-.01.99.28 1.99.87 2.85-.27.05-.54.07-.81.07-1.28 0-2.55-.48-3.53-1.46.241-.241.501-.46.781-.64z" fill="#8cc152"/><path d="m47.115 4.999c0 .03 0 .07-.011.1-.96.2-1.819.66-2.489 1.32-.891-.88-2.13-1.42-3.5-1.42h-2c0-2.21 1.79-4 4-4s4 1.79 4 4z" fill="#83b246"/><path d="m38.055 35.068c-.939.01-1.88.279-2.689.83h-.011c-.029-.039-.039-.051-.069-.07-1.561-1.57-1.561-4.1 0-5.66.78-.78 1.8-1.17 2.83-1.17 1.02 0 2.029.39 2.819 1.17l-1.409 1.41c-.971.97-1.461 2.231-1.471 3.49z" fill="#83b246"/><path d="m47.305 19.928c.59-.859.88-1.859.87-2.85.94.01 1.88.28 2.69.82.279.18.54.399.779.64-.979.979-2.25 1.46-3.529 1.46-.27.001-.54-.02-.81-.07z" fill="#8cc152"/><path d="m41.645 38.459c.971.979 1.46 2.26 1.46 3.539 0 1.281-.489 2.561-1.46 3.531-.77.77-1.72 1.229-2.72 1.389-.59-.859-.88-1.859-.87-2.85.011-1.26.5-2.52 1.471-3.49l1.409-1.41h.011z" fill="#a0d468"/><path d="m50.935 12.178c1.561 1.561 1.561 4.09 0 5.65-.02.02-.05.05-.069.07-.811-.54-1.75-.811-2.69-.82-.01-1.26-.5-2.521-1.47-3.49l-1.41-1.41c1.558-1.559 4.079-1.559 5.639 0z" fill="#83b246"/><path d="m35.365 26.899c.81-.54 1.75-.82 2.689-.83-.01 1 .28 2 .87 2.859-.27.05-.54.07-.81.07-1.28 0-2.55-.48-3.53-1.46.24-.24.5-.45.77-.64h.011z" fill="#8cc152"/><path d="m38.055 26.069c-.939.01-1.88.29-2.689.83h-.011c-.029-.03-.039-.051-.069-.07-1.561-1.561-1.561-4.09 0-5.66.78-.78 1.8-1.17 2.83-1.17 1.02 0 2.04.39 2.83 1.17l-1.42 1.42c-.971.959-1.461 2.219-1.471 3.48z" fill="#83b246"/><path d="m35.365 35.898c.81-.551 1.75-.82 2.689-.83-.01 1 .28 2 .87 2.859-.27.051-.54.07-.81.07-1.28 0-2.55-.49-3.53-1.469.24-.24.5-.451.77-.631h.011z" fill="#8cc152"/><path d="m38.055 44.068c-.939.01-1.88.279-2.689.82-.03-.02-.05-.041-.08-.07-1.561-1.561-1.561-4.09 0-5.65.78-.779 1.8-1.17 2.83-1.17 1.02 0 2.029.391 2.819 1.17l-1.409 1.41c-.971.971-1.461 2.231-1.471 3.49z" fill="#83b246"/><path d="m43.115 9.999c-2.761 0-5-2.24-5-5h1 2c1.37 0 2.609.54 3.5 1.42.72.7 1.229 1.62 1.42 2.64-.82.59-1.83.94-2.92.94z" fill="#a0d468"/><path d="m41.645 11.468c.971.97 1.46 2.25 1.46 3.53s-.489 2.56-1.46 3.54c-.77.77-1.72 1.24-2.72 1.39-.59-.859-.88-1.859-.87-2.85.011-1.26.5-2.521 1.471-3.49l1.409-1.41h.011z" fill="#a0d468"/><path d="m38.055 17.079c-.939.01-1.88.28-2.689.82-.03-.021-.05-.04-.08-.07-1.561-1.561-1.561-4.09 0-5.65 1.56-1.56 4.08-1.56 5.649 0l-1.409 1.41c-.971.969-1.461 2.23-1.471 3.49z" fill="#83b246"/><path d="m35.365 44.889c.81-.541 1.75-.811 2.689-.82-.01.99.28 1.99.87 2.85-.27.051-.55.07-.81.07-1.28 0-2.561-.48-3.53-1.459.241-.241.501-.462.781-.641z" fill="#8cc152"/><path d="m47.305 37.928c.59-.859.88-1.859.87-2.859.94.01 1.88.279 2.69.83.279.17.54.391.779.631-.979.979-2.25 1.469-3.529 1.469-.27-.001-.54-.02-.81-.071z" fill="#8cc152"/><path d="m50.935 21.168c1.561 1.57 1.561 4.1 0 5.66-.02.02-.04.04-.06.07h-.01c-.811-.54-1.75-.811-2.69-.83-.01-1.261-.5-2.521-1.47-3.48l-1.42-1.42c.78-.78 1.8-1.17 2.83-1.17 1.02.001 2.04.39 2.82 1.17z" fill="#83b246"/><path d="m43.115 32.999c0-1.28.489-2.561 1.47-3.54l.7.71h.01l1.41 1.41c.97.97 1.46 2.23 1.47 3.49.01 1-.28 2-.87 2.859-.989-.16-1.95-.629-2.72-1.398-.981-.971-1.47-2.251-1.47-3.531z" fill="#a0d468"/><path d="m50.935 30.168c1.561 1.56 1.561 4.089 0 5.65-.02.029-.05.051-.069.08-.811-.551-1.75-.82-2.69-.83-.01-1.26-.5-2.52-1.47-3.49l-1.41-1.41c.78-.78 1.8-1.17 2.82-1.17 1.019.001 2.039.39 2.819 1.17z" fill="#83b246"/><path d="m47.305 28.928c.59-.859.88-1.859.87-2.859.94.02 1.88.29 2.69.83h.01c.27.189.53.399.77.64-.979.979-2.25 1.46-3.529 1.46-.271 0-.541-.021-.811-.071z" fill="#8cc152"/><path d="m48.175 26.069c.01 1-.28 2-.87 2.859-.989-.149-1.95-.62-2.72-1.39-.98-.98-1.47-2.26-1.47-3.54s.489-2.561 1.47-3.54l.7.71 1.42 1.42c.97.96 1.46 2.22 1.47 3.481z" fill="#a0d468"/><path d="m50.935 39.168c1.561 1.561 1.561 4.09 0 5.65-.02.029-.05.051-.069.07-.811-.541-1.75-.811-2.69-.82-.01-1.26-.5-2.52-1.47-3.49l-1.41-1.41c.78-.779 1.8-1.17 2.82-1.17 1.019 0 2.039.391 2.819 1.17z" fill="#83b246"/><path d="m47.305 46.918c.59-.859.88-1.859.87-2.85.94.01 1.88.279 2.69.82.279.18.54.4.779.641-.97.979-2.25 1.459-3.529 1.459-.27 0-.54-.019-.81-.07z" fill="#8cc152"/><path d="m43.115 41.998c0-1.279.489-2.561 1.47-3.539l.7.709h.01l1.41 1.41c.97.971 1.46 2.23 1.47 3.49.01.99-.28 1.99-.87 2.85-.989-.15-1.95-.619-2.72-1.389-.981-.97-1.47-2.25-1.47-3.531z" fill="#a0d468"/><path d="m50.935 48.168c1.561 1.561 1.561 4.09 0 5.65-.02.02-.04.041-.06.07h-.01c-.811-.541-1.75-.811-2.69-.83-.01-1.25-.5-2.51-1.47-3.48l-1.41-1.41c.78-.779 1.8-1.17 2.82-1.17s2.04.391 2.82 1.17z" fill="#83b246"/><path d="m50.865 53.889h.01c.27.189.53.4.77.641-1.18 1.18-2.8 1.648-4.34 1.389.59-.859.88-1.859.87-2.859.94.018 1.88.288 2.69.829z" fill="#8cc152"/><path d="m48.175 53.059c.01 1-.28 2-.87 2.859-.77-.119-1.529-.43-2.189-.93-.19-.141-.36-.289-.53-.459-.98-.98-1.47-2.25-1.47-3.531 0-1.279.489-2.561 1.47-3.539l.7.709h.01l1.41 1.41c.969.971 1.459 2.231 1.469 3.481z" fill="#a0d468"/><path d="m20.999 10.992c-3.309 0-6-2.691-6-6 0-.552.447-1 1-1s1 .448 1 1c0 2.206 1.794 4 4 4s4-1.794 4-4c0-.552.447-1 1-1s1 .448 1 1c0 3.309-2.691 6-6 6z"/><path d="m23.91 10.057c-.472 0-.891-.334-.981-.814-.355-1.883-2.009-3.25-3.93-3.25-.553 0-1-.448-1-1s.447-1 1-1c2.882 0 5.36 2.052 5.895 4.879.103.542-.254 1.066-.797 1.168-.063.011-.125.017-.187.017z"/><path d="m22.499 7.422c-.26 0-.519-.101-.715-.301-.386-.395-.379-1.028.016-1.414 1.126-1.102 2.615-1.709 4.193-1.709.553 0 1 .448 1 1s-.447 1-1 1c-1.052 0-2.044.404-2.795 1.139-.194.19-.447.285-.699.285z"/><path d="m18.999 5.992h-3c-.553 0-1-.448-1-1s.447-1 1-1h3c.553 0 1 .448 1 1s-.447 1-1 1z"/><path d="m24.991 6.1c-.01 0-.02 0-.029 0-.553-.016-.987-.476-.972-1.028l.002-.074c0-1.653-1.345-2.998-2.997-2.998s-2.997 1.345-2.997 2.997c0 .552-.447 1-1 1s-1-.448-1-1c0-2.755 2.241-4.997 4.997-4.997s4.997 2.242 4.997 4.997l-.002.131c-.015.542-.46.972-.999.972z"/><path d="m25.999 21c-1.603 0-3.109-.624-4.243-1.758-1.133-1.133-1.757-2.64-1.757-4.242 0-1.603.624-3.109 1.758-4.243.391-.39 1.023-.39 1.414 0s.391 1.024 0 1.415c-.756.755-1.172 1.759-1.172 2.828s.416 2.073 1.171 2.828c1.512 1.512 4.146 1.512 5.657 0 .391-.391 1.023-.39 1.414 0 .391.391.391 1.024 0 1.415-1.133 1.132-2.639 1.757-4.242 1.757z"/><path d="m25.184 20.934c-.194 0-.39-.056-.563-.174-.456-.311-.574-.934-.263-1.39 1.08-1.583.878-3.719-.48-5.077-.391-.391-.391-1.023 0-1.414s1.023-.391 1.414 0c2.037 2.038 2.34 5.241.719 7.618-.194.284-.508.437-.827.437z"/><path d="m29.526 19.535c-.256 0-.512-.098-.707-.292-.744-.743-1.731-1.159-2.781-1.17-.553-.006-.995-.458-.989-1.011.006-.549.452-.989 1-.989h.011c1.575.017 3.058.641 4.174 1.755.391.391.391 1.023 0 1.414-.196.196-.452.293-.708.293z"/><path d="m24.585 14.586c-.256 0-.512-.098-.707-.293l-2.121-2.121c-.391-.391-.391-1.023 0-1.414s1.023-.391 1.414 0l2.121 2.121c.391.391.391 1.023 0 1.414-.195.195-.451.293-.707.293z"/><path d="m29.526 18.534-.781-.636-.692-.721c.001-.001.027-.026.028-.028 1.198-1.198 1.198-3.1.03-4.269-1.166-1.167-3.07-1.168-4.238.001-.391.39-1.023.39-1.414 0s-.391-1.024 0-1.415c1.948-1.946 5.117-1.947 7.067 0 1.948 1.95 1.948 5.12 0 7.068z"/><path d="m15.989 20.999c-1.536 0-3.072-.585-4.242-1.755-.391-.391-.391-1.023 0-1.414s1.023-.391 1.414 0c1.562 1.561 4.098 1.559 5.657 0 1.56-1.56 1.559-4.098-.001-5.658-.391-.391-.391-1.023 0-1.414s1.023-.391 1.414 0c2.34 2.339 2.34 6.146.001 8.486-1.169 1.17-2.706 1.755-4.243 1.755z"/><path d="m16.805 20.934c-.319 0-.634-.152-.827-.437-1.621-2.376-1.319-5.58.719-7.617.391-.391 1.023-.391 1.414 0s.391 1.023 0 1.414c-1.358 1.358-1.561 3.493-.48 5.076.312.456.193 1.078-.263 1.39-.173.117-.369.174-.563.174z"/><path d="m12.462 19.537c-.256 0-.512-.098-.707-.293-.391-.391-.391-1.023 0-1.414 1.116-1.116 2.599-1.741 4.174-1.758h.011c.548 0 .994.44 1 .989.006.552-.437 1.005-.989 1.011-1.049.011-2.037.428-2.781 1.172-.196.195-.452.293-.708.293z"/><path d="m17.403 14.587c-.256 0-.512-.098-.707-.293-.391-.39-.391-1.023 0-1.414l2.121-2.122c.391-.391 1.023-.391 1.414 0 .391.39.391 1.023 0 1.414l-2.121 2.122c-.195.195-.451.293-.707.293z"/><path d="m13.213 18.889c-.23 0-.46-.083-.646-.255l-.104-.099c-1.948-1.948-1.948-5.118 0-7.066 1.947-1.949 5.118-1.948 7.067 0 .391.391.391 1.024 0 1.415s-1.023.39-1.414 0c-1.168-1.169-3.071-1.168-4.239 0s-1.168 3.07 0 4.238c.406.374.455 1.027.081 1.434-.203.218-.475.333-.745.333z"/><path d="m25.998 29.995c-1.536 0-3.072-.585-4.242-1.755-2.339-2.34-2.339-6.147.001-8.486.391-.391 1.023-.391 1.414 0s.391 1.023 0 1.414c-1.56 1.56-1.561 4.098-.001 5.658 1.562 1.56 4.098 1.559 5.657 0 .391-.391 1.023-.391 1.414 0s.391 1.023 0 1.414c-1.17 1.17-2.706 1.755-4.243 1.755z"/><path d="m25.184 29.93c-.194 0-.391-.056-.563-.174-.456-.312-.574-.934-.263-1.39 1.08-1.583.878-3.718-.48-5.076-.391-.391-.391-1.023 0-1.414s1.023-.391 1.414 0c2.038 2.038 2.34 5.241.719 7.617-.194.284-.508.437-.827.437z"/><path d="m29.526 28.533c-.256 0-.512-.098-.707-.293-.744-.744-1.732-1.161-2.781-1.172-.553-.006-.995-.458-.989-1.011s.494-.986 1.011-.989c1.575.017 3.058.642 4.174 1.758.391.391.391 1.023 0 1.414-.196.196-.452.293-.708.293z"/><path d="m24.585 23.583c-.256 0-.512-.098-.707-.293l-2.121-2.122c-.391-.391-.391-1.024 0-1.414.391-.391 1.023-.391 1.414 0l2.121 2.122c.391.391.391 1.024 0 1.414-.195.195-.451.293-.707.293z"/><path d="m28.745 27.895c-.27 0-.539-.108-.736-.323-.373-.407-.348-1.039.06-1.413l.044-.042c1.168-1.168 1.168-3.07 0-4.238s-3.069-1.168-4.239 0c-.391.39-1.023.39-1.414 0s-.391-1.024 0-1.415c1.949-1.947 5.12-1.948 7.067 0 1.948 1.948 1.948 5.118 0 7.066l-.104.099c-.193.178-.436.266-.678.266z"/><path d="m15.989 29.998c-1.603 0-3.109-.625-4.242-1.758-.391-.391-.391-1.024 0-1.415.391-.39 1.023-.39 1.414 0 1.512 1.512 4.146 1.512 5.657 0 .755-.755 1.171-1.76 1.171-2.828s-.416-2.073-1.172-2.828c-.391-.391-.391-1.024 0-1.415s1.023-.39 1.414 0c1.134 1.133 1.758 2.64 1.758 4.243s-.624 3.109-1.757 4.242c-1.133 1.135-2.64 1.759-4.243 1.759z"/><path d="m16.805 29.932c-.319 0-.634-.153-.827-.437-1.621-2.377-1.318-5.581.719-7.618.391-.391 1.023-.391 1.414 0s.391 1.023 0 1.414c-1.358 1.358-1.561 3.494-.48 5.077.312.456.193 1.079-.263 1.39-.174.117-.369.174-.563.174z"/><path d="m12.462 28.533c-.256 0-.512-.098-.707-.293-.391-.391-.391-1.023 0-1.414 1.116-1.115 2.599-1.738 4.174-1.755.525.016 1.005.437 1.011.989s-.437 1.005-.989 1.011c-1.05.011-2.037.427-2.781 1.17-.196.195-.452.292-.708.292z"/><path d="m17.403 23.584c-.256 0-.512-.098-.707-.293-.391-.391-.391-1.023 0-1.414l2.121-2.121c.391-.391 1.023-.391 1.414 0s.391 1.023 0 1.414l-2.121 2.121c-.195.195-.451.293-.707.293z"/><path d="m13.191 27.88c-.229 0-.456-.084-.641-.262l.692-.721-.712.703c-2.017-2.015-2.017-5.185-.07-7.134 1.949-1.947 5.119-1.948 7.068-.001.391.391.391 1.024 0 1.415s-1.023.39-1.414 0c-1.168-1.168-3.071-1.17-4.239 0-1.167 1.168-1.167 3.07 0 4.239.388.388.428 1.051.044 1.443-.203.208-.467.318-.728.318z"/><path d="m25.999 38.995c-1.603 0-3.109-.624-4.243-1.758-2.339-2.341-2.339-6.147.001-8.486.391-.39 1.023-.39 1.414 0s.391 1.024 0 1.415c-.756.755-1.172 1.759-1.172 2.828s.416 2.073 1.171 2.829c1.512 1.512 4.146 1.512 5.657 0 .391-.391 1.023-.391 1.414 0s.391 1.023 0 1.414c-1.133 1.134-2.639 1.758-4.242 1.758z"/><path d="m25.184 38.928c-.194 0-.391-.057-.563-.174-.456-.312-.574-.934-.263-1.39 1.08-1.583.878-3.719-.48-5.077-.391-.391-.391-1.023 0-1.414s1.023-.391 1.414 0c2.038 2.038 2.34 5.242.719 7.618-.194.284-.508.437-.827.437z"/><path d="m29.526 37.53c-.256 0-.512-.098-.707-.293-.744-.744-1.731-1.159-2.781-1.171-.553-.006-.995-.459-.989-1.011.006-.553.494-1.018 1.011-.989 1.576.018 3.059.641 4.174 1.757.391.391.391 1.023 0 1.414-.196.196-.452.293-.708.293z"/><path d="m24.585 32.58c-.256 0-.512-.098-.707-.293l-2.121-2.121c-.391-.391-.391-1.023 0-1.414s1.023-.391 1.414 0l2.121 2.121c.391.391.391 1.023 0 1.414-.195.195-.451.293-.707.293z"/><path d="m28.745 36.893c-.27 0-.539-.108-.736-.323-.373-.406-.348-1.039.06-1.413l.677.736-.646-.765c1.182-1.182 1.182-3.083.013-4.253-1.166-1.167-3.07-1.168-4.238.001-.391.39-1.023.39-1.414 0s-.391-1.024 0-1.415c1.948-1.946 5.117-1.947 7.067 0 1.947 1.95 1.947 5.121 0 7.068-.025.026-.065.064-.104.101-.194.176-.437.263-.679.263z"/><path d="m15.99 38.993c-1.537 0-3.073-.585-4.243-1.755-.391-.391-.391-1.023 0-1.414s1.023-.391 1.414 0c1.562 1.56 4.098 1.559 5.657 0 1.56-1.56 1.56-4.098-.001-5.658-.391-.391-.391-1.023 0-1.414s1.023-.391 1.414 0c2.34 2.34 2.341 6.146.001 8.486-1.169 1.17-2.706 1.755-4.242 1.755z"/><path d="m16.805 38.929c-.319 0-.634-.152-.827-.437-1.621-2.377-1.318-5.581.719-7.618.391-.391 1.023-.391 1.414 0s.391 1.023 0 1.414c-1.358 1.358-1.561 3.494-.48 5.077.312.456.193 1.078-.263 1.39-.174.117-.369.174-.563.174z"/><path d="m12.462 37.531c-.256 0-.512-.098-.707-.293-.391-.391-.391-1.024 0-1.414 1.117-1.116 2.599-1.739 4.174-1.757.525-.016 1.005.437 1.011.989s-.437 1.005-.989 1.011c-1.049.012-2.037.428-2.781 1.171-.196.196-.452.293-.708.293z"/><path d="m17.403 32.581c-.256 0-.512-.098-.707-.293-.391-.39-.391-1.023 0-1.414l2.121-2.122c.391-.391 1.023-.391 1.414 0 .391.39.391 1.023 0 1.414l-2.121 2.122c-.195.195-.451.293-.707.293z"/><path d="m13.191 36.877c-.229 0-.456-.085-.641-.262l.692-.722-.723.693c-2.007-2.006-2.007-5.176-.059-7.124 1.947-1.949 5.118-1.948 7.067 0 .391.391.391 1.024 0 1.415s-1.023.39-1.414 0c-1.168-1.169-3.071-1.168-4.239 0s-1.168 3.07 0 4.239c.388.388.428 1.051.044 1.442-.202.209-.465.319-.727.319z"/><path d="m25.999 47.992c-1.603 0-3.109-.624-4.243-1.758-2.339-2.34-2.338-6.146.001-8.485.391-.391 1.023-.391 1.414 0s.391 1.023 0 1.414c-1.56 1.56-1.56 4.098-.001 5.657 1.512 1.512 4.146 1.512 5.657 0 .391-.391 1.023-.391 1.414 0s.391 1.023 0 1.414c-1.133 1.134-2.639 1.758-4.242 1.758z"/><path d="m25.184 47.925c-.194 0-.391-.057-.563-.174-.456-.312-.574-.934-.263-1.39 1.08-1.583.878-3.718-.48-5.077-.391-.391-.391-1.023 0-1.414s1.023-.391 1.414 0c2.038 2.039 2.34 5.242.719 7.618-.194.284-.508.437-.827.437z"/><path d="m29.526 46.527c-.256 0-.512-.098-.707-.293-.744-.744-1.731-1.159-2.781-1.171-.553-.006-.995-.459-.989-1.011.006-.553.494-.979 1.011-.989 1.576.018 3.059.641 4.174 1.757.391.391.391 1.023 0 1.414-.196.196-.452.293-.708.293z"/><path d="m24.585 41.577c-.256 0-.512-.098-.707-.293l-2.121-2.121c-.391-.391-.391-1.023 0-1.414s1.023-.391 1.414 0l2.121 2.121c.391.391.391 1.023 0 1.414-.195.195-.451.293-.707.293z"/><path d="m28.745 45.89c-.27 0-.539-.108-.736-.323-.373-.406-.348-1.039.06-1.413l.677.736-.646-.765c1.182-1.182 1.182-3.083.014-4.252-1.168-1.168-3.069-1.168-4.239 0-.391.391-1.023.391-1.414 0s-.391-1.024 0-1.414c1.949-1.947 5.12-1.949 7.067 0 1.948 1.949 1.947 5.119 0 7.066-.025.026-.065.064-.104.101-.194.177-.437.264-.679.264z"/><path d="m15.99 47.99c-1.537 0-3.073-.585-4.243-1.755-.391-.391-.391-1.023 0-1.414s1.023-.391 1.414 0c1.562 1.56 4.098 1.558 5.657 0 .755-.755 1.171-1.76 1.171-2.828 0-1.069-.416-2.073-1.172-2.829-.391-.391-.391-1.023 0-1.414s1.023-.391 1.414 0c1.134 1.133 1.758 2.64 1.758 4.242 0 1.604-.624 3.11-1.757 4.243-1.169 1.17-2.706 1.755-4.242 1.755z"/><path d="m16.805 47.926c-.319 0-.634-.152-.827-.437-1.621-2.377-1.319-5.581.719-7.617.391-.391 1.023-.391 1.414 0s.391 1.023 0 1.414c-1.358 1.358-1.561 3.492-.48 5.076.312.456.193 1.078-.263 1.39-.174.117-.369.174-.563.174z"/><path d="m12.462 46.528c-.256 0-.512-.098-.707-.293-.391-.391-.391-1.024 0-1.414 1.117-1.116 2.599-1.739 4.174-1.757.525.022 1.005.437 1.011.989s-.437 1.005-.989 1.011c-1.049.012-2.037.428-2.781 1.171-.196.196-.452.293-.708.293z"/><path d="m17.403 41.579c-.256 0-.512-.098-.707-.293-.391-.391-.391-1.023 0-1.414l2.121-2.122c.391-.391 1.023-.391 1.414 0s.391 1.023 0 1.414l-2.121 2.122c-.195.195-.451.293-.707.293z"/><path d="m13.191 45.874c-.229 0-.456-.085-.641-.262l.692-.722-.723.693c-2.006-2.005-2.006-5.176-.059-7.124 1.949-1.945 5.118-1.947 7.067 0 .391.39.391 1.023 0 1.414s-1.023.391-1.414 0c-1.168-1.168-3.071-1.168-4.239 0-1.168 1.169-1.168 3.07 0 4.239.388.388.428 1.051.044 1.442-.202.21-.465.32-.727.32z"/><path d="m25.999 56.989c-1.603 0-3.109-.624-4.243-1.758-2.339-2.34-2.338-6.146.001-8.485.391-.391 1.023-.391 1.414 0s.391 1.023 0 1.414c-1.56 1.56-1.56 4.098-.001 5.657 1.512 1.512 4.146 1.512 5.657 0 .391-.391 1.023-.391 1.414 0s.391 1.023 0 1.414c-1.133 1.134-2.639 1.758-4.242 1.758z"/><path d="m25.184 56.922c-.194 0-.391-.057-.563-.174-.456-.312-.574-.934-.263-1.39 1.08-1.583.878-3.718-.48-5.077-.391-.391-.391-1.023 0-1.414s1.023-.391 1.414 0c2.038 2.039 2.34 5.242.719 7.618-.194.285-.508.437-.827.437z"/><path d="m29.526 55.524c-.256 0-.512-.098-.707-.293-.744-.744-1.731-1.159-2.781-1.171-.553-.006-.995-.459-.989-1.011.006-.553.494-1.011 1.011-.989 1.576.018 3.059.641 4.174 1.757.391.391.391 1.023 0 1.414-.196.196-.452.293-.708.293z"/><path d="m24.585 50.574c-.256 0-.512-.098-.707-.293l-2.121-2.121c-.391-.391-.391-1.023 0-1.414s1.023-.391 1.414 0l2.121 2.121c.391.391.391 1.023 0 1.414-.195.196-.451.293-.707.293z"/><path d="m28.745 54.887c-.27 0-.539-.108-.736-.323-.373-.406-.348-1.039.06-1.413l.677.736-.646-.765c1.182-1.182 1.182-3.083.014-4.252-1.168-1.168-3.069-1.168-4.239 0-.391.391-1.023.391-1.414 0s-.391-1.024 0-1.414c1.949-1.947 5.12-1.949 7.067 0 1.948 1.949 1.947 5.119 0 7.066-.025.026-.065.064-.104.101-.194.177-.437.264-.679.264z"/><path d="m15.99 56.987c-1.537 0-3.073-.585-4.243-1.755-.391-.391-.391-1.023 0-1.414s1.023-.391 1.414 0c1.562 1.56 4.098 1.558 5.657 0 .755-.756 1.171-1.76 1.171-2.828 0-1.069-.416-2.073-1.172-2.829-.391-.391-.391-1.023 0-1.414s1.023-.391 1.414 0c1.134 1.133 1.758 2.64 1.758 4.242 0 1.604-.624 3.11-1.757 4.243-1.169 1.17-2.706 1.755-4.242 1.755z"/><path d="m16.805 56.923c-.319 0-.634-.152-.827-.437-1.621-2.377-1.319-5.581.719-7.617.391-.391 1.023-.391 1.414 0s.391 1.023 0 1.414c-1.358 1.357-1.561 3.492-.48 5.076.312.456.193 1.078-.263 1.39-.174.117-.369.174-.563.174z"/><path d="m12.462 55.525c-.256 0-.512-.098-.707-.293-.391-.391-.391-1.024 0-1.414 1.117-1.116 2.599-1.739 4.174-1.757.525-.009 1.005.437 1.011.989s-.437 1.005-.989 1.011c-1.049.012-2.037.428-2.781 1.171-.196.196-.452.293-.708.293z"/><path d="m17.403 50.576c-.256 0-.512-.098-.707-.293-.391-.391-.391-1.023 0-1.414l2.121-2.122c.391-.391 1.023-.391 1.414 0s.391 1.023 0 1.414l-2.121 2.122c-.195.196-.451.293-.707.293z"/><path d="m13.191 54.871c-.229 0-.456-.085-.641-.262l.692-.722-.723.693c-2.006-2.005-2.006-5.176-.059-7.124 1.949-1.946 5.118-1.948 7.067 0 .391.39.391 1.023 0 1.414s-1.023.391-1.414 0c-1.168-1.168-3.071-1.168-4.239 0-1.168 1.169-1.168 3.07 0 4.239.388.388.428 1.051.044 1.442-.202.21-.465.32-.727.32z"/><path d="m19 64c-.553 0-1-.447-1-1v-8.018c0-.553.447-1 1-1s1 .447 1 1v8.018c0 .553-.447 1-1 1z"/><path d="m22.998 64h-3.998c-.553 0-1-.447-1-1s.447-1 1-1h3.998c.553 0 1 .447 1 1s-.447 1-1 1z"/><path d="m22.998 64c-.553 0-1-.447-1-1v-8.011c0-.553.447-1 1-1s1 .447 1 1v8.011c0 .553-.447 1-1 1z"/><path d="m43.012 10.992c-3.309 0-6-2.691-6-6 0-.552.447-1 1-1s1 .448 1 1c0 2.206 1.794 4 4 4s4-1.794 4-4c0-.552.447-1 1-1s1 .448 1 1c0 3.309-2.692 6-6 6z"/><path d="m45.923 10.057c-.472 0-.891-.334-.981-.814-.355-1.883-2.009-3.25-3.93-3.25-.553 0-1-.448-1-1s.447-1 1-1c2.882 0 5.36 2.052 5.895 4.879.103.542-.254 1.066-.797 1.168-.063.011-.126.017-.187.017z"/><path d="m44.512 7.422c-.26 0-.519-.101-.715-.301-.386-.395-.379-1.028.016-1.414 1.126-1.102 2.615-1.709 4.193-1.709.553 0 1 .448 1 1s-.447 1-1 1c-1.052 0-2.044.404-2.795 1.139-.194.19-.447.285-.699.285z"/><path d="m41.012 5.992h-3c-.553 0-1-.448-1-1s.447-1 1-1h3c.553 0 1 .448 1 1s-.448 1-1 1z"/><path d="m47.004 6.1c-.01 0-.02 0-.029 0-.553-.016-.987-.476-.972-1.028l.002-.074c0-1.653-1.345-2.998-2.997-2.998s-2.997 1.345-2.997 2.997c0 .552-.447 1-1 1s-1-.448-1-1c0-2.755 2.241-4.997 4.997-4.997s4.997 2.242 4.997 4.997l-.002.131c-.016.542-.46.972-.999.972z"/><path d="m48.012 21c-1.603 0-3.109-.624-4.243-1.758-1.133-1.133-1.757-2.64-1.757-4.242 0-1.603.624-3.109 1.758-4.243.391-.39 1.023-.39 1.414 0s.391 1.024 0 1.415c-.756.755-1.172 1.759-1.172 2.828s.416 2.073 1.171 2.828c1.512 1.512 4.146 1.512 5.657 0 .391-.391 1.023-.39 1.414 0 .391.391.391 1.024 0 1.415-1.133 1.132-2.64 1.757-4.242 1.757z"/><path d="m47.196 20.934c-.194 0-.39-.056-.563-.174-.456-.311-.574-.934-.263-1.39 1.08-1.583.878-3.719-.48-5.077-.391-.391-.391-1.023 0-1.414s1.023-.391 1.414 0c2.037 2.038 2.34 5.241.719 7.618-.193.284-.507.437-.827.437z"/><path d="m51.539 19.535c-.256 0-.512-.098-.707-.292-.744-.743-1.731-1.159-2.781-1.17-.553-.006-.995-.458-.989-1.011.006-.549.452-.989 1-.989h.011c1.575.017 3.058.641 4.174 1.755.391.391.391 1.023 0 1.414-.196.196-.452.293-.708.293z"/><path d="m46.598 14.586c-.256 0-.512-.098-.707-.293l-2.121-2.121c-.391-.391-.391-1.023 0-1.414s1.023-.391 1.414 0l2.121 2.121c.391.391.391 1.023 0 1.414-.196.195-.451.293-.707.293z"/><path d="m51.539 18.534-.781-.636-.692-.721c.001-.001.027-.026.028-.028 1.198-1.198 1.198-3.1.03-4.269-1.166-1.167-3.07-1.168-4.238.001-.391.39-1.023.39-1.414 0s-.391-1.024 0-1.415c1.949-1.946 5.118-1.947 7.067 0 1.947 1.95 1.947 5.12 0 7.068z"/><path d="m38.002 20.999c-1.536 0-3.072-.585-4.242-1.755-.391-.391-.391-1.023 0-1.414s1.023-.391 1.414 0c1.562 1.561 4.098 1.559 5.657 0 1.56-1.56 1.559-4.098-.001-5.658-.391-.391-.391-1.023 0-1.414s1.023-.391 1.414 0c2.34 2.339 2.34 6.146.001 8.486-1.17 1.17-2.706 1.755-4.243 1.755z"/><path d="m38.817 20.934c-.319 0-.634-.152-.827-.437-1.621-2.376-1.319-5.58.719-7.617.391-.391 1.023-.391 1.414 0s.391 1.023 0 1.414c-1.358 1.358-1.561 3.493-.48 5.076.312.456.193 1.078-.263 1.39-.172.117-.368.174-.563.174z"/><path d="m34.475 19.537c-.256 0-.512-.098-.707-.293-.391-.391-.391-1.023 0-1.414 1.116-1.116 2.599-1.741 4.174-1.758h.011c.548 0 .994.44 1 .989.006.552-.437 1.005-.989 1.011-1.049.011-2.037.428-2.781 1.172-.197.195-.453.293-.708.293z"/><path d="m39.416 14.587c-.256 0-.512-.098-.707-.293-.391-.39-.391-1.023 0-1.414l2.121-2.122c.391-.391 1.023-.391 1.414 0 .391.39.391 1.023 0 1.414l-2.121 2.122c-.195.195-.451.293-.707.293z"/><path d="m35.226 18.889c-.23 0-.46-.083-.646-.255l-.104-.099c-1.948-1.948-1.948-5.118 0-7.066 1.947-1.949 5.118-1.948 7.067 0 .391.391.391 1.024 0 1.415s-1.023.39-1.414 0c-1.168-1.169-3.071-1.168-4.239 0-.565.566-.878 1.318-.878 2.119s.313 1.553.878 2.119c.406.374.455 1.027.081 1.434-.203.218-.475.333-.745.333z"/><path d="m48.011 29.995c-1.536 0-3.072-.585-4.242-1.755-2.339-2.34-2.339-6.147.001-8.486.391-.391 1.023-.391 1.414 0s.391 1.023 0 1.414c-1.56 1.56-1.561 4.098-.001 5.658 1.561 1.56 4.097 1.559 5.657 0 .391-.391 1.023-.391 1.414 0s.391 1.023 0 1.414c-1.17 1.17-2.706 1.755-4.243 1.755z"/><path d="m47.196 29.93c-.194 0-.391-.056-.563-.174-.456-.312-.574-.934-.263-1.39 1.08-1.583.878-3.718-.48-5.076-.391-.391-.391-1.023 0-1.414s1.023-.391 1.414 0c2.038 2.038 2.34 5.241.719 7.617-.193.284-.507.437-.827.437z"/><path d="m51.539 28.533c-.256 0-.512-.098-.707-.293-.744-.744-1.732-1.161-2.781-1.172-.553-.006-.995-.458-.989-1.011s.413-.986 1.011-.989c1.575.017 3.058.642 4.174 1.758.391.391.391 1.023 0 1.414-.196.196-.452.293-.708.293z"/><path d="m46.598 23.583c-.256 0-.512-.098-.707-.293l-2.121-2.122c-.391-.391-.391-1.024 0-1.414.391-.391 1.023-.391 1.414 0l2.121 2.122c.391.391.391 1.024 0 1.414-.196.195-.451.293-.707.293z"/><path d="m50.758 27.895c-.27 0-.539-.108-.736-.323-.373-.407-.348-1.039.06-1.413l.044-.042c.565-.566.878-1.318.878-2.119s-.313-1.553-.878-2.119c-1.168-1.168-3.069-1.168-4.239 0-.391.39-1.023.39-1.414 0s-.391-1.024 0-1.415c1.949-1.947 5.12-1.948 7.067 0 1.948 1.948 1.948 5.118 0 7.066l-.104.099c-.193.178-.436.266-.678.266z"/><path d="m38.002 29.998c-1.603 0-3.109-.625-4.242-1.758-.391-.391-.391-1.024 0-1.415.391-.39 1.023-.39 1.414 0 1.512 1.512 4.146 1.512 5.657 0 .755-.755 1.171-1.76 1.171-2.828s-.416-2.073-1.172-2.828c-.391-.391-.391-1.024 0-1.415s1.023-.39 1.414 0c1.134 1.133 1.758 2.64 1.758 4.243s-.624 3.109-1.757 4.242c-1.134 1.135-2.641 1.759-4.243 1.759z"/><path d="m38.817 29.932c-.319 0-.634-.153-.827-.437-1.621-2.377-1.318-5.581.719-7.618.391-.391 1.023-.391 1.414 0s.391 1.023 0 1.414c-1.358 1.358-1.561 3.494-.48 5.077.312.456.193 1.079-.263 1.39-.173.117-.368.174-.563.174z"/><path d="m34.475 28.533c-.256 0-.512-.098-.707-.293-.391-.391-.391-1.023 0-1.414 1.116-1.115 2.599-1.738 4.174-1.755.583.016 1.005.437 1.011.989s-.437 1.005-.989 1.011c-1.05.011-2.037.427-2.781 1.17-.197.195-.453.292-.708.292z"/><path d="m39.416 23.584c-.256 0-.512-.098-.707-.293-.391-.391-.391-1.023 0-1.414l2.121-2.121c.391-.391 1.023-.391 1.414 0s.391 1.023 0 1.414l-2.121 2.121c-.195.195-.451.293-.707.293z"/><path d="m35.204 27.88c-.229 0-.456-.084-.641-.262l.692-.721-.712.703c-2.017-2.015-2.017-5.185-.07-7.134 1.949-1.947 5.119-1.948 7.068-.001.391.391.391 1.024 0 1.415s-1.023.39-1.414 0c-1.167-1.168-3.07-1.17-4.239 0-1.167 1.168-1.167 3.07 0 4.239.388.388.428 1.051.044 1.443-.203.208-.467.318-.728.318z"/><path d="m48.012 38.995c-1.603 0-3.109-.624-4.243-1.758-2.339-2.341-2.339-6.147.001-8.486.391-.39 1.023-.39 1.414 0s.391 1.024 0 1.415c-.756.755-1.172 1.759-1.172 2.828s.416 2.073 1.171 2.829c1.512 1.512 4.146 1.512 5.657 0 .391-.391 1.023-.391 1.414 0s.391 1.023 0 1.414c-1.133 1.134-2.64 1.758-4.242 1.758z"/><path d="m47.196 38.928c-.194 0-.391-.057-.563-.174-.456-.312-.574-.934-.263-1.39 1.08-1.583.878-3.719-.48-5.077-.391-.391-.391-1.023 0-1.414s1.023-.391 1.414 0c2.038 2.038 2.34 5.242.719 7.618-.193.284-.507.437-.827.437z"/><path d="m51.539 37.53c-.256 0-.512-.098-.707-.293-.744-.744-1.731-1.159-2.781-1.171-.553-.006-.995-.459-.989-1.011.006-.553.413-1.018 1.011-.989 1.576.018 3.059.641 4.174 1.757.391.391.391 1.023 0 1.414-.196.196-.452.293-.708.293z"/><path d="m46.598 32.58c-.256 0-.512-.098-.707-.293l-2.121-2.121c-.391-.391-.391-1.023 0-1.414s1.023-.391 1.414 0l2.121 2.121c.391.391.391 1.023 0 1.414-.196.195-.451.293-.707.293z"/><path d="m50.758 36.893c-.27 0-.539-.108-.736-.323-.373-.406-.348-1.039.06-1.413l.677.736-.646-.765c1.182-1.182 1.182-3.083.013-4.253-1.166-1.167-3.07-1.168-4.238.001-.391.39-1.023.39-1.414 0s-.391-1.024 0-1.415c1.949-1.946 5.118-1.947 7.067 0 1.947 1.95 1.947 5.121 0 7.068-.025.026-.065.064-.104.101-.194.176-.437.263-.679.263z"/><path d="m38.003 38.993c-1.537 0-3.073-.585-4.243-1.755-.391-.391-.391-1.023 0-1.414s1.023-.391 1.414 0c1.562 1.56 4.098 1.559 5.657 0 1.56-1.56 1.56-4.098-.001-5.658-.391-.391-.391-1.023 0-1.414s1.023-.391 1.414 0c2.34 2.34 2.341 6.146.001 8.486-1.17 1.17-2.706 1.755-4.242 1.755z"/><path d="m38.817 38.929c-.319 0-.634-.152-.827-.437-1.621-2.377-1.318-5.581.719-7.618.391-.391 1.023-.391 1.414 0s.391 1.023 0 1.414c-1.358 1.358-1.561 3.494-.48 5.077.312.456.193 1.078-.263 1.39-.173.117-.368.174-.563.174z"/><path d="m34.475 37.531c-.256 0-.512-.098-.707-.293-.391-.391-.391-1.024 0-1.414 1.117-1.116 2.599-1.739 4.174-1.757.583-.016 1.005.437 1.011.989s-.437 1.005-.989 1.011c-1.049.012-2.037.428-2.781 1.171-.197.196-.453.293-.708.293z"/><path d="m39.416 32.581c-.256 0-.512-.098-.707-.293-.391-.39-.391-1.023 0-1.414l2.121-2.122c.391-.391 1.023-.391 1.414 0 .391.39.391 1.023 0 1.414l-2.121 2.122c-.195.195-.451.293-.707.293z"/><path d="m35.204 36.877c-.229 0-.456-.085-.641-.262l.692-.722-.723.693c-2.007-2.006-2.007-5.176-.059-7.124 1.947-1.949 5.118-1.948 7.067 0 .391.391.391 1.024 0 1.415s-1.023.39-1.414 0c-1.168-1.169-3.071-1.168-4.239 0s-1.168 3.07 0 4.239c.388.388.428 1.051.044 1.442-.202.209-.465.319-.727.319z"/><path d="m48.012 47.992c-1.603 0-3.109-.624-4.243-1.758-2.339-2.34-2.338-6.146.001-8.485.391-.391 1.023-.391 1.414 0s.391 1.023 0 1.414c-1.56 1.56-1.56 4.098-.001 5.657 1.512 1.512 4.146 1.512 5.657 0 .391-.391 1.023-.391 1.414 0s.391 1.023 0 1.414c-1.133 1.134-2.64 1.758-4.242 1.758z"/><path d="m47.196 47.925c-.194 0-.391-.057-.563-.174-.456-.312-.574-.934-.263-1.39 1.08-1.583.878-3.718-.48-5.077-.391-.391-.391-1.023 0-1.414s1.023-.391 1.414 0c2.038 2.039 2.34 5.242.719 7.618-.193.284-.507.437-.827.437z"/><path d="m51.539 46.527c-.256 0-.512-.098-.707-.293-.744-.744-1.731-1.159-2.781-1.171-.553-.006-.995-.459-.989-1.011.006-.553.413-.979 1.011-.989 1.576.018 3.059.641 4.174 1.757.391.391.391 1.023 0 1.414-.196.196-.452.293-.708.293z"/><path d="m46.598 41.577c-.256 0-.512-.098-.707-.293l-2.121-2.121c-.391-.391-.391-1.023 0-1.414s1.023-.391 1.414 0l2.121 2.121c.391.391.391 1.023 0 1.414-.196.195-.451.293-.707.293z"/><path d="m50.758 45.89c-.27 0-.539-.108-.736-.323-.373-.406-.348-1.039.06-1.413l.677.736-.646-.765c1.182-1.182 1.182-3.083.014-4.252-1.168-1.168-3.069-1.168-4.239 0-.391.391-1.023.391-1.414 0s-.391-1.024 0-1.414c1.949-1.947 5.12-1.949 7.067 0 1.948 1.949 1.947 5.119 0 7.066-.025.026-.065.064-.104.101-.194.177-.437.264-.679.264z"/><path d="m38.003 47.99c-1.537 0-3.073-.585-4.243-1.755-.391-.391-.391-1.023 0-1.414s1.023-.391 1.414 0c1.562 1.56 4.098 1.558 5.657 0 .755-.755 1.171-1.76 1.171-2.828 0-1.069-.416-2.073-1.172-2.829-.391-.391-.391-1.023 0-1.414s1.023-.391 1.414 0c1.134 1.133 1.758 2.64 1.758 4.242 0 1.604-.624 3.11-1.757 4.243-1.17 1.17-2.706 1.755-4.242 1.755z"/><path d="m38.817 47.926c-.319 0-.634-.152-.827-.437-1.621-2.377-1.319-5.581.719-7.617.391-.391 1.023-.391 1.414 0s.391 1.023 0 1.414c-1.358 1.358-1.561 3.492-.48 5.076.312.456.193 1.078-.263 1.39-.173.117-.368.174-.563.174z"/><path d="m34.475 46.528c-.256 0-.512-.098-.707-.293-.391-.391-.391-1.024 0-1.414 1.117-1.116 2.599-1.739 4.174-1.757.583.022 1.005.437 1.011.989s-.437 1.005-.989 1.011c-1.049.012-2.037.428-2.781 1.171-.197.196-.453.293-.708.293z"/><path d="m39.416 41.579c-.256 0-.512-.098-.707-.293-.391-.391-.391-1.023 0-1.414l2.121-2.122c.391-.391 1.023-.391 1.414 0s.391 1.023 0 1.414l-2.121 2.122c-.195.195-.451.293-.707.293z"/><path d="m35.204 45.874c-.229 0-.456-.085-.641-.262l.692-.722-.723.693c-2.006-2.005-2.006-5.176-.059-7.124 1.949-1.945 5.118-1.947 7.067 0 .391.39.391 1.023 0 1.414s-1.023.391-1.414 0c-1.167-1.168-3.07-1.168-4.239 0-1.168 1.169-1.168 3.07 0 4.239.388.388.428 1.051.044 1.442-.202.21-.465.32-.727.32z"/><path d="m48.012 56.989c-1.603 0-3.109-.624-4.243-1.758-2.339-2.34-2.338-6.146.001-8.485.391-.391 1.023-.391 1.414 0s.391 1.023 0 1.414c-1.56 1.56-1.56 4.098-.001 5.657 1.512 1.512 4.146 1.512 5.657 0 .391-.391 1.023-.391 1.414 0s.391 1.023 0 1.414c-1.133 1.134-2.64 1.758-4.242 1.758z"/><path d="m47.196 56.922c-.194 0-.391-.057-.563-.174-.456-.312-.574-.934-.263-1.39 1.08-1.583.878-3.718-.48-5.077-.391-.391-.391-1.023 0-1.414s1.023-.391 1.414 0c2.038 2.039 2.34 5.242.719 7.618-.193.285-.507.437-.827.437z"/><path d="m51.539 55.524c-.256 0-.512-.098-.707-.293-.744-.744-1.731-1.159-2.781-1.171-.553-.006-.995-.459-.989-1.011.006-.553.413-1.011 1.011-.989 1.576.018 3.059.641 4.174 1.757.391.391.391 1.023 0 1.414-.196.196-.452.293-.708.293z"/><path d="m46.598 50.574c-.256 0-.512-.098-.707-.293l-2.121-2.121c-.391-.391-.391-1.023 0-1.414s1.023-.391 1.414 0l2.121 2.121c.391.391.391 1.023 0 1.414-.196.196-.451.293-.707.293z"/><path d="m50.758 54.887c-.27 0-.539-.108-.736-.323-.373-.406-.348-1.039.06-1.413l.677.736-.646-.765c1.182-1.182 1.182-3.083.014-4.252-1.168-1.168-3.069-1.168-4.239 0-.391.391-1.023.391-1.414 0s-.391-1.024 0-1.414c1.949-1.947 5.12-1.949 7.067 0 1.948 1.949 1.947 5.119 0 7.066-.025.026-.065.064-.104.101-.194.177-.437.264-.679.264z"/><path d="m38.003 56.987c-1.537 0-3.073-.585-4.243-1.755-.391-.391-.391-1.023 0-1.414s1.023-.391 1.414 0c1.562 1.56 4.098 1.558 5.657 0 .755-.756 1.171-1.76 1.171-2.828 0-1.069-.416-2.073-1.172-2.829-.391-.391-.391-1.023 0-1.414s1.023-.391 1.414 0c1.134 1.133 1.758 2.64 1.758 4.242 0 1.604-.624 3.11-1.757 4.243-1.17 1.17-2.706 1.755-4.242 1.755z"/><path d="m38.817 56.923c-.319 0-.634-.152-.827-.437-1.621-2.377-1.319-5.581.719-7.617.391-.391 1.023-.391 1.414 0s.391 1.023 0 1.414c-1.358 1.357-1.561 3.492-.48 5.076.312.456.193 1.078-.263 1.39-.173.117-.368.174-.563.174z"/><path d="m34.475 55.525c-.256 0-.512-.098-.707-.293-.391-.391-.391-1.024 0-1.414 1.117-1.116 2.599-1.739 4.174-1.757.583-.009 1.005.437 1.011.989s-.437 1.005-.989 1.011c-1.049.012-2.037.428-2.781 1.171-.197.196-.453.293-.708.293z"/><path d="m39.416 50.576c-.256 0-.512-.098-.707-.293-.391-.391-.391-1.023 0-1.414l2.121-2.122c.391-.391 1.023-.391 1.414 0s.391 1.023 0 1.414l-2.121 2.122c-.195.196-.451.293-.707.293z"/><path d="m35.204 54.871c-.229 0-.456-.085-.641-.262l.692-.722-.723.693c-2.006-2.005-2.006-5.176-.059-7.124 1.949-1.946 5.118-1.948 7.067 0 .391.39.391 1.023 0 1.414s-1.023.391-1.414 0c-1.167-1.168-3.07-1.168-4.239 0-1.168 1.169-1.168 3.07 0 4.239.388.388.428 1.051.044 1.442-.202.21-.465.32-.727.32z"/><path d="m41.013 64c-.553 0-1-.447-1-1v-8.018c0-.553.447-1 1-1s1 .447 1 1v8.018c0 .553-.448 1-1 1z"/><path d="m45.011 64h-3.998c-.553 0-1-.447-1-1s.447-1 1-1h3.998c.553 0 1 .447 1 1s-.448 1-1 1z"/><path d="m45.011 64c-.553 0-1-.447-1-1v-8.011c0-.553.447-1 1-1s1 .447 1 1v8.011c0 .553-.448 1-1 1z"/></svg>