<svg id="icons" enable-background="new 0 0 64 64" height="512" viewBox="0 0 64 64" width="512" xmlns="http://www.w3.org/2000/svg"><g fill="#ffce54"><path d="m26 2.61v5.39h-4.91c1.04-2.27 2.76-4.15 4.91-5.39z"/><path d="m37 2.09v5.91h-5v-7c1.79 0 3.479.39 5 1.09z"/><path d="m26 8v4.59c-1.891-.62-3.86-1.07-5.88-1.33.17-1.149.5-2.24.97-3.26z"/><path d="m37 8v4.93.011c-1.74.63-3.42 1.409-5 2.329v-7.27z"/><path d="m32 1v7h-6v-5.39c1.76-1.02 3.81-1.61 6-1.61z"/><path d="m42.91 8h-5.91v-5.91c2.609 1.2 4.71 3.3 5.91 5.91z"/><path d="m32 8v7.27c-1.891-1.09-3.891-1.989-6-2.68v-4.59z"/><path d="m43.87 11.26v.01c-2.381.301-4.681.87-6.87 1.66v-4.93h5.91c.46 1.02.789 2.11.96 3.26z"/></g><path d="m48 11v32c0-11.86-6.431-22.2-16-27.73 1.58-.92 3.26-1.699 5-2.329v-.011c2.189-.79 4.489-1.359 6.87-1.66 1.359-.18 2.73-.27 4.13-.27z" fill="#8cc152"/><path d="m20.12 11.26c2.02.26 3.989.71 5.88 1.33 2.109.69 4.109 1.59 6 2.68 9.569 5.53 16 15.87 16 27.73v4c0 8.84-7.16 16-16 16s-16-7.16-16-16v-36c1.399 0 2.77.09 4.12.26z" fill="#a0d468"/><path d="m32 64c-9.374 0-17-7.626-17-17 0-.553.447-1 1-1s1 .447 1 1c0 8.271 6.729 15 15 15s15-6.729 15-15c0-.553.447-1 1-1s1 .447 1 1c0 9.374-7.626 17-17 17z"/><path d="m48 43.996c-.553 0-1-.447-1-1 0-17.092-13.906-30.998-31-30.998-.553 0-1-.448-1-1s.447-1 1-1c18.196 0 33 14.803 33 32.998 0 .553-.447 1-1 1z"/><path d="m32.001 16.272c-.346 0-.682-.179-.867-.5-.276-.479-.112-1.09.366-1.366 4.991-2.884 10.696-4.409 16.5-4.409.553 0 1 .448 1 1s-.447 1-1 1c-5.452 0-10.813 1.432-15.5 4.14-.157.092-.329.135-.499.135z"/><path d="m16 48c-.553 0-1-.447-1-1v-36.002c0-.552.447-1 1-1s1 .448 1 1v36.002c0 .553-.447 1-1 1z"/><path d="m48 48c-.553 0-1-.447-1-1v-36.002c0-.552.447-1 1-1s1 .448 1 1v36.002c0 .553-.447 1-1 1z"/><path d="m20.125 12.262c-.048 0-.096-.003-.145-.01-.547-.08-.926-.587-.846-1.134.922-6.338 6.453-11.118 12.866-11.118 6.414 0 11.944 4.78 12.863 11.118.08.546-.299 1.054-.846 1.133-.549.073-1.054-.299-1.133-.846-.778-5.362-5.456-9.405-10.884-9.405-5.427 0-10.106 4.043-10.887 9.406-.072.497-.499.856-.988.856z"/><path d="m32 16.272c-.553 0-1-.448-1-1v-14.272c0-.552.447-1 1-1s1 .448 1 1v14.272c0 .553-.447 1-1 1z"/><path d="m26 13.589c-.553 0-1-.448-1-1v-9.983c0-.552.447-1 1-1s1 .448 1 1v9.982c0 .553-.447 1.001-1 1.001z"/><path d="m38.001 13.589c-.553 0-1-.448-1-1v-9.983c0-.552.447-1 1-1s1 .448 1 1v9.982c0 .553-.447 1.001-1 1.001z"/><path d="m42.91 9h-21.821c-.553 0-1-.448-1-1s.447-1 1-1h21.821c.553 0 1 .448 1 1s-.447 1-1 1z"/></svg>