<?xml version="1.0" encoding="iso-8859-1"?>
<!-- Generator: Adobe Illustrator 19.0.0, SVG Export Plug-In . SVG Version: 6.00 Build 0)  -->
<svg version="1.1" id="Layer_1" xmlns="http://www.w3.org/2000/svg" xmlns:xlink="http://www.w3.org/1999/xlink" x="0px" y="0px"
	 viewBox="0 0 511.984 511.984" style="enable-background:new 0 0 511.984 511.984;" xml:space="preserve">
<path style="fill:#FFE7B0;" d="M412.378,199.993l-29.265-53.998L333.38,83.997l-41.998-7.999l-39.999,12.999l-38.92,49.998
	l-39.077,84.998l-23.999,74.669l9.999,104.325l21,53.999l46.998,28.998l57.998,9l85.997-12c0,0,49.999-41.998,50.999-45.654
	s18.999-74.342,18.999-74.342v-83.997L412.378,199.993z"/>
<polygon style="fill:#A0D468;" points="253.383,41.999 192.885,59.498 153.387,84.497 93.388,137.496 181.386,132.996 
	226.384,114.996 276.46,73.998 284.382,48.498 "/>
<path style="fill:#965353;" d="M362.63,288.991l-24.25-39.749l-37.248-13.75l-32.25,8.25l-21.749,12.25l-16.749,45.248l4.25,63.998
	l23.999,42.249l40.999,19.749l36.248-14.749c0,0,22-34.249,22.5-35.749s12.249-43.748,12.249-43.748L362.63,288.991z"/>
<path d="M308.459,65.279V10.656c0-5.875-4.78-10.656-10.671-10.656s-10.672,4.781-10.672,10.656v25.858
	c-6.844-4.203-16.641-6.297-28.296-6.297c-19.358,0-43.858,5.781-68.623,17.233C141.808,69.842,54.968,157.526,54.968,157.526
	s91.028-7,147.276-23.218c-38.343,57.045-65.217,135.887-65.217,185.682c0,141.37,61.623,191.994,159.995,191.994
	c98.371,0,159.994-50.624,159.994-191.994C457.016,238.961,384.55,81.013,308.459,65.279z M217.43,106.309
	c-21.874,10.124-64.091,17.905-101.668,23.077c28.265-25.296,61.514-52.452,83.388-62.576c20.968-9.688,42.702-15.25,59.67-15.25
	c10.983,0,16.202,2.312,17.64,3.438c-0.094,1.781-1.703,7.469-9.047,16.016c-13.249,6.296-26.201,16.53-38.482,29.515
	C225.212,102.544,221.384,104.481,217.43,106.309z M398.159,454.611c-22.155,24.248-55.232,36.029-101.137,36.029
	s-78.998-11.781-101.138-36.029c-11.89-13-21.046-30.172-27.249-51.062c-6.828-22.968-10.281-51.092-10.281-83.56
	c0-18.594,4.484-43.343,12.641-69.686c8.469-27.437,20.28-55.061,34.155-79.904c14.624-26.187,30.843-47.904,46.873-62.748
	c19.905-18.452,35.062-22.312,44.28-22.312c16.749,0,33.467,12.156,44.561,22.343c16.188,14.906,32.562,36.624,47.342,62.811
	c14.062,24.875,26.047,52.499,34.656,79.889c8.265,26.358,12.827,51.076,12.827,69.607c0,32.468-3.453,60.592-10.296,83.56
	C419.206,424.439,410.034,441.611,398.159,454.611z"/>
<path d="M297.788,223.993c-47.124,0-85.325,47.749-85.325,106.653c0,58.92,38.201,106.684,85.325,106.684
	c47.123,0,85.325-47.764,85.325-106.684C383.113,271.742,344.911,223.993,297.788,223.993z M361.77,330.646
	c0,12.077-1.875,23.748-5.562,34.686c-3.5,10.344-8.469,19.562-14.75,27.422c-11.984,14.983-27.499,23.232-43.67,23.232
	c-16.172,0-31.703-8.249-43.671-23.232c-6.281-7.859-11.249-17.078-14.749-27.422c-3.688-10.938-5.578-22.608-5.578-34.686
	c0-12.062,1.891-23.719,5.578-34.672c3.5-10.343,8.468-19.562,14.749-27.42c11.968-14.969,27.499-23.219,43.671-23.219
	c16.171,0,31.686,8.25,43.67,23.219c6.281,7.858,11.25,17.077,14.75,27.42C359.895,306.928,361.77,318.584,361.77,330.646z"/>
<path d="M297.788,255.992L297.788,255.992L297.788,255.992c-0.016,0-0.016,0-0.016,0l0,0c-29.438,0-53.311,33.437-53.311,74.654
	c0,5.906,4.78,10.687,10.655,10.687c5.905,0,10.671-4.78,10.671-10.687c0-15.297,4.25-30.031,11.641-40.39
	c3.469-4.828,10.688-12.922,20.359-12.922l0,0c5.891-0.016,10.671-4.78,10.671-10.687
	C308.459,260.773,303.679,255.992,297.788,255.992z"/>
<g>
</g>
<g>
</g>
<g>
</g>
<g>
</g>
<g>
</g>
<g>
</g>
<g>
</g>
<g>
</g>
<g>
</g>
<g>
</g>
<g>
</g>
<g>
</g>
<g>
</g>
<g>
</g>
<g>
</g>
</svg>
