<?xml version="1.0" encoding="iso-8859-1"?>
<!-- Generator: Adobe Illustrator 19.0.0, SVG Export Plug-In . SVG Version: 6.00 Build 0)  -->
<svg version="1.1" id="Layer_1" xmlns="http://www.w3.org/2000/svg" xmlns:xlink="http://www.w3.org/1999/xlink" x="0px" y="0px"
	 viewBox="0 0 511.983 511.983" style="enable-background:new 0 0 511.983 511.983;" xml:space="preserve">
<polygon style="fill:#FFCE54;" points="490.641,175.979 456.641,167.307 442.642,186.65 418.643,213.978 381.316,255.992 
	305.319,295.303 244.657,308.646 156.66,308.646 69.998,291.974 33.999,281.304 33.999,300.646 70.662,348.645 121.332,381.301 
	199.993,408.643 280.647,408.643 374.645,377.301 475.986,295.303 502.641,224.649 "/>
<g>
	<polygon style="fill:#F6BB42;" points="284.647,264.633 178.66,250.633 112.66,227.962 33.999,179.307 12,187.306 26.663,217.305 
		63.998,272.445 105.028,298.709 180.66,308.646 268.319,303.443 340.646,284.632 392.643,236.634 	"/>
	<polygon style="fill:#F6BB42;" points="472.658,105.309 459.986,163.964 490.658,167.307 498.656,119.309 	"/>
</g>
<path d="M500.75,181.807c-4-5.297,11.233-69.811,11.233-69.811l-53.592-22.233c0,33.779-2.891,65.56-7.891,68.841
	s-12.546,10.375-12.546,10.375c-10.108,16.437-20.812,30.999-31.999,43.89c-46.076,30.265-93.263,41.576-138.012,41.576
	c-131.698,0-242.375-97.778-242.375-97.778s-0.023-0.016-0.078-0.016c-0.625,0-5.055,0.562-16.398,14.828
	c-12.304,15.499-8.555,19.124-8.555,19.124c13.219,30.655,29.132,56.748,47.03,78.732c-8.812-3.859-13.718-6.422-13.718-6.422
	s-4.203,0.344-12.539,18.28c-8.328,17.937-3.828,20.593-3.828,20.593C82.856,388.862,164.729,422.22,242.789,422.22
	c143.557,0,274.319-112.762,266.366-211.57C509.155,210.65,504.734,187.088,500.75,181.807z M478.861,121.356l8.375,3.468
	c-1.047,4.875-2.203,10.375-3.297,15.969c-1.719,8.75-3.031,16.218-3.891,22.249c-2.062-0.875-4.297-1.688-6.719-2.406
	c2.031-6.156,3.234-13.687,4.203-22.749C478.079,132.887,478.516,127.324,478.861,121.356z M27.218,197.588
	c3.453-0.828,6.289-3.328,7.523-6.672c12.898,9.391,30.702,21.344,52.295,33.28c26.858,14.891,54.115,26.749,81.029,35.296
	c34.045,10.797,67.646,16.266,99.879,16.266c27.156,0,53.608-3.891,78.92-11.594c-46.576,29.436-96.505,39.295-142.519,39.295
	c-42.42,0-81.49-8.375-111.504-17.515C66.529,262.633,44.561,233.071,27.218,197.588z M478.689,262.148
	c-7.453,17.452-18.922,34.639-34.093,51.076c-23.437,25.405-53.937,47.029-88.169,62.498
	c-36.421,16.469-75.717,25.155-113.637,25.155c-53.506,0-129.707-17.312-196.494-97.091c3.797-1.375,6.594-4.844,6.984-9
	c7.016,2.75,15.125,5.719,24.179,8.672c18.867,6.172,38.022,11.109,56.959,14.641c23.796,4.438,47.327,6.688,69.927,6.688
	c47.936,0,92.162-10.047,131.457-29.859c47.03-23.717,86.967-61.45,118.73-112.198c1.219-1.094,2.609-2.312,3.922-3.406
	c11.141,1.234,18.203,5.562,21.625,8.265c0.641,2.016,1.531,3.953,2.766,5.828c1.25,3.031,3.562,12.062,5.125,20.031
	C489.016,228.915,485.891,245.305,478.689,262.148z"/>
<path d="M437.314,272.445c-3.344,0-6.328,1.531-8.28,3.952l-0.016-0.016c-21.781,26.937-46.999,48.249-74.951,63.311
	c-24.297,13.094-50.889,21.624-78.998,25.327c-62.576,8.266-113.246-9.156-132.214-17.062c-1.289-0.547-2.703-0.859-4.195-0.859
	c-5.89,0-10.664,4.781-10.664,10.655c0,4.438,2.719,8.25,6.57,9.859c16.75,6.984,56.482,20.891,107.403,20.891
	c11.445,0,23.452-0.688,35.897-2.328c30.687-4.047,59.732-13.375,86.326-27.703c30.42-16.405,57.795-39.467,81.355-68.591l0,0
	c0.016-0.031,0.047-0.047,0.062-0.062v-0.016c1.484-1.828,2.375-4.172,2.375-6.703C447.986,277.21,443.206,272.445,437.314,272.445z
	"/>
<g>
</g>
<g>
</g>
<g>
</g>
<g>
</g>
<g>
</g>
<g>
</g>
<g>
</g>
<g>
</g>
<g>
</g>
<g>
</g>
<g>
</g>
<g>
</g>
<g>
</g>
<g>
</g>
<g>
</g>
</svg>
