<?xml version="1.0" encoding="iso-8859-1"?>
<!-- Generator: Adobe Illustrator 19.0.0, SVG Export Plug-In . SVG Version: 6.00 Build 0)  -->
<svg version="1.1" id="Layer_1" xmlns="http://www.w3.org/2000/svg" xmlns:xlink="http://www.w3.org/1999/xlink" x="0px" y="0px"
	 viewBox="0 0 511.984 511.984" style="enable-background:new 0 0 511.984 511.984;" xml:space="preserve">
<polygon style="fill:#D63A5F;" points="381.991,240.492 362.492,205.493 304.494,184.994 266.494,184.994 189.497,190.994 
	132.999,218.493 119.5,286.491 145.124,355.988 195.232,416.486 250.995,436.486 297.494,419.986 359.992,368.488 396.49,291.49 "/>
<polygon style="fill:#A0D468;" points="263.494,90.497 266.994,20.999 230.997,38.499 227.497,134.996 195.232,144.995 
	195.232,187.494 294.994,176.494 297.494,109.996 "/>
<path d="M405.303,277.335c0-60.967-42.389-92.466-101.309-102.763V99.544l-5.344-3.547V31.999c0-5.891-4.766-10.672-10.656-10.672
	s-10.672,4.781-10.672,10.672v49.779l-5.328-3.562V0l-53.326,35.562v85.31l-5.336,3.562V95.997c0-5.906-4.773-10.672-10.664-10.672
	c-5.89,0-10.663,4.766-10.663,10.672v42.654l-5.336,3.562v37.249c-47.553,13.781-79.989,44.546-79.989,97.872
	c0,77.278,77.411,154.526,132.809,168.433c-1.062,3.75-1.641,7.812-1.266,12c0.695,7.843,4.562,14.733,11.179,19.936
	c3.117,2.453,3.602,4.344,3.695,5.562c0.297,3.844-3.133,8.875-4.844,10.719l0.055-0.062h0.008
	c-1.844,1.938-2.983,4.531-2.983,7.406c0,5.875,4.772,10.656,10.663,10.656c3.023,0,5.741-1.25,7.679-3.281h0.008
	c1.203-1.25,11.688-12.594,10.703-26.875c-0.391-5.609-2.758-13.78-11.797-20.89c-2.53-1.983-2.991-3.733-3.116-5.015
	c-0.234-2.5,0.727-5.469,2.054-8.219C317.009,442.392,405.303,359.863,405.303,277.335z M282.65,110.965v60.842
	c-3.5-0.312-7.062-0.531-10.656-0.719v-67.247L282.65,110.965z M239.997,46.967l10.663-7.108v24.14v106.746
	c-3.586,0.047-7.14,0.156-10.663,0.344v-64.435V46.967z M208.005,153.62l10.664-7.109v26.452c-3.609,0.469-7.172,1-10.664,1.609
	V153.62z M219.965,414.736c-15.023-8.468-30.163-20.482-43.771-34.779c-14.414-15.141-26.421-32.187-34.718-49.279
	c-8.937-18.406-13.468-36.344-13.468-53.343c0-28.687,11.062-49.623,33.812-63.998c22.039-13.937,54.6-21.312,94.177-21.312
	s72.138,7.375,94.185,21.312c22.749,14.375,33.811,35.312,33.811,63.998c0,16.999-4.53,34.937-13.468,53.343
	c-8.312,17.093-20.312,34.139-34.718,49.279c-13.625,14.297-28.749,26.312-43.779,34.779c-13.656,7.688-26.445,11.922-36.03,11.922
	c-1.727,0-3.562-0.141-5.484-0.422l-0.141-0.109c-0.016,0.016-0.055,0.062-0.078,0.094
	C241.59,424.955,231.059,420.986,219.965,414.736z"/>
<path d="M240.036,384.832v-0.016c-22.492-13.109-40.141-28.453-52.452-45.577c-9.687-13.468-16.132-28.124-19.155-43.546
	c-5.195-26.545,1.578-46.623,1.641-46.826h-0.008c0.391-1.094,0.609-2.281,0.609-3.516c0-5.891-4.773-10.672-10.664-10.672
	c-4.641,0-8.57,2.969-10.039,7.094h-0.016c-0.352,1-8.617,24.844-2.695,56.764c3.46,18.641,11.031,36.297,22.507,52.452
	c14.102,19.858,34.123,37.437,59.529,52.248l0,0c1.578,0.922,3.414,1.469,5.375,1.469c5.891,0,10.664-4.781,10.664-10.671
	C245.333,390.113,243.199,386.676,240.036,384.832z"/>
<g>
</g>
<g>
</g>
<g>
</g>
<g>
</g>
<g>
</g>
<g>
</g>
<g>
</g>
<g>
</g>
<g>
</g>
<g>
</g>
<g>
</g>
<g>
</g>
<g>
</g>
<g>
</g>
<g>
</g>
</svg>
