<?xml version="1.0" encoding="iso-8859-1"?>
<!-- Generator: Adobe Illustrator 19.0.0, SVG Export Plug-In . SVG Version: 6.00 Build 0)  -->
<svg version="1.1" id="Layer_1" xmlns="http://www.w3.org/2000/svg" xmlns:xlink="http://www.w3.org/1999/xlink" x="0px" y="0px"
	 viewBox="0 0 511.985 511.985" style="enable-background:new 0 0 511.985 511.985;" xml:space="preserve">
<polygon style="fill:#E9573F;" points="438.002,142.323 418.675,132.324 83.341,135.652 68.013,156.307 61.342,196.306 
	55.342,271.633 77.341,382.957 129.011,476.297 153.791,488.297 354.677,488.297 397.331,462.954 433.33,388.957 454.673,283.632 
	454.673,182.978 "/>
<polygon style="fill:#FC6E51;" points="371.004,138.307 345.505,120.808 255.992,116.308 164.01,120.808 145.011,129.308 
	135.011,149.339 129.011,199.306 129.011,276.804 135.511,364.801 164.01,468.798 198.509,501.297 235.508,501.297 318.506,501.297 
	342.505,454.299 381.004,280.304 "/>
<polygon style="fill:#A0D468;" points="334.02,10.312 309.349,20.968 274.022,40.311 244.023,70.967 220.024,113.637 
	283.35,113.637 290.679,80.309 342.677,34.311 "/>
<path d="M416.112,120.48h-45.687c-8.608-8.672-20.155-13.812-35.562-13.812h-43.889c7.234-46.515,70.514-63.998,70.514-63.998
	L340.145,0c0,0-103.06,10.766-123.403,106.669h-39.733c-17,0-29.265,5.015-38.108,13.812h-42.78
	c-96.168,0-53.514,378.316,63.998,378.316h16.718c8.296,8.375,17.375,13.188,27.187,13.188h103.825
	c9.203,0,17.78-4.844,25.671-13.188h18.594C469.266,498.797,511.936,120.48,416.112,120.48z M249.195,79.888
	c8.36-14.812,20.421-27.374,35.89-37.326c15.766-10.156,32.062-15.656,43.232-18.516l3.656,7.312
	c-2.359,1.141-4.812,2.375-7.328,3.734c-9.812,5.312-18.529,11.343-25.904,17.952c-9.828,8.797-17.344,18.609-22.359,29.218
	c-3.672,7.766-5.984,15.953-6.922,24.406h-30.796C241.086,96.997,244.601,88.044,249.195,79.888z M126.652,459.736
	c-11.812-12.641-23.077-31.844-32.577-55.53c-9.187-22.905-16.781-50.14-21.937-78.716c-5.031-27.859-7.688-56.529-7.688-82.873
	c0-32.124,4.016-60.061,11.328-78.622c3.234-8.219,7.078-14.531,11.125-18.266c2.984-2.734,5.734-3.922,9.218-3.922h29.655
	c-12.359,32.858-8.484,84.404-8.484,135.559c0,59.437,15.703,150.745,43.92,200.087h-1.094
	C148.917,477.453,137.667,471.485,126.652,459.736z M204.024,490.656c-5.265,0-12.25-5.672-19.14-15.577
	c-8.734-12.547-17.155-31.53-24.374-54.874c-13.296-43.045-21.875-99.105-21.875-142.839c0-10.155-0.156-20.374-0.297-30.233
	c-0.39-26.296-0.765-51.139,1.672-71.764c2.312-19.608,6.812-32.562,13.765-39.607c3.281-3.328,9.266-7.766,23.234-7.766h157.854
	c5.594,0,13.812,0.781,20.516,7.609c8.141,8.265,13.655,24.046,16.421,46.889c2.75,22.843,2.312,49.061,1.922,72.186
	c-0.141,7.969-0.266,15.5-0.266,22.655c0,15.171-2.047,37.124-5.624,60.217c-4.078,26.249-9.766,52.171-16.453,74.936
	c-7.5,25.546-16.109,46.437-24.906,60.42c-8.249,13.108-15.187,17.749-18.624,17.749H204.024V490.656z M417.956,404.143
	c-9.484,23.718-20.719,42.937-32.516,55.593c-10.968,11.749-22.186,17.717-33.326,17.717h-3.562
	c29.64-53.373,46.232-154.479,46.232-200.118c0-40.483,4.25-98.622-10.844-135.527h32.172c2.281,0,5.375,0.438,9.078,3.875
	c4.031,3.734,7.843,10.031,11.062,18.219c7.281,18.546,11.28,46.436,11.28,78.497c0,26.375-2.656,55.061-7.671,82.936
	C434.705,353.941,427.128,381.191,417.956,404.143z"/>
<path d="M222.399,463.798c-15.937-26.296-28.046-58.404-35.983-95.435c-6.421-29.937-10.14-63.092-11.062-98.559
	c-1.578-60.718,5.719-107.669,5.797-108.122l-0.016-0.016c0.078-0.547,0.141-1.094,0.141-1.672c0-5.875-4.781-10.656-10.672-10.656
	c-5.312,0-9.718,3.906-10.515,9h-0.016c-0.312,1.969-7.64,48.998-6.062,111.591c0.938,36.857,4.812,71.403,11.5,102.684
	c8.437,39.437,21.437,73.842,38.639,102.247l0.016-0.016c1.859,3.077,5.234,5.14,9.109,5.14c5.89,0,10.671-4.765,10.671-10.655
	c0-2.031-0.578-3.906-1.562-5.531L222.399,463.798L222.399,463.798z"/>
<g>
</g>
<g>
</g>
<g>
</g>
<g>
</g>
<g>
</g>
<g>
</g>
<g>
</g>
<g>
</g>
<g>
</g>
<g>
</g>
<g>
</g>
<g>
</g>
<g>
</g>
<g>
</g>
<g>
</g>
</svg>
