<?xml version="1.0" encoding="iso-8859-1"?>
<!-- Generator: Adobe Illustrator 19.0.0, SVG Export Plug-In . SVG Version: 6.00 Build 0)  -->
<svg version="1.1" id="Layer_1" xmlns="http://www.w3.org/2000/svg" xmlns:xlink="http://www.w3.org/1999/xlink" x="0px" y="0px"
	 viewBox="0 0 511.982 511.982" style="enable-background:new 0 0 511.982 511.982;" xml:space="preserve">
<polygon style="fill:#F4B68C;" points="471.984,315.985 399.986,272.487 288.99,255.979 170.635,262.479 106.496,277.486 
	51.998,308.985 12.999,349.484 12.999,396.983 42.498,422.981 122.496,427.481 461.484,422.481 488.484,406.482 502.483,364.983 "/>
<path d="M255.991,245.324C114.605,245.324,0,290.83,0,373.327c0,0,0,63.998,63.997,63.998c85.326,0,301.132,0,383.987,0
	c63.998,0,63.998-63.998,63.998-63.998C511.982,290.83,397.377,245.324,255.991,245.324z M484.39,396.764
	c-6.969,13.124-18.531,19.217-36.406,19.217h-10.671c0-5.905-4.766-10.655-10.655-10.655c-5.891,0-10.672,4.75-10.672,10.655
	h-21.328c0-5.905-4.781-10.655-10.672-10.655c-5.89,0-10.671,4.75-10.671,10.655h-21.327c0-5.905-4.781-10.655-10.672-10.655
	s-10.656,4.75-10.656,10.655h-21.343c0-5.905-4.765-10.655-10.655-10.655s-10.672,4.75-10.672,10.655h-21.328
	c0-5.905-4.781-10.655-10.671-10.655c-5.891,0-10.671,4.75-10.671,10.655h-21.328c0-5.905-4.781-10.655-10.671-10.655
	c-5.891,0-10.656,4.75-10.656,10.655h-21.343c0-5.905-4.766-10.655-10.656-10.655s-10.672,4.75-10.672,10.655h-21.327
	c0-5.905-4.781-10.655-10.672-10.655c-5.89,0-10.671,4.75-10.671,10.655H95.996c0-5.905-4.78-10.655-10.671-10.655
	s-10.656,4.75-10.656,10.655H63.997c-17.874,0-29.437-6.093-36.404-19.217c-5.828-10.969-6.234-22.781-6.266-23.562
	c0.031-15.125,5.047-28.593,15.312-41.186c10.625-13.031,26.577-24.562,47.39-34.312c17.53-8.187,38.124-14.905,61.029-19.937
	c-5.172,25.343,4.844,45.874,5.406,46.999l0,0c1.75,3.469,5.358,5.875,9.53,5.875c5.891,0,10.672-4.781,10.672-10.656
	c0-1.719-0.422-3.344-1.141-4.781l0,0c-0.109-0.219-9.719-19.938-0.922-41.904c20.343-3.289,42.108-5.398,64.842-6.227
	c-11.172,30.006,1.703,56.412,2.344,57.693h0.016c1.75,3.469,5.344,5.875,9.516,5.875c5.89,0,10.671-4.781,10.671-10.656
	c0-1.719-0.422-3.344-1.141-4.781h0.016c-0.125-0.25-11.749-24.062,2.266-48.537c21.015,0.031,41.343,1.125,60.67,3.188
	c-9.406,28.85,2.703,53.662,3.312,54.912h0.016c1.749,3.469,5.358,5.875,9.53,5.875c5.891,0,10.656-4.781,10.656-10.656
	c0-1.719-0.406-3.344-1.141-4.781h0.016c-0.109-0.219-9.906-20.281-0.688-42.529c33.999,5.218,64.186,13.687,88.451,25.029
	c20.811,9.75,36.764,21.281,47.389,34.312c10.266,12.593,15.281,26.061,15.312,41.186
	C490.625,373.983,490.219,385.796,484.39,396.764z"/>
<path d="M304.365,184.216c2.328,8.094,6.843,13.828,7.343,14.453l0,0c1.953,2.437,4.953,3.984,8.312,3.984
	c5.874,0,10.655-4.765,10.655-10.671c0-2.531-0.891-4.859-2.359-6.688l0,0l0.062,0.062c-0.031-0.031-2.547-3.281-3.625-7.468
	c-1.125-4.344-0.281-7.516,2.812-10.625c8.656-8.688,11.531-19.984,8.078-31.812c-2.328-7.922-6.797-13.531-7.391-14.25
	c-0.016,0-0.016,0-0.016,0l-0.016-0.031l0,0c-1.953-2.344-4.906-3.844-8.202-3.844c-5.906,0-10.672,4.766-10.672,10.656
	c0,2.594,0.922,4.969,2.453,6.812l0,0c0.016,0.031,2.266,2.938,3.359,6.656c1.281,4.359,0.469,7.578-2.703,10.766
	C303.818,160.888,300.943,172.263,304.365,184.216z"/>
<path d="M226.82,177.31c3.172,11.953,9.297,20.234,9.984,21.14l0.016-0.016c1.953,2.562,5.016,4.218,8.484,4.218
	c5.89,0,10.655-4.765,10.655-10.671c0-2.406-0.797-4.625-2.141-6.406l0,0c-0.047-0.062-4.484-6.093-6.531-14.312
	c-2.452-9.843-0.5-18.187,6-25.546c11.39-12.89,15.03-28.702,10.499-45.717c-3.171-11.953-9.312-20.234-9.999-21.14l0,0
	c-1.953-2.546-5.031-4.203-8.483-4.203c-5.891,0-10.672,4.765-10.672,10.671c0,2.406,0.812,4.625,2.156,6.406h-0.016
	c0.047,0.062,4.5,6.093,6.547,14.312c2.452,9.843,0.484,18.187-6.016,25.53C225.914,144.483,222.289,160.295,226.82,177.31z"/>
<path d="M154.994,184.216c2.328,8.094,6.828,13.828,7.344,14.453l0,0c1.953,2.437,4.938,3.984,8.297,3.984
	c5.891,0,10.672-4.765,10.672-10.671c0-2.531-0.891-4.859-2.375-6.688h0.016l0.047,0.062c-0.016-0.031-2.531-3.281-3.609-7.468
	c-1.125-4.344-0.281-7.516,2.812-10.625c8.655-8.688,11.515-19.984,8.062-31.812c-2.312-7.922-6.796-13.531-7.39-14.25l0,0
	l-0.016-0.031l0,0c-1.953-2.344-4.906-3.844-8.219-3.844c-5.891,0-10.672,4.766-10.672,10.656c0,2.594,0.938,4.969,2.469,6.812l0,0
	c0.016,0.031,2.266,2.938,3.359,6.656c1.266,4.359,0.469,7.578-2.703,10.766C154.431,160.888,151.573,172.263,154.994,184.216z"/>
<g>
</g>
<g>
</g>
<g>
</g>
<g>
</g>
<g>
</g>
<g>
</g>
<g>
</g>
<g>
</g>
<g>
</g>
<g>
</g>
<g>
</g>
<g>
</g>
<g>
</g>
<g>
</g>
<g>
</g>
</svg>
