<?xml version="1.0" encoding="iso-8859-1"?>
<!-- Generator: Adobe Illustrator 19.0.0, SVG Export Plug-In . SVG Version: 6.00 Build 0)  -->
<svg version="1.1" id="Layer_1" xmlns="http://www.w3.org/2000/svg" xmlns:xlink="http://www.w3.org/1999/xlink" x="0px" y="0px"
	 viewBox="0 0 511.984 511.984" style="enable-background:new 0 0 511.984 511.984;" xml:space="preserve">
<polygon style="fill:#8CC153;" points="423.315,92.763 371.988,14.094 358.661,24.093 325.989,24.093 290.663,14.094 
	227.993,24.093 188.666,497.422 291.319,497.422 332.661,477.422 367.989,442.08 394.659,325.428 415.315,207.43 426.659,142.761 
	"/>
<path style="fill:#A0D468;" d="M247.328,373.441l-11.664-42.686l34.998-47.327l-2-20.671l8-31.312c0,0-23.999-23.343-25.999-23.343
	s5.329-25.999,5.329-25.999l25.327-39.999l-20.655-42.67l17.327-19.328V63.435l-21.999-23.499l-65.998-16l-36.663-3.141l-24,12
	L97.333,98.122L83.998,240.117l25.335,153.324l47.334,82.668l51.999,24.672h56.661l15.992-16l-11.992-53.998L247.328,373.441z"/>
<path d="M377.472,0.625C377.128,0.187,376.613,0,375.956,0c-4.562,0-16.312,9.812-31.405,19.218
	C306.663,4.109,272.46,4.25,249.969,7.219c-16.187,2.141-28.687,5.969-35.967,8.624c-19.937-6.999-41.406-15.671-50.624-15.671
	c-1.055,0-1.953,0.109-2.664,0.359c-77.31,26.343-82.865,119.184-85.997,204.556C71.576,290.429,89.17,501.266,214.9,511.219
	c1.516,0.109,3.008,0.219,4.469,0.312c1.203,0.141,2.508,0.219,3.93,0.219c0.062,0,0.125,0,0.188,0
	c3.297,0.156,6.453,0.234,9.46,0.234c6.508,0,12.359-0.344,17.601-1.031c129.738-8,128.16-76.545,156.299-191.182
	C444.299,167.214,460.829,104.653,377.472,0.625z M318.068,32.78c-8.734,6.125-3.125,25.937-11.234,25.937c-0.062,0-0.108,0-0.171,0
	c-0.688-0.031-1.359-0.031-2.031-0.031c-3.609,0-7.203,0.312-10.797,0.906c-16.953-11.766-20.75-25.702-34.327-31.968
	C279.335,25.811,298.929,27.53,318.068,32.78z M96.036,205.868c1.602-43.451,3.891-85.247,14.257-118.918
	c10.586-34.39,27.937-55.201,54.475-65.201c6.015,1.156,19.835,6.188,29.288,9.594c19.007,6.906,36.967,13.422,50.53,14.375
	c6.796,0.499,8.117,1.874,14.952,10.108c3.601,4.328,7.983,9.625,14.062,14.969c-10.976,8.327-23.608,20.171-23.865,38.138
	c-0.211,14.406,7.5,27.469,23.569,39.937c-0.469,0.688-1.078,1.5-1.867,2.484c-2.578,3.188-6.047,6.734-9.406,10.156
	c-10.803,11.046-23.045,23.546-21.295,40.389c0.68,6.547,3.828,15.906,14.937,23.312c6.28,4.203,8.499,6.921,9.178,7.921
	c-0.367,1.469-1.578,4.281-2.422,6.234c-3.608,8.359-10.584,24.547-1.555,42.468c-2.163,2.844-5.069,6.312-7.28,8.938
	c-14.32,17.046-35.96,42.796-25.022,72.06c5.023,13.438,10.984,27.062,16.757,40.249c8.523,19.483,16.584,37.905,20.748,53.53
	c3.289,12.296,3.109,19.076,2.164,22.748c-3.289,3.219-6.68,5.938-10.171,8.188l0.07,0.109c-3.539,1.125-7.796,1.922-12.733,2.422
	c-59.444-81.435-84.193-170.963-73.545-266.257c8.156-73.014,35.21-122.23,35.483-122.715h-0.008
	c0.867-1.547,1.359-3.312,1.359-5.203c0-5.891-4.773-10.672-10.664-10.672c-4,0-7.484,2.203-9.312,5.453l0,0
	c-0.016,0.031-0.031,0.062-0.055,0.094c-0.008,0.031-0.016,0.047-0.031,0.062c-2.039,3.688-29.233,53.936-37.874,129.684
	c-2.641,23.124-3.25,46.187-1.836,68.998c-13.539-23.624-15.734-44.78-15.765-45.093h-0.008c-0.492-5.422-5.055-9.688-10.617-9.688
	c-5.891,0-10.672,4.781-10.672,10.688c0,0.312,0.023,0.625,0.047,0.938l0,0c0,0.031,0.008,0.078,0.008,0.125
	c0,0,0,0.031,0.008,0.031c0.328,3.438,5.289,47.795,41.756,84.076c1.352,7.89,2.938,15.733,4.789,23.514
	c11.218,47.437,31.663,93.092,60.873,136.027c-0.914-0.062-1.828-0.125-2.758-0.188c-23.749-1.891-43.663-12.562-60.873-32.654
	c-15.757-18.375-28.819-44.327-38.827-77.092C98.95,321.428,94.357,251.601,96.036,205.868z M133.16,244.461L133.16,244.461
	L133.16,244.461L133.16,244.461z M387.3,309.896l-1.172,4.781c-3.358,13.688-6.249,26.515-9.062,38.904
	c-10.343,45.843-18.515,82.061-38.187,104.029c-9.688,10.796-22.015,18.311-38.826,23.623c-2.203,0.719-4.516,1.375-6.875,1.984
	c25.093-32.514,43.139-88.793,53.842-168.041c38.639-66.561,42.092-110.185,42.217-112.028h-0.016
	c0.016-0.25,0.047-0.484,0.047-0.734c0-5.89-4.781-10.671-10.671-10.671c-5.625,0-10.234,4.359-10.624,9.89h-0.016
	c-0.031,0.281-1.688,19.703-14.5,52.015c4.906-63.545,3.953-114.653,3.938-115.278l0,0c-0.125-5.796-4.844-10.468-10.656-10.468
	c-5.906,0-10.672,4.781-10.672,10.687c0,0.062,0,0.125,0,0.219l0,0c0.016,0.734,1.391,75.639-8.031,156.339
	c-8.296,71.029-22.154,124.527-40.748,158.246c-7.188-28.875-26.234-64.592-38.725-98.029
	c-11.664-31.217,45.491-64.372,34.506-78.263c-20.586-26.046,27.905-40.624-15.555-69.639
	c-27.092-18.077,54.803-47.998,19.445-74.997c-33.194-25.343-6.516-40.015,9.031-51.593c2.938-0.562,5.812-0.844,8.641-0.844
	c0.453,0,0.906,0,1.375,0.016c0.281,0.016,0.547,0.016,0.827,0.016c10.75,0,19.905-6.499,23.89-16.937
	c1.672-4.406,2.203-8.734,2.672-12.547c0.062-0.391,0.109-0.844,0.172-1.297c14.719-6.405,27.672-15.28,37.483-22.03
	c14.015,18.937,24.374,36.468,31.483,53.279c8.359,19.75,12.672,39.062,13.547,60.826C417.878,185.416,405.05,237.633,387.3,309.896
	z"/>
<g>
</g>
<g>
</g>
<g>
</g>
<g>
</g>
<g>
</g>
<g>
</g>
<g>
</g>
<g>
</g>
<g>
</g>
<g>
</g>
<g>
</g>
<g>
</g>
<g>
</g>
<g>
</g>
<g>
</g>
</svg>
