<?xml version="1.0" encoding="iso-8859-1"?>
<!-- Generator: Adobe Illustrator 19.0.0, SVG Export Plug-In . SVG Version: 6.00 Build 0)  -->
<svg version="1.1" id="Layer_1" xmlns="http://www.w3.org/2000/svg" xmlns:xlink="http://www.w3.org/1999/xlink" x="0px" y="0px"
	 viewBox="0 0 511.985 511.985" style="enable-background:new 0 0 511.985 511.985;" xml:space="preserve">
<path style="fill:#E9573F;" d="M351.335,162.324l-33.999-20.672c0,0-27.999-2.672-29.999-2.672l-42.678,37.343L82.663,353.645
	l-59.326,96.67l-7.336,31.998v18.656l29.335-6l69.998-41.326L371.99,228.978v-35.999L351.335,162.324z"/>
<path d="M501.33,63.999c-1.219,0-2.375,0.219-3.438,0.594l-0.016-0.016c-2.078,0.703-30.468,10.516-64.545,29.171l75.528-75.529
	c1.938-1.938,3.125-4.593,3.125-7.546c0-5.891-4.781-10.672-10.655-10.672c-2.953,0-5.625,1.203-7.562,3.125l0,0L386.489,110.434
	c9.312-16.718,16.219-31.702,21.25-43.904c12.016-29.187,15.906-48.78,16.406-51.404l0,0c0.016-0.141,0.031-0.25,0.047-0.281h-0.016
	c0.109-0.609,0.188-1.234,0.188-1.875c0-5.875-4.781-10.656-10.688-10.656c-5.25,0-9.594,3.797-10.484,8.781h-0.016
	c-0.031,0.188-3.531,19.202-15.469,48.029c-8.468,20.468-22.654,49.248-45.061,80.856c-13.031-8.562-27.765-13.78-42.311-13.78
	c-14.594,0.016-29.031,5.25-41.397,17.608c-90.505,90.513-294.53,321.85-253.571,362.817c3.664,3.672,8.852,5.359,15.328,5.359
	c65.904,0,265.078-176.525,347.481-258.93c25.171-25.171,20.843-58.857,2.844-85.185c48.077-25.688,108.091-37.64,108.716-37.765
	l0,0c4.906-0.953,8.625-5.266,8.625-10.469c0-5.891-4.781-10.672-10.688-10.672c-0.688,0-1.375,0.078-2.031,0.219v-0.016
	c-0.031,0.016-0.047,0.016-0.062,0.016c-0.031,0-0.062,0-0.078,0.016c-2.266,0.453-22.109,4.453-47.951,12.609
	c39.639-24.03,76.653-36.843,77.216-37.03v-0.016c4.187-1.438,7.218-5.406,7.218-10.093C511.985,68.78,507.204,63.999,501.33,63.999
	z M364.1,216.869c-1.109,7.891-4.703,14.796-11.016,21.093c-38.249,38.249-107.848,102.794-178.128,158.777
	C68.163,481.813,31,490.298,21.352,490.641c0.195-5.062,2.695-18.78,19.414-48.061c4.508-7.891,9.734-16.375,15.648-25.422
	c1.516,0.828,3.266,1.297,5.117,1.297c5.891,0,10.664-4.765,10.664-10.655c0-3.312-1.516-6.281-3.891-8.25
	c11.421-16.39,24.772-34.343,39.991-53.717c0.367-0.469,0.742-0.938,1.109-1.406c2.906,2.594,6.164,5.281,9.789,7.953l0.008-0.016
	c1.766,1.312,3.953,2.093,6.328,2.093c5.891,0,10.664-4.765,10.664-10.655c0-3.516-1.711-6.624-4.336-8.562l0.008-0.031
	c-3.445-2.531-6.477-5.062-9.125-7.5c14.312-17.703,29.375-35.625,44.515-53.154c4.226,4.312,9.507,9.077,15.937,13.827l0.008-0.016
	c1.765,1.312,3.953,2.094,6.328,2.094c5.891,0,10.664-4.766,10.664-10.656c0-3.516-1.71-6.624-4.335-8.562l0.008-0.016
	c-6.047-4.469-10.844-8.922-14.539-12.797c15.906-18.078,31.671-35.468,46.538-51.468c4.773,5.281,11.132,11.375,19.327,17.422
	l0.008-0.016c1.766,1.312,3.953,2.094,6.328,2.094c5.891,0,10.664-4.766,10.664-10.656c0-3.516-1.711-6.625-4.335-8.562l0.008-0.016
	c-7.657-5.656-13.352-11.312-17.344-15.89c11.382-12,22.015-22.937,31.507-32.437c7.656-7.656,16.25-11.375,26.281-11.375h0.016
	h0.016c11.03,0,23.279,4.625,34.498,13.031c11.266,8.421,20.578,20.124,25.531,32.108C363.85,201.056,365.147,209.431,364.1,216.869
	z"/>
<g>
</g>
<g>
</g>
<g>
</g>
<g>
</g>
<g>
</g>
<g>
</g>
<g>
</g>
<g>
</g>
<g>
</g>
<g>
</g>
<g>
</g>
<g>
</g>
<g>
</g>
<g>
</g>
<g>
</g>
</svg>
