<?xml version="1.0" encoding="iso-8859-1"?>
<!-- Generator: Adobe Illustrator 19.0.0, SVG Export Plug-In . SVG Version: 6.00 Build 0)  -->
<svg version="1.1" id="Layer_1" xmlns="http://www.w3.org/2000/svg" xmlns:xlink="http://www.w3.org/1999/xlink" x="0px" y="0px"
	 viewBox="0 0 511.982 511.982" style="enable-background:new 0 0 511.982 511.982;" xml:space="preserve">
<polygon style="fill:#F6BB42;" points="482.984,147.428 419.986,112.304 335.988,87.305 260.99,83.305 234.992,83.305 
	18.999,270.706 502.983,199.302 "/>
<polygon style="fill:#FFCE54;" points="8.999,277.306 8.999,425.302 502.983,361.96 502.983,207.301 "/>
<g>
	<path style="fill:#DD991F;" d="M155.994,342.804c0,9.656-7.687,17.499-17.163,17.499s-17.163-7.843-17.163-17.499
		c0-9.687,7.687-17.499,17.163-17.499S155.994,333.118,155.994,342.804z"/>
	<path style="fill:#DD991F;" d="M410.205,270.846c0,15.241-12.109,27.553-27.03,27.553c-14.906,0-27.015-12.312-27.015-27.553
		c0-15.219,12.108-27.546,27.015-27.546C398.095,243.3,410.205,255.628,410.205,270.846z"/>
	<path style="fill:#DD991F;" d="M274.521,169.208c0,9.688-12.094,17.531-27.007,17.531c-14.921,0-27.022-7.843-27.022-17.531
		c0-9.703,12.102-17.546,27.022-17.546C262.428,151.662,274.521,159.506,274.521,169.208z"/>
</g>
<path d="M275.865,73.837c-24.718,0-41.014,1.656-41.014,1.656L0,267.487v170.658l511.982-63.998V203.489
	C496.046,88.367,349.051,73.837,275.865,73.837z M243.195,96.242c6.616-0.469,18.146-1.062,32.67-1.062
	c35.624,0,87.451,3.516,132.012,20.281c23.265,8.75,41.951,20.25,55.529,34.124c12.578,12.859,20.859,27.671,25.172,44.999
	L42.513,260.3L243.195,96.242z M405.33,267.487c0,11.788-9.578,21.351-21.344,21.351c-11.765,0-21.342-9.562-21.342-21.351
	c0-11.75,9.577-21.328,21.342-21.328C395.752,246.159,405.33,255.737,405.33,267.487z M21.335,413.99v-58.499
	c5.891,0,10.663-4.78,10.663-10.655c0-5.906-4.772-10.687-10.663-10.687v-49.187l334.153-49.209
	c-8.688,7.812-14.156,19.14-14.156,31.734c0,23.569,19.094,42.662,42.654,42.662c23.562,0,42.656-19.093,42.656-42.662
	c0-17.062-10.016-31.781-24.5-38.593l88.498-13.047v139.487L21.335,413.99z"/>
<path d="M138.659,310.149c-17.671,0-31.999,14.344-31.999,31.999c0,17.687,14.328,31.999,31.999,31.999
	c17.679,0,31.999-14.312,31.999-31.999C170.658,324.493,156.338,310.149,138.659,310.149z M138.659,352.835
	c-5.875,0-10.664-4.78-10.664-10.687c0-5.874,4.789-10.655,10.664-10.655c5.883,0,10.672,4.781,10.672,10.655
	C149.331,348.054,144.542,352.835,138.659,352.835z"/>
<path d="M245.328,192.833c17.67,0,32.006-11.937,32.006-26.671s-14.336-26.671-32.006-26.671c-17.68,0-31.999,11.938-31.999,26.671
	S227.648,192.833,245.328,192.833z M245.328,160.834c6.632,0,10.663,3.703,10.663,5.328c0,1.641-4.031,5.328-10.663,5.328
	c-6.641,0-10.672-3.687-10.672-5.328C234.656,164.537,238.687,160.834,245.328,160.834z"/>
<path d="M373.331,182.161c5.875,0,10.655-4.766,10.655-10.672c0-5.875-4.78-10.656-10.655-10.656
	c-5.905,0-10.687,4.781-10.687,10.656C362.644,177.396,367.426,182.161,373.331,182.161z"/>
<path d="M287.99,118.163c5.891,0,10.656-4.766,10.656-10.672c0-5.875-4.766-10.656-10.656-10.656s-10.656,4.781-10.656,10.656
	C277.334,113.398,282.099,118.163,287.99,118.163z"/>
<path d="M159.994,224.832c5.891,0,10.664-4.781,10.664-10.671c0-5.891-4.773-10.672-10.664-10.672s-10.663,4.781-10.663,10.672
	C149.331,220.051,154.103,224.832,159.994,224.832z"/>
<path d="M287.99,331.493c-5.891,0-10.656,4.781-10.656,10.655c0,5.906,4.766,10.687,10.656,10.687s10.656-4.78,10.656-10.687
	C298.646,336.274,293.881,331.493,287.99,331.493z"/>
<path d="M458.64,331.493c-5.875,0-10.656,4.781-10.656,10.655c0,5.906,4.781,10.687,10.656,10.687
	c5.906,0,10.688-4.78,10.688-10.687C469.328,336.274,464.547,331.493,458.64,331.493z"/>
<path d="M202.657,288.838c-5.891,0-10.664,4.78-10.664,10.655c0,5.906,4.773,10.656,10.664,10.656s10.672-4.75,10.672-10.656
	C213.329,293.618,208.548,288.838,202.657,288.838z"/>
<g>
</g>
<g>
</g>
<g>
</g>
<g>
</g>
<g>
</g>
<g>
</g>
<g>
</g>
<g>
</g>
<g>
</g>
<g>
</g>
<g>
</g>
<g>
</g>
<g>
</g>
<g>
</g>
<g>
</g>
</svg>
