<?xml version="1.0" encoding="iso-8859-1"?>
<!-- Generator: Adobe Illustrator 19.0.0, SVG Export Plug-In . SVG Version: 6.00 Build 0)  -->
<svg version="1.1" id="Layer_1" xmlns="http://www.w3.org/2000/svg" xmlns:xlink="http://www.w3.org/1999/xlink" x="0px" y="0px"
	 viewBox="0 0 511.984 511.984" style="enable-background:new 0 0 511.984 511.984;" xml:space="preserve">
<polygon style="fill:#A0D468;" points="255.997,430.486 237.498,376.488 179,298.99 134.001,262.492 162.5,454.486 182,489.484 
	222.498,502.484 267.996,502.484 "/>
<polygon style="fill:#FFCE54;" points="337.994,171.181 317.995,73.529 289.996,25.999 255.997,11 226.998,23.999 198.999,55.998 
	181,124.996 169,203.493 160,271.992 186.999,299.178 255.997,395.988 345.994,240.992 "/>
<polygon style="fill:#8CC153;" points="365.338,233.32 259.997,389.097 259.997,420.658 271.996,493.312 303.34,496.656 
	351.338,467.313 380.649,226.665 "/>
<path d="M353.994,230.055c-3.656-42.249-9.375-84.045-18.141-120.185l-0.797-3.218c-3.656-14.562-7.812-28.188-12.531-40.468
	l-0.858-2.188C306.293,25.155,284.965,0,255.473,0c-39.241,0-64.045,44.593-79.583,106.653l-0.727,2.968
	c-10.914,44.843-17.117,98.466-20.5,150.871c-21.663-17.031-37.326-25.844-37.326-25.844s22.827,215.682,45.521,249.336
	c11.695,17.344,34.421,23.391,64.693,26.875c7.141,0.812,14.086,1.125,20.483,1.125c19.101,0,33.335-2.75,33.335-2.75l0,0
	c28.937-2.891,60.951-10,72.389-26.969c22.702-33.67,40.889-290.271,40.889-290.271S377.431,205.774,353.994,230.055z
	 M315.511,274.086c-0.297-6.156-0.609-12.188-0.969-18.094H330.4C325.525,261.711,320.526,267.742,315.511,274.086z
	 M332.963,234.648h-19.89c-0.578-7.312-1.172-14.405-1.828-21.312h19.733C331.713,220.399,332.369,227.524,332.963,234.648z
	 M325.713,170.65c1.031,7.031,2,14.156,2.875,21.344h-19.562c-0.844-7.375-1.734-14.484-2.655-21.344H325.713z M321.089,142.901
	c0.406,2.125,0.797,4.281,1.187,6.438h-18.998c-1.172-7.484-2.375-14.593-3.594-21.343h18.421
	C319.151,132.808,320.136,137.777,321.089,142.901z M313.026,106.653h-17.53c-1.609-7.688-3.234-14.781-4.812-21.312h16.031
	C308.932,91.966,311.042,99.091,313.026,106.653z M273.371,27.702c6.438,4.891,12.656,12.594,18.484,22.905
	c2.297,4.078,4.531,8.547,6.688,13.391h-13.484c-4.328-15.219-8.484-27.312-12.031-36.53
	C273.152,27.53,273.246,27.624,273.371,27.702z M263.996,85.341h4.68c1.672,6.594,3.352,13.703,5.008,21.312h-9.688V85.341z
	 M263.996,127.996h14c1.281,6.781,2.516,13.874,3.719,21.343h-17.719V127.996z M263.996,170.65h20.891
	c0.938,6.875,1.828,13.969,2.703,21.344h-23.594V170.65z M263.996,213.337h25.844c0.656,6.906,1.281,14,1.844,21.312h-27.688
	V213.337z M263.996,255.992h29.188c0.422,6.938,0.797,14.062,1.125,21.343h-30.312L263.996,255.992L263.996,255.992z
	 M263.996,298.646h31.125c0.031,0.969,0.062,1.906,0.094,2.859c-4.125,5.969-8.203,12.141-12.188,18.484h-19.031V298.646z
	 M270.426,341.333c-2.195,3.953-4.344,7.969-6.43,12.046v-12.046H270.426z M242.662,149.339h-17.688
	c1.203-7.516,2.445-14.624,3.695-21.343h13.992L242.662,149.339L242.662,149.339z M242.662,170.65v21.344h-23.547
	c0.859-7.391,1.758-14.5,2.695-21.344H242.662z M242.662,213.337v21.312h-27.664c0.57-7.312,1.195-14.437,1.859-21.312H242.662z
	 M242.662,255.992v21.343h-30.304c0.336-7.296,0.719-14.405,1.141-21.343L242.662,255.992L242.662,255.992z M242.662,298.646v21.344
	h-26.945c-1.522-1.859-3.054-3.688-4.593-5.5c0.109-5.344,0.25-10.625,0.406-15.844H242.662z M242.662,341.333v16.562
	c-3.469-5.718-7.078-11.233-10.797-16.562H242.662z M237.967,85.341h4.695v21.312h-9.695
	C234.654,98.872,236.334,91.778,237.967,85.341z M219.099,50.607c3.953-7.015,8.094-12.796,12.359-17.327
	c-3.023,8.312-6.383,18.499-9.859,30.718h-9.187C214.561,59.154,216.795,54.685,219.099,50.607z M204.225,85.341h11.757
	c-1.585,6.5-3.21,13.625-4.827,21.312h-13.234C199.913,99.091,202.014,91.966,204.225,85.341z M189.85,142.901
	c0.961-5.124,1.961-10.093,2.992-14.905h14.141c-1.227,6.75-2.43,13.858-3.602,21.343h-14.695
	C189.077,147.12,189.468,144.964,189.85,142.901z M185.249,170.65h15.039c-0.914,6.859-1.797,13.969-2.641,21.344h-15.264
	C183.312,184.369,184.272,177.26,185.249,170.65z M179.984,213.337h15.444c-0.648,6.906-1.266,14-1.828,21.312h-15.608
	C178.625,227.212,179.289,220.087,179.984,213.337z M176.359,255.992h15.772c-0.422,6.938-0.805,14.047-1.133,21.343h-15.96
	C175.445,269.961,175.883,262.836,176.359,255.992z M248.036,490.64c-6.265,0-12.335-0.312-18.046-0.969
	c-28.554-3.297-43.343-8.562-49.443-17.608c-0.914-1.359-5.875-9.953-13.5-45.64c-4.625-21.624-9.445-49.436-14.335-82.716
	c-3.398-23.093-6.359-45.687-8.68-64.373c13.468,10.781,29.163,24.78,44.537,41.812c22.82,25.28,40.507,52.201,52.577,80.028
	c12.452,28.733,18.944,58.608,19.366,89.06C256.763,490.484,252.544,490.64,248.036,490.64z M348.838,418.267
	c-7.188,42.468-12.219,51.218-12.766,52.062c-1.062,1.578-7.859,9.702-37.592,15.062c-5.5,0.969-11.109,1.75-16.672,2.344
	c-0.688-30.607-6.922-58.654-16.609-84.028c1.039-2.875,2.125-5.749,3.266-8.64c12.625-31.891,31.078-64.232,54.873-96.139
	c15.734-21.108,31.781-39.248,45.624-53.623c-1.937,22.156-4.437,48.936-7.39,76.279
	C357.369,360.676,353.072,393.207,348.838,418.267z"/>
<g>
</g>
<g>
</g>
<g>
</g>
<g>
</g>
<g>
</g>
<g>
</g>
<g>
</g>
<g>
</g>
<g>
</g>
<g>
</g>
<g>
</g>
<g>
</g>
<g>
</g>
<g>
</g>
<g>
</g>
</svg>
