<?xml version="1.0" encoding="iso-8859-1"?>
<!-- Generator: Adobe Illustrator 19.0.0, SVG Export Plug-In . SVG Version: 6.00 Build 0)  -->
<svg version="1.1" id="Layer_1" xmlns="http://www.w3.org/2000/svg" xmlns:xlink="http://www.w3.org/1999/xlink" x="0px" y="0px"
	 viewBox="0 0 511.978 511.978" style="enable-background:new 0 0 511.978 511.978;" xml:space="preserve">
<polygon style="fill:#8565AA;" points="415.982,229.99 375.483,223.49 370.483,193.491 354.984,185.491 327.984,215.49 
	293.986,226.99 248.988,230.99 120.992,214.491 55.494,223.99 16.995,266.989 9.495,300.987 36.994,372.985 86.993,408.984 
	154.99,416.483 234.488,406.984 345.984,352.486 401.982,296.987 420.482,255.989 "/>
<polygon style="fill:#A0D468;" points="443.981,114.994 345.984,181.336 371.983,187.241 382.983,228.99 415.982,229.99 
	436.981,259.489 485.98,134.993 "/>
<path d="M511.978,92.072c0-5.89-4.781-10.671-10.655-10.671c-2.047,0-3.938,0.594-5.562,1.594v-0.016
	c-16.437,10.046-25.593,20.358-30.687,28.546l-17.625-9.062l-5.155,3.25c-0.281,0.188-29.468,18.562-58.249,36.968
	c-16.92,10.812-30.404,19.53-40.061,25.905c-5.781,3.828-10.281,6.859-13.344,9c-1.797,1.25-3.125,2.234-4.109,3
	c-1.547,1.188-6.218,4.858-5.202,11.249c0.188,1.281,1.53,7.328,8.733,9.062c-23.233,13.062-48.326,23.124-70.45,23.124
	c-6.625,0-13-0.906-18.968-2.906c-40.718-13.655-77.529-19.921-109.403-19.921C36.26,201.178-15.051,256.708,3.902,337.378
	c15.734,67.028,77.091,93.199,145.527,93.199c60.061,0,125.62-20.155,170.572-50.529c53.326-36.03,85.356-69.592,104.591-97.435
	c1.578,0.906,3.406,1.438,5.577,1.438c7.281,0,10.094-5.797,13.078-11.937c1.796-3.688,4.233-9.062,7.233-15.984
	c5.031-11.483,11.75-27.499,20.031-47.561c14.047-34.093,27.874-68.639,27.999-68.982l3.609-9l-17.983-9.249
	c3.391-4.953,10.062-12.406,22.732-20.156v-0.016C509.931,99.291,511.978,95.931,511.978,92.072z M382.061,301.05
	c-19.608,20.766-44.515,41.405-73.998,61.311c-20.53,13.875-46.046,25.594-73.794,33.906c-28.374,8.483-57.717,12.968-84.841,12.968
	c-32.468,0-60.779-6.438-81.873-18.593c-10.859-6.281-19.921-14.125-26.937-23.344c-7.469-9.828-12.843-21.53-15.968-34.795
	c-7.031-29.953-2.844-55.765,12.125-74.654c18.062-22.78,51.592-35.327,94.466-35.327c30.905,0,65.42,6.344,102.606,18.812
	c7.953,2.688,16.609,4.031,25.765,4.031c29.515,0,65.31-14.031,106.466-41.687c0.062,1.688,0.141,3.375,0.219,4.906
	c0.969,22.999,1.156,27.155,5.015,31.015c3.422,3.438,7.859,3.438,9.516,3.438c3.874,0,10.374-0.859,17.249-1.75
	c2.438-0.312,5.156-0.672,7.547-0.953c0.922,2.625,1.969,5.718,2.859,8.312c1.406,4.156,2.938,8.641,4.438,12.844
	C404.873,274.583,394.529,287.832,382.061,301.05z M430.794,247.958c-0.781-2.25-1.515-4.405-2.124-6.187
	c-5.469-16.094-6.312-18.562-9.891-21.094c-3.062-2.156-6.406-2.156-7.672-2.156c-3.156,0-8.062,0.609-15.781,1.625
	c-2.266,0.281-4.781,0.625-7.094,0.891c-0.25-4.359-0.469-9.546-0.625-13.358c-0.719-16.375-0.891-18.906-2.156-21.688
	c-3.187-7.03-10.702-7.03-16.187-7.03c-0.688,0-1.437,0-2.187,0.016c23.17-15.047,56.217-36.046,81.434-51.968l26.594,13.672
	C458.73,181.429,441.216,224.037,430.794,247.958z"/>
<path d="M330.672,305.393c-2.453,0-4.703,0.812-6.5,2.219v-0.016c-40.17,30.89-79.934,51.045-118.214,59.92
	c-30.124,6.969-58.873,6.938-85.435-0.094c-36.327-9.656-55.217-29.03-57.03-33.389c0,0.016,0,0.031,0,0.047
	c-1.375-4.281-5.39-7.375-10.125-7.375c-5.891,0-10.671,4.781-10.671,10.672c0,1.14,0.188,2.233,0.516,3.265
	c3.046,9.562,15.25,19.437,20.358,23.249c8.578,6.406,23.14,15.406,43.92,21.938c17.375,5.5,35.624,8.25,54.53,8.25
	c14.031,0,28.452-1.531,43.155-4.562c43.03-8.875,87.435-30.75,131.995-65.014v-0.016c2.531-1.938,4.156-5,4.156-8.438
	C341.328,310.159,336.547,305.393,330.672,305.393z"/>
<g>
</g>
<g>
</g>
<g>
</g>
<g>
</g>
<g>
</g>
<g>
</g>
<g>
</g>
<g>
</g>
<g>
</g>
<g>
</g>
<g>
</g>
<g>
</g>
<g>
</g>
<g>
</g>
<g>
</g>
</svg>
