<?xml version="1.0" encoding="iso-8859-1"?>
<!-- Generator: Adobe Illustrator 19.0.0, SVG Export Plug-In . SVG Version: 6.00 Build 0)  -->
<svg version="1.1" id="Layer_1" xmlns="http://www.w3.org/2000/svg" xmlns:xlink="http://www.w3.org/1999/xlink" x="0px" y="0px"
	 viewBox="0 0 511.986 511.986" style="enable-background:new 0 0 511.986 511.986;" xml:space="preserve">
<polygon style="fill:#FC6E51;" points="429.989,274.399 323.992,247.743 308.665,222.4 328.664,198.401 476.66,159.074 
	420.662,126.731 340.664,97.748 240.667,89.076 181.997,94.404 92.671,118.404 30.674,164.402 14.674,195.745 12.002,221.728 
	20.002,272.399 85.336,325.741 164.669,349.74 265.994,354.395 354.664,340.396 429.989,315.741 483.332,281.742 "/>
<path style="fill:#E6E9ED;" d="M263.299,221.728c0,10.703-21.671,19.375-48.405,19.375c-26.726,0-48.396-8.672-48.396-19.375
	s21.671-19.375,48.396-19.375C241.628,202.354,263.299,211.026,263.299,221.728z"/>
<polygon style="fill:#656D78;" points="487.988,281.57 457.488,298.569 367.992,334.569 298.494,354.395 212.496,354.395 
	121.499,339.068 68.5,319.569 41.501,299.069 12.002,252.071 9.502,324.569 36.501,363.067 92.999,398.067 160.497,419.565 
	214.902,423.565 272.994,419.065 357.492,407.066 500.987,343.568 503.487,293.569 "/>
<polygon style="fill:#E9573F;" points="494.659,161.418 325.336,194.745 310.337,215.744 319.993,238.087 360.336,254.087 
	499.081,220.744 503.487,202.354 "/>
<path d="M490.66,148.7v0.156c-70.654-50.108-163.434-73.748-249.274-73.748c-127.223,0-239.188,51.905-241.352,146.433H0.003v68.904
	h0.046c-0.016,0.656-0.039,1.312-0.046,1.983c-0.61,93.905,108.613,144.45,234.156,144.45c97.317,0,204.408-30.343,277.827-94.372
	v-68.888c0,0-59.514-6.922-113.027-17.859c53.514-12.625,113.027-21.5,113.027-21.5v-69.044
	C511.986,165.215,503.878,158.105,490.66,148.7z M37.548,172.011c10.484-15.25,25.913-28.718,45.874-40.061
	c40.319-22.89,96.411-35.499,157.964-35.499c46.437,0,93.856,7.281,137.152,21.078c22.655,7.203,44.14,16.171,63.889,26.671
	c5.249,2.781,10.39,5.688,15.405,8.688c-15.312,2.828-32.717,6.25-50.154,10.093c-29.749,6.593-53.467,13.125-70.498,19.421
	c-11.375,4.203-19.999,8.375-26.374,12.75c-8.468,5.796-12.796,12.078-14.874,17.734h-21.25
	c-7.875-15.437-32.358-26.671-61.35-26.671s-53.475,11.234-61.342,26.671H22.017C23.783,198.198,28.978,184.479,37.548,172.011z
	 M255.994,223.541c0,1-2.055,4.406-8.164,7.968c-8.742,5.109-21.319,8.031-34.499,8.031s-25.757-2.922-34.507-8.031
	c-6.102-3.562-8.164-6.968-8.164-7.968s2.062-4.406,8.164-7.969c8.75-5.093,21.327-8.031,34.507-8.031
	c13.179,0,25.757,2.938,34.499,8.031C253.94,219.135,255.994,222.541,255.994,223.541z M21.353,291.679
	c0.008-0.249,0.016-0.499,0.023-0.765l0.031-1.312c3.211,4.358,6.75,8.546,10.593,12.562v33.344
	c-7.187-13.125-10.765-27.5-10.664-42.938C21.338,292.257,21.346,291.975,21.353,291.679z M202.66,366.911v47.467
	c-7.21-0.53-14.328-1.249-21.327-2.155V364.88C188.348,365.723,195.465,366.395,202.66,366.911z M159.997,408.879
	c-7.296-1.375-14.421-2.953-21.328-4.734v-46.89c6.953,1.688,14.07,3.156,21.328,4.453V408.879z M117.335,397.755
	c-7.469-2.562-14.593-5.406-21.335-8.484v-45.624c6.852,2.797,13.976,5.375,21.335,7.703V397.755z M74.672,377.942
	c-7.953-4.906-15.093-10.234-21.335-15.891v-41.545c6.617,4.734,13.75,9.125,21.335,13.156V377.942z M223.995,415.409V367.88
	c3.375,0.062,6.765,0.094,10.164,0.094c3.711,0,7.438-0.031,11.172-0.125v47.544c-3.727,0.094-7.453,0.141-11.172,0.141
	C230.761,415.534,227.37,415.472,223.995,415.409z M394.662,340.506c7.203-2.562,14.312-5.343,21.328-8.28v45.639
	c-6.953,3.109-14.062,6.047-21.328,8.797V340.506z M373.335,394.067c-7.03,2.25-14.14,4.312-21.343,6.202v-46.858
	c7.156-1.78,14.281-3.749,21.343-5.874V394.067z M330.664,405.347c-7.062,1.5-14.171,2.828-21.327,4v-47.28
	c7.125-1.094,14.233-2.375,21.327-3.812V405.347z M287.994,412.347c-7.094,0.844-14.203,1.516-21.336,2.03v-47.498
	c7.102-0.5,14.211-1.125,21.336-1.938V412.347z M437.333,367.536v-44.982c7.25-3.547,14.358-7.297,21.327-11.297v44.061
	c-5.672,3.531-11.516,6.938-17.53,10.188C439.88,366.177,438.598,366.848,437.333,367.536z M490.66,294.944v13.938v23.688
	c-3.469,2.828-7.016,5.593-10.672,8.28v-42.78c3.609-2.438,7.172-4.906,10.672-7.468V294.944z M456.816,287.586
	c-5.094,3.109-10.328,6.124-15.687,9.015c-8.016,4.344-16.327,8.438-24.89,12.281h-0.25v0.094c-12.969,5.812-26.516,11-40.53,15.531
	c-44.702,14.499-93.56,22.155-141.301,22.155c-39.381,0-77.177-5.312-109.309-15.312c-32.046-10-58.326-24.672-75.99-42.452
	c-15.765-15.858-24.812-34.233-26.999-54.686h130.129c7.867,15.421,32.35,26.671,61.342,26.671c28.991,0,53.475-11.25,61.35-26.671
	h22.156c3.125,6.75,9,12.671,17.593,17.687c6.75,3.938,15.577,7.641,26.952,11.328c17.312,5.625,40.874,11.25,69.982,16.687
	C427.162,282.851,442.802,285.445,456.816,287.586z M490.66,175.324v10.89v29.827c-30.188,4.969-91.342,15.89-135.262,29.187
	c-22.562-6.625-38.687-14.062-39.812-21.968c-3.188-22.312,123.559-45.842,175.073-54.467v6.531H490.66z"/>
<g>
</g>
<g>
</g>
<g>
</g>
<g>
</g>
<g>
</g>
<g>
</g>
<g>
</g>
<g>
</g>
<g>
</g>
<g>
</g>
<g>
</g>
<g>
</g>
<g>
</g>
<g>
</g>
<g>
</g>
</svg>
