<?xml version="1.0" encoding="iso-8859-1"?>
<!-- Generator: Adobe Illustrator 19.0.0, SVG Export Plug-In . SVG Version: 6.00 Build 0)  -->
<svg version="1.1" id="Layer_1" xmlns="http://www.w3.org/2000/svg" xmlns:xlink="http://www.w3.org/1999/xlink" x="0px" y="0px"
	 viewBox="0 0 511.984 511.984" style="enable-background:new 0 0 511.984 511.984;" xml:space="preserve">
<polygon style="fill:#FFCE54;" points="36.001,204.805 36.001,421.799 44.501,483.797 86.999,503.797 406.489,503.797 
	462.487,492.297 480.487,446.299 482.987,204.805 "/>
<g>
	<polygon style="fill:#E6E9ED;" points="106.671,174.322 78.343,172.322 63.344,198.978 110.014,196.306 	"/>
	<polygon style="fill:#E6E9ED;" points="364.663,148.651 328.007,188.306 277.009,174.65 262.337,198.978 405.005,196.978 
		412.661,166.307 	"/>
</g>
<polygon style="fill:#FC6E51;" points="116.498,113.808 76.5,112.558 37.251,132.808 30.751,144.182 66.75,162.557 147.747,175.806 
	164.247,159.557 "/>
<polygon style="fill:#965353;" points="280.993,106.309 257.666,106.309 229.995,123.637 192.996,161.307 186.996,198.978 
	248.994,196.635 282.993,154.979 295.321,115.98 "/>
<polygon style="fill:#ED5564;" points="461.331,102.309 433.332,76.31 398.333,66.982 352.007,70.31 322.663,102.309 
	332.663,118.98 358.007,140.307 438.004,172.322 468.659,166.979 474.003,144.182 "/>
<path d="M459.503,191.994V182.4c10.562-1.188,18.484-6.047,22.734-16.03c8.484-19.922,0.109-54.733-22.734-79.717V42.671
	C459.503,19.109,440.41,0,416.849,0H96.702c-23.562,0-42.67,19.108-42.67,42.671v63.951c-17.89,7.718-30.749,20.312-33.093,32.014
	c-2.891,14.5,11.031,23.953,33.093,31.124v18.953c-0.484,1.094-0.969,2.188-1.422,3.281H22.111v255.992
	c0,35.342,28.655,63.998,63.998,63.998h341.318c35.357,0,63.997-28.656,63.997-63.998V191.994H459.503z M458.05,255.992
	l12.047,12.062v29.092l-1.609-1.609l-30.702,30.703l-45.249-45.249l24.983-24.999H458.05z M196.433,356.426l45.249,45.249
	l-45.249,45.249l-45.249-45.249L196.433,356.426z M136.092,386.582l-45.249-45.249l45.249-45.249l45.264,45.249L136.092,386.582z
	 M211.511,341.333l45.264-45.249l45.249,45.249l-45.249,45.249L211.511,341.333z M317.101,356.426l45.265,45.249l-45.265,45.249
	l-45.249-45.249L317.101,356.426z M332.194,341.333l45.249-45.249l45.249,45.249l-45.249,45.249L332.194,341.333z M377.443,265.898
	l-9.905-9.906h19.811L377.443,265.898z M337.366,255.992l25,24.999l-45.265,45.249l-45.249-45.249l25-24.999H337.366z
	 M256.775,265.898l-9.922-9.906h19.827L256.775,265.898z M216.698,255.992l24.984,24.999l-45.249,45.249l-45.249-45.249
	l24.984-24.999H216.698z M136.092,265.898l-9.907-9.906h19.812L136.092,265.898z M96.014,255.992l25,24.999L75.75,326.24
	l-32.312-32.312v-25.873L55.5,255.992H96.014z M43.438,324.099l17.234,17.233L43.438,358.55V324.099z M43.438,388.738L75.75,356.41
	l45.264,45.265L75.75,446.924l-32.312-32.312C43.438,414.612,43.438,388.738,43.438,388.738z M136.092,416.752l45.264,45.265
	l-28.655,28.64h-33.202l-28.655-28.64L136.092,416.752z M196.433,477.078l13.562,13.578h-27.14L196.433,477.078z M211.511,462.016
	l45.264-45.265l45.249,45.265l-28.656,28.64h-33.202L211.511,462.016z M317.101,477.078l13.577,13.578h-27.139L317.101,477.078z
	 M332.194,462.016l45.249-45.265l45.249,45.265l-28.641,28.64H360.85L332.194,462.016z M392.536,401.675l45.249-45.265
	l32.312,32.328v25.873l-32.312,32.312L392.536,401.675z M452.862,341.333l17.234-17.233v34.451L452.862,341.333z M416.255,191.994
	c0.969-5.469,1.75-10.938,2.312-16.312c6.906,2.25,13.468,4.062,19.608,5.266v11.047h-21.92V191.994z M194.121,191.994
	c1.812-15.375,7.671-30.499,16.703-42.702c8.187-11.078,19.281-20.28,32.062-26.608c11.125-5.531,22.858-8.562,33.045-8.562l0,0l0,0
	c6.469,0,10.672,1.281,12.406,2.438c0.125,1.5-0.047,7.125-6.562,19.938c-5.734,11.265-14.859,25.249-28.765,44.029
	c-3.047,4.109-5.922,7.922-8.671,11.469h-50.218V191.994z M271.055,191.994c2.516-3.406,4.969-6.797,7.344-10.125
	c9.219,2.219,19.156,5.781,28.499,10.125H271.055z M350.038,191.994c6.266-10.688,13.969-21.594,21.937-30.89
	c0.875-1.016,1.734-2,2.578-2.938c3.672,1.656,7.438,3.297,11.28,4.938c4.062,1.734,8.078,3.391,12.016,4.969
	c-0.094,1.265-0.203,2.577-0.344,3.921c-0.625,6.5-1.641,13.281-2.969,20H350.038z M462.612,157.995
	c-0.719,1.719-1.297,2.031-1.641,2.219c-0.625,0.344-2.578,1.156-6.984,1.156c-15.968,0-41.764-10.219-59.795-17.891
	c-15.796-6.733-38.248-16.89-50.701-27.39c-5.469-4.594-7.031-7.594-7.453-8.688c-0.266-0.687-0.516-1.312,0.281-3.202
	c1.812-4.25,7.609-10.844,18.438-16.609c11.281-5.969,24.64-9.281,37.623-9.281l0,0c9.703,0,18.875,1.812,27.281,5.406
	c8.266,3.5,15.812,8.75,22.468,15.594c6.124,6.281,11.374,13.921,15.218,22.062C464.878,137.34,465.362,151.557,462.612,157.995z
	 M75.359,42.671c0-11.766,9.578-21.328,21.343-21.328h320.146c11.75,0,21.327,9.562,21.327,21.328v26.546
	c-3.234-1.906-6.609-3.625-10.155-5.125c-11.625-4.969-23.781-7.109-35.641-7.109c-34.779,0-66.998,18.469-75.685,38.858
	c-8.797,20.64,9.046,37.343,37.983,52.686c-8.406,9.969-16.375,21.28-22.984,32.546c-12.015-7.266-26.514-13.655-40.701-17.874
	c17.999-28.515,26.062-51.921,10.234-63.639c-6.062-4.5-14.969-6.781-25.312-6.781c-25.687,0-60.279,14.156-82.247,43.827
	c-12.765,17.233-19.25,37.014-21,55.389h-51.248c-0.234-2.734-0.547-5.453-0.922-8.125c6.843,0.844,13.25,1.328,19.046,1.328
	c17.343,0,29.265-4.344,31.702-16.453c4.312-21.562-23.062-59.592-64.576-67.903c-5.672-1.125-11.312-1.656-16.843-1.656
	c-4.938,0-9.781,0.422-14.468,1.188V42.671H75.359z M80.843,183.166c1.234-2.078,2.438-3.922,3.578-5.609
	c2.188,0.469,4.391,0.906,6.625,1.359c2.421,0.484,4.812,0.953,7.187,1.391c0.422,2,0.797,4.188,1.141,6.562
	c0.25,1.688,0.438,3.406,0.625,5.125H76.047C77.562,188.963,79.156,185.994,80.843,183.166z M54.86,130.121
	c10.062-6.094,22.812-9.594,34.983-9.594l0,0c4.265,0,8.531,0.406,12.64,1.234c14.125,2.828,27.78,10.828,37.483,21.968
	c7.297,8.375,9.812,15.594,10.312,19.047c-1.766,0.5-5.078,1.094-10.734,1.094c-13.5,0-31.765-3.344-44.311-5.875
	c-17.234-3.438-29.577-6.625-38.827-9.969c-8.078-2.938-12.031-5.406-13.828-6.812C44.079,138.682,47.907,134.324,54.86,130.121z
	 M53.282,213.337c0,5.891,4.766,10.656,10.656,10.656c5.891,0,10.672-4.766,10.672-10.656h21.515
	c0,5.891,4.781,10.656,10.672,10.656c5.89,0,10.656-4.766,10.656-10.656h21.53c0,5.891,4.766,10.656,10.656,10.656
	s10.671-4.766,10.671-10.656h21.515c0,5.891,4.781,10.656,10.671,10.656s10.671-4.766,10.671-10.656h21.515
	c0,5.891,4.766,10.656,10.656,10.656c5.891,0,10.671-4.766,10.671-10.656h21.515c0,5.891,4.781,10.656,10.672,10.656
	s10.672-4.766,10.672-10.656h21.515c0,5.891,4.766,10.656,10.656,10.656s10.671-4.766,10.671-10.656h21.516
	c0,5.891,4.781,10.656,10.672,10.656c5.89,0,10.671-4.766,10.671-10.656h21.515c0,5.891,4.781,10.656,10.672,10.656
	s10.656-4.766,10.656-10.656h21.515c0,5.891,4.781,10.656,10.671,10.656c5.891,0,10.672-4.766,10.672-10.656h9.828v21.327H43.438
	v-21.327H53.282z M43.438,444.767l17.234,17.249l-9.891,9.875c-4.625-6.812-7.343-15.046-7.343-23.905
	C43.438,447.986,43.438,444.767,43.438,444.767z M66.812,486.031l8.938-8.953l13.578,13.578h-3.219
	C79.171,490.656,72.609,488.984,66.812,486.031z M424.208,490.656l13.577-13.578l8.937,8.953
	c-5.796,2.953-12.343,4.625-19.295,4.625H424.208z M462.753,471.891l-9.891-9.875l17.234-17.249v3.219
	C470.096,456.846,467.393,465.079,462.753,471.891z"/>
<g>
</g>
<g>
</g>
<g>
</g>
<g>
</g>
<g>
</g>
<g>
</g>
<g>
</g>
<g>
</g>
<g>
</g>
<g>
</g>
<g>
</g>
<g>
</g>
<g>
</g>
<g>
</g>
<g>
</g>
</svg>
