<?xml version="1.0" encoding="iso-8859-1"?>
<!-- Generator: Adobe Illustrator 19.0.0, SVG Export Plug-In . SVG Version: 6.00 Build 0)  -->
<svg version="1.1" id="Layer_1" xmlns="http://www.w3.org/2000/svg" xmlns:xlink="http://www.w3.org/1999/xlink" x="0px" y="0px"
	 viewBox="0 0 511.983 511.983" style="enable-background:new 0 0 511.983 511.983;" xml:space="preserve">
<g>
	<polygon style="fill:#A0D468;" points="339.552,168.495 268.554,102.497 113.059,43.499 128.558,76.498 198.056,135.495 
		276.554,176.495 344.052,190.493 	"/>
	<path style="fill:#A0D468;" d="M247.554,214.993l-61.498,7l-63.997,22.5L84.06,268.492L43.061,312.99l-15.499,27.5H68.56
		l67.998-18.5l78.497-36.498c0,0,70.998-61.999,72.498-65.999L247.554,214.993z"/>
</g>
<g>
	<polygon style="fill:#434A54;" points="324.067,306.662 277.397,298.521 255.992,319.849 232.071,348.006 228.555,382.582 
		236.727,426.658 255.992,458.658 280.725,466.658 321.396,456.002 344.052,413.332 344.052,352.006 	"/>
	<polygon style="fill:#434A54;" points="466.063,286.664 434.064,277.742 406.065,298.521 381.394,332.006 377.394,382.582 
		398.065,432.002 434.064,447.33 478.72,425.33 497.39,373.176 500.062,335.849 	"/>
</g>
<path d="M285.507,319.959c-22.406,1.938-40.186,29.812-40.186,63.889c0,5.891,4.78,10.672,10.671,10.672
	c5.89,0,10.671-4.781,10.671-10.672c0-12.734,3.25-24.922,8.906-33.42c3.531-5.297,7.719-8.625,11.406-9.156v-0.094
	c5.891,0,10.672-4.781,10.672-10.656c0-5.891-4.781-10.672-10.672-10.672C286.475,319.849,285.975,319.896,285.507,319.959z"/>
<path d="M448.579,267.617c0.109-7.25-0.484-17.546-3.516-28.468c-3.14-11.296-9.265-24.499-21.092-35.249
	c24.357-1.875,50.498-2.656,76.841-1.391v-0.016c0.172,0,0.328,0.031,0.5,0.031c5.89,0,10.671-4.781,10.671-10.671
	c0-5.719-4.516-10.375-10.155-10.64l0,0c-51.452-2.469-101.638,2.469-140.276,8.375C284.335,39.609,85.888,32.14,85.888,32.14
	c54.857,101.388,164.541,146.699,230.68,165.542c-14.437,3.031-23.812,5.437-26.327,6.093c-13.812-2.156-27.203-3.156-40.14-3.156
	C91.857,200.618,0,349.178,0,349.178c13.343,1.812,26.405,2.672,39.123,2.672c122.668,0,215.431-79.014,254.977-119.591
	c3.297,18.218-6.656,42.796-13.656,56.077c-37.686,4.873-67.122,45.779-67.122,95.512c0,53.014,33.436,95.996,74.669,95.996
	c41.232,0,74.67-42.982,74.67-95.996c0-46.232-25.438-84.842-59.295-93.949c2.484-5.438,5.218-12.125,7.499-19.438
	c6.109-19.531,6.766-36.562,2.062-50.155c15.89-3.5,42.077-8.656,73.778-12.625c19.5,5.312,32.156,17.609,37.625,36.562
	c2.562,8.875,3.016,17.405,2.922,23.155c-36.484,6.312-64.592,46.498-64.592,95.121c0,53.014,33.42,95.998,74.653,95.998
	s74.669-42.984,74.669-95.998C511.983,314.428,484.47,274.586,448.579,267.617z M177.448,106.341
	c-18.375-14.343-34.421-30.093-48.015-47.077c18.891,3.593,42.218,9.359,66.779,18.546c33.89,12.703,63.498,29.406,87.981,49.624
	c18.547,15.312,34.202,32.749,46.842,52.092c-18.187-4.828-40.748-11.921-64.842-22.062
	C232.696,143.34,202.838,126.153,177.448,106.341z M225.321,263.898c-26.515,19.5-54.123,34.998-82.028,46.061
	c-33.89,13.438-68.389,20.344-102.575,20.562c10.141-11.953,23.546-26.219,39.952-40.357c23.171-19.984,47.748-35.859,73.06-47.202
	c31.14-13.937,63.561-21,96.372-21c7.609,0,15.28,0.375,22.999,1.125C261.038,235.008,244.899,249.523,225.321,263.898z
	 M323.942,329.068c11.203,14.406,17.375,33.857,17.375,54.779s-6.172,40.389-17.375,54.795
	c-9.968,12.812-22.732,19.875-35.951,19.875s-25.984-7.062-35.952-19.875c-11.218-14.406-17.374-33.873-17.374-54.795
	s6.156-40.373,17.374-54.779c9.968-12.828,22.733-19.891,35.952-19.891S313.974,316.24,323.942,329.068z M473.282,417.299
	c-9.984,12.812-22.75,19.875-35.968,19.875s-25.983-7.062-35.952-19.875c-11.203-14.404-17.375-33.857-17.375-54.779
	c0-20.936,6.172-40.373,17.375-54.779c9.969-12.828,22.734-19.889,35.952-19.889s25.983,7.061,35.968,19.889
	c11.203,14.406,17.375,33.844,17.375,54.779C490.657,383.441,484.485,402.894,473.282,417.299z"/>
<path d="M436.299,298.521c-0.5,0-0.984,0.047-1.469,0.109c-22.405,1.938-40.171,29.797-40.171,63.889
	c0,5.875,4.766,10.656,10.656,10.656s10.672-4.781,10.672-10.656c0-12.748,3.25-24.936,8.906-33.42
	c3.531-5.297,7.718-8.641,11.405-9.172v-0.078c5.891,0,10.671-4.766,10.671-10.672C446.97,303.303,442.189,298.521,436.299,298.521z
	"/>
<g>
</g>
<g>
</g>
<g>
</g>
<g>
</g>
<g>
</g>
<g>
</g>
<g>
</g>
<g>
</g>
<g>
</g>
<g>
</g>
<g>
</g>
<g>
</g>
<g>
</g>
<g>
</g>
<g>
</g>
</svg>
