<?xml version="1.0" encoding="iso-8859-1"?>
<!-- Generator: Adobe Illustrator 19.0.0, SVG Export Plug-In . SVG Version: 6.00 Build 0)  -->
<svg version="1.1" id="Layer_1" xmlns="http://www.w3.org/2000/svg" xmlns:xlink="http://www.w3.org/1999/xlink" x="0px" y="0px"
	 viewBox="0 0 511.983 511.983" style="enable-background:new 0 0 511.983 511.983;" xml:space="preserve">
<path style="fill:#F5F7FA;" d="M503.984,330.649c0,81.185-65.811,146.994-146.995,146.994c-81.186,0-146.995-65.81-146.995-146.994
	c0-81.178,65.81-146.987,146.995-146.987C438.174,183.662,503.984,249.471,503.984,330.649z"/>
<path style="fill:#FC6E51;" d="M469.329,331.305c0,65.186-52.842,117.996-117.996,117.996c-65.186,0-118.004-52.811-118.004-117.996
	c0-65.146,52.818-117.988,118.004-117.988C416.487,213.317,469.329,266.159,469.329,331.305z"/>
<path style="fill:#E9573F;" d="M266.655,137.975c0,0-86.66-41.999-89.324-42.671l-65.334,10.672l-61.334,37.327L14,202.661l4,68.639
	l13.999,55.35l77.334,55.998l53.998,12l46.663-4l-6.664-34.688l6.664-78.622l27.999-44.693l60.654-40.64L266.655,137.975z"/>
<polygon style="fill:#A0D468;" points="101.325,64.649 59.335,76.649 68.662,95.304 101.325,99.304 148.66,95.304 153.995,76.649 
	"/>
<path d="M127.996,341.336c-5.89,0-10.663,4.75-10.663,10.656c0,5.874,4.773,10.655,10.663,10.655
	c5.891,0,10.664-4.781,10.664-10.655C138.66,346.086,133.887,341.336,127.996,341.336z"/>
<path d="M170.659,341.336c-5.891,0-10.664,4.75-10.664,10.656c0,5.874,4.773,10.655,10.664,10.655s10.672-4.781,10.672-10.655
	C181.331,346.086,176.55,341.336,170.659,341.336z"/>
<path d="M351.989,170.662c-16.344,0-32.124,2.469-46.982,7.016c-24.109-51.608-74.959-88.216-134.723-92.013
	c0.711-28.78,17.554-45.124,18.335-45.874l-0.047,0.031l0,0c2.102-1.953,3.422-4.719,3.422-7.812
	c0-5.905-4.773-10.671-10.663-10.671c-2.805,0-5.344,1.078-7.242,2.844l-0.008-0.016c-0.914,0.859-17.641,16.687-23.296,44.67
	c-9.008-7.016-23.953-11.546-40.929-11.546c-0.727,0-1.453,0-2.188,0.016c-28.413,0.641-85.2,25.499-85.099,29.983
	c0.07,3.109,27.772,14.702,54.248,21.343C30.755,136.726,0,187.443,0,245.332c0,88.349,71.63,160.002,159.994,160.002
	c16.352,0,32.124-2.469,46.976-7.03c25.491,54.561,80.833,92.34,145.019,92.34c88.372,0,159.994-71.623,159.994-159.994
	C511.983,242.301,440.361,170.662,351.989,170.662z M108.458,92.04c-0.242,0-0.5,0.015-0.75,0.015
	c-7.375,0-19.21-2.187-32.616-5.952c13.742-4.562,25.78-7.297,33.062-7.469c0.57,0,1.141-0.016,1.703-0.016l0,0l0,0
	c13.312,0,22.233,3.453,26.46,6.094c-1.633,1.125-4.016,2.422-7.117,3.594c-4.531,0.891-8.991,1.953-13.374,3.203
	C113.536,91.79,111.083,91.977,108.458,92.04z M159.995,383.991c-2.805,0-5.594-0.094-8.366-0.25
	c4.78-1.062,8.366-5.312,8.366-10.406c0-5.906-4.773-10.688-10.663-10.688c-5.898,0-10.672,4.781-10.672,10.688
	c0,4.469,2.789,8.312,6.727,9.906c-13.57-1.438-26.757-4.812-39.358-10.156c-16.507-6.969-31.343-16.969-44.085-29.718
	c-12.741-12.749-22.741-27.562-29.726-44.062c-7.218-17.093-10.882-35.24-10.882-53.974s3.664-36.89,10.882-53.968
	c6.984-16.515,16.984-31.343,29.726-44.076c12.742-12.75,27.578-22.75,44.085-29.733c4.711-1.984,9.508-3.703,14.375-5.156
	c5.155-0.766,10.007-1.922,14.421-3.453c8.242-1.5,16.648-2.281,25.171-2.281c18.727,0,36.89,3.656,53.968,10.891
	c16.507,6.983,31.343,16.983,44.084,29.733c11.163,11.155,20.226,23.937,26.991,38.029c-54.92,25.344-93.044,80.873-93.044,145.332
	c0,16.624,2.531,32.623,7.234,47.717C186.564,382.085,173.432,383.991,159.995,383.991z M450.048,428.708
	c-12.749,12.75-27.592,22.75-44.092,29.719c-17.078,7.218-35.249,10.905-53.967,10.905c-18.719,0-36.89-3.688-53.967-10.905
	c-16.5-6.969-31.344-16.969-44.085-29.719s-22.741-27.562-29.726-44.092c-7.219-17.062-10.882-35.218-10.882-53.967
	c0-18.719,3.663-36.875,10.882-53.968c6.984-16.491,16.984-31.334,29.726-44.068s27.585-22.733,44.085-29.733
	c17.077-7.219,35.248-10.875,53.967-10.875c18.718,0,36.889,3.656,53.967,10.875c16.5,7,31.343,16.999,44.092,29.733
	c12.734,12.734,22.734,27.577,29.719,44.068c7.219,17.093,10.875,35.249,10.875,53.968c0,18.749-3.656,36.904-10.875,53.967
	C472.782,401.146,462.782,415.958,450.048,428.708z"/>
<path d="M319.99,394.647c-5.891,0-10.656,4.78-10.656,10.687c0,5.875,4.766,10.655,10.656,10.655s10.655-4.78,10.655-10.655
	C330.645,399.428,325.88,394.647,319.99,394.647z"/>
<path d="M405.331,351.992c0,5.874,4.766,10.655,10.656,10.655s10.656-4.781,10.656-10.655c0-5.906-4.766-10.656-10.656-10.656
	S405.331,346.086,405.331,351.992z"/>
<path d="M170.659,128.007c0-5.905-4.773-10.671-10.664-10.671c-0.133,0-0.266,0.016-0.398,0.016v-0.016
	c-70.505,0.218-127.598,57.435-127.598,127.996c0,5.89,4.773,10.671,10.664,10.671s10.672-4.781,10.672-10.671
	c0-28.484,11.093-55.28,31.241-75.42c20.046-20.062,46.678-31.14,75.021-31.249v-0.016c0.133,0,0.266,0.016,0.398,0.016
	C165.886,138.663,170.659,133.882,170.659,128.007z"/>
<path d="M351.989,202.661c-70.686,0-127.996,57.311-127.996,127.988c0,70.685,57.311,127.996,127.996,127.996
	s127.996-57.312,127.996-127.996C479.985,259.971,422.675,202.661,351.989,202.661z M458.126,319.993H382.16
	c-0.375-1.062-0.797-2.125-1.297-3.125l53.717-53.709C447.923,279.4,456.063,299.055,458.126,319.993z M362.645,224.519
	c20.951,2.078,40.592,10.203,56.857,23.546l-53.717,53.709c-1.016-0.469-2.062-0.906-3.141-1.281v-75.974H362.645z M341.333,224.519
	v75.974c-1.078,0.375-2.125,0.812-3.141,1.281l-53.717-53.709C300.741,234.722,320.381,226.582,341.333,224.519z M269.397,263.159
	l53.717,53.709c-0.5,1-0.922,2.062-1.296,3.125h-75.967C247.914,299.055,256.047,279.4,269.397,263.159z M245.851,341.336h75.967
	c0.374,1.062,0.796,2.094,1.296,3.125l-53.717,53.718C256.047,381.897,247.914,362.272,245.851,341.336z M341.333,436.802
	c-20.952-2.062-40.592-10.219-56.857-23.562l53.717-53.718c1.016,0.5,2.062,0.938,3.141,1.312v75.968H341.333z M351.989,341.336
	c-5.875,0-10.656-4.812-10.656-10.687s4.781-10.656,10.656-10.656s10.656,4.781,10.656,10.656S357.864,341.336,351.989,341.336z
	 M362.645,436.802v-75.967c1.078-0.375,2.125-0.812,3.141-1.312l53.701,53.718C403.237,426.583,383.596,434.739,362.645,436.802z
	 M434.58,398.179l-53.717-53.718c0.5-1.031,0.922-2.062,1.297-3.125h33.827h42.139C456.063,362.272,447.923,381.897,434.58,398.179z
	"/>
<g>
</g>
<g>
</g>
<g>
</g>
<g>
</g>
<g>
</g>
<g>
</g>
<g>
</g>
<g>
</g>
<g>
</g>
<g>
</g>
<g>
</g>
<g>
</g>
<g>
</g>
<g>
</g>
<g>
</g>
</svg>
