<?xml version="1.0" encoding="iso-8859-1"?>
<!-- Generator: Adobe Illustrator 19.0.0, SVG Export Plug-In . SVG Version: 6.00 Build 0)  -->
<svg version="1.1" id="Layer_1" xmlns="http://www.w3.org/2000/svg" xmlns:xlink="http://www.w3.org/1999/xlink" x="0px" y="0px"
	 viewBox="0 0 511.985 511.985" style="enable-background:new 0 0 511.985 511.985;" xml:space="preserve">
<polygon style="fill:#FC6E51;" points="278.663,143.341 220.665,110.67 147.324,110.67 90.669,118.014 51.326,131.341 
	23.327,176.668 12,247.337 35.327,354.177 97.997,384.005 161.995,384.005 229.993,384.005 231.993,264.665 255.992,216.01 
	296.663,186.667 "/>
<polygon style="fill:#A0D468;" points="129.324,42.375 47.67,52.703 44.327,67.03 83.326,90.374 116.996,100.701 151.995,91.702 
	158.323,72.374 "/>
<path style="fill:#FFCE54;" d="M492.656,273.993l-29.327-62.67l-43.998-19.328l-40.64,10.672l-31.999-4.672l-44.686-0.672
	l-44.437,17.546l-31.562,53.968l4.437,88.527l30.218,69.295l66.669,37.999h51.358c0,0,74.638-31.343,78.638-33.999
	s39.999-69.342,39.999-69.342L492.656,273.993z"/>
<polygon style="fill:#965353;" points="401.331,283.32 362.692,243.322 352.02,254.665 333.661,277.992 323.005,314.319 
	334.005,345.318 363.036,375.989 383.176,362.661 403.659,315.991 "/>
<path d="M414.925,183.683c-12.922,0-26.875,2.89-41.687,9.124c-0.75-5.156-5.171-9.124-10.546-9.124s-9.797,3.968-10.547,9.14
	c-14.141-5.953-27.531-8.858-39.983-9.108c-17.655-62.076-63.217-84.404-117.137-85.498c-0.984-0.031-2-0.062-3.016-0.062
	c-8.343,0-17.281-0.203-26.562-0.344c2.875-11.937,9.718-22.343,20.421-31.03c10.203-8.28,20.203-11.843,20.296-11.874v-0.016
	c4.172-1.438,7.188-5.391,7.188-10.078c0-5.875-4.781-10.656-10.672-10.656c-1.203,0-2.359,0.219-3.453,0.578l0,0
	c-0.531,0.172-13.109,4.547-26.14,14.953c-3.141,2.469-6.015,5.125-8.687,7.875c-8.016-12.812-23.375-23.125-42.295-26.688
	c-3.328-0.624-7.078-0.905-11.156-0.905c-33.624,0-88.403,19.374-89.591,25.655c-1.031,5.406,31.655,34.405,60.779,50.092
	C36.827,119.295,0,155.121,0,247.696c0,137.793,80.7,149.543,150.151,149.543c12.078,0,23.796-0.359,34.702-0.469
	c1.969,0.047,3.938,0.078,5.938,0.078c12.171,0,23.953-1.047,35.124-3.359c35.904,88.402,136.199,88.527,136.746,88.527l0,0l0,0
	c0.656,0,148.635-0.172,149.322-156.338C512.327,245.385,474.563,183.683,414.925,183.683z M362.692,254.087
	c3.469,3.281,7.312,7.219,11.14,11.688c9.547,11.187,20.937,28.217,20.937,45.732s-11.39,34.546-20.937,45.732
	c-3.828,4.469-7.671,8.406-11.14,11.688c-3.453-3.281-7.328-7.219-11.141-11.688c-9.547-11.187-20.938-28.217-20.938-45.732
	s11.391-34.546,20.938-45.732C355.364,261.305,359.239,257.368,362.692,254.087z M290.585,186.057
	c-48.405,12.016-78.232,68.529-77.232,139.621c0.25,17.733,2.359,33.451,5.906,47.373c-8.781,1.641-18.296,2.469-28.468,2.469
	c-34.671,0-59.732-7.891-76.623-24.108c-9.734-9.359-17.015-21.499-22.233-37.14c-6-17.984-9.047-40.451-9.047-66.779
	c0-26.312,3.047-48.779,9.047-66.778c5.218-15.625,12.5-27.765,22.233-37.124c16.89-16.219,41.952-24.093,76.623-24.093
	c16.359,0,31.015,2.109,43.577,6.28c12.921,4.281,23.953,10.891,32.795,19.625C277.507,155.652,285.319,169.246,290.585,186.057z
	 M56.17,62.155c3.141-1.03,6.578-2.124,10.375-3.187c17.078-4.875,33.28-7.656,44.405-7.656c3.594,0,5.891,0.297,7.203,0.531
	c10.187,1.922,19.375,6.703,25.202,13.124c2.562,2.812,6.688,8.469,5.547,14.594c-1.672,8.906-14.125,15.593-28.952,15.593
	c-3.219,0-6.5-0.297-9.75-0.906c-6.812-1.281-20.921-7.562-40.155-21.405C64.842,69.108,60.17,65.468,56.17,62.155z M61.248,356.645
	c-12.203-8.53-21.343-20.217-27.906-35.748c-7.968-18.875-12-43.499-12-73.201c0-29.796,4.109-54.514,12.218-73.435
	c6.688-15.594,16-27.327,28.468-35.921c10.891-7.484,24.265-12.625,40.874-15.687c1.203-0.219,2.422-0.438,3.641-0.625
	c-27.546,21.53-44.999,60.123-44.999,125.464c0,65.545,17.562,104.185,45.249,125.684C90.169,370.614,74.279,365.739,61.248,356.645
	z M470.829,403.926c-10.172,16.249-24.453,29.374-42.42,39.046c-31.578,17-64.264,17.671-65.748,17.702
	c-1.453-0.031-33.766-0.702-65.17-17.702c-40.89-22.125-62.03-61.67-62.811-117.59c-0.312-22.109,2.562-42.483,8.531-60.545
	c5.546-16.812,13.781-31.062,23.764-41.187c12.188-12.374,26.766-18.64,43.312-18.64c0.016,0,0.016,0,0.016,0
	c12.905,0.016,26.937,3.797,41.718,11.265v18.641c-15.578,13.921-42.733,42.982-42.733,76.591c0,47.139,53.405,85.342,53.405,85.342
	s53.404-38.203,53.404-85.342c0-33.608-27.156-62.67-42.733-76.591v-18.672c14.749-7.452,28.749-11.233,41.562-11.233
	c16.249,0,30.592,6.141,42.654,18.233c10.031,10.094,18.359,24.374,24.031,41.312c6.094,18.155,9.125,38.701,9.031,61.029
	C490.501,356.817,483.845,383.177,470.829,403.926z"/>
<path d="M363.036,290.18c5.89,0,10.671-4.781,10.671-10.672c0-5.89-4.781-10.671-10.671-10.671c-5.906,0-10.672,4.781-10.672,10.671
	S357.13,290.18,363.036,290.18z"/>
<path d="M362.692,332.835c-5.891,0-10.672,4.78-10.672,10.671s4.781,10.671,10.672,10.671c5.89,0,10.671-4.78,10.671-10.671
	S368.582,332.835,362.692,332.835z"/>
<path d="M357.364,311.507c0-5.891-4.781-10.672-10.672-10.672s-10.672,4.781-10.672,10.672s4.781,10.672,10.672,10.672
	S357.364,317.397,357.364,311.507z"/>
<path d="M368.02,311.507c0,5.891,4.78,10.672,10.671,10.672c5.89,0,10.671-4.781,10.671-10.672s-4.781-10.672-10.671-10.672
	S368.02,305.616,368.02,311.507z"/>
<g>
</g>
<g>
</g>
<g>
</g>
<g>
</g>
<g>
</g>
<g>
</g>
<g>
</g>
<g>
</g>
<g>
</g>
<g>
</g>
<g>
</g>
<g>
</g>
<g>
</g>
<g>
</g>
<g>
</g>
</svg>
