<?xml version="1.0" encoding="iso-8859-1"?>
<!-- Generator: Adobe Illustrator 19.0.0, SVG Export Plug-In . SVG Version: 6.00 Build 0)  -->
<svg version="1.1" id="Layer_1" xmlns="http://www.w3.org/2000/svg" xmlns:xlink="http://www.w3.org/1999/xlink" x="0px" y="0px"
	 viewBox="0 0 511.981 511.981" style="enable-background:new 0 0 511.981 511.981;" xml:space="preserve">
<g>
	<polygon style="fill:#A0D468;" points="202.657,266.652 170.658,215.309 138.659,258.652 121.996,305.986 117.332,357.984 
		143.331,413.982 170.658,448.654 217.328,379.984 223.328,319.314 	"/>
	<polygon style="fill:#A0D468;" points="416.642,200.653 386.642,137.984 360.644,191.982 336.644,285.314 336.644,334.799 
		357.332,409.31 386.642,465.308 432.641,356.656 435.329,290.658 	"/>
</g>
<path d="M509.076,153.139h0.031c-1.156-1.219-28.342-29.812-73.122-44.327c-26.483-8.578-53.607-10.437-80.638-5.531
	c-7.484,1.359-14.953,3.234-22.391,5.64c1.312-2.812,2.391-5.609,3.25-8.406c5-16.187,2.844-32.499-6.406-48.467
	c-16.905-29.233-51.17-40.749-79.685-26.812c-24.764,12.094-35.061,42.093-22.951,66.874c4.883,9.984,13.453,17.343,24.124,20.734
	c9.702,3.078,20.749,2.75,31.108-0.922c7.344-2.609,14.266-9.906,17.219-18.187c2.844-7.937,2.031-16.328-2.219-23.671
	c-0.031-0.047-0.062-0.094-0.094-0.141c-0.062-0.125-0.125-0.219-0.188-0.344l0,0c-1.875-3.078-5.25-5.141-9.125-5.141
	c-5.891,0-10.656,4.766-10.656,10.672c0,2.015,0.562,3.906,1.531,5.5v0.016c1.172,1.953,1.406,3.719,0.719,5.766
	c-1,3.016-3.469,5.078-4.312,5.422c-10.062,3.562-23.405,2.25-28.944-9.078c-6.937-14.203-1.038-31.405,13.164-38.342
	c9.116-4.469,19.03-5,28.64-1.531c9.516,3.406,17.766,10.468,23.202,19.874c8.047,13.906,14.437,35.905-22.499,66.592
	c-10.781,6.531-21.477,14.156-32.046,22.875c-28.96,23.905-59.428,38.811-90.575,44.295c-24.796,4.359-50.209,2.828-75.513-4.578
	c-43.765-12.812-72.498-39.045-72.779-39.311l-0.008,0.016c-1.906-1.766-4.445-2.859-7.25-2.859C4.772,149.767,0,154.548,0,160.438
	c0,3.078,1.319,5.859,3.413,7.797l-0.008,0.016c1.289,1.203,32.116,29.515,80.428,43.889c18.194,5.406,36.468,8.125,54.615,8.125
	c4.672,0,9.336-0.188,13.984-0.562c-18.914,26.952-45.772,72.818-45.772,116.005c0,66.652,63.998,127.088,63.998,127.088
	s63.998-72.777,63.998-127.088c0-38.656-32.374-93.006-51.068-121.161c29.999-7.672,59.131-23.062,86.777-45.874
	c28.969-23.906,58.654-38.812,88.248-44.312c6.531-1.203,13.077-1.937,19.624-2.25c-15.718,32.155-58.248,124.933-58.248,188.564
	c0,78.045,63.997,181.963,63.997,181.963s63.998-100.652,63.998-181.963c0-66.162-42.342-157.003-58.139-188.627
	c13,0.469,25.953,2.734,38.734,6.796c39.826,12.656,64.716,38.64,64.966,38.89l0,0c1.938,2.062,4.703,3.375,7.781,3.375
	c5.874,0,10.655-4.781,10.655-10.671C511.982,157.608,510.888,155.045,509.076,153.139z M213.329,335.705
	c0,9.498-2.781,21.045-8.266,34.326c-4.773,11.578-11.523,24.219-20.055,37.592c-5.335,8.359-10.718,15.969-15.429,22.297
	c-4.289-5.219-9.062-11.438-13.805-18.438c-12.671-18.717-27.78-47.076-27.78-75.777c0-23.219,9.875-52,28.569-83.241
	c4.484-7.484,9-14.328,13.125-20.203c4.453,6.906,9.445,15,14.429,23.75C202.954,289.142,213.329,317.439,213.329,335.705z
	 M384.205,448.81c-4.093-8.031-8.546-17.203-12.968-27.125c-3.64-8.141-6.968-16.094-9.952-23.826
	c5.797,5.826,13.827,9.436,22.701,9.436c9.344,0,17.766-4,23.625-10.404c-3.219,8.42-6.812,17.061-10.812,25.889
	C392.517,432.31,388.189,441.107,384.205,448.81z M373.331,311.299c0-5.875,4.781-10.656,10.655-10.656
	c5.875,0,10.656,4.781,10.656,10.656c0,5.891-4.781,10.672-10.656,10.672C378.112,321.97,373.331,317.189,373.331,311.299z
	 M394.642,375.297c0,5.875-4.781,10.672-10.656,10.672c-5.874,0-10.655-4.797-10.655-10.672s4.781-10.656,10.655-10.656
	C389.861,364.64,394.642,369.422,394.642,375.297z M415.892,372.859c-1.25-16.531-15.031-29.547-31.875-29.562
	c17.656,0,31.969-14.326,31.969-31.998s-14.328-32-32-32c-17.67,0-31.998,14.328-31.998,32s14.312,31.998,31.967,31.998
	c-16.467,0.016-29.998,12.469-31.779,28.469c-7.156-23.203-10.844-43.857-10.844-61.092c0-17.156,3.625-38.725,10.656-63.756
	c0,0.125,0,0.25,0,0.375c0,17.688,14.328,32.006,31.998,32.006c17.672,0,32-14.318,32-32.006c0-0.656-0.031-1.328-0.062-2
	c7.062,25.281,10.719,47.381,10.719,65.381C426.642,328.611,422.986,349.64,415.892,372.859z M373.331,247.292
	c0-5.875,4.781-10.656,10.655-10.656c5.875,0,10.656,4.781,10.656,10.656c0,5.891-4.781,10.672-10.656,10.672
	C378.112,257.965,373.331,253.183,373.331,247.292z M411.799,231.48c-5.5-9.656-15.891-16.187-27.812-16.187
	c-11.265,0-21.154,5.828-26.857,14.625c4.078-12.688,8.922-26.156,14.515-40.249c4.281-10.75,8.562-20.812,12.53-29.765
	c3.875,8.625,8.047,18.296,12.188,28.655C402.392,203.575,407.549,217.918,411.799,231.48z"/>
<path d="M138.659,302.799c0,17.672,14.328,32,31.999,32s31.999-14.328,31.999-32c0-17.688-14.328-32.006-31.999-32.006
	S138.659,285.111,138.659,302.799z M170.658,292.127c5.883,0,10.672,4.781,10.672,10.672c0,5.875-4.789,10.656-10.672,10.656
	c-5.875,0-10.664-4.781-10.664-10.656C159.994,296.908,164.783,292.127,170.658,292.127z"/>
<path d="M138.659,366.797c0,17.672,14.328,32,31.999,32s31.999-14.328,31.999-32c0-17.688-14.328-31.998-31.999-31.998
	S138.659,349.109,138.659,366.797z M170.658,356.125c5.883,0,10.672,4.781,10.672,10.672c0,5.875-4.789,10.656-10.672,10.656
	c-5.875,0-10.664-4.781-10.664-10.656C159.994,360.906,164.783,356.125,170.658,356.125z"/>
<g>
</g>
<g>
</g>
<g>
</g>
<g>
</g>
<g>
</g>
<g>
</g>
<g>
</g>
<g>
</g>
<g>
</g>
<g>
</g>
<g>
</g>
<g>
</g>
<g>
</g>
<g>
</g>
<g>
</g>
</svg>
