<?xml version="1.0" encoding="iso-8859-1"?>
<!-- Generator: Adobe Illustrator 19.0.0, SVG Export Plug-In . SVG Version: 6.00 Build 0)  -->
<svg version="1.1" id="Layer_1" xmlns="http://www.w3.org/2000/svg" xmlns:xlink="http://www.w3.org/1999/xlink" x="0px" y="0px"
	 viewBox="0 0 511.987 511.987" style="enable-background:new 0 0 511.987 511.987;" xml:space="preserve">
<polygon style="fill:#FC6E51;" points="349.367,276.491 321.868,246.992 284.369,228.993 253.87,221.993 197.872,241.992 
	160.373,283.991 149.874,369.988 168.373,458.486 201.872,492.484 250.37,500.984 306.119,492.484 338.867,467.985 354.867,409.987 
	358.367,330.49 "/>
<path d="M268.213,213.837c2.594-1.938,6.219-3.578,11.391-4.516c4.875-0.891,9.625-0.844,12.891-0.641
	c1.75,0.516,3.891,0.641,6.203,0.641c5.891,0,10.671-4.781,10.671-10.671c0-5.234-3.78-9.578-8.765-10.484v-0.016
	c-0.969-0.172-8.469-1.438-17.938-0.703c19.875-18.172,45.857-16.906,47.342-16.812v-0.016c0.234,0.016,0.453,0.031,0.688,0.031
	c5.891,0,10.672-4.78,10.672-10.655c0-5.656-4.391-10.266-9.938-10.641v-0.016c-0.688-0.047-16.983-1.078-35.686,5.797
	c-4.469,1.656-9.312,3.844-14.234,6.766c5.422-8.672,11.844-16.531,19.281-23.547c16.937-16.015,33.076-21.515,33.232-21.562v-0.016
	c4.266-1.391,7.344-5.391,7.344-10.124c0-5.891-4.781-10.656-10.672-10.656c-1.141,0-2.25,0.172-3.281,0.516
	c-0.812,0.25-20.062,6.641-40.389,25.499c-3.562,3.297-7.297,7.141-11.062,11.547c4.078-11.922,8.766-22.359,13.234-30.983
	c13.531-26.155,27.89-41.843,28.046-41.999l-0.016-0.016c1.766-1.891,2.859-4.438,2.859-7.234c0-5.891-4.781-10.671-10.672-10.671
	c-3.093,0-5.858,1.312-7.812,3.421V46.06c-0.656,0.703-16.094,17.469-30.938,45.89c-1-41.608-3.844-79.606-4.031-82.106h-0.016
	C266.195,4.344,261.601,0,255.993,0c-5.891,0-10.671,4.766-10.671,10.656c0,0.281,0.031,0.547,0.047,0.812h-0.016
	c0.047,0.625,3.155,41.92,4.062,85.372c-1.422-2.828-2.875-5.5-4.296-7.984c-15-26.046-31.983-38.89-32.702-39.421l-0.016,0.016
	c-1.766-1.328-3.969-2.125-6.359-2.125c-5.891,0-10.672,4.766-10.672,10.672c0,3.484,1.688,6.562,4.266,8.516l0,0
	c0.141,0.109,14.734,11.312,27.515,33.89c4.781,8.452,8.703,17.312,11.734,26.546c-2.312-2.609-4.656-5-6.938-7.141
	c-17.515-16.468-35.608-22.952-36.374-23.218v0.016c-1.109-0.391-2.297-0.609-3.531-0.609c-5.891,0-10.671,4.766-10.671,10.656
	c0,4.655,2.983,8.593,7.14,10.062c0.438,0.156,32.827,11.984,47.921,45.28c-2.297-1.234-4.688-2.391-7.219-3.484
	c-17.843-7.688-35.593-9.156-36.327-9.219v0.016c-0.281-0.031-0.562-0.047-0.844-0.047c-5.891,0-10.671,4.781-10.671,10.672
	c0,5.609,4.327,10.187,9.827,10.624c0.406,0.031,30.03,2.594,45.812,17.828c-12.656-3.422-24.687-0.484-26.358-0.047v0.016
	c-4.578,1.203-7.938,5.359-7.938,10.297c0,5.89,4.766,10.671,10.656,10.671c0.953,0,1.858-0.141,2.718-0.359h0.016
	c0.109-0.031,12.344-2.938,20.281,2.125c1.312,0.844,2.453,1.891,3.438,3.141c-63.436,7.266-101.2,58.124-101.2,139.089
	c0,87.623,22.905,158.668,117.371,158.668s117.371-71.045,117.371-158.668C373.366,270.68,334.023,219.415,268.213,213.837z
	 M325.086,263.383c0.234,0.266,0.453,0.531,0.688,0.797c8.297,9.875,14.703,22.171,19.109,36.514l-28.562-28.545L325.086,263.383z
	 M240.918,407.893l-30.171,30.171l-30.171-30.171l30.171-30.155L240.918,407.893z M180.576,317.396l30.171-30.171l30.171,30.171
	l-30.171,30.171L180.576,317.396z M225.824,362.644l30.171-30.17l30.171,30.17l-30.171,30.172L225.824,362.644z M301.244,377.738
	l30.17,30.155l-30.17,30.171l-30.172-30.171L301.244,377.738z M271.072,317.396l30.172-30.171l30.17,30.171l-30.17,30.171
	L271.072,317.396z M309.102,249.195l-7.858,7.859L281.65,237.46C291.838,239.836,300.994,243.758,309.102,249.195z M255.995,241.976
	l30.171,30.172l-30.171,30.155l-30.171-30.154L255.995,241.976z M230.34,237.461l-19.593,19.594l-7.875-7.859
	C210.981,243.758,220.152,239.836,230.34,237.461z M186.216,264.18c0.219-0.266,0.453-0.531,0.688-0.797l8.75,8.766l-28.546,28.545
	C171.514,286.35,177.92,274.054,186.216,264.18z M161.514,388.832c-1.047-10.859-1.562-22.688-1.562-35.516
	c0-5.53,0.344-10.812,0.734-16.029l4.797-4.812l30.171,30.17l-30.171,30.172L161.514,388.832z M185.997,462.813
	c-2.093-2.608-4.062-5.405-5.905-8.421c-4.969-8.141-9-17.766-12.125-28.922l27.687,27.688L185.997,462.813z M207.653,480.578
	c-2.031-1.047-3.969-2.188-5.844-3.406l8.938-8.937l20.155,20.171C222.23,486.734,214.45,484.125,207.653,480.578z M225.824,453.158
	l30.171-30.172l30.171,30.172l-30.171,30.17L225.824,453.158z M304.338,480.578c-6.812,3.547-14.578,6.156-23.25,7.828
	l20.156-20.171l8.937,8.937C308.306,478.39,306.353,479.531,304.338,480.578z M331.898,454.392
	c-1.844,3.016-3.812,5.812-5.906,8.421l-9.671-9.655l27.687-27.688C340.898,436.627,336.867,446.252,331.898,454.392z
	 M346.492,392.816l-30.171-30.172l30.171-30.17l4.969,4.969c0.375,5.14,0.578,10.437,0.578,15.873
	c0,12.828-0.516,24.656-1.562,35.516L346.492,392.816z"/>
<g>
</g>
<g>
</g>
<g>
</g>
<g>
</g>
<g>
</g>
<g>
</g>
<g>
</g>
<g>
</g>
<g>
</g>
<g>
</g>
<g>
</g>
<g>
</g>
<g>
</g>
<g>
</g>
<g>
</g>
</svg>
