<?xml version="1.0" encoding="iso-8859-1"?>
<!-- Generator: Adobe Illustrator 19.0.0, SVG Export Plug-In . SVG Version: 6.00 Build 0)  -->
<svg version="1.1" id="Layer_1" xmlns="http://www.w3.org/2000/svg" xmlns:xlink="http://www.w3.org/1999/xlink" x="0px" y="0px"
	 viewBox="0 0 511.975 511.975" style="enable-background:new 0 0 511.975 511.975;" xml:space="preserve">
<polygon style="fill:#D84532;" points="489.999,194.662 461.999,169.319 432.656,169.319 364.003,158.663 334.003,153.32 
	257.685,149.992 186.687,149.992 162.016,158.663 146.016,158.663 91.362,158.663 68.019,169.991 46.691,167.991 23.364,195.99 
	11.364,288.66 38.02,379.984 92.018,443.982 110.689,442.654 160.016,457.982 328.003,457.982 401.329,445.31 449.999,423.31 
	489.999,331.314 503.998,265.316 "/>
<path style="fill:#E9573F;" d="M439.984,171.319c-1.328-2-22.671-12.328-22.671-12.328l-73.998-2.328l-193.314,3.328l-59.326,1.328
	l-17.343,14l-6,14.671l-10,46.67l2.672,79.997l34.67,97.996l28,28l31.999,15.328l15.328-2.672l22,10l83.318,6l40.671-7.328l60.67-14
	l34.655-26l35.998-85.996l6.672-119.325C453.983,218.661,441.312,173.319,439.984,171.319z"/>
<polygon style="fill:#A0D468;" points="303.317,48.01 269.325,61.339 242.67,95.337 230.67,143.336 282.661,147.336 282.661,98.009 
	319.316,65.338 321.988,43.339 "/>
<polygon style="fill:#FC6E51;" points="374.986,202.99 364.987,176.991 321.988,149.992 241.998,149.992 161,156.007 
	139.001,182.991 132.001,218.88 132.001,278.988 150.001,368.203 170,435.326 199.999,471.31 310.988,471.31 328.003,457.982 
	354.987,400.984 379.986,280.988 "/>
<path d="M459.217,159.991h-16.655c-7.25-6.843-16.077-10.671-26.562-10.671h-66.357c-13.406-6.922-30.202-10.672-50.857-10.672
	h-11.375C270.841,84.837,340.8,65.525,340.8,65.525l-16.75-33.53c0,0-96.77,10.094-99.614,106.653h-11.359
	c-25.484,0-45.061,2.906-59.686,10.672h-58.17c-10.531,0-19.39,3.828-26.687,10.671h-15.53c-96.169,0-53.514,298.647,63.998,298.647
	h6.39c11,6.844,22.953,10.672,35.827,10.672h20.187c7.531,6.811,15.687,10.67,24.421,10.67h104.114
	c8.188,0,15.874-3.875,23.03-10.67h21.031c12.828,0,24.749-3.828,35.717-10.672h7.5
	C512.372,458.638,555.043,159.991,459.217,159.991z M256.482,97.15c6.156-10.968,15.078-20.281,26.523-27.718
	c6.828-4.438,13.812-7.688,20.109-10.093c-15.609,9.687-26.797,21.562-33.289,35.342c-4.75,10.031-8.656,25.031-4.438,43.967
	h-19.593C246.357,122.789,249.919,108.868,256.482,97.15z M50.175,380.578c-8.937-17.594-16.328-38.529-21.358-60.514
	c-4.891-21.422-7.484-43.451-7.484-63.669c0-24.171,3.75-45.03,10.578-58.701c2.922-5.875,6.281-10.203,9.969-12.906
	c3.25-2.359,6.781-3.468,11.125-3.468h1.203c-26.14,59.545-8.203,187.009,40.624,250.476c-4.453-2.25-8.828-5.156-13.109-8.781
	C70.284,413.359,59.363,398.687,50.175,380.578z M124.486,432.779c-11.546-10.453-22.562-26.311-31.843-45.889
	c-9.015-19.031-16.468-41.654-21.546-65.42c-4.938-23.156-7.547-46.967-7.547-68.857c0-26.327,3.844-49.092,10.812-64.092
	c3-6.421,6.546-11.359,10.296-14.281c3.125-2.438,6.484-3.594,10.562-3.594h36.046c-9.593,16.437-13.75,40.437-13.75,74.717
	c0,60.466,16.156,153.901,45.17,202.618h-3.469C147.157,447.982,135.798,443.013,124.486,432.779z M203.827,458.638
	c-5.187,0-12.093-5.656-18.937-15.531c-8.703-12.547-17.093-31.529-24.265-54.873c-13.234-43.061-21.781-99.137-21.781-142.87
	c0-36.749,4.984-59.155,15.703-70.545c4.719-4.984,10.969-8.453,19.718-10.859c9.688-2.672,22.39-3.969,38.812-3.969h85.709
	c26.951,0,45.764,7.062,57.529,21.593c11.156,13.781,16.812,35.217,16.812,63.748c0,15.171-2.047,37.124-5.608,60.216
	c-4.047,26.266-9.703,52.186-16.359,74.951c-18.734,64.107-37.546,78.139-43.218,78.139H203.827z M347.018,447.982
	c30.39-52.654,47.451-156.277,47.451-202.649c0-30.406-5.875-56.124-19.655-74.686h41.187c4.016,0,7.328,1.125,10.422,3.562
	c3.718,2.906,7.249,7.828,10.218,14.234c6.953,14.984,10.78,37.702,10.78,64.014c0,21.875-2.608,45.716-7.546,68.888
	c-5.062,23.797-12.515,46.436-21.515,65.482c-9.266,19.609-20.25,35.498-31.766,45.951c-11.28,10.234-22.592,15.203-34.592,15.203
	h-4.984V447.982z M461.842,380.547c-9.172,18.109-20.062,32.797-31.483,42.467c-4.827,4.094-9.78,7.312-14.812,9.641
	c49.201-63.17,67.42-191.54,41.279-251.335h2.391c4.297,0,7.781,1.094,10.984,3.437c3.672,2.672,7.016,7.016,9.922,12.859
	c6.781,13.656,10.516,34.467,10.516,58.623c0,20.234-2.578,42.263-7.484,63.716C478.139,341.955,470.764,362.922,461.842,380.547z"
	/>
<g>
</g>
<g>
</g>
<g>
</g>
<g>
</g>
<g>
</g>
<g>
</g>
<g>
</g>
<g>
</g>
<g>
</g>
<g>
</g>
<g>
</g>
<g>
</g>
<g>
</g>
<g>
</g>
<g>
</g>
</svg>
