<?xml version="1.0" encoding="iso-8859-1"?>
<!-- Generator: Adobe Illustrator 19.0.0, SVG Export Plug-In . SVG Version: 6.00 Build 0)  -->
<svg version="1.1" id="Layer_1" xmlns="http://www.w3.org/2000/svg" xmlns:xlink="http://www.w3.org/1999/xlink" x="0px" y="0px"
	 viewBox="0 0 511.979 511.979" style="enable-background:new 0 0 511.979 511.979;" xml:space="preserve">
<path style="fill:#D63A5F;" d="M484.659,146.667l-73.654-47.999l-15,2.344l-6,6l-16.327,22.655c0,0-19.671-3-20.671-3.328
	s-14.328,16-14.328,16l4,23l-7.672,16.671l-10.328,16.656l-15.999-3.656l-22.343-13.343l-18.32-26.171h-18.328l-43.342,5.172
	l-9,19.343l0.344,19.328l-23,3.328l-2.672-13.328l4.672-1.328l8.328-11.671l-5.328-15l-32.999-5.844l-13.671-13.156L96.35,128.669
	l-40.999,34.669l-20,11.671l-16,26.655l6.672,10.672l318.982-3.328l125.324-10.343l20-19L484.659,146.667z"/>
<rect x="8.011" y="212.341" style="fill:#FFCE54;" width="490.98" height="232.65"/>
<path d="M510.016,147.964c3.281-4.906,1.969-11.515-2.922-14.796c-2.64-1.766-5.796-2.188-8.64-1.438l-0.016-0.016
	c-0.203,0.062-17.593,3.938-38.702-6.469c20.594-39.467,45.437-50.123,45.718-50.248l-0.078,0.031l0,0
	c1.89-0.781,3.577-2.094,4.796-3.938c3.281-4.875,1.969-11.5-2.922-14.781c-3.062-2.047-6.812-2.297-9.983-1l0,0
	c-1.375,0.562-30.921,12.75-55.139,57.639c-15.53-14.859-18.187-31.546-18.296-32.374v0.078h-0.016
	c-0.391-2.938-1.969-5.687-4.609-7.453c-4.891-3.266-11.516-1.953-14.797,2.922c-1.5,2.25-2.031,4.859-1.688,7.343h-0.016
	c0.047,0.406,0.516,3.672,2.062,8.609c-2.094-0.421-4.219-0.64-6.344-0.64c-10.297,0-20.421,4.968-26.593,14.187
	c-2.312,3.468-3.858,7.203-4.687,11.031c-3.312-1.109-6.734-1.656-10.141-1.656c-10.312,0-20.438,4.984-26.609,14.187
	c-8.203,12.25-6.812,28.124,2.422,38.749c-3.234,2.218-6.109,5.078-8.422,8.531c-3.624,5.406-5.374,11.515-5.405,17.562
	c-5.016-9.078-14.249-15.25-24.655-16.328c0.828-3.828,0.984-7.891,0.312-11.984c-2.562-15.687-16.125-26.843-31.508-26.843
	c-1.703,0-3.452,0.156-5.187,0.438c-8.079,1.312-14.953,5.562-19.719,11.469c-5.031-3.219-10.953-5.031-17.171-5.031
	c-1.703,0-3.453,0.141-5.188,0.422c-17.437,2.859-29.249,19.281-26.405,36.702c0.672,4.125,2.094,7.906,4.125,11.281
	c-3.141,1.422-5.984,3.344-8.453,5.625c-1.703-1.937-3.609-3.64-5.656-5.078c9.296-10.547,10.812-26.421,2.688-38.733
	c-6.141-9.312-16.328-14.375-26.718-14.375c-3.343,0-6.687,0.531-9.937,1.594c-0.797-3.844-2.312-7.593-4.609-11.062
	c-6.14-9.328-16.328-14.375-26.718-14.375c-2.047,0-4.094,0.188-6.109,0.594c1.578-4.938,2.062-8.188,2.125-8.594h-0.016
	c0.344-2.5-0.156-5.093-1.641-7.359c-3.25-4.922-9.859-6.266-14.765-3.031c-2.656,1.75-4.265,4.484-4.687,7.422l0,0
	c-0.031,0.203-2.844,18.624-20.656,34.077c-15.687-18.499-18.562-28.358-18.593-28.483c0.031,0.172,0.047,0.25,0.047,0.25l0,0
	c-0.281-1.203-0.766-2.391-1.484-3.5c-3.234-4.906-9.859-6.25-14.765-3.031c-3.812,2.531-5.468,7.062-4.515,11.281h-0.016
	c0.547,2.406,3.953,14.187,21.124,34.952c-19.687,8.515-36.045,4.5-36.858,4.296l0.078,0.016v0.016
	c-2.859-0.781-6-0.375-8.672,1.375c-4.906,3.234-6.265,9.844-3.031,14.75c1.5,2.266,3.688,3.766,6.109,4.422v0.016
	c0.406,0.094,3.594,0.938,8.734,1.438c-4.578,6.718-6.421,15-5.156,23.015H0.009v234.473c0,11.781,9.547,21.328,21.312,21.328
	h468.963c11.765,0,21.311-9.547,21.311-21.328V201.665h-20.967c-0.938-1.562-2-3.078-3.219-4.484
	c3.219-2.219,6.093-5.078,8.421-8.531c7.422-11.093,6.984-25.171-0.031-35.624c5.156-0.438,8.359-1.25,8.75-1.359l-0.672,0.656
	C506.313,151.682,508.516,150.214,510.016,147.964z M460.393,164.932c1.984-2.969,5.312-4.734,8.891-4.734l0,0
	c1.469,0,3.672,0.312,5.906,1.797c3.188,2.141,4.203,5.172,4.516,6.781c0.328,1.625,0.547,4.812-1.594,8
	c-1.984,2.969-5.312,4.75-8.891,4.75c-1.453,0-3.672-0.312-5.891-1.812c-3.203-2.141-4.219-5.172-4.531-6.781
	C458.487,171.306,458.268,168.119,460.393,164.932z M424.973,141.214c1.984-2.969,5.312-4.75,8.89-4.75l0,0
	c1.453,0,3.672,0.312,5.891,1.812l0,0c0.016,0,0.016,0,0.016,0c3.188,2.141,4.203,5.172,4.516,6.781
	c0.328,1.625,0.531,4.812-1.594,8c-1.984,2.968-5.312,4.75-8.891,4.75c-1.469,0-3.672-0.328-5.905-1.812
	c-3.188-2.141-4.203-5.171-4.516-6.781C423.052,147.589,422.833,144.401,424.973,141.214z M490.284,244.304H21.321v-21.312h10.656
	c0,5.875,4.781,10.656,10.656,10.656c5.89,0,10.656-4.781,10.656-10.656h21.328c0,5.875,4.765,10.656,10.656,10.656
	s10.656-4.781,10.656-10.656h21.312c0,5.875,4.781,10.656,10.671,10.656c5.875,0,10.656-4.781,10.656-10.656h21.312
	c0,5.875,4.781,10.656,10.656,10.656c5.891,0,10.656-4.781,10.656-10.656h21.327c0,5.875,4.766,10.656,10.656,10.656
	s10.656-4.781,10.656-10.656h21.312c0,5.875,4.781,10.656,10.656,10.656c5.89,0,10.671-4.781,10.671-10.656h21.305
	c0,5.875,4.766,10.656,10.656,10.656s10.655-4.781,10.655-10.656h21.327c0,5.875,4.766,10.656,10.656,10.656
	c5.875,0,10.656-4.781,10.656-10.656h21.312c0,5.875,4.781,10.656,10.655,10.656c5.891,0,10.656-4.781,10.656-10.656h21.328
	c0,5.875,4.766,10.656,10.656,10.656s10.655-4.781,10.655-10.656h21.312c0,5.875,4.781,10.656,10.672,10.656
	c5.875,0,10.656-4.781,10.656-10.656h10.656L490.284,244.304L490.284,244.304z M389.552,117.48c1.984-2.953,5.297-4.734,8.891-4.734
	l0,0c1.453,0,3.672,0.312,5.891,1.812c3.188,2.125,4.203,5.156,4.531,6.781c0.312,1.625,0.531,4.812-1.609,8
	c-1.984,2.969-5.297,4.734-8.875,4.734c-1.469,0-3.672-0.312-5.906-1.797C387.598,128.995,386.286,122.371,389.552,117.48z
	 M383.536,164.776c1.984-2.969,5.312-4.75,8.891-4.75l0,0c1.469,0,3.672,0.312,5.906,1.812c3.188,2.141,4.203,5.172,4.516,6.781
	c0.328,1.625,0.547,4.812-1.594,8c-1.984,2.969-5.312,4.75-8.891,4.75c-1.453,0-3.672-0.312-5.906-1.812
	c-3.187-2.141-4.202-5.172-4.515-6.781C381.615,171.15,381.396,167.963,383.536,164.776z M348.116,141.057
	c1.984-2.969,5.312-4.75,8.891-4.75l0,0c1.453,0,3.672,0.312,5.891,1.812c3.203,2.141,4.219,5.172,4.531,6.781
	c0.312,1.625,0.531,4.812-1.594,8c-1.984,2.968-5.312,4.734-8.891,4.734c-1.469,0-3.672-0.312-5.906-1.797
	c-3.188-2.141-4.203-5.171-4.516-6.796C346.194,147.432,345.975,144.245,348.116,141.057z M342.1,188.337
	c1.984-2.969,5.312-4.734,8.891-4.734l0,0c1.469,0,3.672,0.312,5.906,1.796c3.188,2.141,4.203,5.172,4.516,6.797
	c0.328,1.609,0.547,4.797-1.594,8c-0.359,0.531-0.75,1.016-1.188,1.469h-15.344c-1.844-1.891-2.531-4.046-2.781-5.328
	C340.194,194.712,339.975,191.525,342.1,188.337z M289.29,198.978c0.578-0.094,1.172-0.141,1.75-0.141l0,0l0,0
	c2.719,0,5.25,1.062,7.156,2.828H283.79C285.274,200.305,287.149,199.337,289.29,198.978z M261.391,160.338
	c0.578-0.094,1.172-0.156,1.75-0.156l0,0l0,0c5.141,0,9.648,3.859,10.477,8.968c0.609,3.781-0.906,6.594-1.867,7.938
	c-0.953,1.328-3.141,3.672-6.922,4.281c-0.594,0.094-1.188,0.156-1.766,0.156c-5.14,0-9.64-3.844-10.484-8.953
	C251.642,166.776,255.579,161.276,261.391,160.338z M212.378,171.494c0.969-1.328,3.14-3.656,6.937-4.281
	c0.578-0.094,1.172-0.156,1.75-0.156l0,0l0,0c5.141,0,9.656,3.843,10.484,8.953c0.609,3.797-0.906,6.609-1.875,7.938
	c-0.953,1.343-3.141,3.671-6.922,4.296c-0.594,0.094-1.188,0.156-1.766,0.156c-5.141,0-9.64-3.859-10.484-8.953
	C209.893,175.65,211.409,172.838,212.378,171.494z M145.036,171.431c0.344-1.625,1.375-4.64,4.578-6.75
	c2.203-1.469,4.39-1.766,5.843-1.766l0,0l0,0c3.609,0,6.938,1.797,8.922,4.797c2.109,3.203,1.875,6.39,1.547,8
	c-0.328,1.625-1.375,4.656-4.578,6.75c-2.219,1.469-4.391,1.781-5.844,1.781c-3.609,0-6.937-1.796-8.921-4.812
	C144.473,176.244,144.708,173.056,145.036,171.431z M128.786,191.181c2.109,3.203,1.875,6.391,1.547,8
	c-0.141,0.656-0.391,1.531-0.844,2.484h-19.203c-1.344-2.765-1.125-5.359-0.844-6.765c0.328-1.625,1.375-4.641,4.578-6.75
	c2.203-1.469,4.391-1.781,5.844-1.781C123.474,186.368,126.802,188.181,128.786,191.181z M108.349,140.807
	c2.219-1.453,4.391-1.75,5.844-1.75c3.609,0,6.938,1.781,8.921,4.781c3.234,4.906,1.875,11.531-3.031,14.781
	c-2.203,1.453-4.391,1.75-5.844,1.75c-3.609,0-6.937-1.781-8.921-4.781C102.084,150.682,103.444,144.057,108.349,140.807z
	 M72.757,164.276c2.203-1.453,4.39-1.75,5.843-1.75l0,0l0,0c3.609,0,6.938,1.781,8.922,4.781c2.109,3.218,1.875,6.406,1.547,8.015
	c-0.344,1.609-1.375,4.641-4.578,6.766c-2.219,1.453-4.391,1.75-5.844,1.75c-3.609,0-6.937-1.781-8.921-4.781l0,0l0,0
	C66.491,174.15,67.851,167.526,72.757,164.276z M32.586,194.493c0.328-1.594,1.375-4.625,4.578-6.75
	c2.203-1.453,4.391-1.75,5.844-1.75l0,0l0,0c3.609,0,6.937,1.781,8.921,4.781l0,0l0,0c2.219,3.375,2.266,7.562,0.5,10.89H33.633
	C32.071,198.759,32.289,195.978,32.586,194.493z M21.321,436.141V265.616h468.963v170.525H21.321z M420.005,201.665
	c-1.734-1.859-2.391-3.937-2.641-5.171c-0.312-1.625-0.531-4.812,1.594-8c1.984-2.969,5.312-4.734,8.891-4.734l0,0
	c1.469,0,3.671,0.312,5.905,1.796c3.188,2.141,4.203,5.188,4.516,6.797c0.328,1.609,0.547,4.797-1.594,8
	c-0.312,0.469-0.672,0.906-1.047,1.312H420.005z"/>
<path d="M42.633,276.271c-5.875,0-10.656,4.781-10.656,10.656v127.901c0,5.891,4.781,10.656,10.656,10.656
	c5.89,0,10.656-4.766,10.656-10.656v-127.9C53.289,281.053,48.523,276.271,42.633,276.271z"/>
<g>
</g>
<g>
</g>
<g>
</g>
<g>
</g>
<g>
</g>
<g>
</g>
<g>
</g>
<g>
</g>
<g>
</g>
<g>
</g>
<g>
</g>
<g>
</g>
<g>
</g>
<g>
</g>
<g>
</g>
</svg>
