<?xml version="1.0" encoding="iso-8859-1"?>
<!-- Generator: Adobe Illustrator 19.0.0, SVG Export Plug-In . SVG Version: 6.00 Build 0)  -->
<svg version="1.1" id="Layer_1" xmlns="http://www.w3.org/2000/svg" xmlns:xlink="http://www.w3.org/1999/xlink" x="0px" y="0px"
	 viewBox="0 0 511.982 511.982" style="enable-background:new 0 0 511.982 511.982;" xml:space="preserve">
<polygon style="fill:#76A336;" points="319.989,311.489 331.988,216.492 289.99,136.495 220.992,94.496 170.494,87.497 
	107.996,98.996 47.498,147.995 12.499,234.492 41.998,338.489 100.996,392.659 187.993,408.987 191.993,369.487 183.994,321.989 "/>
<polygon style="fill:#A0D468;" points="187.493,327.489 212.993,408.987 262.99,448.485 325.394,465.485 400.064,456.485 
	470.984,403.331 498.983,320.989 "/>
<polygon style="fill:#ED5564;" points="215.492,320.989 236.992,378.487 275.99,418.485 331.988,433.985 400.064,423.485 
	447.984,381.987 466.984,322.989 "/>
<path d="M328.894,309.333c8-19.779,12.438-41.373,12.438-63.997c0-90.201-69.982-164.042-158.596-170.245
	c5.116-15.953,22.421-22,23.288-22.296v-0.016c4.242-1.406,7.305-5.406,7.305-10.109c0-5.891-4.781-10.672-10.672-10.672
	c-1.156,0-2.266,0.188-3.305,0.531l0,0c-1.031,0.344-10.367,3.516-19.733,11.25c-10.281,8.468-16.664,19.108-18.82,31.187
	C71.137,80.059,0,154.385,0,245.336c0,94.247,76.403,170.649,170.658,170.649c11.891,0,23.491-1.219,34.687-3.529
	c31.171,41.029,80.474,67.527,135.987,67.527c94.247,0,170.65-76.402,170.65-170.65L328.894,309.333L328.894,309.333z
	 M456.719,330.661c-4.234,23.217-15.39,44.576-32.436,61.639c-22.156,22.154-51.624,34.357-82.951,34.357
	c-31.343,0-60.811-12.203-82.974-34.357c-17.046-17.062-28.187-38.422-32.429-61.639H456.719z M276.24,139.745
	c13.734,13.718,24.5,29.687,32.03,47.467c7.781,18.39,11.719,37.937,11.719,58.124c0,20.155-3.938,39.718-11.719,58.122
	c-0.844,1.969-1.749,3.938-2.655,5.875h-28.609c7.234-21.186,10.984-42.732,10.984-63.997c0-40.562-13.531-82.123-39.147-120.215
	c-2.852-4.218-5.694-8.187-8.483-11.89C253.538,120.183,265.576,129.058,276.24,139.745z M199.282,98.746
	c14.383,13.843,67.372,70.06,67.372,146.589c0,23.655-5.141,45.28-12.327,63.997h-36.116c3.43-20.342,5.781-42.217,5.781-63.997
	c0-59.061-17.202-118.622-26.687-146.964C197.962,98.481,198.626,98.621,199.282,98.746z M65.067,350.927
	c-13.718-13.719-24.491-29.703-32.007-47.469c-7.78-18.404-11.726-37.967-11.726-58.122c0-20.187,3.945-39.733,11.726-58.124
	c7.516-17.781,18.289-33.749,32.007-47.467c10.672-10.687,22.711-19.562,35.897-26.515c-2.789,3.703-5.633,7.672-8.484,11.89
	c-25.608,38.093-39.146,79.654-39.146,120.215s13.538,82.122,39.146,120.183c2.852,4.25,5.695,8.219,8.484,11.906
	C87.778,370.471,75.739,361.581,65.067,350.927z M142.034,391.925c-6.125-5.906-19.25-19.453-32.21-38.844
	c-16.039-23.967-35.163-62.121-35.163-107.745s19.124-83.779,35.163-107.778c12.96-19.375,26.085-32.921,32.218-38.812
	c0.656-0.125,1.312-0.266,1.977-0.375c-9.484,28.343-26.687,87.903-26.687,146.964c0,59.044,17.202,118.62,26.687,146.964
	C143.354,392.175,142.698,392.05,142.034,391.925z M173.9,394.612c-1.078,0.031-2.156,0.047-3.242,0.047
	c-1.078,0-2.156-0.016-3.234-0.047c-7.422-20.875-28.765-86.467-28.765-149.276c0-62.826,21.351-128.402,28.765-149.292
	c1.078-0.016,2.156-0.047,3.234-0.047c1.086,0,2.164,0.031,3.25,0.047c7.414,20.859,28.749,86.373,28.749,149.292
	c0,21.655-2.539,43.624-6.164,63.997h-25.835c0,21.438,3.969,41.969,11.195,60.873C178.681,380.8,175.822,389.206,173.9,394.612z
	 M446.922,414.923c-13.733,13.719-29.701,24.484-47.482,32c-18.39,7.781-37.951,11.734-58.107,11.734
	c-20.187,0-39.732-3.953-58.123-11.734c-17.789-7.516-33.757-18.281-47.482-32c-13.719-13.717-24.483-29.701-32.007-47.467
	c-5.008-11.844-8.422-24.154-10.227-36.795h10.82c10.258,66.451,67.677,117.324,137.019,117.324
	c69.311,0,126.746-50.873,136.996-117.324h10.812c-1.797,12.641-5.219,24.951-10.219,36.795
	C471.406,385.221,460.64,401.206,446.922,414.923z"/>
<path d="M255.991,362.659c5.89,0,10.663-4.781,10.663-10.67c0-5.891-4.773-10.656-10.663-10.656
	c-5.891,0-10.663,4.766-10.663,10.656C245.328,357.878,250.1,362.659,255.991,362.659z"/>
<path d="M309.333,362.659c5.875,0,10.656-4.781,10.656-10.67c0-5.891-4.781-10.656-10.656-10.656
	c-5.905,0-10.687,4.766-10.687,10.656C298.646,357.878,303.428,362.659,309.333,362.659z"/>
<path d="M362.644,362.659c5.905,0,10.687-4.781,10.687-10.67c0-5.891-4.781-10.656-10.687-10.656
	c-5.875,0-10.656,4.766-10.656,10.656C351.988,357.878,356.769,362.659,362.644,362.659z"/>
<path d="M415.986,362.659c5.891,0,10.656-4.781,10.656-10.67c0-5.891-4.766-10.656-10.656-10.656s-10.656,4.766-10.656,10.656
	C405.33,357.878,410.095,362.659,415.986,362.659z"/>
<path d="M282.74,403.331c5.875,0,10.656-4.781,10.656-10.672s-4.781-10.672-10.656-10.672c-5.906,0-10.672,4.781-10.672,10.672
	S276.834,403.331,282.74,403.331z"/>
<path d="M336.066,403.331c5.891,0,10.672-4.781,10.672-10.672s-4.781-10.672-10.672-10.672s-10.672,4.781-10.672,10.672
	S330.176,403.331,336.066,403.331z"/>
<path d="M389.392,403.331c5.891,0,10.672-4.781,10.672-10.672s-4.781-10.672-10.672-10.672c-5.89,0-10.655,4.781-10.655,10.672
	S383.503,403.331,389.392,403.331z"/>
<g>
</g>
<g>
</g>
<g>
</g>
<g>
</g>
<g>
</g>
<g>
</g>
<g>
</g>
<g>
</g>
<g>
</g>
<g>
</g>
<g>
</g>
<g>
</g>
<g>
</g>
<g>
</g>
<g>
</g>
</svg>
