<?xml version="1.0" encoding="iso-8859-1"?>
<!-- Generator: Adobe Illustrator 19.0.0, SVG Export Plug-In . SVG Version: 6.00 Build 0)  -->
<svg version="1.1" id="Layer_1" xmlns="http://www.w3.org/2000/svg" xmlns:xlink="http://www.w3.org/1999/xlink" x="0px" y="0px"
	 viewBox="0 0 511.989 511.989" style="enable-background:new 0 0 511.989 511.989;" xml:space="preserve">
<circle style="fill:#656D78;" cx="256.746" cy="321.745" r="19.75"/>
<g>
	<path style="fill:#FFCE54;" d="M200.497,313.493c0,53.015-42.983,95.999-95.998,95.999S8.501,366.509,8.501,313.493
		s42.983-95.998,95.998-95.998S200.497,260.479,200.497,313.493z"/>
	<path style="fill:#FFCE54;" d="M502.491,313.493c0,53.015-42.983,95.999-95.998,95.999s-95.998-42.984-95.998-95.999
		s42.983-95.998,95.998-95.998S502.491,260.479,502.491,313.493z"/>
</g>
<path style="fill:#080808;" d="M405.337,207.996c-9.734,0-19.171,1.312-28.155,3.781l-27.469-71.452l9.938-10.218
	c4.062-4.188,4.016-10.859-0.109-14.984l-21.329-21.328c-2-2-4.719-3.141-7.547-3.141H277.34c-5.891,0-10.672,4.781-10.672,10.688
	c0,5.875,4.781,10.656,10.672,10.656h48.904l10.781,10.781l-7.375,7.562c-2.969,3.047-3.719,7.437-2.328,11.187
	c0,0.016,0.016,0.047,0.016,0.078l9.812,25.5l-145.153,18.141V165.34h32c5.891,0,10.672-4.781,10.672-10.688
	c0-5.875-4.781-10.656-10.672-10.656h-63.999c-5.891,0-10.664,4.781-10.664,10.656c0,5.906,4.773,10.688,10.664,10.688h10.671
	v29.093l-14.898,25.562c-14.711-7.656-31.406-12-49.101-12C47.858,207.995,0,255.839,0,314.65
	c0,58.843,47.858,106.686,106.67,106.686c51.515,0,94.607-36.718,104.521-85.342h14.64c4.406,12.421,16.257,21.343,30.171,21.343
	c17.648,0,31.991-14.344,31.991-31.999c0-7.375-2.499-14.187-6.718-19.593l68.326-106.28l7.672,19.984
	c-34.734,17.609-58.608,53.671-58.608,95.201c0,58.843,47.858,106.686,106.67,106.686s106.654-47.843,106.654-106.686
	C511.991,255.839,464.148,207.996,405.337,207.996z M256.004,293.339c-2.055,0-4.055,0.188-5.984,0.562l-51.327-87.999l131.989-16.5
	l-67.342,104.78C260.973,293.635,258.527,293.339,256.004,293.339z M106.671,399.992c-47.054,0-85.334-38.281-85.334-85.343
	c0-47.03,38.281-85.311,85.334-85.311c13.781,0,26.804,3.281,38.335,9.093l-47.554,81.53c-2.961,5.094-1.25,11.609,3.844,14.594
	c1.695,0.969,3.539,1.438,5.367,1.438c0,0,0.031,0,0.055,0h82.584C179.802,372.773,146.357,399.992,106.671,399.992z
	 M191.997,314.65h-66.756l37.499-64.265C180.662,266.042,191.997,289.057,191.997,314.65z M173.638,231.699l7.695-13.203
	l50.257,86.155c-2.477,2.938-4.445,6.312-5.758,9.999h-12.5C213.332,281.182,197.833,251.276,173.638,231.699z M256.004,335.993
	c-5.891,0-10.672-4.797-10.672-10.656c0-5.906,4.781-10.688,10.672-10.688c5.883,0,10.664,4.781,10.664,10.688
	C266.668,331.197,261.887,335.993,256.004,335.993z M405.337,399.992c-47.062,0-85.343-38.281-85.343-85.343
	c0-32.452,18.25-60.749,45-75.155l30.39,78.999c1.641,4.219,5.672,6.844,9.953,6.844c1.266,0,2.562-0.25,3.828-0.719
	c5.499-2.125,8.233-8.281,6.14-13.78l-30.42-79.03c6.562-1.625,13.421-2.469,20.452-2.469c47.046,0,85.326,38.28,85.326,85.311
	C490.663,361.712,452.383,399.992,405.337,399.992z"/>
<g>
</g>
<g>
</g>
<g>
</g>
<g>
</g>
<g>
</g>
<g>
</g>
<g>
</g>
<g>
</g>
<g>
</g>
<g>
</g>
<g>
</g>
<g>
</g>
<g>
</g>
<g>
</g>
<g>
</g>
</svg>
