<?xml version="1.0" encoding="iso-8859-1"?>
<!-- Generator: Adobe Illustrator 19.0.0, SVG Export Plug-In . SVG Version: 6.00 Build 0)  -->
<svg version="1.1" id="Layer_1" xmlns="http://www.w3.org/2000/svg" xmlns:xlink="http://www.w3.org/1999/xlink" x="0px" y="0px"
	 viewBox="0 0 511.992 511.992" style="enable-background:new 0 0 511.992 511.992;" xml:space="preserve">
<polygon style="fill:#AC92EB;" points="493.163,128.67 481.836,119.998 28.5,116.67 12.5,128.67 9.173,310.667 27.836,343.993 
	493.163,341.321 501.835,318.666 "/>
<rect x="57.836" y="161.996" style="fill:#4FC2E9;" width="435.33" height="77.998"/>
<g>
	<rect x="181.836" y="251.326" style="fill:#F5F7FA;" width="126" height="85.34"/>
	<polygon style="fill:#F5F7FA;" points="15.172,310.667 12.5,323.322 23.836,341.321 47.836,336.666 75.171,310.667 	"/>
</g>
<g>
	<path style="fill:#656D78;" d="M434.82,352.493c0,22.172-17.984,40.156-40.171,40.156c-22.171,0-40.155-17.984-40.155-40.156
		c0-22.187,17.984-40.171,40.155-40.171C416.836,312.322,434.82,330.307,434.82,352.493z"/>
	<path style="fill:#656D78;" d="M136.163,352.009c0,22.172-17.984,40.156-40.164,40.156s-40.163-17.984-40.163-40.156
		c0-22.187,17.984-40.17,40.163-40.17S136.163,329.822,136.163,352.009z"/>
</g>
<path d="M479.992,106.655H32c-17.648,0-32,14.374-32,31.999v181.34c0,17.655,14.351,31.999,32,31.999h10.664
	c0,29.406,23.929,53.344,53.335,53.344s53.335-23.938,53.335-53.344h192.004c0,29.406,23.906,53.344,53.312,53.344
	s53.343-23.938,53.343-53.344h32c17.655,0,31.999-14.344,31.999-31.999V245.34v-85.342v-21.344
	C511.991,121.029,497.647,106.655,479.992,106.655z M383.994,170.653h106.653v63.999H383.994V170.653z M32,330.65
	c-5.883,0-10.664-4.781-10.664-10.656h32.023c-2.469,3.281-4.555,6.859-6.227,10.656H32z M95.999,383.993c-17.648,0-32-14.344-32-32
	c0-17.655,14.352-31.999,32-31.999s32,14.344,32,31.999C127.998,369.649,113.647,383.993,95.999,383.993z M144.865,330.65
	c-8.25-18.812-27.039-31.999-48.866-31.999H21.336V138.654c0-5.875,4.781-10.656,10.664-10.656h447.992
	c5.875,0,10.655,4.781,10.655,10.656v10.688h-117.31h-53.344h-10.655l0,0H298.65h-42.654h-21.335h-42.664h-10.664h-10.672H53.336
	c-5.891,0-10.672,4.766-10.672,10.656v85.342c0,5.875,4.781,10.656,10.672,10.656h117.326v74.654L144.865,330.65L144.865,330.65z
	 M319.994,234.652v-63.999h42.656v63.999H319.994z M63.999,234.652v-63.999h42.664v63.999H63.999z M127.998,170.653h42.663v63.999
	h-42.663V170.653z M191.997,170.653h42.664v63.999h-42.664V170.653z M298.651,234.652h-42.655v-63.999h42.655V234.652z
	 M191.997,255.996h42.664v74.654h-42.664V255.996z M255.996,255.996h42.655v74.654h-42.655V255.996z M394.649,383.993
	c-17.624,0-31.999-14.344-31.999-32c0-17.655,14.375-31.999,31.999-31.999c17.655,0,31.999,14.344,31.999,31.999
	C426.648,369.649,412.305,383.993,394.649,383.993z M479.992,330.65h-36.469c-8.25-18.812-27.031-31.999-48.874-31.999
	c-21.812,0-40.608,13.188-48.858,31.999h-25.797v-74.654h53.344h117.31v21.343h-21.312c-5.906,0-10.688,4.766-10.688,10.656
	s4.781,10.656,10.688,10.656h21.312v21.343C490.647,325.869,485.867,330.65,479.992,330.65z"/>
<path d="M88.46,344.462c-4.171,4.156-4.171,10.906,0,15.062c4.164,4.188,10.914,4.188,15.078,0c4.172-4.156,4.172-10.906,0-15.062
	C99.374,340.274,92.624,340.274,88.46,344.462z"/>
<path d="M387.118,344.462c-4.155,4.156-4.155,10.906,0,15.062c4.156,4.188,10.922,4.188,15.094,0c4.156-4.156,4.156-10.906,0-15.062
	C398.04,340.274,391.274,340.274,387.118,344.462z"/>
<g>
</g>
<g>
</g>
<g>
</g>
<g>
</g>
<g>
</g>
<g>
</g>
<g>
</g>
<g>
</g>
<g>
</g>
<g>
</g>
<g>
</g>
<g>
</g>
<g>
</g>
<g>
</g>
<g>
</g>
</svg>
