<?xml version="1.0" encoding="iso-8859-1"?>
<!-- Generator: Adobe Illustrator 19.0.0, SVG Export Plug-In . SVG Version: 6.00 Build 0)  -->
<svg version="1.1" id="Layer_1" xmlns="http://www.w3.org/2000/svg" xmlns:xlink="http://www.w3.org/1999/xlink" x="0px" y="0px"
	 viewBox="0 0 511.994 511.994" style="enable-background:new 0 0 511.994 511.994;" xml:space="preserve">
<polygon style="fill:#FC6E51;" points="282.499,148.499 77.502,108.5 44.503,108.5 10.004,203.498 161.001,298.497 196,315.496 
	258.499,310.997 304.498,269.497 310.998,200.998 "/>
<rect x="31.327" y="238.667" style="fill:#ED5564;" width="41.999" height="72.66"/>
<polygon style="fill:#656D78;" points="308.748,267.247 265.749,316.996 324.497,316.996 "/>
<g>
	<rect x="34.007" y="322.497" style="fill:#E6E9ED;" width="298.99" height="39.968"/>
	<polygon style="fill:#E6E9ED;" points="481.495,253.497 332.997,253.497 335.497,364.495 500.494,358.995 500.494,288.997 	"/>
</g>
<polygon style="fill:#4FC2E9;" points="441.995,170.499 332.997,170.499 332.997,253.497 472.495,247.997 "/>
<g>
	<circle style="fill:#656D78;" cx="94.457" cy="369.137" r="42.12"/>
	<circle style="fill:#656D78;" cx="181.347" cy="364.497" r="42.12"/>
	<circle style="fill:#656D78;" cx="394.647" cy="362.467" r="42.12"/>
</g>
<path d="M511.994,287.372L490.65,244.7l-42.671-85.107l-127.857,0.125l-0.031,50.843c-1.141-15.031-5.172-27.687-9.53-37.358
	c-9.391-20.875-22.281-32.766-22.828-33.266c-1.28-1.188-2.858-2.031-4.546-2.469c-6.609-1.687-162.451-41.265-219.872-41.265
	c-7.468,0-24.921,0-29.374,12.141l-33,89.92c-3.875,10.547,4.469,20.859,20.437,33.062v88.154c0,0.109-0.016,0.219-0.016,0.328
	v42.655c0,5.891,4.766,10.672,10.672,10.672h11.718c4.953,24.328,26.468,42.655,52.265,42.655c17.453,0,32.937-8.374,42.671-21.327
	c9.719,12.953,25.203,21.327,42.656,21.327c25.796,0,47.312-18.327,52.265-42.655h86.388h22.391
	c4.953,24.328,26.469,42.655,52.265,42.655s47.312-18.327,52.265-42.655h64.858L511.994,287.372z M466.792,244.7h-82.951v-63.701
	l50.967-0.062L466.792,244.7z M362.513,180.999V244.7h-21.109l0.031-63.67L362.513,180.999z M303.342,281.544l15.155,27.609h-37.076
	C289.217,301.966,296.826,292.935,303.342,281.544z M320.059,267.669l-5.875-10.703c3.359-10.312,5.203-20.077,5.891-29.187
	L320.059,267.669z M292.545,254.278c-9.155,24.969-24.999,43.078-47.093,53.844c-0.734,0.344-1.453,0.688-2.172,1.031h-10.578
	l51.39-140.029c2.484,3.812,5.062,8.375,7.374,13.625C301.342,205.248,301.701,229.31,292.545,254.278z M42.69,351.808v-21.015
	c0-0.109,0.016-0.203,0.016-0.328h10.656c-4.672,6.219-8,13.452-9.609,21.343H42.69z M64.034,259.435v49.719H42.706v-62.969
	C49.065,250.309,56.19,254.716,64.034,259.435z M201.141,309.153c-18.296-9.188-48.124-24.391-78.327-40.844l49.374-134.528
	c38.859,8.077,76.108,17.03,94.249,21.499l-56.452,153.873H201.141z M104.502,282.591c17.031,9.391,34.265,18.531,49.718,26.562
	H96.049c-0.016,0-0.016-0.016-0.031-0.016s-0.016,0.016-0.016,0.016H85.377v-37.281C91.439,275.325,97.814,278.903,104.502,282.591z
	 M53.003,118.344c1.562-0.375,4.656-0.812,10.312-0.812c19.797,0,53.14,5.25,87.717,12l-47.093,128.341
	c-19.906-11.172-36.593-21.124-49.765-29.687c-23.234-15.094-30.203-22.453-32.25-25.188L53.003,118.344z M96.018,394.464
	c-17.64,0-31.984-14.344-31.984-32c0-17.641,14.344-31.999,31.984-31.999s32,14.358,32,31.999
	C128.017,380.12,113.658,394.464,96.018,394.464z M181.344,394.464c-17.641,0-32-14.344-32-32c0-17.641,14.359-31.999,32-31.999
	c17.64,0,31.999,14.358,31.999,31.999C213.343,380.12,198.984,394.464,181.344,394.464z M233.609,351.808
	c-1.109-5.438-3.047-10.594-5.672-15.28c5.453-1.156,12.265-3.031,19.718-6.062h72.342v21.343L233.609,351.808L233.609,351.808z
	 M394.652,394.464c-17.64,0-31.999-14.344-31.999-32c0-17.641,14.359-31.999,31.999-31.999s31.999,14.358,31.999,31.999
	C426.651,380.12,412.292,394.464,394.652,394.464z M490.494,351.808h-43.577c-4.953-24.343-26.469-42.67-52.265-42.67
	s-47.312,18.327-52.265,42.67h-1.047l0.047-85.779h136.076l13.187,26.344L490.494,351.808z"/>
<path d="M394.652,351.808c-5.891,0-10.671,4.766-10.671,10.656s4.78,10.672,10.671,10.672s10.672-4.781,10.672-10.672
	S400.543,351.808,394.652,351.808z"/>
<path d="M96.018,351.808c-5.891,0-10.671,4.766-10.671,10.656s4.781,10.672,10.671,10.672s10.672-4.781,10.672-10.672
	S101.908,351.808,96.018,351.808z"/>
<path d="M181.344,351.808c-5.891,0-10.672,4.766-10.672,10.656s4.781,10.672,10.672,10.672s10.671-4.781,10.671-10.672
	S187.235,351.808,181.344,351.808z"/>
<g>
</g>
<g>
</g>
<g>
</g>
<g>
</g>
<g>
</g>
<g>
</g>
<g>
</g>
<g>
</g>
<g>
</g>
<g>
</g>
<g>
</g>
<g>
</g>
<g>
</g>
<g>
</g>
<g>
</g>
</svg>
