<svg id="icons" enable-background="new 0 0 64 64" height="512" viewBox="0 0 64 64" width="512" xmlns="http://www.w3.org/2000/svg"><g><g><path d="m4 26h3v4h-3z" fill="#656d78"/></g><g><path d="m57 26h3v4h-3z" fill="#656d78"/></g><g><path d="m7 33s4 12.01 25 12.01 25-12.01 25-12.01c0 15.279-10.69 26.811-25 30-14.32-3.189-25-14.721-25-30z" fill="#e6e9ed"/></g><g><path d="m22 5.85 5.7 13.15h-.7c-2.77 0-5-2.24-5-5z" fill="#656d78"/></g><g><path d="m57 30v3s-4 12.01-25 12.01-25-12.01-25-12.01v-3-4c0-2.53.38-4.97 1.07-7.26.35 1.85 1.97 3.26 3.93 3.26h17 3 3 17c1.96 0 3.58-1.41 3.93-3.26.7 2.29 1.07 4.73 1.07 7.26z" fill="#5d9cec"/></g><g><path d="m37 19c2.76 0 5-2.24 5-5v-8.15-.01l1-2.29c6.17 3.02 10.91 8.51 12.93 15.19-.35 1.85-1.97 3.26-3.93 3.26h-17l1.3-3z" fill="#e6e9ed"/></g><g><path d="m27 19h.7l1.3 3h-17c-1.96 0-3.58-1.41-3.93-3.26 2.02-6.68 6.76-12.17 12.93-15.19l1 2.29v.01 8.15c0 2.76 2.23 5 5 5z" fill="#e6e9ed"/></g><g><path d="m36.3 19 5.7-13.15v8.15c0 2.76-2.24 5-5 5z" fill="#656d78"/></g><g><path d="m42 5.84v.01l-5.7 13.15-1.3 3h-3v-21c3.95 0 7.68.91 11 2.55z" fill="#f5f7fa"/></g><g><path d="m32 1v21h-3l-1.3-3-5.7-13.15v-.01l-1-2.29c3.32-1.63 7.05-2.55 11-2.55z" fill="#f5f7fa"/></g><g><path d="m25.369 44.557c1.518.217 3.151.365 4.919.422l4.424-22.979h-2.712-2.289z" fill="#87bcf4"/></g><g><path d="m32.289 45.004c.688-.003 1.356-.021 2.008-.049l4.419-22.955h-1.998z" fill="#87bcf4"/></g></g><g><g><path d="m57 27c-.553 0-1-.448-1-1 0-13.233-10.767-24-24-24s-24 10.767-24 24c0 .552-.447 1-1 1s-1-.448-1-1c0-14.336 11.663-26 26-26s26 11.664 26 26c0 .552-.447 1-1 1z"/></g><g><path d="m57 34.001c-.553 0-1-.447-1-1v-7.001c0-.552.447-1 1-1s1 .448 1 1v7.001c0 .553-.447 1-1 1z"/></g><g><path d="m7 34.001c-.553 0-1-.447-1-1v-7.001c0-.552.447-1 1-1s1 .448 1 1v7.001c0 .553-.447 1-1 1z"/></g><g><path d="m31.999 64c-.458 0-.871-.316-.976-.782-.119-.539.22-1.074.759-1.194 14.486-3.225 24.218-14.889 24.218-29.023 0-.552.447-1 1-1s1 .448 1 1c0 15.093-10.361 27.541-25.782 30.976-.073.015-.147.023-.219.023z"/></g><g><path d="m31.999 64c-.072 0-.146-.008-.219-.023-15.42-3.436-25.78-15.883-25.78-30.976 0-.552.447-1 1-1s1 .448 1 1c0 14.133 9.731 25.797 24.216 29.022.539.12.878.655.759 1.194-.105.467-.518.783-.976.783z"/></g><g><path d="m31.999 22.997h-18.28c-.764 0-1.318 0-1.719-.034v.034c-2.404 0-4.471-1.712-4.912-4.072-.103-.543.256-1.065.798-1.167.55-.101 1.065.256 1.167.799.266 1.414 1.505 2.44 2.947 2.44.379.001 39.618.001 39.993 0 1.448 0 2.688-1.026 2.954-2.44.102-.542.621-.899 1.167-.799.542.102.9.624.798 1.167-.441 2.359-2.509 4.072-4.914 4.072v-.034c-.4.034-.955.034-1.719.034z"/></g><g><path d="m32 46.013c-21.474 0-25.776-12.178-25.949-12.695-.174-.524.109-1.091.633-1.265.526-.176 1.089.108 1.265.63.166.483 4.129 11.33 24.052 11.33 19.943 0 23.895-10.869 24.053-11.332.178-.522.748-.8 1.267-.625.521.176.804.739.63 1.262-.175.517-4.477 12.695-25.951 12.695z"/></g><g><path d="m34.995 22.997c-.133 0-.268-.027-.397-.083-.506-.22-.738-.809-.519-1.315l8.004-18.451c.219-.507.807-.741 1.315-.52.506.22.738.809.519 1.315l-8.004 18.451c-.163.377-.531.603-.918.603z"/></g><g><path d="m37 20.001c-.553 0-1-.448-1-1s.447-1 1-1c2.207 0 4.002-1.795 4.002-4.002 0-.552.447-1 1-1s1 .448 1 1c0 3.31-2.692 6.002-6.002 6.002z"/></g><g><path d="m42.002 14.999c-.553 0-1-.448-1-1v-8.153c0-.552.447-1 1-1s1 .448 1 1v8.153c0 .552-.447 1-1 1z"/></g><g><path d="m37 20.001h-.705c-.553 0-1-.448-1-1s.447-1 1-1h.705c.553 0 1 .448 1 1s-.447 1-1 1z"/></g><g><path d="m29.005 22.997c-.387 0-.755-.226-.918-.603l-8.004-18.451c-.22-.507.013-1.096.519-1.315.507-.221 1.097.013 1.315.52l8.004 18.451c.22.507-.013 1.096-.519 1.315-.13.056-.264.083-.397.083z"/></g><g><path d="m27 20.001c-3.31 0-6.002-2.692-6.002-6.002 0-.552.447-1 1-1s1 .448 1 1c0 2.207 1.795 4.002 4.002 4.002.553 0 1 .448 1 1s-.447 1-1 1z"/></g><g><path d="m21.998 14.999c-.553 0-1-.448-1-1v-8.153c0-.552.447-1 1-1s1 .448 1 1v8.153c0 .552-.447 1-1 1z"/></g><g><path d="m27.703 20.001h-.703c-.553 0-1-.448-1-1s.447-1 1-1h.703c.553 0 1 .448 1 1s-.447 1-1 1z"/></g><g><path d="m32 22.997c-.553 0-1-.448-1-1v-20.997c0-.552.447-1 1-1s1 .448 1 1v20.997c0 .552-.447 1-1 1z"/></g><g><path d="m29.998 53.002c-.132 0-.266-.025-.395-.081l-7-3.002c-.507-.218-.742-.806-.524-1.313s.806-.743 1.313-.524l7 3.002c.507.218.742.806.524 1.313-.161.378-.53.605-.918.605z"/></g><g><path d="m29.998 57.006c-.132 0-.266-.025-.395-.081l-7-3.002c-.507-.218-.742-.806-.524-1.313s.806-.744 1.313-.524l7 3.002c.507.218.742.806.524 1.313-.161.378-.53.605-.918.605z"/></g><g><path d="m34.008 53.002c-.388 0-.757-.227-.919-.605-.218-.508.018-1.096.524-1.313l7-3.002c.506-.22 1.096.017 1.313.524s-.018 1.096-.524 1.313l-7 3.002c-.129.056-.262.081-.394.081z"/></g><g><path d="m34.008 57.006c-.388 0-.757-.227-.919-.605-.218-.508.018-1.096.524-1.313l7-3.002c.506-.221 1.096.016 1.313.524.218.508-.018 1.096-.524 1.313l-7 3.002c-.129.055-.262.081-.394.081z"/></g><g><path d="m60 31h-3c-.553 0-1-.448-1-1v-4c0-.552.447-1 1-1h3c.553 0 1 .448 1 1v4c0 .552-.447 1-1 1zm-2-2h1v-2h-1z"/></g><g><path d="m7 31h-3c-.553 0-1-.448-1-1v-4c0-.552.447-1 1-1h3c.553 0 1 .448 1 1v4c0 .552-.447 1-1 1zm-2-2h1v-2h-1z"/></g></g></svg>