<?xml version="1.0" encoding="iso-8859-1"?>
<!-- Generator: Adobe Illustrator 19.0.0, SVG Export Plug-In . SVG Version: 6.00 Build 0)  -->
<svg version="1.1" id="Layer_1" xmlns="http://www.w3.org/2000/svg" xmlns:xlink="http://www.w3.org/1999/xlink" x="0px" y="0px"
	 viewBox="0 0 511.993 511.993" style="enable-background:new 0 0 511.993 511.993;" xml:space="preserve">
<rect x="199.996" y="437.995" style="fill:#FFCE54;" width="112" height="64"/>
<polygon style="fill:#F5F7FA;" points="337.338,54.015 303.339,25.343 255.996,8 224.997,16.671 173.998,50.015 128.663,124.669 
	152.498,230.011 181.998,322.665 207.333,395.992 294.651,400.008 365.994,218.011 371.994,96.014 "/>
<g>
	<polygon style="fill:#ED5564;" points="224.997,19.999 224.997,8 173.998,19.999 115.999,54.999 80,125.997 80,201.996 
		107.999,288.994 168.998,367.992 196.997,395.992 224.997,388.992 224.997,364.992 171.998,248.167 157.998,133.997 
		176.998,72.998 	"/>
	<polygon style="fill:#ED5564;" points="287.995,19.999 287.995,8 338.994,19.999 396.993,54.999 432.992,125.997 432.992,201.996 
		404.993,288.994 343.994,367.992 315.994,395.992 287.995,388.992 287.995,364.992 340.994,248.167 354.994,133.997 
		335.994,72.998 	"/>
</g>
<path style="fill:#080808;" d="M410.884,68.154c-15.797-20.499-35.702-36.687-59.14-48.077C324.369,6.75,292.151,0,255.996,0
	c-0.109,0-0.219,0-0.32,0c-0.016,0-0.023,0-0.031,0c-36.257,0.031-68.171,5.688-94.842,16.812
	c-23.937,10-43.937,24.469-59.437,43.016C68.851,98.733,64,145.967,64,170.653c0,37.469,14.664,83.64,41.28,130.061
	c25.078,43.717,57.124,81.139,87.936,102.686c1.797,1.25,3.93,1.938,6.117,1.938h3.328v21.312c-5.891,0-10.664,4.781-10.664,10.687
	v64c0,5.875,4.773,10.656,10.664,10.656h106.678c5.874,0,10.655-4.781,10.655-10.656v-64c0-5.905-4.781-10.687-10.655-10.687
	v-21.312h3.312c2.188,0,4.328-0.688,6.125-1.938c30.812-21.547,62.859-58.969,87.937-102.686
	c26.624-46.421,41.28-92.592,41.28-130.061C447.992,145.559,438.273,103.654,410.884,68.154z M266.66,383.992V26.468
	c17.117,8.453,46.365,27.906,63.053,67.405c12.828,30.374,16.047,67.374,9.562,109.951c-7.906,52.077-30.405,112.669-66.873,180.168
	H266.66z M239.598,383.992c-36.374-67.312-58.857-127.778-66.834-179.777c-6.523-42.53-3.383-79.515,9.344-109.904
	c10.14-24.219,26.062-43.905,47.319-58.483c5.836-4.016,11.304-7.062,15.905-9.328v357.493h-5.734V383.992z M123.788,290.088
	c-24.438-42.593-38.452-86.123-38.452-119.436c0-21.78,4.21-63.404,32.397-97.154c20.944-25.062,51.101-41.155,89.982-48.155
	c-16.188,13.062-33.296,32.344-45.077,60.233c-14.391,34.062-18.102,74.921-11.023,121.451
	c7.891,51.857,29.344,111.325,63.812,176.965h-12.672C175.584,364.086,146.264,329.274,123.788,290.088z M223.997,405.336h9.211
	c0.016,0,0.039,0,0.055,0c0.023,0,0.047,0,0.062,0h12.007v21.312h-21.335V405.336z M298.651,490.646h-85.318V447.99h10.664
	c0,5.891,4.773,10.656,10.664,10.656c5.89,0,10.671-4.766,10.671-10.656h21.328c0,5.891,4.781,10.656,10.68,10.656
	c5.875,0,10.655-4.766,10.655-10.656h10.656V490.646z M287.995,426.647H266.66v-21.312h12.008c0.016,0,0.047,0,0.062,0
	s0.047,0,0.047,0h9.218V426.647z M388.212,290.088c-22.483,39.187-51.812,73.998-78.967,93.904h-12.688
	c34.468-65.64,55.937-125.107,63.812-176.965c7.094-46.53,3.375-87.39-11.016-121.451c-11.422-27.015-27.828-45.952-43.546-58.983
	c13.124,2.969,25.358,7.188,36.608,12.656c20.453,9.969,37.797,24.062,51.577,41.937c25.78,33.421,32.655,71.968,32.655,89.467
	C426.648,203.965,412.648,247.495,388.212,290.088z"/>
<g>
</g>
<g>
</g>
<g>
</g>
<g>
</g>
<g>
</g>
<g>
</g>
<g>
</g>
<g>
</g>
<g>
</g>
<g>
</g>
<g>
</g>
<g>
</g>
<g>
</g>
<g>
</g>
<g>
</g>
</svg>
