<svg id="icons" enable-background="new 0 0 64 64" height="512" viewBox="0 0 64 64" width="512" xmlns="http://www.w3.org/2000/svg"><g><g><path d="m12 38.99c0 11.05 8.95 20 20 20s20-8.95 20-20v4.01c0 11.04-8.95 20-20 20s-20-8.96-20-20z" fill="#f6bb42"/></g><g><path d="m15 38.99c0 9.39 7.61 17 17 17s17-7.61 17-17c0-9.38-7.61-17-17-17s-17 7.62-17 17zm37 0c0 11.05-8.95 20-20 20s-20-8.95-20-20c0-11.04 8.95-20 20-20s20 8.96 20 20z" fill="#ffce54"/></g><g><path d="m35.99 36.99c0 1.1-.45 2.1-1.17 2.83l-2.82-2.83 2.82-2.83c.72.731 1.17 1.731 1.17 2.83z" fill="#edab37"/></g><g><path d="m40.99 36.99c0 4.97-4.03 9-9 9-4.971 0-9-4.03-9-9s4.029-9 9-9c4.97 0 9 4.031 9 9zm-5 0c0-1.1-.45-2.1-1.17-2.83-.721-.72-1.721-1.17-2.83-1.17-1.101 0-2.09.45-2.82 1.17-.729.72-1.18 1.72-1.18 2.83s.45 2.11 1.18 2.83 1.72 1.17 2.82 1.17c1.109 0 2.109-.45 2.83-1.17.72-.73 1.17-1.73 1.17-2.83z" fill="#ffce54"/></g><g><path d="m34.82 34.16-2.82 2.83-2.83-2.83c.73-.72 1.72-1.17 2.82-1.17 1.11 0 2.11.45 2.83 1.17z" fill="#edab37"/></g><g><path d="m29.17 34.16 2.83 2.83-2.83 2.83c-.729-.72-1.18-1.72-1.18-2.83s.45-2.11 1.18-2.83z" fill="#edab37"/></g><g><path d="m22.99 36.99c0 4.97 4.029 9 9 9 4.97 0 9-4.03 9-9v4.01c0 4.971-4.03 9-9 9-4.971 0-9-4.029-9-9z" fill="#f6bb42"/></g><g><path d="m32 36.99 2.82 2.83c-.721.72-1.721 1.17-2.83 1.17-1.101 0-2.09-.45-2.82-1.17z" fill="#edab37"/></g><g><path d="m32 21.99c9.39 0 17 7.62 17 17 0 9.39-7.61 17-17 17s-17-7.61-17-17c0-9.38 7.61-17 17-17zm8.99 19.01v-4.01c0-4.97-4.03-9-9-9-4.971 0-9 4.03-9 9v4.01c0 4.971 4.029 9 9 9 4.97 0 9-4.029 9-9z" fill="#edab37"/></g><g><path d="m32 5.99-6.5 6.49-.01.01-11.49-11.49h13.01z" fill="#da4453"/></g><g><path d="m50 1-18 17.99-6.51-6.5.01-.01 6.5-6.49 4.98-4.99z" fill="#ed5565"/></g></g><g><g><path d="m32 60.004c-11.579 0-21-9.421-21-21s9.421-21 21-21 21 9.421 21 21-9.421 21-21 21zm0-40c-10.477 0-19 8.523-19 19s8.523 19 19 19 19-8.523 19-19-8.523-19-19-19z"/></g><g><path d="m32 64.008c-11.579 0-21-9.421-21-21 0-.553.447-1 1-1s1 .447 1 1c0 10.477 8.523 19 19 19s19-8.523 19-19c0-.553.447-1 1-1s1 .447 1 1c0 11.579-9.421 21-21 21z"/></g><g><path d="m32 57.004c-9.925 0-18-8.075-18-18s8.075-18 18-18 18 8.075 18 18-8.075 18-18 18zm0-34c-8.822 0-16 7.178-16 16s7.178 16 16 16 16-7.178 16-16-7.178-16-16-16z"/></g><g><g><path d="m31.993 46.998c-5.514 0-10-4.486-10-10s4.486-10 10-10 10 4.486 10 10-4.486 10-10 10zm0-18c-4.411 0-8 3.589-8 8s3.589 8 8 8 8-3.589 8-8-3.589-8-8-8z"/></g><g><path d="m31.993 51.01c-5.514 0-10-4.486-10-10 0-.553.447-1 1-1s1 .447 1 1c0 4.411 3.589 8 8 8s8-3.589 8-8c0-.553.447-1 1-1s1 .447 1 1c0 5.513-4.486 10-10 10z"/></g><g><path d="m31.993 41.998c-2.757 0-5-2.243-5-5s2.243-5 5-5 5 2.243 5 5-2.243 5-5 5zm0-8c-1.654 0-3 1.346-3 3s1.346 3 3 3 3-1.346 3-3-1.346-3-3-3z"/></g><g><path d="m29.165 40.826c-.256 0-.512-.098-.707-.293-.391-.391-.391-1.023 0-1.414l5.656-5.656c.391-.391 1.023-.391 1.414 0s.391 1.023 0 1.414l-5.656 5.656c-.195.196-.451.293-.707.293z"/></g><g><path d="m34.821 40.826c-.256 0-.512-.098-.707-.293l-5.656-5.656c-.391-.391-.391-1.023 0-1.414s1.023-.391 1.414 0l5.656 5.656c.391.391.391 1.023 0 1.414-.195.196-.451.293-.707.293z"/></g><g><path d="m22.993 42.01c-.553 0-1-.447-1-1v-4.012c0-.553.447-1 1-1s1 .447 1 1v4.012c0 .553-.447 1-1 1z"/></g><g><path d="m40.993 42.01c-.553 0-1-.447-1-1v-4.012c0-.553.447-1 1-1s1 .447 1 1v4.012c0 .553-.447 1-1 1z"/></g></g><g><path d="m12 44.008c-.553 0-1-.447-1-1v-4.004c0-.553.447-1 1-1s1 .447 1 1v4.004c0 .553-.447 1-1 1z"/></g><g><path d="m52 44.008c-.553 0-1-.447-1-1v-4.004c0-.553.447-1 1-1s1 .447 1 1v4.004c0 .553-.447 1-1 1z"/></g><g><path d="m32 20.004c-.256 0-.512-.098-.707-.293-.391-.391-.391-1.023 0-1.414l18-17.994c.391-.391 1.023-.391 1.414 0s.391 1.023 0 1.414l-18 17.994c-.195.195-.451.293-.707.293z"/></g><g><path d="m32 20.004c-.256 0-.512-.098-.707-.293l-18-17.994c-.391-.391-.391-1.023 0-1.414s1.023-.391 1.414 0l18 17.994c.391.391.391 1.023 0 1.414-.195.195-.451.293-.707.293z"/></g><g><path d="m25.502 13.486c-.256 0-.512-.098-.707-.293-.391-.391-.391-1.023 0-1.414l11.498-11.494c.391-.391 1.023-.391 1.414 0s.391 1.023 0 1.414l-11.498 11.494c-.195.196-.451.293-.707.293z"/></g><g><path d="m32 6.996c-.256 0-.512-.098-.707-.293l-4.989-4.988c-.391-.391-.391-1.023 0-1.414s1.023-.391 1.414 0l4.989 4.988c.391.391.391 1.023 0 1.414-.195.195-.451.293-.707.293z"/></g></g></svg>