<svg id="icons" enable-background="new 0 0 64 64" height="512" viewBox="0 0 64 64" width="512" xmlns="http://www.w3.org/2000/svg"><g><g><path d="m50.02 23.499v25.53c-1.06-.95-2.46-1.53-4-1.53h-7.98-.02v-1.24-4.01c5.301-2.31 9-7.6 9-13.75v-5z" fill="#965353"/></g><g><path d="m32 8.489c1.66 0 3 1.34 3 3 0 1.649-1.34 3-3 3s-3-1.351-3-3c0-1.66 1.34-3 3-3z" fill="#e6e9ed"/></g><g><path d="m50.02 22.039c1.421.82 1.961 1.46 1.961 1.46h-1.961-3-30-3-2.04s.569-.66 2.039-1.5c2.58-1.48 7.95-3.5 17.961-3.5 10.12 0 15.49 2.07 18.04 3.54z" fill="#656d78"/></g><g><path d="m50.02 20.499v1.54c-2.55-1.47-7.92-3.54-18.039-3.54-10.011 0-15.381 2.02-17.961 3.5v-1.5c0-9.94 8.051-18 18-18 9.94 0 18 8.06 18 18zm-15.02-9.01c0-1.66-1.34-3-3-3s-3 1.34-3 3c0 1.649 1.34 3 3 3s3-1.35 3-3z" fill="#ac92ec"/></g><g><g><path d="m32.02 2.499c-.678 0-1.345.045-2.003.117 8.939.99 15.9 8.523 15.99 17.706 1.772.565 3.083 1.181 4.013 1.717v-1.54c0-9.94-8.06-18-18-18z" fill="#967adc"/></g></g><g><path d="m35 43.209v4c-.96.2-1.96.3-2.98.3-2.13 0-4.17-.45-6-1.25v-4.01c1.841.8 3.87 1.25 6 1.25 1.02 0 2.02-.1 2.98-.29z" fill="#e6e9ed"/></g><g><path d="m26.02 46.259v1.24h-8c-1.539 0-2.939.58-4 1.53v-25.53h3v5c0 6.16 3.7 11.44 9 13.75z" fill="#965353"/></g><g><path d="m38.02 42.249v4.01c-.96.42-1.97.74-3.02.95v-4c1.05-.22 2.06-.54 3.02-.96z" fill="#ccd1d9"/></g><g><path d="m35 43.209c-.96.19-1.96.29-2.98.29-2.13 0-4.159-.45-6-1.25-5.3-2.31-9-7.59-9-13.75v-5h30v5c0 6.15-3.699 11.44-9 13.75-.96.42-1.97.74-3.02.96z" fill="#eac6bb"/></g><g><path d="m43.016 23.499v5c0 6.15-3.699 11.44-9 13.75-.96.42-1.97.74-3.02.96-.315.063-.641.1-.965.143.652.087 1.313.147 1.988.147 1.021 0 2.021-.1 2.98-.29 1.05-.22 2.06-.54 3.02-.96 5.301-2.31 9-7.6 9-13.75v-5z" fill="#d3b1a9"/></g><g><path d="m51.93 52.519h-8.87c-2.77 0-5.02-2.239-5.02-5.02h7.979c1.54 0 2.94.58 4 1.53 1.001.89 1.691 2.11 1.911 3.49z" fill="#656d78"/></g><g><path d="m18.02 47.499h8c0 2.78-2.25 5.02-5.02 5.02h-8.89c.22-1.38.909-2.6 1.909-3.489 1.061-.951 2.461-1.531 4.001-1.531z" fill="#656d78"/></g><g><path d="m38.04 47.499c0 2.78 2.25 5.02 5.02 5.02h8.87c.061.32.09.641.09.98v9h-8-24-8v-9c0-.34.03-.66.08-.98h.011 8.889c2.77 0 5.02-2.239 5.02-5.02v-1.24c1.83.8 3.87 1.25 6 1.25 1.021 0 2.021-.1 2.98-.3 1.05-.21 2.06-.53 3.02-.95v1.24z" fill="#ac92ec"/></g><g><g><path d="m51.93 52.519c-.22-1.38-.91-2.6-1.91-3.489-1.06-.95-2.46-1.53-4-1.53h-4.004c1.54 0 2.94.58 4 1.53 1 .89 1.69 2.109 1.91 3.489.061.32.09.641.09.98v9h4.004v-9c0-.34-.03-.66-.09-.98z" fill="#967adc"/></g></g><g><path d="m50.02 49.029c-1.06-.95-2.46-1.53-4-1.53h-4.004c1.54 0 2.94.58 4 1.53 1 .89 1.69 2.109 1.91 3.489h4.004c-.22-1.379-.91-2.599-1.91-3.489z" fill="#545c66"/></g></g><g><g><path d="m12.017 54.504c-.553 0-1-.447-1-1 0-3.861 3.141-7.002 7.002-7.002.553 0 1 .447 1 1s-.447 1-1 1c-2.758 0-5.002 2.244-5.002 5.002 0 .553-.448 1-1 1z"/></g><g><path d="m52.017 54.503c-.553 0-1-.447-1-1 0-2.757-2.243-5-5-5-.553 0-1-.447-1-1s.447-1 1-1c3.859 0 7 3.141 7 7 0 .553-.448 1-1 1z"/></g><g><path d="m26.017 48.503-7.998-.001c-.553 0-1-.448-1-1 0-.553.448-1 1-1l7.998.001c.553 0 1 .448 1 1 0 .553-.449 1-1 1z"/></g><g><path d="m46.017 48.503-8-.001c-.553 0-1-.448-1-1 0-.553.448-1 1-1l8 .001c.553 0 1 .448 1 1 0 .553-.449 1-1 1z"/></g><g><path d="m12.017 63.499c-.553 0-1-.447-1-1v-8.995c0-.553.447-1 1-1s1 .447 1 1v8.995c0 .553-.448 1-1 1z"/></g><g><path d="m52.017 63.499c-.553 0-1-.447-1-1v-8.996c0-.553.447-1 1-1s1 .447 1 1v8.996c0 .553-.448 1-1 1z"/></g><g><path d="m26.017 48.503c-.553 0-1-.447-1-1v-5.25c0-.553.447-1 1-1s1 .447 1 1v5.25c0 .553-.448 1-1 1z"/></g><g><path d="m38.017 48.502c-.553 0-1-.447-1-1v-5.249c0-.553.447-1 1-1s1 .447 1 1v5.249c0 .553-.448 1-1 1z"/></g><g><path d="m32.017 44.502c-8.822 0-16-7.178-16-16 0-.553.447-1 1-1s1 .447 1 1c0 7.72 6.28 14 14 14s14-6.28 14-14c0-.553.447-1 1-1s1 .447 1 1c0 8.822-7.178 16-16 16z"/></g><g><path d="m32.017 48.506c-2.231 0-4.391-.451-6.418-1.34-.506-.222-.736-.812-.515-1.317s.808-.735 1.317-.515c3.54 1.552 7.671 1.555 11.215.008.512-.224 1.097.011 1.316.516.222.506-.01 1.096-.516 1.316-2.022.884-4.176 1.332-6.399 1.332z"/></g><g><path d="m50.017 21.501c-.553 0-1-.447-1-1 0-9.374-7.626-17-17-17s-17 7.626-17 17c0 .553-.447 1-1 1s-1-.447-1-1c0-10.477 8.523-19 19-19s19 8.523 19 19c0 .553-.448 1-1 1z"/></g><g><path d="m17.017 29.502c-.553 0-1-.447-1-1v-4.997c0-.553.447-1 1-1s1 .447 1 1v4.997c0 .553-.448 1-1 1z"/></g><g><path d="m47.017 29.502c-.553 0-1-.447-1-1v-4.997c0-.553.447-1 1-1s1 .447 1 1v4.997c0 .553-.448 1-1 1z"/></g><g><path d="m14.017 50.03c-.553 0-1-.447-1-1v-25.528c0-.553.447-1 1-1s1 .447 1 1v25.528c0 .553-.448 1-1 1z"/></g><g><path d="m50.017 50.033c-.553 0-1-.447-1-1v-25.531c0-.553.447-1 1-1s1 .447 1 1v25.531c0 .553-.448 1-1 1z"/></g><g><path d="m51.983 24.505h-40c-.553 0-1-.447-1-1s.447-1 1-1h40c.553 0 1 .447 1 1s-.447 1-1 1z"/></g><g><path d="m51.983 24.505c-.282 0-.563-.119-.761-.351-.034-.039-4.314-4.65-19.239-4.65-14.926 0-19.204 4.611-19.246 4.658-.364.41-.994.452-1.407.093-.413-.36-.463-.981-.107-1.398.187-.219 4.747-5.353 20.761-5.353 16.012 0 20.574 5.134 20.761 5.352.358.421.309 1.052-.111 1.41-.19.161-.421.239-.651.239z"/></g><g><path d="m14.017 23.006c-.553 0-1-.447-1-1v-1.505c0-.553.447-1 1-1s1 .447 1 1v1.505c0 .553-.448 1-1 1z"/></g><g><path d="m50.017 23.043c-.553 0-1-.447-1-1v-1.542c0-.553.447-1 1-1s1 .447 1 1v1.542c0 .553-.448 1-1 1z"/></g><g><path d="m32.017 3.501c-.553 0-1-.447-1-1v-1c0-.553.447-1 1-1s1 .447 1 1v1c0 .553-.448 1-1 1z"/></g><g><path d="m32.001 15.486c-2.206 0-4-1.794-4-4s1.794-4 4-4 4 1.794 4 4-1.794 4-4 4zm0-6c-1.103 0-2 .897-2 2s.897 2 2 2 2-.897 2-2-.897-2-2-2z"/></g><g><path d="m44.017 63.499c-.553 0-1-.447-1-1v-5c0-.553.447-1 1-1s1 .447 1 1v5c0 .553-.448 1-1 1z"/></g><g><path d="m20.017 63.499c-.553 0-1-.447-1-1v-5c0-.553.447-1 1-1s1 .447 1 1v5c0 .553-.448 1-1 1z"/></g><g><path d="m21.001 53.519c-.553 0-1-.447-1-1s.447-1 1-1c2.214 0 4.016-1.802 4.016-4.016 0-.553.447-1 1-1s1 .447 1 1c0 3.317-2.699 6.016-6.016 6.016z"/></g><g><path d="m21.001 53.519h-8.899c-.553 0-1-.447-1-1s.447-1 1-1h8.899c.553 0 1 .447 1 1s-.447 1-1 1z"/></g><g><path d="m43.06 53.519c-3.317 0-6.016-2.698-6.016-6.016 0-.553.447-1 1-1s1 .447 1 1c0 2.214 1.802 4.016 4.016 4.016.553 0 1 .447 1 1s-.448 1-1 1z"/></g><g><path d="m51.959 53.519h-8.899c-.553 0-1-.447-1-1s.447-1 1-1h8.899c.553 0 1 .447 1 1s-.447 1-1 1z"/></g><g><path d="m35.001 48.208c-.553 0-1-.447-1-1v-4.004c0-.553.447-1 1-1s1 .447 1 1v4.004c0 .553-.447 1-1 1z"/></g><g><path d="m37.002 58.499h-10.002c-.553 0-1-.447-1-1s.447-1 1-1h10.002c.553 0 1 .447 1 1s-.447 1-1 1z"/></g><g><path d="m34.001 61.499h-4c-.553 0-1-.447-1-1s.447-1 1-1h4c.553 0 1 .447 1 1s-.447 1-1 1z"/></g></g></svg>