<?xml version="1.0" encoding="iso-8859-1"?>
<!-- Generator: Adobe Illustrator 19.0.0, SVG Export Plug-In . SVG Version: 6.00 Build 0)  -->
<svg version="1.1" id="Layer_1" xmlns="http://www.w3.org/2000/svg" xmlns:xlink="http://www.w3.org/1999/xlink" x="0px" y="0px"
	 viewBox="0 0 511.991 511.991" style="enable-background:new 0 0 511.991 511.991;" xml:space="preserve">
<polygon style="fill:#F2D6C0;" points="56.135,457.49 47.635,500.99 398.62,498.49 465.619,447.99 "/>
<g>
	<path style="fill:#ED5564;" d="M255.998,51.499l13.633,86.998l7.492,61.999l4,87.498l-20.992,78.998l-19.5,48.499
		c1.5,0.5,201.488,0,201.488,0L255.998,51.499z"/>
	<polygon style="fill:#ED5564;" points="111.97,415.71 233.303,411.32 233.303,34.671 	"/>
</g>
<path d="M479.291,443.365c-1.609-4.25-5.703-7.015-10.25-6.905l-10.391,0.281v-21.609h-0.016c0-1.703-0.406-3.421-1.219-4.983
	L244.1,5.687c-0.062-0.125-0.133-0.234-0.203-0.344c-0.102-0.188-0.195-0.359-0.305-0.531c-0.102-0.141-0.203-0.281-0.305-0.422
	s-0.195-0.266-0.297-0.406c-0.117-0.141-0.25-0.281-0.375-0.422c-0.102-0.125-0.195-0.234-0.305-0.344
	c-0.133-0.125-0.273-0.25-0.406-0.375c-0.117-0.125-0.227-0.219-0.352-0.328s-0.266-0.203-0.406-0.328
	c-0.133-0.094-0.266-0.203-0.406-0.297c-0.273-0.203-0.555-0.359-0.844-0.531c-0.117-0.062-0.242-0.109-0.359-0.172
	c-0.195-0.109-0.383-0.203-0.578-0.281c-0.117-0.062-0.242-0.094-0.359-0.156c-0.203-0.078-0.414-0.156-0.625-0.219
	c-0.031-0.016-0.055-0.031-0.094-0.047c-0.102-0.031-0.203-0.047-0.305-0.078c-0.195-0.062-0.398-0.109-0.601-0.156
	c-0.156-0.031-0.305-0.062-0.461-0.094c-0.18-0.031-0.367-0.062-0.547-0.078c-0.164-0.016-0.336-0.047-0.5-0.047
	C235.295,0.015,235.123,0,234.944,0c-0.164,0-0.336,0-0.508,0s-0.344,0-0.516,0.031c-0.164,0-0.336,0.031-0.5,0.031
	c-0.172,0.031-0.344,0.062-0.516,0.094c-0.164,0.016-0.328,0.047-0.492,0.094c-0.172,0.031-0.336,0.062-0.508,0.109
	c-0.164,0.047-0.328,0.094-0.492,0.141c-0.164,0.062-0.32,0.125-0.477,0.172c-0.172,0.078-0.336,0.141-0.508,0.203
	c-0.078,0.031-0.156,0.062-0.234,0.094c-0.07,0.031-0.141,0.078-0.211,0.125c-0.164,0.062-0.32,0.156-0.477,0.25
	c-0.148,0.062-0.297,0.156-0.445,0.25c-0.141,0.094-0.273,0.188-0.414,0.266c-0.148,0.109-0.297,0.203-0.445,0.328
	c-0.125,0.094-0.242,0.188-0.367,0.281c-0.141,0.125-0.273,0.25-0.406,0.375c-0.125,0.094-0.234,0.219-0.352,0.328
	c-0.125,0.125-0.242,0.25-0.359,0.391c-0.109,0.125-0.219,0.25-0.328,0.375c-0.109,0.125-0.203,0.266-0.305,0.406
	c-0.102,0.125-0.203,0.281-0.305,0.438c-0.094,0.125-0.18,0.266-0.258,0.406c-0.094,0.156-0.18,0.312-0.266,0.469
	c-0.078,0.156-0.156,0.312-0.234,0.469c-0.062,0.141-0.133,0.281-0.195,0.438c-0.078,0.188-0.148,0.375-0.219,0.578
	c-0.031,0.109-0.078,0.203-0.109,0.297L98.868,404.461H85.345c-5.891,0-10.664,4.781-10.664,10.671
	c0,5.891,4.773,10.672,10.664,10.672h21.335h117.318v16.937L53.08,447.132c-4.797,0.125-8.914,3.422-10.078,8.078l-10.664,43.531
	c-0.797,3.188-0.078,6.562,1.938,9.156c2.023,2.578,5.125,4.094,8.406,4.094h362.626c2.5,0,4.922-0.875,6.827-2.469l64-54.203
	C479.619,452.412,480.885,447.615,479.291,443.365z M430.291,404.461H254.998c18.625-30.156,30.469-66.891,35.265-109.482
	c4.531-40.218,2.828-85.795-5.062-135.45c-2.656-16.703-5.828-32.688-9.188-47.593L430.291,404.461z M269.068,292.588
	c-3.656,32.405-11.609,60.967-23.734,85.373V77.685c6.719,24.062,13.75,53.437,18.797,85.186
	C271.725,210.637,273.373,254.276,269.068,292.588z M121.243,404.461L223.998,79.717v324.744H121.243z M245.334,425.804h191.973
	v11.468l-191.973,4.938V425.804z M401.448,490.646H56.346l5.383-22.406l377.188-9.656L401.448,490.646z"/>
<g>
</g>
<g>
</g>
<g>
</g>
<g>
</g>
<g>
</g>
<g>
</g>
<g>
</g>
<g>
</g>
<g>
</g>
<g>
</g>
<g>
</g>
<g>
</g>
<g>
</g>
<g>
</g>
<g>
</g>
</svg>
