<?xml version="1.0" encoding="iso-8859-1"?>
<!-- Generator: Adobe Illustrator 19.0.0, SVG Export Plug-In . SVG Version: 6.00 Build 0)  -->
<svg version="1.1" id="Layer_1" xmlns="http://www.w3.org/2000/svg" xmlns:xlink="http://www.w3.org/1999/xlink" x="0px" y="0px"
	 viewBox="0 0 511.99 511.99" style="enable-background:new 0 0 511.99 511.99;" xml:space="preserve">
<polygon style="fill:#FFCE54;" points="492.49,269.608 478.491,243.608 441.991,238.108 60.999,232.781 7,266.577 7,306.616 
	11.5,334.114 49.999,352.083 501.99,348.614 "/>
<polygon style="fill:#ED5564;" points="52.015,232.781 21.343,243.436 14.015,263.436 55.343,266.577 "/>
<g>
	<path style="fill:#656D78;" d="M160.059,340.989c0,23.406-18.984,42.406-42.406,42.406s-42.405-19-42.405-42.406
		s18.984-42.404,42.405-42.404S160.059,317.583,160.059,340.989z"/>
	<path style="fill:#656D78;" d="M437.069,342.489c0,23.406-18.984,42.406-42.405,42.406s-42.405-19-42.405-42.406
		s18.984-42.404,42.405-42.404S437.069,319.083,437.069,342.489z"/>
</g>
<path style="fill:#4FC2E9;" d="M358.009,213.781c0,0-39.344-28.343-40.344-28.999s-47.654-19.672-47.654-19.672l-37.343-2
	l-52.999,4.328l-38.656,11.344l-39.343,26L78.014,228.11l25.328,7.672l265.995,3.328L358.009,213.781z"/>
<rect x="181.385" y="127.435" style="fill:#FFCE54;" width="85.33" height="28.671"/>
<path d="M117.341,330.739c-5.906,0-10.687,4.781-10.687,10.656c0,5.906,4.781,10.688,10.687,10.688
	c5.875,0,10.656-4.781,10.656-10.688C127.997,335.52,123.216,330.739,117.341,330.739z"/>
<path d="M170.715,266.577c-5.875,0-10.656,4.781-10.656,10.664c0,5.906,4.781,10.688,10.656,10.688
	c5.906,0,10.672-4.781,10.672-10.688C181.387,271.358,176.621,266.577,170.715,266.577z"/>
<path d="M192.058,287.929c-5.89,0-10.671,4.75-10.671,10.656c0,5.875,4.781,10.656,10.671,10.656
	c5.891,0,10.656-4.781,10.656-10.656C202.715,292.679,197.949,287.929,192.058,287.929z"/>
<path d="M213.386,266.577c-5.89,0-10.671,4.781-10.671,10.664c0,5.906,4.781,10.688,10.671,10.688
	c5.891,0,10.672-4.781,10.672-10.688C224.058,271.358,219.277,266.577,213.386,266.577z"/>
<path d="M234.714,287.929c-5.875,0-10.656,4.75-10.656,10.656c0,5.875,4.781,10.656,10.656,10.656
	c5.906,0,10.671-4.781,10.671-10.656C245.386,292.679,240.62,287.929,234.714,287.929z"/>
<path d="M256.057,266.577c-5.891,0-10.672,4.781-10.672,10.664c0,5.906,4.781,10.688,10.672,10.688s10.656-4.781,10.656-10.688
	C266.714,271.358,261.948,266.577,256.057,266.577z"/>
<path d="M277.386,287.929c-5.891,0-10.672,4.75-10.672,10.656c0,5.875,4.781,10.656,10.672,10.656s10.671-4.781,10.671-10.656
	C288.057,292.679,283.276,287.929,277.386,287.929z"/>
<path d="M298.713,266.577c-5.875,0-10.656,4.781-10.656,10.664c0,5.906,4.781,10.688,10.656,10.688
	c5.906,0,10.672-4.781,10.672-10.688C309.385,271.358,304.619,266.577,298.713,266.577z"/>
<path d="M320.056,287.929c-5.891,0-10.671,4.75-10.671,10.656c0,5.875,4.78,10.656,10.671,10.656s10.656-4.781,10.656-10.656
	C330.712,292.679,325.946,287.929,320.056,287.929z"/>
<path d="M341.384,266.577c-5.891,0-10.672,4.781-10.672,10.664c0,5.906,4.781,10.688,10.672,10.688s10.672-4.781,10.672-10.688
	C352.056,271.358,347.274,266.577,341.384,266.577z"/>
<path d="M492.537,241.327c-18.483-16.921-50.515-17.437-113.216-17.453c-4.953-7.516-15.422-21.328-32.75-35.046
	c-15.219-12.062-37.983-25.64-69.186-33.374v-27.531c0-5.906-4.766-10.672-10.672-10.672h-85.467
	c-5.891,0-10.656,4.766-10.656,10.672v27.531c-31.218,7.718-54.015,21.296-69.264,33.343c-17.375,13.719-27.89,27.531-32.859,35.031
	H55.936c-0.844-0.203-4.375-0.203-5.203,0H31.999c-2.828,0-5.531,1.125-7.531,3.125L3.125,248.296c-2,2-3.125,4.703-3.125,7.531
	v74.912c0,2.969,1.25,5.812,3.422,7.844c2.641,2.438,26.546,23.906,49.702,23.906h15.234c8.203,18.969,27.046,32.25,48.983,32.25
	c21.906,0,40.781-13.281,48.968-32.25h179.372c8.188,18.969,27.062,32.25,48.968,32.25c21.937,0,40.796-13.281,48.983-32.25h57.702
	c5.875,0,10.656-4.781,10.656-10.656C511.99,290.147,511.99,259.171,492.537,241.327z M352.477,223.828H213.339v-53.062
	c3.469-0.172,7.016-0.266,10.656-0.266c42.75,0,79.249,11.578,108.498,34.39C340.962,211.5,347.556,218.14,352.477,223.828z
	 M191.918,138.579h64.14v12.766c-9.969-1.391-20.656-2.172-32.062-2.172s-22.093,0.781-32.078,2.172L191.918,138.579
	L191.918,138.579z M191.996,172.891v50.937H95.31C110.201,206.766,140.559,180.797,191.996,172.891z M36.421,245.171h6.234v10.656
	H25.749L36.421,245.171z M117.341,373.395c-17.656,0-31.999-14.344-31.999-32c0-17.625,14.343-31.998,31.999-31.998
	c17.625,0,32,14.373,32,31.998C149.341,359.052,134.966,373.395,117.341,373.395z M394.648,373.395
	c-17.624,0-31.999-14.344-31.999-32c0-17.625,14.375-31.998,31.999-31.998c17.655,0,31.999,14.373,31.999,31.998
	C426.647,359.052,412.304,373.395,394.648,373.395z M447.991,341.177c-0.125-29.311-24-53.092-53.343-53.092
	c-29.312,0-53.187,23.781-53.312,53.092H170.653c-0.125-29.311-24-53.092-53.312-53.092c-29.343,0-53.218,23.781-53.343,53.092
	H53.343c-0.031,0-0.062,0-0.094,0h-0.125c-10.5,0-24.5-9.5-31.781-15.344v-48.654h32c5.875,0,10.656-4.781,10.656-10.68v-21.328
	h10.438h298.026c0.281,0.016,0.594,0.031,0.891,0.031c57.076,0,89.451,0,103.295,10.625h-18.125
	c-5.906,0-10.672,4.781-10.672,10.672c0,5.898,4.766,10.68,10.672,10.68h28.905c2.875,14.438,3.188,35.404,3.219,63.998H447.991z"/>
<path d="M394.648,330.739c-5.875,0-10.655,4.781-10.655,10.656c0,5.906,4.78,10.688,10.655,10.688
	c5.906,0,10.688-4.781,10.688-10.688C405.336,335.52,400.555,330.739,394.648,330.739z"/>
<g>
</g>
<g>
</g>
<g>
</g>
<g>
</g>
<g>
</g>
<g>
</g>
<g>
</g>
<g>
</g>
<g>
</g>
<g>
</g>
<g>
</g>
<g>
</g>
<g>
</g>
<g>
</g>
<g>
</g>
</svg>
