<?xml version="1.0" encoding="iso-8859-1"?>
<!-- Generator: Adobe Illustrator 19.0.0, SVG Export Plug-In . SVG Version: 6.00 Build 0)  -->
<svg version="1.1" id="Layer_1" xmlns="http://www.w3.org/2000/svg" xmlns:xlink="http://www.w3.org/1999/xlink" x="0px" y="0px"
	 viewBox="0 0 511.993 511.993" style="enable-background:new 0 0 511.993 511.993;" xml:space="preserve">
<rect x="174.164" y="117.995" style="fill:#656D78;" width="164.67" height="381.99"/>
<path style="fill:#ED5564;" d="M295.602,199.308c0,22.53-18.265,40.796-40.795,40.796c-22.546,0-40.812-18.266-40.812-40.796
	c0-22.547,18.266-40.812,40.812-40.812C277.338,158.497,295.602,176.762,295.602,199.308z"/>
<path style="fill:#FFCE54;" d="M295.602,306.807c0,22.53-18.265,40.795-40.795,40.795c-22.546,0-40.812-18.265-40.812-40.795
	c0-22.547,18.266-40.812,40.812-40.812C277.338,265.994,295.602,284.26,295.602,306.807z"/>
<path style="fill:#A0D468;" d="M295.602,415.991c0,22.53-18.265,40.796-40.795,40.796c-22.546,0-40.812-18.266-40.812-40.796
	c0-22.546,18.266-40.812,40.812-40.812C277.338,375.18,295.602,393.445,295.602,415.991z"/>
<rect x="201.884" y="85.995" style="fill:#434A54;" width="106.67" height="31.999"/>
<rect x="244.554" y="13.499" style="fill:#F5F7FA;" width="22.11" height="64.5"/>
<path d="M308.556,202.668c0-29.422-23.921-53.343-53.342-53.343c-29.406,0-53.327,23.921-53.327,53.343
	c0,29.405,23.921,53.327,53.327,53.327C284.635,255.995,308.556,232.073,308.556,202.668z M255.213,234.667
	c-17.641,0-32-14.359-32-31.999c0-17.656,14.359-32,32-32c15.921,0,29.156,11.672,31.593,26.922
	c-0.484-0.969-1.141-1.875-1.938-2.672c-4.172-4.172-10.922-4.172-15.094,0c-4.156,4.156-4.156,10.906,0,15.078
	c4.172,4.171,10.922,4.171,15.094,0c0.859-0.859,1.531-1.828,2.031-2.859C284.713,222.667,271.353,234.667,255.213,234.667z"/>
<path d="M201.886,309.322c0,29.404,23.921,53.326,53.327,53.326c29.421,0,53.342-23.922,53.342-53.326
	c0-29.406-23.921-53.327-53.342-53.327C225.807,255.995,201.886,279.916,201.886,309.322z M255.213,277.322
	c15.921,0,29.156,11.688,31.593,26.922c-0.484-0.953-1.141-1.859-1.938-2.672c-4.172-4.156-10.922-4.156-15.094,0
	c-4.156,4.172-4.156,10.921,0,15.093c4.172,4.156,10.922,4.156,15.094,0c0.859-0.859,1.531-1.844,2.031-2.875
	c-2.188,15.547-15.547,27.53-31.687,27.53c-17.641,0-32-14.358-32-31.998C223.214,291.682,237.573,277.322,255.213,277.322z"/>
<path d="M201.886,415.991c0,29.405,23.921,53.327,53.327,53.327c29.421,0,53.342-23.922,53.342-53.327s-23.921-53.343-53.342-53.343
	C225.807,362.648,201.886,386.586,201.886,415.991z M255.213,383.992c15.921,0,29.156,11.688,31.593,26.922
	c-0.484-0.969-1.141-1.875-1.938-2.672c-4.172-4.172-10.922-4.172-15.094,0c-4.156,4.155-4.156,10.921,0,15.077
	c4.172,4.172,10.922,4.172,15.094,0c0.859-0.859,1.531-1.828,2.031-2.859c-2.188,15.531-15.547,27.53-31.687,27.53
	c-17.641,0-32-14.358-32-31.999C223.214,398.336,237.573,383.992,255.213,383.992z"/>
<path d="M383.992,277.322c5.89,0,10.655-4.766,10.655-10.656s-4.765-10.671-10.655-10.671c-0.5,0-12.125,0.031-23.922,2.983
	c-2.422,0.609-5.219,1.438-8.078,2.578v-80.232c0-6.453,18.953-10.625,32-10.656c5.89,0,10.655-4.781,10.655-10.671
	c0-5.891-4.766-10.672-10.655-10.672c-0.5,0-12.125,0.031-23.922,2.984c-2.422,0.609-5.219,1.438-8.078,2.578v-37.562
	c0-5.89-4.781-10.655-10.672-10.655h-22.859V85.326c0-5.891-4.766-10.656-10.655-10.656h-25.155V10.656
	C282.651,4.765,277.885,0,271.995,0h-32c-5.89,0-10.671,4.766-10.671,10.656V74.67h-28.187c-5.891,0-10.672,4.766-10.672,10.656
	v21.344h-19.812c-5.891,0-10.656,4.766-10.656,10.655v37.984c-2.875-1.141-5.656-1.969-8.078-2.578
	c-11.812-2.953-23.437-2.984-23.921-2.984c-5.891,0-10.656,4.766-10.656,10.656c-0.016,5.874,4.75,10.655,10.641,10.671
	c13.046,0.047,32.015,4.219,32.015,10.672v80.217c-2.875-1.125-5.656-1.969-8.078-2.562c-11.812-2.952-23.437-2.983-23.921-2.983
	c-5.891,0-10.656,4.765-10.656,10.64c-0.016,5.891,4.75,10.672,10.641,10.688c13.046,0.031,32.015,4.203,32.015,10.672v80.217
	c-2.875-1.141-5.656-1.969-8.078-2.578c-11.812-2.953-23.437-2.984-23.921-2.984c-5.891,0-10.656,4.766-10.656,10.656
	c-0.016,5.891,4.75,10.656,10.641,10.672C141.031,384.448,160,388.62,160,395.073v106.248c0,5.891,4.765,10.672,10.656,10.672
	h170.668c5.891,0,10.672-4.781,10.672-10.672v-106.67c0-6.453,18.953-10.625,32-10.656c5.89,0,10.655-4.781,10.655-10.672
	s-4.766-10.672-10.655-10.672c-0.5,0-12.125,0.047-23.922,3c-2.422,0.594-5.219,1.438-8.078,2.562v-80.217
	C351.992,281.541,370.945,277.369,383.992,277.322z M250.651,21.327h10.671V74.67h-10.671V21.327z M211.808,95.998h28.186h32h25.14
	v10.672h-85.326L211.808,95.998L211.808,95.998z M330.648,490.646H181.324V127.997h19.812h106.669h22.843V490.646z"/>
<path d="M263.525,402.398c4.172-4.156,4.172-10.906,0-15.078c-4.156-4.172-10.906-4.172-15.078,0s-4.172,10.922,0,15.078
	C252.619,406.57,259.369,406.57,263.525,402.398z"/>
<path d="M247.682,429.569c-4.172,4.172-4.172,10.921,0,15.077c4.156,4.172,10.921,4.172,15.078,0c4.172-4.156,4.172-10.905,0-15.077
	C258.603,425.397,251.838,425.397,247.682,429.569z"/>
<path d="M242.198,423.319c4.172-4.156,4.172-10.922,0-15.077c-4.156-4.172-10.921-4.172-15.078,0
	c-4.172,4.155-4.172,10.921,0,15.077C231.276,427.491,238.041,427.491,242.198,423.319z"/>
<path d="M263.525,295.744c4.172-4.172,4.172-10.922,0-15.094c-4.156-4.156-10.906-4.156-15.078,0
	c-4.172,4.172-4.172,10.922,0,15.094C252.619,299.9,259.369,299.916,263.525,295.744z"/>
<path d="M247.682,322.899c-4.172,4.172-4.172,10.922,0,15.093c4.156,4.156,10.921,4.156,15.078,0c4.172-4.171,4.172-10.921,0-15.093
	C258.603,318.743,251.838,318.743,247.682,322.899z"/>
<path d="M242.198,316.665c4.172-4.172,4.172-10.921,0-15.093c-4.156-4.156-10.921-4.156-15.078,0
	c-4.172,4.172-4.172,10.921,0,15.093C231.276,320.821,238.041,320.821,242.198,316.665z"/>
<path d="M263.525,189.074c4.172-4.156,4.172-10.922,0-15.078c-4.156-4.172-10.906-4.172-15.078,0
	c-4.172,4.156-4.172,10.922,0,15.078C252.619,193.246,259.369,193.246,263.525,189.074z"/>
<path d="M247.682,216.245c-4.172,4.156-4.172,10.922,0,15.078c4.156,4.172,10.921,4.172,15.078,0c4.172-4.156,4.172-10.922,0-15.078
	C258.603,212.074,251.838,212.074,247.682,216.245z"/>
<path d="M242.198,194.918c-4.156-4.172-10.921-4.172-15.078,0c-4.172,4.156-4.172,10.906,0,15.078
	c4.156,4.171,10.921,4.171,15.078,0C246.369,205.824,246.369,199.074,242.198,194.918z"/>
<g>
</g>
<g>
</g>
<g>
</g>
<g>
</g>
<g>
</g>
<g>
</g>
<g>
</g>
<g>
</g>
<g>
</g>
<g>
</g>
<g>
</g>
<g>
</g>
<g>
</g>
<g>
</g>
<g>
</g>
</svg>
