<?xml version="1.0" encoding="iso-8859-1"?>
<!-- Generator: Adobe Illustrator 19.0.0, SVG Export Plug-In . SVG Version: 6.00 Build 0)  -->
<svg version="1.1" id="Layer_1" xmlns="http://www.w3.org/2000/svg" xmlns:xlink="http://www.w3.org/1999/xlink" x="0px" y="0px"
	 viewBox="0 0 511.99 511.99" style="enable-background:new 0 0 511.99 511.99;" xml:space="preserve">
<polygon style="fill:#FFCE54;" points="462.491,235.496 410.992,128.498 14.499,123.498 12.499,382.743 506.99,382.743 
	506.99,302.995 "/>
<rect x="56.245" y="212.495" style="fill:#4FC2E9;" width="186" height="61.749"/>
<g>
	<path style="fill:#656D78;" d="M134.997,386.243c0,22.234-18.016,40.249-40.25,40.249s-40.249-18.015-40.249-40.249
		s18.015-40.25,40.249-40.25S134.997,364.009,134.997,386.243z"/>
	<circle style="fill:#656D78;" cx="416.245" cy="382.745" r="36.749"/>
</g>
<path style="fill:#F5F7FA;" d="M282.495,85.999c0,0-52-0.5-53.5,0s-26.5,5-26.5,5l-13.5,13.641l-10.5,18.859h112.998L282.495,85.999
	z"/>
<polygon style="fill:#4FC2E9;" points="456.663,230.668 291.494,230.668 291.494,172.669 426.663,172.669 "/>
<polygon style="fill:#ED5564;" points="246.011,166.669 54.499,172.669 43.343,201.668 59.343,210.012 90.014,207.34 
	132.013,210.012 173.34,210.012 205.34,205.34 234.995,210.012 252.011,201.668 "/>
<rect x="56.245" y="276.995" style="fill:#656D78;" width="193.75" height="30.5"/>
<path d="M510.209,292.745l-42.046-63.077l-42.266-105.639c-1.609-4.031-5.531-6.688-9.906-6.688H298.666V85.343
	c0-5.906-4.766-10.688-10.672-10.688h-63.999c-25.75,0-47.296,18.359-52.249,42.687H10.672C4.781,117.342,0,122.108,0,127.998
	v255.995c0,5.891,4.781,10.656,10.672,10.656h33.077c4.953,24.327,26.5,42.686,52.249,42.686c25.765,0,47.312-18.358,52.265-42.686
	h215.48c4.953,24.327,26.499,42.686,52.248,42.686c25.766,0,47.312-18.358,52.266-42.686h33.077c5.891,0,10.656-4.766,10.656-10.656
	v-85.342C511.99,296.557,511.381,294.495,510.209,292.745z M362.665,287.995c0-2.734-1.047-5.469-3.125-7.531
	c-4.156-4.188-10.922-4.188-15.078,0c-4.172,4.156-4.172,10.906,0,15.062c4.156,4.188,10.922,4.188,15.078,0
	C361.618,293.464,362.665,290.729,362.665,287.995v85.342h-63.999V245.339h63.999V287.995z M298.666,223.996v-42.655h63.999v42.655
	H298.666z M383.993,181.341h41.857l17.062,42.655h-58.92L383.993,181.341L383.993,181.341z M277.339,117.342h-10.672V95.998h10.672
	V117.342z M223.995,95.998h21.343v21.343h-51.499C198.246,104.92,210.105,95.998,223.995,95.998z M95.998,415.992
	c-17.64,0-32-14.343-32-31.999s14.359-32,32-32c17.656,0,32,14.344,32,32S113.654,415.992,95.998,415.992z M95.998,330.65
	c-25.75,0-47.296,18.358-52.249,42.687H21.343V138.654h387.43l8.53,21.344h-129.31c-5.89,0-10.655,4.781-10.655,10.656v202.684
	H148.263C143.309,349.009,121.763,330.65,95.998,330.65z M415.991,415.992c-17.64,0-31.998-14.343-31.998-31.999
	s14.358-32,31.998-32c17.656,0,32,14.344,32,32S433.647,415.992,415.991,415.992z M468.257,373.337
	c-4.953-24.328-26.5-42.687-52.266-42.687c-11.983,0-23.077,4-31.998,10.702v-96.013h68.967l37.702,56.562v7.438h-10.671
	c-5.891,0-10.656,4.765-10.656,10.655s4.766,10.656,10.656,10.656h10.671v42.687H468.257z"/>
<path d="M88.467,376.462c-4.171,4.156-4.171,10.906,0,15.062c4.156,4.188,10.922,4.188,15.078,0c4.172-4.156,4.172-10.906,0-15.062
	C99.389,372.274,92.623,372.274,88.467,376.462z"/>
<path d="M408.461,376.462c-4.172,4.156-4.172,10.906,0,15.062c4.155,4.188,10.921,4.188,15.077,0c4.172-4.156,4.172-10.906,0-15.062
	C419.382,372.274,412.616,372.274,408.461,376.462z"/>
<path d="M255.995,309.339v-93.124c6.5-4.843,10.469-11.578,10.469-19.14c0-1.609-0.312-3.484-0.484-4.484l-0.219-1.156
	l-10.578-24.875c-0.016-0.031-0.031-0.062-0.047-0.094l-2.75-6.468h-7.047H53.343h-7.062l-2.75,6.468
	c0,0.031-0.016,0.062-0.031,0.094l-10.468,24.593l-0.203,0.844c-0.406,1.672-0.609,3.375-0.609,5.078
	c0,7.562,3.969,14.297,10.453,19.14v93.124c0,5.874,4.781,10.655,10.672,10.655h191.996
	C251.229,319.994,255.995,315.213,255.995,309.339z M53.608,197.278l6.781-15.937h177.887l6.797,15.937
	c-0.656,1.609-5.953,5.375-14.625,5.375c-6.438,0-11.109-2.031-13.359-3.938l-6.921-5.906l-6.922,5.906
	c-2.234,1.906-6.922,3.938-13.359,3.938c-6.421,0-11.109-2.031-13.343-3.938l-6.922-5.906l-6.938,5.906
	c-2.234,1.906-6.906,3.938-13.343,3.938s-11.125-2.031-13.359-3.938l-6.922-5.906l-6.922,5.906
	c-2.234,1.906-6.922,3.938-13.359,3.938c-6.438,0-11.109-2.031-13.344-3.938l-6.938-5.906l-6.921,5.906
	c-2.234,1.906-6.922,3.938-13.344,3.938C59.546,202.653,54.249,198.871,53.608,197.278z M68.233,223.996
	c7.344,0,14.391-1.594,20.265-4.531c5.891,2.938,12.938,4.531,20.281,4.531c7.359,0,14.406-1.594,20.281-4.531
	c5.875,2.938,12.921,4.531,20.281,4.531c7.344,0,14.39-1.594,20.281-4.531c5.875,2.938,12.922,4.531,20.265,4.531
	c7.359,0,14.406-1.594,20.281-4.531c5.875,2.938,12.921,4.531,20.281,4.531c1.438,0,2.844-0.062,4.219-0.188v42.843H63.998v-42.843
	C65.389,223.933,66.795,223.996,68.233,223.996z M63.998,298.651v-10.656h170.669v10.656H63.998z"/>
<g>
</g>
<g>
</g>
<g>
</g>
<g>
</g>
<g>
</g>
<g>
</g>
<g>
</g>
<g>
</g>
<g>
</g>
<g>
</g>
<g>
</g>
<g>
</g>
<g>
</g>
<g>
</g>
<g>
</g>
</svg>
