<?xml version="1.0" encoding="iso-8859-1"?>
<!-- Generator: Adobe Illustrator 19.0.0, SVG Export Plug-In . SVG Version: 6.00 Build 0)  -->
<svg version="1.1" id="Layer_1" xmlns="http://www.w3.org/2000/svg" xmlns:xlink="http://www.w3.org/1999/xlink" x="0px" y="0px"
	 viewBox="0 0 511.99 511.99" style="enable-background:new 0 0 511.99 511.99;" xml:space="preserve">
<polygon style="fill:#AC92EB;" points="381.338,157.158 327.338,154.486 201.997,157.158 109.999,173.83 12.664,217.157 
	12.664,245.328 32,269.156 67.999,285.836 132.663,300.492 200.661,311.148 293.995,319.147 437.336,297.148 437.336,177.83 "/>
<polygon style="fill:#4FC2E9;" points="207.997,319.147 224.996,363.146 313.338,360.834 329.65,319.147 "/>
<path style="fill:#F5F7FA;" d="M495.741,222.657l-17.249-20.25l-34.5-23.999l-3.25,100.24l7,10.25l12-5.5
	c0,0,23-20.992,24.25-21.992s14.749-23.5,14.749-23.5L495.741,222.657z"/>
<g>
	<path style="fill:#656D78;" d="M44.25,148.408v45.499c0,0,49.749-24.999,69.249-30.249
		C132.998,158.408,44.25,148.408,44.25,148.408z"/>
	<polygon style="fill:#656D78;" points="42,280.648 45.5,324.147 71.499,321.647 115.998,303.648 	"/>
</g>
<g>
	<path style="fill:#080808;" d="M452.461,172.221c-30.406-15.297-83.623-33.531-164.466-33.531
		c-57.452,0-115.787,6.344-164.817,17.656c-2.805-3.172-7.125-6.25-13.64-8.781c-7-2.719-16.477-4.875-28.164-6.391
		c-19.132-2.484-37.914-2.516-38.71-2.516c-5.89,0-10.664,4.781-10.664,10.672v40.952C6.704,206.359,0,222.5,0,235.063
		c0,12.562,6.703,28.687,32,44.772v42.343c0,5.875,4.773,10.656,10.664,10.656c0.797,0,19.578-0.031,38.71-2.531
		c11.687-1.5,21.164-3.656,28.164-6.375c7.304-2.844,11.843-6.375,14.593-9.938c22.203,5.094,46.296,9.156,71.342,12.062
		l18.828,41.062c1.742,3.781,5.523,6.219,9.695,6.219h85.342c4.062,0,7.78-2.344,9.577-6l18.703-38.343
		c53.64-5.5,91.154-19.187,114.842-31.093c36.718-18.5,59.53-42.555,59.53-62.835C511.991,214.782,489.179,190.704,452.461,172.221z
		 M53.336,160.267c5.578,0.234,12.796,0.672,20.281,1.469c7.758,0.828,13.766,1.844,18.406,2.875
		c-15.164,4.609-27.953,9.391-38.687,14.297V160.267z M21.336,235.063c0-7.906,7.531-18.391,26.273-29.281
		c0.203-0.094,0.391-0.219,0.586-0.328c12.141-6.953,28.875-14.078,51.187-20.78c52.179-15.672,120.927-24.656,188.613-24.656
		c63.718,0,108.936,11.75,138.653,23.906V286.18c-22.655,9.281-54.311,18.312-96.295,22.062c-0.422,0.031-0.859,0.062-1.266,0.125
		c-12.75,1.094-26.437,1.719-41.093,1.719c-67.686,0-136.435-8.969-188.613-24.656C41.836,268.172,21.336,248.094,21.336,235.063z
		 M277.34,331.335v20.655h-21.344v-21.218C263.098,331.054,270.215,331.241,277.34,331.335z M73.781,309.742
		c-7.531,0.812-14.82,1.25-20.445,1.469v-20c11.023,5.031,24.203,9.938,39.913,14.656c0.445,0.156,0.898,0.281,1.344,0.406
		C89.694,307.492,82.976,308.742,73.781,309.742z M220.082,328.522c4.836,0.438,9.703,0.781,14.578,1.125v22.343h-3.82
		L220.082,328.522z M302.651,351.99h-4v-20.655c4.891-0.125,9.656-0.281,14.327-0.5L302.651,351.99z M447.992,276.148v-9.492
		c5.891,0,10.656-4.781,10.656-10.656c0-5.906-4.766-10.672-10.656-10.672v-21.327c5.891,0,10.656-4.781,10.656-10.672
		s-4.766-10.672-10.656-10.672v-8.703c30.969,16.703,42.655,33.859,42.655,41.109C490.647,242.312,478.961,259.469,447.992,276.148z
		"/>
	<path style="fill:#080808;" d="M117.334,234.657c0-5.891-4.781-10.656-10.671-10.656H42.664c-5.89,0-10.664,4.766-10.664,10.656
		s4.773,10.671,10.664,10.671h63.999C112.553,245.328,117.334,240.547,117.334,234.657z"/>
</g>
<g>
</g>
<g>
</g>
<g>
</g>
<g>
</g>
<g>
</g>
<g>
</g>
<g>
</g>
<g>
</g>
<g>
</g>
<g>
</g>
<g>
</g>
<g>
</g>
<g>
</g>
<g>
</g>
<g>
</g>
</svg>
