<?xml version="1.0" encoding="iso-8859-1"?>
<!-- Generator: Adobe Illustrator 19.0.0, SVG Export Plug-In . SVG Version: 6.00 Build 0)  -->
<svg version="1.1" id="Layer_1" xmlns="http://www.w3.org/2000/svg" xmlns:xlink="http://www.w3.org/1999/xlink" x="0px" y="0px"
	 viewBox="0 0 511.949 511.949" style="enable-background:new 0 0 511.949 511.949;" xml:space="preserve">
<path style="fill:#A0D468;" d="M403.945,149.319c0,0,1-47.323,0-48.65C402.945,99.341,360.95,79,360.95,79l-22.998-44.995l-49.979,6
	L255.977,9.007l-31.996,30.997l-18.014-3l-35.996-4.999L148.973,77l-33.996,17.998l-2,43.651l-21.998,43.933l23.997,31.043
	l-6.999,50.854l47.996,24.496l12.999,39.996l55.009-6l32.637,21.998l31.355-23.998h50.979l20.998-37.995l38.996-18.497l1-50.854
	l21.997-41.136L403.945,149.319z"/>
<path style="fill:#FFCE54;" d="M337.952,182.581c0,45.229-36.417,81.897-81.334,81.897c-44.901,0-81.319-36.668-81.319-81.897
	c0-45.245,36.418-81.913,81.319-81.913C301.535,100.669,337.952,137.336,337.952,182.581z"/>
<path style="fill:#F5F7FA;" d="M275.491,201.532c0,10.468-8.749,18.951-19.514,18.951c-10.764,0-19.513-8.483-19.513-18.951
	c0-10.467,8.749-18.951,19.513-18.951C266.742,182.581,275.491,191.065,275.491,201.532z"/>
<g>
	<polygon style="fill:#FFCE54;" points="195.968,327.971 198.64,496.623 225.809,473.954 225.809,327.971 	"/>
	<polygon style="fill:#FFCE54;" points="321.282,327.971 291.957,322.643 287.973,473.283 323.954,496.623 	"/>
</g>
<polygon style="fill:#A0D468;" points="256.618,344.969 228.637,332.643 228.637,473.954 256.618,451.957 283.287,473.954 
	283.287,332.643 "/>
<path d="M435.145,174.926l-25.982-34.652l5.188-42.995c0.563-4.718-2.047-9.233-6.406-11.092l-39.823-17.014l-17.014-39.824
	c-1.858-4.375-6.374-6.968-11.077-6.405l-43.01,5.187L262.383,2.133c-3.797-2.844-9.015-2.844-12.812,0L214.935,28.13l-43.011-5.187
	c-4.703-0.563-9.218,2.031-11.077,6.405l-17.014,39.824l-39.824,17.014c-4.359,1.859-6.968,6.374-6.406,11.092l5.187,42.995
	l-25.997,34.652c-2.843,3.781-2.843,8.999,0,12.78l25.997,34.652l-5.187,42.995c-0.563,4.718,2.047,9.218,6.406,11.093
	l39.824,17.014l17.014,39.824c1.859,4.358,6.374,6.967,11.077,6.404l9.39-1.125v162.717c0,3.938,2.171,7.546,5.64,9.404
	c3.468,1.859,7.671,1.656,10.952-0.516l58.071-38.729l58.072,38.729c1.797,1.188,3.858,1.781,5.921,1.781
	c1.718,0,3.452-0.422,5.03-1.266c3.469-1.858,5.641-5.467,5.641-9.404V338.563l9.389,1.125c4.703,0.563,9.219-2.046,11.077-6.404
	l17.014-39.824l39.823-17.014c4.359-1.859,6.969-6.375,6.406-11.093l-5.188-42.995l25.982-34.652
	C438.003,183.925,438.003,178.706,435.145,174.926z M202.655,335.986l10.686-1.297c0,0.219-0.031,0.406-0.031,0.625v138.922
	l-10.655,7.124V335.986z M250.056,449.739l-15.405,10.279V349.297l14.92,11.201c1.906,1.406,4.156,2.125,6.405,2.125
	c2.25,0,4.5-0.719,6.406-2.125l14.92-11.217v110.736l-15.404-10.279C258.305,447.364,253.649,447.364,250.056,449.739z
	 M309.299,481.36l-10.654-7.124V335.314c0-0.219-0.031-0.406-0.031-0.625l10.686,1.297V481.36H309.299z M389.539,212.984
	c-1.655,2.203-2.39,4.953-2.062,7.687l4.733,39.308l-36.402,15.545c-2.53,1.078-4.546,3.094-5.623,5.609l-15.546,36.417
	l-39.308-4.733c-2.734-0.328-5.484,0.406-7.688,2.063l-31.668,23.746l-31.684-23.746c-1.844-1.406-4.093-2.141-6.39-2.141
	c-0.422,0-0.843,0.016-1.281,0.078l-39.308,4.733l-15.545-36.417c-1.078-2.516-3.093-4.531-5.624-5.609l-36.402-15.545l4.734-39.308
	c0.328-2.734-0.406-5.484-2.062-7.687l-23.748-31.668l23.748-31.668c1.656-2.203,2.39-4.953,2.062-7.687l-4.734-39.308
	l36.402-15.545c2.531-1.078,4.546-3.094,5.624-5.609l15.545-36.417l39.308,4.733c2.734,0.328,5.483-0.406,7.687-2.062l31.668-23.748
	l31.668,23.748c2.203,1.656,4.953,2.39,7.672,2.062l39.323-4.733l15.546,36.417c1.077,2.515,3.093,4.531,5.623,5.609l36.402,15.545
	l-4.733,39.308c-0.328,2.734,0.406,5.484,2.062,7.687l23.748,31.668L389.539,212.984z"/>
<path d="M255.977,170.645c-17.638,0-31.996,14.358-31.996,31.997c0,17.654,14.358,31.996,31.996,31.996
	c17.639,0,31.996-14.342,31.996-31.996C287.973,185.003,273.616,170.645,255.977,170.645z M255.977,213.312
	c-5.874,0-10.67-4.796-10.67-10.67s4.796-10.655,10.67-10.655c5.875,0,10.671,4.781,10.671,10.655S261.852,213.312,255.977,213.312z
	"/>
<path d="M255.977,159.99c5.891,0,10.671-4.781,10.671-10.671s-4.78-10.67-10.671-10.67c-5.89,0-10.67,4.781-10.67,10.67
	C245.307,155.209,250.087,159.99,255.977,159.99z"/>
<path d="M233.355,169.364c4.156-4.171,4.156-10.921,0-15.092c-4.171-4.156-10.921-4.156-15.092,0
	c-4.156,4.171-4.156,10.921,0,15.092C222.434,173.52,229.183,173.52,233.355,169.364z"/>
<path d="M278.6,154.272c-4.156,4.171-4.156,10.921,0,15.092c4.171,4.156,10.92,4.156,15.092,0c4.156-4.171,4.156-10.921,0-15.092
	C289.52,150.116,282.771,150.116,278.6,154.272z"/>
<path d="M362.621,170.645h-11.249c-1.093-9.78-3.655-19.123-7.452-27.778l9.749-5.64c5.108-2.953,6.858-9.468,3.905-14.577
	c-2.937-5.093-9.467-6.843-14.561-3.906l-9.795,5.656c-5.719-7.749-12.578-14.608-20.326-20.341l5.64-9.78
	c2.952-5.093,1.203-11.624-3.905-14.561c-5.094-2.937-11.624-1.203-14.562,3.906l-5.64,9.749
	c-8.671-3.812-17.998-6.358-27.778-7.452V74.656c0-5.875-4.78-10.655-10.671-10.655c-5.89,0-10.67,4.781-10.67,10.655V85.92
	c-9.765,1.094-19.107,3.64-27.778,7.452l-5.64-9.749c-2.953-5.109-9.468-6.843-14.577-3.906c-5.093,2.938-6.843,9.468-3.89,14.561
	l5.64,9.796c-7.749,5.718-14.608,12.577-20.326,20.326l-9.795-5.656c-5.093-2.937-11.624-1.187-14.561,3.906
	c-2.953,5.109-1.203,11.624,3.906,14.577l9.749,5.64c-3.796,8.655-6.359,17.998-7.452,27.778h-11.265
	c-5.89,0-10.655,4.781-10.655,10.671s4.765,10.67,10.655,10.67h11.265c1.093,9.78,3.656,19.107,7.452,27.778l-9.749,5.64
	c-5.109,2.953-6.858,9.467-3.906,14.576c1.969,3.406,5.562,5.328,9.249,5.328c1.797,0,3.64-0.453,5.312-1.422l9.795-5.655
	c5.718,7.749,12.577,14.607,20.326,20.326l-5.656,9.796c-2.937,5.093-1.188,11.624,3.906,14.561
	c1.688,0.969,3.515,1.438,5.328,1.438c3.687,0,7.265-1.906,9.249-5.343l5.624-9.75c8.687,3.813,18.014,6.359,27.794,7.438v11.278
	c0,5.875,4.781,10.656,10.67,10.656c5.891,0,10.671-4.781,10.671-10.656v-11.279c9.78-1.078,19.107-3.625,27.778-7.438l5.64,9.75
	c1.969,3.437,5.562,5.343,9.249,5.343c1.813,0,3.641-0.469,5.328-1.438c5.093-2.937,6.842-9.468,3.89-14.561l-5.64-9.796
	c7.748-5.718,14.607-12.577,20.326-20.326l9.795,5.655c1.672,0.969,3.516,1.422,5.313,1.422c3.687,0,7.279-1.922,9.248-5.328
	c2.953-5.109,1.203-11.624-3.905-14.576l-9.749-5.64c3.797-8.655,6.359-17.998,7.452-27.778h11.249c5.905,0,10.67-4.781,10.67-10.67
	C373.291,175.426,368.527,170.645,362.621,170.645z M255.977,255.979c-41.167,0-74.663-33.496-74.663-74.663
	s33.496-74.664,74.663-74.664c41.168,0,74.664,33.496,74.664,74.664C330.641,222.483,297.145,255.979,255.977,255.979z"/>
<g>
</g>
<g>
</g>
<g>
</g>
<g>
</g>
<g>
</g>
<g>
</g>
<g>
</g>
<g>
</g>
<g>
</g>
<g>
</g>
<g>
</g>
<g>
</g>
<g>
</g>
<g>
</g>
<g>
</g>
</svg>
