<?xml version="1.0" encoding="iso-8859-1"?>
<!-- Generator: Adobe Illustrator 19.0.0, SVG Export Plug-In . SVG Version: 6.00 Build 0)  -->
<svg version="1.1" id="Layer_1" xmlns="http://www.w3.org/2000/svg" xmlns:xlink="http://www.w3.org/1999/xlink" x="0px" y="0px"
	 viewBox="0 0 511.945 511.945" style="enable-background:new 0 0 511.945 511.945;" xml:space="preserve">
<g>
	<path style="fill:#FC6E51;" d="M494.947,64.494h-15.498l-74.491,37.496l-74.319,69.398l-44.667,64.008l-6.999,103.566l5.999,24.436
		l48.994,65.055l17.998,8.499l42.683-9.999l35.809-26.496c0,0,24.997-39.496,24.497-42.496s-2.999-48.494-2.999-48.494
		s-28.497-37.996-29.997-39.496c-1.5-1.499,24.997-5.498,24.997-5.498l10.499-23.498l20.997-53.494l21.997-105.489L494.947,64.494z"
		/>
	<path style="fill:#FC6E51;" d="M18.658,64.494h15.498l74.492,37.496l74.319,69.398l44.667,64.008l6.999,103.566l-5.999,24.436
		l-48.995,65.055l-18.006,8.499l-42.667-9.999L83.15,400.457c0,0-24.998-39.496-24.498-42.496s3-48.494,3-48.494
		s28.497-37.996,29.997-39.496c1.5-1.499-24.997-5.498-24.997-5.498l-10.499-23.499L35.155,187.48L13.158,81.992L18.658,64.494z"/>
</g>
<g>
	<path style="fill:#FFCE54;" d="M133.988,205.728c0,7.874-7.163,14.249-15.998,14.249s-15.999-6.375-15.999-14.249
		s7.164-14.249,15.999-14.249S133.988,197.854,133.988,205.728z"/>
	<path style="fill:#FFCE54;" d="M410.644,203.4c0,7.874-7.171,14.248-15.998,14.248c-8.843,0-15.998-6.374-15.998-14.248
		s7.155-14.249,15.998-14.249C403.473,189.152,410.644,195.526,410.644,203.4z"/>
</g>
<polygon style="fill:#656D78;" points="261.474,191.479 243.475,196.979 237.976,213.477 237.976,258.972 234.633,429.452 
	251.475,446.951 274.972,436.951 278.972,208.478 "/>
<path d="M362.65,363.398c-5.906,0-10.687,4.78-10.687,10.654c0,5.906,4.78,10.688,10.687,10.688c5.874,0,10.654-4.781,10.654-10.688
	C373.304,368.178,368.524,363.398,362.65,363.398z"/>
<path d="M383.976,320.73c-5.891,0-10.672,4.766-10.672,10.672c0,5.874,4.781,10.654,10.672,10.654c5.889,0,10.67-4.78,10.67-10.654
	C394.646,325.495,389.865,320.73,383.976,320.73z"/>
<path d="M341.308,320.73c-5.89,0-10.67,4.766-10.67,10.672c0,5.874,4.78,10.654,10.67,10.654c5.891,0,10.655-4.78,10.655-10.654
	C351.963,325.495,347.199,320.73,341.308,320.73z"/>
<path d="M127.973,320.73c-5.89,0-10.67,4.766-10.67,10.672c0,5.874,4.781,10.654,10.67,10.654c5.89,0,10.663-4.78,10.663-10.654
	C138.636,325.495,133.863,320.73,127.973,320.73z"/>
<path d="M170.64,320.73c-5.89,0-10.67,4.766-10.67,10.672c0,5.874,4.781,10.654,10.67,10.654c5.89,0,10.663-4.78,10.663-10.654
	C181.303,325.495,176.53,320.73,170.64,320.73z"/>
<path d="M149.306,363.398c-5.89,0-10.67,4.78-10.67,10.654c0,5.906,4.781,10.688,10.67,10.688c5.89,0,10.663-4.781,10.663-10.688
	C159.97,368.178,155.197,363.398,149.306,363.398z"/>
<path d="M495.962,55.339c-3.437-1.843-7.483-2.781-12.061-2.781c-27.356,0-77.227,35.559-114.753,68.836
	c-33.746,29.934-62.134,61.477-81.304,89.802c-0.594-6.5-3.124-12.452-7.014-17.248l26.543-37.746
	c3.375-4.828,2.219-11.483-2.594-14.874c-4.827-3.375-11.482-2.218-14.873,2.594l-27.293,38.839
	c-2.141-0.469-4.367-0.703-6.641-0.703c-2.281,0-4.499,0.25-6.647,0.703l-27.294-38.839c-3.39-4.812-10.045-5.968-14.865-2.594
	c-4.812,3.39-5.976,10.046-2.586,14.874l26.528,37.746c-3.89,4.796-6.421,10.749-7.007,17.248
	c-19.17-28.325-47.573-59.868-81.303-89.802C105.257,88.117,55.403,52.558,28.039,52.558c-4.569,0-8.624,0.938-12.061,2.781
	c-17.975,9.686-20.755,36.074-8.484,80.678c7.117,25.872,17.037,49.76,19.693,55.962c0.578,5.031,2.515,20.514,6.108,36.684
	c6.773,30.434,15.249,45.526,27.474,48.979c0.75,0.203,1.523,0.344,2.304,0.391l14.866,0.813
	c-15.693,16.248-34.246,42.291-32.083,73.147c2.438,34.746,30.239,65.728,82.631,92.099c7.171,3.609,14.592,5.438,22.076,5.438
	c0,0,0,0,0.008,0c23.88,0,47.143-18.139,69.141-53.885c1.477-2.406,2.898-4.797,4.257-7.171v38.917
	c0,17.654,14.358,31.996,32.004,31.996c17.639,0,31.996-14.342,31.996-31.996v-38.933c1.375,2.39,2.781,4.78,4.266,7.187
	c21.982,35.746,45.261,53.885,69.133,53.885c7.499,0,14.92-1.828,22.092-5.438c52.4-26.371,80.193-57.353,82.615-92.099
	c2.172-30.856-16.373-56.899-32.059-73.147l14.857-0.813c0.766-0.047,1.547-0.188,2.297-0.391
	c12.232-3.453,20.7-18.545,27.465-48.979c3.609-16.17,5.547-31.653,6.125-36.684c2.656-6.202,12.561-30.09,19.686-55.962
	C516.726,91.413,513.945,65.025,495.962,55.339z M266.637,320.73h-21.333v-21.325h21.333V320.73z M245.304,342.056h21.333v21.342
	h-21.333V342.056z M266.637,278.064h-21.333v-1.219v-24.623l0,0v-16.826h21.333V278.064z M245.304,384.74h21.333v21.325h-21.333
	V384.74z M266.637,214.071h-21.333c0-5.89,4.789-10.686,10.67-10.686C261.857,203.385,266.637,208.181,266.637,214.071z
	 M53.685,222.007c-3.711-17.295-5.445-33.715-5.46-33.871c-0.117-1.109-0.398-2.187-0.844-3.187
	c-0.117-0.266-11.616-26.606-19.318-54.587c-4.39-15.967-6.663-29.185-6.757-39.277c-0.078-9.093,1.664-15.28,4.781-16.967
	c0,0,0.523-0.234,1.953-0.234c14.42,0,53.604,21.794,100.606,63.477c46.237,41.011,81.686,84.537,95.325,116.956v11.249
	L66.45,256.848C64.824,255.254,59.293,248.192,53.685,222.007z M201.543,384.474c-22.232,36.136-39.988,43.729-50.971,43.729
	c-0.008,0-0.008,0-0.008,0c-4.179,0-8.257-1.031-12.483-3.172C92.922,402.3,69.05,377.24,67.143,350.556
	c-2.406-33.591,30.786-62.244,40.761-70.055l16.881,0.938l99.184,5.498v52.338C221.689,345.118,213.596,364.867,201.543,384.474z
	 M255.974,438.061c-5.882,0-10.67-4.78-10.67-10.671h21.333C266.637,433.281,261.857,438.061,255.974,438.061z M444.796,350.493
	c-1.875,26.715-25.73,51.79-70.93,74.537c-4.218,2.141-8.311,3.172-12.498,3.172c-19.826,0-38.559-23.653-50.807-43.463
	c-12.107-19.623-20.279-39.59-22.592-45.465v-52.338L404.05,280.5c4.171,3.249,12.374,10.123,20.403,19.591
	C434.517,311.966,446.218,330.324,444.796,350.493z M483.933,130.174c-7.688,27.997-19.264,54.494-19.373,54.775
	c-0.438,1-0.734,2.078-0.844,3.187c-0.016,0.156-1.734,16.42-5.422,33.715c-5.623,26.325-11.17,33.403-12.811,34.996l-157.514,8.718
	v-11.249c13.64-32.418,49.089-75.944,95.334-116.956c46.994-41.683,86.178-63.477,100.598-63.477c1.422,0,1.953,0.234,1.953,0.234
	c3.108,1.687,4.843,7.843,4.78,16.889C490.557,101.068,488.291,114.238,483.933,130.174z"/>
<path d="M394.646,171.388c-17.654,0-31.996,14.358-31.996,31.997c0,17.654,14.342,32.012,31.996,32.012
	c17.639,0,31.996-14.357,31.996-32.012C426.642,185.746,412.285,171.388,394.646,171.388z M394.646,214.071
	c-5.89,0-10.67-4.796-10.67-10.686c0-5.875,4.78-10.655,10.67-10.655c5.875,0,10.655,4.781,10.655,10.655
	C405.301,209.274,400.521,214.071,394.646,214.071z"/>
<path d="M117.303,171.388c-17.646,0-31.997,14.358-31.997,31.997c0,17.654,14.35,32.012,31.997,32.012s32.004-14.357,32.004-32.012
	C149.306,185.746,134.949,171.388,117.303,171.388z M117.303,214.071c-5.882,0-10.663-4.796-10.663-10.686
	c0-5.875,4.781-10.655,10.663-10.655s10.67,4.781,10.67,10.655C127.973,209.274,123.184,214.071,117.303,214.071z"/>
<g>
</g>
<g>
</g>
<g>
</g>
<g>
</g>
<g>
</g>
<g>
</g>
<g>
</g>
<g>
</g>
<g>
</g>
<g>
</g>
<g>
</g>
<g>
</g>
<g>
</g>
<g>
</g>
<g>
</g>
</svg>
