<?xml version="1.0" encoding="iso-8859-1"?>
<!-- Generator: Adobe Illustrator 19.0.0, SVG Export Plug-In . SVG Version: 6.00 Build 0)  -->
<svg version="1.1" id="Layer_1" xmlns="http://www.w3.org/2000/svg" xmlns:xlink="http://www.w3.org/1999/xlink" x="0px" y="0px"
	 viewBox="0 0 511.942 511.942" style="enable-background:new 0 0 511.942 511.942;" xml:space="preserve">
<rect x="21.497" y="257.97" style="fill:#ED5564;" width="38.496" height="56.986"/>
<rect x="447.45" y="129.491" style="fill:#5D9CEC;" width="53.994" height="123.98"/>
<polygon style="fill:#FFCE54;" points="26.496,321.958 40.745,433.447 420.951,428.947 447.449,321.958 "/>
<path d="M501.271,117.319h-42.668V85.323c0-5.89-4.764-10.671-10.654-10.671H21.325c-5.89,0-10.67,4.781-10.67,10.671v170.652v53.33
	c-5.89,0-10.655,4.75-10.655,10.655s4.765,10.655,10.655,10.655h1.921l11.092,55.431c0,0.031,0.016,0.063,0.016,0.094l8.515,42.558
	c1,5,5.374,8.593,10.452,8.593h383.956c5.094,0,9.469-3.593,10.468-8.593l8.515-42.558c0-0.031,0-0.063,0-0.063l11.093-55.462h1.921
	c5.891,0,10.672-4.75,10.672-10.655s-4.781-10.655-10.672-10.655V266.63h42.668c5.89,0,10.67-4.765,10.67-10.655V127.99
	C511.941,122.084,507.16,117.319,501.271,117.319z M426.404,373.296H42.869l-8.53-42.682h29.653h370.943L426.404,373.296z
	 M324.743,309.305L298.81,280.12c13.154-15.007,21.153-34.661,21.153-56.143c0-3.625-0.234-7.171-0.672-10.671h43.323v95.997
	h-37.871V309.305z M173.058,309.305l13.327-14.998c10.967,7.53,23.763,12.592,37.589,14.311v0.688h-50.916V309.305z
	 M170.636,223.979c0-3.641,0.313-7.202,0.891-10.671h52.447v6.608l-39.214,44.121C175.932,253.053,170.636,239.133,170.636,223.979z
	 M298.622,223.979c0,15.154-5.297,29.074-14.124,40.059l-39.199-44.121v-6.608h52.432
	C298.31,216.777,298.622,220.338,298.622,223.979z M223.974,287.056c-8.437-1.405-16.311-4.468-23.279-8.842l23.279-26.178V287.056z
	 M245.3,252.036l23.263,26.178c-6.968,4.374-14.842,7.437-23.263,8.842L245.3,252.036L245.3,252.036z M245.3,191.982v-31.105
	c19.108,3.219,35.356,14.92,44.729,31.105H245.3z M223.974,191.982h-44.745c9.374-16.186,25.638-27.887,44.745-31.105V191.982z
	 M245.3,308.616c13.811-1.719,26.622-6.78,37.574-14.311l13.327,14.998H245.3V308.616z M313.73,191.982
	c-11.405-28.09-37.34-48.775-68.43-52.665V95.993h117.315v95.988L313.73,191.982L313.73,191.982z M223.974,139.316
	c-31.09,3.89-57.025,24.575-68.43,52.665h-48.901V95.993h117.331V139.316z M149.967,213.308c-0.438,3.5-0.656,7.046-0.656,10.671
	c0,21.481,7.983,41.136,21.138,56.143l-25.935,29.184h-37.871v-95.997L149.967,213.308L149.967,213.308z M85.318,309.305h-10.67
	v-53.33c0-5.905-4.765-10.671-10.655-10.671H31.996v-31.996h53.322V309.305z M31.996,266.629h21.326v42.675H31.996V266.629z
	 M383.956,309.305v-95.997h53.321v38.246l-18.216,18.2c-4.156,4.18-4.156,10.93,0,15.085c2.093,2.093,4.811,3.124,7.545,3.124
	s5.469-1.031,7.547-3.124l3.124-3.124v27.59H383.956z M458.603,181.312H490.6v21.325h-31.997V181.312z M490.6,138.645v21.341
	h-31.997v-21.341H490.6z M437.278,127.99v63.992h-53.321V95.993h53.321L437.278,127.99L437.278,127.99z M85.318,95.993v95.988
	H31.996V95.993H85.318z M415.952,415.949c0-5.906-4.781-10.655-10.671-10.655s-10.671,4.749-10.671,10.655h-21.326
	c0-5.906-4.78-10.655-10.67-10.655c-5.891,0-10.655,4.749-10.655,10.655h-21.341c0-5.906-4.766-10.655-10.655-10.655
	c-5.905,0-10.671,4.749-10.671,10.655h-21.326c0-5.906-4.78-10.655-10.67-10.655c-5.891,0-10.671,4.749-10.671,10.655H245.3
	c0-5.906-4.781-10.655-10.671-10.655s-10.655,4.749-10.655,10.655h-21.341c0-5.906-4.765-10.655-10.655-10.655
	c-5.905,0-10.67,4.749-10.67,10.655h-21.326c0-5.906-4.781-10.655-10.671-10.655s-10.67,4.749-10.67,10.655h-21.326
	c0-5.906-4.781-10.655-10.671-10.655s-10.655,4.749-10.655,10.655H74.647c0-5.906-4.765-10.655-10.655-10.655
	c-5.906,0-10.67,4.749-10.67,10.655H51.4l-4.265-21.342h375.004l-4.265,21.342H415.952z M458.603,245.303v-21.325H490.6v21.325
	H458.603z"/>
<g>
</g>
<g>
</g>
<g>
</g>
<g>
</g>
<g>
</g>
<g>
</g>
<g>
</g>
<g>
</g>
<g>
</g>
<g>
</g>
<g>
</g>
<g>
</g>
<g>
</g>
<g>
</g>
<g>
</g>
</svg>
