<?xml version="1.0" encoding="iso-8859-1"?>
<!-- Generator: Adobe Illustrator 19.0.0, SVG Export Plug-In . SVG Version: 6.00 Build 0)  -->
<svg version="1.1" id="Layer_1" xmlns="http://www.w3.org/2000/svg" xmlns:xlink="http://www.w3.org/1999/xlink" x="0px" y="0px"
	 viewBox="0 0 511.942 511.942" style="enable-background:new 0 0 511.942 511.942;" xml:space="preserve">
<polygon style="fill:#ED5564;" points="486.446,199.337 454.449,219.834 398.455,231.833 334.462,242.332 255.971,242.832 
	177.48,243.831 87.491,231.833 43.995,213.835 21.498,206.836 24.997,268.828 49.994,287.326 136.485,302.325 305.465,310.325 
	362.459,304.325 491.945,266.641 "/>
<circle style="fill:#FFCE54;" cx="240.721" cy="333.071" r="41.24"/>
<path style="fill:#DA4453;" d="M452.621,161.684l-51.994-10.67l-70.664-9.999h-99.989l-108.66,6.671l-67.32,12.655l-37.996,25.341
	l12.67,21.998l33.996,9.327c0,0,17.311-12.015,40.652-10.671s55.994-6,88.662-6.999c32.668-1,133.985,0,133.985,0l93.318,14.342
	l30.668,3.328l33.324-13.999v-25.325L452.621,161.684z"/>
<path d="M394.612,255.971c-5.89,0-10.654,4.766-10.654,10.67c0,5.875,4.765,10.656,10.654,10.656
	c5.891,0,10.671-4.781,10.671-10.656C405.283,260.737,400.502,255.971,394.612,255.971z"/>
<path d="M117.315,255.971c-5.89,0-10.671,4.766-10.671,10.67c0,5.875,4.781,10.656,10.671,10.656s10.67-4.781,10.67-10.656
	C127.986,260.737,123.205,255.971,117.315,255.971z"/>
<path d="M501.272,224.209v-32.231c0-11.42-8.109-21.576-24.061-30.153c-12.67-6.796-30.48-12.842-52.979-17.951
	c-45.056-10.249-104.83-15.889-168.261-15.889c-63.461,0-123.205,5.64-168.293,15.889c-22.482,5.108-40.308,11.155-52.963,17.951
	c-15.967,8.577-24.06,18.732-24.06,30.153v32.231C4.765,224.209,0,228.99,0,234.879c0,5.89,4.765,10.671,10.655,10.671v10.421
	c0,11.42,8.093,21.577,24.06,30.153c12.655,6.797,30.481,12.844,52.963,17.951c29.872,6.797,66.211,11.563,105.8,13.998
	c-0.969,4.031-1.5,8.234-1.5,12.563c0,29.402,23.904,53.322,53.322,53.322c29.403,0,53.323-23.92,53.323-53.322
	c0-3.938-0.438-7.781-1.25-11.5c47.729-1.906,91.771-7.076,126.859-15.061c22.498-5.107,40.309-11.154,52.979-17.951
	c15.951-8.576,24.061-18.732,24.061-30.153v-10.42c5.89,0,10.67-4.781,10.67-10.671C511.942,228.99,507.161,224.209,501.272,224.209
	z M92.412,164.669c43.573-9.89,101.66-15.358,163.559-15.358s119.986,5.468,163.544,15.358
	c49.323,11.202,60.431,23.794,60.431,27.309c0,2.266-4.577,8.249-20.873,15.202c-9.92-3.625-21.56-6.968-34.84-9.983
	c-45.057-10.234-104.831-15.89-168.262-15.89c-63.461,0-123.22,5.656-168.293,15.889c-13.264,3.015-24.904,6.359-34.809,9.983
	c-16.311-6.953-20.873-12.936-20.873-15.202C31.997,188.463,43.089,175.87,92.412,164.669z M422.296,218.647
	c-0.906,0.219-1.844,0.422-2.781,0.641c-43.558,9.89-101.645,15.357-163.544,15.357s-119.986-5.468-163.559-15.357
	c-0.953-0.219-1.859-0.422-2.781-0.641c0.922-0.219,1.828-0.438,2.781-0.656c43.573-9.905,101.66-15.342,163.559-15.342
	s119.986,5.437,163.544,15.342C420.452,218.209,421.39,218.428,422.296,218.647z M245.301,362.631
	c-17.639,0-31.997-14.357-31.997-31.996c0-17.654,14.358-31.996,31.997-31.996s31.997,14.342,31.997,31.996
	C277.297,348.274,262.94,362.631,245.301,362.631z M479.946,255.971c0,3.516-11.107,16.108-60.431,27.309
	c-36.058,8.203-82.084,13.344-131.954,14.875c-7.686-9.984-18.81-17.17-31.59-19.779v-1.078c0-5.875-4.78-10.656-10.67-10.656
	s-10.671,4.781-10.671,10.656v1.078c-12.405,2.531-23.247,9.389-30.902,18.92c-41.902-2.172-80.288-6.969-111.315-14.016
	c-49.324-11.202-60.416-23.793-60.416-27.309v-35.355c0.875,0.5,1.781,1,2.718,1.515c12.655,6.796,30.481,12.842,52.963,17.951
	c45.073,10.249,104.832,15.889,168.293,15.889c63.431,0,123.205-5.64,168.262-15.889c22.498-5.109,40.309-11.155,52.979-17.951
	c0.938-0.516,1.844-1.015,2.734-1.515V255.971z"/>
<path d="M245.301,319.963c-5.89,0-10.671,4.766-10.671,10.672c0,5.873,4.781,10.654,10.671,10.654s10.67-4.781,10.67-10.654
	C255.971,324.729,251.191,319.963,245.301,319.963z"/>
<g>
</g>
<g>
</g>
<g>
</g>
<g>
</g>
<g>
</g>
<g>
</g>
<g>
</g>
<g>
</g>
<g>
</g>
<g>
</g>
<g>
</g>
<g>
</g>
<g>
</g>
<g>
</g>
<g>
</g>
</svg>
