<?xml version="1.0" encoding="iso-8859-1"?>
<!-- Generator: Adobe Illustrator 19.0.0, SVG Export Plug-In . SVG Version: 6.00 Build 0)  -->
<svg version="1.1" id="Layer_1" xmlns="http://www.w3.org/2000/svg" xmlns:xlink="http://www.w3.org/1999/xlink" x="0px" y="0px"
	 viewBox="0 0 511.946 511.946" style="enable-background:new 0 0 511.946 511.946;" xml:space="preserve">
<polygon style="fill:#5D9CEC;" points="191.307,274.645 7.999,465.952 13.327,490.62 27.997,501.948 60.665,499.276 
	229.303,317.968 "/>
<polygon style="fill:#F2F4F7;" points="425.952,59.326 202.649,274.645 229.303,305.969 453.949,87.994 "/>
<path d="M508.818,153.987l-52.807-52.807l7.546-7.53c4.172-4.171,4.172-10.92,0-15.092L433.389,48.39c-2-2-4.719-3.125-7.547-3.125
	c-2.827,0-5.546,1.125-7.545,3.125l-7.547,7.546L357.959,3.129c-4.171-4.171-10.92-4.171-15.092,0
	c-4.172,4.156-4.172,10.921,0,15.092l52.807,52.806l-15.092,15.077l-52.807-52.807c-4.156-4.171-10.921-4.171-15.076,0
	c-4.172,4.171-4.172,10.921,0,15.092l52.807,52.791l-15.092,15.092l-52.807-52.807c-4.172-4.156-10.922-4.156-15.093,0
	c-4.155,4.171-4.155,10.937,0,15.092l52.807,52.806l-15.076,15.092l-52.807-52.807c-4.171-4.171-10.921-4.171-15.092,0
	c-4.171,4.156-4.171,10.921,0,15.092l52.806,52.806l-15.092,15.077l-52.806-52.807c-4.156-4.171-10.921-4.171-15.077,0
	c-4.171,4.171-4.171,10.921,0,15.092l52.807,52.791l-15.091,15.094l-52.807-52.807c-4.156-4.156-10.921-4.156-15.077,0
	c-4.171,4.171-4.171,10.937,0,15.092l52.791,52.806l-15.076,15.092l-52.807-52.807c-4.171-4.171-10.921-4.171-15.092,0
	c-4.156,4.156-4.156,10.905,0,15.092l52.807,52.791l-15.092,15.092c-2-2-4.703-3.124-7.531-3.124c-2.843,0-5.546,1.124-7.546,3.124
	L12.499,439.111C4.437,447.157,0,457.875,0,469.264c0,11.404,4.437,22.122,12.499,30.184s18.779,12.498,30.184,12.498
	c11.389,0,22.107-4.437,30.168-12.498L244.8,327.499c4.171-4.172,4.171-10.937,0-15.092l0,0l15.092-15.092l52.807,52.807
	c2.078,2.077,4.812,3.124,7.546,3.124c2.718,0,5.452-1.047,7.53-3.124c4.172-4.172,4.172-10.922,0-15.093l-52.791-52.807l7.53-7.53
	l52.807,52.807c2.094,2.078,4.812,3.125,7.546,3.125s5.453-1.047,7.547-3.125c4.155-4.172,4.155-10.937,0-15.092L297.607,259.6
	l7.545-7.546l52.807,52.806c2.078,2.078,4.813,3.125,7.547,3.125c2.718,0,5.452-1.047,7.529-3.125c4.172-4.171,4.172-10.92,0-15.076
	l-52.79-52.806l7.53-7.562l52.807,52.806c2.078,2.094,4.812,3.125,7.546,3.125c2.733,0,5.468-1.031,7.546-3.125
	c4.172-4.155,4.172-10.905,0-15.076l-52.807-52.807l7.547-7.546L403.22,259.6c2.078,2.094,4.812,3.125,7.53,3.125
	c2.734,0,5.469-1.031,7.547-3.125c4.171-4.156,4.171-10.921,0-15.092l-52.791-52.807l7.529-7.53l52.807,52.807
	c2.078,2.078,4.813,3.125,7.547,3.125s5.452-1.047,7.546-3.125c4.155-4.171,4.155-10.937,0-15.092l-52.807-52.806l7.546-7.531
	l52.807,52.791c2.078,2.078,4.813,3.125,7.53,3.125c2.733,0,5.468-1.046,7.546-3.125c4.172-4.171,4.172-10.92,0-15.076
	l-52.807-52.807l7.547-7.546l52.806,52.791c2.078,2.094,4.812,3.125,7.546,3.125s5.453-1.031,7.547-3.125
	c4.155-4.156,4.155-10.905,0-15.076l-52.807-52.807l7.546-7.546l52.806,52.807c2.078,2.093,4.813,3.125,7.531,3.125
	c2.734,0,5.468-1.031,7.546-3.125C512.989,164.923,512.989,158.158,508.818,153.987z M57.76,484.356
	c-4.031,4.03-9.39,6.249-15.077,6.249c-5.703,0-11.061-2.219-15.092-6.249c-4.031-4.031-6.25-9.374-6.25-15.092
	c0-5.688,2.219-11.047,6.25-15.077l164.418-164.403l0,0l20.107,20.107l10.061,10.046L57.76,484.356z M214.632,282.222l22.623-22.622
	c0,0,0,0,0.016,0l0,0l30.153-30.168c0.016,0,0.016,0,0.016-0.016l0,0l30.169-30.153l0,0l0,0l30.168-30.184l0,0c0,0,0,0,0.016,0
	l30.152-30.168h0.016c0-0.016,0-0.016,0-0.016l30.169-30.153l0,0v-0.016l30.169-30.168l0,0c0,0,0,0,0.016,0l7.529-7.531
	l15.093,15.077l-7.546,7.546l0,0l0,0l-22.623,22.623h-0.016l0,0l-45.244,45.26l0,0c-0.016,0.016-0.016,0.016-0.016,0.016
	l-22.623,22.623l0,0l0,0l-45.244,45.245c-0.016,0-0.016,0-0.016,0c0,0.016,0,0.016,0,0.016l-22.623,22.622l0,0l-0.016,0.016
	l-45.245,45.246l-3.016-3.016L214.632,282.222z"/>
<g>
</g>
<g>
</g>
<g>
</g>
<g>
</g>
<g>
</g>
<g>
</g>
<g>
</g>
<g>
</g>
<g>
</g>
<g>
</g>
<g>
</g>
<g>
</g>
<g>
</g>
<g>
</g>
<g>
</g>
</svg>
