<?xml version="1.0" encoding="iso-8859-1"?>
<!-- Generator: Adobe Illustrator 19.0.0, SVG Export Plug-In . SVG Version: 6.00 Build 0)  -->
<svg version="1.1" id="Layer_1" xmlns="http://www.w3.org/2000/svg" xmlns:xlink="http://www.w3.org/1999/xlink" x="0px" y="0px"
	 viewBox="0 0 511.943 511.943" style="enable-background:new 0 0 511.943 511.943;" xml:space="preserve">
<path style="fill:#656D78;" d="M466.95,43.496l-42.996-10.499l-13.498,5.499L382.96,63.759l-25.998,59.228l-31.996,59.494l67.992-5
	c0,0,55.994,31.497,57.494,34.497c1.5,2.999,16.498,14.498,16.498,14.498l-6.5-144.984L466.95,43.496z"/>
<polygon style="fill:#AAB2BC;" points="442.951,208.978 388.958,176.981 350.962,180.981 291.969,200.978 159.985,257.222 
	68.994,299.967 68.994,317.965 98.992,326.964 210.979,360.96 313.967,360.96 400.957,334.963 443.951,294.968 455.951,238.474 "/>
<g>
	<polygon style="fill:#656D78;" points="255.973,365.46 269.471,411.954 295.469,435.452 324.965,365.46 	"/>
	<path style="fill:#656D78;" d="M84.493,328.964L29,365.46l156.982-7.5C177.483,354.461,84.493,328.964,84.493,328.964z"/>
</g>
<path d="M501.274,63.775c0-5.905-4.781-10.686-10.671-10.686s-10.655,4.78-10.655,10.686h-4.874l3.155-4.874
	c1.875-2.906,2.234-6.53,0.953-9.749c-0.453-1.156-11.514-27.81-47.15-27.81c-3.938,0-8.094,0.344-12.312,1
	c-25.731,4.094-41.604,37.152-59.978,75.429c-13.951,29.028-28.371,59.088-46.854,75.43c-11.89,10.529-47.058,32.434-147.062,76.96
	c-60.399,26.872-116.237,49.338-116.783,49.588c-4.094,1.625-6.75,5.624-6.688,10.03s2.828,8.312,6.953,9.843
	c7.03,2.624,13.967,5.124,20.841,7.53L5.393,364.023c-4.313,2.438-6.359,7.53-4.953,12.279c1.344,4.563,5.516,7.656,10.218,7.656
	c0.203,0,0.406,0,0.609-0.031l233.942-13.312c0.203,0.031,0.406,0.063,0.594,0.063c1.281,11.28,4.874,26.56,9.483,39.589
	c6.39,18.092,13.653,29.528,22.013,34.621v24.404h-10.671c-5.89,0-10.655,4.749-10.655,10.654c0,5.906,4.766,10.655,10.655,10.655
	h63.993c5.89,0,10.67-4.749,10.67-10.655c0-5.905-4.78-10.654-10.67-10.654h-31.996v-24.404
	c8.373-5.093,15.639-16.529,22.027-34.621c4.563-12.904,8.125-28.027,9.438-39.276c48.072-6.312,85.006-25.091,110.065-56.056
	c15.248-18.842,25.997-42.09,32.246-69.586c0.156-0.563,0.281-1.094,0.359-1.656c9.374-42.809,7.983-95.802-4.233-158.607h32.746
	c5.89,0,10.67-4.75,10.67-10.655S507.163,63.775,501.274,63.775z M378.975,106.989c13.779-28.715,29.402-61.243,44.089-63.586
	c3.124-0.5,6.14-0.75,8.968-0.75c13.779,0,21.139,5.937,24.669,10.249L446.514,68.65c-0.047,0.063-0.094,0.156-0.156,0.25
	c-0.109,0.188-0.219,0.375-0.328,0.563c-0.063,0.125-0.109,0.219-0.156,0.344c-0.109,0.219-0.203,0.406-0.281,0.625
	c-0.047,0.094-0.094,0.219-0.125,0.344c-0.078,0.188-0.156,0.405-0.219,0.624c-0.047,0.125-0.063,0.25-0.094,0.406
	c-0.063,0.188-0.109,0.406-0.156,0.594c-0.031,0.156-0.047,0.313-0.063,0.5c-0.031,0.156-0.063,0.344-0.078,0.531
	c-0.016,0.219-0.031,0.406-0.031,0.594c-0.016,0.156-0.016,0.281-0.016,0.406c0,0.031,0,0.031,0,0.063
	c0,0.219,0.016,0.406,0.031,0.625c0,0.156,0,0.313,0.031,0.469c0.016,0.125,0.031,0.25,0.063,0.406
	c0.031,0.219,0.063,0.438,0.094,0.656c0,0,0,0,0.016,0c10.796,50.619,14.639,94.489,11.546,131.423
	c-12.405-18.092-28.372-30.528-47.761-37.059c-21.403-7.249-43.947-6.218-63.992-1.969
	C357.821,151.046,368.523,128.768,378.975,106.989z M55.45,360.054l41.729-23.747c21.294,6.905,41.776,12.874,61.368,17.873
	L55.45,360.054z M301.562,400.175c-5.843,17.654-11.374,24.496-13.593,26.152c-2.218-1.656-7.748-8.498-13.607-26.152
	c-3.188-9.656-5.53-19.811-6.749-27.561c8.187,0.531,16.139,0.781,23.841,0.781c0.016,0,0.016,0,0.031,0
	c5.719,0,11.312-0.156,16.779-0.438C307.03,380.677,304.701,390.675,301.562,400.175z M423.579,301.498
	c-13.265,16.404-30.763,28.966-51.979,37.339c-22.247,8.781-49.198,13.249-80.116,13.249h-0.016
	c-55.946,0-126.048-14.498-208.679-43.12c47.635-19.717,149.123-62.805,207.804-95.771c1.031-0.28,2.047-0.687,3.016-1.28
	c0.594-0.375,60.368-36.997,108.457-20.686c21.685,7.343,38.151,24.81,49.01,51.9C445.483,266.252,436.328,285.75,423.579,301.498z"
	/>
<path d="M426.61,74.43c5.891,0,10.671-4.78,10.671-10.655c0-5.905-4.78-10.686-10.671-10.686c-5.89,0-10.654,4.78-10.654,10.686
	C415.955,69.65,420.72,74.43,426.61,74.43z"/>
<g>
</g>
<g>
</g>
<g>
</g>
<g>
</g>
<g>
</g>
<g>
</g>
<g>
</g>
<g>
</g>
<g>
</g>
<g>
</g>
<g>
</g>
<g>
</g>
<g>
</g>
<g>
</g>
<g>
</g>
</svg>
