<?xml version="1.0" encoding="iso-8859-1"?>
<!-- Generator: Adobe Illustrator 19.0.0, SVG Export Plug-In . SVG Version: 6.00 Build 0)  -->
<svg version="1.1" id="Layer_1" xmlns="http://www.w3.org/2000/svg" xmlns:xlink="http://www.w3.org/1999/xlink" x="0px" y="0px"
	 viewBox="0 0 511.947 511.947" style="enable-background:new 0 0 511.947 511.947;" xml:space="preserve">
<polygon style="fill:#FC6E51;" points="479.949,313.471 412.456,250.478 399.958,208.483 326.466,121.993 319.966,52 
	276.472,64.498 268.472,37.501 222.477,61.999 182.482,101.495 125.989,115.493 50.997,158.488 14.501,197.484 110.49,426.957 
	156.985,423.957 202.98,406.46 232.976,379.463 255.974,367.465 307.468,357.465 381.46,360.465 441.453,362.965 484.449,358.465 
	503.947,336.468 "/>
<polygon style="fill:#656D78;" points="474.949,318.298 464.951,340.639 471.605,351.638 501.29,334.968 "/>
<polygon style="fill:#F5F7FA;" points="303.624,359.309 253.966,365.637 210.971,389.977 164.312,419.974 119.645,428.629 
	138.979,477.295 149.642,477.295 186.31,466.969 214.307,454.298 249.303,425.301 279.628,393.961 308.968,359.309 "/>
<path d="M362.634,211.685c-5.891,0-10.672,4.766-10.672,10.671c0,5.874,4.781,10.655,10.672,10.655
	c5.889,0,10.67-4.781,10.67-10.655C373.304,216.451,368.523,211.685,362.634,211.685z"/>
<path d="M508.507,325l-87.068-80.335l-1.766-23.122c-0.156-1.922-0.811-3.75-1.904-5.327l-65.166-92.646
	c-1.078-1.546-2.545-2.765-4.264-3.546c-0.75-0.344-6.25-2.844-15.498-6.233c0.328-6.422,0.779-15.89,1.045-25.451
	c0.281-9.998,0.297-18.185,0.078-24.31c-0.375-10.404-1.311-16.373-5.467-20.091c-2.609-2.328-6.063-3.344-9.484-2.75
	c-10.076,1.75-21.168,5.687-32.027,10.546c-3.453-14.796-6.389-23.045-6.545-23.482c-0.016-0.063-0.047-0.125-0.063-0.188
	c-0.094-0.187-0.156-0.374-0.25-0.562c-0.063-0.141-0.125-0.281-0.188-0.422c-0.094-0.188-0.188-0.359-0.313-0.547
	c-0.063-0.125-0.125-0.25-0.219-0.375c-0.125-0.188-0.25-0.375-0.375-0.563c-0.078-0.109-0.156-0.219-0.219-0.313
	c-0.156-0.203-0.344-0.406-0.531-0.594c-0.047-0.063-0.094-0.141-0.156-0.203c-0.219-0.219-0.438-0.438-0.688-0.641
	c-0.031-0.031-0.063-0.063-0.094-0.094c-0.266-0.219-0.531-0.438-0.828-0.641c-0.016-0.016-0.016-0.016-0.047-0.031
	c-0.594-0.406-1.234-0.766-1.922-1.063h-0.016l0,0c-0.063-0.031-0.156-0.047-0.219-0.078c-0.281-0.109-0.547-0.219-0.813-0.297
	c-0.063-0.016-0.109-0.016-0.156-0.047c-0.313-0.078-0.625-0.156-0.922-0.219c-0.047,0-0.094-0.016-0.141-0.031
	c-0.313-0.047-0.625-0.094-0.938-0.125c-0.07,0-0.133,0-0.195,0c-0.297-0.031-0.586-0.031-0.875-0.031c-0.102,0-0.195,0-0.297,0
	c-0.25,0.031-0.508,0.031-0.766,0.063c-0.125,0.016-0.25,0.031-0.375,0.063c-0.219,0.031-0.445,0.063-0.664,0.109
	c-0.141,0.031-0.281,0.078-0.422,0.109c-0.203,0.047-0.406,0.094-0.602,0.156c-0.148,0.063-0.297,0.109-0.438,0.156
	c-0.195,0.078-0.383,0.156-0.57,0.234c-0.07,0.031-0.141,0.047-0.203,0.078c-0.742,0.344-18.427,8.593-38.862,25.403
	c-16.076,13.233-29.403,28.153-39.55,44.167c-31.324,2.172-60.438,9.374-86.779,21.482c-39.417,18.091-72.703,47.26-98.958,86.678
	c-2.063,3.093-2.359,7.03-0.789,10.404l127.985,274.313c1.766,3.78,5.562,6.155,9.663,6.155c0.406,0,0.813-0.031,1.226-0.063
	c80.452-9.28,108.542-43.104,133.329-72.944c17.279-20.795,32.23-38.793,63.914-46.417c11.516,0.594,85.631,4.437,98.896,6.03
	c1.811,0.219,3.717,0.313,5.717,0.313l0,0c17.045,0,37.777-7.812,46.184-13.451c8.779-5.906,20.027-22.217,22.215-25.42
	C513.07,334.437,512.382,328.563,508.507,325z M475.574,336.249l5.688-7.374l5.844,5.405c-1.844,2.391-3.781,4.812-5.594,6.89
	L475.574,336.249z M311.843,106.822c-5.016-1.499-10.469-3.015-16.311-4.483c-1.219-11.046-2.688-20.842-4.172-29.185
	c7.172-3.405,14.451-6.405,21.326-8.499C312.999,74.404,312.624,90.652,311.843,106.822z M256.802,404.117
	c-22.474,27.06-45.674,54.993-111.776,64.415l-14.725-31.575c23.208-2.312,65.867-10.249,93.169-37.214
	c19.139-18.904,44.338-26.436,65.875-29.075C276.347,380.588,266.48,392.461,256.802,404.117z M441.734,356.372
	c-1.156,0-2.219-0.063-3.188-0.188c-14.529-1.733-92.801-5.748-101.223-6.186c-3.891-0.641-22.059-3.281-45.104-1.156
	c-34.332,3.171-63.29,15.529-83.741,35.715c-25.724,25.434-70.883,30.684-87.811,31.777l-97.76-209.539
	c23.466-33.59,52.626-58.524,86.748-74.211c20.224-9.296,42.331-15.404,66-18.279c-1.695,4-3.21,8.063-4.523,12.155
	c-1.804,5.593,1.289,11.593,6.898,13.404c5.608,1.797,11.616-1.28,13.413-6.905c10.17-31.715,32.113-54.774,48.721-68.539
	c3.398-2.812,6.726-5.358,9.882-7.655c-10.179,31.605-22.958,83.131-15.225,124.877c0.953,5.124,5.437,8.718,10.476,8.718
	c0.648,0,1.305-0.063,1.961-0.188c5.788-1.063,9.616-6.625,8.538-12.437c-6.468-34.918,3.844-79.491,12.998-109.237
	c0.016,0.078,0.031,0.156,0.047,0.25c3.852,19.466,8.477,50.807,8.477,89.614c0,5.875,4.764,10.655,10.654,10.655
	s10.672-4.78,10.672-10.655c0-11.811-0.422-22.966-1.094-33.355c19.699,5.406,33.824,10.983,39.338,13.296l61.744,87.786
	l1.859,24.389c0.219,2.687,1.422,5.187,3.404,7.03l61.635,56.869l-13.154,16.998c-3.516,4.546-2.797,11.061,1.639,14.748
	l7.875,6.499C455.388,354.716,447.953,356.372,441.734,356.372z"/>
<g>
</g>
<g>
</g>
<g>
</g>
<g>
</g>
<g>
</g>
<g>
</g>
<g>
</g>
<g>
</g>
<g>
</g>
<g>
</g>
<g>
</g>
<g>
</g>
<g>
</g>
<g>
</g>
<g>
</g>
</svg>
