<?xml version="1.0" encoding="iso-8859-1"?>
<!-- Generator: Adobe Illustrator 19.0.0, SVG Export Plug-In . SVG Version: 6.00 Build 0)  -->
<svg version="1.1" id="Layer_1" xmlns="http://www.w3.org/2000/svg" xmlns:xlink="http://www.w3.org/1999/xlink" x="0px" y="0px"
	 viewBox="0 0 511.943 511.943" style="enable-background:new 0 0 511.943 511.943;" xml:space="preserve">
<polygon style="fill:#F5F7FA;" points="496.617,289.308 351.961,141.998 333.963,141.998 318.637,139.998 302.639,120 
	219.305,68.006 113.989,53.352 63.323,64.679 63.323,80.005 184.653,114.002 262.644,164.668 241.302,192.664 239.302,213.334 
	178.653,225.988 167.311,244.564 189.98,252.657 181.981,275.982 75.992,459.304 247.301,459.304 305.294,337.32 473.276,349.974 
	502.617,321.32 "/>
<polygon style="fill:#FFCE54;" points="162.483,58.992 100.991,58.992 53.994,64.991 45.996,78.49 205.978,112.486 222.476,75.99 
	"/>
<path d="M351.961,223.222c-5.89,0-10.671,4.781-10.671,10.688c0,5.873,4.781,10.654,10.671,10.654s10.671-4.781,10.671-10.654
	C362.632,228.004,357.851,223.222,351.961,223.222z"/>
<path d="M511.943,308.65v-18.139c0-2.672-1-5.232-2.78-7.186l-77.569-85.037c-0.188-0.203-0.375-0.406-0.563-0.578l-71.742-67.727
	c-2.484-2.344-5.937-3.359-9.295-2.734l-25.326,4.749c-12.123-15.014-31.824-35.168-60.508-52.541
	c-30.747-18.623-65.524-30.153-103.349-34.309c-10.686-1.172-21.606-1.75-32.777-1.734c-0.391-0.016-0.797-0.016-1.188,0.016
	C89.412,43.602,49.403,50.398,7.438,63.74c-5.047,1.625-8.155,6.687-7.296,11.905s5.405,9.046,10.718,8.937
	c0.438,0,45.166-0.656,98.629,11.812c31.23,7.28,59.135,17.53,82.975,30.481c22.373,12.17,41.168,26.73,56.088,43.479
	c-5.921,6.109-14.576,16.718-28.152,35.871l-70.758,17.311c-4.172,1.031-7.328,4.438-8,8.688c-0.672,4.233,1.25,8.467,4.906,10.732
	c0.688,0.438,15.576,9.608,37.824,16.732c-10.702,16.451-22.482,34.934-35.262,55.354c-43.105,68.852-83.225,136.719-83.631,137.406
	c-1.953,3.297-1.984,7.373-0.078,10.717c1.89,3.313,5.421,5.375,9.264,5.375h170.636c4.031,0,7.703-2.266,9.516-5.844
	l59.853-118.205c26.152,4.766,109.174,19.357,143.093,19.357l0,0c6.108,0,10.499-0.453,13.795-1.422
	c25.06-7.328,38.105-26.934,38.651-27.762c1.125-1.734,1.734-3.766,1.734-5.828v-20.124
	C511.943,308.697,511.943,308.681,511.943,308.65z M197.51,105.424c-6.358-3.281-12.951-6.405-19.795-9.342l8.484-25.122
	c7.998,1.812,15.842,4,23.465,6.593L197.51,105.424z M164.967,67.147l-7.141,21.154c-9.014-3.203-18.372-6.124-28.043-8.78
	l5.219-14.686c7.701,0.156,15.264,0.641,22.699,1.438C160.139,66.522,162.561,66.834,164.967,67.147z M112.239,65.179l-3.266,9.218
	c-10.701-2.359-20.981-4.218-30.59-5.687C89.897,66.928,101.193,65.772,112.239,65.179z M465.574,341.958
	c-0.328,0.094-2.203,0.578-7.812,0.563c-37.684,0-145.952-20.232-147.046-20.436c-0.047-0.016-0.094-0.016-0.156-0.031
	c-0.031,0-0.078-0.016-0.109-0.031c-0.172-0.016-16.186-2.686-39.652-12.623c-5.421-2.297-11.686,0.234-13.982,5.656
	c-2.296,5.438,0.234,11.686,5.656,13.982c12.42,5.266,22.935,8.67,30.637,10.811l-54.353,107.348H93.412
	c14.404-24.09,43.198-71.961,73.492-120.393c14.436-23.061,27.559-43.619,39.308-61.555c9.64,1.813,19.076,2.703,28.263,2.703
	c20.92,0,40.464-4.688,57.774-13.999c5.188-2.796,7.124-9.265,4.344-14.452c-2.797-5.186-9.266-7.123-14.452-4.343
	c-23.591,12.702-51.463,14.937-82.834,6.671c-5.453-1.438-10.546-3.077-15.154-4.765l95.88-23.466
	c5.718-1.406,9.217-7.188,7.826-12.905c-1.406-5.718-7.186-9.218-12.904-7.812l-22.169,5.422c3.89-4.984,6.858-8.516,9.108-11.016
	c2.094,2.563,5.155,3.938,8.279,3.938c2.094,0,4.203-0.594,6.047-1.875c4.844-3.343,6.062-9.998,2.719-14.842
	c-15.67-22.669-36.746-42.308-62.774-58.493l13.373-30.668c7.781,3.484,15.326,7.421,22.607,11.764
	c47.979,28.716,68.882,66.79,69.085,67.165c2.781,5.187,9.234,7.139,14.421,4.374c5.202-2.766,7.155-9.233,4.39-14.421
	c-0.141-0.25-0.719-1.344-1.766-3.077l10.313-1.938l67.508,63.728l74.522,81.708v0.656l-23.528-5.172
	c-5.75-1.266-11.437,2.391-12.702,8.141c-1.265,5.748,2.375,11.436,8.124,12.686l28.106,6.172v8.107
	C487.134,329.398,478.572,338.146,465.574,341.958z"/>
<g>
</g>
<g>
</g>
<g>
</g>
<g>
</g>
<g>
</g>
<g>
</g>
<g>
</g>
<g>
</g>
<g>
</g>
<g>
</g>
<g>
</g>
<g>
</g>
<g>
</g>
<g>
</g>
<g>
</g>
</svg>
