<?xml version="1.0" encoding="iso-8859-1"?>
<!-- Generator: Adobe Illustrator 19.0.0, SVG Export Plug-In . SVG Version: 6.00 Build 0)  -->
<svg version="1.1" id="Layer_1" xmlns="http://www.w3.org/2000/svg" xmlns:xlink="http://www.w3.org/1999/xlink" x="0px" y="0px"
	 viewBox="0 0 511.94 511.94" style="enable-background:new 0 0 511.94 511.94;" xml:space="preserve">
<path style="fill:#656D78;" d="M489.953,249.313l-15.342-24.075l-9.999-17.248l-53.322-32.012l19.998-48.651l-29.309-25.997
	l-44.684-56.01l-86.662-22.652H231.31l-55.76,18.653L98.654,93.987l-69.32,99.317l-17.326,31.934l179.308,260.721l101.988-99.99
	h178.651l25.325-19.34c0,0,2.016-53.322,2.672-55.322S489.953,249.313,489.953,249.313z"/>
<path d="M507.873,255.906c-6.015-14.842-16.904-23.419-23.966-27.684l-0.359-15.42c-0.078-3.547-1.922-6.828-4.922-8.734
	l-50.072-32.027c2.016-4.313,4.484-9.843,6.813-15.607c8.732-21.67,10.029-32.871,4.593-39.918
	c-6.062-7.889-23.138-17.342-32.028-21.935c-3.421-7.687-12.342-24.31-30.887-40.729c-14.264-12.64-31.402-22.67-50.916-29.841
	c-24.013-8.827-51.744-13.295-82.397-13.295h-0.328c-34.355,0.031-80.865,20.81-124.423,55.618
	c-23.497,18.779-45.261,40.746-64.665,65.32c-21.388,27.076-39.339,56.635-53.384,87.881c-1.5,3.344-1.172,7.234,0.859,10.281
	l177.994,266.673c1.781,2.656,4.64,4.375,7.827,4.688c0.344,0.047,0.703,0.047,1.047,0.047c2.812,0,5.53-1.109,7.53-3.109
	l103.16-103.02c15.218,1.281,62.478,4.953,105.41,4.953l0,0c63.853,0,79.851-7.938,86.646-14.844
	c22.153-22.496,18.591-56.273,17.154-65.273C510.216,310.463,515.622,275.045,507.873,255.906z M476.204,370.237
	c-0.843,0.875-10.107,8.469-71.444,8.469c-47.729,0-101.067-4.625-107.753-5.219c-10.578-2.469-37.715-9.248-47.933-14.092
	c-0.797-0.688-6.327-6.125-16.154-33.418c-5.641-15.701-9.749-30.465-9.796-30.605c-1.578-5.688-7.452-9-13.124-7.438
	c-5.687,1.578-8.999,7.453-7.437,13.123c0.188,0.688,4.641,16.623,10.843,33.684c12.124,33.277,20.014,40.777,26.138,43.746
	c8.046,3.891,22.826,8.186,34.855,11.373l-84.084,83.975L22.834,222.941c57.447-122.892,166.232-190.853,220.584-190.9h0.313
	c27.747,0,52.683,3.922,74.133,11.671c16.936,6.093,31.763,14.592,44.058,25.247c20.936,18.139,27.48,36.59,27.527,36.715
	c0.906,2.703,2.844,4.937,5.391,6.187c10.233,5.062,22.607,12.374,27.028,16.42c-0.547,6.624-7.858,25.669-16.545,42.823
	c-2.469,4.891-0.844,10.858,3.765,13.811l53.26,34.059l0.125,5.156h-17.404c-5.89,0-10.67,4.781-10.67,10.654
	c0,5.906,4.78,10.688,10.67,10.688h26.013c3.516,1.781,12.515,7.311,17.015,18.436c3.999,9.857,2.546,31.809,0.296,47.15
	c-12.14,2.391-38.917,6.123-61.774-1.297c-5.608-1.828-11.623,1.234-13.436,6.842c-1.828,5.609,1.234,11.625,6.843,13.453
	c12.515,4.061,25.7,5.404,37.715,5.404c11.983,0,22.794-1.344,30.543-2.686C488.532,343.334,486.876,359.41,476.204,370.237z"/>
<path d="M204.142,229.879c-0.063,0.047-5.733,3.296-13.279,5.232c-8.874,2.266-16.202,1.781-21.779-1.437
	c-11.015-6.358-16.826-24.481-16.826-52.447c0-7.374,2.063-12.687,6.327-16.217c9.827-8.124,29.481-6.577,36.246-5.296
	c5.78,1.109,11.358-2.672,12.483-8.438c1.125-5.796-2.641-11.389-8.437-12.514c-3.469-0.672-34.527-6.141-53.822,9.779
	c-6.452,5.313-14.139,15.28-14.139,32.685c0,36.62,9.295,60.509,27.621,70.991c7.187,4.125,14.812,5.594,22.045,5.594
	c17.873,0,33.434-8.968,34.34-9.515c5.077-2.983,6.796-9.53,3.796-14.607C215.75,228.613,209.219,226.91,204.142,229.879z"/>
<path d="M391.323,159.902c-5.89,0-10.67,4.78-10.67,10.67c0,5.891,4.78,10.655,10.67,10.655c5.891,0,10.656-4.765,10.656-10.655
	C401.98,164.682,397.214,159.902,391.323,159.902z"/>
<path d="M188.988,191.898c5.733-0.172,10.343-4.891,10.343-10.671c0-5.874-4.781-10.655-10.671-10.655
	c-10.921,0-20.467,8.968-22.686,21.342c-1.952,10.811,2.25,25.855,20.482,32.652c1.234,0.469,2.484,0.672,3.719,0.672
	c4.327,0,8.405-2.641,9.998-6.953c2.063-5.514-0.749-11.654-6.265-13.717c-4.562-1.688-6.937-4.156-7.062-7.343
	C186.753,194.554,188.222,192.414,188.988,191.898z"/>
<g>
</g>
<g>
</g>
<g>
</g>
<g>
</g>
<g>
</g>
<g>
</g>
<g>
</g>
<g>
</g>
<g>
</g>
<g>
</g>
<g>
</g>
<g>
</g>
<g>
</g>
<g>
</g>
<g>
</g>
</svg>
