<?xml version="1.0" encoding="iso-8859-1"?>
<!-- Generator: Adobe Illustrator 19.0.0, SVG Export Plug-In . SVG Version: 6.00 Build 0)  -->
<svg version="1.1" id="Layer_1" xmlns="http://www.w3.org/2000/svg" xmlns:xlink="http://www.w3.org/1999/xlink" x="0px" y="0px"
	 viewBox="0 0 511.94 511.94" style="enable-background:new 0 0 511.94 511.94;" xml:space="preserve">
<path style="fill:#ED5564;" d="M425.442,40.496c-1.5-1-20.997-24.498-22.997-24.998c-1.999-0.5-31.996,0-31.996,0l-13,24.998
	l-6.998,15.998l3.499,19.498l10.499,30.497l12.998,40.496l18.998,34.324l-8.499,18.67l-28.997,18.998l-32.996,8.499l-8.499-20.998
	l-47.925-59.993l-19.06-5.5c0,0-23.997,27.497-28.497,28.497c-4.499,1-22.497,45.995-22.497,45.995l-14.498,5.5l-55.994-10.999
	l-17.998-28.668l37.996-70.32l7.499-45.995l-4.999-40.496l-14.998-17.5c0,0-20.497,5.5-23.497,6S85.489,36.996,82.49,38.996
	c-3,2-16.498,45.495-16.498,45.495l10.498,47.495l10.999,70.648l18.998,35.34l78.991,22.498l17.998,33.496l12.498,59.993l2,61.493
	l3,41.995l-23.998,25.997l3,14.498h72.983h47.994l-1.999-17.498l-19.498-31.496l22.497-189.479h23.498l72.492-29.997l21.497-54.494
	l6.499-87.99C445.94,86.991,426.942,41.495,425.442,40.496z"/>
<path d="M237.534,202.634c5.89,0,10.67-4.765,10.67-10.655s-4.78-10.67-10.67-10.67c-5.891,0-10.655,4.781-10.655,10.67
	C226.879,197.868,231.644,202.634,237.534,202.634z"/>
<path d="M280.209,202.634c5.873,0,10.654-4.765,10.654-10.655s-4.781-10.67-10.654-10.67c-5.906,0-10.68,4.781-10.68,10.67
	C269.53,197.868,274.303,202.634,280.209,202.634z"/>
<path d="M437.659,35.653C412.631,1,370.605,0,365.887,0c-0.406,0-0.625,0-0.625,0c-3.938,0.125-7.531,2.39-9.281,5.906
	c-1.374,2.75-32.746,66.93-0.938,105.988c3.344,9.937,16.062,45.463,33.935,66.477c-1.531,5.983-5.249,16.654-13.624,22.763
	c-8.717,6.375-30.652,10.155-46.869,11.608c-5.5-17.795-15.436-35.293-29.527-51.697c-3.375-3.938-6.719-7.531-9.969-10.765
	l43.527-92.411c2.499-5.328,0.219-11.687-5.094-14.186c-5.344-2.516-11.686-0.234-14.217,5.093l-40.809,86.662
	c-4.429-3.531-7.319-5.484-7.616-5.671c-3.577-2.375-8.249-2.375-11.826,0c-0.359,0.25-4.844,3.25-11.358,8.718l-36.855-89.24
	c-2.249-5.437-8.499-8.031-13.936-5.781c-5.437,2.25-8.03,8.499-5.78,13.936l39.964,96.739c-2.047,2.156-4.124,4.468-6.218,6.906
	c-14.187,16.545-24.169,34.184-29.653,52.119c-16.264-0.968-42.714-4.843-52.541-12.03c-8.358-6.108-12.107-16.748-13.623-22.763
	c17.889-21.014,30.59-56.541,33.918-66.477c31.84-39.058,0.453-103.238-0.922-105.988C154.2,2.39,150.592,0.125,146.654,0
	c0,0-0.203,0-0.625,0c-4.702,0-46.744,1-71.741,35.652c-23.326,32.34-24.061,82.225-2.234,148.295
	c0.766,3.937,4.577,22.185,13.639,44.104c5.484,13.233,23.686,24.763,57.291,36.309c19.2,6.592,37.261,10.982,42.87,12.279
	c0.828,7.812,1.905,15.154,3.14,21.982h-12.936l-40.402-20.186c-5.265-2.656-11.67-0.5-14.311,4.749
	c-2.641,5.28-0.5,11.687,4.766,14.312l42.667,21.341c1.483,0.734,3.108,1.125,4.765,1.125h20.186
	c2.218,8.468,4.546,15.623,6.593,21.325h-24.263l-40.402-20.201c-5.265-2.624-11.67-0.5-14.311,4.781
	c-2.641,5.25-0.5,11.655,4.766,14.295l42.667,21.326c1.483,0.75,3.108,1.125,4.765,1.125h31.996v94.927
	c-17.217,8.187-21.356,20.044-21.356,29.513c0,13.732,11.967,24.887,26.669,24.887c4.202,0,8.312-0.938,12.014-2.655
	c3.688,1.718,7.796,2.655,11.999,2.655c4.202,0,8.312-0.938,11.999-2.655c3.702,1.718,7.812,2.655,12.014,2.655
	c4.203,0,8.312-0.938,11.998-2.655c3.68,1.718,7.805,2.655,11.991,2.655c4.218,0,8.343-0.938,12.03-2.655
	c3.688,1.718,7.78,2.655,11.998,2.655c14.686,0,26.653-11.154,26.653-24.887c0-9.469-4.124-21.326-21.341-29.513v-94.927h31.996
	c1.656,0,3.281-0.375,4.75-1.125l42.682-21.326c5.25-2.64,7.406-9.045,4.75-14.295c-2.625-5.281-9.03-7.405-14.311-4.781
	l-40.402,20.201h-24.247c2.063-5.702,4.374-12.857,6.593-21.325h20.186c1.656,0,3.281-0.391,4.75-1.125l42.682-21.341
	c5.25-2.625,7.406-9.031,4.75-14.312c-2.625-5.249-9.03-7.405-14.311-4.749l-40.402,20.186h-12.936
	c1.313-7.25,2.469-15.077,3.313-23.42c8.279-2.078,22.247-5.828,36.901-10.842c33.621-11.546,51.807-23.076,57.274-36.309
	c9.063-21.919,12.874-40.167,13.655-44.104C461.719,117.878,460.969,67.992,437.659,35.653z M372.541,99.552
	c-6.748-7.671-13.654-22.466-8.623-49.588c7.53,25.622,16.404,43.636,26.277,53.557c2.094,2.093,4.813,3.125,7.563,3.125
	c2.719,0,5.437-1.031,7.53-3.109c4.155-4.171,4.187-10.921,0.031-15.077c-12.28-12.28-21.653-44.463-26.466-65.695
	c11.967,2.375,29.434,8.671,41.495,25.388c8.374,11.577,13.03,26.794,13.874,45.213c1,21.529-3.188,47.495-12.468,77.272H411.38
	c-1.031-0.765-2.063-1.671-3.094-2.687c-0.156-0.156-0.313-0.281-0.438-0.438c-13.311-13.342-26.934-44.932-33.152-64.18
	C374.229,101.926,373.51,100.645,372.541,99.552z M291.989,347.18c-0.031,0.063-0.031,0.125-0.063,0.188
	c-0.125,0.266-0.25,0.531-0.344,0.797c-0.063,0.109-0.094,0.203-0.125,0.313c-0.094,0.266-0.156,0.547-0.25,0.828
	c-0.031,0.094-0.063,0.203-0.063,0.313c-0.063,0.281-0.125,0.578-0.156,0.875c-0.031,0.094-0.031,0.187-0.063,0.28
	c-0.031,0.406-0.063,0.781-0.063,1.188v10.655h-10.653c-5.906,0-10.68,4.781-10.68,10.67c0,5.891,4.773,10.672,10.68,10.672h10.654
	v21.325h-10.654c-5.906,0-10.68,4.78-10.68,10.671c0,5.89,4.773,10.654,10.68,10.654h10.654v24.279
	c-13.561-2.625-26.645-2.938-31.988-2.938c-5.343,0-18.451,0.313-31.996,2.938v-24.279h10.655c5.89,0,10.67-4.765,10.67-10.654
	c0-5.891-4.78-10.671-10.67-10.671h-10.655v-21.325h10.655c5.89,0,10.67-4.781,10.67-10.672c0-5.889-4.78-10.67-10.67-10.67h-10.655
	v-10.655c0-0.406-0.031-0.781-0.078-1.188c0-0.094-0.031-0.187-0.047-0.28c-0.031-0.297-0.078-0.594-0.141-0.875
	c-0.031-0.109-0.063-0.219-0.094-0.313c-0.063-0.281-0.141-0.563-0.234-0.813c-0.047-0.125-0.078-0.219-0.125-0.328
	c-0.094-0.266-0.203-0.531-0.328-0.797c-0.031-0.063-0.047-0.125-0.078-0.188c-0.188-0.359-17.076-34.746-19.826-87.443
	c12.39,3.172,31.481,6.89,52.947,6.89c21.459,0,40.55-3.718,52.955-6.89c-0.094,1.688-0.219,3.359-0.313,5.015
	c-0.125,0.688-0.188,1.422-0.156,2.156C307.518,315.309,292.176,346.836,291.989,347.18z M234.597,175.355
	c9.187-10.78,18.467-18.81,24.278-23.419c14.178,11.217,49.111,42.964,52.955,85.662c-10.28,2.968-30.34,7.702-52.955,7.702
	c-22.638,0-42.683-4.734-52.979-7.702C207.772,216.46,217.411,195.556,234.597,175.355z M77.693,93.365
	c0.859-18.419,5.531-33.637,13.89-45.213c12.045-16.717,29.543-23.013,41.511-25.388c-4.813,21.232-14.187,53.384-26.466,65.695
	c-4.156,4.156-4.156,10.905,0.016,15.077c2.078,2.078,4.812,3.109,7.53,3.109c2.734,0,5.468-1.031,7.546-3.125
	c9.905-9.921,18.748-27.935,26.31-53.557c5.015,27.091-1.875,41.902-8.64,49.588c-0.969,1.094-1.703,2.375-2.156,3.781
	c-6.171,19.186-19.731,50.635-33.012,64.071c-0.203,0.188-0.406,0.391-0.594,0.578c-1.031,1-2.047,1.906-3.062,2.656h-10.39
	C80.896,140.859,76.708,114.893,77.693,93.365z M149.919,244.191c-38.23-13.124-43.792-22.544-44.511-24.294
	c-4.452-10.765-7.53-20.623-9.515-27.919h7.843c0.391,0,0.781-0.031,1.172-0.063c3.281,8.64,9.062,19.123,19.092,26.45
	c15.467,11.296,47.057,14.858,60.806,15.889c-0.391,3.687-0.594,7.374-0.594,11.045c0,3.046,0.047,6.062,0.141,9.015
	C176.369,252.315,163.323,248.784,149.919,244.191z M306.893,490.601c-1.781,0-3.375-0.594-4.437-1.656
	c-2-2.03-4.718-3.155-7.562-3.155s-5.563,1.125-7.594,3.155c-1.031,1.063-2.655,1.656-4.437,1.656c-1.749,0-3.374-0.594-4.405-1.656
	c-2.031-2.03-4.75-3.155-7.586-3.155c-2.843,0-5.562,1.125-7.561,3.155c-1.063,1.063-2.672,1.656-4.438,1.656
	s-3.39-0.594-4.437-1.656c-2-2.03-4.734-3.155-7.577-3.155c-2.844,0-5.563,1.125-7.563,3.155c-1.062,1.063-2.671,1.656-4.437,1.656
	s-3.391-0.594-4.438-1.656c-1.999-2.03-4.718-3.155-7.562-3.155c-2.843,0-5.577,1.125-7.577,3.155
	c-1.047,1.063-2.671,1.656-4.437,1.656c-3.047,0-5.344-1.875-5.344-3.546c0-11.547,27.497-17.764,53.369-17.764
	c4.031,0,18.209,0.219,31.395,3.28c8.219,1.875,21.967,6.28,21.967,14.483C312.237,488.726,309.955,490.601,306.893,490.601z
	 M362.168,244.129c-10.53,3.625-20.873,6.593-28.747,8.687c0.063-2.468,0.094-4.968,0.094-7.515c0-3.843-0.218-7.702-0.624-11.545
	c15.436-1.531,41.463-5.468,55.056-15.389c10.03-7.327,15.811-17.811,19.06-26.45c0.406,0.031,0.781,0.063,1.188,0.063h7.844
	c-2,7.296-5.063,17.154-9.53,27.919C405.788,221.647,400.258,231.036,362.168,244.129z"/>
<g>
</g>
<g>
</g>
<g>
</g>
<g>
</g>
<g>
</g>
<g>
</g>
<g>
</g>
<g>
</g>
<g>
</g>
<g>
</g>
<g>
</g>
<g>
</g>
<g>
</g>
<g>
</g>
<g>
</g>
</svg>
