<?xml version="1.0" encoding="iso-8859-1"?>
<!-- Generator: Adobe Illustrator 19.0.0, SVG Export Plug-In . SVG Version: 6.00 Build 0)  -->
<svg version="1.1" id="Layer_1" xmlns="http://www.w3.org/2000/svg" xmlns:xlink="http://www.w3.org/1999/xlink" x="0px" y="0px"
	 viewBox="0 0 511.942 511.942" style="enable-background:new 0 0 511.942 511.942;" xml:space="preserve">
<path style="fill:#AC92EB;" d="M341.091,129.986c0,0-60.117-19.998-65.617-21.998h-39.003l-65.61,21.998l-16.873,31.996v333.962
	l187.104,8l20.873-12.999l5-332.962L341.091,129.986z"/>
<rect x="181.322" y="247.471" style="fill:#EC87C0;" width="149.3" height="164.48"/>
<polygon style="fill:#656D78;" points="302.315,51.994 292.316,20.67 249.641,12.327 226.643,14.327 204.982,52.666 
	207.318,107.988 303.97,107.988 "/>
<path style="fill:#F5F7FA;" d="M272.63,352.054c0,9.983-8.092,18.076-18.076,18.076c-9.991,0-18.084-8.093-18.084-18.076
	c0-9.999,8.093-18.092,18.084-18.092C264.538,333.962,272.63,342.055,272.63,352.054z"/>
<path d="M372.915,156.108c-0.609-1.656-6.545-16.451-24.105-31.2c-6.938-5.843-16.373-12.17-28.841-17.451V63.993
	C319.969,28.653,291.316,0,255.975,0c-35.339,0-63.993,28.653-63.993,63.993c0,0.016,0,0.031,0,0.031v43.433
	c-12.459,5.281-21.912,11.608-28.848,17.451c-17.545,14.749-23.481,29.543-24.099,31.2c-0.477,1.234-0.711,2.546-0.711,3.875
	v330.306c0,11.937,8.921,21.653,19.88,21.653h195.541c10.968,0,19.872-9.717,19.872-21.653V159.982
	C373.618,158.654,373.4,157.342,372.915,156.108z M213.317,64.024v-0.156c0.063-23.466,19.178-42.526,42.659-42.526
	c23.529,0,42.652,19.123,42.652,42.651v36.48c-12.156-2.969-26.311-4.812-42.652-4.812c-3.671,0-7.218,0.109-10.663,0.281v-31.95
	c0-5.89-4.781-10.655-10.671-10.655s-10.663,4.765-10.663,10.655v34.277c-3.71,0.625-7.265,1.375-10.663,2.203L213.317,64.024
	L213.317,64.024z M351.621,489.945h-20.997c-0.188-5.733-4.875-10.327-10.655-10.327s-10.468,4.594-10.655,10.327h-21.357
	c-0.172-5.733-4.874-10.327-10.639-10.327c-5.789,0-10.483,4.594-10.655,10.327H245.29c-0.172-5.733-4.867-10.327-10.647-10.327
	c-5.772,0-10.467,4.594-10.647,10.327H202.63c-0.18-5.733-4.867-10.327-10.647-10.327s-10.467,4.594-10.647,10.327h-21.013v-327.62
	c3.984-8.093,25.911-44.667,95.653-44.667c32.121,0,58.979,8.03,77.663,23.231c10.921,8.905,16.202,17.904,17.982,21.482
	L351.621,489.945L351.621,489.945z"/>
<path d="M330.437,234.645H181.524c-5.89,0-10.663,4.765-10.663,10.671v170.637c0,5.905,4.773,10.67,10.663,10.67h148.913
	c5.874,0,10.654-4.765,10.654-10.67V245.316C341.091,239.41,336.311,234.645,330.437,234.645z M319.766,405.298H192.194V255.971
	h127.572V405.298z"/>
<path d="M255.976,319.964c-17.646,0-31.996,14.357-31.996,31.996c0,17.654,14.35,31.997,31.996,31.997
	c17.654,0,31.996-14.343,31.996-31.997C287.972,334.322,273.63,319.964,255.976,319.964z M255.976,362.631
	c-5.882,0-10.663-4.797-10.663-10.671s4.781-10.655,10.663-10.655c5.883,0,10.663,4.781,10.663,10.655
	S261.859,362.631,255.976,362.631z"/>
<path d="M255.976,309.309c5.891,0,10.663-4.781,10.663-10.67c0-5.891-4.772-10.672-10.663-10.672
	c-5.89,0-10.663,4.781-10.663,10.672C245.313,304.528,250.086,309.309,255.976,309.309z"/>
<path d="M233.346,318.683c4.164-4.171,4.164-10.921,0-15.093c-4.164-4.155-10.921-4.155-15.084,0
	c-4.164,4.172-4.164,10.922,0,15.093C222.425,322.838,229.182,322.838,233.346,318.683z"/>
<path d="M293.691,318.683c4.156-4.171,4.156-10.921,0-15.093c-4.156-4.155-10.921-4.155-15.092,0
	c-4.156,4.172-4.156,10.922,0,15.093C282.77,322.838,289.535,322.838,293.691,318.683z"/>
<path d="M191.983,191.978h127.986c5.89,0,10.655-4.781,10.655-10.655c0-5.906-4.766-10.671-10.655-10.671H191.983
	c-5.89,0-10.663,4.765-10.663,10.671C181.321,187.198,186.094,191.978,191.983,191.978z"/>
<g>
</g>
<g>
</g>
<g>
</g>
<g>
</g>
<g>
</g>
<g>
</g>
<g>
</g>
<g>
</g>
<g>
</g>
<g>
</g>
<g>
</g>
<g>
</g>
<g>
</g>
<g>
</g>
<g>
</g>
</svg>
