<?xml version="1.0" encoding="iso-8859-1"?>
<!-- Generator: Adobe Illustrator 19.0.0, SVG Export Plug-In . SVG Version: 6.00 Build 0)  -->
<svg version="1.1" id="Layer_1" xmlns="http://www.w3.org/2000/svg" xmlns:xlink="http://www.w3.org/1999/xlink" x="0px" y="0px"
	 viewBox="0 0 511.939 511.939" style="enable-background:new 0 0 511.939 511.939;" xml:space="preserve">
<path style="fill:#965353;" d="M379.952,287.904c0,15.046-57.307,27.248-127.994,27.248c-70.679,0-127.985-12.202-127.985-27.248
	c0-15.045,57.307-27.246,127.985-27.246C322.646,260.658,379.952,272.859,379.952,287.904z"/>
<path style="fill:#FC6E51;" d="M379.952,300.653l-55.994,14.499l-74.999,4.999c0,0-80.491-8.999-85.99-9.999
	c-5.5-1-38.996-12.998-38.996-12.998l-2.999,179.479l49.666,16.998l62.821,6h63.345c0,0,89.146-20.998,90.646-20.998
	s5.499-13.498,5.499-13.498v-174.48L379.952,300.653z"/>
<path style="fill:#F5F7FA;" d="M275.464,404.266c0,9.874-7.616,17.873-17.006,17.873s-16.998-7.999-16.998-17.873
	s7.608-17.873,16.998-17.873C267.848,386.393,275.464,394.392,275.464,404.266z"/>
<path style="fill:#E6E9ED;" d="M367.204,138.64c0,61.43-49.808,111.237-111.246,111.237c-61.431,0-111.237-49.807-111.237-111.237
	c0-61.431,49.807-111.237,111.237-111.237C317.397,27.403,367.204,77.209,367.204,138.64z"/>
<path d="M298.618,138.64c0-23.56-19.092-42.651-42.66-42.651c-23.56,0-42.651,19.091-42.651,42.651s19.092,42.667,42.651,42.667
	C279.527,181.307,298.618,162.199,298.618,138.64z M234.632,138.64c0-11.749,9.562-21.326,21.326-21.326s21.35,9.577,21.35,21.326
	c0,11.764-9.585,21.341-21.35,21.341S234.632,150.404,234.632,138.64z"/>
<path d="M341.3,138.64c0-47.12-38.214-85.318-85.342-85.318c-47.12,0-85.318,38.199-85.318,85.318s38.198,85.334,85.318,85.334
	C303.086,223.974,341.3,185.76,341.3,138.64z M191.965,138.64c0-35.277,28.716-63.993,63.993-63.993
	c35.285,0,64.001,28.715,64.001,63.993s-28.716,63.993-64.001,63.993C220.681,202.633,191.965,173.917,191.965,138.64z"/>
<path d="M405.293,287.966c0-15.811-30.091-29.605-74.772-36.979c0.313-2.281-0.094-4.687-1.313-6.843
	c-0.094-0.125-0.188-0.234-0.25-0.359c3.344-2.328,6.562-4.812,9.654-7.437c0.094,0.109,0.188,0.219,0.313,0.344
	c4.156,4.156,10.906,4.156,15.093,0c4.155-4.171,4.155-10.936,0-15.092c-0.125-0.109-0.25-0.203-0.344-0.312
	c2.624-3.094,5.093-6.312,7.437-9.655c0.125,0.078,0.219,0.156,0.344,0.234c5.125,2.953,11.623,1.203,14.592-3.89
	c2.938-5.109,1.188-11.624-3.906-14.577c-0.124-0.078-0.249-0.125-0.374-0.203c1.718-3.656,3.28-7.405,4.655-11.249
	c0.156,0.031,0.281,0.094,0.406,0.125c5.688,1.515,11.53-1.859,13.061-7.546c1.531-5.687-1.843-11.545-7.529-13.061
	c-0.156-0.047-0.281-0.047-0.438-0.078c0.719-3.984,1.25-8.015,1.594-12.092c0.125,0,0.281,0,0.438,0
	c5.873,0,10.654-4.765,10.654-10.655s-4.781-10.655-10.654-10.655c-0.156,0-0.313,0-0.438,0.016
	c-0.344-4.078-0.875-8.124-1.594-12.092c0.156-0.031,0.281-0.047,0.438-0.094c5.687-1.516,9.061-7.358,7.529-13.061
	c-1.53-5.687-7.373-9.062-13.061-7.546c-0.125,0.047-0.25,0.094-0.406,0.125c-1.375-3.843-2.938-7.593-4.655-11.249
	c0.125-0.063,0.25-0.125,0.374-0.188c5.094-2.968,6.844-9.467,3.906-14.576c-2.969-5.109-9.467-6.859-14.592-3.906
	c-0.125,0.078-0.219,0.156-0.344,0.234c-2.344-3.343-4.813-6.562-7.437-9.655c0.094-0.109,0.219-0.203,0.313-0.313
	c4.187-4.156,4.187-10.905,0.031-15.076c-4.187-4.171-10.937-4.171-15.093-0.016c-0.125,0.125-0.219,0.234-0.313,0.343
	c-3.093-2.625-6.311-5.093-9.654-7.437c0.063-0.125,0.156-0.234,0.219-0.359c2.969-5.109,1.219-11.624-3.875-14.576
	c-5.124-2.938-11.623-1.188-14.592,3.906c-0.063,0.125-0.125,0.25-0.188,0.375c-3.656-1.719-7.405-3.281-11.249-4.656
	c0.031-0.141,0.063-0.281,0.125-0.406c1.5-5.687-1.874-11.53-7.562-13.061s-11.529,1.843-13.061,7.53
	c-0.031,0.156-0.063,0.281-0.094,0.422c-3.969-0.703-7.992-1.234-12.069-1.578c0-0.141,0.016-0.281,0.016-0.437
	c0-5.89-4.78-10.655-10.671-10.655c-5.89,0-10.655,4.765-10.655,10.655c0,0.156,0.016,0.296,0.016,0.437
	c-4.093,0.344-8.124,0.875-12.092,1.578c-0.031-0.141-0.047-0.266-0.094-0.422c-1.516-5.687-7.358-9.062-13.062-7.53
	c-5.687,1.531-9.062,7.374-7.53,13.061c0.031,0.125,0.078,0.266,0.125,0.406c-3.844,1.375-7.608,2.937-11.265,4.656
	c-0.063-0.125-0.125-0.25-0.188-0.375c-2.952-5.093-9.483-6.843-14.576-3.906c-5.108,2.953-6.843,9.467-3.905,14.576
	c0.078,0.125,0.155,0.25,0.233,0.359c-3.343,2.344-6.562,4.812-9.654,7.437c-0.109-0.109-0.203-0.218-0.313-0.328
	c-4.156-4.171-10.905-4.171-15.077,0c-4.171,4.171-4.171,10.92,0,15.076c0.109,0.109,0.219,0.203,0.328,0.313
	c-2.624,3.093-5.093,6.312-7.421,9.655c-0.125-0.063-0.25-0.156-0.375-0.234c-5.093-2.953-11.623-1.203-14.561,3.906
	c-2.953,5.109-1.203,11.624,3.891,14.576c0.124,0.063,0.249,0.125,0.374,0.188c-1.718,3.656-3.28,7.406-4.671,11.249
	c-0.125-0.031-0.25-0.078-0.391-0.125c-5.687-1.516-11.53,1.859-13.061,7.546c-1.531,5.703,1.843,11.545,7.546,13.077
	c0.125,0.031,0.266,0.047,0.406,0.078c-0.703,3.968-1.234,8.015-1.563,12.092c-0.156-0.016-0.297-0.016-0.453-0.016
	c-5.89,0-10.655,4.765-10.655,10.655s4.766,10.655,10.655,10.67c0.156,0,0.297-0.016,0.453-0.016
	c0.328,4.078,0.859,8.108,1.563,12.092c-0.141,0.031-0.266,0.031-0.406,0.078c-5.703,1.516-9.077,7.375-7.546,13.061
	c1.53,5.687,7.374,9.062,13.061,7.546c0.141-0.031,0.266-0.094,0.391-0.125c1.391,3.843,2.953,7.593,4.671,11.249
	c-0.125,0.078-0.25,0.125-0.358,0.203c-5.109,2.953-6.859,9.468-3.906,14.577c2.938,5.093,9.452,6.843,14.561,3.906
	c0.125-0.094,0.25-0.172,0.375-0.25c2.328,3.343,4.797,6.562,7.421,9.655c-0.109,0.109-0.219,0.203-0.328,0.312
	c-4.171,4.156-4.171,10.921,0,15.092c4.172,4.156,10.921,4.156,15.077,0c0.109-0.125,0.203-0.234,0.313-0.344
	c3.093,2.625,6.312,5.109,9.654,7.437c-0.078,0.125-0.155,0.234-0.233,0.359c-1.234,2.156-1.641,4.562-1.313,6.843
	c-44.698,7.374-74.773,21.169-74.773,36.979l0,0l0,0v181.309c0,23.559,66.853,42.666,149.312,42.666
	c82.467,0,149.335-19.107,149.335-42.666V287.966L405.293,287.966L405.293,287.966z M383.952,436.013
	c-16.154,8.529-54.244,22.809-128.072,22.59c-32.152-0.094-90.739-3.218-127.907-22.746V309.933
	c26.138,12.404,73.663,20.686,127.985,20.686c54.314,0,101.871-8.281,127.994-20.686V436.013z M180.545,214.069
	c-20.139-20.154-31.231-46.932-31.231-75.429s11.093-55.275,31.231-75.414c20.138-20.138,46.932-31.23,75.413-31.23
	c28.505,0,55.283,11.092,75.406,31.23c20.153,20.139,31.246,46.917,31.246,75.414s-11.093,55.275-31.246,75.429
	c-20.123,20.139-46.901,31.231-75.406,31.231C227.477,245.3,200.683,234.207,180.545,214.069z M137.394,285.123
	c7.296-3.437,17.17-6.655,28.543-9.343c25.076-5.906,57.057-9.155,90.021-9.155c32.973,0,64.938,3.249,90.029,9.155
	c11.373,2.688,21.248,5.906,28.559,9.343c2.188,1.03,3.969,1.999,5.375,2.843c-1.406,0.844-3.188,1.797-5.375,2.844
	c-7.311,3.406-17.186,6.641-28.559,9.312c-25.092,5.905-57.057,9.171-90.029,9.171c-32.965,0-64.945-3.266-90.021-9.171
	c-11.373-2.671-21.247-5.905-28.543-9.312c-2.219-1.047-3.984-2-5.391-2.844C133.409,287.122,135.175,286.154,137.394,285.123z
	 M374.546,472.117c-7.311,3.421-17.186,6.64-28.559,9.327c-25.092,5.906-57.057,9.155-90.029,9.155
	c-32.965,0-64.945-3.249-90.021-9.155c-11.373-2.688-21.247-5.906-28.543-9.327c-5.391-2.53-8.14-4.577-9.421-5.702v-7.031
	c22.388,9.484,62.306,20.357,127.845,20.561c0.594,0,1.188,0,1.766,0c64.406,0,103.746-10.561,126.369-20.295v6.766
	C382.671,467.54,379.921,469.587,374.546,472.117z"/>
<path d="M255.958,373.284c-17.639,0-31.996,14.358-31.996,31.997s14.357,31.996,31.996,31.996c17.662,0,32.004-14.357,32.004-31.996
	S273.62,373.284,255.958,373.284z M255.958,415.952c-5.874,0-10.655-4.797-10.655-10.671c0-5.89,4.781-10.671,10.655-10.671
	c5.891,0,10.671,4.781,10.671,10.671C266.629,411.156,261.849,415.952,255.958,415.952z"/>
<path d="M245.303,351.959c0,5.874,4.766,10.655,10.655,10.655c5.891,0,10.671-4.781,10.671-10.655
	c0-5.905-4.78-10.671-10.671-10.671C250.069,341.288,245.303,346.054,245.303,351.959z"/>
<path d="M233.336,371.989c4.155-4.156,4.155-10.905,0-15.093c-4.172-4.155-10.921-4.155-15.093,0
	c-4.155,4.188-4.155,10.937,0,15.093C222.415,376.159,229.164,376.159,233.336,371.989z"/>
<path d="M293.681,371.989c4.156-4.156,4.156-10.905,0-15.093c-4.156-4.155-10.937-4.155-15.092,0
	c-4.156,4.188-4.156,10.937,0,15.093C282.744,376.159,289.525,376.159,293.681,371.989z"/>
<g>
</g>
<g>
</g>
<g>
</g>
<g>
</g>
<g>
</g>
<g>
</g>
<g>
</g>
<g>
</g>
<g>
</g>
<g>
</g>
<g>
</g>
<g>
</g>
<g>
</g>
<g>
</g>
<g>
</g>
</svg>
