<?xml version="1.0" encoding="iso-8859-1"?>
<!-- Generator: Adobe Illustrator 19.0.0, SVG Export Plug-In . SVG Version: 6.00 Build 0)  -->
<svg version="1.1" id="Layer_1" xmlns="http://www.w3.org/2000/svg" xmlns:xlink="http://www.w3.org/1999/xlink" x="0px" y="0px"
	 viewBox="0 0 511.941 511.941" style="enable-background:new 0 0 511.941 511.941;" xml:space="preserve">
<g>
	<polygon style="fill:#656D78;" points="111.994,173.978 151.99,198.975 151.99,173.978 	"/>
	<path style="fill:#656D78;" d="M105.994,337.959c1.5,0.5,40.496,0,40.496,0l5.499-21.498L105.994,337.959z"/>
	<polygon style="fill:#656D78;" points="324.962,235.971 306.964,225.472 306.964,283.965 317.963,283.965 334.961,269.967 
		334.961,253.469 	"/>
</g>
<path style="fill:#ED5564;" d="M294.466,210.474c-2-1-37.488-13.499-38.488-13.999c-1-0.5-43.995-9.999-43.995-9.999h-35.996
	l-35.496,29.497l-11.498,26.497l2.999,49.495l28.997,28.496l23.997,9l41.995-2.141l39.996-18.029l35.488-22.326l4.499-44.995
	C306.964,241.97,296.466,211.474,294.466,210.474z"/>
<path d="M507.942,492.942l-105.987-84.787l-99.271-110.064c2.155,0.344,4.374,0.531,6.624,0.531c10.78,0,20.654-4.031,28.153-10.656
	h14.498c5.905,0,10.655-4.781,10.655-10.67c0-5.891-4.75-10.672-10.655-10.672h-1.344c0.875-3.404,1.344-6.967,1.344-10.655
	c0-3.687-0.469-7.265-1.344-10.67h1.344c5.905,0,10.655-4.765,10.655-10.671c0-5.874-4.75-10.655-10.655-10.655h-14.498
	c-7.499-6.64-17.373-10.671-28.153-10.671c-2.25,0-4.469,0.188-6.624,0.516l99.271-110.05l105.987-84.771
	c4.593-3.688,5.343-10.405,1.656-14.999c-3.688-4.593-10.374-5.343-14.999-1.656L387.955,87.644
	c-0.438,0.375-0.875,0.765-1.25,1.187l-99.802,110.628c-2.374-1.797-4.843-3.531-7.436-5.234
	c-6.844-4.437-14.226-8.343-21.896-11.624l7.999-38.34l51.986-62.805c3.749-4.531,3.124-11.264-1.405-15.029
	c-4.531-3.75-11.25-3.125-15.03,1.421L247.447,132.7c-1.109,1.328-1.875,2.906-2.234,4.625l-7.952,38.183
	c-8.983-2.437-18.045-4-26.841-4.593l-18.997-56.978c-1.859-5.578-7.891-8.608-13.483-6.734c-5.593,1.844-8.608,7.89-6.749,13.483
	l16.982,50.947c-8.343,1.188-16.186,3.406-23.403,6.625l-5.828-12.218c-1.781-3.718-5.515-6.062-9.624-6.062H74.655
	c-1.656,0-3.281,0.375-4.765,1.125L5.897,193.101c-5.265,2.625-7.405,9.03-4.765,14.311c1.858,3.734,5.624,5.89,9.546,5.89
	c1.593,0,3.233-0.359,4.765-1.125l59.524-29.762l56.244,24.466c-9.03,13.905-13.89,30.872-13.89,49.088
	c0,18.202,4.859,35.184,13.89,49.073l-56.244,24.482l-59.524-29.779c-5.28-2.623-11.687-0.5-14.311,4.781
	c-2.641,5.266-0.5,11.672,4.765,14.311l63.993,31.996c1.468,0.734,3.093,1.125,4.749,1.125c0,0,0.016,0,0.031,0h0.047h74.601
	c4.109,0,7.843-2.373,9.624-6.061l5.828-12.219c7.218,3.219,15.061,5.438,23.403,6.625l-16.982,50.932
	c-1.859,5.594,1.156,11.639,6.749,13.498c1.125,0.375,2.25,0.547,3.375,0.547c4.468,0,8.624-2.828,10.108-7.295l18.997-56.963
	c8.812-0.594,17.889-2.172,26.872-4.625l8.249,39.09c0.359,1.703,1.125,3.281,2.234,4.625l53.314,63.992
	c2.125,2.531,5.155,3.844,8.218,3.844c2.406,0,4.813-0.813,6.813-2.469c4.529-3.781,5.154-10.498,1.374-15.029l-51.643-61.963
	l-8.249-39.166c7.655-3.297,15.021-7.188,21.865-11.625c2.593-1.701,5.062-3.436,7.436-5.232l99.802,110.627
	c0.375,0.422,0.813,0.828,1.25,1.188l106.644,85.318c1.969,1.578,4.344,2.344,6.656,2.344c3.156,0,6.249-1.375,8.343-4
	C513.284,503.332,512.534,496.629,507.942,492.942z M280.812,289.793c-0.125,0.109-0.219,0.234-0.344,0.344
	c-19.365,17.607-50.894,29.824-77.828,29.824c-19.451,0-35.793-6.404-47.244-18.529c-10.796-11.42-16.748-27.559-16.748-45.463
	c0-17.904,5.952-34.059,16.748-45.463c11.451-12.124,27.777-18.529,47.197-18.529h0.047c0.016,0,0.031,0,0.047,0
	c26.935,0,58.447,12.218,77.813,29.809c0.094,0.125,0.219,0.25,0.313,0.344s0.188,0.156,0.281,0.234
	c10.717,9.921,17.529,21.529,17.529,33.605c0,12.061-6.813,23.67-17.529,33.59C280.999,289.653,280.906,289.715,280.812,289.793z
	 M330.618,255.969c0,9.374-6.063,17.342-14.467,20.186c2.499-6.563,3.812-13.342,3.812-20.186c0-6.858-1.313-13.623-3.843-20.216
	C324.556,238.627,330.618,246.595,330.618,255.969z M146.553,189.586c-0.188,0.156-0.375,0.313-0.563,0.469l-20.107-8.749H142.6
	L146.553,189.586z M142.6,330.617h-16.717l20.107-8.75c0.188,0.156,0.375,0.313,0.563,0.469L142.6,330.617z"/>
<path d="M185.423,223.144c3.844-1.609,6.562-5.406,6.562-9.843c0-5.89-4.78-10.67-10.67-10.67c-1.438,0-2.813,0.297-4.063,0.813l0,0
	c-1.141,0.469-27.935,11.905-27.935,52.494c0,40.543,26.778,52.072,27.919,52.541c1.328,0.547,2.703,0.813,4.063,0.813
	c4.187,0,8.155-2.484,9.858-6.594c2.249-5.451-0.344-11.67-5.781-13.92c-0.156-0.063-14.732-6.813-14.732-32.84
	C170.644,231.159,183.923,223.879,185.423,223.144z"/>
<g>
</g>
<g>
</g>
<g>
</g>
<g>
</g>
<g>
</g>
<g>
</g>
<g>
</g>
<g>
</g>
<g>
</g>
<g>
</g>
<g>
</g>
<g>
</g>
<g>
</g>
<g>
</g>
<g>
</g>
</svg>
