<?xml version="1.0" encoding="iso-8859-1"?>
<!-- Generator: Adobe Illustrator 19.0.0, SVG Export Plug-In . SVG Version: 6.00 Build 0)  -->
<svg version="1.1" id="Layer_1" xmlns="http://www.w3.org/2000/svg" xmlns:xlink="http://www.w3.org/1999/xlink" x="0px" y="0px"
	 viewBox="0 0 511.935 511.935" style="enable-background:new 0 0 511.935 511.935;" xml:space="preserve">
<path style="fill:#FC6E51;" d="M421.954,423.945l-5.999-16.67l2.672-57.992l-9.328-28.654h17.311l72.68-30.668l-6-20.67
	l-17.342-3.327l-38.667,7.999v-33.996l32.669-8.671l15.998-5.999l7.342-15.327l-11.998-59.321l-50.666-43.339l-4.016-21.326
	l-12.654-40.667l-15.998,31.34l-13.998-8.671l-15.327-22.669c0,0-11.327,35.34-11.327,40.667s5.328,56.666,5.328,56.666
	l-9.999,49.229l-38.668,22.09l-33.996,28.669l-29.997,77.99l5.999,101.317l31.34,43.323l164.639,4.672l25.996-15.327l-4.655-21.341
	L421.954,423.945z"/>
<path style="fill:#E9573F;" d="M271.971,158.647l-35.324-66.664l-52.666-28.669c0,0-85.318,14.67-87.317,13.999
	c-2-0.672-57.994,27.341-57.994,27.341l-25.333,40.651l15.998-2.656l57.994-7.999l55.329,19.326l12.663,58.666
	c0,0-5.336,70.648-6,72.648c-0.664,1.999,0.664,115.331,0.664,115.331l26.669,37.995l49.994,21.997l45.323,4.656v-11.327
	l-25.997-123.985l25.997-93.318V158.647z"/>
<path d="M436.141,331.191c0.952,0,1.905-0.141,2.827-0.391c31.044-8.563,51.604-18.139,62.884-29.263
	c10.623-10.515,10.967-20.544,9.389-27.106c-1.827-7.53-6.42-13.279-13.295-16.639c-9.468-4.609-22.685-4.453-40.37,0.516
	c-4.53,1.25-8.718,2.672-12.187,3.953l1.594-17.061c8.405,0,19.779,0,23.686,0c10.123,0,28.434-9.077,34.059-18.732
	c2.671-4.593,3.843-10.311-5.438-41.933c-4.375-14.904-9.124-28.778-9.312-29.356c-0.313-0.875-0.719-1.703-1.25-2.484
	c-0.375-0.563-9.343-13.874-22.153-27.372c-6.781-7.14-13.357-12.983-19.717-17.529l-13.936-67.398
	c-0.641-3.047-2.563-5.656-5.281-7.171c-2.719-1.515-5.968-1.75-8.873-0.672c-13.765,5.109-22.092,15.936-27.123,27.216
	L383.194,38.6c-2.156-5.39-8.203-8.062-13.64-6.031c-4.358,1.625-18.92,9.89-23.372,47.635c-2.281,19.373,3.125,45.839,8.483,65.774
	l-11.671,37.652c-11.529,4.734-39.886,17.936-62.617,41.074c0.375-7.14,0.609-14.889,0.531-22.982
	c-0.438-50.275-11.672-88.662-33.388-114.143c-20.615-24.185-49.963-35.746-87.217-34.34c-31.309,1.156-59.118,6.593-82.654,16.17
	c-19.217,7.796-35.652,18.357-48.87,31.387c-22.997,22.636-28.3,45.103-28.511,46.056c-0.875,3.828,0.43,7.812,3.39,10.405
	c2.961,2.578,7.101,3.313,10.772,1.938c0.266-0.109,26.435-9.874,55.814-10.967c36.769-1.391,60.759,11.186,71.296,37.355
	c7.718,19.201,3.563,52.135-0.844,87.005c-7.265,57.525-15.498,122.705,22.123,165.388c24.966,28.31,65.898,42.073,125.149,42.073
	h170.637c1.938,0,3.813-0.516,5.469-1.516c2.703-1.609,26.388-16.357,26.466-36.887c0.016-3.077-0.844-7.607-5.062-11.857
	c-6.344-6.343-19.217-10.28-40.496-12.342c-6.14-0.594-12.061-0.953-16.936-1.156l6.406-50.447c0.203-0.641,0.344-1.297,0.438-1.969
	c1.625-12.702-0.469-23.826-6.25-33.168l6.781,0.453C435.672,331.175,435.891,331.191,436.141,331.191z M408.471,75.641
	c1.766-5.968,4.078-10.874,6.922-14.686l7.374,35.715c-2.25-0.406-4.468-0.625-6.624-0.625c-3.438,0-6.688,0.203-9.78,0.547
	l-1-2.547C405.534,90.702,406.175,83.39,408.471,75.641z M178.818,423.866c-31.246-35.448-23.653-95.566-16.959-148.623
	c4.765-37.683,9.257-73.273-0.531-97.614c-14.053-34.918-45.823-52.463-91.888-50.729c-14.577,0.546-28.31,2.953-39.176,5.499
	c3.492-5.359,8.202-11.358,14.499-17.389c11.271-10.827,25.372-19.654,41.909-26.247c21.021-8.374,46.064-13.155,74.421-14.217
	c30.824-1.156,53.775,7.624,70.172,26.84c42.3,49.588,25.192,151.655,23.271,162.232c-0.602,1.562-1.164,3.155-1.695,4.749
	c-10.662,32.59-15.936,63.743-15.678,92.552c0.211,23.342,4.031,45.245,11.366,65.086c4.897,13.233,10.726,23.811,16.084,31.841
	c-17.818-1.359-33.449-4.358-46.651-8.968C201.338,443.068,188.543,434.882,178.818,423.866z M396.895,307.224
	c-20.842-7.515-46.245-8.686-66.273-8.686c-5.891,0-10.655,4.764-10.655,10.67c0,5.875,4.765,10.655,10.655,10.655
	c26.121,0,46.213,2.624,60.117,7.843c0.031,0,0.063,0.016,0.094,0.031c7.578,2.844,13.312,6.468,17.17,10.842
	c5.078,5.75,6.953,13.14,5.734,22.576c-0.063,0.453-0.078,0.922-0.078,1.359h-0.297l-7.968,62.805
	c-0.391,3.063,0.594,6.125,2.624,8.406c2.016,2.313,4.953,3.624,8.016,3.624c0.016,0,0.016,0,0.016,0
	c1.328,0,13.311,0.031,26.434,1.281c16.498,1.563,23.561,3.968,26.311,5.296c-1.672,5.047-8,11.046-13.343,14.795H292.281
	c-11.576-12.248-56.611-69.273-19.154-183.713c16.139-49.354,81.413-73.007,82.053-73.257c3.188-1.109,5.656-3.671,6.656-6.89
	l4.938-15.952c1.874,1.469,4.202,2.297,6.623,2.297c1.188,0,2.422-0.203,3.609-0.641c5.547-2,8.421-8.093,6.422-13.655
	c-0.047-0.125-5-13.874-9.438-31.403c-5.749-22.591-8.029-40.839-6.623-52.806c0.874-7.406,2.14-13.124,3.499-17.467l13.921,34.824
	v0.016l21.231,53.087c2.187,5.468,8.39,8.14,13.857,5.953c5.468-2.187,8.14-8.39,5.952-13.858l-11.139-27.872
	c0.484,0,0.953,0,1.453,0c4.187,0,9.279,1.875,14.967,5.468c0.281,0.219,0.594,0.406,0.922,0.594
	c5.78,3.796,12.17,9.312,18.889,16.373c9.592,10.077,17.029,20.342,19.342,23.654c6.998,20.607,14.123,45.198,14.951,53.369
	c-3.281,2.843-11.374,6.874-14.545,7.03c-6.469,0-33.403,0-33.403,0c-5.499,0-10.093,4.187-10.593,9.671l-2.656,28.106
	l-27.059-5.563c-5.766-1.187-11.405,2.516-12.592,8.281c-1.188,5.779,2.53,11.404,8.279,12.592l45.339,9.342
	c2.219,0.453,4.515,0.188,6.562-0.749c0.094-0.031,8.5-3.827,18.779-6.718c17.154-4.797,23.686-2.641,25.278-1.859
	c0.984,0.469,1.547,0.984,1.906,2.484c0.531,2.188-1.688,4.968-3.655,6.904c-5.734,5.656-19.373,14.28-51.838,23.389
	L396.895,307.224z"/>
<path d="M437.28,191.878c5.89,0,10.671-4.78,10.671-10.67s-4.781-10.671-10.671-10.671s-10.671,4.781-10.671,10.671
	S431.391,191.878,437.28,191.878z"/>
<g>
</g>
<g>
</g>
<g>
</g>
<g>
</g>
<g>
</g>
<g>
</g>
<g>
</g>
<g>
</g>
<g>
</g>
<g>
</g>
<g>
</g>
<g>
</g>
<g>
</g>
<g>
</g>
<g>
</g>
</svg>
