<?xml version="1.0" encoding="iso-8859-1"?>
<!-- Generator: Adobe Illustrator 19.0.0, SVG Export Plug-In . SVG Version: 6.00 Build 0)  -->
<svg version="1.1" id="Layer_1" xmlns="http://www.w3.org/2000/svg" xmlns:xlink="http://www.w3.org/1999/xlink" x="0px" y="0px"
	 viewBox="0 0 511.992 511.992" style="enable-background:new 0 0 511.992 511.992;" xml:space="preserve">
<g>
	<polygon style="fill:#F5F7FA;" points="257.995,367.31 159.333,429.308 159.333,468.684 214.667,451.996 291.338,449.996 
		351.337,465.996 351.337,429.308 	"/>
	<polygon style="fill:#F5F7FA;" points="299.994,182.494 199.496,189.493 11,283.5 15.499,329.498 255.995,286 504.99,329.498 
		504.99,286 	"/>
</g>
<polygon style="fill:#4FC2E9;" points="291.994,64.027 275.339,37.356 249.331,34.028 231.331,46.684 214.667,86.683 
	223.503,468.684 287.51,468.684 296.666,117.354 "/>
<g>
	<path style="fill:#080808;" d="M286.823,92.229c-0.469-1.234-2.375-5.593-7.297-9.734c-4.25-3.562-11.867-7.828-24.016-7.828
		c-19.476,0-28.843,11.047-31.312,17.562c-2.086,5.516,0.695,11.672,6.203,13.75c5.359,2.016,11.328-0.547,13.57-5.766
		c0.375-0.656,2.82-4.219,11.539-4.219c8.711,0,11.156,3.562,11.539,4.219c1.719,4,5.633,6.453,9.789,6.453
		c1.25,0,2.531-0.219,3.781-0.688C286.12,103.901,288.9,97.745,286.823,92.229z"/>
	<path style="fill:#080808;" d="M506.146,278.5l-47.499-24.102v-6.062c0-5.906-4.766-10.672-10.656-10.672
		c-4.359,0-8.109,2.609-9.75,6.359l-43.593-22.093v-5.5c0-5.875-4.766-10.656-10.655-10.656c-4.188,0-7.781,2.406-9.531,5.906
		l-67.671-34.312c1.203-43.124,2.047-75.28,2.047-81.374c0-13.343-5.062-31.078-12.875-45.171
		c-10.562-19.015-24.929-29.484-40.452-29.484s-29.882,10.469-40.445,29.484c-7.828,14.093-12.89,31.828-12.89,45.171
		c0,6.125,0.852,38.5,2.07,81.842l-66.71,33.843c-1.75-3.5-5.359-5.906-9.539-5.906c-5.891,0-10.664,4.781-10.664,10.656v5.5
		l-43.577,22.093c-1.656-3.75-5.398-6.359-9.758-6.359c-5.89,0-10.664,4.766-10.664,10.672v6.062L5.844,278.5
		C2.258,280.312,0,283.969,0,288v42.654c0,3.219,1.445,6.25,3.938,8.281c1.914,1.562,4.297,2.406,6.727,2.406
		c0.727,0,1.453-0.094,2.171-0.219l194.958-40.561c0.805,27.311,1.602,54.123,2.32,78.061l-56.226,39.311
		c-2.859,1.969-4.555,5.25-4.555,8.719v42.688c0,3.438,1.656,6.656,4.453,8.656c1.836,1.312,4.008,2,6.211,2
		c1.148,0,2.305-0.188,3.429-0.562l49.21-16.688c0.109,3.594,0.18,5.969,0.211,6.906c0.172,5.75,4.898,10.344,10.664,10.344h21.335
		l0,0c0,5.906,4.773,10.656,10.664,10.656c5.891,0,10.664-4.75,10.664-10.656l0,0h21.335c5.766,0,10.484-4.594,10.672-10.344
		c0.016-0.969,0.094-3.469,0.219-7.25l50.155,17.031c1.125,0.375,2.281,0.562,3.438,0.562c2.203,0,4.375-0.688,6.219-2
		c2.781-2,4.438-5.219,4.438-8.656v-42.688c0-3.469-1.688-6.75-4.547-8.719l-57.171-39.998c0.703-23.812,1.5-50.438,2.297-77.561
		l195.918,40.748c0.719,0.125,1.453,0.219,2.188,0.219c2.422,0,4.812-0.844,6.719-2.406c2.5-2.031,3.938-5.062,3.938-8.281V288
		C511.99,283.969,509.74,280.312,506.146,278.5z M341.337,432.215v22.219l-41.343-14l1.062-36.373L341.337,432.215z M21.335,317.56
		v-22.998L204.91,201.43c0.695,24.296,1.469,50.843,2.25,77.476L21.335,317.56z M170.661,454.434v-22.219l40.218-28.123
		c0.414,13.904,0.781,26.217,1.086,36.342L170.661,454.434z M266.175,458.652v-53.311c0-5.906-4.773-10.688-10.664-10.688
		s-10.664,4.781-10.664,10.688v53.311h-10.984c-0.094-2.938-0.203-6.469-0.32-10.5c0-0.156,0.008-0.312,0.008-0.469l-1.867-63.998
		c-0.016-0.406-0.055-0.812-0.109-1.219c-3.156-105.654-8.062-272.19-8.062-286.472c0-18.015,14.484-53.327,32-53.327
		s31.999,35.312,31.999,53.327c0,18.875-8.577,304.315-10.358,362.657L266.175,458.652L266.175,458.652z M490.646,317.56
		l-186.777-38.842c0.781-26.758,1.562-53.414,2.25-77.788l184.527,93.632V317.56z"/>
</g>
<g>
</g>
<g>
</g>
<g>
</g>
<g>
</g>
<g>
</g>
<g>
</g>
<g>
</g>
<g>
</g>
<g>
</g>
<g>
</g>
<g>
</g>
<g>
</g>
<g>
</g>
<g>
</g>
<g>
</g>
</svg>
