<?xml version="1.0" encoding="iso-8859-1"?>
<!-- Generator: Adobe Illustrator 19.0.0, SVG Export Plug-In . SVG Version: 6.00 Build 0)  -->
<svg version="1.1" id="Layer_1" xmlns="http://www.w3.org/2000/svg" xmlns:xlink="http://www.w3.org/1999/xlink" x="0px" y="0px"
	 viewBox="0 0 511.991 511.991" style="enable-background:new 0 0 511.991 511.991;" xml:space="preserve">
<polygon style="fill:#5D9CEC;" points="495.334,234.933 468.663,219.339 47.999,219.339 47.999,250.542 12,250.542 12,314.773 
	36.671,330.665 61.999,336.117 167.996,336.117 188.668,336.117 499.334,332.665 "/>
<polygon style="fill:#ED5564;" points="34.999,215.495 14.499,242.745 44.749,247.245 44.749,219.339 "/>
<g>
	<path style="fill:#656D78;" d="M153.333,325.337c0,21.344-17.312,38.656-38.664,38.656c-21.359,0-38.671-17.312-38.671-38.656
		c0-21.357,17.312-38.67,38.671-38.67C136.021,286.667,153.333,303.979,153.333,325.337z"/>
	<path style="fill:#656D78;" d="M433.335,325.337c0,21.344-17.312,38.656-38.671,38.656s-38.671-17.312-38.671-38.656
		c0-21.357,17.312-38.67,38.671-38.67S433.335,303.979,433.335,325.337z"/>
</g>
<polygon style="fill:#4FC2E9;" points="362.649,197.668 322.649,168.668 270.659,146.669 218.66,144.669 166.661,153.325 
	124.662,166.996 80.998,209.324 88.998,216.995 365.337,216.995 "/>
<path d="M117.333,314.773c-5.89,0-10.671,4.781-10.671,10.656c0,5.906,4.781,10.688,10.671,10.688
	c5.891,0,10.664-4.781,10.664-10.688C127.997,319.556,123.224,314.773,117.333,314.773z"/>
<path d="M492.537,225.386c-18.483-16.937-50.515-17.453-113.216-17.468c-4.953-7.5-15.422-21.328-32.75-35.046
	c-22.844-18.093-62.654-39.655-122.576-39.655c-59.913,0-99.779,21.546-122.669,39.624c-17.375,13.719-27.882,27.546-32.859,35.031
	H31.999c-2.828,0-5.539,1.125-7.539,3.125L3.125,232.339c-2,2-3.125,4.719-3.125,7.531v74.904c0,2.969,1.242,5.812,3.422,7.844
	c2.648,2.438,26.546,23.938,49.71,23.938h15.226c8.188,18.938,27.054,32.219,48.976,32.219c21.914,0,40.781-13.281,48.976-32.219
	l179.372-0.031c8.188,18.969,27.062,32.25,48.968,32.25c21.937,0,40.796-13.281,48.983-32.25h57.702
	c5.875,0,10.656-4.75,10.656-10.656C511.99,274.182,511.99,243.214,492.537,225.386z M332.493,188.933
	c8.469,6.625,15.062,13.25,19.984,18.938H213.331v-53.062c3.508-0.188,7.062-0.266,10.664-0.266
	C266.745,154.544,303.244,166.121,332.493,188.933z M115.38,188.933c21.711-16.906,47.39-27.624,76.616-32.062v50.999h-96.67
	C100.264,202.183,106.889,195.543,115.38,188.933z M36.421,229.214h6.242v10.656H25.749L36.421,229.214z M117.333,357.431
	c-17.648,0-31.999-14.344-31.999-32c0-17.623,14.351-31.998,31.999-31.998c17.641,0,32,14.375,32,31.998
	C149.333,343.087,134.974,357.431,117.333,357.431z M394.648,357.431c-17.624,0-31.999-14.344-31.999-32
	c0-17.623,14.375-31.998,31.999-31.998c17.655,0,31.999,14.375,31.999,31.998C426.647,343.087,412.304,357.431,394.648,357.431z
	 M447.991,325.212c-0.125-29.311-24-53.092-53.343-53.092c-29.312,0-53.187,23.781-53.312,53.092H170.661
	c-0.133-29.311-24-53.092-53.327-53.092s-53.202,23.781-53.327,53.092H53.335c-0.031,0-0.055,0-0.086,0h-0.125
	c-10.5,0-24.492-9.5-31.789-15.342v-48.656h32c5.891,0,10.664-4.781,10.664-10.672v-21.328h10.43h298.034
	c0.281,0.031,0.594,0.031,0.891,0.031c57.076,0,89.451,0,103.295,10.625h-18.125c-5.906,0-10.672,4.781-10.672,10.672
	c0,5.891,4.766,10.672,10.672,10.672h28.905c2.875,14.438,3.188,35.406,3.219,63.998L447.991,325.212L447.991,325.212z"/>
<path d="M394.648,314.773c-5.875,0-10.655,4.781-10.655,10.656c0,5.906,4.78,10.688,10.655,10.688
	c5.906,0,10.688-4.781,10.688-10.688C405.336,319.556,400.555,314.773,394.648,314.773z"/>
<path d="M245.331,250.542h-21.336c-5.891,0-10.664,4.766-10.664,10.672c0,5.875,4.773,10.656,10.664,10.656h21.335
	c5.891,0,10.664-4.781,10.664-10.656C255.995,255.307,251.222,250.542,245.331,250.542z"/>
<g>
</g>
<g>
</g>
<g>
</g>
<g>
</g>
<g>
</g>
<g>
</g>
<g>
</g>
<g>
</g>
<g>
</g>
<g>
</g>
<g>
</g>
<g>
</g>
<g>
</g>
<g>
</g>
<g>
</g>
</svg>
