<svg id="icons" enable-background="new 0 0 64 64" height="512" viewBox="0 0 64 64" width="512" xmlns="http://www.w3.org/2000/svg"><g><g><path d="m40 55v2c-.55 0-1 .45-1 1h-14c0-.55-.45-1-1-1v-2c.55 0 1-.45 1-1h14c0 .55.45 1 1 1z" fill="#ffce54"/></g><g><path d="m45 49v14h-26v-14h10 6zm-5 8v-2c-.55 0-1-.45-1-1h-14c0 .55-.45 1-1 1v2c.55 0 1 .45 1 1h14c0-.55.45-1 1-1z" fill="#656d78"/></g><g><path d="m32 40c1.02 0 2.03-.09 3-.26v.01 9.25h-6v-9.25-.01c.97.17 1.98.26 3 .26z" fill="#f6bb42"/></g><g><path d="m32 1c1.66 0 3 1.35 3 3 0 1.66-1.34 3-3 3s-3-1.34-3-3c0-1.65 1.34-3 3-3z" fill="#e29f33"/></g><g><path d="m42.99 10h-21.99v-3h11 10.99z" fill="#edab37"/></g><g><path d="m17 10h4 21.99 4.01c1.66 0 3 1.34 3 3h-36c0-1.66 1.34-3 3-3z" fill="#f6bb42"/></g><g><path d="m32 31c0 1.11.89 2 2 2h1.99v.01c2.22 0 4.01-1.8 4.01-4.01v-1-8c0-1.1-.9-2-2-2-.78 0-1.47.3-2 .78-.54-.48-1.23-.78-2-.78-.78 0-1.47.3-2 .78-.54-.48-1.23-.78-2-.78-.78 0-1.47.3-2 .78-.54-.48-1.23-.78-2-.78-1.11 0-2 .9-2 2v7c0 1.11.89 2 2 2 1.1 0 2-.89 2-2v1c0 1.11.89 2 2 2 1.1 0 2-.89 2-2 0 .6.26 1.14.67 1.51-.41.37-.67.9-.67 1.49zm18-18v9c0 5.46-2.44 10.36-6.28 13.65-2.43 2.1-5.42 3.55-8.72 4.09-.97.17-1.98.26-3 .26s-2.03-.09-3-.26c-3.3-.54-6.29-1.99-8.72-4.09-3.84-3.29-6.28-8.19-6.28-13.65v-9z" fill="#ffce54"/></g><g><path d="m32.67 29.51c.36.3.82.49 1.33.49 1.1 0 2-.89 2-2 0 1.11.89 2 2 2 1.1 0 2-.89 2-2v1c0 2.21-1.79 4.01-4.01 4.01v-.01h-1.99c-1.11 0-2-.89-2-2 0-.59.26-1.12.67-1.49z" fill="#edab37"/></g><g><path d="m36 28c0 1.11-.9 2-2 2-.51 0-.97-.19-1.33-.49-.41-.37-.67-.91-.67-1.51 0 1.11-.9 2-2 2-1.11 0-2-.89-2-2v-1c0 1.11-.9 2-2 2-1.11 0-2-.89-2-2v-7c0-1.1.89-2 2-2 .77 0 1.46.3 2 .78.53-.48 1.22-.78 2-.78.77 0 1.46.3 2 .78.53-.48 1.22-.78 2-.78.77 0 1.46.3 2 .78.53-.48 1.22-.78 2-.78 1.1 0 2 .9 2 2v8c0 1.11-.9 2-2 2-1.11 0-2-.89-2-2z" fill="#f6bb42"/></g></g><g><g><path d="m31.999 40.999c-10.477 0-19-8.523-19-19 0-.553.447-1 1-1s1 .447 1 1c0 9.374 7.626 17 17 17s17-7.626 17-17c0-.553.447-1 1-1s1 .447 1 1c0 10.477-8.523 19-19 19z"/></g><g><path d="m13.999 22.999c-.553 0-1-.447-1-1v-9.005c0-.553.447-1 1-1s1 .447 1 1v9.005c0 .553-.447 1-1 1z"/></g><g><path d="m49.999 13.994h-36c-.553 0-1-.447-1-1s.447-1 1-1h36c.553 0 1 .447 1 1s-.447 1-1 1z"/></g><g><path d="m49.999 22.999c-.553 0-1-.447-1-1v-9.005c0-.553.447-1 1-1s1 .447 1 1v9.005c0 .553-.447 1-1 1z"/></g><g><path d="m13.999 14c-.553 0-1-.447-1-1 0-2.205-1.794-3.999-3.999-3.999s-3.999 1.794-3.999 3.999c0 .553-.447 1-1 1s-1-.447-1-1c0-3.308 2.691-5.999 5.999-5.999s5.999 2.691 5.999 5.999c0 .553-.447 1-1 1z"/></g><g><path d="m20.271 36.653c-.062 0-.123-.006-.186-.018-9.898-1.861-17.084-10.538-17.084-20.632 0-.553.447-1 1-1s1 .447 1 1c0 9.133 6.499 16.983 15.454 18.668.543.102.9.624.798 1.167-.09.48-.51.815-.982.815z"/></g><g><path d="m59.999 14c-.553 0-1-.447-1-1 0-2.205-1.794-3.999-3.999-3.999s-3.999 1.794-3.999 3.999c0 .553-.447 1-1 1s-1-.447-1-1c0-3.308 2.691-5.999 5.999-5.999s5.999 2.691 5.999 5.999c0 .553-.447 1-1 1z"/></g><g><path d="m43.729 36.653c-.472 0-.892-.335-.981-.815-.103-.543.255-1.065.798-1.167 8.955-1.685 15.454-9.535 15.454-18.668 0-.553.447-1 1-1s1 .447 1 1c0 10.094-7.186 18.771-17.085 20.633-.063.011-.125.017-.186.017z"/></g><g><path d="m13.999 13.994c-.553 0-1-.447-1-1 0-2.206 1.794-4 4-4 .553 0 1 .447 1 1s-.447 1-1 1c-1.103 0-2 .897-2 2 0 .553-.447 1-1 1z"/></g><g><path d="m49.999 13.994c-.553 0-1-.447-1-1 0-1.103-.897-2-2-2-.553 0-1-.447-1-1s.447-1 1-1c2.206 0 4 1.794 4 4 0 .553-.447 1-1 1z"/></g><g><path d="m46.999 10.994h-30c-.553 0-1-.447-1-1s.447-1 1-1h30c.553 0 1 .447 1 1s-.447 1-1 1z"/></g><g><g><path d="m21.003 10.994c-.553 0-1-.447-1-1v-2.998c0-.553.447-1 1-1s1 .447 1 1v2.998c0 .553-.447 1-1 1z"/></g><g><path d="m42.995 7.996h-21.992c-.553 0-1-.447-1-1s.447-1 1-1h21.992c.553 0 1 .447 1 1s-.447 1-1 1z"/></g><g><path d="m42.995 10.994c-.553 0-1-.447-1-1v-2.998c0-.553.447-1 1-1s1 .447 1 1v2.998c0 .553-.447 1-1 1z"/></g></g><g><path d="m32 8.001c-2.206 0-4-1.794-4-4s1.794-4 4-4 4 1.794 4 4-1.794 4-4 4zm0-6c-1.103 0-2 .897-2 2s.897 2 2 2 2-.897 2-2-.897-2-2-2z"/></g><g><g><path d="m25.998 30.001c-1.654 0-3-1.346-3-3 0-.553.447-1 1-1s1 .447 1 1c0 .552.448 1 1 1s1-.448 1-1c0-.553.447-1 1-1s1 .447 1 1c0 1.654-1.346 3-3 3z"/></g><g><path d="m29.998 31.002c-1.654 0-3-1.346-3-3 0-.553.447-1 1-1s1 .447 1 1c0 .552.448 1 1 1s1-.448 1-1c0-.553.447-1 1-1s1 .447 1 1c0 1.654-1.346 3-3 3z"/></g><g><path d="m33.998 31.002c-1.654 0-3-1.346-3-3 0-.553.447-1 1-1s1 .447 1 1c0 .552.448 1 1 1s1-.448 1-1c0-.553.447-1 1-1s1 .447 1 1c0 1.654-1.346 3-3 3z"/></g><g><path d="m37.998 31.002c-1.654 0-3-1.346-3-3 0-.553.447-1 1-1s1 .447 1 1c0 .552.448 1 1 1s1-.448 1-1c0-.553.447-1 1-1s1 .447 1 1c0 1.654-1.346 3-3 3z"/></g><g><path d="m23.998 28.001c-.553 0-1-.447-1-1v-7.002c0-.553.447-1 1-1s1 .447 1 1v7.002c0 .553-.447 1-1 1z"/></g><g><path d="m39.998 29.999c-.553 0-1-.447-1-1v-9c0-.553.447-1 1-1s1 .447 1 1v9c0 .553-.447 1-1 1z"/></g><g><path d="m35.998 19.778c-.239 0-.479-.086-.669-.257-.748-.672-1.914-.672-2.662 0-.379.342-.959.342-1.338 0-.748-.672-1.914-.672-2.662 0-.379.342-.959.342-1.338 0-.374-.335-.846-.521-1.331-.521-.553 0-1-.447-1-1s.447-1 1-1c.705 0 1.394.19 2 .546 1.213-.711 2.787-.711 4 0 1.213-.711 2.787-.711 4 0 .606-.355 1.295-.546 2-.546.553 0 1 .447 1 1s-.447 1-1 1c-.485 0-.957.186-1.331.521-.189.171-.43.257-.669.257z"/></g><g><path d="m23.998 20.999c-.553 0-1-.447-1-1 0-1.654 1.346-3 3-3 .553 0 1 .447 1 1s-.447 1-1 1c-.552 0-1 .448-1 1 0 .553-.447 1-1 1z"/></g><g><path d="m39.998 20.999c-.553 0-1-.447-1-1 0-.552-.448-1-1-1-.553 0-1-.447-1-1s.447-1 1-1c1.654 0 3 1.346 3 3 0 .553-.447 1-1 1z"/></g><g><path d="m27.998 29.002c-.553 0-1-.447-1-1v-3.003c0-.553.447-1 1-1s1 .447 1 1v3.003c0 .553-.447 1-1 1z"/></g><g><path d="m33.998 34.003c-1.654 0-3-1.346-3-3 0-.86.371-1.682 1.018-2.253.415-.364 1.046-.326 1.412.088.365.414.326 1.046-.088 1.412-.218.191-.342.466-.342.753 0 .552.448 1 1 1 .553 0 1 .447 1 1s-.447 1-1 1z"/></g><g><path d="m35.996 34.003h-1.998c-.553 0-1-.447-1-1s.447-1 1-1h1.998c.553 0 1 .447 1 1s-.447 1-1 1z"/></g><g><path d="m35.996 34.005c-.553 0-1-.447-1-1s.447-1 1-1c1.657 0 3.006-1.349 3.006-3.006 0-.553.447-1 1-1s1 .447 1 1c0 2.76-2.246 5.006-5.006 5.006z"/></g><g><path d="m31.998 29.002c-.553 0-1-.447-1-1v-3.003c0-.553.447-1 1-1s1 .447 1 1v3.003c0 .553-.447 1-1 1z"/></g><g><path d="m35.998 29.002c-.553 0-1-.447-1-1v-3.003c0-.553.447-1 1-1s1 .447 1 1v3.003c0 .553-.447 1-1 1z"/></g></g><g><path d="m4.001 17.003c-.553 0-1-.447-1-1v-3.003c0-.553.447-1 1-1s1 .447 1 1v3.003c0 .553-.447 1-1 1z"/></g><g><path d="m59.999 17.003c-.553 0-1-.447-1-1v-3.003c0-.553.447-1 1-1s1 .447 1 1v3.003c0 .553-.447 1-1 1z"/></g><g><path d="m45.002 63.999h-26.004c-.553 0-1-.447-1-1v-14.004c0-.553.447-1 1-1h26.004c.553 0 1 .447 1 1v14.004c0 .553-.447 1-1 1zm-25.004-2h24.004v-12.004h-24.004z"/></g><g><path d="m29 49.995c-.553 0-1-.447-1-1v-9.245c0-.553.447-1 1-1s1 .447 1 1v9.245c0 .553-.447 1-1 1z"/></g><g><path d="m35.001 49.995c-.553 0-1-.447-1-1v-9.245c0-.553.447-1 1-1s1 .447 1 1v9.245c0 .553-.447 1-1 1z"/></g><g><path d="m39 59h-14c-.553 0-1-.447-1-1-.553 0-1-.447-1-1v-2c0-.553.447-1 1-1 0-.553.447-1 1-1h14c.553 0 1 .447 1 1 .553 0 1 .447 1 1v2c0 .553-.447 1-1 1 0 .553-.447 1-1 1zm-13.269-2h12.537c.176-.303.429-.556.731-.731v-.537c-.303-.176-.556-.429-.731-.731h-12.537c-.176.303-.429.556-.731.731v.537c.303.175.556.428.731.731z"/></g></g></svg>