<?xml version="1.0" encoding="iso-8859-1"?>
<!-- Generator: Adobe Illustrator 19.0.0, SVG Export Plug-In . SVG Version: 6.00 Build 0)  -->
<svg version="1.1" id="Layer_1" xmlns="http://www.w3.org/2000/svg" xmlns:xlink="http://www.w3.org/1999/xlink" x="0px" y="0px"
	 viewBox="0 0 511.991 511.991" style="enable-background:new 0 0 511.991 511.991;" xml:space="preserve">
<polygon style="fill:#48CFAD;" points="495.99,240.667 455.335,222.667 352.665,228.667 345.993,94.67 93.998,94.67 10.672,176.012 
	10.672,398.009 37.999,398.009 57.999,373.321 502.662,373.321 "/>
<g>
	<path style="fill:#656D78;" d="M164.996,373.321c0,24.719-20.031,44.748-44.749,44.748s-44.749-20.029-44.749-44.748
		s20.031-44.75,44.749-44.75S164.996,348.602,164.996,373.321z"/>
	<path style="fill:#656D78;" d="M268.807,373.321c0,24.719-20.031,44.748-44.75,44.748s-44.749-20.029-44.749-44.748
		s20.031-44.75,44.749-44.75S268.807,348.602,268.807,373.321z"/>
	<path style="fill:#656D78;" d="M460.741,373.321c0,24.719-20.031,44.748-44.75,44.748c-24.718,0-44.748-20.029-44.748-44.748
		s20.03-44.75,44.748-44.75C440.71,328.571,460.741,348.602,460.741,373.321z"/>
</g>
<polygon style="fill:#F5F7FA;" points="151.341,169.325 161.997,277.995 224.058,273.323 239.339,173.325 "/>
<polygon style="fill:#4FC2E9;" points="423.491,142.997 352.493,139.997 354.493,227.495 460.741,223.652 "/>
<g>
	<path style="fill:#080808;" d="M469.319,213.339l-42.672-85.342h-63.998l0.016-21.343h64.061c5.891,0,10.656-4.766,10.656-10.656
		s-4.766-10.656-10.656-10.656H85.405L0,170.653v234.684h42.733l21.296-21.125h1.156c5.016,24.234,26.484,42.436,52.218,42.436
		s47.218-18.217,52.218-42.482h2.219c5,24.266,26.484,42.482,52.218,42.482c25.765,0,47.265-18.248,52.25-42.529l87.42-0.062
		c4.984,24.312,26.483,42.592,52.264,42.592s47.297-18.311,52.25-42.623l43.593-0.031l0.156-147.654L469.319,213.339z
		 M445.46,213.339h-50.874V149.34h18.89L445.46,213.339z M373.243,149.341v63.999h-10.594v-63.999L373.243,149.341L373.243,149.341z
		 M117.404,405.337c-17.656,0-31.999-14.375-31.999-32c0-17.656,14.343-32,31.999-32c17.641,0,32,14.344,32,32
		C149.403,390.962,135.044,405.337,117.404,405.337z M224.058,405.337c-17.64,0-32-14.375-32-32c0-17.656,14.359-32,32-32
		c17.656,0,32,14.344,32,32C256.057,390.962,241.714,405.337,224.058,405.337z M415.991,405.337c-17.655,0-31.998-14.375-31.998-32
		c0-17.656,14.343-32,31.998-32c17.641,0,32,14.344,32,32C447.991,390.962,433.632,405.337,415.991,405.337z M490.646,277.339
		h-0.141v21.312v21.342v21.344v21.344h-22.249c-4.938-24.344-26.469-42.688-52.266-42.688c-25.827,0-47.373,18.359-52.279,42.75
		l-87.357,0.031c-4.906-24.406-26.453-42.781-52.296-42.781c-25.859,0-47.405,18.406-52.296,42.844H169.7
		c-4.891-24.438-26.437-42.844-52.296-42.844c-25.89,0-47.452,18.438-52.312,42.891H64.03h-8.781l-6.234,6.172l-15.062,14.938
		H21.328v-42.656v-21.344V179.496l72.905-72.842h12.219c0,5.906,4.766,10.687,10.656,10.687c5.891,0,10.672-4.781,10.672-10.687
		h21.328c0,5.906,4.781,10.687,10.672,10.687c5.89,0,10.671-4.781,10.671-10.687h21.328c0,5.906,4.781,10.687,10.672,10.687
		s10.656-4.781,10.656-10.687h21.344c0,5.906,4.765,10.687,10.656,10.687s10.672-4.781,10.672-10.687h21.328
		c0,5.906,4.781,10.687,10.671,10.687c5.891,0,10.656-4.781,10.656-10.687h42.905l-0.016,21.328l-0.016,21.359h0.016v159.998
		c0,5.873,4.781,10.654,10.672,10.654s10.656-4.781,10.656-10.654v-74.687H463.93l26.718,14.406v28.281H490.646z"/>
	<path style="fill:#080808;" d="M117.404,362.649c-5.89,0-10.671,4.781-10.671,10.688c0,5.875,4.781,10.656,10.671,10.656
		c5.891,0,10.656-4.781,10.656-10.656C128.06,367.431,123.294,362.649,117.404,362.649z"/>
	<path style="fill:#080808;" d="M415.991,362.649c-5.89,0-10.671,4.781-10.671,10.688c0,5.875,4.781,10.656,10.671,10.656
		c5.891,0,10.656-4.781,10.656-10.656C426.647,367.431,421.882,362.649,415.991,362.649z"/>
	<path style="fill:#080808;" d="M224.058,362.649c-5.891,0-10.656,4.781-10.656,10.688c0,5.875,4.766,10.656,10.656,10.656
		s10.672-4.781,10.672-10.656C234.73,367.431,229.949,362.649,224.058,362.649z"/>
	<path style="fill:#080808;" d="M245.401,159.997H234.73h-21.406c0-5.891-4.781-10.656-10.671-10.656h-21.406
		c-5.891,0-10.656,4.766-10.656,10.656h-21.343h-10.656c-5.89,0-10.671,4.781-10.671,10.656c0,5.906,4.781,10.688,10.671,10.688
		h1.016l9.703,97.061c0.547,5.438,5.125,9.594,10.609,9.594h64.139c5.484,0,10.078-4.156,10.625-9.594l9.703-97.061h1.016
		c5.891,0,10.656-4.781,10.656-10.688C256.057,164.778,251.292,159.997,245.401,159.997z M214.417,266.651h-44.842l-8.531-85.311
		h61.905L214.417,266.651z"/>
</g>
<g>
</g>
<g>
</g>
<g>
</g>
<g>
</g>
<g>
</g>
<g>
</g>
<g>
</g>
<g>
</g>
<g>
</g>
<g>
</g>
<g>
</g>
<g>
</g>
<g>
</g>
<g>
</g>
<g>
</g>
</svg>
