<?xml version="1.0" encoding="iso-8859-1"?>
<!-- Generator: Adobe Illustrator 19.0.0, SVG Export Plug-In . SVG Version: 6.00 Build 0)  -->
<svg version="1.1" id="Layer_1" xmlns="http://www.w3.org/2000/svg" xmlns:xlink="http://www.w3.org/1999/xlink" x="0px" y="0px"
	 viewBox="0 0 511.991 511.991" style="enable-background:new 0 0 511.991 511.991;" xml:space="preserve">
<polygon style="fill:#AC92EB;" points="448.991,281.995 408.492,281.995 369.993,265.495 329.993,207.496 57.999,207.496 
	28.499,180.996 28.499,244.995 201.996,256.995 223.495,271.495 265.495,312.492 290.494,330.492 383.993,332.992 431.991,318.992 
	451.491,294.495 "/>
<polygon style="fill:#4FC2E9;" points="455.991,261.995 446.647,235.324 422.647,216.667 395.992,205.996 346.649,205.996 
	339.993,212.667 343.868,227.62 356.649,260.667 382.962,271.057 418.647,281.995 461.335,282.667 "/>
<path d="M501.334,133.34H319.993H298.65H117.333c-5.89,0-10.671,4.765-10.671,10.656s4.781,10.656,10.671,10.656H298.65v42.687
	H55.999L0,122.654l18.539,130.685l191.481,18.844c13.296,22.531,53.163,71.779,88.631,74.186v21.625H234.66v21.344h213.332l0,0
	c17.672,0,32-14.344,32-32l0,0c0-5.906-4.781-10.688-10.656-10.688c-5.906,0-10.688,4.781-10.688,10.688l0,0
	c0,5.875-4.781,10.656-10.656,10.656H417.82h-23.171V346.65c41.249,0,74.687-33.422,74.687-74.654
	c0-41.234-33.438-74.655-74.687-74.655h-74.655v-42.687h181.341c5.875,0,10.656-4.766,10.656-10.656S507.209,133.34,501.334,133.34z
	 M373.337,367.992h-53.344v-21.5c15.859,0.031,36.938,0.094,53.344,0.125V367.992z M394.648,325.337
	c-8.374,0-27.812-0.062-46.593-0.109c-18.844-0.047-38.296-0.094-46.718-0.094c-9.828,0-24.202-8.266-39.452-22.654
	c-14.383-13.578-27.187-30.453-33.492-41.141c-3.461-5.844-9.508-9.719-16.281-10.375L37.304,233.745l-4.508-31.796l6.132,8.172
	c4.031,5.375,10.359,8.531,17.07,8.531h274.588c0.75,12.516,4.75,32.906,21.141,49.625c17.141,17.469,42.968,26.281,77.014,26.281
	c4.656,0,9.484-0.172,14.453-0.5C434.788,312.477,416.21,325.337,394.648,325.337z M447.991,271.995c0,0.094,0,0.188,0,0.266
	c-37.812,3.562-64.998-2.734-80.842-18.734c-11.312-11.406-14.406-25.75-15.156-34.875h42.655
	C424.069,218.652,447.991,242.589,447.991,271.995z"/>
<g>
</g>
<g>
</g>
<g>
</g>
<g>
</g>
<g>
</g>
<g>
</g>
<g>
</g>
<g>
</g>
<g>
</g>
<g>
</g>
<g>
</g>
<g>
</g>
<g>
</g>
<g>
</g>
<g>
</g>
</svg>
