<?xml version="1.0" encoding="iso-8859-1"?>
<!-- Generator: Adobe Illustrator 19.0.0, SVG Export Plug-In . SVG Version: 6.00 Build 0)  -->
<svg version="1.1" id="Layer_1" xmlns="http://www.w3.org/2000/svg" xmlns:xlink="http://www.w3.org/1999/xlink" x="0px" y="0px"
	 viewBox="0 0 511.99 511.99" style="enable-background:new 0 0 511.99 511.99;" xml:space="preserve">
<polygon style="fill:#FFCE54;" points="245.511,213.46 205.512,95.463 69.514,95.463 46.186,326.372 69.514,345.466 
	255.995,354.809 275.651,330.653 309.322,309.03 364.837,326.372 372.087,255.991 "/>
<g>
	<path style="fill:#656D78;" d="M181.012,326.372c0,46.25-37.5,83.75-83.749,83.75s-83.749-37.5-83.749-83.75
		c0-46.248,37.5-83.756,83.749-83.756S181.012,280.124,181.012,326.372z"/>
	<path style="fill:#656D78;" d="M372.087,361.153c0,29.281-23.75,53.029-53.047,53.029c-29.28,0-53.029-23.748-53.029-53.029
		s23.749-53.029,53.029-53.029C348.337,308.124,372.087,331.872,372.087,361.153z"/>
</g>
<path style="fill:#CCD1D9;" d="M117.857,332.028c0,12.562-10.203,22.781-22.781,22.781s-22.765-10.219-22.765-22.781
	c0-12.594,10.188-22.779,22.765-22.779C107.654,309.249,117.857,319.434,117.857,332.028z"/>
<polygon style="fill:#4FC2E9;" points="178.012,131.619 107.014,128.619 85.014,242.616 120.513,247.616 166.012,268.116 
	225.011,265.616 "/>
<polygon style="fill:#ED5564;" points="488.834,332.028 447.507,293.468 421.507,264.132 409.508,228.788 418.179,180.789 
	372.087,180.789 372.087,373.341 502.178,373.341 "/>
<path d="M95.998,362.653c17.64,0,32-14.344,32-32c0-17.625-14.359-31.998-32-31.998s-32,14.373-32,31.998
	C63.998,348.309,78.358,362.653,95.998,362.653z M95.998,319.997c5.875,0,10.672,4.781,10.672,10.656
	c0,5.906-4.797,10.688-10.672,10.688s-10.671-4.781-10.671-10.688C85.327,324.778,90.123,319.997,95.998,319.997z"/>
<path d="M470.866,303.624c-8.359-6.875-16.984-14-25.938-23.094c-15.422-15.695-23.328-36.352-23.5-61.414
	c-0.141-19.421,4.641-34.296,4.688-34.437c1.078-3.25,0.531-6.812-1.484-9.594c-2-2.781-5.219-4.422-8.641-4.422h-42.67
	c-5.891,0-10.656,4.781-10.656,10.672v57.155c-14.266-10.968-34.203-19.781-59.671-26.374c-20.874-5.375-40.046-7.812-49.968-8.812
	l-35.453-97.529c3.781-1.625,6.422-5.391,6.422-9.781c0-5.875-4.781-10.656-10.672-10.656h-10.656H74.67H63.998
	c-5.89,0-10.671,4.781-10.671,10.656c0,5.188,3.703,9.5,8.594,10.469L34.562,256.96c-8.5,7.094-15.766,15.633-21.406,25.227
	c-0.094,0.156-0.203,0.312-0.297,0.469c-0.062,0.125-0.125,0.25-0.188,0.375C4.609,297.093,0,313.342,0,330.654
	c0,17.344,4.609,33.594,12.671,47.656c0.062,0.125,0.125,0.25,0.188,0.344c0.141,0.25,0.281,0.469,0.422,0.688
	c8.328,14.094,20.141,25.875,34.25,34.154c0.156,0.094,0.312,0.219,0.469,0.312c0.219,0.125,0.422,0.219,0.641,0.344
	c13.984,7.969,30.156,12.5,47.358,12.5s33.375-4.531,47.358-12.5c0.219-0.094,0.422-0.219,0.641-0.344
	c0.172-0.094,0.312-0.219,0.469-0.312c14.109-8.279,25.921-20.061,34.25-34.154c0.141-0.219,0.281-0.438,0.422-0.688
	c0.062-0.125,0.125-0.25,0.188-0.375c2.844-4.938,5.25-10.156,7.188-15.625h69.48v0.031c0,17.344,6.953,33.125,18.219,44.656
	c0.172,0.188,0.344,0.406,0.531,0.594c0.172,0.188,0.375,0.344,0.578,0.5c11.531,11.279,27.312,18.217,44.67,18.217
	c17.375,0,33.141-6.938,44.688-18.217c0.188-0.156,0.391-0.344,0.562-0.5c0.188-0.188,0.344-0.375,0.516-0.562
	c6.422-6.594,11.438-14.531,14.578-23.375h120.981c5.891,0,10.672-4.781,10.672-10.656
	C511.99,337.559,492.928,321.841,470.866,303.624z M383.993,191.992h18.499c-1.281,7-2.422,16.188-2.406,26.531
	c0.047,30.687,10.297,57.289,29.64,76.945c9.719,9.906,19.203,17.717,27.562,24.623c4.578,3.781,8.75,7.219,12.484,10.562h-85.779
	v-63.99V191.992z M342.618,385.278c-3.844,3.844-4.125,9.906-0.891,14.094c-3.438,2.031-7.188,3.625-11.156,4.625
	c-0.656-5.25-5.141-9.344-10.578-9.344s-9.921,4.094-10.577,9.344c-3.969-1-7.719-2.594-11.156-4.625
	c3.234-4.188,2.953-10.25-0.891-14.062c-3.844-3.844-9.891-4.156-14.062-0.906c-2.047-3.438-3.641-7.188-4.656-11.156
	c5.266-0.656,9.343-5.125,9.343-10.594c0-5.438-4.077-9.906-9.343-10.562c1.016-3.969,2.609-7.719,4.656-11.156
	c1.906,1.469,4.202,2.219,6.515,2.219c2.734,0,5.469-1.031,7.547-3.125c3.844-3.844,4.125-9.875,0.891-14.062
	c3.438-2.031,7.188-3.625,11.156-4.625c0.656,5.25,5.14,9.312,10.577,9.312s9.922-4.062,10.578-9.312
	c3.969,1,7.719,2.594,11.156,4.625c-3.234,4.188-2.953,10.219,0.891,14.062c2.078,2.094,4.812,3.125,7.547,3.125
	c2.297,0,4.609-0.75,6.516-2.219c2.047,3.438,3.641,7.188,4.656,11.156c-5.266,0.656-9.344,5.125-9.344,10.562
	c0,5.469,4.078,9.938,9.344,10.594c-1.016,3.969-2.609,7.719-4.656,11.156C352.509,381.153,346.462,381.466,342.618,385.278z
	 M156.263,255.991c-3.719-3-7.656-5.719-11.797-8.156c-0.156-0.094-0.312-0.219-0.469-0.312c-0.125-0.062-0.25-0.125-0.375-0.188
	c-13.437-7.719-28.921-12.265-45.421-12.64l16.156-96.03h56.577l38.359,117.326H156.263z M85.373,256.757
	c0.391,5.547,4.984,9.906,10.625,9.906s10.234-4.359,10.625-9.906c5.968,0.859,11.703,2.422,17.125,4.594
	c-2.422,4.984-0.625,11.086,4.25,13.898c1.672,0.969,3.516,1.438,5.328,1.438c3.438,0,6.781-1.688,8.812-4.688
	c4.656,3.688,8.859,7.875,12.531,12.531c-4.594,3.125-6.062,9.281-3.25,14.125c1.984,3.438,5.562,5.344,9.25,5.344
	c1.562,0,3.156-0.344,4.656-1.062c2.172,5.406,3.719,11.154,4.578,17.092c-5.531,0.406-9.906,5-9.906,10.625
	c0,5.656,4.375,10.25,9.906,10.656c-0.859,5.938-2.406,11.688-4.594,17.094c-4.984-2.406-11.078-0.625-13.89,4.25
	s-1.344,11.031,3.25,14.156c-3.672,4.656-7.875,8.844-12.531,12.531c-3.109-4.594-9.265-6.062-14.14-3.25s-6.688,8.906-4.25,13.906
	c-5.422,2.156-11.156,3.719-17.125,4.562c-0.391-5.531-4.984-9.906-10.625-9.906s-10.234,4.375-10.625,9.906
	c-5.969-0.844-11.703-2.406-17.125-4.562c2.422-5,0.625-11.094-4.25-13.906s-11.031-1.344-14.14,3.25
	c-4.656-3.688-8.859-7.875-12.531-12.531c4.578-3.125,6.062-9.281,3.25-14.156s-8.906-6.656-13.89-4.25
	c-2.188-5.406-3.734-11.156-4.594-17.094c5.531-0.406,9.906-5,9.906-10.656c0-5.625-4.375-10.219-9.906-10.625
	c0.859-5.938,2.406-11.686,4.578-17.092c1.5,0.719,3.078,1.062,4.656,1.062c3.688,0,7.265-1.906,9.25-5.344
	c2.812-4.844,1.328-11-3.25-14.125c3.671-4.656,7.875-8.844,12.531-12.531c2.031,3,5.375,4.688,8.812,4.688
	c1.812,0,3.656-0.469,5.328-1.438c4.875-2.812,6.672-8.914,4.25-13.898C73.67,259.179,79.405,257.616,85.373,256.757z
	 M191.402,341.341c0.391-3.5,0.594-7.062,0.594-10.656v-0.031l0,0c0-17.312-4.609-33.561-12.671-47.592
	c-0.062-0.125-0.125-0.281-0.188-0.406c-0.094-0.156-0.203-0.312-0.312-0.469c-0.969-1.656-1.984-3.25-3.047-4.844h48.217h0.016
	c5.891,0,10.656-4.781,10.656-10.68c0-1.359-0.25-2.656-0.719-3.859l-45.156-138.123c-1.422-4.375-5.515-7.344-10.125-7.344h-73.342
	c-5.203,0-9.656,3.75-10.516,8.891L76.217,236.71c-5.984,1.265-11.766,3.078-17.281,5.406l24.625-135.45h111.623l40.125,110.31
	c1.438,3.984,5.109,6.734,9.343,7c0.25,0.016,25.609,1.703,53.312,8.891c33.218,8.609,55.499,21.218,64.702,36.562v45.568
	c-11.344-10.154-26.297-16.342-42.672-16.342c-17.358,0-33.139,6.969-44.67,18.248c-0.203,0.156-0.406,0.312-0.578,0.5
	c-0.188,0.188-0.359,0.406-0.531,0.594c-6.406,6.562-11.422,14.5-14.562,23.344L191.402,341.341L191.402,341.341z M383.993,362.653
	v-10.656h100.998c0.547,0,1.094-0.062,1.609-0.125c1.452,3.281,2.53,6.844,3.218,10.781H383.993z"/>
<path d="M319.993,351.997c-5.891,0-10.671,4.781-10.671,10.656c0,5.906,4.78,10.688,10.671,10.688s10.672-4.781,10.672-10.688
	C330.665,356.778,325.884,351.997,319.993,351.997z"/>
<g>
</g>
<g>
</g>
<g>
</g>
<g>
</g>
<g>
</g>
<g>
</g>
<g>
</g>
<g>
</g>
<g>
</g>
<g>
</g>
<g>
</g>
<g>
</g>
<g>
</g>
<g>
</g>
<g>
</g>
</svg>
