<?xml version="1.0" encoding="iso-8859-1"?>
<!-- Generator: Adobe Illustrator 19.0.0, SVG Export Plug-In . SVG Version: 6.00 Build 0)  -->
<svg version="1.1" id="Layer_1" xmlns="http://www.w3.org/2000/svg" xmlns:xlink="http://www.w3.org/1999/xlink" x="0px" y="0px"
	 viewBox="0 0 511.991 511.991" style="enable-background:new 0 0 511.991 511.991;" xml:space="preserve">
<polygon style="fill:#A0D468;" points="447.194,160.013 400.523,116.669 383.868,116.669 378.524,136.013 392.523,178.012 
	375.368,190.012 230.527,219.339 209.199,261.338 160.528,296.01 223.863,365.43 338.524,368.664 341.196,346.242 372.524,276.994 
	383.196,255.995 439.304,242.667 455.194,228.667 455.194,188.012 "/>
<g>
	<path style="fill:#656D78;" d="M133.865,337.492c0,33.406-27.085,60.5-60.499,60.5s-60.499-27.094-60.499-60.5
		c0-33.404,27.085-60.498,60.499-60.498S133.865,304.088,133.865,337.492z"/>
	<path style="fill:#656D78;" d="M496.365,335.571c0,33.405-27.093,60.499-60.499,60.499c-33.421,0-60.498-27.094-60.498-60.499
		s27.077-60.499,60.498-60.499C469.272,275.072,496.365,302.166,496.365,335.571z"/>
</g>
<g>
	<path style="fill:#CCD1D9;" d="M106.365,336.868c0,15.78-12.789,28.562-28.562,28.562s-28.562-12.781-28.562-28.562
		c0-15.766,12.789-28.562,28.562-28.562S106.365,321.102,106.365,336.868z"/>
	<path style="fill:#CCD1D9;" d="M467.866,335.571c0,15.78-12.797,28.562-28.562,28.562c-15.781,0-28.562-12.781-28.562-28.562
		c0-15.766,12.78-28.562,28.562-28.562C455.069,307.01,467.866,319.806,467.866,335.571z"/>
	<polygon style="fill:#CCD1D9;" points="149.864,296.01 130.529,307.01 139.864,324.915 184.528,360.664 213.331,356.664 	"/>
	<polygon style="fill:#CCD1D9;" points="54.866,201.012 145.864,266.338 180.2,275.072 207.527,260.338 218.863,220.339 	"/>
</g>
<polygon style="fill:#656D78;" points="355.868,166.325 322.196,159.997 266.659,167.996 248.862,181.653 230.527,213.324 
	295.525,211.324 307.869,204.652 358.524,190.652 378.196,174.325 "/>
<g>
	<polygon style="fill:#F5F7FA;" points="396.867,218.996 338.618,242.667 315.368,259.994 326.118,275.072 347.868,305.244 
		358.618,288.744 382.118,260.494 425.866,238.042 	"/>
	<path style="fill:#F5F7FA;" d="M263.862,304.244c0,8.702-7.055,15.749-15.75,15.749s-15.75-7.047-15.75-15.749
		c0-8.703,7.054-15.75,15.75-15.75C256.808,288.494,263.862,295.541,263.862,304.244z"/>
</g>
<path d="M437.335,260.916c-9.219,0-18.016,1.672-26.155,4.734l-2.656-4.844c14.249-6.937,31.03-10.499,50.171-10.562
	c4.734,0,8.891-3.156,10.203-7.703c0.25-0.859,6.016-21.328,0.188-48.765c-5.281-24.937-21.516-60.874-68.78-90.404
	c-4.141-2.594-9.516-2.031-13.031,1.344l-21.343,20.515c-3.359,3.234-4.234,8.281-2.156,12.453l10.812,21.625
	c-19.203-4.469-47.375-9.812-72.812-9.812c-15.968,0-29.187,2.156-39.265,6.406c-19.352,8.187-37.07,37.233-44.546,50.874
	L53.843,187.153c-4.461-0.531-8.773,1.781-10.797,5.796c-1.242,2.453-2.359,6.484-0.641,11.609
	c2.82,8.421,13.586,21.468,71.983,54.342c15.875,8.922,31.625,17.25,43.32,23.281l-21.726,10.844
	c-13.5-19.391-35.945-32.109-61.319-32.109C33.492,260.916,0,294.4,0,335.587c0,41.155,33.492,74.655,74.663,74.655
	c34.335,0,63.327-23.281,72.014-54.906l8.367,1.031l18.742,18.75c2,2,4.719,3.125,7.547,3.125h160.004
	c2.875,0,5.625-1.156,7.625-3.219c2-2.047,3.094-4.828,3.031-7.703c-0.016-0.547-0.969-54.796,32.375-89.076
	c1.984-2.031,4.062-3.969,6.218-5.781l1.891,3.469c-18.093,13.625-29.827,35.297-29.827,59.655
	c0,41.155,33.499,74.655,74.686,74.655c41.156,0,74.655-33.5,74.655-74.655C511.99,294.4,478.491,260.916,437.335,260.916z
	 M270.807,175.559c7.438-3.125,17.843-4.719,30.968-4.719c21.03,0,44.733,4.125,62.499,8.047
	c-24.844,10.734-67.28,25.062-121.756,28.109C250.909,193.527,261.87,179.34,270.807,175.559z M126.255,241.089
	c-23.64-13.25-38.531-22.812-47.913-29.53l133.787,16.015c-2.391,11.203-9.539,30.077-30.898,42.655
	C171.598,265.385,149.184,253.948,126.255,241.089z M150.325,309.713l47.194,47.201h-11.773l-18.211-18.203l0,0l-20.171-20.187
	c-0.516-2.172-1.125-4.312-1.82-6.421L150.325,309.713z M111.482,329.431c-0.016-0.094-0.031-0.188-0.055-0.281l10.921-5.469
	l5.219,5.219c0.102,0.844,0.188,1.719,0.258,2.578L111.482,329.431z M74.662,388.914c-29.406,0-53.327-23.922-53.327-53.327
	s23.921-53.343,53.327-53.343c17.015,0,32.179,8.031,41.952,20.469l-14.734,7.344c-6.82-7.25-16.492-11.812-27.218-11.812
	c-20.585,0-37.327,16.749-37.327,37.343c0,20.577,16.742,37.327,37.327,37.327c15.25,0,28.375-9.188,34.171-22.312l16.351,2.047
	C118.044,373.711,98.107,388.914,74.662,388.914z M64.155,337.383c0.789,4.641,4.523,8.203,9.188,8.781l11.82,1.484
	c-2.812,2.438-6.484,3.938-10.5,3.938c-8.82,0-16-7.188-16-15.999c0-8.828,7.179-16,16-16c2.086,0,4.07,0.406,5.898,1.125
	l-10.664,5.328C65.694,328.149,63.358,332.743,64.155,337.383z M331.024,356.914H227.691l-57.249-57.248l15.758-7.875
	c34.929-17.453,44.687-47.233,47.413-63.045c50.742-1.562,91.974-12.688,118.224-22.031c30.438-10.844,47.78-21.64,48.499-22.093
	l0,0c0.906-0.594,1.75-1.312,2.469-2.156c2.75-3.25,3.297-7.844,1.406-11.656l-17.843-35.64l9.562-9.172
	c28.358,19.5,45.874,43.405,52.062,71.186c3.016,13.469,2.562,24.937,1.719,32c-3.531,0.188-7,0.5-10.406,0.906l-39.687-21.031
	c-3.031-1.625-6.625-1.656-9.703-0.156l-86.107,42.437c-3.156,1.562-5.344,4.578-5.844,8.062c-0.5,3.469,0.75,6.984,3.344,9.375
	l40.843,37.594C334.399,326.368,331.837,345.43,331.024,356.914z M369.071,263.369c-6.938,7.125-12.609,14.906-17.266,22.875
	l-24.625-22.641l67.28-33.139l13.641,7.218C393.148,243.448,380.118,252.026,369.071,263.369z M437.335,388.914
	c-29.421,0-53.342-23.922-53.342-53.327c0-16.281,7.343-30.874,18.89-40.687l7.906,14.453c-6.672,6.733-10.797,16.015-10.797,26.233
	c0,20.577,16.749,37.327,37.343,37.327c20.578,0,37.312-16.75,37.312-37.327c0-20.594-16.734-37.343-37.312-37.343
	c-2.688,0-5.312,0.297-7.844,0.844l-7.922-14.469c4.984-1.531,10.266-2.375,15.766-2.375c29.406,0,53.312,23.938,53.312,53.343
	S466.741,388.914,437.335,388.914z M422.241,330.243l5.719,10.468c1.938,3.531,5.594,5.531,9.375,5.531
	c1.734,0,3.484-0.406,5.125-1.312c5.156-2.812,7.047-9.312,4.219-14.468l-5.719-10.469c7.062,1.656,12.375,8.016,12.375,15.594
	c0,8.812-7.188,15.999-16,15.999c-8.844,0-16-7.188-16-15.999C421.335,333.712,421.647,331.931,422.241,330.243z"/>
<path d="M277.339,303.588c0-17.656-14.367-32-32.008-32c-17.648,0-32,14.344-32,32c0,17.64,14.352,31.999,32,31.999
	C262.972,335.587,277.339,321.227,277.339,303.588z M245.331,314.243c-5.883,0-10.671-4.78-10.671-10.655
	s4.789-10.672,10.671-10.672c5.875,0,10.664,4.797,10.664,10.672S251.206,314.243,245.331,314.243z"/>
<path d="M269.784,328.04c-4.164,4.172-4.164,10.921,0,15.077c4.164,4.172,10.93,4.172,15.086,0c4.155-4.156,4.155-10.905,0-15.077
	C280.714,323.868,273.948,323.868,269.784,328.04z"/>
<g>
</g>
<g>
</g>
<g>
</g>
<g>
</g>
<g>
</g>
<g>
</g>
<g>
</g>
<g>
</g>
<g>
</g>
<g>
</g>
<g>
</g>
<g>
</g>
<g>
</g>
<g>
</g>
<g>
</g>
</svg>
