<svg id="icons" enable-background="new 0 0 64 64" height="512" viewBox="0 0 64 64" width="512" xmlns="http://www.w3.org/2000/svg"><g><g><path d="m32 8.5c1.66 0 3 1.34 3 3s-1.34 3-3 3-3-1.34-3-3 1.34-3 3-3z" fill="#e6e9ed"/></g><g><path d="m32 18.5c-8.18 0-12.71 1.49-15 2.66v-2.66c0-8.28 6.72-15 15-15 8.29 0 15 6.72 15 15v2.66c-2.29-1.17-6.82-2.66-15-2.66zm3-7c0-1.66-1.34-3-3-3s-3 1.34-3 3 1.34 3 3 3 3-1.34 3-3z" fill="#5d9cec"/></g><g><g><path d="m32 3.5c-.68 0-1.345.062-2.001.149 7.339.981 12.997 7.251 12.997 14.851v1.198c1.765.46 3.073.986 4.004 1.462v-2.66c0-8.28-6.71-15-15-15z" fill="#4a89dc"/></g></g><g><path d="m47 21.16c1.45.74 2 1.34 2 1.34h-2-30-2s.54-.6 2-1.34c2.29-1.17 6.82-2.66 15-2.66s12.71 1.49 15 2.66z" fill="#656d78"/></g><g><path d="m47 22.5v4c0 5.76-3.24 10.76-8 13.27-1.24.66-2.58 1.141-4 1.431-.97.2-1.97.3-3 .3-2.53 0-4.91-.63-7-1.73-4.76-2.51-8-7.51-8-13.27v-4h30z" fill="#eac6bb"/></g><g><path d="m42.996 22.5v4c0 5.76-3.24 10.76-8 13.27-1.24.66-2.58 1.141-4 1.431-.34.07-.688.112-1.034.157.667.091 1.346.142 2.038.142 1.03 0 2.03-.1 3-.3 1.42-.29 2.76-.771 4-1.431 4.76-2.51 8-7.51 8-13.27v-4h-4.004z" fill="#d3b1a9"/></g><g><path d="m53.42 50.5h-9.42c-2.76 0-5-2.23-5-5h7c3.36 0 6.23 2.07 7.42 5z" fill="#656d78"/></g><g><path d="m35 41.2v3.99c-.97.21-1.97.31-3 .31-2.53 0-4.91-.62-7-1.73v-4c2.09 1.101 4.47 1.73 7 1.73 1.03 0 2.03-.1 3-.3z" fill="#e6e9ed"/></g><g><path d="m39 39.77v4c-1.24.65-2.58 1.141-4 1.421v-3.991c1.42-.29 2.76-.77 4-1.43z" fill="#ccd1d9"/></g><g><path d="m18 45.5h7c0 2.77-2.24 5-5 5h-9.42c1.19-2.93 4.06-5 7.42-5z" fill="#656d78"/></g><g><path d="m39 45.5c0 2.77 2.24 5 5 5h9.42c.37.93.58 1.94.58 3v8h-8-28-8v-8c0-1.06.21-2.07.58-3h9.42c2.76 0 5-2.23 5-5v-1.73c2.09 1.11 4.47 1.73 7 1.73 1.03 0 2.03-.1 3-.31 1.42-.28 2.76-.771 4-1.421z" fill="#5d9cec"/></g><g><g><path d="m53.42 50.5c-1.189-2.93-4.06-5-7.42-5h-4.004c3.36 0 6.23 2.07 7.42 5 .37.93.58 1.94.58 3v8h4.004v-8c0-1.06-.21-2.07-.58-3z" fill="#4a89dc"/></g></g><g><path d="m46 45.5h-4.004c3.36 0 6.23 2.07 7.42 5h4.004c-1.19-2.93-4.06-5-7.42-5z" fill="#545c66"/></g></g><g><g><path d="m10 54.504c-.553 0-1-.447-1-1 0-4.964 4.038-9.002 9.002-9.002.553 0 1 .447 1 1s-.447 1-1 1c-3.861 0-7.002 3.141-7.002 7.002 0 .553-.447 1-1 1z"/></g><g><path d="m54 54.502c-.553 0-1-.447-1-1 0-3.859-3.141-7-7-7-.553 0-1-.447-1-1s.447-1 1-1c4.963 0 9 4.037 9 9 0 .553-.447 1-1 1z"/></g><g><path d="m25 46.502h-6.998c-.553 0-1-.447-1-1s.447-1 1-1h6.998c.553 0 1 .447 1 1s-.447 1-1 1z"/></g><g><path d="m46 46.502h-7c-.553 0-1-.447-1-1s.447-1 1-1h7c.553 0 1 .447 1 1s-.447 1-1 1z"/></g><g><path d="m10.002 62.5c-.552 0-1-.447-1-1l-.002-7.996c0-.552.447-1 1-1 .552 0 1 .447 1 1l.002 7.996c0 .552-.447 1-1 1z"/></g><g><path d="m54 62.5c-.553 0-1-.447-1-1v-7.998c0-.553.447-1 1-1s1 .447 1 1v7.998c0 .553-.447 1-1 1z"/></g><g><path d="m25 46.502c-.553 0-1-.447-1-1v-5.73c0-.553.447-1 1-1s1 .447 1 1v5.73c0 .553-.447 1-1 1z"/></g><g><path d="m39 46.502c-.553 0-1-.447-1-1v-5.73c0-.553.447-1 1-1s1 .447 1 1v5.73c0 .553-.447 1-1 1z"/></g><g><path d="m32 42.502c-8.822 0-16-7.178-16-16 0-.553.447-1 1-1s1 .447 1 1c0 7.72 6.28 14 14 14s14-6.28 14-14c0-.553.447-1 1-1s1 .447 1 1c0 8.822-7.178 16-16 16z"/></g><g><path d="m32 46.5c-2.601 0-5.182-.638-7.466-1.846-.488-.258-.676-.862-.417-1.351.257-.489.863-.678 1.351-.417 3.996 2.111 9.068 2.11 13.066-.001.488-.26 1.094-.071 1.351.417.259.488.071 1.093-.417 1.351-2.285 1.208-4.867 1.847-7.468 1.847z"/></g><g><path d="m47 19.5c-.553 0-1-.447-1-1 0-7.72-6.28-14-14-14s-14 6.28-14 14c0 .553-.447 1-1 1s-1-.447-1-1c0-8.822 7.178-16 16-16s16 7.178 16 16c0 .553-.447 1-1 1z"/></g><g><path d="m17 27.502c-.553 0-1-.447-1-1v-4.002c0-.553.447-1 1-1s1 .447 1 1v4.002c0 .553-.447 1-1 1z"/></g><g><path d="m47 27.502c-.553 0-1-.447-1-1v-4.002c0-.553.447-1 1-1s1 .447 1 1v4.002c0 .553-.447 1-1 1z"/></g><g><path d="" style="fill:none;stroke:#000;stroke-width:2;stroke-linecap:round;stroke-linejoin:round;stroke-miterlimit:10"/></g><g><path d="" style="fill:none;stroke:#000;stroke-width:2;stroke-linecap:round;stroke-linejoin:round;stroke-miterlimit:10"/></g><g><path d="m49 23.5h-34c-.553 0-1-.447-1-1s.447-1 1-1h34c.553 0 1 .447 1 1s-.447 1-1 1z"/></g><g><path d="m49 23.5c-.272 0-.544-.11-.741-.328-.027-.027-3.655-3.672-16.259-3.672s-16.232 3.645-16.268 3.682c-.379.395-1.008.419-1.409.046-.4-.373-.432-.993-.064-1.399.16-.178 4.08-4.329 17.741-4.329s17.581 4.151 17.741 4.328c.371.409.34 1.042-.069 1.413-.192.173-.432.259-.672.259z"/></g><g><path d="m47 22.16c-.553 0-1-.447-1-1v-2.66c0-.553.447-1 1-1s1 .447 1 1v2.66c0 .553-.447 1-1 1z"/></g><g><path d="m17 22.16c-.553 0-1-.447-1-1v-2.66c0-.553.447-1 1-1s1 .447 1 1v2.66c0 .553-.447 1-1 1z"/></g><g><path d="m32 15.5c-2.206 0-4-1.794-4-4s1.794-4 4-4 4 1.794 4 4-1.794 4-4 4zm0-6c-1.103 0-2 .897-2 2s.897 2 2 2 2-.897 2-2-.897-2-2-2z"/></g><g><path d="m32 4.5c-.553 0-1-.447-1-1v-1c0-.553.447-1 1-1s1 .447 1 1v1c0 .553-.447 1-1 1z"/></g><g><path d="m46 62.5c-.553 0-1-.447-1-1v-6.001c0-.553.447-1 1-1s1 .447 1 1v6.001c0 .553-.447 1-1 1z"/></g><g><path d="m18.002 62.5c-.553 0-1-.447-1-1v-6.001c0-.553.447-1 1-1s1 .447 1 1v6.001c0 .553-.447 1-1 1z"/></g><g><path d="m35 46.199c-.553 0-1-.447-1-1v-3.998c0-.553.447-1 1-1s1 .447 1 1v3.998c0 .553-.447 1-1 1z"/></g><g><path d="m44 51.502c-3.309 0-6-2.691-6-6 0-.553.447-1 1-1s1 .447 1 1c0 2.206 1.794 4 4 4 .553 0 1 .447 1 1s-.447 1-1 1z"/></g><g><path d="m53.417 51.502h-9.417c-.553 0-1-.447-1-1s.447-1 1-1h9.417c.553 0 1 .447 1 1s-.447 1-1 1z"/></g><g><path d="m20 51.502c-.553 0-1-.447-1-1s.447-1 1-1c2.206 0 4-1.794 4-4 0-.553.447-1 1-1s1 .447 1 1c0 3.309-2.691 6-6 6z"/></g><g><path d="m20 51.502h-9.417c-.553 0-1-.447-1-1s.447-1 1-1h9.417c.553 0 1 .447 1 1s-.447 1-1 1z"/></g><g><path d="m38 57.501h-12c-.553 0-1-.447-1-1s.447-1 1-1h12c.553 0 1 .447 1 1s-.447 1-1 1z"/></g><g><path d="m34 60.501h-4c-.553 0-1-.447-1-1s.447-1 1-1h4c.553 0 1 .447 1 1s-.447 1-1 1z"/></g></g></svg>