<?xml version="1.0" encoding="iso-8859-1"?>
<!-- Generator: Adobe Illustrator 19.0.0, SVG Export Plug-In . SVG Version: 6.00 Build 0)  -->
<svg version="1.1" id="Layer_1" xmlns="http://www.w3.org/2000/svg" xmlns:xlink="http://www.w3.org/1999/xlink" x="0px" y="0px"
	 viewBox="0 0 511.99 511.99" style="enable-background:new 0 0 511.99 511.99;" xml:space="preserve">
<rect x="62.682" y="397.315" style="fill:#F5F7FA;" width="385.31" height="33.33"/>
<rect x="90.015" y="313.325" style="fill:#ED5564;" width="333.99" height="72.999"/>
<rect x="87.515" y="438.315" style="fill:#656D78;" width="59.5" height="64"/>
<rect x="130.505" y="221.825" style="fill:#DA4453;" width="255.99" height="85.999"/>
<rect x="368.495" y="438.315" style="fill:#656D78;" width="59.5" height="64"/>
<rect x="172.005" y="268.325" style="fill:#FFCE54;" width="168.99" height="118"/>
<path style="fill:#DA4453;" d="M371.997,56.671c0,0-17.312-17.328-20-20c-2.656-2.672-32-6.672-32-6.672H217.335
	c0,0-57.327,6-61.999,5.344s-27.328,28.655-27.328,28.655l2.5,73.999h253.488l2.5-31.327L371.997,56.671z"/>
<rect x="128.005" y="141.995" style="fill:#4FC2E9;" width="258.49" height="75.998"/>
<g>
	<rect x="91.765" y="205.325" style="fill:#CCD1D9;" width="33.25" height="102.5"/>
	<rect x="388.715" y="199.325" style="fill:#CCD1D9;" width="33.25" height="102.5"/>
</g>
<g>
	<path style="fill:#080808;" d="M447.995,383.992h-10.656v-53.327c0-9.469-4.125-17.969-10.688-23.827v-82.843v-21.327V10.672
		c0-5.906-4.75-10.672-10.656-10.672c-5.905,0-10.655,4.766-10.655,10.672v181.324h-10.688v-53.327V75.482
		c0-29.405-23.905-53.327-53.312-53.327H170.664c-29.406,0-53.327,23.922-53.327,53.327v63.187v53.327h-10.671V10.672
		C106.666,4.766,101.9,0,96.01,0c-5.906,0-10.671,4.766-10.671,10.672v191.996v21.327v82.843
		c-6.547,5.858-10.672,14.358-10.672,23.827v53.327H64.01c-5.906,0-10.671,4.766-10.671,10.672v42.654
		c0,5.906,4.766,10.672,10.671,10.672h10.656v53.328c0,5.906,4.781,10.672,10.672,10.672h63.999c5.891,0,10.672-4.766,10.672-10.672
		V447.99h191.988v53.328c0,5.906,4.781,10.672,10.656,10.672h63.998c5.906,0,10.688-4.766,10.688-10.672V447.99h10.656
		c5.906,0,10.656-4.766,10.656-10.672v-42.654C458.651,388.758,453.901,383.992,447.995,383.992z M351.997,383.992v-63.999h32
		h21.343c5.875,0,10.655,4.797,10.655,10.672v53.327H351.997z M138.665,202.668v-53.343h123.576l-63.999,63.998h-59.577V202.668z
		 M373.341,149.325v53.343v10.655H271.085l64.006-63.998H373.341z M351.997,298.666v-27.594l21.344-21.327v48.921H351.997z
		 M175.086,255.995l-21.328-21.328h204.488l-21.343,21.328H175.086z M240.913,213.323h-12.5l63.991-63.998h12.5L240.913,213.323z
		 M138.665,249.745l21.344,21.327v27.594h-21.344V249.745z M181.336,277.322h21.328v106.67h-21.328V277.322z M224.007,277.322
		h21.328v106.67h-21.328V277.322z M266.663,277.322h21.335v106.67h-21.335V277.322z M309.342,277.322h21.312v106.67h-21.312V277.322
		z M405.34,213.323v10.672v74.671h-10.688v-74.671v-10.672H405.34z M170.664,43.483H341.34c17.625,0,32,14.359,32,31.999v52.515
		h-42.688l0,0H138.665V75.482C138.665,57.843,153.024,43.483,170.664,43.483z M106.666,223.995v-10.672h10.671v10.672v74.671
		h-10.671V223.995z M96.01,330.665c0-5.875,4.781-10.672,10.656-10.672h21.343h32v63.999H96.01V330.665z M138.665,490.662H96.01
		V447.99h42.655V490.662z M415.995,490.662h-42.654V447.99h42.654V490.662z M437.339,426.663h-10.688h-63.998H149.337H85.338H74.666
		V405.32h95.998H341.34h95.998L437.339,426.663L437.339,426.663z"/>
	<path style="fill:#080808;" d="M138.665,341.32h-21.328c-5.89,0-10.671,4.781-10.671,10.672s4.781,10.672,10.671,10.672h21.328
		c5.891,0,10.672-4.781,10.672-10.672S144.556,341.32,138.665,341.32z"/>
	<path style="fill:#080808;" d="M394.652,341.32H373.34c-5.906,0-10.688,4.781-10.688,10.672s4.781,10.672,10.688,10.672h21.312
		c5.906,0,10.688-4.781,10.688-10.672S400.558,341.32,394.652,341.32z"/>
	<path style="fill:#080808;" d="M192.008,95.998h127.989c5.906,0,10.656-4.766,10.656-10.672c0-5.875-4.75-10.656-10.656-10.656
		H192.008c-5.906,0-10.671,4.781-10.671,10.656C181.336,91.232,186.102,95.998,192.008,95.998z"/>
</g>
<g>
</g>
<g>
</g>
<g>
</g>
<g>
</g>
<g>
</g>
<g>
</g>
<g>
</g>
<g>
</g>
<g>
</g>
<g>
</g>
<g>
</g>
<g>
</g>
<g>
</g>
<g>
</g>
<g>
</g>
</svg>
