<?xml version="1.0" encoding="iso-8859-1"?>
<!-- Generator: Adobe Illustrator 19.0.0, SVG Export Plug-In . SVG Version: 6.00 Build 0)  -->
<svg version="1.1" id="Layer_1" xmlns="http://www.w3.org/2000/svg" xmlns:xlink="http://www.w3.org/1999/xlink" x="0px" y="0px"
	 viewBox="0 0 511.936 511.936" style="enable-background:new 0 0 511.936 511.936;" xml:space="preserve">
<path style="fill:#AC92EB;" d="M417.781,262.83c0,111.174-90.131,201.305-201.306,201.305S15.17,374.004,15.17,262.83
	c0-111.175,90.131-201.306,201.306-201.306S417.781,151.655,417.781,262.83z"/>
<path d="M511.848,41.308c-0.734-5.843-6.077-9.967-11.92-9.233c-1.922,0.234-47.65,6.405-71.43,41.761
	c-14.514,21.591-17.545,48.838-8.968,80.959c8.843,33.137,9.093,63.461,5.827,88.646c-0.031-0.25-0.047-0.531-0.078-0.781
	c-0.031-0.516-0.078-1.031-0.172-1.531c-5.608-47.323-26.746-91.115-60.977-125.33c-37.387-37.402-86.209-59.181-138.594-62.118
	c-0.438-0.063-0.891-0.094-1.344-0.094c-3.609-0.172-7.249-0.266-10.89-0.266c-56.978,0-110.534,22.185-150.827,62.477
	C22.185,156.076,0,209.648,0,266.626s22.185,110.55,62.477,150.827c40.292,40.292,93.849,62.492,150.827,62.492
	s110.55-22.2,150.827-62.492c6.687-6.656,12.842-13.718,18.514-21.061c0.078-0.125,0.156-0.219,0.25-0.344
	c12.123-15.811,21.856-33.09,29.043-51.4c3.625-5.516,15.686-25.138,25.028-54.932c10.015-31.934,18.701-82.209,3.172-140.421
	c-6.89-25.841-4.874-47.213,5.983-63.461c18.264-27.278,56.135-32.559,56.494-32.59C508.458,52.494,512.598,47.151,511.848,41.308z
	 M367.694,380.801c-59.072,23.81-122.596,32.934-189.042,27.152c1.672-8.967,3.531-17.904,5.546-26.746
	c14.795,1.188,29.45,1.781,43.933,1.781c53.588,0,105.036-8.094,153.67-24.201C377.614,366.397,372.926,373.77,367.694,380.801z
	 M128.251,438.825c2.328-50.01,11.592-99.317,27.56-146.64c13.389-39.621,31.465-77.944,53.759-113.956
	c27.356-44.183,56.462-76.773,71.508-91.318c8.248,3.109,16.279,6.796,24.043,11.03c-13.17,13.827-37.511,41.855-63.477,84.319
	c-15.936,26.091-30.09,53.744-42.292,82.568c-0.094,0.203-0.172,0.422-0.266,0.625c-4.609,10.952-8.968,22.044-12.999,33.325
	c-7.921,22.059-14.717,44.713-20.357,67.836c-0.109,0.359-0.203,0.719-0.281,1.094c-3.766,15.561-7,31.355-9.733,47.322
	c-0.094,0.391-0.172,0.797-0.219,1.234c0,0,0,0.016,0,0.031c-1.781,10.576-3.328,21.231-4.656,31.965
	C143.109,445.606,135.578,442.449,128.251,438.825z M228.224,75.226c10.124,0.765,20.107,2.328,29.84,4.655
	c-14.889,15.545-40.261,44.667-66.196,86.428c-23.247,37.418-42.12,77.319-56.087,118.534
	c-15.561,45.933-25.028,93.646-28.231,142.077c-7.733-5.124-15.154-10.857-22.169-17.154c0.813-45.025,8.64-90.364,23.279-134.797
	c12.139-36.902,28.997-73.304,50.088-108.175C185.323,122.861,214.054,89.521,228.224,75.226z M386.284,183.167
	c-21.888,7.156-75.054,22.294-134.032,23.06c2.328-4.062,4.703-8.077,7.125-12.061c3.844-6.312,7.718-12.358,11.545-18.123
	c34.527-0.391,61.979-4.843,79.258-8.64c10.279-2.265,18.231-4.531,23.605-6.233C378.457,168.231,382.629,175.59,386.284,183.167z
	 M402.751,235.317c-59.118,16.045-118.721,23.998-177.558,23.685c4.843-10.687,9.952-21.185,15.342-31.497
	c2.484,0.063,4.953,0.094,7.421,0.094c65.634,0,123.814-17.029,146.562-24.638C398.19,213.445,400.94,224.256,402.751,235.317z
	 M393.987,331.807c-63.352,24.199-132.109,33.746-204.617,28.402c2.515-9.562,5.218-19.014,8.14-28.371
	c10.108,0.531,20.169,0.797,30.215,0.797c59.274,0,117.518-9.297,173.762-27.732C399.643,314.074,397.127,323.057,393.987,331.807z
	 M405.282,266.626c0,4.905-0.188,9.812-0.547,14.655c-64.446,22.512-131.72,32.434-200.274,29.527c0.5-1.406,0.984-2.844,1.484-4.25
	c3.187-8.873,6.562-17.654,10.108-26.34c4.109,0.094,8.233,0.141,12.358,0.141c58.586,0,117.846-7.906,176.621-23.561
	C405.204,260.065,405.282,263.346,405.282,266.626z M360.147,142.953c-4.188,1.171-9.265,2.468-15.17,3.75
	c-13.514,2.937-33.668,6.312-58.838,7.546c15.062-20.482,28.576-35.762,37.48-44.792c8.984,6.327,17.498,13.482,25.436,21.419
	C352.945,134.766,356.631,138.797,360.147,142.953z M77.554,130.876c13.749-13.749,29.231-25.138,45.932-34.012
	c-10.124,13.124-21.904,29.903-33.699,50.073c-18.061,30.903-32.402,63.383-42.604,96.536c-8.312,26.965-13.889,54.432-16.67,82.084
	c-6.046-18.811-9.187-38.621-9.187-58.931C21.326,215.351,41.292,167.137,77.554,130.876z M49.76,367.272
	c-0.031-39.371,5.906-78.742,17.67-117.081c9.671-31.512,23.263-62.415,40.402-91.865c22.138-37.996,46.307-66.305,57.65-77.694
	c10.983-2.796,22.278-4.64,33.777-5.483c-14.577,16.561-36.387,43.713-58.4,80.006c-21.998,36.292-39.605,74.226-52.322,112.722
	c-13.124,39.745-21.044,80.194-23.622,120.58C59.353,381.707,54.306,374.614,49.76,367.272z M171.621,454.089
	c0.984-8.39,2.141-16.732,3.421-25.044c13.889,1.25,27.763,1.891,41.527,1.891c16.029,0,31.949-0.844,47.636-2.547
	c24.449-2.641,48.479-7.374,71.819-14.123c-34.402,28.699-77.351,44.338-122.721,44.338
	C199.118,458.604,185.151,457.073,171.621,454.089z"/>
<g>
</g>
<g>
</g>
<g>
</g>
<g>
</g>
<g>
</g>
<g>
</g>
<g>
</g>
<g>
</g>
<g>
</g>
<g>
</g>
<g>
</g>
<g>
</g>
<g>
</g>
<g>
</g>
<g>
</g>
</svg>
