<?xml version="1.0" encoding="iso-8859-1"?>
<!-- Generator: Adobe Illustrator 19.0.0, SVG Export Plug-In . SVG Version: 6.00 Build 0)  -->
<svg version="1.1" id="Layer_1" xmlns="http://www.w3.org/2000/svg" xmlns:xlink="http://www.w3.org/1999/xlink" x="0px" y="0px"
	 viewBox="0 0 511.943 511.943" style="enable-background:new 0 0 511.943 511.943;" xml:space="preserve">
<path style="fill:#FFCE54;" d="M407.45,53.993c-2-1-25.496-10.999-26.996-11.999L325.959,80.49l12.498,8.999l32.496,16.998
	c0,0,25.498-2.5,26.998-3s17.498-21.498,17.498-21.498l6.998-27.997C422.448,53.993,409.45,54.993,407.45,53.993z"/>
<path style="fill:#ED5564;" d="M427.948,29.652c0,10.14-7.391,18.342-16.498,18.342c-9.109,0-16.498-8.202-16.498-18.342
	c0-10.124,7.389-18.326,16.498-18.326C420.557,11.326,427.948,19.528,427.948,29.652z"/>
<rect x="73.991" y="462.95" style="fill:#656D78;" width="353.96" height="33.996"/>
<path d="M442.602,21.341h-1.828C436.385,8.921,424.51,0,410.606,0c-15.436,0-28.371,11.014-31.34,25.591l-59.119,42.433
	c-12.842-5.718-26.371-9.827-40.338-12.217c1.813-4.015,2.811-8.468,2.811-13.139c0-17.639-14.342-31.996-31.988-31.996
	c-17.639,0-31.997,14.357-31.997,31.996c0,4.671,1.023,9.124,2.836,13.139c-34.488,5.906-66.258,22.263-91.505,47.51
	c-29.45,29.45-46.799,67.773-49.573,108.941c-0.008,0.031-0.008,0.063-0.008,0.094c-0.258,3.843-0.398,7.718-0.398,11.624v223.975
	H69.324c-5.89,0-10.671,4.781-10.671,10.67v42.668c0,5.874,4.781,10.654,10.671,10.654h362.624c5.889,0,10.654-4.78,10.654-10.654
	v-42.668c0-5.889-4.766-10.67-10.654-10.67h-10.657V223.974c0-38.808-12.904-75.616-36.619-105.613
	c3.873-0.375,7.654-1.187,11.248-2.484c16.482-5.859,29.152-21.607,36.637-45.542c2.422-7.75,3.953-15.139,4.889-20.935
	c1.359-2.094,2.484-4.343,3.328-6.734h1.828c5.906,0,10.688-4.765,10.688-10.67C453.289,26.106,448.508,21.341,442.602,21.341z
	 M410.606,21.341c5.891,0,10.686,4.781,10.686,10.655s-4.795,10.67-10.686,10.67c-5.875,0-10.654-4.796-10.654-10.67
	C399.951,26.121,404.731,21.341,410.606,21.341z M344.114,107.534c4.188,3.39,8.248,6.999,12.092,10.858
	c23.123,23.123,37.73,52.494,42.246,84.303h-52.244c-1.344-17.561-5.969-35.34-13.842-53.041
	c-6.719-15.123-15.813-30.215-27.045-44.917c0.031-0.016,0.047-0.031,0.078-0.063l16.717-11.858c2,1.078,3.969,2.234,5.922,3.422
	C332.444,99.863,337.926,103.894,344.114,107.534z M154.642,224.036v31.934H101.32v-31.934H154.642z M101.32,277.312h53.322v106.645
	H101.32C101.32,383.957,101.32,277.312,101.32,277.312z M175.976,397.283c0.219-0.859,0.344-1.734,0.344-2.656
	s-0.125-1.797-0.344-2.656V224.036h63.993v223.912h-63.993V397.283z M293.057,87.302c-0.469,0.313-0.875,0.688-1.266,1.062
	c-3.359-3.75-6.641-7.233-9.734-10.405c5.875,1.25,11.688,2.875,17.342,4.812L293.057,87.302z M239.969,87.474v115.221h-63.493
	c2.07-22.357,11.241-53.494,39.496-88.958C224.408,103.144,232.907,94.254,239.969,87.474z M261.303,224.036h64v223.912h-64V224.036
	z M261.303,202.695V87.49c22.254,21.419,58.906,63.93,63.5,115.206L261.303,202.695L261.303,202.695z M239.969,42.666
	c0-5.89,4.781-10.67,10.663-10.67c5.882,0,10.671,4.78,10.671,10.67s-4.79,10.671-10.671,10.671
	C244.749,53.337,239.969,48.556,239.969,42.666z M145.05,118.392c20.646-20.638,46.276-34.496,74.171-40.433
	c-6.109,6.218-12.834,13.608-19.576,22.029c-12.959,16.201-23.302,32.902-30.747,49.666c-7.866,17.701-12.499,35.48-13.834,53.041
	H102.82C107.335,170.886,121.928,141.514,145.05,118.392z M101.32,405.297h53.322v42.651H101.32
	C101.32,447.948,101.32,405.297,101.32,405.297z M421.291,490.616h-31.996c0-5.89-4.779-10.671-10.686-10.671
	c-5.875,0-10.656,4.781-10.656,10.671h-21.34c0-5.89-4.766-10.671-10.656-10.671c-5.889,0-10.654,4.781-10.654,10.671h-21.342
	c0-5.89-4.781-10.671-10.654-10.671c-5.906,0-10.688,4.781-10.688,10.671h-21.316c0-5.89-4.782-10.671-10.671-10.671
	c-5.89,0-10.663,4.781-10.663,10.671h-21.333c0-5.89-4.773-10.671-10.663-10.671s-10.663,4.781-10.663,10.671h-21.333
	c0-5.89-4.773-10.671-10.663-10.671s-10.671,4.781-10.671,10.671h-21.326c0-5.89-4.781-10.671-10.671-10.671
	c-5.89,0-10.663,4.781-10.663,10.671H79.987V469.29H90.65h319.956h10.686v21.326H421.291z M346.614,447.949V224.036h53.338v223.912
	h-53.338V447.949z M388.764,95.785c-2.781,0.984-5.779,1.484-8.904,1.484c-13.826,0-28.889-9.717-38.809-17.919l42.559-30.231
	c5.686,8.937,15.654,14.873,26.996,14.873c0.547,0,1.078,0,1.594-0.031l0,0C408.434,76.022,401.295,91.317,388.764,95.785z"/>
<g>
</g>
<g>
</g>
<g>
</g>
<g>
</g>
<g>
</g>
<g>
</g>
<g>
</g>
<g>
</g>
<g>
</g>
<g>
</g>
<g>
</g>
<g>
</g>
<g>
</g>
<g>
</g>
<g>
</g>
</svg>
