<?xml version="1.0" encoding="iso-8859-1"?>
<!-- Generator: Adobe Illustrator 19.0.0, SVG Export Plug-In . SVG Version: 6.00 Build 0)  -->
<svg version="1.1" id="Layer_1" xmlns="http://www.w3.org/2000/svg" xmlns:xlink="http://www.w3.org/1999/xlink" x="0px" y="0px"
	 viewBox="0 0 511.942 511.942" style="enable-background:new 0 0 511.942 511.942;" xml:space="preserve">
<polygon style="fill:#656D78;" points="437.953,200.642 431.298,183.301 403.301,165.303 365.306,117.98 302.641,87.984 
	279.316,81.984 270.644,84.656 255.974,11.32 237.32,28.646 215.979,58.643 206.652,93.983 189.982,117.98 167.328,143.305 
	153.986,212.626 139.331,261.964 115.99,292.624 103.335,309.279 320.638,462.605 340.636,434.609 340.636,381.271 316.639,326.62 
	319.967,295.281 343.964,281.283 403.957,265.963 423.954,245.294 419.3,229.296 "/>
<polygon style="fill:#FFCE54;" points="105.663,309.622 81.322,333.619 312.296,496.945 324.966,464.605 "/>
<path d="M362.618,149.32c-5.875,0-10.655,4.781-10.655,10.655c0,5.905,4.78,10.686,10.655,10.686c5.905,0,10.67-4.781,10.67-10.686
	C373.288,154.101,368.524,149.32,362.618,149.32z"/>
<path d="M442.921,179.817l-27.934-17.436c-8.391-14.061-51.775-81.881-112.706-90.287c-10.03-1.39-18.936-2.156-27.153-2.375
	l-4.531-59.853c-0.25-3.5-2.233-6.656-5.28-8.421c-3.03-1.766-6.749-1.922-9.905-0.422c-2.188,1.031-50.495,24.778-61.806,98.661
	c-3.093,2.546-6.218,5.203-9.468,7.968l-1.812,1.547c-23.123,19.623-28.903,47.573-35.059,77.179
	c-8.765,42.245-18.701,90.154-79.038,135.742c-2.703,2.031-4.265,5.25-4.234,8.625c0.031,3.374,1.656,6.53,4.39,8.529
	l234.647,170.637c1.827,1.344,4.03,2.031,6.265,2.031c0.734,0,1.484-0.063,2.234-0.219c2.953-0.625,5.499-2.499,7.015-5.124
	c1.078-1.874,26.7-46.933,33.34-103.145c5.546-46.901-13.093-74.304-21.044-85.99c-0.531-0.781-1.141-1.655-1.625-2.405
	c2.313-20.654,18.436-24.467,46.057-29.247c13.593-2.344,27.653-4.749,39.105-11.093c14.326-7.944,22.092-20.787,23.075-38.128
	c0.188-3.093-0.983-6-3.03-8.062l4.437-5.125c1.141-1.297,1.938-2.859,2.327-4.531l6.484-27.559
	C448.702,186.863,446.796,182.254,442.921,179.817z M305.484,485.322L92.243,330.245c3.546-2.969,6.905-5.969,10.092-8.969
	l208.664,151.765C308.999,477.79,307.109,481.915,305.484,485.322z M421.018,211.423l-13.124,15.139
	c-2.468,2.844-3.249,6.75-2.062,10.312c1.155,3.578,4.124,6.265,7.78,7.093l0.922,0.188c-4.453,12.592-17.857,16.327-42.886,20.654
	c-13.937,2.406-28.372,4.874-40.214,11.569c-14.687,8.28-22.67,21.717-23.717,39.87c-0.266,4.78,2.156,8.312,5.469,13.218
	c7.187,10.561,22.122,32.496,17.514,71.492c-2.219,18.872-6.859,36.526-11.89,51.4L117.318,305.81
	c35.293-40.253,43.761-80.951,50.838-115.119c5.843-28.138,10.452-50.37,27.965-65.243l1.828-1.531
	c0.094-0.094,0.172-0.156,0.266-0.234c1.078,0.5,2.265,0.828,3.531,0.938c0.297,0.016,0.609,0.047,0.906,0.047
	c5.484,0,10.14-4.218,10.608-9.78c2.547-30.153,11.937-55.212,27.935-74.522c3.312-3.984,6.577-7.312,9.562-10.015l5.249,69.117
	c0.438,5.875,5.563,10.264,11.437,9.827c5.874-0.438,10.28-5.562,9.827-11.437l-0.516-6.749c6.812,0.281,14.279,0.969,22.622,2.125
	c56.009,7.718,98.005,81.272,98.427,82.022c0.875,1.563,2.125,2.875,3.656,3.812l23.684,14.811L421.018,211.423z"/>
<g>
</g>
<g>
</g>
<g>
</g>
<g>
</g>
<g>
</g>
<g>
</g>
<g>
</g>
<g>
</g>
<g>
</g>
<g>
</g>
<g>
</g>
<g>
</g>
<g>
</g>
<g>
</g>
<g>
</g>
</svg>
