<?xml version="1.0" encoding="iso-8859-1"?>
<!-- Generator: Adobe Illustrator 19.0.0, SVG Export Plug-In . SVG Version: 6.00 Build 0)  -->
<svg version="1.1" id="Layer_1" xmlns="http://www.w3.org/2000/svg" xmlns:xlink="http://www.w3.org/1999/xlink" x="0px" y="0px"
	 viewBox="0 0 511.952 511.952" style="enable-background:new 0 0 511.952 511.952;" xml:space="preserve">
<g>
	<path style="fill:#FFCE54;" d="M431.956,177.316l-8-43.323c0,0-33.323-19.998-34.65-22.67
		c-1.328-2.671-11.343-21.325-11.343-21.325l-17.998,13.326l-4,5.344l-18.653,31.324l-11.343,45.995l-12.654,29.996
		c0,0-27.341,12.671-33.34,12.671c-6,0-10-24.669-10-24.669l-26.652-39.996l-23.341-23.325l-21.998-5.999l-27.325-2.672
		l-39.323,11.999l-53.997,31.996L20.674,225.31l35.996-6.655l54.665-4l33.324,17.998l26.669,67.32l27.325,72.663l32.668,11.327
		l13.327,14.671l55.321,18.653l102.66-19.997l41.994-45.323l9.999-68.664L431.956,177.316z"/>
	<path style="fill:#FFCE54;" d="M464.952,86.794c0,21.436-17.373,38.809-38.809,38.809s-38.808-17.373-38.808-38.809
		c0-21.435,17.372-38.823,38.808-38.823S464.952,65.36,464.952,86.794z"/>
</g>
<g>
	<path style="fill:#ED5564;" d="M454.625,18.005c-5.344-2-24.17-4.499-24.17-4.499h-33.996l-4,13.498l14.997,14.498h24.748
		l25.747,3.5l9.999-14.998C467.952,30.004,459.952,20.005,454.625,18.005z"/>
	<polygon style="fill:#ED5564;" points="464.952,107.996 443.954,131.743 454.625,155.49 486.95,134.993 	"/>
</g>
<path d="M476.028,105.933c2.517-6.218,3.922-12.999,3.922-20.123c0-0.156-0.016-0.313-0.016-0.469h10.687
	c5.891,0,10.655-4.78,10.655-10.654c0-5.906-4.766-10.687-10.655-10.687h-15.295c-2.53-5.656-5.999-10.812-10.218-15.232
	l10.717-8.327c4.47-3.469,5.453-9.812,2.25-14.468c-0.719-1.047-17.95-25.591-50.01-25.966
	c-29.762-0.328-49.057,11.843-49.869,12.374c-3.078,1.969-4.938,5.405-4.891,9.062c0.031,3.687,1.953,7.062,5.078,8.999
	l17.623,10.842c-9.905,6.719-17.468,16.687-21.154,28.341c-53.15,65.806-63.211,118.611-65.102,136.891l-25.795,12.89
	c-17.903-56.979-45.899-89.865-83.35-97.833c-20.295-4.327-43.026-1.109-67.57,9.577c-18.857,8.187-38.902,20.842-59.603,37.559
	c-34.809,28.137-59.321,57.931-60.353,59.196c-3.063,3.749-3.219,9.108-0.375,13.014c2.858,3.938,7.983,5.438,12.498,3.688
	c46.698-18.186,80.429-21.904,100.271-11.093c12.717,6.937,19.997,19.779,25.106,35.371c0.109,0.374,0.219,0.732,0.359,1.093
	c3.437,10.75,5.874,22.779,8.39,35.09c1.016,5,2.046,10.063,3.155,15.062c0.063,0.406,0.156,0.797,0.266,1.188
	c3.484,15.499,7.843,30.606,15.312,42.996c11.17,18.529,27.465,28.418,49.65,30.074l4.124,8.89c1.141,2.5,3.219,4.438,5.766,5.438
	c4.171,1.656,36.823,14.312,61.087,17.717l-0.094,64.196h-21.343c-5.891,0-10.67,4.765-10.67,10.671
	c0,5.874,4.779,10.653,10.67,10.653h31.98h0.016h31.98h0.016h31.996c5.892,0,10.672-4.779,10.672-10.653
	c0-5.906-4.78-10.671-10.672-10.671h-21.31l0.078-66.04c28.294-4.563,64.228-16.123,88.1-44.683
	c25.341-30.34,31.465-72.897,18.2-126.485c-15.717-63.415-19.216-94.567-19.622-109.051l8.452,18.139
	c1.266,2.703,3.594,4.766,6.438,5.656c1.063,0.328,2.141,0.5,3.233,0.5c1.843,0,3.671-0.484,5.296-1.406l33.809-19.326
	c2.781-1.594,4.688-4.343,5.22-7.499c0.53-3.172-0.392-6.405-2.517-8.812L476.028,105.933z M407.848,23.505
	c5.608-1.297,12.343-2.25,19.967-2.156c11.468,0.125,20.092,5.015,25.607,9.483l-6.767,5.249
	c-6.312-2.609-13.248-4.077-20.498-4.077c-1.422,0-2.812,0.078-4.202,0.188L407.848,23.505z M426.159,53.345
	c17.904,0,32.465,14.561,32.465,32.465s-14.561,32.466-32.465,32.466c-17.903,0-32.465-14.562-32.465-32.466
	S408.254,53.345,426.159,53.345z M330.592,490.623h-10.655l0.078-63.196c3.062-0.063,6.655-0.188,10.671-0.438L330.592,490.623z
	 M423.799,366.155c-36.729,44.04-113.049,39.838-113.814,39.808c-0.156-0.031-0.328-0.031-0.5-0.031c-0.031,0-0.078,0-0.108,0
	c-0.017,0-0.017,0-0.031,0c-0.016,0-0.031,0-0.031,0c-15.295,0-45.463-10.124-59.946-15.546l-5.046-10.889
	c-1.734-3.781-5.516-6.188-9.671-6.188c-0.016,0-0.031,0-0.031,0c-30.449,0-41.214-17.967-49.057-48.558
	c5.046-1.594,11.498-2.952,17.232-2.188c5.827,0.75,11.186-3.357,11.951-9.186c0.766-5.844-3.343-11.219-9.187-11.969
	c-8.968-1.188-17.842,0.422-24.7,2.453c-0.219-1.016-0.422-2.031-0.625-3.063c-2.03-9.983-4.108-20.153-6.812-29.95
	c5.983-2.999,16.264-6.545,28.935-4.358c5.812,1,11.326-2.89,12.326-8.701c1-5.796-2.89-11.312-8.702-12.312
	c-16.639-2.875-30.402,0.953-39.573,5.093c-7.327-16.779-17.389-28.497-30.716-35.777c-1.03-0.563-2.093-1.094-3.155-1.594
	c20.061-4.874,45.276-7.937,69.148-2.171c5.718,1.375,11.482-2.141,12.857-7.874c1.375-5.734-2.14-11.483-7.874-12.858
	c-53.494-12.904-109.659,11.202-120.736,16.342c-8.843,0.813-18.342,2.469-28.605,5.063c8.53-8.374,18.653-17.639,29.809-26.622
	c29.466-23.778,72.305-50.479,109.05-42.651c31.653,6.749,55.479,38.729,70.836,95.021c0.844,3.093,3.016,5.64,5.938,6.937
	c2.922,1.313,6.266,1.234,9.123-0.188l42.651-21.342c3.625-1.796,5.906-5.437,5.906-9.483c0-0.141,0.219-14.357,7.92-37.604
	c9.016-27.153,23.264-51.854,37.027-71.617c6.547,17.998,22.467,31.559,41.823,34.73c-0.547,22.326,6.404,64.009,20.186,119.658
	C449.141,305.127,444.5,341.329,423.799,366.155z M461.577,142.992l-5.749-12.343c2.827-1.875,5.483-4.03,7.905-6.405l10.249,11.654
	L461.577,142.992z"/>
<g>
</g>
<g>
</g>
<g>
</g>
<g>
</g>
<g>
</g>
<g>
</g>
<g>
</g>
<g>
</g>
<g>
</g>
<g>
</g>
<g>
</g>
<g>
</g>
<g>
</g>
<g>
</g>
<g>
</g>
</svg>
