<?xml version="1.0" encoding="iso-8859-1"?>
<!-- Generator: Adobe Illustrator 19.0.0, SVG Export Plug-In . SVG Version: 6.00 Build 0)  -->
<svg version="1.1" id="Layer_1" xmlns="http://www.w3.org/2000/svg" xmlns:xlink="http://www.w3.org/1999/xlink" x="0px" y="0px"
	 viewBox="0 0 511.938 511.938" style="enable-background:new 0 0 511.938 511.938;" xml:space="preserve">
<path style="fill:#965353;" d="M483.285,307.29l-46.682-71.32l-19.311-85.99c0,0-60.682-81.99-62.68-82.662
	c-2-0.672-21.311,5.343-21.311,5.343l-14.686,21.998l-23.998,17.326l-14.654,3.327c0,0-45.995-7.999-47.995-7.999
	S83.323,73.989,83.323,73.989l-69.328-6.671l65.992,379.957l95.989-73.992l69.492-45.572l106.52,56.916l33.965,2.655l40.65,17.998
	h40.684l23.998-18.654l7.998-48.667L483.285,307.29z"/>
<path style="fill:#F5F7FA;" d="M410.449,91.487l-45.494,7.499l-52.994-2c0,0-14.998,4-16.498,4.5s-5,15.998-5,15.998l4.5,23.497
	l19.498,4.5l55.494-7.999l59.992-14.499l39.996-24.997l2.5-25.997L410.449,91.487z"/>
<polygon style="fill:#FFCE54;" points="256.639,342.458 234.22,332.46 217.471,336.959 215.972,345.458 214.472,372.454 
	206.973,397.952 261.467,397.952 261.467,375.454 "/>
<polygon style="fill:#656D78;" points="213.922,103.466 217.969,339.304 255.969,324.276 255.969,113.87 "/>
<path d="M362.643,194.85c-5.875,0-10.654,4.766-10.654,10.655s4.779,10.655,10.654,10.655c5.906,0,10.67-4.766,10.67-10.655
	S368.549,194.85,362.643,194.85z"/>
<path d="M475.77,273.81c-13.326-19.998-26.793-38.512-32.23-45.901c0.406-5.124,0.734-14.217-0.406-26.528
	c-0.922-9.78-10.607-35.559-22.715-61.337c20.715-7.593,37.277-17.888,49.275-30.684c9.107-9.687,15.623-20.998,18.811-32.684
	c2.5-9.124,2.188-15.529,2.156-16.232c-0.266-4.078-2.844-7.64-6.625-9.187s-8.125-0.797-11.154,1.922
	c-0.344,0.313-33.402,29.512-79.805,34.402c-0.531,0.063-1.094,0.094-1.656,0.156c-2.154-3.172-4.311-6.125-6.404-8.812
	c-12.078-15.515-22.576-22.748-33.059-22.748c-15.045,0-29.576,10.062-43.246,29.919c-1.438,0.141-2.75,0.359-4,0.688
	c-9.482,2.421-17.092,7.827-21.98,15.639c-0.859,1.344-1.594,2.75-2.25,4.218c-51.01-15.904-173.497-51.369-250.613-51.369
	c-7.312,0-14.146,0.328-20.31,0.969c-2.93,0.313-5.602,1.813-7.383,4.156c-1.78,2.343-2.515,5.312-2.03,8.218l63.992,383.957
	c0.609,3.687,3.102,6.779,6.578,8.154c1.272,0.5,2.608,0.75,3.937,0.75c2.289,0,4.563-0.734,6.444-2.156l118.487-89.771
	c-1.938,10.562-4.578,17.467-6.211,20.341c-1.859,2.906-2.116,6.438-0.805,9.656c1.313,3.218,4.195,5.468,7.585,6.249
	c0.891,0.188,7.977,1.687,23.686,2.187v0.156c0,5.906,4.772,10.688,10.662,10.688c5.891,0,10.663-4.781,10.663-10.688v-0.156
	c15.709-0.5,22.795-1.999,23.686-2.187c3.396-0.781,6.271-3.031,7.584-6.249c1.313-3.219,1.063-6.75-0.813-9.656
	c-2.141-3.78-6.047-14.592-7.795-31.512c41.604,38.668,108.377,42.309,124.406,42.605c9.469,5.717,31.123,17.842,44.34,17.842
	c13.654,0,45.775-7.922,49.385-8.813c2.813-0.719,5.219-2.531,6.67-5.03c0.781-1.375,19.311-33.887,19.311-59.306
	C511.938,337.522,507.83,321.991,475.77,273.81z M485.504,369.315c-2.219-4.265-2.969-7.921-2.125-10.78
	c0.875-2.969,3.641-5.515,6.859-7.546C489.504,356.8,487.707,363.191,485.504,369.315z M351.957,77.52
	c1.703,0,6.467,2.749,13.904,11.686c-1.063,0-2.109,0.016-3.156,0.016c-11.201,0-20.404-0.703-28.168-1.452
	C340.801,81.081,346.77,77.52,351.957,77.52z M309.992,107.453c0.25-0.063,0.969-0.219,2.641-0.219
	c3.047,0,7.266,0.469,12.607,1.031c9.094,0.969,21.529,2.281,37.465,2.281c10.561,0,21.529-0.594,32.621-1.75
	c26.279-2.781,48.51-12.076,64.523-20.997c-1.748,2.499-3.842,5.03-6.311,7.608c-31.043,32.262-94.459,39.042-142.172,39.042
	c-10.436,0-12.295-8.421-12.623-10.999C298.01,117.577,300.526,109.875,309.992,107.453z M245.304,118.343v198.993
	c-4.749,1.406-10.069,3.499-15.021,5.655c-2.266,0.188-4.367,0.5-6.312,0.938V112.25
	C231.486,114.359,238.626,116.39,245.304,118.343z M23.119,76.707c2.188-0.063,4.438-0.094,6.749-0.094
	c38.59,0,96.911,9.937,168.653,28.747c1.383,0.358,2.749,0.718,4.116,1.093v234.005L82.276,431.667L23.119,76.707z M234.501,386.828
	c-6.952,0-12.568-0.219-16.967-0.484c2.5-8.437,4.984-20.669,5.68-37.151c0.133-3.109,4.46-5.047,11.287-5.047
	c6.828,0,11.155,1.938,11.288,5.047c0.695,16.482,3.18,28.715,5.68,37.151C247.07,386.61,241.454,386.828,234.501,386.828z
	 M401.483,381.642c-3.266-2.672-11.219-9.718-15.779-15.998c-3.469-4.75-10.125-5.813-14.904-2.344
	c-4.594,3.328-5.719,9.654-2.688,14.373c-8.813-1.188-19.123-3.047-29.826-5.999c-34.605-9.546-58.695-25.903-71.654-48.589V124.717
	c4.131,1.266,7.896,2.422,11.287,3.484c3,16.342,16.467,27.575,33.449,27.575c33.902,0,63.555-3.172,88.428-9.437
	c13.092,27.45,21.592,51.588,22.092,57.04c1.531,16.326,0.094,25.747,0.094,25.81c-0.469,2.859,0.25,5.78,1.982,8.124
	c0.172,0.219,17.201,23.029,34.045,48.323c14.045,21.106,22.027,35.058,26.59,44.167c-0.563,0.281-1.141,0.563-1.719,0.859
	c-10.342,5.327-17.232,12.811-19.904,21.669c-3.563,11.749,0.313,24.669,11.453,38.495c-12.984,3.031-30.795,6.656-37.855,6.656
	C430.885,397.484,413.981,389.359,401.483,381.642z"/>
<g>
</g>
<g>
</g>
<g>
</g>
<g>
</g>
<g>
</g>
<g>
</g>
<g>
</g>
<g>
</g>
<g>
</g>
<g>
</g>
<g>
</g>
<g>
</g>
<g>
</g>
<g>
</g>
<g>
</g>
</svg>
