<?xml version="1.0" encoding="iso-8859-1"?>
<!-- Generator: Adobe Illustrator 19.0.0, SVG Export Plug-In . SVG Version: 6.00 Build 0)  -->
<svg version="1.1" id="Layer_1" xmlns="http://www.w3.org/2000/svg" xmlns:xlink="http://www.w3.org/1999/xlink" x="0px" y="0px"
	 viewBox="0 0 511.941 511.941" style="enable-background:new 0 0 511.941 511.941;" xml:space="preserve">
<rect x="38.652" y="158.001" style="fill:#FFCE54;" width="427.95" height="276.63"/>
<g>
	<rect x="12.001" y="129.481" style="fill:#965353;" width="478.6" height="27.996"/>
	<rect x="465.951" y="143.481" style="fill:#965353;" width="37.496" height="328.96"/>
	<rect x="16.498" y="437.951" style="fill:#965353;" width="468.2" height="31.497"/>
	<rect x="7.001" y="139.481" style="fill:#965353;" width="36.996" height="314.21"/>
</g>
<path style="fill:#FFCE54;" d="M279.282,62.337c0,11.217-9.094,20.325-20.318,20.325c-11.226,0-20.326-9.108-20.326-20.325
	c0-11.218,9.1-20.326,20.326-20.326C270.188,42.011,279.282,51.119,279.282,62.337z"/>
<g>
	<rect x="129.981" y="211.991" style="fill:#ED5564;" width="250.63" height="33.34"/>
	<path style="fill:#ED5564;" d="M417.11,370.208c0,10.077-8.156,18.248-18.248,18.248c-10.062,0-18.248-8.171-18.248-18.248
		s8.187-18.248,18.248-18.248C408.953,351.96,417.11,360.131,417.11,370.208z"/>
</g>
<path d="M501.287,117.33H460.26L287.936,62.899c-0.563-17.139-14.686-30.903-31.965-30.903s-31.395,13.764-31.965,30.902
	L51.682,117.33H10.663C4.773,117.33,0,122.096,0,127.985v341.306c0,5.874,4.773,10.654,10.663,10.654h490.624
	c5.874,0,10.654-4.78,10.654-10.654V127.986C511.942,122.096,507.161,117.33,501.287,117.33z M53.252,138.641
	c0.023,0,0.047,0.016,0.07,0.016c0.031,0,0.055-0.016,0.078-0.016h405.141c0.031,0,0.047,0.016,0.078,0.016
	c0.016,0,0.047-0.016,0.078-0.016h16.826l-10.67,10.686H47.081l-10.663-10.686H53.252z M458.604,170.637v255.971H53.33V170.637
	H458.604z M31.997,164.404v268.454l-10.663,10.67V153.733L31.997,164.404z M47.081,447.95h417.773l10.67,10.654H36.418
	L47.081,447.95z M479.946,432.858V164.404l10.655-10.671v289.795L479.946,432.858z M255.971,53.338
	c5.883,0,10.663,4.78,10.663,10.654c0,5.875-4.78,10.655-10.663,10.655c-5.882,0-10.663-4.78-10.663-10.655
	C245.308,58.118,250.089,53.338,255.971,53.338z M230.435,83.241c5.843,7.749,15.116,12.749,25.536,12.749
	c10.421,0,19.686-5,25.529-12.749l107.924,34.09H122.518L230.435,83.241z"/>
<path d="M85.991,309.309h223.318c5.875,0,10.655-4.781,10.655-10.686c0-5.875-4.78-10.656-10.655-10.656H85.991
	c-5.89,0-10.663,4.781-10.663,10.656C75.327,304.528,80.1,309.309,85.991,309.309z"/>
<path d="M85.991,351.96h223.318c5.875,0,10.655-4.78,10.655-10.655c0-5.905-4.78-10.686-10.655-10.686H85.991
	c-5.89,0-10.663,4.78-10.663,10.686C75.327,347.18,80.1,351.96,85.991,351.96z"/>
<path d="M85.991,394.612h105.988c5.89,0,10.663-4.766,10.663-10.654c0-5.891-4.773-10.656-10.663-10.656H85.991
	c-5.89,0-10.663,4.766-10.663,10.656C75.327,389.846,80.1,394.612,85.991,394.612z"/>
<path d="M127.986,255.971h255.972c5.889,0,10.654-4.78,10.654-10.655V213.32c0-5.905-4.766-10.687-10.654-10.687H127.986
	c-5.89,0-10.663,4.781-10.663,10.687v31.996C117.323,251.191,122.096,255.971,127.986,255.971z M138.649,223.975h234.652v10.654
	H138.649V223.975z"/>
<path d="M394.612,341.305c-17.623,0-31.996,14.342-31.996,31.996c0,17.623,14.373,31.997,31.996,31.997
	c17.654,0,31.996-14.374,31.996-31.997C426.608,355.647,412.266,341.305,394.612,341.305z M394.612,383.957
	c-5.874,0-10.654-4.781-10.654-10.656c0-5.889,4.78-10.686,10.654-10.686c5.891,0,10.687,4.797,10.687,10.686
	C405.298,379.176,400.502,383.957,394.612,383.957z"/>
<path d="M383.957,319.964c0,5.89,4.78,10.655,10.654,10.655c5.906,0,10.687-4.766,10.687-10.655s-4.78-10.655-10.687-10.655
	C388.738,309.309,383.957,314.075,383.957,319.964z"/>
<path d="M371.99,339.992c4.171-4.155,4.155-10.904,0-15.076c-4.156-4.172-10.905-4.172-15.093,0c-4.155,4.172-4.155,10.921,0,15.076
	C361.084,344.164,367.833,344.18,371.99,339.992z"/>
<path d="M432.326,339.992c4.172-4.155,4.172-10.904,0-15.076c-4.156-4.172-10.905-4.172-15.076,0
	c-4.172,4.172-4.172,10.921,0,15.076C421.421,344.18,428.17,344.18,432.326,339.992z"/>
<g>
</g>
<g>
</g>
<g>
</g>
<g>
</g>
<g>
</g>
<g>
</g>
<g>
</g>
<g>
</g>
<g>
</g>
<g>
</g>
<g>
</g>
<g>
</g>
<g>
</g>
<g>
</g>
<g>
</g>
</svg>
