<?xml version="1.0" encoding="iso-8859-1"?>
<!-- Generator: Adobe Illustrator 19.0.0, SVG Export Plug-In . SVG Version: 6.00 Build 0)  -->
<svg version="1.1" id="Layer_1" xmlns="http://www.w3.org/2000/svg" xmlns:xlink="http://www.w3.org/1999/xlink" x="0px" y="0px"
	 viewBox="0 0 512 512" style="enable-background:new 0 0 512 512;" xml:space="preserve">
<polygon style="fill:#FFCE54;" points="491.975,192.676 402.672,138.636 383.987,100.03 345.991,81.36 319.775,26.695 
	299.34,54.691 275.999,22.039 256.009,15.368 246.01,36.693 266.008,73.361 266.008,92.031 233.34,110.686 171.347,67.362 
	180.689,106.029 210.014,142.025 206.015,146.025 144.021,213.346 97.354,276.667 11.364,400.653 184.017,495.985 277.343,249.342 
	292.685,255.997 397.985,252.013 432.669,251.342 481.976,258.669 500.661,246.014 500.661,218.673 "/>
<g>
	<polygon style="fill:#965353;" points="198.516,159.977 122.024,244.498 204.515,221.501 	"/>
	<polygon style="fill:#965353;" points="231.012,270.995 161.691,280.995 133.351,296.993 171.347,322.661 235.011,330.989 
		259.337,277.995 	"/>
	<polygon style="fill:#965353;" points="96.699,325.989 87.356,295.665 44.705,351.658 75.357,389.981 94.355,402.98 
		101.354,376.312 	"/>
	<polygon style="fill:#965353;" points="177.346,359.329 147.693,349.331 145.693,376.655 143.693,424.321 153.692,449.991 
		187.345,449.991 196.344,445.647 211.342,376.655 	"/>
</g>
<path d="M319.775,138.636c-5.874,0-10.655,4.78-10.655,10.686c0,5.875,4.781,10.655,10.655,10.655
	c5.905,0,10.687-4.78,10.687-10.655C330.462,143.416,325.681,138.636,319.775,138.636z"/>
<path d="M494.692,189.614c0-0.016,0-0.016,0-0.031c-0.094-0.109-0.188-0.203-0.281-0.297c-0.125-0.156-0.25-0.281-0.375-0.422
	c-0.094-0.109-0.219-0.234-0.344-0.328c-0.094-0.125-0.219-0.219-0.344-0.344c-0.125-0.094-0.25-0.203-0.375-0.313
	c-0.125-0.094-0.25-0.188-0.374-0.281c-0.156-0.094-0.281-0.188-0.438-0.281c-0.031-0.031-0.094-0.078-0.125-0.109l-44.526-27.919
	l-46.682-34.418l-7.875-31.449c-0.875-3.484-3.438-6.296-6.843-7.468c-0.594-0.219-6.874-2.406-16.592-4.875l-48.026-63.836
	c-1.999-2.656-5.093-4.219-8.436-4.25c-0.031,0-0.063,0-0.094,0c-3.281,0-6.375,1.5-8.406,4.094L294.37,30.116L274.999,4.26
	c-1.875-2.483-4.711-4.015-7.788-4.233s-6.108,0.906-8.296,3.093l-21.326,21.325c-3.094,3.078-3.983,7.733-2.266,11.765
	l5.594,13.014c0.125,0.266,0.25,0.547,0.391,0.797l14.482,27.278v10.437c-8.655,3.671-16.014,7.28-20.873,9.779l-67.555-49.666
	c-3.687-2.702-8.687-2.765-12.436-0.141c-3.75,2.625-5.406,7.327-4.125,11.718l14.062,48.354c0.547,1.859,1.562,3.516,2.983,4.828
	l29.419,27.371c-10.233,9.858-29.028,28.872-53.65,57.775c-11.546,13.529-22.653,27.216-33.277,40.87
	c-0.063,0.078-0.125,0.156-0.156,0.219C99.12,253.06,88.59,267.246,78.608,281.167c-0.328,0.391-0.609,0.796-0.859,1.202
	c-14.155,19.811-27.185,39.089-38.934,57.228c-0.344,0.438-0.625,0.891-0.891,1.391c-14.076,21.748-26.294,41.84-36.433,59.119
	c-1.453,2.468-1.828,5.405-1.109,8.154c0.75,2.75,2.562,5.094,5.046,6.516l168.81,95.848c1.624,0.906,3.437,1.375,5.28,1.375
	c1.359,0,2.734-0.25,4.03-0.781c3.031-1.25,5.313-3.812,6.219-6.967c38.714-136.204,78.163-218.226,91.701-244.41
	c11.217,4.563,26.496,6.78,46.213,6.78c38.246,0,81.678-8.437,93.677-10.937l33.309,12.53c1.406,0.531,2.906,0.749,4.405,0.656
	l35.84-2.188c3.75-0.234,7.094-2.405,8.813-5.749c0.844-1.625,8.248-16.312,8.248-32.153
	C511.972,211.846,496.474,191.848,494.692,189.614z M312.808,41.178l25.434,33.809c-3.593-0.469-7.311-0.844-11.061-1.141
	l-19.529-26.06L312.808,41.178z M189.798,178.037c1.031,3.078,2.062,6.437,2.999,9.905c5.984,21.935,3.063,27.966,2.75,28.513
	c-1.375,1.14-9.03,6.14-42.042,12.482c-3.266,0.625-6.483,1.219-9.577,1.75c5.499-6.749,10.687-12.983,15.498-18.623
	C170.925,198.566,181.174,187.224,189.798,178.037z M88.855,335.441c1.703,2.827,3.938,13.577,3.156,31.591
	c-0.422,9.795-1.547,17.498-2.766,22.918c-6.999-8.107-18.061-23.996-29.465-43.494c7.202-11.03,14.279-21.561,21.185-31.559
	C82.903,322.27,85.466,329.802,88.855,335.441z M187.626,437.602c-13.343,1.906-28.388,1.469-32.262-2.312
	c-1.672-2.297-4.828-14.405-4.156-37.809c0.5-17.654,2.813-30.137,4.563-35.684c3.905,0.969,12.623,4.031,29.98,13.686
	c7.327,4.094,14.202,8.234,19.045,11.249C199.234,402.418,193.469,419.354,187.626,437.602z M230.98,318.537
	c-9.03-1.719-24.153-4.702-39.839-8.265c-23.186-5.234-36.699-9.249-44.495-12.014c4.499-1.828,11.029-4.125,20.435-6.891
	c15.749-4.656,33.371-8.843,46.245-11.904c5.562-1.344,9.952-2.375,13.029-3.188c6.969-1.813,14.983,1.938,20.592,5.687
	C242.214,292.243,236.839,304.429,230.98,318.537z M487.069,245.779l-27.029,1.656l-34.121-12.812
	c-1.938-0.733-4.03-0.874-6.062-0.437c-0.499,0.109-50.619,11.107-92.177,11.107c-28.684,0-39.934-5.296-44.089-8.452
	c-0.094-0.063-0.188-0.109-0.25-0.172c-0.188-0.141-0.375-0.266-0.563-0.391c-0.156-0.094-0.313-0.156-0.469-0.25
	c-0.094-0.063-0.219-0.141-0.344-0.203l-21.146-10.701c-5.25-2.672-11.687-0.563-14.343,4.687s-0.563,11.687,4.703,14.342
	l11.374,5.75c-1.766,3.374-3.922,7.608-6.422,12.687c-8.78-5.313-21.653-10.484-35.184-6.938c-2.844,0.734-7.343,1.813-12.561,3.063
	c-13.874,3.281-34.84,8.28-52.291,13.686c-27.435,8.469-37.637,14.967-38.996,24.748c-0.578,4.218,0.578,10.311,9.421,15.498
	c3.375,1.984,7.999,3.983,14.107,6.124c9.405,3.249,22.514,6.874,38.949,10.733c16.092,3.781,32.371,7.077,43.245,9.186
	c-3.406,8.609-6.952,17.811-10.577,27.576c-5.671-3.438-12.889-7.719-20.42-11.78c-9.811-5.28-18.122-9.155-24.716-11.499
	c-8.233-2.922-18.561-5.405-25.513,1.281c-2.812,2.719-6.39,7.843-9.062,23.747c-1.577,9.405-2.546,20.795-2.733,32.091
	c-0.375,25.871,3.062,42.682,10.232,50.025c6.516,6.655,17.015,9.904,32.044,9.904c1.438,0,2.937-0.031,4.468-0.094
	c1.406-0.031,2.781-0.125,4.125-0.219c-2.547,8.313-5.109,16.873-7.671,25.654L25.395,401.575
	c7.265-12.188,14.451-23.873,21.544-35.121c2.875,4.624,6.219,9.92,9.749,15.248c19.029,28.559,27.778,34.465,35.715,34.684
	c0.156,0,0.281,0,0.438,0c4.671,0,8.827-2.281,11.437-6.313c6.983-10.748,8.655-33.027,9.046-42.12
	c0.5-11.562,0.359-32.59-6.172-43.495c-4.749-7.905-7.874-24.403-9.218-33.637c9.265-12.842,18.139-24.7,26.497-35.527
	c6.484-0.891,19.217-2.734,32.996-5.39c37.027-7.093,47.558-13.374,52.244-17.467c9.374-8.155,10.687-23.529,4.188-48.354
	c-2.406-9.077-5.358-17.561-7.468-23.153c8.593-8.546,13.467-12.857,13.561-12.936c2.266-1.984,3.594-4.859,3.625-7.859
	c0.063-3.03-1.188-5.905-3.391-7.968l-35.654-33.168l-4.452-15.326l47.619,34.996c3.375,2.484,7.874,2.75,11.53,0.719
	c0.188-0.094,7.202-4,17.373-8.687c1.594,3.874,5.406,6.624,9.858,6.624c5.882,0,10.663-4.78,10.663-10.687V74.643
	c0-1.734-0.438-3.453-1.25-4.999l-15.521-29.247l-2.563-5.968l7.515-7.53l56.595,75.444c3.531,4.702,10.219,5.671,14.937,2.141
	c2.499-1.875,3.905-4.656,4.187-7.531c14.061,2.203,26.092,5.453,32.684,7.438l7.344,29.371c0.594,2.406,2.031,4.531,4.03,6
	l50.12,36.933c0.188,0.156,0.406,0.313,0.656,0.438l5.748,3.625c-2.874,0.031-4.687,0.094-4.998,0.125
	c-5.875,0.25-10.438,5.249-10.156,11.123c0.25,5.891,5.25,10.468,11.124,10.187c0.281-0.031,24.747-1.063,42.433,3.359
	c4.844,6.827,10.624,17.264,10.624,23.231C490.631,234.999,488.725,241.437,487.069,245.779z"/>
<g>
</g>
<g>
</g>
<g>
</g>
<g>
</g>
<g>
</g>
<g>
</g>
<g>
</g>
<g>
</g>
<g>
</g>
<g>
</g>
<g>
</g>
<g>
</g>
<g>
</g>
<g>
</g>
<g>
</g>
</svg>
