<?xml version="1.0" encoding="iso-8859-1"?>
<!-- Generator: Adobe Illustrator 19.0.0, SVG Export Plug-In . SVG Version: 6.00 Build 0)  -->
<svg version="1.1" id="Layer_1" xmlns="http://www.w3.org/2000/svg" xmlns:xlink="http://www.w3.org/1999/xlink" x="0px" y="0px"
	 viewBox="0 0 511.941 511.941" style="enable-background:new 0 0 511.941 511.941;" xml:space="preserve">
<rect x="9" y="273.971" style="fill:#965353;" width="492.94" height="126.49"/>
<polygon style="fill:#A0D468;" points="35.995,82.003 29.496,270.481 477.945,270.481 480.445,82.003 "/>
<rect x="75.33" y="313.311" style="fill:#FFCE54;" width="357.28" height="41.34"/>
<g>
	<rect x="32.659" y="396.651" style="fill:#965353;" width="61.993" height="35.31"/>
	<rect x="416.95" y="396.651" style="fill:#965353;" width="61.992" height="35.31"/>
</g>
<path d="M501.286,261.311H490.6V80.003c0-5.905-4.765-10.67-10.655-10.67H469.29c-1.656,0-3.297,0.391-4.781,1.125l-16.561,8.28
	l-16.561-8.28c-3-1.5-6.531-1.5-9.53,0l-16.561,8.28l-16.561-8.28c-3.016-1.5-6.546-1.5-9.562,0l-16.561,8.28l-16.561-8.28
	c-3-1.5-6.531-1.5-9.53,0l-16.561,8.28l-16.562-8.28c-2.999-1.5-6.529-1.5-9.529,0l-16.561,8.28l-16.568-8.28
	c-3.008-1.5-6.539-1.5-9.546,0l-16.561,8.28l-16.561-8.28c-3-1.5-6.538-1.5-9.538,0l-16.561,8.28l-16.561-8.28
	c-3-1.5-6.538-1.5-9.538,0l-16.561,8.28l-16.561-8.28c-3.007-1.5-6.538-1.5-9.546,0l-16.561,8.28l-16.561-8.28
	c-3-1.5-6.538-1.5-9.538,0l-16.561,8.28l-16.561-8.28c-1.484-0.734-3.117-1.125-4.773-1.125H31.996
	c-5.89,0-10.663,4.765-10.663,10.67v181.308h-10.67C4.773,261.311,0,266.076,0,271.973v127.986c0,5.905,4.773,10.654,10.663,10.654
	h10.67v21.342c0,5.905,4.773,10.654,10.663,10.654h63.993c5.89,0,10.663-4.749,10.663-10.654v-21.342h298.646v21.342
	c0,5.905,4.765,10.654,10.655,10.654h63.992c5.891,0,10.655-4.749,10.655-10.654v-21.342h10.687c5.874,0,10.654-4.749,10.654-10.654
	V271.973C511.941,266.075,507.16,261.311,501.286,261.311z M42.658,91.924l16.561,8.28c3.008,1.5,6.539,1.5,9.546,0l16.561-8.28
	l16.561,8.28c3,1.5,6.539,1.5,9.538,0l16.561-8.28l16.561,8.28c3,1.5,6.539,1.5,9.538,0l16.561-8.28l16.561,8.28
	c3.008,1.5,6.539,1.5,9.546,0l16.561-8.28l16.561,8.28c3,1.5,6.538,1.5,9.538,0l16.557-8.28l16.561,8.28c3,1.5,6.531,1.5,9.53,0
	l16.562-8.28l16.561,8.28c3.015,1.5,6.545,1.5,9.561,0l16.561-8.28l16.561,8.28c3,1.5,6.531,1.5,9.531,0l16.561-8.28l16.561,8.28
	c2.999,1.5,6.529,1.5,9.529,0l16.561-8.28l16.561,8.28c3.016,1.5,6.547,1.5,9.563,0l16.561-8.28v169.387h-10.688v-95.989
	c0-5.89-4.764-10.671-10.654-10.671s-10.655,4.781-10.655,10.671v95.989h-21.341v-95.989c0-5.89-4.781-10.671-10.655-10.671
	c-5.905,0-10.687,4.781-10.687,10.671v95.989H373.3v-95.989c0-5.89-4.78-10.671-10.686-10.671c-5.875,0-10.655,4.781-10.655,10.671
	v95.989h-21.341v-95.989c0-5.89-4.766-10.671-10.655-10.671s-10.655,4.781-10.655,10.671v95.989h-21.342v-95.989
	c0-5.89-4.78-10.671-10.654-10.671c-5.898,0-10.679,4.781-10.679,10.671v95.989h-21.326v-95.989c0-5.89-4.781-10.671-10.671-10.671
	s-10.663,4.781-10.663,10.671v95.989H202.64v-95.989c0-5.89-4.773-10.671-10.663-10.671s-10.663,4.781-10.663,10.671v95.989h-21.333
	v-95.989c0-5.89-4.773-10.671-10.663-10.671s-10.67,4.781-10.67,10.671v95.989h-21.326v-95.989c0-5.89-4.781-10.671-10.671-10.671
	s-10.663,4.781-10.663,10.671v95.989H74.655v-95.989c0-5.89-4.773-10.671-10.663-10.671s-10.663,4.781-10.663,10.671v95.989H42.658
	V91.924z M85.325,421.3H42.658v-10.687h42.667C85.325,410.613,85.325,421.3,85.325,421.3z M469.29,421.3h-42.684v-10.687h42.684
	V421.3z M490.6,389.304h-10.655h-63.992H95.989H31.996H21.333V282.628h10.663h447.949H490.6V389.304z"/>
<path d="M437.293,303.969H74.655c-5.89,0-10.663,4.781-10.663,10.656v42.682c0,5.875,4.773,10.655,10.663,10.655h362.638
	c5.874,0,10.655-4.78,10.655-10.655v-42.682C447.949,308.75,443.167,303.969,437.293,303.969z M426.607,346.621H85.325v-21.31
	h341.281L426.607,346.621L426.607,346.621z"/>
<g>
</g>
<g>
</g>
<g>
</g>
<g>
</g>
<g>
</g>
<g>
</g>
<g>
</g>
<g>
</g>
<g>
</g>
<g>
</g>
<g>
</g>
<g>
</g>
<g>
</g>
<g>
</g>
<g>
</g>
</svg>
