<?xml version="1.0" encoding="iso-8859-1"?>
<!-- Generator: Adobe Illustrator 19.0.0, SVG Export Plug-In . SVG Version: 6.00 Build 0)  -->
<svg version="1.1" id="Layer_1" xmlns="http://www.w3.org/2000/svg" xmlns:xlink="http://www.w3.org/1999/xlink" x="0px" y="0px"
	 viewBox="0 0 511.949 511.949" style="enable-background:new 0 0 511.949 511.949;" xml:space="preserve">
<polygon style="fill:#FC6E51;" points="362.619,279.969 332.466,269.969 318.967,274.969 317.467,292.967 296.47,305.465 
	218.978,318.464 165.485,323.963 146.487,350.96 146.487,372.457 171.984,395.955 221.978,406.454 334.965,385.956 391.958,321.963 
	400.458,303.465 400.458,278.469 "/>
<rect x="239.974" y="69.991" style="fill:#FFCE54;" width="37.996" height="375.96"/>
<path d="M479.933,490.367c0-0.203-0.016-0.391-0.031-0.578c-0.016-0.172-0.031-0.328-0.047-0.5s-0.047-0.344-0.078-0.531
	c-0.031-0.172-0.063-0.344-0.094-0.499c-0.047-0.172-0.094-0.344-0.141-0.516s-0.094-0.328-0.141-0.484
	c-0.063-0.172-0.125-0.344-0.188-0.5s-0.125-0.313-0.188-0.469c-0.078-0.156-0.156-0.313-0.234-0.484
	c-0.078-0.141-0.156-0.297-0.234-0.453c-0.094-0.156-0.172-0.297-0.266-0.438c-0.109-0.156-0.203-0.313-0.313-0.453
	c-0.094-0.141-0.188-0.266-0.297-0.391c-0.109-0.156-0.234-0.313-0.359-0.453c-0.047-0.063-0.094-0.125-0.156-0.188l-77.192-84.912
	c37.823-38.184,58.633-88.771,58.633-142.547c0-54.134-21.075-105.019-59.352-143.296c-32.902-32.903-75.133-53.088-120.736-58.119
	c-0.078,0-0.141,0-0.219-0.016c-7.359-0.796-14.811-1.218-22.326-1.218c-7.515,0-14.951,0.422-22.325,1.218
	c-0.078,0.016-0.172,0.016-0.25,0.031c-45.589,5.015-87.818,25.2-120.721,58.103c-38.277,38.278-59.352,89.163-59.352,143.297
	c0,53.775,20.826,104.363,58.634,142.547l-21.544,23.716c-0.125-0.125-0.25-0.234-0.359-0.344
	c-44.325-44.339-68.728-103.254-68.728-165.919c0-5.905-4.781-10.67-10.67-10.67c-5.89,0-10.655,4.765-10.655,10.67
	c0,34.543,6.765,68.07,20.123,99.629c12.889,30.481,31.34,57.854,54.838,81.351c0.359,0.375,0.734,0.719,1.093,1.063l-41.292,45.417
	c-0.047,0.063-0.094,0.125-0.141,0.188c-0.141,0.141-0.25,0.297-0.375,0.453c-0.109,0.125-0.203,0.25-0.297,0.375
	c-0.109,0.156-0.203,0.313-0.297,0.469c-0.094,0.141-0.188,0.281-0.266,0.438c-0.094,0.156-0.172,0.313-0.25,0.469
	s-0.156,0.313-0.219,0.469c-0.078,0.156-0.141,0.313-0.203,0.469s-0.125,0.328-0.172,0.5c-0.063,0.156-0.109,0.313-0.156,0.5
	c-0.047,0.156-0.094,0.328-0.125,0.5c-0.047,0.155-0.063,0.327-0.094,0.499c-0.031,0.188-0.063,0.359-0.094,0.531
	c-0.016,0.172-0.031,0.328-0.047,0.5c-0.016,0.188-0.016,0.375-0.031,0.563c0,0.094,0,0.172,0,0.25c0,0.094,0,0.156,0,0.25
	c0.016,0.188,0.016,0.375,0.031,0.563c0.016,0.156,0.031,0.344,0.047,0.5c0.031,0.188,0.063,0.344,0.078,0.516
	c0.031,0.171,0.063,0.358,0.109,0.53c0.031,0.156,0.078,0.313,0.125,0.484c0.047,0.156,0.094,0.344,0.156,0.516
	c0.047,0.156,0.109,0.313,0.172,0.469c0.063,0.172,0.125,0.328,0.188,0.484c0.078,0.156,0.156,0.313,0.234,0.469
	s0.156,0.313,0.234,0.453c0.094,0.156,0.188,0.313,0.281,0.469c0.094,0.141,0.172,0.266,0.266,0.406
	c0.109,0.141,0.219,0.297,0.328,0.438s0.219,0.266,0.328,0.391s0.219,0.25,0.344,0.375c0.125,0.156,0.266,0.281,0.391,0.406
	c0.063,0.063,0.109,0.125,0.172,0.188c0.063,0.047,0.141,0.094,0.203,0.156c0.125,0.109,0.266,0.219,0.391,0.313
	c0.141,0.125,0.281,0.219,0.422,0.313c0.125,0.094,0.265,0.188,0.39,0.281c0.156,0.094,0.313,0.188,0.469,0.281
	c0.141,0.078,0.266,0.156,0.406,0.219c0.172,0.094,0.328,0.172,0.5,0.25c0.141,0.063,0.281,0.125,0.422,0.188
	c0.172,0.063,0.344,0.125,0.531,0.188c0.141,0.047,0.281,0.094,0.422,0.125c0.188,0.063,0.375,0.109,0.563,0.156
	c0.141,0.031,0.281,0.063,0.422,0.094c0.219,0.031,0.421,0.063,0.64,0.094c0.125,0.031,0.25,0.031,0.375,0.063
	c0.328,0.031,0.672,0.047,1.016,0.047l0,0l0,0h85.334c5.89,0,10.655-4.781,10.655-10.671s-4.765-10.655-10.655-10.655H66.777
	l25.044-27.559c19.435,16.279,41.042,29.496,64.508,39.433c31.543,13.343,65.04,20.106,99.567,20.122l0,0c0.031,0,0.047,0,0.078,0
	c5.891,0,10.655-4.78,10.655-10.67c0-5.891-4.765-10.671-10.655-10.671c-0.031,0-0.046,0-0.078,0l0,0
	c-55.322-0.016-107.707-19.061-149.718-54.024l21.544-23.686c30.309,24.856,66.774,40.184,105.691,44.464
	c0.078,0.016,0.156,0.031,0.219,0.031c7.374,0.796,14.826,1.218,22.341,1.218c7.516,0,14.967-0.422,22.326-1.218
	c0.078,0,0.141-0.016,0.219-0.031c38.917-4.28,75.382-19.607,105.691-44.464l60.961,67.055h-61.211
	c-5.891,0-10.672,4.766-10.672,10.655s4.781,10.671,10.672,10.671h85.318l0,0l0,0c0.344,0,0.688-0.016,1.031-0.047
	c0.125-0.031,0.25-0.031,0.375-0.063c0.203-0.031,0.421-0.063,0.624-0.094c0.156-0.031,0.297-0.063,0.438-0.094
	c0.188-0.047,0.359-0.094,0.547-0.156c0.156-0.031,0.297-0.094,0.438-0.125c0.172-0.063,0.344-0.125,0.516-0.188
	c0.156-0.063,0.297-0.125,0.422-0.188c0.172-0.078,0.344-0.156,0.5-0.25c0.141-0.063,0.281-0.141,0.406-0.219
	c0.156-0.094,0.313-0.188,0.469-0.281c0.141-0.094,0.266-0.188,0.405-0.281c0.141-0.094,0.281-0.188,0.406-0.313
	c0.141-0.094,0.266-0.203,0.406-0.313c0.063-0.063,0.125-0.109,0.188-0.156c0.063-0.063,0.109-0.125,0.172-0.188
	c0.141-0.125,0.266-0.25,0.406-0.406c0.109-0.125,0.234-0.25,0.344-0.375s0.219-0.25,0.328-0.391s0.219-0.297,0.313-0.438
	s0.188-0.266,0.266-0.406c0.109-0.156,0.203-0.313,0.297-0.469c0.078-0.141,0.156-0.297,0.219-0.453
	c0.094-0.156,0.172-0.313,0.234-0.469c0.078-0.156,0.141-0.313,0.203-0.484c0.063-0.156,0.109-0.313,0.172-0.469
	c0.047-0.172,0.109-0.359,0.156-0.516c0.031-0.172,0.078-0.328,0.109-0.484c0.047-0.172,0.078-0.359,0.109-0.53
	c0.031-0.172,0.063-0.328,0.078-0.516c0.016-0.156,0.031-0.344,0.047-0.5c0.016-0.188,0.031-0.375,0.031-0.563
	c0-0.094,0.016-0.156,0.016-0.25C479.949,490.523,479.933,490.445,479.933,490.367z M287.97,434.483v-27.092
	c13.999-3.155,26.904-6.467,36.309-8.982l-2.781,26.715C310.703,429.295,299.469,432.436,287.97,434.483z M314.359,302.31
	c2.452,2.593,4.671,4.312,5.515,4.921c1.905,1.391,4.108,2.063,6.296,2.063c3.281,0,6.531-1.516,8.608-4.375
	c3.483-4.765,2.453-11.42-2.312-14.904c-1.844-1.344-5.578-5.265-5.859-7.608c-0.031-0.203-0.063-0.5,0.609-1.296
	c1.656-1.953,2.813-2.016,3.438-2.031c4.108-0.172,10.576,4.405,13.654,7.545c2.656,2.719,6.405,3.719,9.874,3l0,0
	c0.031-0.016,0.063-0.031,0.094-0.031c0.234-0.063,0.484-0.109,0.733-0.188c8.109-2.031,15.343-3.374,20.42-3.374
	c0.813,0,1.531,0.031,2.109,0.124c6.828,0.875,12.342,2.063,16.576,3.219l-4.313,7.156c-2.14,3.562-1.999,8.061,0.344,11.498
	l0.359,0.531c-6.357,8.624-17.014,19.139-27.371,29.371c-12.499,12.359-25.389,25.092-33.418,36.871
	c-7.063,1.969-23.201,6.391-41.746,10.687v-73.882c4.375-1.203,7.203-2.047,7.672-2.172c0.328-0.109,0.656-0.219,0.984-0.344
	C300.828,307.371,307.093,304.95,314.359,302.31z M345.792,397.737l16.842,4.874c-5.969,4.374-12.17,8.343-18.592,11.905
	L345.792,397.737z M437.282,255.971c0,48.432-18.856,93.959-53.103,128.205c-0.641,0.641-1.297,1.265-1.953,1.905l-28.028-8.124
	c6.733-7.874,15.42-16.451,23.919-24.841c14.311-14.155,27.841-27.497,34.527-39.479c1.969-3.516,1.766-7.859-0.5-11.202
	l-0.531-0.781l7.453-12.405c1.483-2.469,1.905-5.437,1.155-8.248c-0.75-2.781-2.593-5.156-5.124-6.563
	c-1.188-0.656-12.233-6.499-34.824-9.437c-1.484-0.188-3.109-0.297-4.844-0.297c-5.655,0-12.795,1.109-20.544,2.828
	c-5.39-4.28-14.671-10.108-24.935-9.78c-7.375,0.25-13.951,3.578-19.045,9.608c-3.875,4.608-5.797,9.952-5.625,15.545
	c-7.904,2.906-13.842,5.28-16.17,6.218c-0.281,0.063-0.656,0.188-1.141,0.313V77.46c36.246,6.406,69.633,23.716,96.209,50.307
	C418.425,161.997,437.282,207.539,437.282,255.971z M223.978,396.08c-1.469,0.063-2.89,0.094-4.25,0.094
	c-5.328,0-8.358-0.5-9.952-0.922c-49.541-13.092-57.321-29.543-58.399-32.824c1.625-10.562,7.046-19.561,15.732-26.06
	c9.452-7.093,21.998-10.843,36.277-10.843c1.5,0,3.015,0.047,4.546,0.125c1.218,0.078,2.515,0.109,3.859,0.109
	c3.703,0,7.812-0.266,12.186-0.734v71.055H223.978z M208.823,416.797c3.188,0.469,6.781,0.719,10.905,0.719
	c1.375,0,2.796-0.031,4.25-0.094v17.061c-10.765-1.906-21.279-4.781-31.418-8.563L208.823,416.797z M127.77,127.767
	c26.575-26.591,59.946-43.901,96.208-50.307v226.13c-4.453,0.531-8.593,0.844-12.186,0.844c-0.953,0-1.859-0.031-2.688-0.063
	c-1.906-0.125-3.828-0.172-5.718-0.172c-18.92,0-35.887,5.219-49.057,15.077c-11.264,8.437-18.919,19.622-22.498,32.684h-4.921
	c-5.89,0-10.671,4.765-10.671,10.655c0,5.89,4.781,10.67,10.671,10.67h5.89c1.672,3.422,4.312,7.391,8.452,11.656
	c8.733,8.982,21.841,16.795,39.121,23.355l-11.795,6.594c-11.936-6.563-23.154-14.529-33.496-23.811
	c-0.313-0.359-0.641-0.719-1-1.047c-0.344-0.328-0.719-0.609-1.094-0.858c-1.766-1.625-3.515-3.297-5.218-4.999
	c-34.246-34.245-53.119-79.772-53.119-128.204S93.524,161.997,127.77,127.767z M245.304,436.95V74.961
	c3.546-0.188,7.093-0.313,10.67-0.313c3.563,0,7.125,0.125,10.655,0.313v361.99c-3.53,0.219-7.093,0.328-10.655,0.328
	C252.396,437.279,248.85,437.169,245.304,436.95z"/>
<path d="M511.945,255.971c0-34.558-6.779-68.086-20.122-99.645c-12.89-30.481-31.341-57.869-54.854-81.366
	c-23.497-23.498-50.885-41.964-81.366-54.838C324.044,6.765,290.517,0,255.974,0c-5.89,0-10.67,4.765-10.67,10.655
	s4.781,10.67,10.67,10.67c62.665,0,121.596,24.403,165.919,68.727c44.308,44.308,68.711,103.239,68.711,165.919l0,0l0,0
	c0,5.875,4.78,10.655,10.671,10.655C507.164,266.626,511.945,261.846,511.945,255.971L511.945,255.971L511.945,255.971z"/>
<path d="M362.619,309.293c5.89,0,10.67-4.781,10.67-10.67c0-5.891-4.78-10.656-10.67-10.656c-5.891,0-10.655,4.766-10.655,10.656
	C351.963,304.512,356.728,309.293,362.619,309.293z"/>
<g>
</g>
<g>
</g>
<g>
</g>
<g>
</g>
<g>
</g>
<g>
</g>
<g>
</g>
<g>
</g>
<g>
</g>
<g>
</g>
<g>
</g>
<g>
</g>
<g>
</g>
<g>
</g>
<g>
</g>
</svg>
