<?xml version="1.0" encoding="iso-8859-1"?>
<!-- Generator: Adobe Illustrator 19.0.0, SVG Export Plug-In . SVG Version: 6.00 Build 0)  -->
<svg version="1.1" id="Layer_1" xmlns="http://www.w3.org/2000/svg" xmlns:xlink="http://www.w3.org/1999/xlink" x="0px" y="0px"
	 viewBox="0 0 511.94 511.94" style="enable-background:new 0 0 511.94 511.94;" xml:space="preserve">
<polygon style="fill:#4FC2E9;" points="197.983,255.966 115.992,333.286 115.992,393.95 177.313,393.95 301.299,263.294 "/>
<g>
	<polygon style="fill:#48CFAD;" points="322.968,358.454 297.972,358.454 291.972,369.953 294.472,399.95 304.97,416.449 
		322.968,416.449 330.468,393.95 	"/>
	<polygon style="fill:#48CFAD;" points="374.462,314.46 349.466,314.46 343.466,325.958 345.966,355.954 356.464,372.452 
		374.462,372.452 381.962,349.956 	"/>
	<polygon style="fill:#48CFAD;" points="437.955,314.46 412.958,314.46 406.958,325.958 409.458,355.954 419.957,372.452 
		437.955,372.452 445.454,349.956 	"/>
	<polygon style="fill:#48CFAD;" points="492.948,355.845 467.952,355.845 461.952,367.345 464.452,397.341 474.951,413.839 
		492.948,413.839 500.448,391.341 	"/>
	<path style="fill:#48CFAD;" d="M453.267,432.947c-1.188-2.5-15.812-19.107-15.812-19.107l-36.495-15.389h-18.998l-25.998,15.389
		l-19.997,16.107v24.685l-5.499,21.81l7.998,18.998l10.5-3.999l32.996-9.499l35.496,2l27.996,7.499l7.813-7.499l2.687-14.998
		C455.953,468.943,454.453,435.447,453.267,432.947z"/>
</g>
<polygon style="fill:#F5F7FA;" points="325.968,122.981 208.638,250.967 311.22,255.966 381.962,184.974 "/>
<path style="fill:#E6E9ED;" d="M453.267,22.993L343.466,132.98l33.496,30.856L481.2,60.989
	C481.2,60.989,451.954,26.992,453.267,22.993z"/>
<path d="M395.695,202.332c2.734,0,5.453-1.047,7.546-3.125c4.155-4.171,4.155-10.921,0-15.077l-15.092-15.092l98.036-98.036
	l7.545,7.546c2.078,2.078,4.813,3.125,7.547,3.125s5.452-1.047,7.546-3.125c4.155-4.171,4.155-10.937,0-15.092L448.486,3.12
	c-4.172-4.156-10.921-4.156-15.092,0c-4.156,4.171-4.156,10.921,0,15.092l7.546,7.53l-98.036,98.051l-7.546-7.546l0,0l-7.546-7.546
	c-4.156-4.156-10.921-4.156-15.076,0c-4.172,4.171-4.172,10.92,0,15.092L108.712,327.818c-2.016,2-3.125,4.719-3.125,7.546v55.915
	L3.13,493.736c-4.171,4.172-4.171,10.922-0.016,15.077c2.094,2.093,4.812,3.124,7.546,3.124s5.468-1.031,7.546-3.124
	l102.457-102.457h55.916c2.828,0,5.546-1.125,7.546-3.125l204.024-204.024C390.226,201.285,392.96,202.332,395.695,202.332z
	 M456.016,40.835l11.858,11.842l3.233,3.25l-98.036,98.02l-3.233-3.218l-11.858-11.842L456.016,40.835z M251.992,305.195
	l-7.546-7.545c-4.156-4.156-10.905-4.156-15.076,0c-4.171,4.171-4.171,10.92,0,15.092l7.546,7.53l-30.168,30.185l-7.546-7.563
	c-4.156-4.156-10.921-4.156-15.077,0c-4.171,4.172-4.171,10.937,0,15.092l7.53,7.547l-19.498,19.497h-45.245v-45.261l69.164-69.148
	h90.505L251.992,305.195z M342.497,214.69l-7.546-7.53c-4.171-4.171-10.921-4.171-15.076,0c-4.171,4.156-4.171,10.905,0,15.076
	l7.53,7.546l-19.498,19.498h-90.505l110.41-110.394l45.26,45.245L342.497,214.69z"/>
<path d="M394.616,384.843c-41.167,0-74.663,33.496-74.663,74.662c0,15.312,1.421,25.811,4.483,33.06
	c5.188,12.343,14.701,14.186,19.904,14.186c7.358,0,14.873-3.405,22.826-7.015c8.514-3.859,18.153-8.233,27.449-8.233
	c9.327,0,18.936,3.999,27.419,7.546c7.874,3.281,15.311,6.391,22.513,6.391c9,0,16.123-4.859,20.061-13.655
	c3.188-7.093,4.672-17.357,4.672-32.278C469.281,418.339,435.784,384.843,394.616,384.843z M444.595,484.097
	c-0.016,0-0.031,0-0.047,0c-2.938,0-8.717-2.406-14.295-4.75c-9.827-4.093-22.045-9.186-35.637-9.186
	c-13.904,0-26.294,5.623-36.262,10.139c-5.108,2.313-10.857,4.922-13.717,5.109c-0.859-1.391-3.344-7.031-3.344-25.904
	c0-29.402,23.92-53.337,53.322-53.337s53.322,23.935,53.322,53.337C447.939,477.941,445.345,483.019,444.595,484.097z"/>
<path d="M479.935,342.175c-8.904,0-16.873,4.641-22.622,12.233c0.844-3.858,1.296-7.952,1.296-12.233
	c0-23.903-14.061-42.651-31.996-42.651s-31.996,18.748-31.996,42.651c0,23.936,14.061,42.668,31.996,42.668
	c8.922,0,16.873-4.641,22.623-12.234c-0.828,3.875-1.297,7.969-1.297,12.234c0,23.918,14.061,42.666,31.996,42.666
	c17.951,0,31.996-18.748,31.996-42.666C511.931,360.923,497.886,342.175,479.935,342.175z M426.613,363.517
	c-4.343,0-10.67-8.313-10.67-21.342c0-13.014,6.327-21.326,10.67-21.326c4.344,0,10.671,8.313,10.671,21.326
	C437.283,355.204,430.956,363.517,426.613,363.517z M479.935,406.168c-4.344,0-10.654-8.312-10.654-21.325
	c0-13.015,6.311-21.326,10.654-21.326c4.359,0,10.671,8.312,10.671,21.326C490.606,397.857,484.294,406.168,479.935,406.168z"/>
<path d="M362.62,299.524c-17.936,0-31.996,18.748-31.996,42.651c0,4.281,0.453,8.375,1.297,12.233
	c-5.75-7.593-13.702-12.233-22.623-12.233c-17.951,0-31.996,18.748-31.996,42.668c0,23.918,14.045,42.666,31.996,42.666
	c17.936,0,31.996-18.748,31.996-42.666c0-4.266-0.453-8.359-1.297-12.234c5.75,7.594,13.702,12.234,22.623,12.234
	c17.951,0,31.996-18.732,31.996-42.668C394.616,318.272,380.572,299.524,362.62,299.524z M309.298,406.168
	c-4.359,0-10.67-8.312-10.67-21.325c0-13.015,6.311-21.326,10.67-21.326c4.344,0,10.655,8.312,10.655,21.326
	C319.953,397.857,313.642,406.168,309.298,406.168z M362.62,363.517c-4.344,0-10.671-8.313-10.671-21.342
	c0-13.014,6.327-21.326,10.671-21.326s10.67,8.313,10.67,21.326C373.29,355.204,366.964,363.517,362.62,363.517z"/>
<g>
</g>
<g>
</g>
<g>
</g>
<g>
</g>
<g>
</g>
<g>
</g>
<g>
</g>
<g>
</g>
<g>
</g>
<g>
</g>
<g>
</g>
<g>
</g>
<g>
</g>
<g>
</g>
<g>
</g>
</svg>
