<?xml version="1.0" encoding="iso-8859-1"?>
<!-- Generator: Adobe Illustrator 19.0.0, SVG Export Plug-In . SVG Version: 6.00 Build 0)  -->
<svg version="1.1" id="Layer_1" xmlns="http://www.w3.org/2000/svg" xmlns:xlink="http://www.w3.org/1999/xlink" x="0px" y="0px"
	 viewBox="0 0 511.949 511.949" style="enable-background:new 0 0 511.949 511.949;" xml:space="preserve">
<polygon style="fill:#FC6E51;" points="403.954,161.984 373.301,132.987 403.954,97.991 350.96,88.992 336.962,109.99 
	276.969,117.989 239.973,138.987 205.977,179.982 205.977,218.649 218.975,272.971 237.974,298.641 279.969,319.966 
	323.963,321.793 365.959,309.311 394.127,282.626 414.953,234.975 414.953,202.636 "/>
<path style="fill:#F5F7FA;" d="M359.553,218.634c0,27.122-21.966,49.104-49.088,49.104s-49.104-21.982-49.104-49.104
	c0-27.106,21.981-49.088,49.104-49.088S359.553,191.527,359.553,218.634z"/>
<polygon style="fill:#656D78;" points="8.499,371.96 14.499,425.453 202.977,241.975 202.977,181.482 "/>
<polygon style="fill:#434A54;" points="54.994,390.457 24.997,427.453 370.458,427.453 370.458,390.457 "/>
<rect x="376.454" y="390.453" style="fill:#FFCE54;" width="35.996" height="39.496"/>
<path d="M309.309,282.626c35.277,0,63.992-28.7,63.992-63.993c0-35.277-28.715-63.993-63.992-63.993c-35.293,0-64,28.715-64,63.993
	C245.308,253.927,274.016,282.626,309.309,282.626z M309.309,175.982c23.529,0,42.651,19.139,42.651,42.651
	c0,23.529-19.122,42.683-42.651,42.683c-23.528,0-42.667-19.154-42.667-42.683C266.642,195.121,285.781,175.982,309.309,175.982z"/>
<path d="M309.309,229.32c5.875,0,10.655-4.781,10.655-10.687c0-5.874-4.78-10.655-10.655-10.655c-5.906,0-10.67,4.781-10.67,10.655
	C298.639,224.539,303.403,229.32,309.309,229.32z"/>
<path d="M479.946,378.616h-10.654c0-5.875-4.781-10.655-10.672-10.655c-5.889,0-10.67,4.78-10.67,10.655h-31.996h-42.652H79.078
	l119.947-119.939c16.396,45.041,59.642,77.288,110.284,77.288c25.028,0,48.244-7.874,67.305-21.278c0.563,0,1.188,0,1.875,0
	c8.405,0,25.622-0.266,44.62-2.031c37.37-3.5,61.478-10.78,73.679-22.248c10.874-10.248,15.951-27.605,15.061-51.588
	c-0.672-17.685-4.499-39.386-11.436-64.493c-11.687-42.417-28.903-82.584-32.527-88.943c-1.906-3.328-5.438-5.39-9.266-5.39h-42.666
	c0-5.89-4.781-10.655-10.655-10.655h-31.997c-5.904,0-10.67,4.765-10.67,10.655h-10.671c-2.999,0-5.874,1.281-7.89,3.5
	l-17.389,19.123c-5.719-0.859-11.561-1.281-17.373-1.281c-42.815,0-80.342,23.044-100.824,57.384L3.125,364.086
	c-2.093,2.094-3.132,4.843-3.125,7.593v60.274c0,0,0.008,0.016,0.008,0.031c0,0.344,0.016,0.688,0.047,1.016
	c0.016,0.172,0.047,0.328,0.07,0.484c0.023,0.188,0.047,0.375,0.086,0.547c0.031,0.172,0.086,0.359,0.125,0.547
	c0.047,0.156,0.078,0.313,0.125,0.469c0.055,0.172,0.117,0.344,0.18,0.5c0.055,0.172,0.109,0.328,0.172,0.484
	c0.07,0.156,0.148,0.313,0.219,0.469c0.078,0.156,0.148,0.327,0.234,0.483c0.078,0.141,0.172,0.281,0.258,0.438
	s0.172,0.313,0.273,0.453c0.109,0.156,0.227,0.313,0.344,0.469c0.093,0.109,0.179,0.25,0.281,0.359
	c0.445,0.563,0.945,1.047,1.484,1.5c0.125,0.094,0.25,0.188,0.375,0.281c0.156,0.109,0.305,0.219,0.469,0.344
	c0.148,0.094,0.305,0.187,0.461,0.28c0.141,0.078,0.281,0.156,0.43,0.25c0.164,0.094,0.32,0.156,0.484,0.219
	c0.156,0.094,0.305,0.156,0.46,0.219c0.156,0.063,0.32,0.125,0.484,0.188s0.328,0.125,0.5,0.172
	c0.164,0.047,0.328,0.078,0.484,0.125c0.18,0.047,0.352,0.094,0.531,0.141c0.188,0.031,0.375,0.047,0.563,0.063
	c0.156,0.031,0.313,0.063,0.469,0.078c0.352,0.047,0.703,0.047,1.055,0.047l0,0l0,0h362.63h42.652h63.992l0,0
	c8.546,0,16.592-3.312,22.623-9.373c6.046-6.031,9.373-14.061,9.373-22.623C511.942,392.989,497.6,378.616,479.946,378.616z
	 M362.631,399.957v21.325H36.418l21.326-21.325H362.631z M479.868,180.044c13.482,48.948,14.326,83.507,2.297,94.833
	c-4.766,4.469-18.998,12.561-60.853,16.498c-7.468,0.719-14.702,1.156-21.2,1.469c16.561-20.248,26.512-46.088,26.512-74.21
	c0-18.748-4.296-36.683-12.795-53.291c-6.219-12.202-14.686-23.357-24.747-32.715l31.293-31.293h31.513
	C457.464,113.911,470.448,145.829,479.868,180.044z M309.309,122.66c6.469,0,12.936,0.641,19.217,1.922
	c3.672,0.75,7.468-0.5,9.998-3.281l18.154-19.967h33.527l-24.449,24.435c-2.172,2.187-3.313,5.218-3.094,8.312
	c0.219,3.062,1.766,5.905,4.234,7.765c24.402,18.326,38.401,46.323,38.401,76.788c0,52.931-43.058,95.99-95.989,95.99
	s-95.997-43.059-95.997-95.99C213.312,165.718,256.377,122.66,309.309,122.66z M193.057,234.475L21.334,406.206v-30.169
	l171.504-171.496c-0.563,4.625-0.852,9.327-0.852,14.092C191.986,224.008,192.353,229.289,193.057,234.475z M383.957,399.957h21.341
	v21.325h-21.341V399.957z M487.493,418.174c-2.016,1.999-4.703,3.108-7.547,3.108l0,0h-53.322v-21.325h21.326
	c0,5.89,4.781,10.654,10.67,10.654c5.891,0,10.672-4.765,10.672-10.654h10.654c5.875,0,10.671,4.78,10.671,10.654
	C490.617,413.471,489.507,416.143,487.493,418.174z"/>
<g>
</g>
<g>
</g>
<g>
</g>
<g>
</g>
<g>
</g>
<g>
</g>
<g>
</g>
<g>
</g>
<g>
</g>
<g>
</g>
<g>
</g>
<g>
</g>
<g>
</g>
<g>
</g>
<g>
</g>
</svg>
