<?xml version="1.0" encoding="iso-8859-1"?>
<!-- Generator: Adobe Illustrator 19.0.0, SVG Export Plug-In . SVG Version: 6.00 Build 0)  -->
<svg version="1.1" id="Layer_1" xmlns="http://www.w3.org/2000/svg" xmlns:xlink="http://www.w3.org/1999/xlink" x="0px" y="0px"
	 viewBox="0 0 511.933 511.933" style="enable-background:new 0 0 511.933 511.933;" xml:space="preserve">
<path style="fill:#FFCE54;" d="M460.939,190.474l-52.994-37.996l-26.496-47.494l-52.995-24.998l-18.998,26.997l-13.998,66.993
	l10.498,59.993l50.994,83.99l21.998,3.499h67.492c0,0,15.498-12.998,15.998-14.998s18.998-32.496,18.998-32.496l12.998-38.496
	l6.203-18.497V197.91L460.939,190.474z"/>
<path style="fill:#FC6E51;" d="M359.95,316.631l-37.996-47.994c0,0-26.496-80.007-26.496-87.334s21.841-76.647,21.841-76.647
	l7.327-42.667l-29.168-20.67l-74.82-14.654h-57.994l-49.322,11.326L52.657,76.658L11.333,123.98L202.64,490.611l44.667-6.671
	l67.993-25.326l43.994-37.339l4.656-72.647L359.95,316.631z"/>
<path d="M508.09,233.813c2.499-3.969,3.843-7.281,3.843-10.78c0-8.343-6.467-21.248-13.857-27.653
	c-5.53-4.796-26.606-13.811-39.762-19.186l-28.652-24.56c-1.094-1.641-2.609-2.938-4.406-3.78l-7.436-6.375l-3.75-9.968
	c-0.375-1.03-0.922-1.999-1.594-2.874c-22.123-27.997-60.056-52.088-71.008-58.743c-2.766-5.281-9.139-14.562-22.888-24.061
	c-24.528-16.982-61.478-27.684-109.832-31.809c-6.983-0.609-13.998-0.906-20.841-0.906c-29.59,0-57.853,5.625-83.959,16.748
	C83.076,38.74,63.547,51.13,45.924,66.644c-29.997,26.435-44.104,52.791-44.682,53.9c-1.656,3.124-1.656,6.843,0,9.968
	l191.978,362.63c0.063,0.141,0.156,0.266,0.234,0.422c0.047,0.094,0.109,0.188,0.172,0.281c0.141,0.219,0.281,0.438,0.438,0.625
	c0.063,0.094,0.125,0.156,0.188,0.25c0.125,0.156,0.25,0.313,0.391,0.469c0.047,0.063,0.109,0.125,0.172,0.203
	c0.406,0.422,0.828,0.828,1.281,1.172c0.063,0.063,0.141,0.094,0.203,0.156c0.172,0.125,0.359,0.25,0.531,0.375
	c0.078,0.031,0.141,0.094,0.234,0.141c0.219,0.141,0.469,0.281,0.719,0.406c0.063,0.047,0.141,0.078,0.219,0.109
	c0.188,0.094,0.375,0.172,0.563,0.25c0.109,0.047,0.219,0.094,0.344,0.125c0.156,0.063,0.344,0.125,0.5,0.188
	c0.125,0.031,0.219,0.063,0.328,0.094c0.266,0.078,0.515,0.141,0.796,0.188c0.094,0.031,0.203,0.047,0.313,0.063
	c0.188,0.031,0.375,0.063,0.578,0.094c0.109,0,0.219,0.016,0.328,0.031c0.266,0.016,0.531,0.031,0.813,0.031
	c0.031,0,0.047,0,0.063,0c0.031,0,0.031,0,0.063,0c0.219,0,0.438,0,0.656-0.031c2.031-0.125,50.275-3.406,97.645-19.748
	c59.446-20.514,75.741-64.867,78.96-98.457c1.875-19.748-0.469-37.918-3-50.307c17.561,2.578,45.058,6.249,59.712,6.249l0,0
	c1.969,0,3.656-0.063,5.155-0.188c25.045-2.094,30.419-22.903,30.622-23.778c0.156-0.594,0.25-1.188,0.281-1.797l0.484-6.891
	c19.357-14.154,21.856-42.775,22.716-52.712c0.016-0.281,0.047-0.594,0.078-0.875c1-1.547,3.188-4.375,4.719-6.344
	c3.016-3.905,5.468-7.155,7.312-10.045C508.043,233.875,508.059,233.844,508.09,233.813z M257.525,469.021
	c-18.498,4.093-34.84,6.327-44.948,7.467c-1.672-34.762,2.375-66.617,12.077-94.848c8.53-24.717,21.388-46.776,38.246-65.555
	c20.091-22.342,41.244-34.809,52.4-40.371c8.248,13.311,18.247,26.325,29.98,38.996c-9.14,5.749-21.951,15.248-35.059,29.465
	c-14.014,15.186-25.513,32.746-34.199,52.182C266.211,418.339,259.993,442.757,257.525,469.021z M247.838,300.961
	c-19.013,20.919-33.496,45.479-43.089,72.991c-7.515,21.623-11.999,45.059-13.389,70.086l-24.388-46.057
	c-0.016-0.188-0.016-0.359-0.031-0.531c-5.78-59.307,5.609-104.832,33.871-135.313c16.311-17.593,37.824-29.919,63.961-36.605
	c11.03-2.844,20.639-4,27.028-4.5c0.75,3.063,1.594,6.093,2.531,9.124c2.766,9.062,6.312,17.998,10.623,26.856
	C291.989,263.56,269.491,277.12,247.838,300.961z M287.927,199.91c-21.997,1.937-68.148,10.529-102.582,47.525
	c-24.997,26.872-38.683,63.118-40.871,108.05l-30.465-57.555c0.047-0.297,0.094-0.594,0.109-0.906
	c3.891-47.87,21.201-84.772,51.448-109.676c28.434-23.403,63.618-32.121,88.115-35.309c14.592-1.906,27.248-2.125,35.871-1.922
	C286.521,166.773,285.99,183.411,287.927,199.91z M294.739,128.949c-9.218-0.422-24.686-0.5-43.12,1.844
	c-39.339,5.015-73.742,18.841-99.473,39.964c-28.325,23.263-46.792,55.181-55.104,95.114l-32.464-61.305
	c8.905-32.496,27.435-58.806,55.134-78.241c23.544-16.482,53.775-28.216,89.88-34.871c41.933-7.733,82.209-6.718,104.395-5.187
	C307.831,96.36,300.301,110.92,294.739,128.949z M60.031,82.657c15.92-14.014,33.496-25.169,52.26-33.168
	c23.466-9.983,48.901-15.045,75.616-15.045c6.25,0,12.639,0.281,19.029,0.828c29.465,2.515,70.242,9.155,97.145,26.513
	c1.406,0.905,2.719,1.796,3.922,2.687c-24.106-1.297-61.836-1.391-101.754,5.906c-39.246,7.171-72.414,20.075-98.551,38.323
	c-26.06,18.217-45.089,41.683-56.806,70.008L22.88,125.793C27.957,117.669,40.112,100.202,60.031,82.657z M358.7,378.546
	c-3.781,39.809-25.559,66.82-64.68,80.318c-4.797,1.656-9.624,3.172-14.436,4.547c2.624-20.779,7.857-40.136,15.623-57.681
	c7.624-17.248,17.717-32.841,29.996-46.339c10.843-11.904,22.061-20.607,30.59-26.121C358.075,344.05,360.419,360.626,358.7,378.546
	z M475.141,245.233c-0.203,1.078-0.313,2.203-0.484,4.063c-0.656,7.546-2.594,29.856-14.874,37.917
	c-4.046,0.094-14.873-0.094-35.512-3.249c-5.826-0.875-11.264,3.124-12.154,8.937s3.109,11.264,8.937,12.154
	c13.64,2.063,23.481,2.969,30.325,3.313c-0.891,1.859-3.719,6.063-11.343,6.688c-0.891,0.094-2.031,0.125-3.375,0.125
	c-17.372,0-57.149-6.031-68.96-7.891c-26.154-26.387-43.918-54.229-52.807-82.818c-7.25-23.311-8.688-47.245-4.25-71.148
	c5.344-28.81,18.029-50.9,25.294-61.712c13.733,8.765,41.683,27.966,58.759,48.979l2.359,6.266h-13.42
	c-5.875,0-10.656,4.78-10.656,10.67c0,5.891,4.781,10.671,10.656,10.671h0.313c0,5.875,4.78,10.655,10.67,10.655
	c5.891,0,10.671-4.78,10.671-10.655h10.905l29.559,25.31c0.875,0.75,1.844,1.344,2.922,1.781
	c14.576,5.921,32.262,13.842,35.496,16.264c1.172,1.047,2.438,2.813,3.516,4.672l-10.969-1.125
	c-5.873-0.594-11.092,3.655-11.701,9.53c-0.609,5.858,3.672,11.092,9.515,11.686l4.843,0.5
	C476.999,240.155,475.671,242.593,475.141,245.233z"/>
<g>
</g>
<g>
</g>
<g>
</g>
<g>
</g>
<g>
</g>
<g>
</g>
<g>
</g>
<g>
</g>
<g>
</g>
<g>
</g>
<g>
</g>
<g>
</g>
<g>
</g>
<g>
</g>
<g>
</g>
</svg>
