<?xml version="1.0" encoding="iso-8859-1"?>
<!-- Generator: Adobe Illustrator 19.0.0, SVG Export Plug-In . SVG Version: 6.00 Build 0)  -->
<svg version="1.1" id="Layer_1" xmlns="http://www.w3.org/2000/svg" xmlns:xlink="http://www.w3.org/1999/xlink" x="0px" y="0px"
	 viewBox="0 0 511.941 511.941" style="enable-background:new 0 0 511.941 511.941;" xml:space="preserve">
<path style="fill:#A0D468;" d="M375.301,240.319l-13.826-47.651l-15.826-43.354l15.826-26.997l7.171-38.652l-10.671-22.669
	l-18.326-25.669L293.983,20l-38.012,15.327L226.99,62.995l2,63.993c0,0-6,71.992-7,78.647c-1,6.656,20.998-7.655,20.998-7.655
	l49.994,2l31.59,4.499l14.404,51.494l-4.999,37.989l-28.997,81.99h11l38.994-24.998l14.999-23.996l18.998-46.994L375.301,240.319z"
	/>
<path style="fill:#FFCE54;" d="M421.968,75.494c0,0-25.997-22.997-27.497-23.997s-27.496-3-28.996-3.5l8.498,51.494l-12.498,43.495
	l56.994-22.498h18.497v-13.295L421.968,75.494z"/>
<polygon style="fill:#A0D468;" points="145.015,459.943 145.015,489.283 165.669,483.284 186.011,449.288 "/>
<path style="fill:#ED5564;" d="M342.977,245.475c-1-2-20.998-31.997-20.998-31.997l-30.996-15.498l-41.995-2.5l-20.498,7.999
	l-34.996,33.496l-27.981,49.486L142,375.951l-2.5,75.992l63.993-12l73.992-39.994l45.494-67.492l19.998-49.996
	C342.977,282.462,343.977,247.474,342.977,245.475z"/>
<path d="M298.639,107.194c5.889,0,10.654-4.765,10.654-10.655s-4.766-10.671-10.654-10.671c-5.891,0-10.672,4.781-10.672,10.671
	C287.967,102.428,292.748,107.194,298.639,107.194z"/>
<path d="M501.272,415.949H319.964v-26.811c17.545-11.154,32.168-23.215,43.62-36.059c20.592-23.059,31.043-48.557,31.043-75.771
	c0-52.19-25.903-98.794-38.074-117.823c30.685-1.922,52.65-18.045,62.15-26.45l15.201,5.078c1.109,0.359,2.25,0.547,3.374,0.547
	c2.219,0,4.405-0.688,6.249-2.016c2.781-2,4.422-5.234,4.422-8.655c0-28.122-8.515-50.775-25.294-67.352
	c-22.997-22.716-54.604-26.716-66.29-27.419c-15.201-13.998-35.48-22.56-57.727-22.56c-47.058,0-85.335,38.277-85.335,85.334v90.896
	c-5.249,4.952-13.342,14.951-22.153,34.402c-7.687,8.39-14.983,18.076-21.857,29.012c-17.482,27.88-29.825,70.687-36.668,127.244
	c-1.703,14.061-2.843,27.184-3.593,38.402H10.671C4.781,415.949,0,420.728,0,426.635c0,5.875,4.781,10.654,10.671,10.654h117.236
	c-0.359,9.781-0.375,15.813-0.375,16.375c0,3.686,1.859,6.904,4.687,8.842c-2.671,16.311-4.078,26.277-4.125,26.621
	c-0.438,3.063,0.484,6.156,2.5,8.5c2.031,2.313,4.968,3.656,8.062,3.656h21.326c3.562,0,6.89-1.781,8.874-4.75l27.793-41.684
	c10.952-3.561,21.826-8.123,32.606-13.686c2.39-1.25,4.781-2.563,7.14-3.875h264.876c5.89,0,10.67-4.779,10.67-10.654
	C511.942,420.728,507.161,415.949,501.272,415.949z M374.848,134.331c2.25-4.468,4.125-9.171,5.578-14.045l13.842,4.609
	C389.081,128.269,382.535,131.753,374.848,134.331z M425.514,112.818l-6.03-2c-0.031-0.016-0.077-0.031-0.108-0.047l-35.48-11.827
	c0.047-0.969,0.063-1.969,0.063-2.953c0-13.686-3.25-26.622-9-38.105c10.577,2.906,22.951,8.233,32.824,18.044
	C417.282,85.352,423.218,97.726,425.514,112.818z M298.639,31.999c35.276,0,63.992,28.715,63.992,63.993
	c0,35.292-28.716,63.993-63.992,63.993c-35.293,0-63.994-28.7-63.994-63.993C234.645,60.715,263.346,31.999,298.639,31.999z
	 M298.639,181.31c14.482,0,28.137-3.625,40.088-10.03c10.922,17.217,34.559,59.821,34.559,106.028
	c0,37.715-25.48,66.93-56.899,88.615c26.669-36.809,39.745-77.18,35.434-111.215c-2.39-18.826-12.077-36.668-27.247-50.229
	c-15.717-14.045-35.684-21.778-56.243-21.778c-11.421,0-22.685,2.312-33.684,6.874v-37.214
	C250.284,170.108,273.172,181.31,298.639,181.31z M187.369,261.646c12.655-20.186,26.7-35.372,41.746-45.121
	c12.78-8.296,25.966-12.483,39.214-12.483c34.309,0,59.071,27.7,62.321,53.354c4.296,33.816-12.483,75.938-44.901,112.744
	c-37.402,42.465-87.771,68.992-136.657,72.461C150.124,409.761,155.842,311.898,187.369,261.646z M154.28,479.941h-3.25
	c0.688-4.375,1.563-9.873,2.609-16.279c4.171-0.344,8.327-0.844,12.483-1.5L154.28,479.941z M268.47,415.761
	c9.593-4.031,19.685-8.719,29.81-14.061c0.109-0.063,0.234-0.125,0.359-0.188v14.436h-30.403
	C268.314,415.886,268.392,415.824,268.47,415.761z"/>
<g>
</g>
<g>
</g>
<g>
</g>
<g>
</g>
<g>
</g>
<g>
</g>
<g>
</g>
<g>
</g>
<g>
</g>
<g>
</g>
<g>
</g>
<g>
</g>
<g>
</g>
<g>
</g>
<g>
</g>
</svg>
