<?xml version="1.0" encoding="iso-8859-1"?>
<!-- Generator: Adobe Illustrator 19.0.0, SVG Export Plug-In . SVG Version: 6.00 Build 0)  -->
<svg version="1.1" id="Layer_1" xmlns="http://www.w3.org/2000/svg" xmlns:xlink="http://www.w3.org/1999/xlink" x="0px" y="0px"
	 viewBox="0 0 511.943 511.943" style="enable-background:new 0 0 511.943 511.943;" xml:space="preserve">
<g>
	<path style="fill:#F5F7FA;" d="M64.503,8.498l21.998,47.995h335.454l27.497-42.995C449.451,13.498,68.002,8.998,64.503,8.498z"/>
	<polygon style="fill:#F5F7FA;" points="426.453,456.948 86.5,460.947 65.503,497.943 443.951,500.443 	"/>
</g>
<polygon style="fill:#48CFAD;" points="84.016,60.68 84.016,452.636 427.985,452.636 433.297,56.493 "/>
<g>
	<rect x="77.002" y="202.48" style="fill:#E6E9ED;" width="358.95" height="105.99"/>
	<path style="fill:#E6E9ED;" d="M371.648,255.97c0,62.399-50.589,112.987-112.979,112.987c-62.399,0-112.987-50.588-112.987-112.987
		s50.588-112.987,112.987-112.987C321.059,142.983,371.648,193.571,371.648,255.97z"/>
</g>
<g>
	<path style="fill:#48CFAD;" d="M285.064,290.263c0,15.904-12.999,28.81-29.036,28.81c-16.045,0-29.043-12.905-29.043-28.81
		s12.999-28.793,29.043-28.793C272.065,261.47,285.064,274.359,285.064,290.263z"/>
	<path style="fill:#48CFAD;" d="M265.48,218.631c0,5.609-3.687,10.155-8.249,10.155c-4.562,0-8.249-4.546-8.249-10.155
		s3.687-10.155,8.249-10.155C261.793,208.476,265.48,213.022,265.48,218.631z"/>
	<path style="fill:#48CFAD;" d="M322.465,238.878c0,5.578-6.249,10.093-13.998,10.093c-7.718,0-13.998-4.515-13.998-10.093
		c0-5.577,6.28-10.092,13.998-10.092C316.216,228.786,322.465,233.301,322.465,238.878z"/>
	<path style="fill:#48CFAD;" d="M219.485,238.878c0,5.578-5.812,10.093-12.999,10.093s-12.999-4.515-12.999-10.093
		c0-5.577,5.812-10.092,12.999-10.092S219.485,233.301,219.485,238.878z"/>
</g>
<path d="M437.671,456.854c2.188-15.28,10.28-80.444,10.28-211.554c0-126.001-7.53-176.792-10.124-190.525l19.654-39.339
	c1.655-3.312,1.499-7.249-0.469-10.374C455.074,1.906,451.638,0,447.95,0H63.987c-3.687,0-7.124,1.906-9.062,5.062
	c-1.953,3.125-2.125,7.062-0.469,10.374l19.811,39.621c-2.203,15.045-10.28,77.835-10.28,190.244
	c0,22.669,0.344,44.073,0.906,63.915c0,0.031,0,0.047,0,0.078c0,0.109,0,0.203,0,0.297c2.25,79.147,7.937,133.625,9.468,147.093
	l-19.904,39.823c-1.656,3.313-1.484,7.219,0.469,10.374c1.938,3.14,5.375,5.062,9.062,5.062h383.964
	c3.688,0,7.124-1.922,9.062-5.062c1.968-3.155,2.124-7.062,0.469-10.374L437.671,456.854z M94.859,447.949
	c-1.953-18.717-6.203-64.508-8.296-127.985h58.603c22.169,38.214,63.524,63.993,110.8,63.993c47.284,0,88.654-25.779,110.808-63.993
	h58.867c-1.937,69.71-6.217,111.081-8.311,127.985H94.859z M94.593,63.992h323.144c2.343,15.061,6.873,52.854,8.373,127.985h-59.336
	c-22.154-38.23-63.524-63.993-110.808-63.993c-47.276,0-88.631,25.763-110.8,63.993H85.985
	C87.703,124.266,92.344,81.396,94.593,63.992z M85.328,245.3c0-11.155,0.078-21.826,0.234-31.997h49.745
	c-4.734,13.358-7.328,27.7-7.328,42.667c0,14.936,2.594,29.31,7.328,42.652H85.953C85.563,281.842,85.328,264.017,85.328,245.3z
	 M149.321,255.97c0-58.806,47.838-106.66,106.645-106.66c58.814,0,106.652,47.854,106.652,106.66
	c0,58.807-47.838,106.645-106.652,106.645C197.16,362.615,149.321,314.777,149.321,255.97z M376.647,213.303h49.807
	c0.094,10.077,0.156,20.732,0.156,31.997c0,19.17-0.156,36.917-0.469,53.323h-49.494c4.719-13.343,7.313-27.717,7.313-42.652
	C383.959,241.003,381.366,226.661,376.647,213.303z M430.703,21.325l-10.687,21.326h-25.403c0-5.875-4.781-10.655-10.654-10.655
	c-5.906,0-10.656,4.78-10.656,10.655h-21.341c0-5.875-4.78-10.655-10.655-10.655c-5.905,0-10.686,4.78-10.686,10.655H309.31
	c0-5.875-4.781-10.655-10.686-10.655c-5.875,0-10.656,4.78-10.656,10.655h-21.333c0-5.875-4.78-10.655-10.67-10.655
	s-10.655,4.78-10.655,10.655h-21.341c0-5.875-4.765-10.655-10.655-10.655s-10.67,4.78-10.67,10.655h-21.326
	c0-5.875-4.781-10.655-10.671-10.655s-10.67,4.78-10.67,10.655h-21.326c0-5.875-4.781-10.655-10.671-10.655
	c-5.89,0-10.655,4.78-10.655,10.655H91.922L81.251,21.325H430.703z M81.251,490.6l10.671-21.325h25.403
	c0,5.89,4.765,10.67,10.655,10.67c5.89,0,10.671-4.78,10.671-10.67h21.326c0,5.89,4.781,10.67,10.67,10.67
	c5.89,0,10.671-4.78,10.671-10.67h21.326c0,5.89,4.781,10.67,10.67,10.67c5.89,0,10.655-4.78,10.655-10.67h21.341
	c0,5.89,4.765,10.67,10.655,10.67c5.89,0,10.67-4.78,10.67-10.67h21.333c0,5.89,4.781,10.67,10.656,10.67
	c5.904,0,10.686-4.78,10.686-10.67h21.311c0,5.89,4.78,10.67,10.686,10.67c5.875,0,10.655-4.78,10.655-10.67h21.341
	c0,5.89,4.75,10.67,10.656,10.67c5.873,0,10.654-4.78,10.654-10.67h25.403l10.687,21.325H81.251z"/>
<path d="M213.314,287.966c0,23.529,19.139,42.652,42.652,42.652c23.537,0,42.66-19.123,42.66-42.652
	c0-23.527-19.123-42.667-42.66-42.667C232.452,245.3,213.314,264.439,213.314,287.966z M255.966,266.625
	c11.764,0,21.349,9.577,21.349,21.341c0,11.749-9.585,21.326-21.349,21.326c-11.749,0-21.326-9.577-21.326-21.326
	C234.639,276.202,244.217,266.625,255.966,266.625z"/>
<path d="M206.955,265.594c7.124,0,13.811-2.765,18.857-7.812c7.187-7.187,9.389-17.498,6.64-26.606
	c4.5,8.39,13.358,14.124,23.513,14.124c10.139,0,18.974-5.671,23.474-14.014c-0.719,2.438-1.125,5.031-1.125,7.655
	c0,7.125,2.781,13.811,7.811,18.857c5.063,5.031,11.75,7.796,18.873,7.796c7.125,0,13.812-2.765,18.842-7.796
	c5.031-5.046,7.813-11.733,7.813-18.857s-2.781-13.811-7.813-18.841c-5.03-5.046-11.717-7.812-18.842-7.812
	c-7.123,0-13.811,2.765-18.873,7.796c-1.843,1.859-3.405,3.953-4.623,6.202c0.749-2.437,1.124-4.999,1.124-7.655
	c0-14.701-11.944-26.653-26.661-26.653c-14.702,0-26.653,11.952-26.653,26.653c0,2.688,0.391,5.281,1.14,7.718
	c-1.203-2.25-2.75-4.375-4.64-6.265c-5.046-5.031-11.733-7.796-18.857-7.796s-13.827,2.765-18.857,7.796
	c-10.405,10.389-10.405,27.325,0,37.699C193.129,262.829,199.831,265.594,206.955,265.594z M301.218,235.16
	c1.375-1.343,2.937-1.562,3.78-1.562c0.813,0,2.406,0.219,3.75,1.562c1.375,1.375,1.563,2.953,1.563,3.781s-0.188,2.406-1.563,3.781
	c-1.344,1.343-2.938,1.562-3.75,1.562c-0.844,0-2.405-0.219-3.78-1.562c-1.344-1.375-1.563-2.953-1.563-3.781
	C299.656,238.113,299.874,236.535,301.218,235.16z M255.966,213.303c2.953,0,5.343,2.391,5.343,5.328s-2.391,5.343-5.343,5.343
	c-2.938,0-5.328-2.406-5.328-5.343S253.028,213.303,255.966,213.303z M203.175,235.16c1.359-1.343,2.953-1.562,3.781-1.562
	s2.406,0.219,3.765,1.562c2.078,2.094,2.078,5.468,0,7.562c-1.359,1.343-2.937,1.562-3.765,1.562s-2.422-0.219-3.781-1.562
	C201.097,240.628,201.097,237.254,203.175,235.16z"/>
<g>
</g>
<g>
</g>
<g>
</g>
<g>
</g>
<g>
</g>
<g>
</g>
<g>
</g>
<g>
</g>
<g>
</g>
<g>
</g>
<g>
</g>
<g>
</g>
<g>
</g>
<g>
</g>
<g>
</g>
</svg>
