<?xml version="1.0" encoding="iso-8859-1"?>
<!-- Generator: Adobe Illustrator 19.0.0, SVG Export Plug-In . SVG Version: 6.00 Build 0)  -->
<svg version="1.1" id="Layer_1" xmlns="http://www.w3.org/2000/svg" xmlns:xlink="http://www.w3.org/1999/xlink" x="0px" y="0px"
	 viewBox="0 0 511.943 511.943" style="enable-background:new 0 0 511.943 511.943;" xml:space="preserve">
<path style="fill:#AC92EB;" d="M318.637,73.367c0,35.527-28.794,64.32-64.321,64.32s-64.336-28.793-64.336-64.32
	c0-35.543,28.809-64.337,64.336-64.337C289.843,9.031,318.637,37.825,318.637,73.367z"/>
<rect x="22.002" y="286.641" style="fill:#F5F7FA;" width="463.95" height="217.31"/>
<polygon style="fill:#48CFAD;" points="496.617,243.973 468.62,179.98 45.34,177.309 11.344,245.973 11.344,286.638 
	500.617,281.968 "/>
<g>
	<path style="fill:#4FC2E9;" d="M154.656,371.958l-77.319,2.67v83.99c2.656,0,81.319,0,81.319,0L154.656,371.958z"/>
	<path style="fill:#4FC2E9;" d="M435.624,371.958l-77.32,2.67v83.99c2.656,0,81.319,0,81.319,0L435.624,371.958z"/>
</g>
<rect x="215.472" y="335.96" style="fill:#48CFAD;" width="78.49" height="158.48"/>
<rect x="43.992" y="139.311" style="fill:#E6E9ED;" width="421.95" height="34.668"/>
<ellipse style="fill:#F5F7FA;" cx="256.142" cy="95.021" rx="17.17" ry="16.998"/>
<g>
	<polygon style="fill:#AC92EB;" points="431.952,355.708 396.956,333.212 370.209,337.212 352.961,368.958 433.952,371.958 	"/>
	<polygon style="fill:#AC92EB;" points="156.484,358.458 121.488,335.962 94.741,339.96 77.493,371.708 158.483,374.706 	"/>
</g>
<path d="M255.972,53.338c5.891,0,10.655-4.78,10.655-10.687c0-5.874-4.765-10.654-10.655-10.654s-10.67,4.78-10.67,10.654
	C245.302,48.558,250.082,53.338,255.972,53.338z"/>
<path d="M233.334,62.712c4.171-4.188,4.171-10.937,0-15.092c-4.171-4.156-10.921-4.156-15.077,0c-4.171,4.155-4.171,10.904,0,15.092
	C222.413,66.867,229.163,66.867,233.334,62.712z"/>
<path d="M293.671,62.712c4.172-4.172,4.172-10.937,0-15.092c-4.156-4.156-10.905-4.156-15.076,0c-4.172,4.155-4.172,10.92,0,15.092
	C282.766,66.867,289.515,66.867,293.671,62.712z"/>
<path d="M234.631,426.607c5.89,0,10.671-4.764,10.671-10.654s-4.781-10.654-10.671-10.654s-10.655,4.764-10.655,10.654
	S228.741,426.607,234.631,426.607z"/>
<path d="M506.616,294.341c3.296-1.906,5.327-5.438,5.327-9.232v-39.543c0-0.094,0-0.172,0-0.25c0-1.922-0.5-3.719-1.375-5.25
	l-30.621-61.274v-40.152c0-5.874-4.78-10.655-10.67-10.655H308.154c13.857-13.561,22.467-32.465,22.467-53.337
	C330.621,33.496,297.141,0,255.973,0c-41.167,0-74.663,33.496-74.663,74.648c0,20.872,8.608,39.776,22.466,53.337H42.653
	c-5.89,0-10.655,4.781-10.655,10.655v40.151L1.126,240.535c-0.078,0.156-0.156,0.313-0.219,0.469
	c-0.047,0.094-0.078,0.188-0.125,0.281c-0.094,0.219-0.172,0.469-0.25,0.688c-0.031,0.109-0.063,0.219-0.094,0.313
	c-0.078,0.281-0.156,0.563-0.219,0.828c-0.016,0.047-0.016,0.109-0.031,0.172c-0.047,0.266-0.094,0.531-0.125,0.797
	c0,0.078-0.016,0.141-0.016,0.219C0.016,244.615,0,244.926,0,245.24c0,0.016,0,0.047,0,0.078v39.793
	c0,3.795,2.016,7.326,5.312,9.232c1.703,0.984,3.5,1.797,5.343,2.438v193.822C4.765,490.603,0,495.382,0,501.289
	c0,5.875,4.765,10.654,10.655,10.654h10.67h191.978h85.319h191.98h10.671c5.89,0,10.67-4.779,10.67-10.654
	c0-5.906-4.78-10.686-10.67-10.686V296.779C503.117,296.138,504.913,295.326,506.616,294.341z M469.277,255.971
	c-5.891,0-10.672,4.781-10.672,10.656c0,5.889-4.779,10.686-10.654,10.686c-5.891,0-10.671-4.797-10.671-10.686
	c0-5.875-4.78-10.656-10.671-10.656c-5.89,0-10.654,4.781-10.654,10.656c0,5.889-4.797,10.686-10.671,10.686
	c-5.874,0-10.671-4.797-10.671-10.686c0-5.875-4.766-10.656-10.654-10.656c-5.891,0-10.672,4.781-10.672,10.656
	c0,5.889-4.78,10.686-10.67,10.686c-5.875,0-10.655-4.797-10.655-10.686c0-5.875-4.78-10.656-10.671-10.656
	c-5.89,0-10.67,4.781-10.67,10.656c0,5.889-4.781,10.686-10.655,10.686c-5.89,0-10.671-4.797-10.671-10.686
	c0-5.875-4.781-10.656-10.67-10.656c-5.891,0-10.656,4.781-10.656,10.656c0,5.889-4.796,10.686-10.67,10.686
	c-5.891,0-10.671-4.797-10.671-10.686c0-5.875-4.765-10.656-10.655-10.656s-10.67,4.781-10.67,10.656
	c0,5.889-4.781,10.686-10.671,10.686c-5.874,0-10.655-4.797-10.655-10.686c0-5.875-4.781-10.656-10.671-10.656
	s-10.67,4.781-10.67,10.656c0,5.889-4.781,10.686-10.655,10.686c-5.89,0-10.67-4.797-10.67-10.686
	c0-5.875-4.781-10.656-10.671-10.656s-10.655,4.781-10.655,10.656c0,5.889-4.796,10.686-10.671,10.686
	c-5.89,0-10.67-4.797-10.67-10.686c0-5.875-4.765-10.656-10.655-10.656s-10.67,4.781-10.67,10.656
	c0,5.889-4.781,10.686-10.671,10.686c-5.874,0-10.655-4.797-10.655-10.686c0-5.875-4.781-10.656-10.671-10.656
	s-10.67,4.781-10.67,10.656c0,5.889-4.781,10.686-10.655,10.686c-5.89,0-10.67-4.797-10.67-10.686
	c0-5.875-4.781-10.656-10.671-10.656s-10.655,4.781-10.655,10.656c0,5.889-4.796,10.686-10.671,10.686v-21.342h21.326h42.667h42.667
	h42.651h42.667h42.664h42.652h42.666h42.668h42.65H469.277h21.325v21.342c-5.874,0-10.655-4.797-10.655-10.686
	C479.947,260.751,475.166,255.971,469.277,255.971z M202.635,74.648c0-29.403,23.919-53.307,53.337-53.307
	c29.403,0,53.322,23.903,53.322,53.307c0,28.871-23.045,52.431-51.682,53.306c16.873-0.875,30.355-14.873,30.355-31.965
	c0-17.654-14.357-31.996-31.996-31.996c-17.654,0-31.996,14.342-31.996,31.996c0,17.092,13.467,31.09,30.34,31.965
	C225.679,127.079,202.635,103.52,202.635,74.648z M255.972,106.645c-5.89,0-10.67-4.781-10.67-10.655
	c0-5.874,4.78-10.656,10.67-10.656c5.875,0,10.655,4.781,10.655,10.655C266.627,101.863,261.847,106.645,255.972,106.645z
	 M53.324,149.327h405.281v21.31H53.324V149.327z M49.246,191.979h413.437l21.326,42.651H27.92L49.246,191.979z M223.976,490.602
	v-74.648v-74.648h63.992v149.297L223.976,490.602L223.976,490.602z M309.294,490.602V330.618c0-5.875-4.781-10.654-10.67-10.654
	h-85.319c-5.89,0-10.67,4.779-10.67,10.654V490.6H31.998V296.794c3.968-1.406,7.577-3.578,10.655-6.328
	c5.671,5.078,13.155,8.156,21.341,8.156s15.654-3.078,21.326-8.156c5.656,5.078,13.139,8.156,21.326,8.156s15.67-3.078,21.341-8.156
	c5.656,5.078,13.139,8.156,21.326,8.156s15.67-3.078,21.326-8.156c5.671,5.078,13.155,8.156,21.341,8.156s15.655-3.078,21.326-8.156
	c5.656,5.078,13.139,8.156,21.326,8.156c8.187,0,15.67-3.078,21.341-8.156c5.656,5.078,13.139,8.156,21.326,8.156
	c8.187,0,15.67-3.078,21.326-8.156c5.67,5.078,13.154,8.156,21.341,8.156s15.654-3.078,21.325-8.156
	c5.672,5.078,13.14,8.156,21.326,8.156s15.67-3.078,21.342-8.156c5.654,5.078,13.139,8.156,21.325,8.156
	c8.186,0,15.67-3.078,21.325-8.156c5.672,5.078,13.155,8.156,21.342,8.156s15.654-3.078,21.326-8.156
	c3.077,2.75,6.686,4.922,10.67,6.328v193.807H309.294z"/>
<path d="M117.316,319.964c-29.403,0-53.322,23.918-53.322,53.336v85.303c0,5.906,4.765,10.688,10.655,10.688h85.334
	c5.89,0,10.655-4.781,10.655-10.688V373.3C170.638,343.882,146.719,319.964,117.316,319.964z M117.316,341.305
	c13.904,0,25.763,8.906,30.153,21.311H87.148C91.554,350.21,103.411,341.305,117.316,341.305z M85.32,447.949v-63.992h63.993v63.992
	H85.32z"/>
<path d="M394.613,319.964c-29.402,0-53.322,23.918-53.322,53.336v85.303c0,5.906,4.781,10.688,10.671,10.688h85.318
	c5.89,0,10.671-4.781,10.671-10.688V373.3C447.951,343.882,424.015,319.964,394.613,319.964z M394.613,341.305
	c13.904,0,25.763,8.906,30.168,21.311h-60.32C368.85,350.21,380.708,341.305,394.613,341.305z M362.617,447.949v-63.992h63.992
	v63.992H362.617z"/>
<g>
</g>
<g>
</g>
<g>
</g>
<g>
</g>
<g>
</g>
<g>
</g>
<g>
</g>
<g>
</g>
<g>
</g>
<g>
</g>
<g>
</g>
<g>
</g>
<g>
</g>
<g>
</g>
<g>
</g>
</svg>
