<?xml version="1.0" encoding="iso-8859-1"?>
<!-- Generator: Adobe Illustrator 19.0.0, SVG Export Plug-In . SVG Version: 6.00 Build 0)  -->
<svg version="1.1" id="Layer_1" xmlns="http://www.w3.org/2000/svg" xmlns:xlink="http://www.w3.org/1999/xlink" x="0px" y="0px"
	 viewBox="0 0 511.945 511.945" style="enable-background:new 0 0 511.945 511.945;" xml:space="preserve">
<polygon style="fill:#EC87C0;" points="466.948,312.967 414.953,257.27 381.957,145.486 355.959,127.988 345.961,108.74 
	404.955,57.995 319.965,43.404 267.971,57.995 232.975,82.993 132.986,97.991 36.996,119.989 10,145.486 58.995,461.481 
	153.984,447.28 178.981,430.953 208.977,447.28 286.967,468.543 345.961,461.481 404.955,429.953 458.948,415.955 496.944,329.965 
	"/>
<polygon style="fill:#F5F7FA;" points="467.448,315.967 421.953,416.955 458.448,419.954 496.444,331.465 "/>
<path d="M330.635,226.663c-5.891,0-10.67,4.781-10.67,10.688c0,5.873,4.779,10.654,10.67,10.654s10.654-4.781,10.654-10.654
	C341.289,231.445,336.526,226.663,330.635,226.663z"/>
<path d="M507.194,324.465l-31.279-20.857l-49.244-45.979c-3.154-18.186-18.561-96.083-57.117-132.579
	c-3.234-3.062-6.625-5.921-10.125-8.593c6.563-7.077,14.686-14.717,24.232-22.747c19.42-16.342,37.996-28.653,38.168-28.778
	c3.342-2.219,5.154-6.093,4.732-10.062c-0.438-3.968-3.045-7.358-6.764-8.796c-1.391-0.531-34.23-13.014-75.617-13.873
	c-48.525-1.016-88.442,14.514-116.658,45.073c-1.921-0.016-3.952-0.031-6.046-0.031c-27.669,0-69.211,1.594-109.972,9.187
	c-49.807,9.265-86.271,25.216-108.395,47.4c-2.343,2.344-3.452,5.641-3.015,8.937l42.667,319.964
	c0.703,5.281,5.218,9.249,10.562,9.249c58.571,0,109.675-20.247,126.517-27.7c35.168,23.576,71.991,35.512,109.549,35.512
	c40.98,0,75.148-14.467,96.6-26.621c16.873-9.563,28.668-19.123,34.09-23.842h38.541c4.031,0,7.734-2.297,9.531-5.905l42.666-85.335
	C513.223,333.278,511.676,327.434,507.194,324.465z M289.389,458.465c-34.886,0-69.335-11.826-102.362-35.136l0,0
	c-0.078-0.063-0.172-0.094-0.25-0.156c-0.203-0.125-0.391-0.25-0.594-0.375c-0.094-0.047-0.188-0.094-0.281-0.156
	c-0.219-0.109-0.422-0.219-0.641-0.313c-0.063-0.031-0.109-0.063-0.172-0.078c-0.297-0.125-29.855-13.124-50.51-46.542
	c-3.094-4.999-9.671-6.562-14.67-3.469c-5.016,3.109-6.562,9.688-3.469,14.687c12.843,20.778,28.638,34.809,40.823,43.479
	c-20.497,7.718-55.587,18.514-94.614,20.045l-40.682-305.09c44.745-39.762,142.781-46.136,191.354-46.729
	c-0.016,3.391,1.578,6.734,4.562,8.812c4.844,3.359,11.483,2.172,14.843-2.671c24.277-34.871,61.43-52.135,110.424-51.26
	c18.998,0.343,36.262,3.452,48.76,6.499c-6.42,4.796-14.014,10.671-21.824,17.232c-28.373,23.872-45.105,44.479-49.729,61.274
	c-1.578,5.687,1.764,11.561,7.436,13.123c0.953,0.25,1.906,0.375,2.844,0.375c4.688,0,8.967-3.094,10.279-7.843
	c0.906-3.281,2.672-6.968,5.234-11.03c3.047,2.313,5.969,4.781,8.734,7.39c37.557,35.543,51.166,123.128,51.307,124.003
	c0.344,2.374,1.498,4.561,3.264,6.217l46.73,43.605l-48.902,97.785C399.299,419.346,352.977,458.465,289.389,458.465z
	 M452.028,407.987h-18.811l40.199-80.412l14.107,9.405l-14.17,28.356h-4.078c-5.891,0-10.656,4.765-10.656,10.654
	c0,3.781,1.953,7.078,4.922,8.969L452.028,407.987z"/>
<g>
</g>
<g>
</g>
<g>
</g>
<g>
</g>
<g>
</g>
<g>
</g>
<g>
</g>
<g>
</g>
<g>
</g>
<g>
</g>
<g>
</g>
<g>
</g>
<g>
</g>
<g>
</g>
<g>
</g>
</svg>
