<?xml version="1.0" encoding="iso-8859-1"?>
<!-- Generator: Adobe Illustrator 19.0.0, SVG Export Plug-In . SVG Version: 6.00 Build 0)  -->
<svg version="1.1" id="Layer_1" xmlns="http://www.w3.org/2000/svg" xmlns:xlink="http://www.w3.org/1999/xlink" x="0px" y="0px"
	 viewBox="0 0 511.941 511.941" style="enable-background:new 0 0 511.941 511.941;" xml:space="preserve">
<rect x="14" y="97.981" style="fill:#ED5564;" width="231.97" height="29.997"/>
<rect x="11.326" y="134.651" style="fill:#F5F7FA;" width="234.65" height="280.62"/>
<path style="fill:#965353;" d="M491.725,375.961l-18.326-5.249l-1.672-26.497c0,0-9.155-12.248-10.265-12.748
	s-36.371-11.499-36.371-11.499l-1.655-23.247l-41.651-8.5l-0.281,42.746l-6.938,0.25l-8.873-1c0,0-18.607,5.249-21.67,6.499
	c-3.047,1.249-7.483,10.499-7.483,11.499s2.499,23.497,2.499,23.497s-9.451,1.749-11.389,1.874
	c-1.938,0.156-11.936,14.624-11.936,14.624l8.045,25.997c0,0,111.613,6.499,112.441,6.249c0.827-0.25,54.696-10.249,54.696-10.249
	s5.827-15.998,5.546-16.998S491.725,375.961,491.725,375.961z"/>
<path style="fill:#ED5564;" d="M144.311,269.637c-0.343-0.999-17.186-10.654-17.186-10.654l-16.811,9.655c0,0,0,10.335,0,12.679
	c0,2.312,7.999,11.998,7.999,11.998h12.999l15.311-5.094C146.623,288.221,144.655,270.637,144.311,269.637z"/>
<path d="M245.3,85.33H10.655C4.765,85.33,0,90.095,0,96.001v319.956c0,5.874,4.765,10.654,10.655,10.654H245.3
	c5.89,0,10.67-4.78,10.67-10.654V96.001C255.97,90.096,251.19,85.33,245.3,85.33z M234.629,405.302H21.325V138.653h213.304V405.302z
	 M234.629,117.327H21.325v-10.671h213.304V117.327z"/>
<path d="M41.791,394.616h170.653c5.89,0,10.67-4.781,10.67-10.654c0-5.906-4.781-10.656-10.67-10.656H41.791
	c-5.89,0-10.655,4.75-10.655,10.656C31.137,389.834,35.902,394.616,41.791,394.616z"/>
<path d="M488.334,363.744c1.453-3.625,2.266-7.625,2.266-11.78c0-17.654-14.358-31.996-31.997-31.996h-21.325v-10.655
	c0-17.654-14.357-31.996-31.996-31.996h-21.325c-5.906,0-10.672,4.749-10.672,10.654v21.342c0,3.719,0.641,7.312,1.828,10.655
	H351.96c-17.654,0-31.996,14.342-31.996,31.996c0,4.155,0.796,8.155,2.249,11.78c-13.576,3.719-23.59,16.154-23.59,30.871
	c0,17.654,14.357,31.996,31.996,31.996h149.326c17.639,0,31.996-14.342,31.996-31.996
	C511.941,379.899,501.911,367.463,488.334,363.744z M394.611,298.627h10.671c5.874,0,10.671,4.779,10.671,10.686v10.655h-10.671
	c-5.89,0-10.671-4.78-10.671-10.655V298.627z M351.959,341.309h53.322h21.325h31.996c5.891,0,10.672,4.781,10.672,10.655
	s-4.781,10.655-10.672,10.655H351.959c-5.89,0-10.671-4.781-10.671-10.655S346.07,341.309,351.959,341.309z M479.945,405.302
	H330.618c-5.875,0-10.655-4.78-10.655-10.687c0-5.874,4.78-10.654,10.655-10.654h21.341h106.644h21.342
	c5.875,0,10.655,4.78,10.655,10.654C490.6,400.522,485.82,405.302,479.945,405.302z"/>
<path d="M402.828,227.892c-1.687,5.906-5.483,10.28-5.515,10.327l0.047-0.047h0.016c-1.719,1.89-2.766,4.39-2.766,7.14
	c0,5.89,4.781,10.67,10.671,10.67c3.14,0,5.952-1.375,7.905-3.531h0.016c0.672-0.75,6.718-7.64,9.843-17.717
	c4.499-14.467,0.874-28.528-10.218-39.636c-5.391-5.39-7.015-10.999-5.109-17.686c1.578-5.531,5-9.718,5.469-10.28
	c1.703-1.89,2.766-4.375,2.766-7.124c0-5.89-4.781-10.671-10.671-10.671c-3.14,0-5.952,1.359-7.905,3.515l-0.016-0.016
	c-0.672,0.75-6.719,7.64-9.858,17.717c-4.499,14.467-0.859,28.544,10.233,39.636C403.125,215.581,404.75,221.206,402.828,227.892z"
	/>
<path d="M127.125,245.312c-17.654,0-31.996,14.358-31.996,32.004c0,17.623,14.342,31.996,31.996,31.996
	c17.639,0,31.997-14.373,31.997-31.996C159.122,259.67,144.764,245.312,127.125,245.312z M127.125,287.971
	c-5.89,0-10.67-4.78-10.67-10.654c0-5.898,4.781-10.679,10.67-10.679c5.875,0,10.655,4.78,10.655,10.679
	C137.781,283.191,133,287.971,127.125,287.971z"/>
<path d="M127.125,234.641c5.89,0,10.655-4.78,10.655-10.655c0-5.906-4.765-10.671-10.655-10.671s-10.67,4.765-10.67,10.671
	C116.455,229.861,121.236,234.641,127.125,234.641z"/>
<path d="M104.488,244.015c4.171-4.156,4.171-10.92,0-15.076c-4.156-4.171-10.921-4.171-15.077,0c-4.171,4.156-4.171,10.92,0,15.076
	C93.567,248.187,100.332,248.187,104.488,244.015z"/>
<path d="M164.84,244.015c4.156-4.156,4.156-10.92,0-15.076c-4.171-4.171-10.921-4.171-15.092,0c-4.156,4.156-4.171,10.92,0,15.076
	C153.919,248.187,160.669,248.187,164.84,244.015z"/>
<g>
</g>
<g>
</g>
<g>
</g>
<g>
</g>
<g>
</g>
<g>
</g>
<g>
</g>
<g>
</g>
<g>
</g>
<g>
</g>
<g>
</g>
<g>
</g>
<g>
</g>
<g>
</g>
<g>
</g>
</svg>
