<?xml version="1.0" encoding="iso-8859-1"?>
<!-- Generator: Adobe Illustrator 19.0.0, SVG Export Plug-In . SVG Version: 6.00 Build 0)  -->
<svg version="1.1" id="Layer_1" xmlns="http://www.w3.org/2000/svg" xmlns:xlink="http://www.w3.org/1999/xlink" x="0px" y="0px"
	 viewBox="0 0 511.946 511.946" style="enable-background:new 0 0 511.946 511.946;" xml:space="preserve">
<g>
	<path style="fill:#CCD1D9;" d="M466.625,205.989c-2-0.672-47.322-42.667-49.994-43.995s9.998-35.324,9.982-40.667
		s-15.982-47.995-15.982-47.995s-39.323-37.996-46.65-43.995h-7.344l-9.998,45.995l0.672,51.994l17.326,48.667l-7.328,6.671
		l-37.995,22.653l-39.323-22.653l-43.996-6.671l-69.992,11.327L91.34,213.239l-30.668,35.418L42.018,294.66l-7.999,63.305
		l8.655,24.686l9.999,57.992l13.998,13.998l36.668,3.969l3.999,34.684h15.998l148.655-5.342l35.996-4l11.921-17.311
		c0,0-15.921-17.342-19.92-18.686c-3.999-1.313-94.661,0-97.989,0c-3.327,0,5.328-21.311,5.328-21.311l48.65-9.998l76.008-6.688
		l37.995-19.311l56.634-75.99l14.015-7.344l49.994-27.996l9.999-30.662C500.621,248.656,468.625,206.661,466.625,205.989z"/>
	<path style="fill:#CCD1D9;" d="M360.637,463.296c0,0-25.325-35.34-27.996-39.34c-2.672-4-10.656-51.994-12-53.994l-53.321,4.688
		c0,0,8.671,43.309,9.999,45.307c1.328,2,5.327,27.342,5.327,27.342l22.669,7.998v27.342l15.326,7.311l47.995-3.311L360.637,463.296
		z"/>
</g>
<polygon style="fill:#F5F7FA;" points="27.347,344.654 16.676,382.65 16.676,391.304 22.019,411.958 34.018,411.958 40.017,373.962 
	"/>
<path d="M510.01,246.453c-1.249-1.781-30.918-44.12-48.854-63.743c-8.779-9.593-21.372-16.905-33.246-22.06
	c1.969-17.842,5.063-52.369,2.219-72.273c-1.891-13.295-12.811-29.684-33.371-50.119c-14.279-14.17-27.888-24.935-28.466-25.372
	c-2.796-2.203-6.499-2.875-9.89-1.781c-3.375,1.109-5.999,3.813-6.968,7.25c-0.781,2.75-19.185,67.961-15.545,97.958
	c2.108,17.529,11.405,41.589,18.889,58.837l-35.23,22.091c-10.78-10.905-35.324-28.153-82.71-28.153
	c-18.389,0-38.792,2.625-60.649,7.78c-48.463,11.436-83.225,25.153-106.237,41.901c-20.717,15.061-28.56,30.293-34.277,41.402
	c-0.391,0.75-0.766,1.5-1.141,2.219c-7.312,14.053-10.874,46.674-12.593,72.451L1.006,379.337c-0.781,1.688-1.125,3.563-0.969,5.406
	c0.172,2.217,2.187,21.996,16.857,31.277c5.155,3.25,10.577,4.404,15.748,4.404c1.109,0,2.203-0.063,3.297-0.156
	c0.609,2.25,1.296,4.531,2.077,6.813c6.734,19.686,17.482,33.59,17.936,34.184c2.25,2.875,5.797,4.406,9.421,4.063l30.153-2.875
	l-0.469,28.059c-0.047,2.875,1.063,5.625,3.062,7.656c2,2.063,4.75,3.188,7.608,3.188L373.29,501.2
	c5.891,0,10.672-4.781,10.672-10.656c0-25.996-25.701-45.588-32.81-50.525c-5.155-7.029-11.874-18.279-13.28-25.215
	c26.764-6.438,47.839-17.592,60.885-42.652c16.92-32.59,27.637-48.65,32.277-55.057c36.777-1.967,63.742-23.277,64.914-24.215
	c0.797-0.625,1.5-1.375,2.094-2.219l11.998-17.279c1.234-1.773,1.906-3.898,1.906-6.086v-14.717
	C511.948,250.39,511.276,248.25,510.01,246.453z M28.33,397.992c-3.671-2.281-5.796-8.344-6.64-12.469l3.047-6.498l8.187,10.092
	c-0.297,3.281-0.391,6.625-0.281,10C30.94,399.117,29.502,398.742,28.33,397.992z M490.607,263.952l-9.124,13.115
	c-5.141,3.75-27.575,18.811-55.791,18.811c-3.062,0-5.968,1.313-7.982,3.623c-0.516,0.563-12.968,14.844-37.887,62.807
	c-8.937,17.186-23.561,25.684-43.792,30.996c-1.078-14.904-2.109-31.184-2.125-31.434c-0.375-5.875-5.437-10.344-11.312-9.969
	c-5.874,0.375-10.342,5.438-9.967,11.313c0.094,1.594,2.453,38.809,3.796,52.275c1.594,15.998,17.061,36.59,18.826,38.869
	c0.75,1,1.703,1.844,2.749,2.531c5.172,3.281,16.562,12.375,21.842,22.967h-42.323c1.641-4.406,2.688-9.404,2.406-14.717
	c-0.547-10.313-8.796-18.248-24.513-23.529c-1.25-0.438-2.484-0.813-3.688-1.156c-0.141-0.25-0.281-0.531-0.406-0.781
	c-6.233-11.498-10.029-41.494-10.982-52.057c-0.516-5.873-5.688-10.217-11.562-9.686c-5.858,0.5-10.202,5.688-9.687,11.561
	c0.141,1.563,0.703,7.531,1.797,15.373c-10.562,1.469-21.67,3.219-33.263,5.438c1.156-3.844,1.406-6.531,1.406-8.561
	c0.031-16.438-7.03-52.119-26.075-77.867c-9.515-12.842-28.855-19.779-57.478-20.592c-19.701-0.563-36.855,1.938-37.574,2.063
	c-5.827,0.875-9.843,6.281-8.983,12.123c0.875,5.813,6.297,9.844,12.124,8.969c0.156-0.031,16.264-2.375,34.105-1.844
	c20.669,0.625,35.496,5,40.651,11.967c16.592,22.436,21.92,53.557,21.904,65.15c0,5.342-10.796,23.84-23.092,39.588
	c-2.515,3.219-2.968,7.594-1.172,11.25c1.781,3.686,5.5,5.998,9.577,5.998h0.016l81.476-0.156c10.218,1.531,21.67,5.594,24.123,8.5
	c0,4.779-2.844,9.811-5.297,13.154H116.571l0.484-29.152c0.047-3.031-1.203-5.969-3.437-8.031c-2.219-2.063-5.219-3.063-8.249-2.781
	l-35.793,3.406c-3.188-4.969-8.093-13.529-11.562-23.842c-1.563-4.686-2.672-9.217-3.344-13.592
	c-0.031-0.156-0.047-0.313-0.078-0.469c-2.155-14.748,0.75-27.902,8.718-39.213c3.391-4.813,2.234-11.469-2.577-14.875
	c-4.828-3.373-11.483-2.217-14.874,2.594c-1.39,1.969-2.671,4-3.858,6.094c1.094-30.809,4.749-75.055,11.452-87.959
	c0.39-0.742,0.78-1.508,1.187-2.273c10.499-20.404,24.873-48.338,126.455-72.335c20.247-4.781,39.011-7.202,55.743-7.202
	c15.873,0,38.59,2.296,56.619,13.264c9.998,6.093,14.17,12.249,14.623,12.936c1.391,2.562,3.719,4.312,6.547,5.062
	c2.858,0.781,5.827,0.172,8.342-1.406l40.809-25.591c0.531,1.109,0.891,1.812,0.984,2.015c1.875,3.734,5.64,5.89,9.545,5.89
	c1.609,0,3.234-0.375,4.781-1.141c5.25-2.64,7.39-9.046,4.75-14.326c-0.234-0.469-23.623-47.338-26.779-73.367
	c-2-16.577,5.047-50.729,10.656-73.46c4.265,3.781,9.201,8.312,14.154,13.249c22.872,22.747,26.605,34.059,27.152,37.855
	c3.438,24.2-3.546,77.241-3.608,77.788c-0.781,5.827,3.327,11.186,9.155,11.967c1.906,0.25,3.766-0.016,5.421-0.688
	c9.249,4.046,18.998,9.624,25.419,16.654c14.498,15.842,38.309,49.088,45.198,58.837L490.607,263.952L490.607,263.952z
	 M214.654,435.706c0.281-0.438,0.563-0.875,0.844-1.313c3.483-0.656,7.015-1.344,10.607-2.063c13.405-2.719,26.31-4.75,38.496-6.469
	c0.859,3.844,1.813,7.625,2.906,11.186l-53.807,0.125C214.013,436.704,214.326,436.206,214.654,435.706z"/>
<path d="M437.285,202.583c-5.89,0-10.671,4.765-10.671,10.655s4.781,10.655,10.671,10.655s10.671-4.765,10.671-10.655
	C447.955,207.348,443.174,202.583,437.285,202.583z"/>
<g>
</g>
<g>
</g>
<g>
</g>
<g>
</g>
<g>
</g>
<g>
</g>
<g>
</g>
<g>
</g>
<g>
</g>
<g>
</g>
<g>
</g>
<g>
</g>
<g>
</g>
<g>
</g>
<g>
</g>
</svg>
