<?xml version="1.0" encoding="iso-8859-1"?>
<!-- Generator: Adobe Illustrator 19.0.0, SVG Export Plug-In . SVG Version: 6.00 Build 0)  -->
<svg version="1.1" id="Layer_1" xmlns="http://www.w3.org/2000/svg" xmlns:xlink="http://www.w3.org/1999/xlink" x="0px" y="0px"
	 viewBox="0 0 511.942 511.942" style="enable-background:new 0 0 511.942 511.942;" xml:space="preserve">
<path style="fill:#AAB2BC;" d="M455.95,255.972l-26.498-65.992l-24.169-51.994c0,0,2.171-23.498,2.171-24.997
	c0-1.5-2.171-39.496-2.171-39.496s-13.327-5.499-14.827-5.999c-1.499-0.5-28.496,27.497-28.496,27.497l-12.998,9.999l-37.996-9.499
	l-13.998-8.499L276.97,99.99l-55.994,15.998l-98.489,42.995L11,207.478l146.983,231.974l65.493-60.993l58.493-10.998l67.493-46.995
	l71.991,5.999l38.995-5l8-25.996l11.498-16.998L455.95,255.972z"/>
<g>
	<polygon style="fill:#656D78;" points="423.453,172.482 306.466,253.472 296.468,276.97 284.469,329.464 276.97,358.96 
		295.468,353.961 315.966,334.963 360.46,304.466 448.451,253.331 	"/>
	<polygon style="fill:#656D78;" points="477.447,289.968 462.949,303.966 462.949,323.464 479.947,323.464 491.446,310.466 
		494.945,293.968 	"/>
</g>
<path d="M405.299,253.331c5.874,0,10.655-4.765,10.655-10.67c0-5.875-4.781-10.655-10.655-10.655
	c-5.905,0-10.687,4.78-10.687,10.655C394.613,248.567,399.394,253.331,405.299,253.331z"/>
<path d="M502.07,286.89c-3.797-3.952-9.047-9.076-15.592-15.201c-8.219-7.654-16.514-15.092-20.264-18.404l-3.016-8.343
	c0-0.031-0.016-0.063-0.031-0.094l-16.529-45.807c-0.063-0.125-0.125-0.281-0.172-0.422l-10.67-25.981
	c0-0.016-0.016-0.031-0.031-0.063l-9.813-23.904c-0.344-0.843-0.781-1.624-1.328-2.358c-0.266-0.359-4.202-5.531-11.764-12.64
	c1.719-6.343,4.25-16.451,6-27.028c2.968-17.764,4.998-42.183-11.203-49.104c-15.342-6.53-32.418,8.515-43.916,20.42
	c-6.406,6.64-12.093,13.498-15.842,18.279c-8.563-2.656-17.936-4.797-28.06-6.156c-4.468-8.312-9.437-14.732-15.218-17.217
	c-4.108-1.75-8.498-1.656-12.357,0.313c-7.827,4-13.701,9.78-18.076,16.514c-17.943,1.953-36.433,6.297-55.205,13.015
	c-76.976,27.575-207.719,95.614-213.249,98.52c-2.648,1.375-4.601,3.797-5.375,6.688c-0.766,2.874-0.297,5.968,1.305,8.483
	l149.319,234.646c1.734,2.719,4.609,4.515,7.819,4.874c0.398,0.031,0.789,0.063,1.18,0.063c2.804,0,5.515-1.109,7.522-3.108
	l66.727-66.415c12.569-1.313,23.989-3.687,34.324-6.765c0.765-0.141,1.515-0.359,2.241-0.672
	c42.543-13.279,66.196-38.434,75.258-50.041c16.951,2.922,61.055,10.482,71.648,11.732c1.609,0.188,3.28,0.281,4.968,0.281
	c10.687,0,20.653-3.687,25.185-5.655h13.623h0.016c0.016,0,0.016,0,0.047,0h26.061c3.218,0,6.248-1.438,8.279-3.937
	c16.061-19.717,16.061-25.732,16.061-28.294C511.943,298.031,508.897,293.999,502.07,286.89z M377.302,94.662
	c12.311-13.14,18.904-16.326,21.373-17.107c0.813,2.671,2.031,10.437-1.531,29.434c-0.781,4.219-1.672,8.28-2.531,11.937
	c-0.906-0.625-1.797-1.25-2.719-1.875c-6.327-4.218-14.029-8.687-23.028-12.811C371.334,101.255,374.208,97.943,377.302,94.662z
	 M228.507,365.585c-2.492,0.203-4.835,1.281-6.617,3.062l-60.032,59.743L25.936,214.805
	c32.941-16.889,136.945-69.336,200.243-92.006c13.186-4.718,26.169-8.155,38.847-10.311c-1.929,8.562-2.64,17.295-2.718,25.185
	c-0.219,22.528,4.421,42.308,4.616,43.12c1.172,4.905,5.546,8.218,10.374,8.218c0.813,0,1.641-0.094,2.484-0.313
	c5.718-1.344,9.248-7.093,7.904-12.843c-0.047-0.156-4.249-18.029-4.046-37.979c0.141-14.983,2.827-33.855,14.187-43.011
	c2.374,3.499,6.607,11.107,12.686,27.216c5.266,13.967,9.155,27.059,9.202,27.184c1.655,5.656,7.593,8.874,13.249,7.188
	c5.639-1.656,8.873-7.594,7.186-13.249c-0.172-0.594-4.327-14.607-10.092-29.73c5.999,1.327,11.842,3.015,17.576,5.046
	c0.359,0.156,0.734,0.281,1.109,0.406c10.686,3.874,20.888,9.015,30.574,15.389c15.639,10.296,24.888,20.764,27.48,23.872
	l5.938,14.437l-108.848,72.851c-0.89,0.594-1.671,1.313-2.358,2.156c-17.342,21.435-18.998,42.261-20.435,60.649
	c-1.469,18.592-2.75,34.746-19.764,51.275C251.535,362.398,240.622,364.538,228.507,365.585z M296.312,344.306
	c4.265-11.873,5.187-23.498,6.046-34.34c1.343-17.076,2.515-31.871,14.779-47.697L421,192.76l5.64,13.749l13.546,37.495
	l-104.473,64.243c-0.031,0-0.031,0.031-0.063,0.031c-0.281,0.188-0.547,0.359-0.813,0.563c-0.047,0.031-0.094,0.078-0.141,0.125
	c-0.203,0.156-0.391,0.313-0.578,0.484c-0.094,0.078-0.172,0.156-0.25,0.234c-0.156,0.141-0.297,0.281-0.438,0.438
	c-0.077,0.094-0.155,0.188-0.233,0.266c-0.188,0.219-0.359,0.453-0.547,0.688c-0.063,0.109-0.125,0.203-0.203,0.313
	s-0.172,0.234-0.234,0.359C332.027,312.029,321.12,329.277,296.312,344.306z M445.544,313.997c-1.656,0-3.281,0.375-4.749,1.125
	c-0.094,0.031-9.312,4.53-18.123,4.53c-0.875,0-1.719-0.047-2.5-0.125c-6.905-0.813-30.06-4.671-49.213-7.921l76.71-47.166
	c0.609,1.14,1.406,2.171,2.391,3.03c5.483,4.812,11.264,10.03,16.701,15.045l-6.016,3.453c-2.812,1.624-4.733,4.421-5.233,7.624
	l-3.155,20.404L445.544,313.997L445.544,313.997z M482.431,313.997h-8.499l1.874-12.077l7.125-4.077
	c2.578,2.562,4.734,4.78,6.296,6.498C487.634,306.888,485.165,310.435,482.431,313.997z"/>
<g>
</g>
<g>
</g>
<g>
</g>
<g>
</g>
<g>
</g>
<g>
</g>
<g>
</g>
<g>
</g>
<g>
</g>
<g>
</g>
<g>
</g>
<g>
</g>
<g>
</g>
<g>
</g>
<g>
</g>
</svg>
