<?xml version="1.0" encoding="iso-8859-1"?>
<!-- Generator: Adobe Illustrator 19.0.0, SVG Export Plug-In . SVG Version: 6.00 Build 0)  -->
<svg version="1.1" id="Layer_1" xmlns="http://www.w3.org/2000/svg" xmlns:xlink="http://www.w3.org/1999/xlink" x="0px" y="0px"
	 viewBox="0 0 511.945 511.945" style="enable-background:new 0 0 511.945 511.945;" xml:space="preserve">
<path style="fill:#E6E9ED;" d="M477.448,196.982l-81.49-85.99l-49.994-5l3-22.997l-10-18.498l-27.996,19.498l-16.498,21.498h-32.996
	l-45.995-6.999l-43.995,21.998l-21.497,11.499l-28.497,18.498l-26.498,7.998l-43.495,27.497l-29.996,23.497l-6.5,29.996
	c0,0,295.466,210.476,297.466,210.476s28.996-13.998,28.996-13.998l10.499-23.998l5.499-24.496l1.5-19.998l7-20.998
	c0,0-10-12.998-11-15.498c-0.999-2.5-13.998-33.496-13.998-33.496l38.496-4.5l64.992,3.5l14.998,2l42.996-20.498l3.499-41.995
	L477.448,196.982z"/>
<path d="M511.881,234.806c0-0.141-0.031-0.266-0.031-0.39c-0.031-0.203-0.063-0.406-0.094-0.594
	c-0.031-0.156-0.063-0.313-0.109-0.469s-0.078-0.313-0.125-0.469c-0.047-0.172-0.094-0.344-0.141-0.5
	c-0.063-0.156-0.125-0.281-0.172-0.438c-0.063-0.156-0.125-0.313-0.203-0.469c-0.063-0.156-0.125-0.281-0.188-0.438
	c-0.094-0.141-0.156-0.281-0.234-0.438s-0.172-0.297-0.266-0.438c-0.094-0.125-0.156-0.25-0.25-0.375
	c-0.125-0.188-0.25-0.359-0.374-0.531c-0.078-0.094-0.141-0.172-0.203-0.25c-0.016,0-0.016-0.016-0.016-0.031l-106.66-127.985
	c-2.015-2.422-5.015-3.828-8.187-3.828l-35.98-0.016c1.297-13.279-0.031-27.512-8.076-37.871c-3.922-5.046-9.484-7.546-15.64-7.062
	c-10.937,0.875-22.747,11.249-38.308,33.668c-2.688,3.859-5.188,7.702-7.438,11.264l-20.217-0.016
	c-0.124-0.047-0.241-0.109-0.366-0.156c-2.203-0.921-4.632-1.796-7.218-2.609c-8.062-2.515-16.765-4.093-25.856-4.687
	c-2.07-0.125-4.141-0.203-6.172-0.203c-31.988,0-51.369,16.451-59.445,25.263c-2.016-0.188-4.016-0.266-5.984-0.266
	c-30.27,0-47.658,19.639-54.822,30.2c-1.078-0.031-2.141-0.063-3.195-0.063c-35.034,0-52.165,21.841-58.461,32.59
	c-20.717,4.531-29.317,22.872-35.746,36.589c-2.906,6.218-5.647,12.062-8.671,15.155c-2.172,2.234-3.266,5.296-2.992,8.405
	c0.281,3.093,1.906,5.921,4.438,7.733l298.646,212.727c1.812,1.295,3.968,1.982,6.187,1.982c0.344,0,0.688-0.031,1.047-0.063
	c2.703-0.266,26.763-3.014,37.637-16.498c2.952-3.654,4.749-7.795,5.343-12.217c5.89-5.375,15.811-16.357,17.654-30.496
	c0.844-6.531-0.188-12.998-2.984-19.061c5.874-6.609,13.187-17.451,12.28-29.793c-0.484-6.641-3.578-15.967-15.17-23.951
	l-11.343-26.496c49.76,1.281,101.41,9.842,101.957,9.936c2.25,0.375,4.562,0.031,6.593-1l43.776-22.17
	c3.594-1.813,5.843-5.482,5.843-9.514v-42.651C511.944,235.478,511.928,235.134,511.881,234.806z M455.779,289.565
	c-13.89-2.188-65.978-9.842-114.065-9.842c-1.094,0-2.188,0-3.281,0.016l-16.686-2.828c-5.811-1-11.311,2.922-12.295,8.719
	c-0.984,5.811,2.922,11.326,8.733,12.311l11.843,2l16.764,39.166c0.891,2.078,2.422,3.828,4.358,4.984
	c4.968,2.953,7.624,6.031,7.858,9.125c0.5,6.404-7.39,15.123-11.264,18.311c-4.531,3.686-5.25,10.342-1.594,14.936
	c3,3.748,4.188,7.342,3.688,11.248c-1.094,8.688-10.063,17.186-13.374,19.686c-3.062,2.281-4.687,6-4.249,9.779
	c0.125,1.063-0.094,1.75-0.813,2.641c-3.156,3.922-12.312,6.859-19.389,8.141L25.507,233.885c2.008-3.563,3.773-7.328,5.508-11.03
	c7.084-15.123,12.256-24.356,24.223-25.294c4.094-0.328,7.57-2.796,9.055-6.608c0.648-1.531,11.225-24.998,41.619-24.998
	c2.484,0,5.07,0.156,7.703,0.469c4.508,0.516,8.866-1.875,10.842-5.968c0.117-0.25,12.194-24.654,39.473-24.654
	c2.797,0,5.719,0.25,8.679,0.75c4.179,0.719,8.296-0.969,10.616-4.531c0.914-1.281,15.459-21.216,46.135-21.216
	c1.57,0,3.18,0.063,4.781,0.156c16.873,1.109,27.247,6.125,27.638,6.328c-1.063-0.547-2.008-1.25-2.813-2.078
	c0.828,0.844,1.781,1.547,2.813,2.078c0.008,0,0.008,0.016,0.008,0.016c1.492,0.75,3.147,1.156,4.858,1.156h10.765
	c-0.656,4.312,1.375,8.733,5.405,10.937c5.155,2.843,11.655,0.938,14.468-4.218c0.078-0.125,7.123-12.92,16.139-26.075
	c11.701-17.045,18.607-22.826,21.606-24.731c3.187,5.952,3.624,15.967,1.219,28.606c-2.344,12.327-6.562,22.669-6.608,22.763
	c-2.266,5.437,0.328,11.686,5.765,13.936c1.344,0.562,2.718,0.812,4.093,0.812c4.172,0,8.156-2.468,9.844-6.593
	c0.688-1.625,2.999-7.468,5.218-15.405h35.073l88.959,106.754c-5.265,0.656-9.326,5.14-9.326,10.577
	c0,5.875,4.78,10.655,10.67,10.655h10.671v21.92c-1.984-0.031-4.28-0.141-6.905-0.375c-9.187-0.828-23.967-3.469-42.23-11.25
	c-5.42-2.296-11.686,0.203-13.982,5.64c-2.313,5.406,0.203,11.686,5.625,13.982c10.842,4.625,20.748,7.703,29.465,9.717
	L455.779,289.565z"/>
<path d="M373.303,150.488c-5.904,0-10.686,4.781-10.686,10.671s4.781,10.67,10.686,10.67c5.875,0,10.656-4.781,10.656-10.67
	C383.959,155.269,379.178,150.488,373.303,150.488z"/>
<g>
</g>
<g>
</g>
<g>
</g>
<g>
</g>
<g>
</g>
<g>
</g>
<g>
</g>
<g>
</g>
<g>
</g>
<g>
</g>
<g>
</g>
<g>
</g>
<g>
</g>
<g>
</g>
<g>
</g>
</svg>
