<?xml version="1.0" encoding="iso-8859-1"?>
<!-- Generator: Adobe Illustrator 19.0.0, SVG Export Plug-In . SVG Version: 6.00 Build 0)  -->
<svg version="1.1" id="Layer_1" xmlns="http://www.w3.org/2000/svg" xmlns:xlink="http://www.w3.org/1999/xlink" x="0px" y="0px"
	 viewBox="0 0 511.935 511.935" style="enable-background:new 0 0 511.935 511.935;" xml:space="preserve">
<polygon style="fill:#965353;" points="352.96,252.468 293.467,145.981 207.977,96.986 156.983,96.986 95.989,110.985 
	41.995,157.979 9.999,224.972 9.999,289.964 60.993,357.956 113.081,372.065 149.983,382.954 201.977,363.956 229.974,340.958 
	356.959,296.964 "/>
<path style="fill:#FFE1C5;" d="M361.959,299.463l-124.08,38.761l-25.903,24.232l-63.493,24.497l-58.493-8.499L60.493,414.95
	c0,0,274.969,3,280.468,3c5.5,0,58.994-17.998,58.994-17.998l40.495-41.996l18.497-55.993L361.959,299.463z"/>
<path d="M504.209,140.996c-5.656-1.624-11.563,1.641-13.187,7.313l-40.604,141.593h-3.984l-19.951-129.61
	c-0.891-5.812-6.343-9.812-12.154-8.921c-5.828,0.891-9.827,6.343-8.921,12.171l19.435,126.36h-60.258
	c-2.063-54.322-19.982-104.191-50.947-141.391c-17.061-20.466-37.48-36.479-60.697-47.557c-24.435-11.655-51.4-17.561-80.147-17.561
	c-46.151,0-89.552,17.967-122.189,50.604C17.967,166.634,0,210.035,0,256.187c0,54.557,31.278,101.941,76.866,125.158l-30.825,28.73
	c-3.203,3-4.25,7.641-2.64,11.718s5.546,6.749,9.921,6.749h277.297c21.653,0,42.01-4.5,60.523-13.373
	c16.326-7.844,30.903-18.904,43.309-32.871c20.966-23.592,34.121-54.15,34.652-80.147l42.416-147.952
	C513.145,148.527,509.864,142.621,504.209,140.996z M21.326,256.187c0-40.464,15.748-78.491,44.37-107.113
	c28.606-28.59,66.633-44.354,107.097-44.354c50.119,0,93.146,19.856,124.439,57.446c28.246,33.918,44.463,79.835,46.088,130.048
	l-96.583,32.246c5.28-13.295,8.062-27.59,8.062-42.339c0-51.65-42.026-93.677-93.677-93.677c-42.511,0-77.085,34.59-77.085,77.085
	c0,35.168,28.622,63.774,63.806,63.774c29.309,0,53.166-23.842,53.166-53.15c0-5.906-4.781-10.671-10.67-10.671
	c-5.89,0-10.671,4.765-10.671,10.671c0,17.545-14.279,31.84-31.824,31.84c-23.419,0-42.464-19.061-42.464-42.464
	c0-30.747,24.997-55.744,55.744-55.744c39.886,0,72.335,32.45,72.335,72.336c0,19.873-6.187,38.776-17.623,54.557
	c-0.063,0.063-0.109,0.125-0.156,0.188c-2.843,3.905-6,7.608-9.483,11.093c-17.576,17.592-40.964,27.262-65.836,27.262
	C74.726,375.22,21.326,321.82,21.326,256.187z M418.5,368.143c-15.827,17.826-43.934,39.073-87.881,39.073H80.397l18.232-16.998
	c13.186,4.109,27.2,6.328,41.729,6.328c30.575,0,59.306-11.904,80.913-33.512c3.421-3.422,6.593-7.016,9.53-10.765l122.893-41.042
	h83.537c0.016,0,0.016,0.016,0.016,0.016c0.031,0,0.031-0.016,0.031-0.016h9.562C444.215,327.179,435.858,348.614,418.5,368.143z"/>
<g>
</g>
<g>
</g>
<g>
</g>
<g>
</g>
<g>
</g>
<g>
</g>
<g>
</g>
<g>
</g>
<g>
</g>
<g>
</g>
<g>
</g>
<g>
</g>
<g>
</g>
<g>
</g>
<g>
</g>
</svg>
