<?xml version="1.0" encoding="iso-8859-1"?>
<!-- Generator: Adobe Illustrator 19.0.0, SVG Export Plug-In . SVG Version: 6.00 Build 0)  -->
<svg version="1.1" id="Layer_1" xmlns="http://www.w3.org/2000/svg" xmlns:xlink="http://www.w3.org/1999/xlink" x="0px" y="0px"
	 viewBox="0 0 511.941 511.941" style="enable-background:new 0 0 511.941 511.941;" xml:space="preserve">
<path style="fill:#CCD1D9;" d="M369.457,342.96l-28.497-17.498c0,0-40.995-30.996-44.994-32.996c-4-2-49.995-30.996-51.995-32.996
	s-33.496-6.5-33.496-6.5l-30.497,6.5l194.978,115.486L369.457,342.96z"/>
<path style="fill:#F5F7FA;" d="M439.278,327.322l-25.997-111.988l-22.654-79.335l10-17.326l14.654-7.999l17.998-20.669l5.343-9.327
	l-15.998-21.326l-33.34-2.671l-26.653,7.327l-21.998,47.995l20.654,162.654l22.67,110.658l-21.326-9.998l-52.666-40.668
	l-98.661-59.32l-48.651-7.344l-55.994,15.342L63.32,317.322l4.671,33.324l63.321,91.99l33.34,10.672
	c0,0,166.638,4.654,168.638,4.654c1.999,0,101.988-5.998,101.988-5.998l24.668-17.326v-55.322L439.278,327.322z"/>
<polygon style="fill:#CCD1D9;" points="87.49,388.954 23.996,391.454 51.993,429.451 84.99,455.447 141.983,455.447 "/>
<polygon style="fill:#ED5564;" points="443.964,88.989 411.077,112.97 478.288,135.983 481.96,115.314 "/>
<path d="M394.611,95.988c5.906,0,10.687-4.765,10.687-10.655s-4.78-10.655-10.687-10.655c-5.874,0-10.654,4.765-10.654,10.655
	C383.956,91.223,388.737,95.988,394.611,95.988z"/>
<path d="M501.286,447.949h-44.12c11.218-13.561,12.124-27.811,12.124-31.996c0-28.529-15.779-81.336-32.497-137.234
	c-10.655-35.684-21.669-72.555-28.028-101.802c-3.28-15.155-5.124-27.388-5.468-36.387c-0.375-10.858,1.469-14.014,1.813-14.482
	c0.313-0.141,1.53-0.625,4.515-0.625c17.857,0,53.26,16.373,65.384,22.701c2.546,1.328,5.499,1.578,8.218,0.687
	c2.719-0.89,4.969-2.828,6.249-5.39l10.687-21.31c2.438-4.937,0.766-10.905-3.906-13.827l-44.65-27.888
	c-9.906-22.403-33.965-37.746-59.854-37.746c-16.154,0-31.105,6.156-42.072,17.342c-12.249,12.452-19.404,30.934-20.732,53.463
	c-3.234,54.806,17.014,150.734,31.324,210.32c-6.937-6-15.186-12.873-24.403-20.092c-36.995-29.027-69.914-48.494-97.833-57.837
	c-31.153-10.437-62.196,5.343-71.617,10.842c-56.462,1.407-95.926,40.997-109.05,54.151l-0.906,0.938
	c-8.374,8.342-7.155,24.277,4.031,53.244c2.64,6.842,5.468,13.404,7.968,18.936h-47.12c-3.937,0-7.562,2.186-9.405,5.654
	c-1.875,3.469-1.656,7.656,0.531,10.938c0.438,0.688,11.436,17.061,27.95,33.621c5.14,5.154,10.233,9.748,15.264,13.779H10.655
	C4.78,447.949,0,452.699,0,458.603c0,5.875,4.781,10.656,10.655,10.656h94.364c0.468,0.031,0.921,0.031,1.375,0.031h85.1
	c0.016,0,0.016,0,0.016,0c0.016,0,0.031,0,0.031,0h213.757c0.688,0,1.343,0,2.03-0.031h93.959c5.874,0,10.654-4.781,10.654-10.656
	C511.941,452.699,507.16,447.949,501.286,447.949z M476.726,121.235l-1.562,3.156c-10.015-4.75-25.997-11.764-41.401-16.186
	l7.529-9.093L476.726,121.235z M231.254,266.063c61.446,20.561,136.079,92.834,136.828,93.553c0.453,0.438,0.953,0.844,1.469,1.188
	c1.281,4.938,2.328,8.842,3.046,11.498c-16.186-12.373-41.588-31.34-69.195-50.15c-41.572-28.309-74.522-47.275-99.488-57.213
	C212.444,263.251,222.005,262.97,231.254,266.063z M72.366,326.025l0.125-0.125c11.811-11.842,47.745-47.932,97.021-47.932
	c11.624,0,42.933,8.029,121.798,61.742c45.854,31.246,85.584,62.93,85.99,63.242c3.203,2.563,7.594,3.063,11.28,1.281
	c3.702-1.781,6.062-5.529,6.046-9.623l-0.047-21.342c0-0.938-0.125-1.875-0.375-2.813c-0.125-0.438-12.342-44.963-23.841-98.707
	c-15.062-70.586-22.028-124.876-20.122-157.045c1.874-31.762,17.389-50.729,41.51-50.729c14.312,0,28.106,7.14,36.137,17.889
	l-18.436,22.216c-7.42,0.031-13.404,1.843-17.811,5.406c-11.514,9.342-12.717,29.543-4.187,69.742
	c6.452,30.465,17.873,68.648,28.903,105.582c15.529,51.963,31.59,105.738,31.59,131.143c0,4.748-2.094,12.623-7.968,19.248
	c-7.28,8.217-18.467,12.467-33.247,12.748h-214.88c-29.372-3.156-54.556-13.779-74.866-31.621
	c-15.217-13.406-21.951-26.123-22.154-26.529l0,0c-0.063-0.125-6.905-13.623-13.061-28.996
	C72.022,336.523,72.1,328.056,72.366,326.025z M42.838,405.296h36.434c3.906,6.063,11.28,15.998,22.778,26.279
	c5.875,5.248,13.311,10.967,22.373,16.373h-18.779C83.459,447.417,58.633,424.013,42.838,405.296z"/>
<g>
</g>
<g>
</g>
<g>
</g>
<g>
</g>
<g>
</g>
<g>
</g>
<g>
</g>
<g>
</g>
<g>
</g>
<g>
</g>
<g>
</g>
<g>
</g>
<g>
</g>
<g>
</g>
<g>
</g>
</svg>
