<?xml version="1.0" encoding="iso-8859-1"?>
<!-- Generator: Adobe Illustrator 19.0.0, SVG Export Plug-In . SVG Version: 6.00 Build 0)  -->
<svg version="1.1" id="Layer_1" xmlns="http://www.w3.org/2000/svg" xmlns:xlink="http://www.w3.org/1999/xlink" x="0px" y="0px"
	 viewBox="0 0 511.942 511.942" style="enable-background:new 0 0 511.942 511.942;" xml:space="preserve">
<polygon style="fill:#FFCE54;" points="468.948,77.197 455.449,59.199 427.451,53.372 393.299,49.372 284.624,53.372 
	302.966,89.696 310.465,114.193 296.967,140.19 436.451,140.19 454.449,127.691 475.946,95.992 "/>
<g>
	<circle style="fill:#656D78;" cx="255.091" cy="107.564" r="51.12"/>
	<polygon style="fill:#656D78;" points="294.623,148.704 203.977,132.035 165.318,455.341 229.31,450.671 284.624,316.685 
		325.307,265.347 325.307,215.353 	"/>
</g>
<polygon style="fill:#434A54;" points="261.448,330.997 187.979,329.669 165.318,453.997 225.311,455.341 252.471,385.162 "/>
<path style="fill:#F5F7FA;" d="M286.623,147.705l-19.989,10.983c0,0,6.679,19.014,6.991,21.013c0.344,2,12.998,13.327,14.342,13.999
	s30.997,12.655,30.997,12.655V194.7L286.623,147.705z"/>
<path d="M319.62,246.381c-2.172,20.544-13.312,39.604-33.153,56.853c4.5-22.809,2.438-44.119-6.248-63.665
	c-16.998-38.324-54.463-58.228-70.657-65.321l1.242-22.31c11.584,11.561,27.552,18.716,45.167,18.716
	c0.617,0,1.227-0.016,1.836-0.031c1.258,4.687,3.398,10.312,7.069,15.967c7.296,11.249,21.997,24.466,50.979,26.465
	C319.152,223.462,320.854,234.742,319.62,246.381z M286.264,163c5.047,5.687,12.672,15.155,19.42,27.028
	c-10.029-2.469-17.561-7.249-22.435-14.342c-2.218-3.203-3.577-6.468-4.437-9.249C281.375,165.437,283.874,164.312,286.264,163z
	 M433.733,127.988H316.308c1.219-3.421,2.156-6.999,2.766-10.67H447.95L433.733,127.988z M467.932,95.992H319.074
	c-2.047-12.17-7.546-23.185-15.452-31.997h122.986C446.45,63.995,463.182,77.603,467.932,95.992z M255.971,63.995
	c23.529,0,42.652,19.139,42.652,42.667c0,23.529-19.123,42.651-42.652,42.651c-23.521,0-42.659-19.123-42.659-42.651
	S232.45,63.995,255.971,63.995z M208,202.308c0.008-0.125,0.016-0.219,0.016-0.313l0.266-4.718
	c15.498,7.89,40.558,24.154,52.447,50.947c9.303,20.982,8.865,45.074-1.273,71.742h-63.665
	C202.977,260.927,207.625,206.62,208,202.308z M216.288,447.953h-10.647l12.686-50.744c1.422-5.703-2.046-11.516-7.765-12.92
	c-5.71-1.438-11.506,2.029-12.936,7.748l-13.975,55.916h-9.14c6.906-25.623,13.288-65.977,18.592-106.66h58.735L216.288,447.953z
	 M501.287,319.966h-201.54c24.56-21.074,38.339-45.01,41.104-71.476c4.625-44.37-23.419-82.428-37.698-98.645
	c0.155-0.188,0.312-0.344,0.468-0.531h133.673c2.297,0,4.546-0.75,6.39-2.125l42.668-31.997c0.063-0.047,0.109-0.094,0.156-0.156
	c0.156-0.109,0.313-0.234,0.469-0.375c0.125-0.094,0.25-0.219,0.359-0.328c0.125-0.109,0.234-0.234,0.359-0.359
	c0.125-0.141,0.25-0.281,0.375-0.406c0.094-0.125,0.188-0.25,0.28-0.375c0.125-0.141,0.25-0.297,0.344-0.469
	c0.094-0.125,0.188-0.25,0.25-0.375c0.109-0.156,0.219-0.313,0.297-0.469s0.172-0.313,0.234-0.469
	c0.078-0.141,0.156-0.281,0.219-0.438c0.078-0.188,0.156-0.344,0.219-0.531c0.047-0.141,0.094-0.281,0.156-0.438
	c0.063-0.188,0.109-0.375,0.156-0.562c0.031-0.141,0.094-0.281,0.125-0.438c0.031-0.172,0.063-0.359,0.094-0.547
	c0.031-0.172,0.063-0.328,0.078-0.484c0.016-0.188,0.047-0.344,0.047-0.516c0.016-0.203,0.031-0.391,0.031-0.578
	c0-0.078,0-0.156,0-0.219c0-35.293-28.7-63.993-63.993-63.993H266.634c-1.063,0-2.093,0.156-3.062,0.438
	c-2.5-0.281-5.031-0.438-7.602-0.438c-35.16,0-63.782,28.497-63.985,63.602l-5.257,94.38c-0.297,3.438-5.156,59.557-12.452,119.314
	H10.663C4.773,319.963,0,324.729,0,330.635c0,5.873,4.773,10.654,10.663,10.654h160.919c-6.179,47.197-13.709,93.021-21.56,113.502
	c-1.258,3.281-0.82,6.969,1.172,9.859c1.992,2.906,5.273,4.625,8.788,4.625H191.9c0.031,0,0.055,0,0.086,0c0.023,0,0.039,0,0.063,0
	h31.926c4.593,0,8.663-2.938,10.116-7.281l40.222-120.705h226.975c5.874,0,10.654-4.781,10.654-10.654
	C511.942,324.732,507.161,319.966,501.287,319.966z"/>
<path d="M255.971,117.318c5.891,0,10.663-4.781,10.663-10.655c0-5.905-4.772-10.67-10.663-10.67c-5.89,0-10.663,4.765-10.663,10.67
	C245.308,112.537,250.081,117.318,255.971,117.318z"/>
<g>
</g>
<g>
</g>
<g>
</g>
<g>
</g>
<g>
</g>
<g>
</g>
<g>
</g>
<g>
</g>
<g>
</g>
<g>
</g>
<g>
</g>
<g>
</g>
<g>
</g>
<g>
</g>
<g>
</g>
</svg>
