<?xml version="1.0" encoding="iso-8859-1"?>
<!-- Generator: Adobe Illustrator 19.0.0, SVG Export Plug-In . SVG Version: 6.00 Build 0)  -->
<svg version="1.1" id="Layer_1" xmlns="http://www.w3.org/2000/svg" xmlns:xlink="http://www.w3.org/1999/xlink" x="0px" y="0px"
	 viewBox="0 0 511.943 511.943" style="enable-background:new 0 0 511.943 511.943;" xml:space="preserve">
<path style="fill:#A0D468;" d="M428.623,214.647l-20.654-41.323c0,0-25.34-33.996-27.34-35.996s-34.652-26.669-34.652-26.669
	l-62.665-21.998c0,0-41.323-5.327-43.323-5.327l-65.336,5.999l-73.32,32.668l-51.994,59.993L33.34,245.315l10.671,70.665
	l35.996,51.993c0,0,77.991,47.323,80.647,48.651s91.333,12.67,91.333,12.67l91.99-30.668l57.322-41.324l35.324-74.663
	L428.623,214.647z"/>
<g>
	<path style="fill:#FFCE54;" d="M480.946,220.474c0,0-14.998-11.999-18.498-13.499s-25.824-4.5-25.824-4.5v102.988l25.324-2.999
		c0,0,23.498-15.999,28.497-20.997c4.999-5,6.999-25.154,6.999-25.154v-21.669L480.946,220.474z"/>
	<path style="fill:#FFCE54;" d="M135.985,66.492h-20.998l-14.498,12.499c0,0-3,10.499-3,11.749s5,24.247,5,24.247l37.996-13.499
		l19.498-12.499L135.985,66.492z"/>
	<path style="fill:#FFCE54;" d="M370.958,90.739c-0.5-2.75-10.499-17.748-13.999-21.748c-3.499-4-13.498-7.499-15.498-8.499
		s-16.998,6-16.998,6l-18.498,24.247l60.994,26.747l1.499-6c0,0,2.5-5.5,2.5-7.999S371.458,93.489,370.958,90.739z"/>
	<polygon style="fill:#FFCE54;" points="364.459,387.455 305.965,419.451 315.465,438.449 341.961,445.449 356.959,439.449 
		371.177,420.951 	"/>
	<polygon style="fill:#FFCE54;" points="105.488,390.954 101.989,423.95 111.988,441.949 128.736,441.949 146.484,435.45 
		159.982,419.951 	"/>
</g>
<path d="M458.619,266.625c-5.889,0-10.67,4.78-10.67,10.687c0,5.874,4.781,10.654,10.67,10.654c5.891,0,10.656-4.78,10.656-10.654
	C469.276,271.406,464.51,266.625,458.619,266.625z"/>
<path d="M458.619,223.974c-5.889,0-10.67,4.781-10.67,10.655c0,5.906,4.781,10.687,10.67,10.687c5.891,0,10.656-4.781,10.656-10.687
	C469.276,228.755,464.51,223.974,458.619,223.974z"/>
<path d="M489.367,210.069c-13.998-11.67-32.496-18.092-52.088-18.092c-0.983,0-1.968,0.031-2.968,0.063
	c-1.078-2.437-2.203-4.875-3.422-7.28c-10.858-21.623-26.356-40.995-46.088-57.619c-2.75-2.312-5.563-4.546-8.422-6.718l1.453-2.421
	c5.891-9.765,7.608-21.232,4.859-32.293c-2.75-11.061-9.625-20.373-19.389-26.263c-6.656-4-14.248-6.108-21.982-6.108
	c-14.889,0-28.902,7.905-36.574,20.654l-5.483,9.093c-20.638-5.531-42.37-8.437-64.618-8.437c-22.247,0-43.995,2.906-64.618,8.437
	l-5.483-9.093c-7.687-12.749-21.701-20.654-36.59-20.654c-7.718,0-15.326,2.109-21.966,6.108
	c-9.764,5.89-16.654,15.202-19.404,26.263c-2.75,11.062-1.016,22.529,4.859,32.293l1.468,2.421
	c-2.875,2.172-5.687,4.406-8.437,6.718c-19.716,16.624-35.23,35.996-46.088,57.619c-9.687,19.279-15.264,39.605-16.686,60.556
	H10.671C4.781,245.316,0,250.081,0,255.971c0,5.891,4.781,10.655,10.671,10.655h11.03c1.422,20.95,6.999,41.276,16.686,60.556
	c10.858,21.623,26.372,40.995,46.088,57.619c2.75,2.312,5.562,4.545,8.437,6.717l-1.468,2.422
	c-5.875,9.765-7.608,21.232-4.859,32.293c2.75,11.062,9.64,20.373,19.404,26.264c6.64,3.999,14.249,6.107,21.966,6.107
	c0,0,0,0,0.016,0c14.874,0,28.888-7.904,36.574-20.653l5.483-9.093c20.623,5.531,42.371,8.437,64.618,8.437
	c22.248,0,43.98-2.905,64.618-8.437l5.483,9.093c7.672,12.749,21.686,20.653,36.574,20.653c7.734,0,15.326-2.108,21.982-6.107
	c9.764-5.891,16.639-15.202,19.389-26.264c2.749-11.061,1.031-22.528-4.859-32.293l-1.453-2.422
	c2.859-2.172,5.672-4.405,8.422-6.717c19.731-16.624,35.229-35.996,46.088-57.619c1.219-2.406,2.344-4.844,3.422-7.28
	c1,0.031,1.984,0.063,2.968,0.063c19.592,0,38.09-6.437,52.088-18.092c14.562-12.124,22.575-28.435,22.575-45.901
	C511.942,238.504,503.928,222.193,489.367,210.069z M392.955,346.366l-73.851-53.322v-74.398l73.835-53.072
	c21.232,25.731,33.684,56.868,33.684,90.396S414.172,320.618,392.955,346.366z M307.825,200.492l-62.524-36.136V96.239
	c52.776,2.421,99.926,22.685,132.907,53.65L307.825,200.492z M234.645,328.837l-63.149-36.496v-73.007l63.149-36.496l63.134,36.496
	v73.007L234.645,328.837z M223.975,164.356l-62.509,36.136l-70.398-50.604c32.996-30.965,80.147-51.229,132.907-53.65V164.356z
	 M161.482,311.183l62.493,36.137v68.383c-52.775-2.422-99.926-22.686-132.922-53.666L161.482,311.183z M245.301,347.32
	l62.508-36.137l70.414,50.854c-32.98,30.98-80.146,51.244-132.922,53.666L245.301,347.32L245.301,347.32z M323.01,84.99
	c3.906-6.468,10.749-10.342,18.311-10.342c3.859,0,7.641,1.062,10.968,3.062c4.89,2.953,8.327,7.624,9.702,13.155
	c1.375,5.515,0.516,11.249-2.422,16.123l-0.859,1.438c-12.107-7.405-25.028-13.655-38.558-18.686L323.01,84.99z M109.722,106.987
	c-2.937-4.875-3.812-10.608-2.437-16.123c1.375-5.531,4.828-10.202,9.702-13.155c3.328-2,7.124-3.062,10.967-3.062
	c7.577,0,14.42,3.875,18.311,10.342l2.859,4.75c-13.53,5.031-26.435,11.28-38.558,18.686L109.722,106.987z M76.335,165.574
	l73.835,53.072v74.398l-73.835,53.322c-21.232-25.748-33.668-56.869-33.668-90.396S55.103,191.306,76.335,165.574z M146.265,426.95
	c-3.89,6.469-10.733,10.343-18.295,10.343c0,0,0,0-0.016,0c-3.843,0-7.64-1.062-10.967-3.062c-4.875-2.953-8.327-7.625-9.702-13.155
	c-1.375-5.515-0.5-11.249,2.437-16.123l0.844-1.438c12.124,7.405,25.028,13.655,38.558,18.67L146.265,426.95z M359.569,404.953
	c2.938,4.874,3.797,10.608,2.422,16.123c-1.375,5.53-4.813,10.202-9.702,13.155c-3.327,2-7.124,3.062-10.968,3.062
	c-7.562,0-14.404-3.874-18.311-10.343l-2.858-4.765c13.529-5.015,26.45-11.265,38.558-18.67L359.569,404.953z M442.075,298.45
	c3.891-13.812,5.875-28.014,5.875-42.48c0-14.466-1.984-28.668-5.875-42.479c27.17,1.938,48.542,20.248,48.542,42.479
	C490.617,278.202,469.244,296.513,442.075,298.45z"/>
<g>
</g>
<g>
</g>
<g>
</g>
<g>
</g>
<g>
</g>
<g>
</g>
<g>
</g>
<g>
</g>
<g>
</g>
<g>
</g>
<g>
</g>
<g>
</g>
<g>
</g>
<g>
</g>
<g>
</g>
</svg>
