<svg id="icons" enable-background="new 0 0 64 64" height="512" viewBox="0 0 64 64" width="512" xmlns="http://www.w3.org/2000/svg"><path d="m48.005 62v1h-38v-1c0-2.21 1.79-4 4-4h12.011 6 11.989c2.211 0 4 1.79 4 4z" fill="#656d78"/><path d="m26.016 58v-6h1.239 3.52 1.241v6z" fill="#ccd1d9"/><path d="m41.995 12.68-25 12.94h-.01c-.08-1.07-.59-2.011-1.35-2.67l26.36-13.65z" fill="#656d78"/><path d="m15.636 22.95c.76.659 1.27 1.6 1.35 2.67.02.109.02.22.02.34 0 .89-.289 1.71-.779 2.37-.601.819-1.51 1.399-2.561 1.569-.21.04-.43.061-.66.061-2.21 0-4-1.79-4-4s1.79-4 4-4c.999 0 1.92.37 2.63.99z" fill="#ccd1d9"/><path d="m16.226 28.33 14.549 23.67h-3.521l-13.59-22.09v-.011c1.052-.17 1.961-.75 2.562-1.569z" fill="#656d78"/><path d="m41.995 12.68v-3.38-3.29c0-2.77 2.24-5.01 5-5.01 2.771 0 5.01 2.24 5.01 5.01v6.98h-.01-10z" fill="#ccd1d9"/><path d="m51.995 12.99 3 13h-16.01l3.01-13z" fill="#e6e9ed"/><path d="m54.996 26.985h-16.008c-.305 0-.593-.139-.782-.377-.19-.239-.261-.551-.192-.848l3.004-12.994c.125-.538.657-.875 1.2-.749.538.124.873.661.749 1.199l-2.721 11.769h13.492l-2.721-11.769c-.124-.538.211-1.075.749-1.199.543-.125 1.075.211 1.2.749l3.004 12.994c.068.297-.002.609-.192.848-.189.238-.477.377-.782.377z"/><path d="m52 7.005c-.553 0-1-.448-1-1 0-2.208-1.796-4.004-4.004-4.004s-4.004 1.796-4.004 4.004c0 .552-.447 1-1 1s-1-.448-1-1c0-3.311 2.693-6.004 6.004-6.004s6.004 2.693 6.004 6.004c0 .552-.447 1-1 1z"/><path d="m52 13.991c-.553 0-1-.448-1-1v-6.986c0-.552.447-1 1-1s1 .448 1 1v6.986c0 .552-.447 1-1 1z"/><path d="m41.992 13.991c-.553 0-1-.448-1-1v-6.986c0-.552.447-1 1-1s1 .448 1 1v6.986c0 .552-.447 1-1 1z"/><path d="m51.992 13.991h-9.996c-.553 0-1-.448-1-1s.447-1 1-1h9.996c.553 0 1 .448 1 1s-.447 1-1 1z"/><path d="m13.004 30.961c-2.757 0-5-2.244-5-5.001s2.243-5 5-5 5 2.243 5 5-2.243 5.001-5 5.001zm0-8.001c-1.654 0-3 1.346-3 3 0 1.655 1.346 3.001 3 3.001s3-1.346 3-3.001c0-1.654-1.346-3-3-3z"/><path d="m15.636 23.947c-.362 0-.711-.197-.889-.54-.254-.49-.063-1.094.428-1.348l26.365-13.655c.493-.254 1.094-.062 1.348.428s.063 1.094-.428 1.348l-26.365 13.655c-.148.076-.305.112-.459.112z"/><path d="m16.991 26.624c-.362 0-.711-.197-.889-.54-.254-.49-.063-1.094.428-1.348l25.01-12.953c.493-.253 1.094-.062 1.348.428s.063 1.094-.428 1.348l-25.01 12.953c-.147.076-.304.112-.459.112z"/><path d="m27.251 53c-.336 0-.664-.169-.853-.477l-13.582-22.093c-.29-.471-.143-1.086.328-1.376.47-.289 1.086-.143 1.375.328l13.582 22.094c.29.471.143 1.086-.328 1.375-.163.101-.343.149-.522.149z"/><path d="m30.774 53.001c-.336 0-.664-.169-.853-.477l-14.55-23.668c-.29-.471-.143-1.086.328-1.376.468-.29 1.086-.143 1.375.328l14.551 23.669c.29.471.143 1.086-.328 1.375-.163.101-.344.149-.523.149z"/><path d="m32.012 58.996c-.553 0-1-.447-1-1v-4.998h-4v4.998c0 .553-.447 1-1 1s-1-.447-1-1v-5.998c0-.553.447-1 1-1h6c.553 0 1 .447 1 1v5.998c0 .553-.448 1-1 1z"/><path d="m10.008 62.998c-.553 0-1-.447-1-1 0-2.757 2.243-5 5-5 .553 0 1 .447 1 1s-.447 1-1 1c-1.654 0-3 1.346-3 3 0 .553-.447 1-1 1z"/><path d="m48.004 62.998c-.553 0-1-.447-1-1 0-1.654-1.346-3-3-3-.553 0-1-.447-1-1s.447-1 1-1c2.757 0 5 2.243 5 5 0 .553-.447 1-1 1z"/><path d="m44.004 58.998h-29.996c-.553 0-1-.447-1-1s.447-1 1-1h29.996c.553 0 1 .447 1 1s-.447 1-1 1z"/><path d="m48.004 63.999h-37.996c-.553 0-1-.447-1-1s.447-1 1-1h37.996c.553 0 1 .447 1 1s-.447 1-1 1z"/><path d="m10.008 63.999c-.553 0-1-.447-1-1v-1.001c0-.553.447-1 1-1s1 .447 1 1v1.001c0 .553-.447 1-1 1z"/><path d="m48.004 63.999c-.553 0-1-.447-1-1v-1.001c0-.553.447-1 1-1s1 .447 1 1v1.001c0 .553-.447 1-1 1z"/><path d="m13.03 27c-.553 0-1.005-.448-1.005-1s.442-1 .994-1h.011c.552 0 1 .448 1 1s-.448 1-1 1z"/></svg>