<svg id="icons" enable-background="new 0 0 64 64" height="512" viewBox="0 0 64 64" width="512" xmlns="http://www.w3.org/2000/svg"><path d="m52 1 3 4h-23-23l3-4z" fill="#545c66"/><path d="m32 51v12h-23v-58h23v12h-3v34zm-7-10v-14.01h-6-6v14.01h4 4z" fill="#656d78"/><path d="m25 26.99v14.01h-4l1-8h-6l1 8h-4v-14.01h6z" fill="#545c66"/><path d="m22 33-1 8h-4l-1-8z" fill="#e6e9ed"/><path d="m55 5v58h-23v-12h3v-34h-3v-12z" fill="#656d78"/><path d="m32 17h3v34h-3z" fill="#aab2bd"/><path d="m29 17h3v34h-3z" fill="#aab2bd"/><path d="m55.001 64h-46.002c-.553 0-1-.447-1-1v-57.996c0-.553.447-1 1-1h46.002c.553 0 1 .447 1 1v57.996c0 .553-.447 1-1 1zm-45.002-2h44.002v-55.996h-44.002z"/><path d="m8.998 6.004c-.208 0-.419-.065-.599-.2-.442-.331-.532-.957-.2-1.399l3-4.004c.331-.44.956-.532 1.399-.2.442.331.532.957.2 1.399l-3 4.004c-.195.261-.495.4-.8.4z"/><path d="m55.002 6.004c-.305 0-.604-.139-.801-.4l-3-4.004c-.332-.442-.242-1.068.2-1.399.443-.332 1.068-.24 1.399.2l3 4.004c.332.442.242 1.068-.2 1.399-.179.134-.39.2-.598.2z"/><path d="m52.001 2h-40.002c-.553 0-1-.447-1-1s.447-1 1-1h40.002c.553 0 1 .447 1 1s-.447 1-1 1z"/><path d="m32 64c-.553 0-1-.447-1-1v-58c0-.553.447-1 1-1s1 .447 1 1v58c0 .553-.447 1-1 1z"/><path d="m35 18.005h-6c-.553 0-1-.447-1-1s.447-1 1-1h6c.553 0 1 .447 1 1s-.447 1-1 1z"/><path d="m35 52.005c-.553 0-1-.447-1-1v-34c0-.553.447-1 1-1s1 .447 1 1v34c0 .553-.447 1-1 1z"/><path d="m35 52.005h-6c-.553 0-1-.447-1-1s.447-1 1-1h6c.553 0 1 .447 1 1s-.447 1-1 1z"/><path d="m29 52.005c-.553 0-1-.447-1-1v-34c0-.553.447-1 1-1s1 .447 1 1v34c0 .553-.447 1-1 1z"/><path d="m25 42.001h-12.001c-.553 0-1-.447-1-1v-14.008c0-.553.447-1 1-1h12.001c.553 0 1 .447 1 1v14.008c0 .553-.447 1-1 1zm-11.001-2h10.001v-12.008h-10.001z"/><path d="m16.998 42.001c-.497 0-.928-.37-.991-.876l-.999-8.002c-.068-.548.32-1.048.868-1.116.554-.063 1.048.32 1.116.868l.999 8.002c.068.548-.32 1.048-.868 1.116-.042.005-.084.008-.125.008z"/><path d="m21.001 42.001c-.041 0-.083-.003-.125-.008-.548-.068-.937-.568-.868-1.116l1-8.002c.068-.548.565-.931 1.116-.868.548.068.937.568.868 1.116l-1 8.002c-.063.506-.494.876-.991.876z"/><path d="m22 33.999h-6c-.553 0-1-.447-1-1s.447-1 1-1h6c.553 0 1 .447 1 1s-.447 1-1 1z"/><path d="m19 28.999c-.553 0-1-.447-1-1v-1.006c0-.553.447-1 1-1s1 .447 1 1v1.006c0 .553-.447 1-1 1z"/></svg>