<svg id="icons" enable-background="new 0 0 64 64" height="512" viewBox="0 0 64 64" width="512" xmlns="http://www.w3.org/2000/svg"><path d="m61 11.5h-58c-1.1 0-2 .9-2 2v3 31c0 1.1.9 2 2 2h58c1.1 0 2-.9 2-2v-1-16-14-2-1c0-1.1-.9-2-2-2z" fill="#f5f7fa"/><path d="m61 28.5c1.1 0 2 .9 2 2s-.9 2-2 2c-1.11 0-2-.9-2-2s.89-2 2-2z" fill="#ccd1d9"/><path d="m61 49.5c1.1 0 2-.9 2-2v3c0 1.1-.9 2-2 2h-58c-1.1 0-2-.9-2-2v-3c0 1.1.9 2 2 2z" fill="#ccd1d9"/><path d="m59 30.5v16h-54v-32h54z" fill="#5d9cec"/><path d="m59 30.5v16h-54v-32h54z" fill="#5d9cec"/><path d="m30.982 46.5h-5.972l4.004-32h5.972z" fill="#87bcf4"/><path d="m34.986 46.5h-1.968l4.003-32h1.969z" fill="#87bcf4"/><path d="m61 50.5h-58c-1.654 0-3-1.346-3-3v-33.999c0-1.654 1.346-3 3-3h58c1.654 0 3 1.346 3 3v33.999c0 1.654-1.346 3-3 3zm-58-37.999c-.552 0-1 .449-1 1v33.999c0 .552.448 1 1 1h58c.552 0 1-.448 1-1v-33.999c0-.551-.448-1-1-1z"/><path d="m61 53.499h-58c-1.654 0-3-1.346-3-3v-33.999c0-.552.447-1 1-1s1 .448 1 1v33.999c0 .552.448 1 1 1h58c.552 0 1-.448 1-1v-33.999c0-.552.447-1 1-1s1 .448 1 1v33.999c0 1.654-1.346 3-3 3z"/><path d="m59.002 47.5h-54.002c-.553 0-1-.447-1-1v-32c0-.552.447-1 1-1h54.002c.553 0 1 .448 1 1v32c0 .553-.447 1-1 1zm-53.002-2h52.002v-30h-52.002z"/><path d="m3.029 30.5c-.553 0-1.005-.448-1.005-1s.442-1 .994-1h.011c.552 0 1 .448 1 1s-.448 1-1 1z"/><path d="m60.999 33.498c-1.654 0-3-1.345-3-2.999s1.346-3 3-3 3 1.346 3 3-1.346 2.999-3 2.999zm0-3.999c-.552 0-1 .449-1 1s.448.999 1 .999 1-.448 1-.999-.448-1-1-1z"/></svg>