<svg id="icons" enable-background="new 0 0 64 64" height="512" viewBox="0 0 64 64" width="512" xmlns="http://www.w3.org/2000/svg"><path d="m28.3 26.51-3.649 3.66c.22.561.34 1.18.34 1.82 0 2.76-2.23 5-5 5-2.76 0-5-2.24-5-5s2.24-5 5-5c.65 0 1.27.12 1.83.35l2.65-2.649c-1.421-.451-2.91-.681-4.471-.681-8.279 0-14.99 6.7-15 14.98v.02 17.99c0 3.31 2.681 6 6 6h17.99c3.32 0 6-2.69 6-6v-17.99c0-.01 0-.01 0-.02-.01-5.21-2.66-9.79-6.69-12.48z" fill="#48cfad"/><path d="m58 59v1h-18.01v-1c0-1.66 1.35-3 3-3h4 4 4.01c1.66 0 3 1.34 3 3z" fill="#545c66"/><path d="m59 60v3h-20.01v-3h1 18.01z" fill="#656d78"/><path d="m50.99 3v14h-4v-9.18-4.82c0-.49.17-.93.45-1.28.04-.05.09-.1.13-.14.361-.36.861-.58 1.42-.58 1.1 0 2 .89 2 2z" fill="#656d78"/><path d="m46.99 17h4v39h-4z" fill="#e6e9ed"/><path d="m24.471 24.69 22.969-22.97c-.28.35-.45.79-.45 1.28v4.82l-18.69 18.69-3.649 3.66-3.24 3.23c-.39.39-.9.59-1.42.59-.51 0-1.02-.2-1.41-.59-.78-.78-.78-2.04 0-2.82l3.24-3.24z" fill="#ccd1d9"/><path d="m19.99 33.99c.52 0 1.03-.2 1.42-.59l3.24-3.23c.22.561.34 1.18.34 1.82 0 2.76-2.23 5-5 5-2.76 0-5-2.24-5-5s2.24-5 5-5c.65 0 1.27.12 1.83.35l-3.24 3.24c-.78.78-.78 2.04 0 2.82.391.39.9.59 1.41.59z" fill="#37bc9b"/><path d="m17 53v3c0 1.1-.899 2-2 2h-3c-1.1 0-2-.9-2-2v-3c0-1.1.9-2 2-2h3c1.101 0 2 .9 2 2z" fill="#e6e9ed"/><path d="m29.99 53v3c0 1.1-.9 2-2 2h-3c-1.1 0-2-.9-2-2v-3c0-1.1.9-2 2-2h3c1.1 0 2 .9 2 2z" fill="#e6e9ed"/><path d="m11.002 64c-3.859 0-7-3.141-7-7 0-.553.447-1 1-1s1 .447 1 1c0 2.757 2.243 5 5 5 .553 0 1 .447 1 1s-.447 1-1 1z"/><path d="m28.994 64c-.553 0-1-.447-1-1s.447-1 1-1c2.757 0 5-2.243 5-5 0-.553.447-1 1-1s1 .447 1 1c0 3.859-3.14 7-7 7z"/><path d="m5.002 58c-.553 0-1-.447-1-1v-18.01c0-.553.447-1 1-1s1 .447 1 1v18.01c0 .553-.447 1-1 1z"/><path d="m28.994 64h-17.992c-.553 0-1-.447-1-1s.447-1 1-1h17.992c.553 0 1 .447 1 1s-.447 1-1 1z"/><path d="m34.994 58c-.553 0-1-.447-1-1v-18.01c0-.553.447-1 1-1s1 .447 1 1v18.01c0 .553-.447 1-1 1z"/><path d="m19.999 37.994c-3.309 0-6-2.691-6-6s2.691-6 6-6c.759 0 1.496.139 2.192.413.514.202.767.783.564 1.297s-.785.765-1.297.564c-.462-.183-.953-.274-1.46-.274-2.206 0-4 1.794-4 4s1.794 4 4 4 4-1.794 4-4c0-.505-.093-.997-.274-1.461-.202-.514.051-1.094.565-1.296.514-.2 1.095.051 1.296.565.274.697.413 1.435.413 2.191.001 3.31-2.69 6.001-5.999 6.001z"/><path d="m19.999 34.992c-.801 0-1.555-.313-2.121-.879-1.17-1.17-1.17-3.072 0-4.242l28.991-28.992c.391-.391 1.023-.391 1.414 0s.391 1.023 0 1.414l-28.991 28.992c-.39.39-.39 1.024 0 1.414.379.377 1.035.377 1.414 0l25.586-25.588c.391-.391 1.023-.391 1.414 0s.391 1.023 0 1.414l-25.586 25.588c-.566.567-1.32.879-2.121.879z"/><path d="m50.99 57.012c-.553 0-1-.447-1-1v-53.012c0-.552-.448-1-1-1s-1 .448-1 1v53.012c0 .553-.447 1-1 1s-1-.447-1-1v-53.012c0-1.654 1.346-3 3-3s3 1.346 3 3v53.012c0 .552-.447 1-1 1z"/><path d="m50.99 18h-4c-.553 0-1-.447-1-1s.447-1 1-1h4c.553 0 1 .447 1 1s-.447 1-1 1z"/><path d="m39.998 59.998c-.553 0-1-.447-1-1 0-2.206 1.794-4 4-4 .553 0 1 .447 1 1s-.447 1-1 1c-1.103 0-2 .897-2 2 0 .553-.447 1-1 1z"/><path d="m58.001 59.998c-.553 0-1-.447-1-1 0-1.103-.897-2-2-2-.553 0-1-.447-1-1s.447-1 1-1c2.206 0 4 1.794 4 4 0 .553-.447 1-1 1z"/><path d="m55.001 56.998h-12.003c-.553 0-1-.447-1-1s.447-1 1-1h12.003c.553 0 1 .447 1 1s-.447 1-1 1z"/><path d="m59 64h-20.002c-.553 0-1-.447-1-1v-3c0-.553.447-1 1-1h20.002c.553 0 1 .447 1 1v3c0 .553-.447 1-1 1zm-19.002-2h18.002v-1h-18.002z"/><path d="m39.998 61c-.553 0-1-.447-1-1v-1.002c0-.553.447-1 1-1s1 .447 1 1v1.002c0 .553-.447 1-1 1z"/><path d="m58.001 61c-.553 0-1-.447-1-1v-1.002c0-.553.447-1 1-1s1 .447 1 1v1.002c0 .553-.447 1-1 1z"/><path d="m5.002 40.008c-.553 0-1-.447-1-1 0-8.822 7.177-16 15.999-16 1.628 0 3.235.244 4.776.726.527.164.821.725.656 1.252-.164.526-.729.82-1.252.656-1.349-.42-2.755-.634-4.181-.634-7.719 0-13.999 6.28-13.999 14 .001.553-.446 1-.999 1z"/><path d="m34.999 40.008c-.553 0-1-.447-1-1 0-4.693-2.335-9.053-6.247-11.66-.46-.307-.584-.927-.277-1.387.306-.46.925-.584 1.387-.277 4.47 2.979 7.138 7.961 7.138 13.324-.001.553-.448 1-1.001 1z"/><path d="m15 59.002h-3c-1.654 0-3-1.346-3-3v-3c0-1.654 1.346-3 3-3h3c1.654 0 3 1.346 3 3v3c0 1.654-1.346 3-3 3zm-3-7c-.552 0-1 .448-1 1v3c0 .552.448 1 1 1h3c.552 0 1-.448 1-1v-3c0-.552-.448-1-1-1z"/><path d="m27.998 59.002h-3c-1.654 0-3-1.346-3-3v-3c0-1.654 1.346-3 3-3h3c1.654 0 3 1.346 3 3v3c0 1.654-1.346 3-3 3zm-3-7c-.552 0-1 .448-1 1v3c0 .552.448 1 1 1h3c.552 0 1-.448 1-1v-3c0-.552-.448-1-1-1z"/></svg>