<svg id="icons" enable-background="new 0 0 64 64" height="512" viewBox="0 0 64 64" width="512" xmlns="http://www.w3.org/2000/svg"><path d="m22.005 5.99h-6-6v8.01 45.99h1.99 11 18 11 2v-45.99-8.01z" fill="#e6e9ed"/><g fill="#ccd1d9"><path d="m40.995 59.99h11v3.01h-11z"/><path d="m11.995 59.99h11v3.01h-11z"/><path d="m49.995 1 4 4.99h-31.99-6-6l4-4.99z"/></g><path d="m32.025 7.99c1.1 0 2 .899 2 2 0 1.109-.9 2-2 2-1.11 0-2-.891-2-2 0-1.1.89-2 2-2z" fill="#fff"/><path d="m44.375 33.99c.4 1.26.62 2.609.62 4 0 1.39-.22 2.74-.62 4h-.01-3.37c-1.1 0-2-.891-2-2v-2-2c0-1.101.9-2 2-2h3.37z" fill="#e6e9ed"/><path d="m28.995 35.99 2 2 2-2 2 2 2-2 2 2v2c0 1.109.9 2 2 2h3.37c-1.68 5.22-6.58 9-12.37 9-7.17 0-13-5.82-13-13l2-2 2 2 2-2 2 2z" fill="#5d9cec"/><path d="m18.995 37.99c0-7.181 5.83-13 13-13 5.79 0 10.69 3.779 12.37 9h-3.37c-1.1 0-2 .899-2 2v2l-2-2-2 2-2-2-2 2-2-2-2 2-2-2-2 2-2-2z" fill="#656d78"/><path d="m47.995 37.99c0 8.84-7.16 16-16 16-8.83 0-16-7.16-16-16 0-8.83 7.17-16 16-16 8.84 0 16 7.17 16 16zm-3.63-4c-1.68-5.221-6.58-9-12.37-9-7.17 0-13 5.819-13 13 0 7.18 5.83 13 13 13 5.79 0 10.69-3.78 12.37-9h.01c.4-1.26.62-2.61.62-4 0-1.391-.22-2.74-.62-4z" fill="#fff"/><path d="m53.994 60.996h-43.988c-.553 0-1-.447-1-1v-54c0-.553.447-1 1-1h43.988c.553 0 1 .447 1 1v54c0 .553-.447 1-1 1zm-42.988-2h41.988v-52h-41.988z"/><path d="m11.997 64c-.553 0-1-.447-1-1v-3.004c0-.553.447-1 1-1s1 .447 1 1v3.004c0 .553-.447 1-1 1z"/><path d="m22.999 64c-.553 0-1-.447-1-1v-3.004c0-.553.447-1 1-1s1 .447 1 1v3.004c0 .553-.447 1-1 1z"/><path d="m22.999 64h-11.002c-.553 0-1-.447-1-1s.447-1 1-1h11.002c.553 0 1 .447 1 1s-.447 1-1 1z"/><path d="m40.997 64c-.553 0-1-.447-1-1v-3.004c0-.553.447-1 1-1s1 .447 1 1v3.004c0 .553-.447 1-1 1z"/><path d="m51.999 64c-.553 0-1-.447-1-1v-3.004c0-.553.447-1 1-1s1 .447 1 1v3.004c0 .553-.447 1-1 1z"/><path d="m51.999 64h-11.002c-.553 0-1-.447-1-1s.447-1 1-1h11.002c.553 0 1 .447 1 1s-.447 1-1 1z"/><path d="m10.005 6.996c-.219 0-.439-.071-.624-.219-.431-.345-.501-.974-.156-1.406l3.994-4.994c.347-.429.975-.502 1.406-.156s.501.975.156 1.406l-3.994 4.994c-.198.246-.488.375-.782.375z"/><path d="m53.995 6.996c-.294 0-.584-.129-.782-.375l-3.996-4.996c-.345-.432-.274-1.061.156-1.406.433-.345 1.061-.272 1.406.156l3.996 4.996c.345.432.274 1.061-.156 1.406-.184.148-.405.219-.624.219z"/><path d="m49.998 2h-35.998c-.553 0-1-.447-1-1s.447-1 1-1h35.998c.553 0 1 .447 1 1s-.447 1-1 1z"/><path d="m31.999 51.996c-7.72 0-14-6.28-14-14s6.28-14 14-14 14 6.28 14 14-6.28 14-14 14zm0-26c-6.617 0-12 5.383-12 12s5.383 12 12 12 12-5.383 12-12-5.383-12-12-12z"/><path d="m31.999 54.996c-9.374 0-17-7.626-17-17s7.626-17 17-17 17 7.626 17 17-7.626 17-17 17zm0-32c-8.271 0-15 6.729-15 15s6.729 15 15 15 15-6.729 15-15-6.728-15-15-15z"/><path d="m53.994 15h-43.987c-.553 0-1-.447-1-1s.447-1 1-1h43.987c.553 0 1 .447 1 1s-.447 1-1 1z"/><path d="m22.003 14.936c-.553 0-1-.447-1-1v-7.94c0-.553.447-1 1-1s1 .447 1 1v7.939c0 .553-.447 1.001-1 1.001z"/><path d="m16.001 7.996c-.553 0-1-.447-1-1v-1c0-.553.447-1 1-1s1 .447 1 1v1c0 .553-.447 1-1 1z"/><path d="m50.028 10.996c-.553 0-1.005-.447-1.005-1s.442-1 .994-1h.011c.552 0 1 .447 1 1s-.448 1-1 1z"/><path d="m46.028 10.996c-.553 0-1.005-.447-1.005-1s.442-1 .994-1h.011c.552 0 1 .447 1 1s-.448 1-1 1z"/><path d="m42.028 10.996c-.553 0-1.005-.447-1.005-1s.442-1 .994-1h.011c.552 0 1 .447 1 1s-.448 1-1 1z"/><path d="m32.022 12.996c-1.654 0-3-1.346-3-3s1.346-3 3-3 3 1.346 3 3-1.345 3-3 3zm0-4c-.552 0-1 .448-1 1s.448 1 1 1 1-.448 1-1-.448-1-1-1z"/><path d="m38.998 36.996c-.553 0-1-.447-1-1 0-1.654 1.346-3 3-3 .553 0 1 .447 1 1s-.447 1-1 1c-.552 0-1 .448-1 1 0 .553-.447 1-1 1z"/><path d="m40.998 42.996c-1.654 0-3-1.346-3-3 0-.553.447-1 1-1s1 .447 1 1c0 .552.448 1 1 1 .553 0 1 .447 1 1s-.447 1-1 1z"/><path d="m44.371 34.996h-3.373c-.553 0-1-.447-1-1s.447-1 1-1h3.373c.553 0 1 .447 1 1s-.447 1-1 1z"/><path d="m38.998 40.996c-.553 0-1-.447-1-1v-4c0-.553.447-1 1-1s1 .447 1 1v4c0 .553-.447 1-1 1z"/><path d="m44.371 42.996h-3.373c-.553 0-1-.447-1-1s.447-1 1-1h3.373c.553 0 1 .447 1 1s-.447 1-1 1z"/><path d="m18.999 38.996c-.256 0-.512-.098-.707-.293-.391-.391-.391-1.023 0-1.414l2-2c.391-.391 1.023-.391 1.414 0s.391 1.023 0 1.414l-2 2c-.195.195-.451.293-.707.293z"/><path d="m22.999 38.996c-.256 0-.512-.098-.707-.293l-2-2c-.391-.391-.391-1.023 0-1.414s1.023-.391 1.414 0l2 2c.391.391.391 1.023 0 1.414-.195.195-.451.293-.707.293z"/><path d="m22.999 38.996c-.256 0-.512-.098-.707-.293-.391-.391-.391-1.023 0-1.414l2-2c.391-.391 1.023-.391 1.414 0s.391 1.023 0 1.414l-2 2c-.195.195-.451.293-.707.293z"/><path d="m26.999 38.996c-.256 0-.512-.098-.707-.293l-2-2c-.391-.391-.391-1.023 0-1.414s1.023-.391 1.414 0l2 2c.391.391.391 1.023 0 1.414-.195.195-.451.293-.707.293z"/><path d="m26.999 38.996c-.256 0-.512-.098-.707-.293-.391-.391-.391-1.023 0-1.414l2-2c.391-.391 1.023-.391 1.414 0s.391 1.023 0 1.414l-2 2c-.195.195-.451.293-.707.293z"/><path d="m30.999 38.996c-.256 0-.512-.098-.707-.293l-2-2c-.391-.391-.391-1.023 0-1.414s1.023-.391 1.414 0l2 2c.391.391.391 1.023 0 1.414-.195.195-.451.293-.707.293z"/><path d="m30.999 38.996c-.256 0-.512-.098-.707-.293-.391-.391-.391-1.023 0-1.414l2-2c.391-.391 1.023-.391 1.414 0s.391 1.023 0 1.414l-2 2c-.195.195-.451.293-.707.293z"/><path d="m34.999 38.996c-.256 0-.512-.098-.707-.293l-2-2c-.391-.391-.391-1.023 0-1.414s1.023-.391 1.414 0l2 2c.391.391.391 1.023 0 1.414-.195.195-.451.293-.707.293z"/><path d="m34.999 38.996c-.256 0-.512-.098-.707-.293-.391-.391-.391-1.023 0-1.414l2-2c.391-.391 1.023-.391 1.414 0s.391 1.023 0 1.414l-2 2c-.195.195-.451.293-.707.293z"/><path d="m38.999 38.996c-.256 0-.512-.098-.707-.293l-2-2c-.391-.391-.391-1.023 0-1.414s1.023-.391 1.414 0l2 2c.391.391.391 1.023 0 1.414-.195.195-.451.293-.707.293z"/></svg>