<svg id="icons" enable-background="new 0 0 64 64" height="512" viewBox="0 0 64 64" width="512" xmlns="http://www.w3.org/2000/svg"><path d="m50 46.01c1.11 0 2 .9 2 2 0 1.11-.89 2-2 2-1.1 0-2-.89-2-2 0-1.1.9-2 2-2z" fill="#e6e9ed"/><path d="m44 48.01c0-3.31 2.69-6 6-6s6 2.69 6 6c0 3.311-2.69 6-6 6s-6-2.69-6-6zm8 0c0-1.1-.89-2-2-2-1.1 0-2 .9-2 2 0 1.11.9 2 2 2 1.11 0 2-.89 2-2z" fill="#656d78"/><path d="m49 17v4.01h-4.98v-.27-3.74z" fill="#ed5565"/><path d="m63 44.01v4h-7c0-3.31-2.69-6-6-6s-6 2.69-6 6h-3v-27h3.02 4.98v6c0 2.21 1.79 4 4 4h9v8 5z" fill="#ccd1d9"/><path d="m56 21.01 6 10h-9c-2.21 0-4-1.79-4-4v-6z" fill="#5d9cec"/><path d="m13 42.01c3.31 0 6 2.69 6 6 0 3.311-2.69 6-6 6-3.32 0-6-2.689-6-6 0-3.31 2.68-6 6-6zm2 6c0-1.1-.9-2-2-2-1.11 0-2 .9-2 2 0 1.11.89 2 2 2 1.1 0 2-.89 2-2z" fill="#656d78"/><path d="m41 21.01v27h-21-1c0-3.31-2.69-6-6-6-3.32 0-6 2.69-6 6l-6 .02.01-38.03v-.01h39.99v.01zm-10.96 6.01c0-4.96-4.04-9-9-9-4.97 0-9 4.04-9 9 0 4.971 4.03 9 9 9 4.96 0 9-4.03 9-9z" fill="#e6e9ed"/><path d="m13 46.01c1.1 0 2 .9 2 2 0 1.11-.9 2-2 2-1.11 0-2-.89-2-2 0-1.1.89-2 2-2z" fill="#e6e9ed"/><path d="m21.04 18.02c4.96 0 9 4.04 9 9 0 4.971-4.04 9-9 9-4.97 0-9-4.029-9-9 0-4.96 4.03-9 9-9z" fill="#ed5565"/><path d="m40.999 49.021c-.553 0-1-.447-1-1v-38.02c0-.553.447-1 1-1s1 .447 1 1v38.02c0 .553-.447 1-1 1z"/><path d="m1 49.031c-.553 0-1-.448-1-1l.014-38.029c0-.553.448-1 1-1 .553 0 1 .448 1 1l-.014 38.029c0 .553-.448 1-1 1z"/><path d="m63 45.01h-2.98c-.553 0-1-.447-1-1s.447-1 1-1h2.98c.553 0 1 .447 1 1s-.447 1-1 1z"/><path d="m63 49.01c-.553 0-1-.447-1-1v-4c0-.553.447-1 1-1s1 .447 1 1v4c0 .553-.447 1-1 1z"/><path d="m1 49.031c-.551 0-.998-.445-1-.996-.002-.553.444-1.002.996-1.004l5.996-.021h.004c.551 0 .998.445 1 .996.002.553-.444 1.002-.996 1.004l-5.996.021c-.002 0-.003 0-.004 0z"/><path d="m62 40.01h-1c-.553 0-1-.447-1-1s.447-1 1-1h1c.553 0 1 .447 1 1s-.447 1-1 1z"/><path d="m62 45.01c-.553 0-1-.447-1-1v-13c0-.553.447-1 1-1s1 .447 1 1v13c0 .553-.447 1-1 1z"/><path d="m56 22.012h-15.001c-.553 0-1-.447-1-1s.447-1 1-1h15.001c.553 0 1 .447 1 1s-.447 1-1 1z"/><path d="m62.001 32.01c-.34 0-.671-.173-.858-.485l-6-9.998c-.284-.474-.131-1.088.343-1.372.475-.284 1.088-.131 1.372.343l6 9.998c.284.474.131 1.088-.343 1.372-.161.096-.339.142-.514.142z"/><path d="m40.999 10.99h-39.999c-.553 0-1-.447-1-1s.447-1 1-1h39.999c.553 0 1 .447 1 1s-.447 1-1 1z"/><path d="m12.996 55.01c-3.859 0-7-3.141-7-7s3.141-7 7-7 7 3.141 7 7-3.141 7-7 7zm0-12c-2.757 0-5 2.243-5 5s2.243 5 5 5 5-2.243 5-5-2.243-5-5-5z"/><path d="m12.996 51.01c-1.654 0-3-1.346-3-3s1.346-3 3-3 3 1.346 3 3-1.346 3-3 3zm0-4c-.552 0-1 .448-1 1s.448 1 1 1 1-.448 1-1-.448-1-1-1z"/><path d="m50 51.01c-1.654 0-3-1.346-3-3s1.346-3 3-3 3 1.346 3 3-1.346 3-3 3zm0-4c-.552 0-1 .448-1 1s.448 1 1 1 1-.448 1-1-.448-1-1-1z"/><path d="m50 55.01c-3.859 0-7-3.141-7-7s3.141-7 7-7 7 3.141 7 7-3.141 7-7 7zm0-12c-2.757 0-5 2.243-5 5s2.243 5 5 5 5-2.243 5-5-2.243-5-5-5z"/><path d="m44.025 49.01h-25.025c-.553 0-1-.447-1-1s.447-1 1-1h25.025c.553 0 1 .447 1 1s-.447 1-1 1z"/><path d="m63 49.01h-7c-.553 0-1-.447-1-1s.447-1 1-1h7c.553 0 1 .447 1 1s-.447 1-1 1z"/><path d="m62 32.01h-8.997c-.553 0-1-.447-1-1s.447-1 1-1h8.997c.553 0 1 .447 1 1s-.447 1-1 1z"/><path d="m53.003 32.01c-2.757 0-5-2.243-5-5 0-.553.447-1 1-1s1 .447 1 1c0 1.654 1.346 3 3 3 .553 0 1 .447 1 1s-.447 1-1 1z"/><path d="m49.003 28.01c-.553 0-1-.447-1-1v-5.998c0-.553.447-1 1-1s1 .447 1 1v5.998c0 .553-.447 1-1 1z"/><path d="m49.005 18.004h-5.002c-.553 0-1-.447-1-1s.447-1 1-1h5.002c.553 0 1 .447 1 1s-.447 1-1 1z"/><path d="m49.005 22.012c-.553 0-1-.447-1-1v-4.008c0-.553.447-1 1-1s1 .447 1 1v4.008c0 .552-.447 1-1 1z"/><path d="m44.017 21.736c-.553 0-1-.447-1-1v-3.732c0-.553.447-1 1-1s1 .447 1 1v3.732c0 .553-.448 1-1 1z"/><path d="m46.017 15.002c-.553 0-1-.447-1-1v-3c0-.553.447-1 1-1s1 .447 1 1v3c0 .553-.448 1-1 1z"/><path d="m50.007 15.002c-.256 0-.512-.098-.707-.293-.391-.391-.391-1.023 0-1.414l2.006-2.006c.391-.391 1.023-.391 1.414 0s.391 1.023 0 1.414l-2.006 2.006c-.195.195-.451.293-.707.293z"/><path d="m21.038 37.023c-5.514 0-10-4.486-10-10s4.486-10 10-10 10 4.486 10 10-4.486 10-10 10zm0-18c-4.411 0-8 3.589-8 8s3.589 8 8 8 8-3.589 8-8-3.589-8-8-8z"/><path d="m21 32.023c-.553 0-1-.447-1-1v-8c0-.553.447-1 1-1s1 .447 1 1v8c0 .553-.447 1-1 1z"/><path d="m25 28.023h-8c-.553 0-1-.447-1-1s.447-1 1-1h8c.553 0 1 .447 1 1s-.447 1-1 1z"/></svg>