<svg id="icons" enable-background="new 0 0 64 64" height="512" viewBox="0 0 64 64" width="512" xmlns="http://www.w3.org/2000/svg"><path d="m39 24h8.989v3h-8.989z" fill="#f7c292"/><path d="m28 5v3h-.011-3-8.989-3v-3z" fill="#545c66"/><path d="m50.989 29h.011l-3 11v11.99h-3v-11.99l3-11h-.011v-2-3-16h3z" fill="#ffd2a6"/><path d="m51 5v3h-.011-3-8.989-3v-3z" fill="#545c66"/><path d="m51 1c1.1 0 2 .89 2 2 0 1.1-.9 2-2 2h-15c-1.11 0-2-.9-2-2 0-1.11.89-2 2-2z" fill="#656d78"/><path d="m39 29 3 11v11.99h-3v-11.99l-3-11v-21h3v16 3z" fill="#ffd2a6"/><path d="m46 60v3h-5v-3h1 3z" fill="#656d78"/><path d="m23 60v3h-5v-3h1 3z" fill="#656d78"/><path d="m22 51.99v8.01h-3v-8.01-11.99h3z" fill="#f7c292"/><path d="m45 51.99v8.01h-3v-8.01-11.99h3z" fill="#f7c292"/><path d="m27.989 29h.011l-3 11v11.99h-3v-11.99l3-11h-.011v-2-3-16h3z" fill="#ffd2a6"/><path d="m16 24h8.989v3h-8.989z" fill="#f7c292"/><path d="m16 29 3 11v11.99h-3v-11.99l-3-11v-21h3v16 3z" fill="#ffd2a6"/><path d="m28 1c1.1 0 2 .89 2 2 0 1.1-.9 2-2 2h-15c-1.11 0-2-.9-2-2 0-1.11.89-2 2-2z" fill="#656d78"/><path d="m16 30.002c-.553 0-1-.447-1-1v-21c0-.553.447-1 1-1s1 .447 1 1v21c0 .553-.447 1-1 1z"/><path d="m13 30.002c-.553 0-1-.447-1-1v-21c0-.553.447-1 1-1s1 .447 1 1v21c0 .553-.447 1-1 1z"/><path d="m27.996 30.002c-.553 0-1-.447-1-1v-21c0-.553.447-1 1-1s1 .447 1 1v21c0 .553-.447 1-1 1z"/><path d="m24.996 30.002c-.553 0-1-.447-1-1v-21c0-.553.447-1 1-1s1 .447 1 1v21c0 .553-.447 1-1 1z"/><path d="m22 60.998h-3c-.553 0-1-.447-1-1v-19.998c0-.553.447-1 1-1h3c.553 0 1 .447 1 1v19.998c0 .553-.447 1-1 1zm-2-2h1v-17.998h-1z"/><path d="m19 52.99h-3c-.553 0-1-.447-1-1v-11.99c0-.553.447-1 1-1s1 .447 1 1v10.99h1v-10.99c0-.553.447-1 1-1s1 .447 1 1v11.99c0 .553-.447 1-1 1z"/><path d="m23 64h-5c-.553 0-1-.447-1-1v-3c0-.553.447-1 1-1h5c.553 0 1 .447 1 1v3c0 .553-.447 1-1 1zm-4-2h3v-1h-3z"/><path d="m18.999 41c-.439 0-.843-.292-.964-.737l-3-10.998c-.146-.532.169-1.082.702-1.228.527-.146 1.082.168 1.228.702l3 10.998c.146.532-.169 1.082-.702 1.228-.088.024-.176.035-.264.035z"/><path d="m15.999 41c-.439 0-.843-.292-.964-.737l-3-10.998c-.146-.532.169-1.082.702-1.228.527-.146 1.082.168 1.228.702l3 10.998c.146.532-.169 1.082-.702 1.228-.088.024-.176.035-.264.035z"/><path d="m25 52.99h-3c-.553 0-1-.447-1-1v-11.99c0-.553.447-1 1-1s1 .447 1 1v10.99h1v-10.99c0-.553.447-1 1-1s1 .447 1 1v11.99c0 .553-.447 1-1 1z"/><path d="m22.001 41c-.088 0-.176-.011-.264-.035-.533-.146-.848-.695-.702-1.228l3-10.998c.146-.534.701-.85 1.228-.702.533.146.848.695.702 1.228l-3 10.998c-.121.445-.525.737-.964.737z"/><path d="m25.001 41c-.088 0-.176-.011-.264-.035-.533-.146-.848-.695-.702-1.228l3-10.998c.146-.534.701-.85 1.228-.702.533.146.848.695.702 1.228l-3 10.998c-.121.445-.525.737-.964.737z"/><path d="m28 9h-15c-.553 0-1-.447-1-1v-3c0-.553.447-1 1-1h15c.553 0 1 .447 1 1v3c0 .553-.447 1-1 1zm-14-2h13v-1h-13z"/><path d="m13 6c-1.654 0-3-1.346-3-3s1.346-3 3-3c.553 0 1 .447 1 1s-.447 1-1 1c-.552 0-1 .448-1 1s.448 1 1 1c.553 0 1 .447 1 1s-.447 1-1 1z"/><path d="m28 6c-.553 0-1-.447-1-1s.447-1 1-1c.552 0 1-.448 1-1s-.448-1-1-1c-.553 0-1-.447-1-1s.447-1 1-1c1.654 0 3 1.346 3 3s-1.346 3-3 3z"/><path d="m28 2.002h-15c-.553 0-1-.447-1-1s.447-1 1-1h15c.553 0 1 .447 1 1s-.447 1-1 1z"/><path d="m24.996 25.004h-8.996c-.553 0-1-.447-1-1s.447-1 1-1h8.996c.553 0 1 .447 1 1s-.447 1-1 1z"/><path d="m24.996 28.004h-8.996c-.553 0-1-.447-1-1s.447-1 1-1h8.996c.553 0 1 .447 1 1s-.447 1-1 1z"/><path d="m39 30.002c-.553 0-1-.447-1-1v-21c0-.553.447-1 1-1s1 .447 1 1v21c0 .553-.447 1-1 1z"/><path d="m36 30.002c-.553 0-1-.447-1-1v-21c0-.553.447-1 1-1s1 .447 1 1v21c0 .553-.447 1-1 1z"/><path d="m50.996 30.002c-.553 0-1-.447-1-1v-21c0-.553.447-1 1-1s1 .447 1 1v21c0 .553-.447 1-1 1z"/><path d="m47.996 30.002c-.553 0-1-.447-1-1v-21c0-.553.447-1 1-1s1 .447 1 1v21c0 .553-.447 1-1 1z"/><path d="m45 60.998h-3c-.553 0-1-.447-1-1v-19.998c0-.553.447-1 1-1h3c.553 0 1 .447 1 1v19.998c0 .553-.447 1-1 1zm-2-2h1v-17.998h-1z"/><path d="m42 52.99h-3c-.553 0-1-.447-1-1v-11.99c0-.553.447-1 1-1s1 .447 1 1v10.99h1v-10.99c0-.553.447-1 1-1s1 .447 1 1v11.99c0 .553-.447 1-1 1z"/><path d="m46 64h-5c-.553 0-1-.447-1-1v-3c0-.553.447-1 1-1h5c.553 0 1 .447 1 1v3c0 .553-.447 1-1 1zm-4-2h3v-1h-3z"/><path d="m41.999 41c-.439 0-.843-.292-.964-.737l-3-10.998c-.146-.532.169-1.082.702-1.228.528-.146 1.082.168 1.228.702l3 10.998c.146.532-.169 1.082-.702 1.228-.088.024-.176.035-.264.035z"/><path d="m38.999 41c-.439 0-.843-.292-.964-.737l-3-10.998c-.146-.532.169-1.082.702-1.228.528-.146 1.082.168 1.228.702l3 10.998c.146.532-.169 1.082-.702 1.228-.088.024-.176.035-.264.035z"/><path d="m48 52.99h-3c-.553 0-1-.447-1-1v-11.99c0-.553.447-1 1-1s1 .447 1 1v10.99h1v-10.99c0-.553.447-1 1-1s1 .447 1 1v11.99c0 .553-.447 1-1 1z"/><path d="m45.001 41c-.088 0-.176-.011-.264-.035-.533-.146-.848-.695-.702-1.228l3-10.998c.146-.534.699-.85 1.228-.702.533.146.848.695.702 1.228l-3 10.998c-.121.445-.525.737-.964.737z"/><path d="m48.001 41c-.088 0-.176-.011-.264-.035-.533-.146-.848-.695-.702-1.228l3-10.998c.146-.534.699-.85 1.228-.702.533.146.848.695.702 1.228l-3 10.998c-.121.445-.525.737-.964.737z"/><path d="m51 9h-15c-.553 0-1-.447-1-1v-3c0-.553.447-1 1-1h15c.553 0 1 .447 1 1v3c0 .553-.447 1-1 1zm-14-2h13v-1h-13z"/><path d="m36 6c-1.654 0-3-1.346-3-3s1.346-3 3-3c.553 0 1 .447 1 1s-.447 1-1 1c-.552 0-1 .448-1 1s.448 1 1 1c.553 0 1 .447 1 1s-.447 1-1 1z"/><path d="m51 6c-.553 0-1-.447-1-1s.447-1 1-1c.552 0 1-.448 1-1s-.448-1-1-1c-.553 0-1-.447-1-1s.447-1 1-1c1.654 0 3 1.346 3 3s-1.346 3-3 3z"/><path d="m51 2.002h-15c-.553 0-1-.447-1-1s.447-1 1-1h15c.553 0 1 .447 1 1s-.447 1-1 1z"/><path d="m47.996 25.004h-8.996c-.553 0-1-.447-1-1s.447-1 1-1h8.996c.553 0 1 .447 1 1s-.447 1-1 1z"/><path d="m47.996 28.004h-8.996c-.553 0-1-.447-1-1s.447-1 1-1h8.996c.553 0 1 .447 1 1s-.447 1-1 1z"/></svg>