<svg id="icons" enable-background="new 0 0 64 64" height="512" viewBox="0 0 64 64" width="512" xmlns="http://www.w3.org/2000/svg"><path d="m52 52v9c0 .55-.45 1-1 1h-16l6-8-2-2 3-4-4-2h8c1.54 0 2.94.57 4 1.53 1.23 1.09 2 2.69 2 4.47z" fill="#e6e9ed"/><path d="m50 47.53c-1.06-.96-2.46-1.53-4-1.53h-4.004c1.54 0 2.94.57 4 1.53 1.23 1.09 2 2.689 2 4.47v9c0 .55-.45 1-1 1h4.004c.55 0 1-.45 1-1v-9c0-1.78-.77-3.38-2-4.47z" fill="#ccd1d9"/><path d="m38 46-5 16h-2l-5-16v-1c0 2.21 2.69 4 6 4s6-1.79 6-4z" fill="#48cfad"/><path d="m26 46 5 16h-2l-6-8 2-2-3-4z" fill="#f5f7fa"/><path d="m23 54 6 8h-16c-.55 0-1-.45-1-1v-9c0-1.78.77-3.38 2-4.47 1.06-.96 2.46-1.53 4-1.53h8l-4 2 3 4z" fill="#e6e9ed"/><path d="m47 20.01v6.99c0 6.15-3.7 11.44-9 13.75-1.84.8-3.87 1.25-6 1.25s-4.16-.45-6-1.25c-5.3-2.31-9-7.6-9-13.75v-6.99z" fill="#eac6bb"/><path d="m42.996 20.01v6.99c0 6.15-3.7 11.44-9 13.75-1.252.545-2.598.911-3.998 1.1.657.088 1.322.15 2.002.15 2.13 0 4.16-.45 6-1.25 5.3-2.31 9-7.6 9-13.75v-6.99z" fill="#d3b1a9"/><path d="m33 62 5-16 4 2-3 4 2 2-6 8z" fill="#f5f7fa"/><path d="m38 40.75v4.25c0 2.21-2.69 4-6 4s-6-1.79-6-4v-4.25c1.84.8 3.87 1.25 6 1.25s4.16-.45 6-1.25z" fill="#eac6bb"/><path d="m50 20.01v27.52c-1.06-.96-2.46-1.53-4-1.53h-8v-1-4.25c5.3-2.31 9-7.6 9-13.75v-6.99z" fill="#844747"/><path d="m26 45v1h-8c-1.54 0-2.94.57-4 1.53v-27.52h3v6.99c0 6.15 3.7 11.44 9 13.75z" fill="#844747"/><path d="m47 20.01h-30-3v-.01-14c0-2.2 1.8-4 4-4h28c2.2 0 4 1.8 4 4v14 .01z" fill="#e6e9ed"/><path d="m46 2h-4.004c2.2 0 4 1.8 4 4v14 .01h1.004 3v-.01-14c0-2.2-1.8-4-4-4z" fill="#ccd1d9"/><path d="m32 43c-8.822 0-16-7.178-16-16 0-.553.447-1 1-1s1 .447 1 1c0 7.72 6.28 14 14 14s14-6.28 14-14c0-.553.447-1 1-1s1 .447 1 1c0 8.822-7.178 16-16 16z"/><path d="m17 28c-.553 0-1-.447-1-1v-7.001c0-.553.447-1 1-1s1 .447 1 1v7.001c0 .553-.447 1-1 1z"/><path d="m47 28c-.553 0-1-.447-1-1v-7.001c0-.553.447-1 1-1s1 .447 1 1v7.001c0 .553-.447 1-1 1z"/><path d="m14 48.528c-.553 0-1-.447-1-1v-27.528c0-.553.447-1 1-1s1 .447 1 1v27.528c0 .553-.447 1-1 1z"/><path d="m50 48.531c-.553 0-1-.447-1-1v-27.531c0-.553.447-1 1-1s1 .447 1 1v27.531c0 .553-.447 1-1 1z"/><path d="m12 53.003c-.553 0-1-.447-1-1 0-3.861 3.141-7.002 7.002-7.002.553 0 1 .447 1 1s-.447 1-1 1c-2.758 0-5.002 2.244-5.002 5.002 0 .553-.447 1-1 1z"/><path d="m52 53.002c-.553 0-1-.447-1-1 0-2.757-2.243-5-5-5-.553 0-1-.447-1-1s.447-1 1-1c3.859 0 7 3.141 7 7 0 .553-.447 1-1 1z"/><path d="m26.001 47.002-7.999-.001c-.553 0-1-.448-1-1 0-.553.448-1 1-1l7.999.001c.553 0 1 .448 1 1 0 .553-.448 1-1 1z"/><path d="m46 47.002-8.001-.001c-.553 0-1-.448-1-1 0-.553.448-1 1-1l8.001.001c.553 0 1 .448 1 1 0 .553-.448 1-1 1z"/><path d="m12.001 62c-.552 0-1-.447-1-1l-.001-8.997c0-.552.447-1 1-1 .552 0 1 .447 1 1l.001 8.997c0 .552-.447 1-1 1z"/><path d="m13.001 63c-1.103 0-2-.897-2-2 0-.553.447-1 1-1s1 .447 1 1v.002c.553 0 1 .446 1 .999 0 .552-.447.999-1 .999z"/><path d="m51 63c-.553 0-1-.447-1-1s.447-1 1-1h.002c0-.553.446-1 .999-1 .552 0 .999.447.999 1 0 1.103-.897 2-2 2z"/><path d="m52 62c-.553 0-1-.447-1-1v-8.998c0-.553.447-1 1-1s1 .447 1 1v8.998c0 .553-.447 1-1 1z"/><path d="m51 63h-37.999c-.553 0-1-.447-1-1s.447-1 1-1h37.999c.553 0 1 .447 1 1s-.447 1-1 1z"/><path d="m26 47.002c-.553 0-1-.447-1-1v-5.25c0-.553.447-1 1-1s1 .447 1 1v5.25c0 .553-.447 1-1 1z"/><path d="m38 47.002c-.553 0-1-.447-1-1v-5.25c0-.553.447-1 1-1s1 .447 1 1v5.25c0 .553-.447 1-1 1z"/><path d="m22.001 49.002c-.367 0-.72-.202-.896-.553-.247-.494-.047-1.095.447-1.342l4-2c.494-.245 1.094-.047 1.342.447.247.494.047 1.095-.447 1.342l-4 2c-.143.072-.296.106-.446.106z"/><path d="m25.001 53c-.304 0-.604-.138-.801-.399l-3-3.998c-.331-.442-.242-1.069.199-1.4.444-.33 1.069-.242 1.4.199l3 3.998c.331.442.242 1.069-.199 1.4-.18.135-.39.2-.599.2z"/><path d="m23 55c-.256 0-.512-.098-.707-.293-.391-.391-.391-1.023 0-1.414l2-2c.391-.391 1.023-.391 1.414 0s.391 1.023 0 1.414l-2 2c-.195.195-.451.293-.707.293z"/><path d="m29.001 63c-.305 0-.604-.138-.801-.4l-6-8c-.332-.441-.242-1.068.2-1.399.441-.332 1.068-.243 1.399.2l6 8c.332.441.242 1.068-.2 1.399-.179.135-.389.2-.598.2z"/><path d="m31 63c-.426 0-.82-.273-.954-.702l-5-15.998c-.165-.526.129-1.088.656-1.252.522-.168 1.087.128 1.252.656l5 15.998c.165.526-.129 1.088-.656 1.252-.099.031-.199.046-.298.046z"/><path d="m41.999 49.002c-.15 0-.303-.034-.446-.105l-4-2c-.494-.247-.694-.848-.447-1.342.248-.494.847-.692 1.342-.447l4 2c.494.247.694.848.447 1.342-.176.35-.529.552-.896.552z"/><path d="m38.999 53c-.209 0-.419-.065-.6-.2-.441-.331-.53-.958-.199-1.4l3-3.998c.331-.441.957-.529 1.4-.199.441.331.53.958.199 1.4l-3 3.998c-.195.261-.496.399-.8.399z"/><path d="m41 55c-.256 0-.512-.098-.707-.293l-2-2c-.391-.391-.391-1.023 0-1.414s1.023-.391 1.414 0l2 2c.391.391.391 1.023 0 1.414-.195.195-.451.293-.707.293z"/><path d="m34.999 63c-.209 0-.419-.065-.599-.2-.442-.331-.532-.958-.2-1.399l6-8c.331-.442.959-.53 1.399-.2.442.331.532.958.2 1.399l-6 8c-.195.262-.495.4-.8.4z"/><path d="m33 63c-.099 0-.199-.015-.298-.046-.527-.164-.821-.726-.656-1.252l5-15.998c.164-.528.726-.824 1.252-.656.527.164.821.726.656 1.252l-5 15.998c-.134.429-.528.702-.954.702z"/><path d="m32 50c-3.925 0-6.999-2.198-6.999-5.005 0-.553.447-1 1-1s1 .447 1 1c0 1.629 2.289 3.005 4.999 3.005s4.999-1.376 4.999-3.005c0-.553.447-1 1-1s1 .447 1 1c0 2.807-3.074 5.005-6.999 5.005z"/><path d="m50 21.004h-36c-.553 0-1-.447-1-1v-14.004c0-2.757 2.243-5 5-5h28c2.757 0 5 2.243 5 5v14.004c0 .553-.447 1-1 1zm-35-2h34v-13.004c0-1.654-1.346-3-3-3h-28c-1.654 0-3 1.346-3 3z"/><path d="m32 16.001c-.553 0-1-.447-1-1v-8c0-.553.447-1 1-1s1 .447 1 1v8c0 .553-.447 1-1 1z"/><path d="m36 12.001h-8c-.553 0-1-.447-1-1s.447-1 1-1h8c.553 0 1 .447 1 1s-.447 1-1 1z"/></svg>