<svg id="icons" enable-background="new 0 0 64 64" height="512" viewBox="0 0 64 64" width="512" xmlns="http://www.w3.org/2000/svg"><path d="m45.005 20.01v14.01h-.01c0 7.18-5.811 12.99-12.99 12.99v.01h-10.01v-.01c7.18 0 12.99-5.811 12.99-12.99h.01v-14.01h.01c0-4.42-3.59-8-8-8-4.27 0-7.75 3.33-7.99 7.541.24-6.971 5.96-12.541 12.99-12.541 7.18 0 13 5.82 13 13z" fill="#d3b1a9"/><path d="m29.005 37.029c0 5.5-4.46 9.971-9.96 9.99-.01 0-.03 0-.04 0v-4.99-.01c2.76 0 5-2.24 5-5s-2.24-5-5-5v-4.99c5.52 0 10 4.471 10 10z" fill="#b2928d"/><path d="m34.985 34.02c0 7.18-5.811 12.99-12.99 12.99v.01h-2.95c5.5-.02 9.96-4.49 9.96-9.99 0-5.529-4.479-10-10-10v-7.02c0-.15 0-.311.01-.459.24-4.211 3.721-7.541 7.99-7.541 4.41 0 8 3.58 8 8h-.01v14.01z" fill="#c6a49d"/><path d="m13.005 52.85v-32.84c0-10.5 8.51-19 19-19s19 8.5 19 19v14.01c0 10.5-8.5 18.99-19 18.99v-.02h-3c-2.22 0-4.01 1.789-4.01 4.01l-.03.01c0 3.301-2.68 5.98-5.979 5.98h-.011c-3.31 0-5.979-2.68-5.979-5.98l.01-.01v-4.15zm6-5.83h.04 2.95 10.01v-.01c7.18 0 12.99-5.811 12.99-12.99h.01v-14.01c0-7.18-5.82-13-13-13-7.03 0-12.75 5.57-12.99 12.541-.01.148-.01.309-.01.459v7.02 4.99c2.76 0 5 2.24 5 5s-2.24 5-5 5v.01z" fill="#eac6bb"/><path d="m51.006 21.006c-.553 0-1-.447-1-1 0-9.924-8.075-17.998-18-17.998s-18 8.074-18 17.998c0 .553-.447 1-1 1s-1-.447-1-1c0-11.027 8.972-19.998 20-19.998s20 8.971 20 19.998c0 .553-.447 1-1 1z"/><path d="m45.004 21.006c-.553 0-1-.447-1-1 0-6.616-5.382-11.998-11.998-11.998s-11.998 5.382-11.998 11.998c0 .553-.447 1-1 1s-1-.447-1-1c0-7.719 6.279-13.998 13.998-13.998s13.998 6.279 13.998 13.998c0 .553-.447 1-1 1z"/><path d="m35.004 21.006c-.553 0-1-.447-1-1 0-3.858-3.141-6.998-7-6.998s-7 3.14-7 6.998c0 .553-.447 1-1 1s-1-.447-1-1c0-4.962 4.037-8.998 9-8.998s9 4.036 9 8.998c0 .553-.447 1-1 1z"/><path d="m18.975 63.992c-3.849 0-6.98-3.132-6.98-6.98 0-.553.447-1 1-1s1 .447 1 1c0 2.746 2.234 4.98 4.98 4.98.553 0 1 .447 1 1s-.448 1-1 1z"/><path d="m18.986 63.992c-.553 0-1-.447-1-1s.447-1 1-1c2.746 0 4.98-2.235 4.98-4.982 0-.553.447-1 1-1s1 .447 1 1c.001 3.85-3.131 6.982-6.98 6.982z"/><path d="m24.996 57.996c-.553 0-1-.447-1-1 0-2.76 2.246-5.006 5.006-5.006.553 0 1 .447 1 1s-.447 1-1 1c-1.657 0-3.006 1.349-3.006 3.006 0 .553-.447 1-1 1z"/><path d="m32.012 54.012c-.553 0-1-.447-1-1s.447-1 1-1c9.922 0 17.994-8.073 17.994-17.996 0-.553.447-1 1-1s1 .447 1 1c0 11.026-8.97 19.996-19.994 19.996z"/><path d="m32.004 48.008c-.553 0-1-.447-1-1s.447-1 1-1c6.612 0 11.992-5.38 11.992-11.992 0-.553.447-1 1-1s1 .447 1 1c0 7.714-6.277 13.992-13.992 13.992z"/><path d="m21.994 48.008c-.553 0-1-.447-1-1s.447-1 1-1c6.612 0 11.992-5.38 11.992-11.992 0-.553.447-1 1-1s1 .447 1 1c0 7.714-6.277 13.992-13.992 13.992z"/><path d="m51.004 35.016c-.553 0-1-.447-1-1v-14.01c0-.553.447-1 1-1s1 .447 1 1v14.01c0 .552-.447 1-1 1z"/><path d="m13.006 57.998c-.553 0-1-.447-1-1v-36.992c0-.553.447-1 1-1s1 .447 1 1v36.992c0 .553-.447 1-1 1z"/><path d="m45.008 35.016c-.553 0-1-.447-1-1v-14.008c0-.553.447-1 1-1s1 .447 1 1v14.008c0 .552-.447 1-1 1z"/><path d="m34.998 35.016c-.553 0-1-.447-1-1v-14.008c0-.553.447-1 1-1s1 .447 1 1v14.008c0 .552-.447 1-1 1z"/><path d="m32.004 48.016h-12.998c-.553 0-1-.447-1-1s.447-1 1-1h12.998c.553 0 1 .447 1 1s-.447 1-1 1z"/><path d="m19.006 48.016c-.553 0-1-.447-1-1v-4.99c0-.553.447-1 1-1s1 .447 1 1v4.99c0 .552-.447 1-1 1z"/><path d="m12.996 54.064c-.553 0-1-.447-1-1 0-3.887 3.162-7.049 7.049-7.049.553 0 1 .447 1 1s-.447 1-1 1c-2.784 0-5.049 2.265-5.049 5.049 0 .553-.447 1-1 1z"/><path d="m32.012 53.99h-3.01c-.553 0-1-.447-1-1s.447-1 1-1h3.01c.553 0 1 .447 1 1s-.448 1-1 1z"/><path d="m19.006 43.021c-.553 0-1-.447-1-1s.447-1 1-1c2.206 0 4-1.794 4-4 0-2.207-1.794-4.002-4-4.002-.553 0-1-.447-1-1s.447-1 1-1c3.309 0 6 2.692 6 6.002 0 3.309-2.692 6-6 6z"/><path d="m19.006 48.02c-.553 0-1-.447-1-1s.447-1 1-1c4.961 0 8.996-4.035 8.996-8.994 0-4.963-4.035-9-8.996-9-.553 0-1-.447-1-1s.447-1 1-1c6.063 0 10.996 4.935 10.996 11 0 6.062-4.933 10.994-10.996 10.994z"/><path d="m19.006 33.02c-.553 0-1-.447-1-1v-12.014c0-.553.447-1 1-1s1 .447 1 1v12.014c0 .552-.447 1-1 1z"/></svg>