<svg id="icons" enable-background="new 0 0 64 64" height="512" viewBox="0 0 64 64" width="512" xmlns="http://www.w3.org/2000/svg"><path d="m60.25 21.34c.81 1.47 1.47 3.04 1.93 4.7-2.92.41-5.18 2.92-5.18 5.96s2.26 5.55 5.18 5.96c-.46 1.66-1.12 3.24-1.939 4.71-4.751-1.24-8.241-5.54-8.241-10.67 0-4.761 3.02-8.82 7.25-10.36.33-.111.66-.22 1-.3z" fill="#5d9cec"/><path d="m62.18 26.04c.53 1.89.82 3.89.82 5.96 0 2.069-.29 4.069-.82 5.96-2.92-.41-5.18-2.92-5.18-5.96s2.26-5.55 5.18-5.96z" fill="#4a89dc"/><path d="m20.14 25.01c2.92-8.731 11.16-15.01 20.86-15.01 8.28 0 15.49 4.569 19.25 11.34-.34.08-.67.189-1 .3-4.23 1.54-7.25 5.599-7.25 10.36 0 5.13 3.49 9.43 8.24 10.67-3.76 6.76-10.96 11.33-19.24 11.33-9.7 0-17.94-6.28-20.86-15-.54-1.59-.89-3.271-1.05-5-.06-.66-.09-1.33-.09-2s.03-1.33.09-1.99c.15-1.731.51-3.41 1.05-5z" fill="#e6e9ed"/><path d="m19 32c0 .67.03 1.34.09 2h-8.09-10v-3.99h10 8.09c-.06.66-.09 1.32-.09 1.99z" fill="#ed5565"/><path d="m41 55c-12.683 0-23-10.317-23-23s10.317-23 23-23 23 10.317 23 23-10.317 23-23 23zm0-44c-11.579 0-21 9.421-21 21s9.421 21 21 21 21-9.421 21-21-9.421-21-21-21z"/><path d="m62.179 38.962c-.046 0-.093-.003-.14-.01-3.442-.482-6.039-3.471-6.039-6.952 0-3.482 2.598-6.472 6.043-6.953.545-.08 1.053.305 1.129.852s-.305 1.053-.852 1.129c-2.463.344-4.32 2.482-4.32 4.972 0 2.489 1.855 4.627 4.316 4.972.547.076.929.582.852 1.129-.07.5-.498.861-.989.861z"/><path d="m60.245 43.668c-.083 0-.168-.01-.252-.032-5.295-1.375-8.993-6.16-8.993-11.636 0-5.034 3.178-9.574 7.907-11.298.355-.129.718-.242 1.088-.338.53-.134 1.08.185 1.218.72s-.185 1.08-.72 1.218c-.306.078-.607.172-.9.279-3.944 1.438-6.593 5.223-6.593 9.419 0 4.565 3.082 8.554 7.495 9.7.535.139.855.685.717 1.219-.117.45-.523.749-.967.749z"/><path d="m19.09 31.005h-18.09c-.553 0-1-.447-1-1s.447-1 1-1h18.09c.553 0 1 .447 1 1s-.447 1-1 1z"/><path d="m19.09 35.002h-18.09c-.553 0-1-.447-1-1s.447-1 1-1h18.09c.553 0 1 .447 1 1s-.447 1-1 1z"/><path d="m11.002 31.005c-.553 0-1-.447-1-1 0-3.309 2.691-6 6-6 .553 0 1 .447 1 1s-.447 1-1 1c-2.206 0-4 1.794-4 4 0 .553-.447 1-1 1z"/><path d="m32 26.005h-15.998c-.553 0-1-.447-1-1s.447-1 1-1h15.998c.553 0 1 .447 1 1s-.447 1-1 1z"/><path d="m16.002 40.002c-3.309 0-6-2.691-6-6 0-.553.447-1 1-1s1 .447 1 1c0 2.206 1.794 4 4 4 .553 0 1 .447 1 1s-.447 1-1 1z"/><path d="m32 40.002h-15.998c-.553 0-1-.447-1-1s.447-1 1-1h15.998c.553 0 1 .447 1 1s-.447 1-1 1z"/></svg>