<svg id="icons" enable-background="new 0 0 64 64" height="512" viewBox="0 0 64 64" width="512" xmlns="http://www.w3.org/2000/svg"><g fill="#e6e9ed"><path d="m10.505 43.932c0 1.101-.891 2-2 2-1.101 0-2-.899-2-2 0-1.11 2-3 2-3s2 1.889 2 3z"/><path d="m55.505 31.922v3h-6v-3c0-1.65 1.35-3 3-3 1.66 0 3 1.349 3 3z"/><path d="m38.505 43.932c0 1.101-.891 2-2 2-1.101 0-2-.899-2-2 0-1.11 2-3 2-3s2 1.889 2 3z"/></g><path d="m28.495 43.462c-1.801.93-3.841 1.46-6 1.46-2.16 0-4.2-.53-6-1.46-4.16-2.17-7-6.521-7-11.54v-4l3-3s4.569 2 10 2c5.43 0 10-2 10-2l3 3v4c0 5.019-2.841 9.37-7 11.54z" fill="#eac6bb"/><path d="m32.495 24.922-.003.001v6.999c0 5.02-2.841 9.37-7 11.54-1.377.711-2.896 1.183-4.499 1.368.493.057.994.092 1.502.092 2.159 0 4.199-.53 6-1.46 4.159-2.17 7-6.521 7-11.54v-4z" fill="#d3b1a9"/><path d="m28.495 43.462v5.46l-3 2-3-1-3 1-3-2v-5.46c1.8.93 3.84 1.46 6 1.46 2.159 0 4.199-.53 6-1.46z" fill="#87bcf4"/><path d="m55.505 41.932v9.8c-.88-.52-1.91-.81-3-.81-1.03 0-2 .26-2.851.72l-.149.084v-9.794-7.01h6z" fill="#da4453"/><path d="m55.505 51.731c1.79 1.03 3 2.971 3 5.19 0 3.32-2.681 6-6 6-3.311 0-6-2.68-6-6 0-2.28 1.27-4.26 3.149-5.28.851-.46 1.82-.72 2.851-.72 1.09.001 2.12.291 3 .81z" fill="#ed5565"/><path d="m39.495 55.922v6c0 .56-.45 1-1 1h-32c-.551 0-1-.44-1-1v-6c0-3.87 3.13-7 7-7h4l3 2 3-1 3 1 3-2h4c3.869 0 7 3.13 7 7z" fill="#5d9cec"/><path d="m32.495 48.922h-4l-.116.077h1.113c3.869 0 7 3.13 7 7v6c0 .421-.254.773-.614.923h2.617c.55 0 1-.44 1-1v-6c0-3.87-3.131-7-7-7z" fill="#4a89dc"/><path d="m12.495 24.922-3 3v-5c0-6.63 5.369-12 12-12h8v4c3.31 0 6 2.689 6 6v7l-3-3s-4.57 2-10 2c-5.431 0-10-2-10-2z" fill="#965353"/><path d="m29.495 17.922c1.654 0 3 1.346 3 3v4l3 3v-7c0-3.311-2.69-6-6-6v-4h-3v4c0 1.657 1.343 3 3 3z" fill="#844747"/><path d="m39.493 56.922c-.553 0-1-.447-1-1 0-3.309-2.691-6-6-6-.553 0-1-.447-1-1s.447-1 1-1c4.411 0 8 3.589 8 8 0 .553-.447 1-1 1z"/><path d="m32.493 49.922-4.001-.002c-.552 0-.999-.448-.999-1 0-.553.448-1 1-1h.001l4 .002c.552 0 .999.448.999 1 0 .553-.448 1-1 1z"/><path d="m6.493 63.922c-1.103 0-2-.897-2-2 0-.553.447-1 1-1s1 .447 1 1v.002c.553 0 1 .446 1 .999 0 .552-.447.999-1 .999z"/><path d="m38.493 63.922c-.553 0-1-.447-1-1s.447-1 1-1h.002c0-.553.446-1 .999-1 .552 0 .999.447.999 1 0 1.102-.897 2-2 2z"/><path d="m39.493 62.922c-.553 0-1-.447-1-1v-6c0-.553.447-1 1-1s1 .447 1 1v6c0 .553-.447 1-1 1z"/><path d="m5.494 56.92c-.552 0-1-.447-1-1-.001-2.139.831-4.147 2.341-5.658 1.511-1.51 3.521-2.342 5.659-2.342.553 0 1 .447 1 1s-.447 1-1 1c-1.604 0-3.112.624-4.244 1.756-1.133 1.133-1.756 2.64-1.756 4.244 0 .552-.447 1-1 1z"/><path d="m12.494 49.922c-.552 0-1-.447-1-1 0-.552.447-1 .999-1l4-.002h.001c.552 0 1 .447 1 1 0 .552-.447 1-.999 1z"/><path d="m5.493 62.92c-.553 0-1-.448-1-1l.001-6c0-.553.448-1 1-1 .553 0 1 .448 1 1l-.001 6c0 .553-.448 1-1 1z"/><path d="m38.493 63.922h-32c-.553 0-1-.447-1-1s.447-1 1-1h32c.553 0 1 .447 1 1s-.447 1-1 1z"/><path d="m16.494 49.92c-.552 0-1-.447-1-1l-.001-5.463c0-.552.447-1 1-1 .552 0 1 .447 1 1l.001 5.463c0 .552-.447 1-1 1z"/><path d="m28.493 49.918c-.553 0-1-.447-1-1v-5.461c0-.553.447-1 1-1s1 .447 1 1v5.461c0 .553-.447 1-1 1z"/><path d="m22.493 45.922c-7.72 0-14-6.28-14-14 0-.553.447-1 1-1s1 .447 1 1c0 6.617 5.383 12 12 12s12-5.383 12-12c0-.553.447-1 1-1s1 .447 1 1c0 7.72-6.28 14-14 14z"/><path d="m9.493 32.922c-.553 0-1-.447-1-1v-9c0-.553.447-1 1-1s1 .447 1 1v9c0 .553-.447 1-1 1z"/><path d="m35.493 32.922c-.553 0-1-.447-1-1v-11c0-.553.447-1 1-1s1 .447 1 1v11c0 .553-.447 1-1 1z"/><path d="m35.493 21.922c-.553 0-1-.447-1-1 0-2.757-2.243-5-5-5-.553 0-1-.447-1-1s.447-1 1-1c3.859 0 7 3.141 7 7 0 .553-.447 1-1 1z"/><path d="m29.493 15.922c-.553 0-1-.447-1-1v-4c0-.553.447-1 1-1s1 .447 1 1v4c0 .553-.447 1-1 1z"/><path d="m29.493 11.922h-8c-.553 0-1-.447-1-1s.447-1 1-1h8c.553 0 1 .447 1 1s-.447 1-1 1z"/><path d="m9.492 23.922c-.553 0-1-.447-1-1 0-7.168 5.832-13 13.001-13 .553 0 1 .447 1 1s-.447 1-1 1c-6.066 0-11.001 4.935-11.001 11 0 .553-.447 1-1 1z"/><path d="m35.493 28.922c-.256 0-.512-.098-.707-.293l-3-3c-.391-.391-.391-1.023 0-1.414s1.023-.391 1.414 0l3 3c.391.391.391 1.023 0 1.414-.195.195-.451.293-.707.293z"/><path d="m22.493 27.922c-5.574 0-10.206-1.999-10.4-2.084-.506-.221-.736-.811-.516-1.316s.807-.735 1.316-.516c.044.019 4.459 1.916 9.6 1.916 5.16 0 9.556-1.897 9.6-1.916.505-.222 1.096.01 1.316.516.222.506-.009 1.095-.516 1.316-.194.085-4.826 2.084-10.4 2.084z"/><path d="m9.492 28.922c-.256 0-.512-.098-.707-.293-.391-.391-.391-1.023 0-1.414l3.001-3c.391-.391 1.023-.391 1.414 0s.391 1.023 0 1.414l-3.001 3c-.195.195-.451.293-.707.293z"/><path d="m19.492 51.922c-.19 0-.384-.055-.555-.168l-2.999-2.002c-.459-.307-.583-.928-.276-1.388.307-.458.927-.583 1.388-.276l2.999 2.002c.459.307.583.928.276 1.388-.193.288-.51.444-.833.444z"/><path d="m19.493 51.922c-.418 0-.809-.264-.948-.683-.176-.523.107-1.091.631-1.266l3-1.004c.525-.174 1.091.106 1.266.631.176.523-.107 1.091-.631 1.266l-3 1.004c-.106.035-.212.052-.318.052z"/><path d="m25.494 51.922c-.323 0-.64-.156-.833-.445-.307-.459-.183-1.08.277-1.387l3-2.002c.458-.307 1.079-.183 1.387.277.307.459.183 1.08-.277 1.387l-3 2.002c-.17.113-.363.168-.554.168z"/><path d="m25.493 51.922c-.105 0-.212-.017-.317-.052l-3-1.004c-.523-.175-.807-.742-.631-1.266.175-.523.744-.805 1.266-.631l3 1.004c.523.175.807.742.631 1.266-.14.418-.531.683-.949.683z"/><path d="m22.523 55.922c-.553 0-1.005-.447-1.005-1s.442-1 .994-1h.011c.552 0 1 .447 1 1s-.448 1-1 1z"/><path d="m22.523 59.922c-.553 0-1.005-.447-1.005-1s.442-1 .994-1h.011c.552 0 1 .447 1 1s-.448 1-1 1z"/><path d="m15.496 7.922c-.321 0-.637-.154-.83-.441-.309-.458-.188-1.079.271-1.388.16-.126.506-.563-.244-1.575-.714-.961-.984-1.883-.804-2.739.218-1.035 1.021-1.518 1.112-1.569.482-.273 1.092-.104 1.363.375.269.472.111 1.069-.35 1.349-.025.019-.145.111-.172.275-.045.261.121.668.455 1.118.692.933.968 1.849.818 2.722-.187 1.085-.974 1.644-1.063 1.703-.169.114-.364.17-.556.17z"/><path d="m22.497 7.922c-.321 0-.637-.154-.83-.441-.309-.458-.188-1.079.271-1.388.16-.126.506-.563-.244-1.575-.714-.961-.984-1.883-.804-2.739.218-1.035 1.021-1.518 1.112-1.569.483-.273 1.092-.104 1.363.375.269.472.111 1.069-.35 1.349-.025.019-.145.111-.172.275-.045.261.121.668.455 1.118.692.933.968 1.849.818 2.722-.187 1.085-.974 1.644-1.063 1.703-.169.114-.364.17-.556.17z"/><path d="m29.498 7.922c-.321 0-.637-.154-.83-.441-.309-.458-.188-1.079.271-1.388.16-.126.506-.563-.244-1.575-.714-.961-.984-1.883-.804-2.739.218-1.035 1.021-1.518 1.112-1.569.482-.273 1.092-.104 1.363.375.269.472.111 1.069-.35 1.349-.025.019-.145.111-.172.275-.044.26.122.667.456 1.117.692.933.968 1.849.818 2.722-.187 1.085-.974 1.644-1.063 1.703-.17.115-.365.171-.557.171z"/><path d="m36.505 46.924c-1.654 0-3-1.346-3-3 0-1.424 1.77-3.212 2.312-3.727.387-.365.99-.365 1.377 0 .542.515 2.312 2.303 2.312 3.727-.001 1.654-1.347 3-3.001 3zm0-4.552c-.558.645-.987 1.293-1 1.554 0 .55.448.998 1 .998s1-.448 1-1c-.013-.26-.442-.907-1-1.552z"/><path d="m8.507 46.924c-1.654 0-3-1.346-3-3 0-1.424 1.77-3.212 2.312-3.727.387-.365.99-.365 1.377 0 .542.515 2.312 2.303 2.312 3.727-.001 1.654-1.347 3-3.001 3zm0-4.552c-.558.645-.987 1.293-1 1.554 0 .55.448.998 1 .998s1-.448 1-1c-.013-.26-.443-.907-1-1.552z"/><path d="m52.507 63.922c-3.859 0-7-3.141-7-7s3.141-7 7-7 7 3.141 7 7-3.141 7-7 7zm0-12c-2.757 0-5 2.243-5 5s2.243 5 5 5 5-2.243 5-5-2.243-5-5-5z"/><path d="m55.507 32.922c-.553 0-1-.447-1-1 0-1.103-.897-2-2-2s-2 .897-2 2c0 .553-.447 1-1 1s-1-.447-1-1c0-2.206 1.794-4 4-4s4 1.794 4 4c0 .553-.447 1-1 1z"/><path d="m55.507 52.729c-.553 0-1-.447-1-1v-19.807c0-.553.447-1 1-1s1 .447 1 1v19.808c0 .552-.447.999-1 .999z"/><path d="m49.507 52.726c-.553 0-1-.447-1-1v-19.804c0-.553.447-1 1-1s1 .447 1 1v19.804c0 .552-.447 1-1 1z"/><path d="m50.507 42.924h-1c-.553 0-1-.447-1-1s.447-1 1-1h1c.553 0 1 .447 1 1s-.447 1-1 1z"/><path d="m55.507 42.924h-1c-.553 0-1-.447-1-1s.447-1 1-1h1c.553 0 1 .447 1 1s-.447 1-1 1z"/><path d="m55.507 35.922h-6c-.553 0-1-.447-1-1s.447-1 1-1h6c.553 0 1 .447 1 1s-.447 1-1 1z"/></svg>