<svg id="icons" enable-background="new 0 0 64 64" height="512" viewBox="0 0 64 64" width="512" xmlns="http://www.w3.org/2000/svg"><path d="m49.1 17.742-2.83-2.83v-.01l9.58-9.57 2.83 2.83-9.58 9.57z" fill="#e6e9ed"/><path d="m11.898 46.441 5.661 5.661-2.12 2.119-.22-.219-5.44-5.441z" fill="#656d78"/><path d="m15.439 54.221v2.83l-5.951 5.951-8.49-8.49.522-.51h13.699z" fill="#5d9cec"/><path d="m36.609 24.561 2.83 2.83 2.11 2.111-2.119 2.119-7.061-7.06 2.119-2.12z" fill="#656d78"/><path d="m46.979 19.861 2.099 2.1-7.529 7.541-2.11-2.111z" fill="#e6e9ed"/><path d="m26.059 42.172v.01l-4.241 2.83-1.42-1.41-1.41-1.42 2.83-4.241z" fill="#ccd1d9"/><path d="m56.199 1.441 6.359 6.359c.59.58.59 1.541 0 2.121-.58.59-1.529.59-2.119 0l-1.76-1.76-2.83-2.83-1.771-1.771c-.59-.59-.59-1.539 0-2.119.59-.589 1.531-.589 2.121 0z" fill="#f5f7fa"/><path d="m49.1 17.742 2.469 2.469c.58.59.58 1.541 0 2.121-.59.59-1.539.59-2.119 0l-.01-.021-.361-.35-2.1-2.1v-.01l-2.83-2.83-2.119-2.119-.361-.352c-.59-.59-.59-1.529 0-2.119.58-.58 1.531-.58 2.121 0l2.48 2.48z" fill="#f5f7fa"/><path d="m33.987 18.232h10.662v2.998h-10.662z" fill="#e6e9ed" transform="matrix(.707 -.707 .707 .707 -2.436 33.582)"/><path d="m15.219 54.002h-13.699l5.429-5.441h2.83z" fill="#e6e9ed"/><path d="m39.43 31.621-9.852 9.84-3.519.711-4.241-4.231.711-3.539 9.84-9.841z" fill="#5d9cec"/><path d="m46.979 19.852v.009l-7.54 7.53-2.83-2.83 7.539-7.54z" fill="#ccd1d9"/><path d="m22.523 35.404c-.256 0-.512-.098-.707-.293-.391-.391-.391-1.023 0-1.414l19.499-19.5c.391-.391 1.023-.391 1.414 0s.391 1.023 0 1.414l-19.499 19.5c-.195.196-.451.293-.707.293z"/><path d="m29.582 42.463c-.256 0-.512-.098-.707-.293-.391-.391-.391-1.023 0-1.414l19.499-19.5c.391-.391 1.023-.391 1.414 0s.391 1.023 0 1.414l-19.499 19.5c-.195.195-.451.293-.707.293z"/><path d="m21.817 38.939c-.065 0-.131-.006-.197-.02-.541-.108-.893-.635-.784-1.177l.707-3.535c.107-.542.638-.898 1.177-.784.541.108.893.635.784 1.177l-.707 3.535c-.095.476-.513.804-.98.804z"/><path d="m26.058 43.172c-.467 0-.884-.328-.979-.803-.108-.541.242-1.068.783-1.178l3.523-.709c.541-.11 1.068.242 1.178.783.108.541-.242 1.068-.783 1.178l-3.523.709c-.068.014-.134.02-.199.02z"/><path d="m26.059 43.172c-.256 0-.511-.098-.706-.292l-4.242-4.232c-.392-.391-.392-1.023-.002-1.414.391-.393 1.023-.391 1.414-.002l4.242 4.232c.392.391.392 1.023.002 1.414-.196.196-.453.294-.708.294z"/><path d="m18.985 43.186c-.19 0-.383-.055-.554-.168-.46-.307-.584-.927-.277-1.387l2.83-4.246c.306-.46.926-.583 1.387-.277.46.307.584.927.277 1.387l-2.83 4.246c-.192.288-.509.445-.833.445z"/><path d="m21.815 46.012c-.323 0-.641-.156-.833-.445-.307-.46-.182-1.081.277-1.387l4.244-2.828c.46-.307 1.081-.183 1.387.277.307.46.182 1.081-.277 1.387l-4.244 2.828c-.171.113-.363.168-.554.168z"/><path d="m21.814 46.012c-.256 0-.512-.098-.707-.293l-2.828-2.826c-.391-.39-.391-1.023 0-1.414s1.023-.391 1.414 0l2.828 2.826c.391.39.391 1.023 0 1.414-.195.195-.451.293-.707.293z"/><path d="m14.737 50.262c-.256 0-.512-.098-.707-.293-.391-.391-.391-1.023 0-1.414l5.663-5.662c.391-.391 1.023-.391 1.414 0s.391 1.023 0 1.414l-5.663 5.662c-.195.195-.451.293-.707.293z"/><path d="m41.663 15.559c-.256 0-.512-.098-.707-.293-.976-.976-.976-2.562 0-3.537.975-.975 2.561-.975 3.535 0 .391.391.391 1.023 0 1.414s-1.023.391-1.414 0c-.195-.195-.512-.195-.707 0-.128.128-.146.277-.146.354s.019.227.146.354c.391.391.391 1.023 0 1.414-.195.196-.451.294-.707.294z"/><path d="m50.502 23.774c-.642 0-1.281-.244-1.768-.732-.391-.392-.389-1.024.002-1.414.392-.391 1.024-.39 1.414.002.195.195.512.191.707-.002.195-.194.193-.513-.002-.709-.391-.392-.389-1.024.002-1.414.392-.39 1.024-.39 1.414.002.471.473.73 1.1.73 1.768.001.67-.26 1.299-.732 1.77-.488.486-1.128.729-1.767.729z"/><path d="m54.077 4.561c-.256 0-.512-.098-.707-.293-.975-.975-.975-2.561 0-3.535s2.561-.975 3.535 0c.391.391.391 1.023 0 1.414s-1.023.391-1.414 0c-.195-.195-.512-.195-.707 0-.194.195-.194.512 0 .707.391.391.391 1.023 0 1.414-.195.195-.451.293-.707.293z"/><path d="m61.501 11.36c-.64 0-1.279-.242-1.768-.728-.392-.389-.394-1.021-.004-1.414.39-.391 1.022-.394 1.414-.004.195.192.514.198.709.002.128-.127.148-.276.148-.353s-.02-.228-.147-.355c-.391-.391-.391-1.023 0-1.414s1.023-.391 1.414 0c.473.473.733 1.102.733 1.771-.001.668-.262 1.296-.734 1.767-.486.485-1.125.728-1.765.728z"/><path d="m49.435 23.316c-.256 0-.512-.098-.707-.293l-7.764-7.766c-.391-.391-.391-1.023 0-1.414s1.023-.391 1.414 0l7.764 7.766c.391.391.391 1.023 0 1.414-.196.196-.452.293-.707.293z"/><path d="m51.569 21.211c-.256 0-.512-.098-.707-.293l-7.779-7.781c-.391-.391-.391-1.023 0-1.414s1.023-.391 1.414 0l7.779 7.781c.391.391.391 1.023 0 1.414-.195.195-.451.293-.707.293z"/><path d="m39.423 32.621c-.256 0-.512-.098-.707-.293l-7.057-7.057c-.391-.391-.391-1.023 0-1.414s1.023-.391 1.414 0l7.057 7.057c.391.391.391 1.023 0 1.414-.195.195-.451.293-.707.293z"/><path d="m41.544 30.5c-.256 0-.512-.098-.707-.293l-7.057-7.057c-.391-.391-.391-1.023 0-1.414s1.023-.391 1.414 0l7.057 7.057c.391.391.391 1.023 0 1.414-.195.195-.451.293-.707.293z"/><path d="m36.608 25.563c-.256 0-.512-.098-.707-.293-.391-.391-.391-1.023 0-1.414l7.535-7.537c.391-.391 1.023-.391 1.414 0s.391 1.023 0 1.414l-7.535 7.537c-.195.195-.451.293-.707.293z"/><path d="m39.437 28.391c-.256 0-.512-.098-.707-.293-.391-.391-.391-1.023 0-1.414l7.537-7.537c.391-.391 1.023-.391 1.414 0s.391 1.023 0 1.414l-7.537 7.537c-.196.195-.452.293-.707.293z"/><path d="m46.265 15.904c-.256 0-.512-.098-.707-.293-.391-.391-.391-1.023 0-1.414l9.586-9.584c.391-.391 1.023-.391 1.414 0s.391 1.023 0 1.414l-9.586 9.584c-.196.196-.451.293-.707.293z"/><path d="m49.093 18.734c-.256 0-.512-.098-.707-.293-.391-.391-.391-1.023 0-1.414l9.586-9.586c.391-.391 1.023-.391 1.414 0s.391 1.023 0 1.414l-9.586 9.586c-.196.196-.451.293-.707.293z"/><path d="m60.438 10.924c-.256 0-.512-.098-.707-.293l-6.361-6.363c-.391-.391-.391-1.023 0-1.414s1.023-.391 1.414 0l6.361 6.363c.391.391.391 1.023 0 1.414-.195.195-.451.293-.707.293z"/><path d="m62.56 8.801c-.256 0-.512-.098-.707-.293l-6.361-6.361c-.391-.391-.391-1.023 0-1.414s1.023-.391 1.414 0l6.361 6.361c.391.391.391 1.023 0 1.414-.196.195-.452.293-.707.293z"/><path d="m15.435 55.221c-.256 0-.512-.098-.707-.293l-5.657-5.658c-.391-.391-.391-1.023 0-1.414l2.121-2.121c.391-.391 1.023-.391 1.414 0l5.658 5.658c.188.188.293.442.293.707 0 .266-.105.52-.293.707l-2.123 2.121c-.195.195-.451.293-.706.293zm-4.243-6.658 4.242 4.244.709-.707-4.244-4.244z"/><path d="m9.484 64c-.266 0-.52-.105-.707-.293l-8.484-8.484c-.391-.391-.391-1.023 0-1.414l5.95-5.953c.188-.188.441-.293.707-.293h2.828c.266 0 .52.105.707.293l5.656 5.658c.188.188.293.441.293.707v2.828c0 .266-.105.52-.293.707l-5.95 5.951c-.187.188-.441.293-.707.293zm-7.07-9.484 7.07 7.07 4.95-4.951v-2l-5.07-5.072h-2z"/><path d="m15.263 55h-13.747c-.553 0-1-.447-1-1s.447-1 1-1h13.747c.553 0 1 .447 1 1s-.448 1-1 1z"/></svg>