<svg id="icons" enable-background="new 0 0 64 64" height="512" viewBox="0 0 64 64" width="512" xmlns="http://www.w3.org/2000/svg"><path d="m43 17.012c-2.21 0-4-1.79-4-4.011 0-6.63 5.37-12 12-12s12 5.37 12 12v17c0 6.631-5.37 12-12 12s-12-5.369-12-12c0-2.21 1.79-4 4-4v-3-3z" fill="#ed5565"/><path d="m34 29.001c0-4.979 4.02-9 9-9v3c-4.98 0-9 4.03-9 9z" fill="#e6e9ed"/><path d="m30 29.001v3c0-4.97-4.02-9-9-9v-3c4.98 0 9 4.02 9 9z" fill="#e6e9ed"/><path d="m21 23.001v3c2.21 0 4 1.79 4 4 0 6.631-5.37 12-12 12s-12-5.369-12-12v-17c0-6.63 5.37-12 12-12s12 5.37 12 12c0 2.221-1.79 4.011-4 4.011v2.989z" fill="#ed5565"/><path d="m25.001 14c-.553 0-1-.447-1-1 0-6.065-4.935-11-11-11s-11 4.935-11 11c0 .553-.447 1-1 1s-1-.447-1-1c0-7.168 5.832-13 13-13s13 5.832 13 13c0 .553-.447 1-1 1z"/><path d="m13.001 43.001c-7.168 0-13-5.832-13-13 0-.553.447-1 1-1s1 .447 1 1c0 6.065 4.935 11 11 11s11-4.935 11-11c0-.553.447-1 1-1s1 .447 1 1c0 7.168-5.832 13-13 13z"/><path d="m1.001 31.001c-.553 0-1-.447-1-1v-17.001c0-.553.447-1 1-1s1 .447 1 1v17.001c0 .553-.447 1-1 1z"/><path d="m20.997 18.004c-.553 0-1-.447-1-1s.447-1 1-1c1.656 0 3.004-1.348 3.004-3.004 0-.553.447-1 1-1s1 .447 1 1c0 2.759-2.245 5.004-5.004 5.004z"/><path d="m21.003 18.004c-1.224 0-2.4-.445-3.315-1.255-.413-.366-.452-.998-.086-1.412.369-.412.999-.45 1.412-.086.548.485 1.255.753 1.989.753.553 0 1 .447 1 1s-.447 1-1 1z"/><path d="m18.351 28.004c-.276 0-.551-.114-.749-.337-.366-.414-.327-1.046.086-1.412.915-.81 2.091-1.255 3.315-1.255.553 0 1 .447 1 1s-.447 1-1 1c-.734 0-1.441.268-1.989.753-.191.168-.427.251-.663.251z"/><path d="m25.001 31.001c-.553 0-1-.447-1-1 0-1.656-1.347-3.003-3.003-3.003-.553 0-1-.447-1-1s.447-1 1-1c2.759 0 5.003 2.244 5.003 5.003 0 .553-.447 1-1 1z"/><path d="m21.002 26.997c-.553 0-1-.447-1-1v-8.993c0-.553.447-1 1-1s1 .447 1 1v8.993c0 .553-.447 1-1 1z"/><path d="m30.002 33.001c-.553 0-1-.447-1-1 0-4.411-3.589-8-8-8-.553 0-1-.447-1-1s.447-1 1-1c5.514 0 10 4.486 10 10 0 .553-.447 1-1 1z"/><path d="m30.002 29.998c-.553 0-1-.447-1-1 0-4.411-3.589-8-8-8-.553 0-1-.447-1-1s.447-1 1-1c5.514 0 10 4.486 10 10 0 .553-.447 1-1 1z"/><path d="m30.002 64c-.553 0-1-.447-1-1v-34.002c0-.553.447-1 1-1s1 .447 1 1v34.002c0 .553-.447 1-1 1z"/><path d="m62.999 14c-.553 0-1-.447-1-1 0-6.065-4.935-11-11-11s-11 4.935-11 11c0 .553-.447 1-1 1s-1-.447-1-1c0-7.168 5.832-13 13-13s13 5.832 13 13c0 .553-.447 1-1 1z"/><path d="m50.999 43.001c-7.168 0-13-5.832-13-13 0-.553.447-1 1-1s1 .447 1 1c0 6.065 4.935 11 11 11s11-4.935 11-11c0-.553.447-1 1-1s1 .447 1 1c0 7.168-5.832 13-13 13z"/><path d="m62.999 31.001c-.553 0-1-.447-1-1v-17.001c0-.553.447-1 1-1s1 .447 1 1v17.001c0 .553-.447 1-1 1z"/><path d="m43.003 18.004c-2.759 0-5.004-2.245-5.004-5.004 0-.553.447-1 1-1s1 .447 1 1c0 1.656 1.348 3.004 3.004 3.004.553 0 1 .447 1 1s-.447 1-1 1z"/><path d="m42.997 18.004c-.553 0-1-.447-1-1s.447-1 1-1c.734 0 1.441-.268 1.989-.753.413-.364 1.045-.327 1.412.086.366.414.327 1.046-.086 1.412-.915.81-2.091 1.255-3.315 1.255z"/><path d="m45.649 28.004c-.236 0-.473-.083-.663-.251-.548-.485-1.255-.753-1.989-.753-.553 0-1-.447-1-1s.447-1 1-1c1.224 0 2.4.445 3.315 1.255.413.366.452.998.086 1.412-.198.223-.472.337-.749.337z"/><path d="m38.999 31.001c-.553 0-1-.447-1-1 0-2.759 2.244-5.003 5.003-5.003.553 0 1 .447 1 1s-.447 1-1 1c-1.656 0-3.003 1.347-3.003 3.003 0 .553-.447 1-1 1z"/><path d="m42.998 26.997c-.553 0-1-.447-1-1v-8.993c0-.553.447-1 1-1s1 .447 1 1v8.993c0 .553-.447 1-1 1z"/><path d="m33.998 33.001c-.553 0-1-.447-1-1 0-5.514 4.486-10 10-10 .553 0 1 .447 1 1s-.447 1-1 1c-4.411 0-8 3.589-8 8 0 .553-.447 1-1 1z"/><path d="m33.998 29.998c-.553 0-1-.447-1-1 0-5.514 4.486-10 10-10 .553 0 1 .447 1 1s-.447 1-1 1c-4.411 0-8 3.589-8 8 0 .553-.447 1-1 1z"/><path d="m33.998 64c-.553 0-1-.447-1-1v-34.002c0-.553.447-1 1-1s1 .447 1 1v34.002c0 .553-.447 1-1 1z"/></svg>