<svg id="icons" enable-background="new 0 0 64 64" height="512" viewBox="0 0 64 64" width="512" xmlns="http://www.w3.org/2000/svg"><g fill="#e6e9ed"><path d="m30 16h4v5h-4z"/><path d="m30 6h4v5h-4z"/><path d="m30 11h4v5h-4z"/><path d="m30 1h4v5h-4z"/><path d="m34 21v3c0 1.11.899 2 2 2v4c-1.53 0-2.931-.58-4-1.53-1.23-1.1-2-2.689-2-4.47v-3z"/></g><path d="m30 24c0 1.78.77 3.37 2 4.47-1.061.95-2.46 1.53-4 1.53v-4c1.109 0 2-.89 2-2z" fill="#ccd1d9"/><path d="m63 40.01v16.99c0 3.32-2.681 6-6 6h-14.99c-3.32 0-6-2.68-6-6h-.01v-27-4-.99c0-3.319 2.68-6 6-6h.01c11.599 0 20.99 9.39 20.99 21z" fill="#ed5565"/><path d="m28.01 25.01h-.01v.99 4 27c0 3.32-2.69 6-6 6h-15c-3.311 0-6-2.68-6-6v-16.99c0-11.609 9.39-21 21-21h.01c3.309 0 6 2.68 6 6z" fill="#ed5565"/><path d="m6.999 64c-3.859 0-7-3.141-7-7 0-.553.447-1 1-1s1 .447 1 1c0 2.757 2.243 5 5 5 .553 0 1 .447 1 1s-.447 1-1 1z"/><path d="m21.993 64c-.553 0-1-.447-1-1s.447-1 1-1c2.757 0 5-2.243 5-5 0-.553.447-1 1-1s1 .447 1 1c0 3.859-3.14 7-7 7z"/><path d="m21.993 64h-14.994c-.553 0-1-.447-1-1s.447-1 1-1h14.994c.553 0 1 .447 1 1s-.447 1-1 1z"/><path d="m.999 58c-.553 0-1-.447-1-1v-16.994c0-.553.447-1 1-1s1 .447 1 1v16.994c0 .553-.447 1-1 1z"/><path d="m.999 41.006c-.553 0-1-.447-1-1 0-12.131 9.869-22 21.999-22 .553 0 1 .447 1 1s-.447 1-1 1c-11.027 0-19.999 8.972-19.999 20 0 .553-.447 1-1 1z"/><path d="m28.002 26.008c-.553 0-1-.447-1-1 0-2.757-2.243-5-5-5-.553 0-1-.447-1-1s.447-1 1-1c3.859 0 7 3.141 7 7 0 .553-.447 1-1 1z"/><path d="m28.001 58c-.553 0-1-.447-1-1v-31.992c0-.553.447-1 1-1s1 .447 1 1v31.992c0 .553-.447 1-1 1z"/><path d="m57.001 64c-.553 0-1-.447-1-1s.447-1 1-1c2.757 0 5-2.243 5-5 0-.553.447-1 1-1s1 .447 1 1c0 3.859-3.141 7-7 7z"/><path d="m42.007 64c-3.859 0-7-3.141-7-7 0-.553.447-1 1-1s1 .447 1 1c0 2.757 2.243 5 5 5 .553 0 1 .447 1 1s-.447 1-1 1z"/><path d="m57.001 64h-14.994c-.553 0-1-.447-1-1s.447-1 1-1h14.994c.553 0 1 .447 1 1s-.447 1-1 1z"/><path d="m63.001 58c-.553 0-1-.447-1-1v-16.994c0-.553.447-1 1-1s1 .447 1 1v16.994c0 .553-.447 1-1 1z"/><path d="m63.001 41.006c-.553 0-1-.447-1-1 0-11.028-8.972-20-19.999-20-.553 0-1-.447-1-1s.447-1 1-1c12.13 0 21.999 9.869 21.999 22 0 .553-.447 1-1 1z"/><path d="m35.998 26.008c-.553 0-1-.447-1-1 0-3.859 3.141-7 7-7 .553 0 1 .447 1 1s-.447 1-1 1c-2.757 0-5 2.243-5 5 0 .553-.447 1-1 1z"/><path d="m35.999 58c-.553 0-1-.447-1-1v-31.992c0-.553.447-1 1-1s1 .447 1 1v31.992c0 .553-.447 1-1 1z"/><path d="m33.998 25c-.553 0-1-.447-1-1v-22h-2.001v22c0 .553-.447 1-1 1s-1-.447-1-1v-23c0-.553.447-1 1-1h4.001c.553 0 1 .447 1 1v23c0 .553-.447 1-1 1z"/><path d="m27.998 31c-.553 0-1-.447-1-1s.447-1 1-1c1.234 0 2.418-.452 3.334-1.272.409-.367 1.041-.334 1.412.078.368.411.334 1.043-.078 1.412-1.282 1.149-2.94 1.782-4.668 1.782z"/><path d="m27.997 27c-.553 0-1-.447-1-1s.447-1 1-1c.552 0 1-.448 1-1 0-.553.447-1 1-1s1 .447 1 1c0 1.654-1.346 3-3 3z"/><path d="m36 31c-3.859 0-7-3.141-7-7 0-.553.447-1 1-1s1 .447 1 1c0 2.757 2.243 5 5 5 .553 0 1 .447 1 1s-.447 1-1 1z"/><path d="m36.001 27c-1.654 0-3-1.346-3-3 0-.553.447-1 1-1s1 .447 1 1c0 .552.448 1 1 1 .553 0 1 .447 1 1s-.447 1-1 1z"/><path d="m33.998 22.002h-3.999c-.553 0-1-.447-1-1s.447-1 1-1h3.999c.553 0 1 .447 1 1s-.447 1-1 1z"/><path d="m33.998 17.002h-3.999c-.553 0-1-.447-1-1s.447-1 1-1h3.999c.553 0 1 .447 1 1s-.447 1-1 1z"/><path d="m33.998 12.002h-3.999c-.553 0-1-.447-1-1s.447-1 1-1h3.999c.553 0 1 .447 1 1s-.447 1-1 1z"/><path d="m33.998 7.002h-3.999c-.553 0-1-.447-1-1s.447-1 1-1h3.999c.553 0 1 .447 1 1s-.447 1-1 1z"/></svg>