<svg id="icons" enable-background="new 0 0 64 64" height="512" viewBox="0 0 64 64" width="512" xmlns="http://www.w3.org/2000/svg"><path d="m26 6.495c1.11 0 2 .899 2 2 0 1.109-.89 2-2 2h-4c-1.1 0-2-.891-2-2 0-1.101.9-2 2-2z" fill="#da4453"/><path d="m28 8.495v4h-.01c0 .56.45 1.01 1.01 1.01v-.01h2c2.86-5.351 8.51-9 15-9 9.39 0 17 7.62 17 17v.01c0 21-17 38-38 38h-3c-7.18 0-13-5.81-13-13v10.99c0-1.101-.89-2-2-2h-4c-1.1 0-2 .899-2 2v-11c0-4.28 3.36-7.78 7.59-7.99h.41 3v-.01c9.4 0 17-7.601 17-16.99v-.01c-4.97 0-9-4.021-9-9v-4c0 1.109.9 2 2 2h4c1.11 0 2-.891 2-2z" fill="#ed5565"/><path d="m7 55.495c1.11 0 2 .899 2 2 0 1.109-.89 2-2 2h-4c-1.1 0-2-.891-2-2 0-1.101.9-2 2-2z" fill="#da4453"/><path d="m63 22.496c-.553 0-1-.447-1-1 0-8.822-7.177-16-15.999-16-5.918 0-11.328 3.245-14.119 8.47-.26.486-.866.671-1.354.41-.486-.26-.671-.866-.41-1.354 3.14-5.876 9.226-9.526 15.883-9.526 9.925 0 17.999 8.075 17.999 18 0 .553-.447 1-1 1z"/><path d="m24.996 60.502c-.553 0-1-.447-1-1s.447-1 1-1c20.404 0 37.004-16.6 37.004-37.004 0-.553.447-1 1-1s1 .447 1 1c0 21.507-17.497 39.004-39.004 39.004z"/><path d="m12.001 39.494c-.553 0-1-.447-1-1s.447-1 1-1c8.819 0 15.995-7.176 15.995-15.996 0-.553.447-1 1-1s1 .447 1 1c0 9.923-8.072 17.996-17.995 17.996z"/><path d="m1.001 58.496c-.553 0-1-.447-1-1v-11.002c0-.553.447-1 1-1s1 .447 1 1v11.002c0 .553-.447 1-1 1z"/><path d="m8.999 58.496c-.553 0-1-.447-1-1v-10.996c0-.553.447-1 1-1s1 .447 1 1v10.996c0 .553-.447 1-1 1z"/><path d="m12.001 39.5h-3.001c-.553 0-1-.447-1-1s.447-1 1-1h3.001c.553 0 1 .447 1 1s-.447 1-1 1z"/><path d="m22.003 60.504c-7.722 0-14.004-6.282-14.004-14.004 0-.553.447-1 1-1s1 .447 1 1c0 6.619 5.385 12.004 12.004 12.004.553 0 1 .447 1 1s-.447 1-1 1z"/><path d="m24.996 60.504h-2.993c-.553 0-1-.447-1-1s.447-1 1-1h2.993c.553 0 1 .447 1 1s-.447 1-1 1z"/><path d="m3.001 60.494c-1.654 0-3-1.346-3-3s1.346-3 3-3c.553 0 1 .447 1 1s-.447 1-1 1c-.552 0-1 .448-1 1s.448 1 1 1c.553 0 1 .447 1 1s-.447 1-1 1z"/><path d="m7.001 60.494c-.553 0-1-.447-1-1s.447-1 1-1c.552 0 1-.448 1-1s-.448-1-1-1c-.553 0-1-.447-1-1s.447-1 1-1c1.654 0 3 1.346 3 3s-1.346 3-3 3z"/><path d="m7.001 56.494h-4c-.553 0-1-.447-1-1s.447-1 1-1h4c.553 0 1 .447 1 1s-.447 1-1 1z"/><path d="m7.001 60.494h-4c-.553 0-1-.447-1-1s.447-1 1-1h4c.553 0 1 .447 1 1s-.447 1-1 1z"/><path d="m22.001 11.492c-1.654 0-3-1.346-3-3s1.346-3 3-3c.553 0 1 .447 1 1s-.447 1-1 1c-.552 0-1 .448-1 1s.448 1 1 1c.553 0 1 .447 1 1s-.447 1-1 1z"/><path d="m26.001 11.492c-.553 0-1-.447-1-1s.447-1 1-1c.552 0 1-.448 1-1s-.448-1-1-1c-.553 0-1-.447-1-1s.447-1 1-1c1.654 0 3 1.346 3 3s-1.346 3-3 3z"/><path d="m26.001 7.492h-4c-.553 0-1-.447-1-1s.447-1 1-1h4c.553 0 1 .447 1 1s-.447 1-1 1z"/><path d="m26.001 11.492h-4c-.553 0-1-.447-1-1s.447-1 1-1h4c.553 0 1 .447 1 1s-.447 1-1 1z"/><path d="m29.001 14.506c-1.108 0-2.01-.901-2.01-2.01 0-.553.447-1 1-1s1 .447 1 1c0 .007.005.01.01.01.553 0 1 .447 1 1s-.447 1-1 1z"/><path d="m29.001 22.496c-5.514 0-10-4.486-10-10 0-.553.447-1 1-1s1 .447 1 1c0 4.411 3.589 8 8 8 .553 0 1 .447 1 1s-.447 1-1 1z"/><path d="m31.001 14.496h-2c-.553 0-1-.447-1-1s.447-1 1-1h2c.553 0 1 .447 1 1s-.447 1-1 1z"/><path d="m28.001 13.496c-.553 0-1-.447-1-1v-4.004c0-.553.447-1 1-1s1 .447 1 1v4.004c0 .553-.447 1-1 1z"/><path d="m20.001 13.496c-.553 0-1-.447-1-1v-4.004c0-.553.447-1 1-1s1 .447 1 1v4.004c0 .553-.447 1-1 1z"/><path d="m1 47.494c-.553 0-1-.447-1-1 0-4.963 4.037-9 9-9 .553 0 1 .447 1 1s-.447 1-1 1c-3.859 0-7 3.141-7 7 0 .553-.447 1-1 1z"/></svg>