<?xml version="1.0" encoding="iso-8859-1"?>
<!-- Generator: Adobe Illustrator 19.0.0, SVG Export Plug-In . SVG Version: 6.00 Build 0)  -->
<svg version="1.1" id="Layer_1" xmlns="http://www.w3.org/2000/svg" xmlns:xlink="http://www.w3.org/1999/xlink" x="0px" y="0px"
	 viewBox="0 0 511.982 511.982" style="enable-background:new 0 0 511.982 511.982;" xml:space="preserve">
<polygon style="fill:#ED5564;" points="343.988,256.002 323.988,179.004 260.99,133.006 213.993,133.006 178.994,150.005 
	160.994,147.005 101.996,138.006 47.998,160.005 18.999,218.003 13.999,289.993 31.779,356.99 102.996,416.988 142.995,426.988 
	178.994,418.988 231.992,426.988 261.49,411.989 243.992,384.99 224.992,321.992 343.988,315.992 "/>
<polygon style="fill:#A0D468;" points="135.495,87.007 65.997,98.007 65.997,109.006 89.497,133.006 129.995,135.506 
	173.494,133.006 173.494,110.006 "/>
<polygon style="fill:#FFE7B0;" points="228.32,322.336 239.32,369.021 284.318,426.988 337.66,448.332 385.314,445.332 
	443.985,424.238 479.984,383.24 505.311,318.679 "/>
<polygon style="fill:#EDCA8C;" points="302.24,320.742 319.239,356.24 346.738,372.24 382.487,369.49 411.236,349.991 
	427.986,320.742 "/>
<path d="M106.683,160.005L106.683,160.005h-0.016c0,0,0,0-0.016,0c-1.25,0-24.733,0.312-45.171,21.5
	C40.028,203.754,30.123,239.722,31.997,288.4h0.016c0.109,2.594,1.125,5.155,3.109,7.124c4.172,4.188,10.922,4.188,15.078,0
	c2.188-2.188,3.219-5.062,3.109-7.937h0.016c-1.625-41.71,6.375-73.115,23.093-90.833c14.109-14.937,29.671-15.406,30.327-15.406
	h-0.062c2.719-0.016,5.438-1.062,7.516-3.125c4.172-4.172,4.172-10.937,0-15.093C112.137,161.052,109.402,160.005,106.683,160.005z
	 M106.637,181.348L106.637,181.348h0.016H106.637z"/>
<path d="M438.845,309.336h-86.263c3.031-12.812,4.688-26.062,4.688-39.521c0-82.107-44.937-145.215-116.168-145.215
	c-15.391,0-31.999,2.953-49.655,9.281c7.406-25.046,29.921-52.092,40.093-62.326l0,0c0-0.016,0-0.016,0-0.016h0.016l0,0
	c4.141-4.188,4.141-10.906-0.016-15.062c-4.172-4.188-10.922-4.188-15.094,0c0,0,0,0-0.016,0l0,0
	c-0.531,0.547-13.28,13.406-25.577,31.53c-3.203,4.718-6.062,9.312-8.593,13.828c-8.297-11.953-23.078-21.421-41.077-24.796
	c-3.312-0.625-7.078-0.906-11.141-0.906c-33.64,0-88.403,19.358-89.591,25.624c-0.688,3.656,13.875,17.968,32.343,31.718
	C27.187,153.568,0,205.941,0,269.815c0,88.238,70.7,167.893,141.229,167.893c9.609,0,19.218-1.5,28.64-4.625
	c0.281,0.375,0.594,0.781,0.953,1.125c4.156,4.156,10.922,4.156,15.077,0c0.406-0.406,0.75-0.844,1.078-1.281
	c9.547,3.25,19.312,4.781,29.062,4.781c17.406,0,34.843-4.875,51.201-13.5c25.875,21.5,59.139,34.438,95.42,34.438
	c82.465,0,149.322-66.842,149.322-149.309L438.845,309.336L438.845,309.336z M355.113,338.21c4.172,4.156,10.922,4.156,15.077,0
	c2.094-2.093,3.125-4.812,3.125-7.562h39.733c-8.234,18.843-27.047,31.998-48.873,31.998c-21.828,0-40.625-13.155-48.874-31.998
	h36.687C351.988,333.398,353.035,336.117,355.113,338.21z M85.637,105.1c17.077-4.844,33.265-7.641,44.404-7.641
	c3.578,0,5.891,0.297,7.203,0.547c10.188,1.906,19.358,6.688,25.202,13.109c2.562,2.828,6.688,8.484,5.531,14.609
	c-0.516,2.719-2.047,5.219-4.328,7.406c-16.843-5.812-32.733-8.531-47.482-8.531c0,0,0,0-0.016,0c-5.828,0-11.484,0.438-16.953,1.25
	c-3.172-2.031-6.531-4.312-10.062-6.843c-5.203-3.75-9.859-7.391-13.875-10.719C78.387,107.257,81.856,106.194,85.637,105.1z
	 M216.039,416.363c-9.937,0-19.577-2.062-28.64-6.155l-8.765-3.938l-8.766,3.938c-9.062,4.093-18.702,6.155-28.64,6.155
	c-13.672,0-27.733-3.812-41.765-11.312c-14.013-7.467-27.529-18.561-39.09-32.061c-24.812-28.999-39.046-66.592-39.046-103.176
	c0-35.812,9.562-67.905,26.905-90.341c16.968-21.937,40.468-33.53,67.936-33.53c16.765,0,34.89,4.234,53.889,12.593l8.578,3.766
	l8.593-3.766c19-8.375,37.124-12.593,53.874-12.593c27.467,0,50.951,11.593,67.919,33.53c17.358,22.437,26.921,54.529,26.921,90.341
	c0,13.179-1.859,26.521-5.391,39.521h-41.03h-76.2c0,38.03,14.233,72.717,37.639,99.091
	C239.211,413.708,227.492,416.363,216.039,416.363z M453.156,399.833c-24.17,24.187-56.311,37.499-90.496,37.499
	c-34.203,0-66.342-13.312-90.514-37.499c-19.062-19.062-31.373-43.093-35.732-69.185h56.201
	c9.172,30.842,37.732,53.342,71.561,53.342c33.826,0,62.389-22.5,71.575-53.342h53.14
	C484.547,356.74,472.234,380.771,453.156,399.833z"/>
<g>
</g>
<g>
</g>
<g>
</g>
<g>
</g>
<g>
</g>
<g>
</g>
<g>
</g>
<g>
</g>
<g>
</g>
<g>
</g>
<g>
</g>
<g>
</g>
<g>
</g>
<g>
</g>
<g>
</g>
</svg>
