<?xml version="1.0" encoding="iso-8859-1"?>
<!-- Generator: Adobe Illustrator 19.0.0, SVG Export Plug-In . SVG Version: 6.00 Build 0)  -->
<svg version="1.1" id="Layer_1" xmlns="http://www.w3.org/2000/svg" xmlns:xlink="http://www.w3.org/1999/xlink" x="0px" y="0px"
	 viewBox="0 0 511.982 511.982" style="enable-background:new 0 0 511.982 511.982;" xml:space="preserve">
<path style="fill:#A85D5D;" d="M482.984,305.989l-51.999-54.998l-100.31-41.998l-102.684-5c0,0-68.998,12.999-77.997,11.999
	c-9-1-60.998,29.344-60.998,29.344l-58.998,53.653l-19,47.999v44.999l43.999,56.998l79.997,22.999l120.965,5.999l149.026-10.999
	l59.998-19.999l36.999-67.998L482.984,305.989z"/>
<path d="M315.036,130.901c2.328,8.094,6.828,13.828,7.343,14.453l0,0c1.953,2.422,4.938,3.984,8.297,3.984
	c5.891,0,10.672-4.781,10.672-10.688c0-2.531-0.891-4.844-2.375-6.688h0.016l0.047,0.062c-0.016-0.031-2.531-3.281-3.609-7.469
	c-1.125-4.343-0.281-7.499,2.812-10.608c8.656-8.703,11.516-19.984,8.062-31.812c-2.312-7.922-6.797-13.531-7.391-14.25v-0.016
	c-0.016,0-0.016,0-0.016,0v-0.016c-1.953-2.359-4.906-3.859-8.219-3.859c-5.891,0-10.671,4.781-10.671,10.656
	c0,2.594,0.922,4.938,2.437,6.781L322.41,81.4c0.016,0.031,2.484,3.156,3.547,7.188c1.078,4.124,0.234,7.218-2.828,10.312
	C314.473,107.558,311.614,118.933,315.036,130.901z M322.457,81.466c0,0,0,0,0.016,0l0,0H322.457z"/>
<path d="M237.476,123.995c3.188,11.938,9.312,20.219,9.999,21.125h0.016c1.953,2.547,5.016,4.219,8.484,4.219
	c5.874,0,10.655-4.781,10.655-10.688c0-2.406-0.812-4.609-2.156-6.406h0.016c-0.047-0.062-4.483-6.094-6.546-14.312
	c-2.453-9.844-0.484-18.188,6.015-25.531c11.391-12.905,15.016-28.702,10.5-45.732c-3.188-11.938-9.312-20.233-10-21.14
	l-0.016,0.016c-1.938-2.547-5.015-4.203-8.468-4.203c-5.906,0-10.671,4.766-10.671,10.655c0,2.406,0.796,4.625,2.155,6.406h-0.016
	c0.047,0.062,4.484,6.109,6.547,14.312c2.453,9.843,0.484,18.202-6.016,25.546C236.586,91.153,232.945,106.965,237.476,123.995z"/>
<path d="M165.666,130.901c2.328,8.094,6.828,13.828,7.328,14.453h0.016c1.953,2.422,4.938,3.984,8.297,3.984
	c5.89,0,10.671-4.781,10.671-10.688c0-2.531-0.891-4.844-2.375-6.688l0,0l0.062,0.062c-0.031-0.031-2.531-3.281-3.625-7.469
	c-1.109-4.343-0.266-7.499,2.812-10.608c8.672-8.703,11.531-19.984,8.078-31.812c-2.328-7.922-6.797-13.531-7.391-14.25
	c0,0,0-0.016-0.016-0.016l-0.016-0.016l0,0c-1.953-2.359-4.906-3.859-8.202-3.859c-5.891,0-10.672,4.781-10.672,10.656
	c0,2.594,0.906,4.938,2.438,6.781l-0.047-0.031c0.031,0.031,2.5,3.156,3.547,7.188c1.094,4.124,0.25,7.218-2.828,10.312
	C165.103,107.558,162.228,118.933,165.666,130.901z M173.088,81.466L173.088,81.466L173.088,81.466L173.088,81.466z"/>
<path d="M255.991,191.993C114.605,191.993,0,274.304,0,362.643c0,117.34,114.605,127.996,255.991,127.996
	s255.991-10.656,255.991-127.996C511.982,274.303,397.377,191.993,255.991,191.993z M291.178,215.148
	c-12.031,1.953-23.766,4.594-35.187,7.922c-11.421-3.328-23.155-5.969-35.187-7.922c11.609-1.218,23.344-1.812,35.187-1.812
	C267.834,213.336,279.568,213.93,291.178,215.148z M474.719,419.454c-9.859,13.312-24.641,23.531-45.187,31.219
	c-1.124,0.422-2.28,0.844-3.437,1.25c-1.422-4.219-5.406-7.281-10.109-7.281c-5.891,0-10.672,4.781-10.672,10.688
	c0,0.859,0.125,1.703,0.312,2.516c-12.641,3.015-26.905,5.39-43.029,7.171c-0.484-5.437-5.047-9.687-10.609-9.687
	c-5.891,0-10.672,4.766-10.672,10.655c0,0.312,0.031,0.625,0.047,0.938c-14.359,1.031-29.187,1.625-43.498,1.969
	c-0.234-5.688-4.906-10.249-10.641-10.249c-5.859,0-10.625,4.749-10.672,10.593c-7.188,0.062-14.094,0.094-20.562,0.094
	c-6.703,0-13.858-0.031-21.343-0.109c-0.047-5.844-4.797-10.577-10.656-10.577c-5.734,0-10.405,4.546-10.64,10.218
	c-14.078-0.344-28.625-0.938-42.733-1.938c0.016-0.312,0.047-0.625,0.047-0.938c0-5.89-4.781-10.655-10.672-10.655
	c-5.562,0-10.124,4.25-10.608,9.687c-16.125-1.781-30.39-4.156-43.03-7.171c0.188-0.812,0.312-1.656,0.312-2.516
	c0-5.906-4.781-10.688-10.672-10.688c-4.702,0-8.687,3.062-10.108,7.281c-1.156-0.406-2.312-0.828-3.438-1.25
	c-20.547-7.688-35.327-17.906-45.187-31.219c-10.718-14.468-15.937-33.061-15.937-56.811c0-35.592,23.937-72.341,65.67-100.84
	c15.858-10.812,33.546-19.983,52.764-27.405c7.656-1.078,38.015-4.547,76.903,1.688c0.938,0.141,1.875,0.312,2.812,0.469
	c-2.547,1.156-5.077,2.328-7.577,3.562c-30.89,15.155-58.218,36.092-81.248,62.247h0.016c-1.656,1.875-2.672,4.344-2.672,7.031
	c0,5.906,4.781,10.688,10.672,10.688c3.188,0,6.031-1.422,8-3.625l0,0c21.062-23.906,46.029-43.092,74.2-56.998
	c11.203-5.516,22.938-10.219,35.124-14.093c12.015,3.812,23.608,8.452,34.687,13.89c28.358,13.922,53.482,33.17,74.639,57.201l0,0
	c1.969,2.203,4.812,3.625,7.999,3.625c5.891,0,10.671-4.781,10.671-10.688c0-2.688-1.015-5.156-2.671-7.031h0.016
	c-23.03-26.155-50.358-47.092-81.247-62.247c-2.5-1.234-5.031-2.406-7.578-3.562c0.688-0.125,1.359-0.25,2.047-0.344
	c39.076-6.375,69.951-2.875,77.685-1.812c19.218,7.422,36.89,16.593,52.733,27.405c41.748,28.499,65.686,65.248,65.686,100.84
	C490.656,386.393,485.437,404.986,474.719,419.454z"/>
<g>
</g>
<g>
</g>
<g>
</g>
<g>
</g>
<g>
</g>
<g>
</g>
<g>
</g>
<g>
</g>
<g>
</g>
<g>
</g>
<g>
</g>
<g>
</g>
<g>
</g>
<g>
</g>
<g>
</g>
</svg>
