<?xml version="1.0" encoding="iso-8859-1"?>
<!-- Generator: Adobe Illustrator 19.0.0, SVG Export Plug-In . SVG Version: 6.00 Build 0)  -->
<svg version="1.1" id="Layer_1" xmlns="http://www.w3.org/2000/svg" xmlns:xlink="http://www.w3.org/1999/xlink" x="0px" y="0px"
	 viewBox="0 0 511.986 511.986" style="enable-background:new 0 0 511.986 511.986;" xml:space="preserve">
<polygon style="fill:#76A336;" points="496.986,87.998 475.987,63.999 443.987,54.999 410.989,52.999 368.99,63.999 342.991,43 
	306.992,30 264.992,43 215.995,17 181.997,17 149.998,25 123.998,43 102.999,94.998 62,90.998 16.002,129.997 16.002,180.995 
	28.002,216.994 58.001,232.993 87,286.992 145.998,316.991 185.996,311.1 229.995,335.991 275.992,335.991 322.991,304.991 
	352.991,286.992 408.989,286.992 442.987,272.993 472.987,229.994 478.987,172.995 502.986,134.997 "/>
<polygon style="fill:#A0D468;" points="339.991,284.992 286.992,392.989 280.992,335.991 234.995,335.991 216.995,389.989 
	212.996,382.989 199.996,352.006 172.997,310.991 145.998,316.991 209.996,502.985 302.992,496.985 366.991,291.991 "/>
<path d="M511.984,123.091c0-45.327-36.873-82.216-82.216-82.216c-17.999,0-35.015,5.687-49.092,16.233
	c-15.062-22.64-40.655-36.671-68.467-36.671c-15.062,0-29.89,4.188-42.687,11.953C250.156,11.688,223.391,0,194.658,0
	c-26.022,0-50.85,9.75-69.896,27.468c-15.944,14.828-26.64,34.077-30.804,55.139c-3.874-0.562-7.796-0.828-11.741-0.828
	c-45.335,0-82.216,36.874-82.216,82.217c0,18.124,5.788,35.312,16.733,49.717c9.125,12,21.554,21.343,35.499,26.843
	c3.422,22.969,14.515,44.062,31.702,60.014c15.679,14.547,35.265,23.719,56.201,26.516l65.662,184.9h100.585l68.466-208.604
	c4.625,0.641,9.312,0.953,14.03,0.953c56.607,0,102.669-46.045,102.669-102.653c0-7.358-0.78-14.671-2.327-21.796
	C503.767,164.652,511.984,144.308,511.984,123.091z M290.931,490.641h-70.068l-57.912-163.057c3.297-0.297,6.562-0.75,9.789-1.344
	c0.555,1.297,1.109,2.609,1.664,3.906c8.992,21.062,16.53,37.873,22.405,49.967c10.547,21.718,15.156,28.499,23.397,28.499
	c9.672,0,12.43-10.155,13.469-13.999c1.117-4.125,2.227-9.781,3.375-17.281c1.227-7.984,2.492-18.047,3.781-30.015
	c4.976,0.734,10.038,1.109,15.163,1.109c4.438,0,8.843-0.297,13.194-0.859c0.422,9.843,0.93,18.405,1.531,25.577
	c1.883,22.578,4.273,28.921,8.055,32.718c2.312,2.344,5.344,3.625,8.547,3.625c7.297,0,11.578-6.25,15.328-12.655
	c2.781-4.812,6.171-11.469,10.312-20.344c6.75-14.406,15.374-34.437,25.655-59.561c2.938-7.188,5.844-14.375,8.656-21.375
	c2.234,0.984,4.5,1.906,6.797,2.719L290.931,490.641z M197.683,330.288c6.945,4.828,14.414,8.733,22.265,11.671
	c-1.352,12.858-2.562,22.437-3.594,29.546C212.058,362.677,206.035,349.615,197.683,330.288z M290.336,342.537
	c6.25-2.219,12.297-5.062,18.062-8.483c-7.155,16.874-12.483,28.717-16.437,37.029C291.367,364.083,290.806,354.77,290.336,342.537z
	 M470.284,168.543l-4.984,4.452l1.828,6.422c2.047,7.203,3.078,14.703,3.078,22.265c0,44.843-36.483,81.342-81.326,81.342
	c-14.702,0-29.092-3.969-41.639-11.468c-1.562-1.281-8.531-7.281-15-18.5c-9.812-16.969-13.937-37.249-12.28-60.311l0,0
	c0-0.25,0.031-0.5,0.031-0.75c0-5.906-4.781-10.672-10.656-10.672c-5.64,0-10.249,4.359-10.64,9.906l-0.016-0.016
	c-3.641,50.936,18.124,80.139,29.592,91.841c-13.874,26.968-41.498,44.03-72.278,44.03c-22.147,0-42.857-8.75-58.311-24.625
	l-5.109-5.266l-6.742,2.891c-10.147,4.359-20.929,6.562-32.054,6.562c-20.593,0-40.24-7.719-55.326-21.718
	c-14.89-13.812-24.015-32.53-25.71-52.687c0.086-3.702,1.445-34.029,22.468-51.482c14.461-12.016,35.585-15.468,62.795-10.297l0,0
	c0.648,0.125,1.312,0.188,1.992,0.188c5.891,0,10.664-4.78,10.664-10.655c0-5.219-3.734-9.547-8.672-10.484l0,0
	c-33.765-6.422-60.818-1.422-80.403,14.828c-18.945,15.733-25.999,38.186-28.624,53.029c-7.453-4.109-14.062-9.766-19.242-16.562
	c-8.101-10.655-12.382-23.39-12.382-36.811c0-33.577,27.312-60.904,60.881-60.904c6.008,0,11.937,0.875,17.64,2.594l12.695,3.843
	l1.023-13.218c1.57-20.358,10.702-39.265,25.71-53.217c15.093-14.031,34.757-21.766,55.373-21.766
	c25.171,0,48.429,11.328,63.975,31.124c3.202,16.156,8.007,57.107-19.663,77.639h0.008c-2.617,1.953-4.32,5.062-4.32,8.562
	c0,5.891,4.781,10.672,10.672,10.672c2.382,0,4.569-0.797,6.343-2.109h0.008c19.663-14.593,30.312-38.062,30.796-67.889
	c0.172-11.14-1.094-21.187-2.391-28.39c9.594-5.999,20.578-9.155,32.124-9.155c21.999,0,42.093,11.843,52.874,30.655
	c-4,5.124-9.625,13.28-14.094,23.53c-10.406,23.937-9.625,47.811,2.266,69.061c0.016,0.031,0.031,0.062,0.047,0.094
	c0.031,0.031,0.031,0.062,0.062,0.094l0,0c1.844,3.25,5.312,5.437,9.281,5.437c5.905,0,10.687-4.78,10.687-10.655
	c0-1.906-0.516-3.688-1.391-5.25h0.016c-8.624-15.281-9.171-31.999-1.656-49.701c5.625-13.203,13.905-22.359,14.999-23.547
	l0.219-0.219c11.625-12.296,27.344-19.062,44.249-19.062c33.562,0,60.874,27.312,60.874,60.873
	C490.643,140.433,483.237,156.996,470.284,168.543z"/>
<g>
</g>
<g>
</g>
<g>
</g>
<g>
</g>
<g>
</g>
<g>
</g>
<g>
</g>
<g>
</g>
<g>
</g>
<g>
</g>
<g>
</g>
<g>
</g>
<g>
</g>
<g>
</g>
<g>
</g>
</svg>
