<?xml version="1.0" encoding="iso-8859-1"?>
<!-- Generator: Adobe Illustrator 19.0.0, SVG Export Plug-In . SVG Version: 6.00 Build 0)  -->
<svg version="1.1" id="Layer_1" xmlns="http://www.w3.org/2000/svg" xmlns:xlink="http://www.w3.org/1999/xlink" x="0px" y="0px"
	 viewBox="0 0 511.985 511.985" style="enable-background:new 0 0 511.985 511.985;" xml:space="preserve">
<g>
	<path style="fill:#D63A5F;" d="M203.998,359.988l-28.999-30.998H126H75.002l-31.499,28.998l-20,36.656l11.5,55.842l44.999,36.498
		l41.999,13l43.499-13l39.499-33.998c0,0,14-51.999,13.5-53.499C217.997,397.988,203.998,359.988,203.998,359.988z"/>
	<path style="fill:#D63A5F;" d="M442.115,335.787l-29.905-31.969h-50.529h-52.577l-32.483,29.906l-20.624,37.795l11.858,57.576
		l46.405,37.64l43.296,13.405l44.857-13.405l40.733-35.062c0,0,14.437-53.607,13.921-55.154S442.115,335.787,442.115,335.787z"/>
</g>
<polygon style="fill:#A0D468;" points="469.317,146.651 421.991,105.981 375.992,71.982 327.321,50.654 282.667,46.654 
	230.669,64.654 202.67,85.981 202.67,117.98 235.997,167.979 289.995,192.65 339.993,198.65 407.991,190.65 475.317,166.651 "/>
<path d="M331.118,38.671c-12.483-3.203-24.873-4.734-36.795-4.734c-9,0-17.719,0.875-26.031,2.531
	c7.062-5.812,14.469-11.531,22.281-17.141v-0.016c2.688-1.922,4.453-5.077,4.453-8.655C295.026,4.781,290.245,0,284.354,0
	c-2.312,0-4.453,0.75-6.203,2h-0.016c-42.373,30.437-77.56,66.529-104.543,107.34c-21.64,32.687-38.077,68.404-48.874,106.185
	c-13.015,45.562-14.656,82.747-14.437,101.372c-6-0.891-11.656-1.328-16.953-1.328c-59.498,0-75.466,52.857-75.466,89.763
	c0,58.904,53.608,106.653,106.668,106.653c53.061,0,106.668-47.749,106.668-106.653c0-36.905-15.953-89.763-75.466-89.763
	c-7.343,0-15.359,0.828-24.077,2.562c-0.281-16.391,0.922-52.467,13.578-96.731c8.796-30.812,24.296-68.998,51.561-107.997
	c1.641,40.187,38.53,79.342,91.168,92.872c9.906,2.562,21.937,3.688,35.139,3.75c3.391,7.344,6.266,14.281,8.688,20.687
	c11.406,30.078,15.031,53.655,16.188,65.342c-7.141-1.219-13.812-1.812-19.984-1.812c-59.498,0-75.465,52.843-75.465,89.748
	c0,58.904,53.592,106.652,106.668,106.652c53.061,0,106.652-47.748,106.652-106.652c0-36.905-15.953-89.748-75.451-89.748
	c-6.453,0-13.437,0.641-20.952,1.969c-1.047-12.343-4.655-38.279-17.265-71.903c-1.906-5.062-3.938-10.125-6.094-15.141
	c65.592-4.828,145.261-28.765,147.948-39.202C497.629,155.995,392.241,54.404,331.118,38.671z M197.811,358.113
	c7.656,11.953,12.046,29.156,12.046,47.218c0,11.124-2.438,22.108-7.25,32.624c-4.656,10.109-11.25,19.344-19.64,27.437
	c-8.141,7.828-17.765,14.28-27.843,18.624c-10.187,4.406-20.468,6.625-30.593,6.625s-20.405-2.219-30.593-6.625
	c-10.078-4.344-19.702-10.796-27.843-18.624c-8.375-8.093-14.984-17.327-19.64-27.437c-4.812-10.516-7.25-21.5-7.25-32.624
	c0-18.062,4.391-35.265,12.046-47.218c9.156-14.265,22.906-21.217,42.077-21.217c7.859,0,16.64,1.187,26.093,3.53l5.109,1.25
	l5.109-1.25c9.453-2.344,18.234-3.53,26.093-3.53C174.905,336.896,188.67,343.848,197.811,358.113z M293.276,185.619
	c-12.797-3.281-24.688-8.359-35.343-15.062c-10.046-6.327-18.53-13.812-25.218-22.218c-12.578-15.874-17.265-33.28-13.218-49.029
	c1.703-6.625,4.734-12.203,8.344-16.844c40.341,37.077,66.888,74.154,84.309,105.872
	C304.839,187.885,298.526,186.978,293.276,185.619z M432.474,336.803c7.656,11.937,12.047,29.123,12.047,47.186
	c0,11.156-2.438,22.124-7.266,32.623c-4.641,10.125-11.249,19.344-19.64,27.438c-8.125,7.844-17.75,14.281-27.844,18.64
	c-10.171,4.391-20.468,6.641-30.576,6.641c-10.125,0-20.422-2.25-30.594-6.641c-10.077-4.358-19.702-10.796-27.842-18.64
	c-8.391-8.094-15-17.312-19.641-27.438c-4.812-10.499-7.266-21.467-7.266-32.623c0-18.062,4.391-35.249,12.047-47.186
	c9.156-14.281,22.921-21.234,42.092-21.234c7.844,0,16.625,1.188,26.094,3.516l5.109,1.266l5.109-1.266
	c9.452-2.328,18.233-3.516,26.092-3.516C409.554,315.568,423.319,322.521,432.474,336.803z M419.366,175.869
	c-29.328,6.938-58.826,11.344-83.014,12.516c-7.484-14.75-16.093-29.265-25.749-43.39c-18.468-27.03-40.858-52.764-66.685-76.716
	c13.608-8.391,31.514-13,50.404-13c10.406,0,20.999,1.344,31.467,4.062c21.234,5.453,54.749,26.187,89.686,55.467
	c14.671,12.281,28.937,25.562,40.139,37.358c3.844,4.047,6.906,7.484,9.328,10.328C455.13,166.198,440.021,170.994,419.366,175.869z
	"/>
<path d="M71.174,404.675l0.016,0.062h-0.016c-0.312-5.625-4.953-10.093-10.64-10.093c-5.891,0-10.672,4.78-10.672,10.687
	c0,0.188,0.031,0.375,0.031,0.578h-0.016c0.094,1.578,1.125,15.905,10.5,32.077c8.703,15.062,26.53,34.53,61.951,41.764
	c0.703,0.141,1.453,0.234,2.203,0.234c5.891,0,10.672-4.78,10.672-10.655c0-5.188-3.688-9.483-8.562-10.468
	C74.737,448.299,71.299,406.44,71.174,404.675z"/>
<path d="M305.839,383.332v0.062h-0.016c-0.297-5.609-4.938-10.062-10.625-10.062c-5.891,0-10.672,4.766-10.672,10.656
	c0,0.188,0.016,0.391,0.031,0.594h-0.016c0.094,1.578,1.125,15.905,10.484,32.076c8.719,15.062,26.546,34.531,61.951,41.766
	c0.719,0.156,1.453,0.219,2.219,0.219c5.891,0,10.655-4.766,10.655-10.656c0-5.156-3.671-9.469-8.546-10.453
	C309.4,426.955,305.964,385.113,305.839,383.332z"/>
<g>
</g>
<g>
</g>
<g>
</g>
<g>
</g>
<g>
</g>
<g>
</g>
<g>
</g>
<g>
</g>
<g>
</g>
<g>
</g>
<g>
</g>
<g>
</g>
<g>
</g>
<g>
</g>
<g>
</g>
</svg>
