<?xml version="1.0" encoding="iso-8859-1"?>
<!-- Generator: Adobe Illustrator 19.0.0, SVG Export Plug-In . SVG Version: 6.00 Build 0)  -->
<svg version="1.1" id="Layer_1" xmlns="http://www.w3.org/2000/svg" xmlns:xlink="http://www.w3.org/1999/xlink" x="0px" y="0px"
	 viewBox="0 0 511.984 511.984" style="enable-background:new 0 0 511.984 511.984;" xml:space="preserve">
<polygon style="fill:#FFCE54;" points="12.996,194.998 30.995,315.486 64.494,383.484 141.491,445.982 255.738,448.482 
	351.501,444.482 332.984,357.484 342.484,311.111 378.984,252.996 415.483,239.497 445.48,248.996 493.48,294.986 498.48,194.998 
	"/>
<g>
	<polygon style="fill:#FFA77B;" points="473.091,275.457 435.982,238.013 413.983,238.013 388.842,249.356 351.501,285.332 
		335.97,342.861 335.97,397.328 365.984,448.482 416.655,466.013 459.309,454.013 491.307,408.672 498.48,344.017 	"/>
	<path style="fill:#FFA77B;" d="M355.984,61.003c-0.5-2-28.5-15.5-28.5-15.5h-22.498L229.63,94.001l-18.641,27.5v59.873l11,11.625
		l126.496-2l17.5-12l3.499-63.498C369.484,115.501,356.484,63.002,355.984,61.003z"/>
</g>
<g>
	<polygon style="fill:#F5F7FA;" points="194.99,101.876 170.67,87.002 135.492,87.002 96.993,110.501 51.994,154.499 
		33.495,192.998 207.989,192.998 216.989,175.499 	"/>
	<polygon style="fill:#F5F7FA;" points="432.482,136.5 377.484,116.501 375.484,146 369.484,194.998 473.48,194.998 473.48,171.499 
			"/>
</g>
<path d="M235.676,138.594c4.727,2.281,10.289,0.75,13.25-3.375l0.008,0.016c21.054-29.093,40.319-41.015,52.772-45.92
	c13.046-5.109,21.186-3.75,21.529-3.688c-0.125-0.016-0.188-0.031-0.188-0.031l0.016-0.016c4.703,1.016,9.672-1.266,11.859-5.797
	c2.547-5.312,0.312-11.687-5-14.218c-0.766-0.375-1.562-0.641-2.359-0.812l0,0c-1.328-0.297-13.483-2.625-31.451,3.891
	c-22.766,8.234-44.444,26.437-64.46,54.077l0.008,0.015c-0.367,0.516-0.703,1.047-0.984,1.625
	C228.13,129.672,230.363,136.047,235.676,138.594z"/>
<path d="M167.749,106.189c-0.781-0.375-1.578-0.609-2.383-0.781l0,0c-1.328-0.281-13.508-2.438-31.397,4.281
	c-22.602,8.5-44.007,26.906-63.631,54.67c-0.008,0-0.008,0.016-0.008,0.016c-0.047,0.062-0.102,0.125-0.148,0.188l0.008,0.016
	c-0.359,0.516-0.688,1.047-0.961,1.641c-2.484,5.343-0.164,11.687,5.172,14.171c4.757,2.203,10.296,0.609,13.21-3.531l0.008,0.016
	c20.687-29.358,39.804-41.53,52.201-46.561c12.992-5.281,21.148-4.031,21.484-3.969c-0.117-0.031-0.18-0.031-0.18-0.031v-0.016
	c4.727,0.953,9.671-1.375,11.796-5.953C175.404,115.016,173.084,108.673,167.749,106.189z"/>
<path d="M511.964,203.107c0-11.781-9.546-21.327-21.326-21.327h-3.344c-9.062-22.453-26.172-42.905-49.874-56.842
	c-15.452-9.093-34.733-16.015-54.904-20.062c-4.094-30.827-16.374-57.436-38.733-68.154c-7.344-3.531-15.359-5.156-23.749-5.156l0,0
	c-38.53,0-85.014,33.999-112.161,71.998c-6.539-11.843-15.335-21.125-26.632-26.39c-7.156-3.328-14.897-4.859-22.991-4.859
	c-46.272,0.016-103.778,49.78-125.418,96.294c-2.023,4.359-3.758,8.75-5.234,13.171h-6.242c-11.78,0-21.335,9.546-21.335,21.327
	c0,0-5.062,191.002,143.769,255.969h214.697c15.952,13.406,35.67,21.342,57.014,21.342c53.014,0,95.996-48.873,95.996-109.152
	c0-21.186-5.327-45.498-14.53-68.061C513.167,248.871,511.964,203.107,511.964,203.107z M426.608,143.312
	c16.233,9.562,29.076,22.921,37.217,38.468h-86.513c4.578-17.281,6.952-36.28,6.749-54.764
	C399.811,130.688,414.639,136.282,426.608,143.312z M261.276,78.502c20.773-16.281,42.195-25.593,58.757-25.593
	c5.437,0,10.312,1.016,14.515,3.031c7,3.375,12.938,9.859,17.641,19.312c5.031,10.093,8.422,23.249,9.828,38.061
	c2.141,22.734-0.453,47.467-6.859,68.467H222.434c0.906-18.593-0.656-37.218-5.008-53.717
	C227.466,110.563,243.379,92.501,261.276,78.502z M52.166,177.608c9.289-19.953,27.022-41.608,47.444-57.92
	c20.718-16.531,42.1-26.031,58.639-26.031c5.203,0,9.914,0.969,13.999,2.859c7.047,3.266,13.062,9.703,17.883,19.093
	c5.148,10.031,8.703,23.14,10.288,37.936c0.984,9.203,1.18,18.734,0.672,28.234H50.338
	C50.916,180.374,51.525,178.999,52.166,177.608z M75.963,379.359c-16.578-21.781-29.742-47.936-39.132-77.779
	c-16.367-52.005-15.492-97.488-15.484-97.895l0.008-0.312v-0.266h469.283l-0.016,0.266l0.016,0.281
	c0.016,0.359,0.593,30.999-8.219,70.709c-17.297-28.054-40.89-48.584-66.92-48.584c-53.014,0-95.981,85.239-95.981,145.487
	c0,25.031,7.405,48.061,19.858,66.467H148.358C119.734,424.482,95.391,404.859,75.963,379.359z M415.499,459.076
	c-41.171,0-74.654-39.375-74.654-87.811c0-26.342,9.594-58.686,25.047-84.34c7.687-12.75,16.437-23.133,25.342-30.054
	c8.328-6.469,16.5-9.766,24.266-9.766c7.781,0,15.937,3.297,24.265,9.766c8.905,6.921,17.671,17.304,25.343,30.054
	c15.453,25.654,25.062,57.998,25.062,84.34C490.169,419.701,456.669,459.076,415.499,459.076z"/>
<path d="M415.499,257.777c-0.859,0-1.688,0.094-2.484,0.297v-0.016c-1.312,0.312-13.281,3.5-26.656,17.148
	c-16.905,17.217-28.561,42.936-34.623,76.373c-0.016,0.031-0.016,0.031-0.016,0.062c-0.016,0.062-0.031,0.156-0.047,0.219h0.016
	c-0.109,0.625-0.188,1.248-0.188,1.904c0,5.875,4.781,10.656,10.672,10.656c5.25,0,9.593-3.781,10.483-8.781h0.016
	c6.375-35.342,18.577-54.436,27.687-64.215c9.547-10.281,17.469-12.562,17.812-12.656c-0.125,0.031-0.188,0.031-0.188,0.031l0,0
	c4.688-1.125,8.188-5.344,8.188-10.367C426.171,262.558,421.389,257.777,415.499,257.777z"/>
<path d="M165.796,407.484l0.008-0.031c-0.234-0.125-23.555-15.406-47.882-45.719c-14.312-17.811-26.03-37.186-34.819-57.529
	c-10.976-25.404-17.405-52.458-19.108-80.411h-0.016c-0.336-5.578-4.961-10.015-10.633-10.015c-5.891,0-10.663,4.781-10.663,10.656
	c0,0.219,0.023,0.438,0.031,0.656h-0.008c1.852,30.437,8.858,59.897,20.812,87.551c9.547,22.125,22.257,43.123,37.772,62.467
	c25.647,31.938,50.287,48.529,52.748,50.154l0,0c0.078,0.031,0.141,0.094,0.172,0.094l0,0c1.672,1.094,3.656,1.719,5.797,1.719
	c5.891,0,10.663-4.781,10.663-10.656C170.67,412.672,168.725,409.359,165.796,407.484z"/>
<g>
</g>
<g>
</g>
<g>
</g>
<g>
</g>
<g>
</g>
<g>
</g>
<g>
</g>
<g>
</g>
<g>
</g>
<g>
</g>
<g>
</g>
<g>
</g>
<g>
</g>
<g>
</g>
<g>
</g>
</svg>
