<?xml version="1.0" encoding="iso-8859-1"?>
<!-- Generator: Adobe Illustrator 19.0.0, SVG Export Plug-In . SVG Version: 6.00 Build 0)  -->
<svg version="1.1" id="Layer_1" xmlns="http://www.w3.org/2000/svg" xmlns:xlink="http://www.w3.org/1999/xlink" x="0px" y="0px"
	 viewBox="0 0 511.983 511.983" style="enable-background:new 0 0 511.983 511.983;" xml:space="preserve">
<path style="fill:#FFDCE9;" d="M283.99,348.332l68.311-5l-7.656-55.686c0,0-49.654-49.655-50.654-49.999
	s-47.679-33.327-47.679-33.327l-43.999-57.639v-40.67l-35.998-22.656l-9.664,70.67l-14,29.999l-31.334,35.343l-85.326,59.295
	l-15.336,48.343l10.664,42.998l30.335,33.999l61.334,16.999l66.998,7.656l65.326-2.328l70.989-23.999l-9.312-16.999L283.99,348.332z
	"/>
<polygon style="fill:#F5F7FA;" points="281.49,346.988 326.488,404.486 387.736,428.657 439.485,422.985 482.984,385.987 
	493.983,346.988 "/>
<polygon style="fill:#A0D468;" points="200.656,106.669 158.658,77.34 156.65,154.025 204.344,149.339 "/>
<path d="M362.738,335.973c-2.281-109.7-101.303-99.17-149.262-195.573v-39.045l-63.982-42.671V140.4
	C99.777,238.867,0,227.337,0,339.957c0,66.279,75.614,89.778,129.206,98.091c-0.664,1.391-1.047,2.938-1.047,4.578
	c0,5.891,4.781,10.672,10.671,10.672h85.318c5.891,0,10.664-4.781,10.664-10.672c0-1.656-0.391-3.234-1.07-4.625
	c5.586-0.875,11.406-1.906,17.351-3.141l0.047,0.031c0.008-0.016,0.023-0.031,0.031-0.047c22.71-4.719,47.257-12.297,67.553-24.452
	c22.858,18.03,51.326,32.233,84.294,32.233c90.341,0,108.965-106.652,108.965-106.652L362.738,335.973L362.738,335.973z
	 M324.363,280.037c11.047,14.921,16.5,32.765,17.047,55.937h-49.029c2.219-24.078-0.484-48.983-8.078-74.139
	c-2.531-8.438-5.469-16.375-8.562-23.703c1.297,0.938,2.594,1.859,3.875,2.797C297.709,253.945,313.333,265.179,324.363,280.037z
	 M256.124,357.925c-0.008,0.156-0.023,0.281-0.039,0.406c0.016-0.125,0.016-0.281,0.023-0.406H256.124z M256.069,358.487
	c-0.016,0.109-0.031,0.219-0.047,0.281C256.038,358.675,256.061,358.581,256.069,358.487z M170.822,98.544l21.327,14.233V140.4
	v3.609h-21.327V140.4V98.544z M159.978,165.339h42.912v-0.031c8.164,13.374,17.203,24.624,26.656,34.436
	c6.484,8.656,24.28,34.452,34.545,68.937c6.688,22.421,9.023,44.514,7.008,65.748c-12.647-0.203-22.312,2.547-28.771,8.202
	c-4.961,4.344-7.078,9.734-7.453,13.53c-0.008,0.047-0.008,0.109-0.016,0.156c-0.008,0.125-0.023,0.266-0.031,0.391h0.016
	c-0.016,0.188-0.031,0.391-0.031,0.594c0,5.906,4.773,10.672,10.663,10.672c5.281,0,9.648-3.844,10.5-8.875
	c0.578-0.859,3.656-2.953,11.554-3.297c-5.039,20.812-14.554,40.812-28.381,59.654c-5.375,0.969-10.594,1.781-15.555,2.469
	c-1.414-4.233-5.406-7.296-10.117-7.296c-5.516,0-10.047,4.202-10.602,9.562c-4.069,0.328-7.687,0.578-10.741,0.734
	c-0.203-5.719-4.883-10.296-10.647-10.296c-5.773,0-10.461,4.593-10.648,10.327c-3.047-0.156-6.664-0.391-10.734-0.719
	c-0.539-5.406-5.078-9.608-10.609-9.608c-4.734,0-8.742,3.094-10.141,7.358c-4.944-0.672-10.155-1.484-15.522-2.453
	c-17.241-23.467-27.78-48.701-31.343-75.138c-3.109-23.046-0.977-47.187,6.336-71.716c10.281-34.516,28.101-60.343,34.569-68.968
	C143.611,188.993,152.408,177.635,159.978,165.339z M21.327,339.957c0-24.718,5.367-43.499,16.882-59.061
	c10.906-14.749,26.444-26.015,44.436-39.062c1.422-1.031,2.852-2.062,4.281-3.094c-3,7.156-5.844,14.875-8.312,23.094
	c-8.319,27.53-10.78,54.779-7.327,80.935c3.016,22.874,10.569,44.874,22.515,65.717c-22.077-6.531-39.451-15.077-51.654-25.437
	C28.139,371.159,21.327,357.065,21.327,339.957z M269.17,408.377c6.008-10.499,10.898-21.296,14.664-32.358
	c5.281,6.344,11.281,12.969,17.938,19.469C292.443,400.392,281.553,404.705,269.17,408.377z M446.015,408.424
	c-12.53,8.655-26.592,12.874-42.998,12.874c-16.797,0-33.702-4.625-50.264-13.718c-13.953-7.688-27.734-18.546-40.968-32.28
	c-5.858-6.094-11.108-12.219-15.671-18h187.244c-2.594,6.562-5.969,13.844-10.281,21.047
	C465.39,391.206,456.265,401.314,446.015,408.424z"/>
<g>
</g>
<g>
</g>
<g>
</g>
<g>
</g>
<g>
</g>
<g>
</g>
<g>
</g>
<g>
</g>
<g>
</g>
<g>
</g>
<g>
</g>
<g>
</g>
<g>
</g>
<g>
</g>
<g>
</g>
</svg>
