<?xml version="1.0" encoding="iso-8859-1"?>
<!-- Generator: Adobe Illustrator 19.0.0, SVG Export Plug-In . SVG Version: 6.00 Build 0)  -->
<svg version="1.1" id="Layer_1" xmlns="http://www.w3.org/2000/svg" xmlns:xlink="http://www.w3.org/1999/xlink" x="0px" y="0px"
	 viewBox="0 0 511.985 511.985" style="enable-background:new 0 0 511.985 511.985;" xml:space="preserve">
<polygon style="fill:#A0D468;" points="217.319,64.672 169.32,70 121.994,88.671 74.667,122.67 81.323,133.326 135.322,157.497 
	197.32,138.669 247.99,127.326 267.989,109.998 267.989,86.671 "/>
<g>
	<path style="fill:#AC92EB;" d="M223.991,160.497c0,22.64-18.359,40.998-40.999,40.998s-40.999-18.358-40.999-40.998
		s18.359-40.999,40.999-40.999S223.991,137.857,223.991,160.497z"/>
	<path style="fill:#AC92EB;" d="M308.988,157.497c0,22.64-18.358,40.999-40.999,40.999c-22.64,0-40.999-18.359-40.999-40.999
		s18.359-40.999,40.999-40.999C290.63,116.498,308.988,134.857,308.988,157.497z"/>
	<path style="fill:#AC92EB;" d="M396.985,157.497c0,22.64-18.358,40.999-40.998,40.999c-22.641,0-40.999-18.359-40.999-40.999
		s18.358-40.999,40.999-40.999C378.627,116.498,396.985,134.857,396.985,157.497z"/>
	<path style="fill:#AC92EB;" d="M437.984,232.494c0,22.641-18.358,41-40.999,41c-22.64,0-40.998-18.359-40.998-41
		c0-22.64,18.358-40.998,40.998-40.998C419.626,191.496,437.984,209.854,437.984,232.494z"/>
	<path style="fill:#AC92EB;" d="M396.985,311.492c0,22.641-18.358,40.999-40.998,40.999c-22.641,0-40.999-18.358-40.999-40.999
		c0-22.64,18.358-40.998,40.999-40.998C378.627,270.494,396.985,288.852,396.985,311.492z"/>
	<path style="fill:#AC92EB;" d="M309.988,309.242c0,22.641-18.358,40.999-40.999,40.999c-22.64,0-40.999-18.358-40.999-40.999
		c0-22.64,18.358-40.998,40.999-40.998S309.988,286.602,309.988,309.242z"/>
	<path style="fill:#AC92EB;" d="M226.241,309.242c0,22.641-18.359,40.999-40.999,40.999s-40.999-18.358-40.999-40.999
		c0-22.64,18.359-40.998,40.999-40.998S226.241,286.602,226.241,309.242z"/>
	<path style="fill:#AC92EB;" d="M270.739,383.24c0,22.64-18.359,40.998-40.999,40.998s-40.999-18.358-40.999-40.998
		c0-22.641,18.359-40.999,40.999-40.999C252.38,342.241,270.739,360.599,270.739,383.24z"/>
	<path style="fill:#AC92EB;" d="M353.487,383.24c0,22.64-18.359,40.998-40.999,40.998s-40.999-18.358-40.999-40.998
		c0-22.641,18.359-40.999,40.999-40.999S353.487,360.599,353.487,383.24z"/>
	<path style="fill:#AC92EB;" d="M312.488,456.488c0,22.639-18.358,40.998-40.999,40.998c-22.64,0-40.999-18.359-40.999-40.998
		c0-22.641,18.359-41,40.999-41C294.13,415.488,312.488,433.848,312.488,456.488z"/>
	<path style="fill:#AC92EB;" d="M355.987,234.494c0,22.641-18.359,41-40.999,41s-40.999-18.359-40.999-41
		c0-22.64,18.359-40.998,40.999-40.998S355.987,211.854,355.987,234.494z"/>
	<path style="fill:#AC92EB;" d="M264.989,232.494c0,22.641-18.359,41-40.999,41s-40.999-18.359-40.999-41
		c0-22.64,18.358-40.998,40.999-40.998C246.63,191.496,264.989,209.854,264.989,232.494z"/>
	<path style="fill:#AC92EB;" d="M182.992,232.494c0,22.641-18.359,41-40.999,41s-40.999-18.359-40.999-41
		c0-22.64,18.359-40.998,40.999-40.998S182.992,209.854,182.992,232.494z"/>
</g>
<path d="M453.202,234.65c0-27.405-20.687-49.967-47.279-52.967c2.969-6.625,4.609-13.968,4.609-21.687
	c0-29.452-23.875-53.342-53.326-53.342c-17.453,0-32.938,8.39-42.671,21.343c-7.625-10.156-18.796-17.5-31.655-20.188
	c1.141-22.327,5.531-48.904,18.109-68.966c8.843-14.125,17.765-18.375,17.843-18.422l-0.062,0.047
	c3.78-1.641,6.437-5.405,6.437-9.812c0-5.875-4.78-10.656-10.671-10.656c-1.484,0-2.922,0.312-4.203,0.875
	c-1.703,0.719-14.124,6.5-26.062,24.53c-9,13.562-15.375,30.28-19.125,49.983c-14.515-13.719-36.811-22.156-61.654-22.156
	c-3.844,0-7.75,0.203-11.687,0.609c-46.28,4.875-134.121,67.561-133.011,78.123c0.672,6.343,36.545,24.39,75.138,36.749
	c0.75,4.546,2.062,8.89,3.891,12.968c-26.609,3-47.28,25.562-47.28,52.967c0,27.406,20.671,49.983,47.28,52.999
	c-2.953,6.624-4.609,13.952-4.609,21.687c0,27.406,20.671,49.967,47.28,52.967c-2.969,6.625-4.625,13.969-4.625,21.688
	c0,27.405,20.687,49.967,47.28,52.982c-2.953,6.625-4.609,13.953-4.609,21.672c0,29.467,23.89,53.342,53.327,53.342
	c29.469,0,53.342-23.875,53.342-53.342c0-7.719-1.656-15.047-4.608-21.672c26.608-3.016,47.265-25.577,47.265-52.982
	c0-7.719-1.656-15.062-4.594-21.688c26.592-3,47.264-25.561,47.264-52.967c0-7.734-1.641-15.062-4.609-21.687
	C432.515,284.634,453.202,262.056,453.202,234.65z M175.867,149.341c5.906,0,10.671-4.781,10.671-10.688
	c0-4.515-2.828-8.374-6.796-9.921c2.188-0.484,4.468-0.734,6.796-0.734c17.64,0,31.999,14.343,31.999,31.999l0,0l0,0
	c0,17.655-14.359,31.999-31.999,31.999s-31.999-14.344-31.999-31.999c0-9.641,4.297-18.297,11.062-24.155
	c-0.25,0.891-0.391,1.844-0.391,2.812C165.211,144.559,169.992,149.341,175.867,149.341z M208.272,210.495
	c-0.25,0.906-0.406,1.844-0.406,2.844c0,5.875,4.781,10.656,10.671,10.656c5.891,0,10.672-4.781,10.672-10.656
	c0-4.531-2.828-8.391-6.812-9.938c2.203-0.484,4.469-0.75,6.812-0.75c17.64,0,31.999,14.375,31.999,31.999
	c0,17.656-14.359,32-31.999,32c-17.656,0-31.999-14.344-31.999-32C197.21,225.026,201.491,216.37,208.272,210.495z M250.927,285.149
	c-0.25,0.906-0.391,1.859-0.391,2.844c0,5.89,4.781,10.655,10.671,10.655c5.891,0,10.656-4.766,10.656-10.655
	c0-4.531-2.812-8.375-6.781-9.938c2.188-0.469,4.453-0.719,6.781-0.719c17.656,0,32,14.343,32,31.983c0,0,0,0,0,0.016l0,0
	c0,17.641-14.344,31.999-32,31.999c-17.625,0-31.999-14.374-31.999-31.999C239.865,299.68,244.162,291.024,250.927,285.149z
	 M314.535,266.65c-17.64,0-31.999-14.344-31.999-32c0-9.624,4.297-18.28,11.062-24.155c-0.25,0.906-0.391,1.844-0.391,2.844
	c0,5.875,4.781,10.656,10.656,10.656c5.905,0,10.671-4.781,10.671-10.656c0-4.531-2.828-8.391-6.797-9.938
	c2.188-0.484,4.469-0.75,6.797-0.75c17.64,0,31.999,14.375,31.999,31.999C346.534,252.306,332.175,266.65,314.535,266.65z
	 M336.268,135.842c-0.25,0.891-0.406,1.844-0.406,2.812c0,5.906,4.781,10.688,10.672,10.688s10.672-4.781,10.672-10.688
	c0-4.515-2.828-8.374-6.812-9.921c2.203-0.484,4.469-0.734,6.812-0.734c17.64,0,31.998,14.343,31.998,31.999
	c0,17.655-14.358,31.999-31.998,31.999c-17.656,0-32-14.344-32-31.999C325.206,150.356,329.487,141.7,336.268,135.842z
	 M303.864,159.997c0,17.655-14.344,31.999-32,31.999c-17.625,0-31.999-14.344-31.999-31.999l0,0l0,0
	c0-9.656,4.312-18.297,11.062-24.155c-0.25,0.891-0.391,1.844-0.391,2.812c0,5.906,4.781,10.688,10.671,10.688
	c5.891,0,10.656-4.781,10.656-10.688c0-4.515-2.812-8.374-6.781-9.921c2.188-0.484,4.453-0.734,6.781-0.734
	C289.52,127.998,303.864,142.341,303.864,159.997z M90.87,128.607c8.359-6.641,20.343-15.203,35.186-24.249
	c27.53-16.766,52.936-27.702,67.967-29.296c3.156-0.312,6.343-0.5,9.468-0.5c15.75,0,30.468,4.187,41.405,11.812
	c6.14,4.25,13.562,11.328,15.703,21.499c-12.766,2.75-23.828,10.047-31.39,20.125c-9.734-12.953-25.218-21.343-42.671-21.343
	c-24.827,0-45.67,16.968-51.639,39.936c-3.062-1.031-6.156-2.125-9.312-3.281C111.197,138.06,99.432,132.873,90.87,128.607z
	 M111.869,234.65c0-9.624,4.297-18.28,11.062-24.155c-0.25,0.906-0.39,1.844-0.39,2.844c0,5.875,4.781,10.656,10.671,10.656
	s10.656-4.781,10.656-10.656c0-4.531-2.812-8.391-6.781-9.938c2.187-0.484,4.453-0.75,6.781-0.75
	c17.656,0,31.999,14.375,31.999,31.999c0,17.656-14.343,32-31.999,32C126.243,266.65,111.869,252.306,111.869,234.65z
	 M154.539,309.336c0-9.656,4.297-18.312,11.062-24.187c-0.25,0.906-0.391,1.859-0.391,2.844c0,5.89,4.781,10.655,10.656,10.655
	c5.906,0,10.671-4.766,10.671-10.655c0-4.531-2.828-8.375-6.796-9.938c2.188-0.469,4.468-0.719,6.796-0.719
	c17.64,0,31.999,14.343,31.999,31.999c0,17.625-14.359,31.999-31.999,31.999S154.539,326.961,154.539,309.336z M197.21,383.99
	c0-9.641,4.281-18.297,11.062-24.156c-0.25,0.891-0.406,1.844-0.406,2.812c0,5.906,4.781,10.688,10.671,10.688
	c5.891,0,10.672-4.781,10.672-10.688c0-4.516-2.828-8.375-6.812-9.921c2.203-0.484,4.469-0.734,6.812-0.734
	c17.64,0,31.999,14.343,31.999,31.999c0,17.655-14.359,31.998-31.999,31.998C211.554,415.988,197.21,401.645,197.21,383.99z
	 M271.864,490.642c-17.625,0-31.999-14.344-31.999-31.998c0-9.625,4.297-18.281,11.062-24.156c-0.25,0.906-0.391,1.844-0.391,2.844
	c0,5.875,4.781,10.656,10.671,10.656c5.891,0,10.656-4.781,10.656-10.656c0-4.531-2.812-8.391-6.781-9.938
	c2.188-0.484,4.453-0.75,6.781-0.75c17.656,0,32,14.375,32,32C303.864,476.299,289.52,490.642,271.864,490.642z M314.535,415.988
	c-17.64,0-31.999-14.343-31.999-31.998c0-9.641,4.297-18.297,11.062-24.156c-0.25,0.891-0.391,1.844-0.391,2.812
	c0,5.906,4.781,10.688,10.656,10.688c5.905,0,10.671-4.781,10.671-10.688c0-4.516-2.828-8.375-6.797-9.921
	c2.188-0.484,4.469-0.734,6.797-0.734c17.64,0,31.999,14.343,31.999,31.999C346.534,401.645,332.175,415.988,314.535,415.988z
	 M357.206,341.335c-17.656,0-32-14.358-32-31.999l0,0c0-0.016,0-0.016,0-0.016c0-9.641,4.281-18.296,11.062-24.171
	c-0.25,0.906-0.406,1.859-0.406,2.844c0,5.89,4.781,10.655,10.672,10.655s10.672-4.766,10.672-10.655
	c0-4.531-2.828-8.375-6.812-9.938c2.203-0.469,4.469-0.719,6.812-0.719c17.64,0,31.998,14.343,31.998,31.999
	C389.204,326.961,374.846,341.335,357.206,341.335z M399.86,266.65c-17.624,0-31.998-14.344-31.998-32
	c0-9.624,4.296-18.28,11.062-24.155c-0.25,0.906-0.391,1.844-0.391,2.844c0,5.875,4.781,10.656,10.671,10.656
	c5.891,0,10.656-4.781,10.656-10.656c0-4.531-2.812-8.391-6.781-9.938c2.188-0.484,4.453-0.75,6.781-0.75
	c17.656,0,31.999,14.375,31.999,31.999C431.859,252.306,417.516,266.65,399.86,266.65z"/>
<g>
</g>
<g>
</g>
<g>
</g>
<g>
</g>
<g>
</g>
<g>
</g>
<g>
</g>
<g>
</g>
<g>
</g>
<g>
</g>
<g>
</g>
<g>
</g>
<g>
</g>
<g>
</g>
<g>
</g>
</svg>
