<?xml version="1.0" encoding="iso-8859-1"?>
<!-- Generator: Adobe Illustrator 19.0.0, SVG Export Plug-In . SVG Version: 6.00 Build 0)  -->
<svg version="1.1" id="Layer_1" xmlns="http://www.w3.org/2000/svg" xmlns:xlink="http://www.w3.org/1999/xlink" x="0px" y="0px"
	 viewBox="0 0 511.989 511.989" style="enable-background:new 0 0 511.989 511.989;" xml:space="preserve">
<polygon style="fill:#ED5564;" points="397.321,330.649 305.325,344.648 230.671,337.976 172.001,315.321 106.003,269.307 
	82.004,279.978 64.004,295.977 60.005,323.977 80.004,358.647 128.674,394.647 228.671,422.645 317.325,425.974 399.321,399.318 
	447.991,358.647 487.319,298.649 "/>
<polygon style="fill:#FC6E51;" points="388.493,259.807 357.495,213.809 329.995,153.311 324.495,86.813 285.497,104.812 
	231.999,141.311 204.5,179.81 195.5,239.807 171.001,218.308 154.001,296.306 171.501,318.306 242.843,339.07 337.636,339.726 
	400.493,323.806 "/>
<polygon style="fill:#FFCE54;" points="335.995,313.306 300.997,278.307 290.997,246.307 268.497,264.807 238.999,298.306 
	230.499,331.306 244.999,343.305 333.995,339.726 341.495,331.806 "/>
<path d="M413.134,314.79c1-10.312,0.375-20.781-1.891-31.327c-5.062-23.593-18.312-46.937-39.389-69.341
	c-22.484-23.922-35.156-51.874-37.672-83.092c-1.891-23.593,3.016-40.342,3.062-40.499l5.75-18.75l-18.875,5.375
	c-46.014,13.156-80.965,34.483-103.902,63.404c-18.406,23.218-29.296,51.545-32.499,84.435c-4.062-3.594-7.75-7.25-10.281-10.39
	l-11.062-13.766l-7.031,16.187c-11.046,25.405-15.109,48.062-14.875,67.842c-17.671-14.405-28.343-26.405-35.374-26.405
	c-7.625,0-24.812,2.969-41.045,17.609c-18.046-12.25-31.155-27.734-39.108-46.218c-8.156-18.968-7.609-34.296-7.594-34.452h-0.016
	c0-0.156,0.016-0.328,0.016-0.5c0-5.891-4.766-10.656-10.656-10.656c-5.703,0-10.344,4.469-10.641,10.094H0.037
	c-0.046,0.781-0.89,19.531,8.828,42.795c6.781,16.234,19.953,37.312,45.327,55.201c-14.062,21.938-5.594,35.984-5.094,41.219
	c1.141,11.999,65.576,106.652,237.758,106.652s225.133-170.65,225.133-170.65S475.835,295.899,413.134,314.79z M173.157,240.589
	c6.031,5.375,12.64,10.5,18.187,14.312l16.703,11.484v-20.266c0-71.091,34.499-118.059,105.325-143.151
	c-0.875,7.765-1.344,17.593-0.516,28.749c1.859,25.14,10.904,62.373,43.451,96.997c28.826,30.671,40.467,62.217,34.311,92.2
	c-11.498,2.812-23.732,5.297-36.623,7.312c-2.172-14.547-11.188-27.609-26.875-38.983c-24.436-17.671-25.342-48.655-25.342-48.937
	l-0.234-19.405l-16.25,10.593c-28.014,18.234-47.545,38.75-58.06,60.967c-5.031,10.625-7.891,21.516-8.562,32.328
	c-20.53-5.984-37.389-14.422-51.311-23.281C164.204,282.385,166.126,261.901,173.157,240.589z M239.827,329.774
	c-0.031-24.062,15.093-48.78,43.436-70.717c3.656,14.156,12.047,33.514,31.344,47.467c10.748,7.781,16.748,15.828,18.217,24.484
	c-15.217,1.641-31.232,2.578-48.014,2.578c-1.422,0-2.844-0.016-4.281-0.031C265.747,333.431,252.233,332.056,239.827,329.774z
	 M384.415,394.85c-29.092,15.952-61.904,24.045-97.559,24.045c-35.608,0-68.873-4.297-98.872-12.749
	c-24.53-6.906-46.92-16.593-66.544-28.812c-33.687-20.938-48.655-42.576-51.467-48.311c-0.328-1.844-0.797-3.5-1.234-5
	c-0.812-2.875-1.516-5.344-1.234-8.469c0.422-4.406,2.781-9.484,7.047-15.125c11.843-15.64,25.358-19.437,31.39-20.343
	c2.671,2,6.859,5.688,10.375,8.781c25.905,22.78,74.138,65.185,164.01,66.028c1.516,0,3,0.016,4.484,0.016
	c75.42,0,136.168-18.264,173.869-33.576c1.672-0.688,3.328-1.375,4.938-2.062c-4.703,7.203-10.078,14.656-16.172,22.14
	C429.009,364.054,407.806,382.022,384.415,394.85z"/>
<g>
</g>
<g>
</g>
<g>
</g>
<g>
</g>
<g>
</g>
<g>
</g>
<g>
</g>
<g>
</g>
<g>
</g>
<g>
</g>
<g>
</g>
<g>
</g>
<g>
</g>
<g>
</g>
<g>
</g>
</svg>
