<?xml version="1.0" encoding="iso-8859-1"?>
<!-- Generator: Adobe Illustrator 19.0.0, SVG Export Plug-In . SVG Version: 6.00 Build 0)  -->
<svg version="1.1" id="Layer_1" xmlns="http://www.w3.org/2000/svg" xmlns:xlink="http://www.w3.org/1999/xlink" x="0px" y="0px"
	 viewBox="0 0 511.982 511.982" style="enable-background:new 0 0 511.982 511.982;" xml:space="preserve">
<polygon style="fill:#965353;" points="266.662,118.669 234.656,69.342 181.275,42.671 106.605,42.671 63.942,62.67 23.999,126.668 
	13.335,244.696 30.671,334.256 85.325,369.738 181.275,377.488 223.992,369.738 236.461,279.569 291.646,226.665 "/>
<path style="fill:#A0D468;" d="M499.983,354.16c0,74.826-60.654,135.496-135.495,135.496c-74.842,0-135.496-60.67-135.496-135.496
	c0-74.825,60.654-135.495,135.496-135.495C439.329,218.665,499.983,279.335,499.983,354.16z"/>
<path style="fill:#F5F7FA;" d="M410.33,350.833c0,26.421-21.422,47.843-47.842,47.843c-26.406,0-47.827-21.422-47.827-47.843
	c0-26.405,21.421-47.827,47.827-47.827C388.908,303.006,410.33,324.428,410.33,350.833z"/>
<path d="M85.333,69.342c-5.891,0-10.672,4.766-10.672,10.656S79.442,90.67,85.333,90.67s10.663-4.781,10.663-10.672
	S91.223,69.342,85.333,69.342z"/>
<path d="M149.331,69.342c-5.891,0-10.672,4.766-10.672,10.656s4.781,10.672,10.672,10.672c5.89,0,10.663-4.781,10.663-10.672
	S155.22,69.342,149.331,69.342z"/>
<path d="M213.329,90.67c5.89,0,10.663-4.781,10.663-10.672s-4.773-10.656-10.663-10.656c-5.891,0-10.672,4.766-10.672,10.656
	S207.438,90.67,213.329,90.67z"/>
<path d="M53.271,133.34c-5.891,0-10.664,4.766-10.664,10.656s4.773,10.671,10.664,10.671c5.898,0,10.671-4.78,10.671-10.671
	S59.17,133.34,53.271,133.34z"/>
<path d="M117.269,133.34c-5.891,0-10.664,4.766-10.664,10.656s4.773,10.671,10.664,10.671c5.89,0,10.671-4.78,10.671-10.671
	S123.159,133.34,117.269,133.34z"/>
<path d="M181.267,133.34c-5.891,0-10.664,4.766-10.664,10.656s4.773,10.671,10.664,10.671c5.89,0,10.671-4.78,10.671-10.671
	S187.157,133.34,181.267,133.34z"/>
<path d="M245.328,154.667c5.89,0,10.663-4.78,10.663-10.671s-4.773-10.656-10.663-10.656c-5.891,0-10.672,4.766-10.672,10.656
	S239.437,154.667,245.328,154.667z"/>
<path d="M85.333,197.338c-5.891,0-10.672,4.766-10.672,10.656c0,5.906,4.781,10.671,10.672,10.671s10.663-4.765,10.663-10.671
	C95.996,202.103,91.223,197.338,85.333,197.338z"/>
<path d="M149.331,197.338c-5.891,0-10.672,4.766-10.672,10.656c0,5.906,4.781,10.671,10.672,10.671
	c5.89,0,10.663-4.765,10.663-10.671C159.994,202.103,155.22,197.338,149.331,197.338z"/>
<path d="M213.329,218.665c5.89,0,10.663-4.765,10.663-10.671c0-5.891-4.773-10.656-10.663-10.656
	c-5.891,0-10.672,4.766-10.672,10.656C202.657,213.9,207.438,218.665,213.329,218.665z"/>
<path d="M53.271,261.336c-5.891,0-10.664,4.766-10.664,10.656c0,5.905,4.773,10.671,10.664,10.671
	c5.898,0,10.671-4.766,10.671-10.671C63.942,266.101,59.17,261.336,53.271,261.336z"/>
<path d="M117.269,261.336c-5.891,0-10.664,4.766-10.664,10.656c0,5.905,4.773,10.671,10.664,10.671
	c5.89,0,10.671-4.766,10.671-10.671C127.94,266.101,123.159,261.336,117.269,261.336z"/>
<path d="M181.267,261.336c-5.891,0-10.664,4.766-10.664,10.656c0,5.905,4.773,10.671,10.664,10.671
	c5.89,0,10.671-4.766,10.671-10.671C191.938,266.101,187.157,261.336,181.267,261.336z"/>
<path d="M85.333,325.334c-5.891,0-10.672,4.766-10.672,10.656c0,5.905,4.781,10.671,10.672,10.671s10.663-4.766,10.663-10.671
	C95.996,330.099,91.223,325.334,85.333,325.334z"/>
<path d="M149.331,325.334c-5.891,0-10.672,4.766-10.672,10.656c0,5.905,4.781,10.671,10.672,10.671
	c5.89,0,10.663-4.766,10.663-10.671C159.994,330.099,155.22,325.334,149.331,325.334z"/>
<path d="M362.644,197.338c-22.906,0-44.593,5.156-63.998,14.375c0-1.234,0-2.469,0-3.719c0-102.247-49.64-163.979-117.965-178.166
	c0.312-1,0.477-2.047,0.477-3.156c0-5.891-4.773-10.672-10.664-10.672s-10.664,4.781-10.664,10.672c0,0.109,0.008,0.234,0.016,0.359
	c-0.016,0-0.023,0-0.039-0.016c0.008-0.109,0.023-0.234,0.023-0.344c0-5.891-4.781-10.672-10.671-10.672
	c-5.523,0-10.062,4.203-10.609,9.578c-0.547-5.375-5.086-9.578-10.609-9.578c-5.89,0-10.671,4.781-10.671,10.672
	c0,0.797,0.094,1.562,0.258,2.297C49.435,39.436,0,87.435,0,207.994c0,138.667,23.257,181.338,149.331,181.338
	c27.116,0,49.467-2.969,67.856-8.797c15.344,66.154,74.646,115.449,145.457,115.449c82.48,0,149.338-66.842,149.338-149.323
	S445.125,197.338,362.644,197.338z M149.331,367.988c-30.132,0-53.093-2.562-70.209-7.875
	c-15.703-4.859-26.772-11.999-34.835-22.468c-8.258-10.718-14.038-25.937-17.679-46.529c-3.602-20.39-5.273-46.811-5.273-83.122
	c0-59.076,12.53-102.106,37.249-127.902C69.2,69.03,81.935,61.03,97.52,55.687c14.805-5.094,32.241-7.688,51.812-7.688
	c36.389,0,67.536,13.624,90.091,39.374c24.795,28.343,37.912,70.06,37.912,120.621c0,5.656-0.062,11.062-0.188,16.233
	c-15.297,10.703-28.499,24.202-38.865,39.765c-1.484,1.312-2.609,3.031-3.188,5c-10.312,16.905-17.352,35.998-20.258,56.451
	c-0.499-0.078-0.999-0.109-1.507-0.109c-5.891,0-10.672,4.766-10.672,10.656c0,5.905,4.781,10.671,10.672,10.671l0,0l0,0
	c0,4.219,0.18,8.39,0.523,12.515C196.829,365.097,175.658,367.988,149.331,367.988z M453.172,437.174
	c-24.186,24.171-56.326,37.483-90.527,37.483c-34.188,0-66.311-13.312-90.498-37.483c-24.171-24.187-37.49-56.326-37.49-90.513
	s13.319-66.326,37.49-90.513c24.188-24.171,56.311-37.483,90.498-37.483c34.201,0,66.342,13.312,90.527,37.483
	c24.156,24.187,37.469,56.326,37.469,90.513S477.328,412.987,453.172,437.174z"/>
<path d="M425.517,341.364l-3.969-7.655c-1.5-2.906-3.125-7.953-3.625-11.188l-1.297-8.531c-0.484-3.234-3.297-7.094-6.234-8.562
	l-7.688-3.875c-2.938-1.469-7.219-4.578-9.531-6.906l-6.062-6.14c-1.969-2.016-5.624-3.391-8.655-3.391
	c-0.5,0-0.969,0.047-1.406,0.125l-8.5,1.406c-1.624,0.25-3.749,0.391-5.905,0.391c-2.125,0-4.25-0.141-5.875-0.391l-8.5-1.406
	c-0.453-0.078-0.922-0.125-1.406-0.125c-3.047,0-6.688,1.375-8.672,3.391l-6.047,6.14c-2.312,2.328-6.594,5.438-9.531,6.906
	l-7.702,3.875c-2.938,1.469-5.734,5.328-6.234,8.562l-1.281,8.531c-0.5,3.234-2.124,8.281-3.655,11.188l-3.953,7.655
	c-1.516,2.906-1.516,7.688,0,10.594l3.953,7.655c1.531,2.906,3.155,7.953,3.655,11.188l1.281,8.531
	c0.5,3.25,3.297,7.094,6.234,8.562l7.702,3.875c2.938,1.469,7.219,4.578,9.531,6.906l6.047,6.14
	c1.984,2.016,5.625,3.391,8.672,3.391c0.484,0,0.953-0.047,1.406-0.125l8.5-1.406c1.625-0.25,3.75-0.391,5.875-0.391
	c2.156,0,4.281,0.141,5.905,0.391l8.5,1.406c0.438,0.078,0.906,0.125,1.406,0.125c3.031,0,6.687-1.375,8.655-3.391l6.062-6.14
	c2.312-2.328,6.594-5.438,9.531-6.906l7.688-3.875c2.938-1.469,5.75-5.312,6.234-8.562l1.297-8.531
	c0.5-3.234,2.125-8.281,3.625-11.188l3.969-7.655C427.033,349.052,427.033,344.27,425.517,341.364z M402.611,349.802
	c-2.562,4.968-4.938,12.28-5.781,17.812l-0.531,3.5l-3.156,1.578c-5,2.5-11.233,7.031-15.155,11.016l-2.484,2.5l-3.484-0.562
	c-3.438-0.578-6.999-0.688-9.374-0.688s-5.906,0.109-9.359,0.688l-3.484,0.562l-2.469-2.5c-3.938-3.984-10.156-8.516-15.156-11.016
	l-3.156-1.578l-0.531-3.5c-0.844-5.531-3.219-12.844-5.797-17.812l-1.624-3.141l1.64-3.141c2.562-4.969,4.938-12.28,5.781-17.812
	l0.531-3.5l3.156-1.578c5-2.5,11.219-7.031,15.156-11.016l2.469-2.5l3.5,0.562c3.422,0.578,6.969,0.688,9.344,0.688
	s5.937-0.109,9.374-0.688l3.484-0.562l2.484,2.5c3.922,3.984,10.155,8.516,15.155,11.031l3.156,1.562l0.531,3.5
	c0.844,5.531,3.219,12.843,5.781,17.812l1.625,3.141L402.611,349.802z"/>
<path d="M362.644,282.663c5.905,0,10.687-4.766,10.687-10.671c0-5.875-4.781-10.656-10.687-10.656
	c-5.875,0-10.656,4.781-10.656,10.656C351.988,277.897,356.769,282.663,362.644,282.663z"/>
<path d="M336.285,265.508c5.609-1.828,8.672-7.828,6.859-13.453c-1.828-5.594-7.844-8.655-13.453-6.843
	c-5.609,1.827-8.671,7.843-6.844,13.437C324.676,264.258,330.676,267.336,336.285,265.508z"/>
<path d="M389.017,427.814c-5.593,1.828-8.655,7.828-6.843,13.438c1.812,5.609,7.843,8.672,13.437,6.859
	c5.609-1.828,8.672-7.844,6.844-13.438C400.642,429.049,394.627,425.986,389.017,427.814z"/>
<path d="M278.724,298.865c4.766,3.469,11.422,2.406,14.891-2.359s2.406-11.437-2.344-14.89c-4.781-3.469-11.438-2.406-14.906,2.344
	C272.896,288.741,273.959,295.396,278.724,298.865z"/>
<path d="M446.578,394.457c-4.749-3.469-11.437-2.406-14.89,2.359c-3.452,4.765-2.405,11.437,2.359,14.89
	c4.766,3.468,11.437,2.406,14.905-2.344C452.406,404.581,451.359,397.926,446.578,394.457z"/>
<path d="M266.654,335.99c-5.89,0-10.663,4.78-10.663,10.671s4.773,10.671,10.663,10.671c5.898,0,10.68-4.78,10.68-10.671
	S272.553,335.99,266.654,335.99z"/>
<path d="M458.64,335.99c-5.875,0-10.656,4.78-10.656,10.671s4.781,10.671,10.656,10.671c5.906,0,10.688-4.78,10.688-10.671
	S464.547,335.99,458.64,335.99z"/>
<path d="M278.709,394.457c-4.75,3.469-5.812,10.124-2.344,14.905c3.469,4.75,10.125,5.812,14.906,2.344
	c4.75-3.453,5.812-10.125,2.344-14.89C290.146,392.051,283.49,390.988,278.709,394.457z"/>
<path d="M446.578,298.865c4.781-3.469,5.828-10.124,2.375-14.905c-3.469-4.75-10.14-5.812-14.905-2.344
	c-4.765,3.453-5.812,10.124-2.359,14.89C435.141,301.271,441.829,302.334,446.578,298.865z"/>
<path d="M336.285,427.814c-5.609-1.828-11.609,1.25-13.438,6.859c-1.827,5.594,1.234,11.609,6.844,13.438
	c5.609,1.812,11.609-1.25,13.453-6.859C344.957,435.642,341.894,429.642,336.285,427.814z"/>
<path d="M389.017,265.508c5.609,1.828,11.625-1.25,13.438-6.859c1.828-5.594-1.25-11.609-6.844-13.437
	c-5.594-1.812-11.625,1.249-13.437,6.843C380.362,257.68,383.425,263.68,389.017,265.508z"/>
<path d="M362.644,410.659c-5.875,0-10.656,4.765-10.656,10.671c0,5.875,4.781,10.656,10.656,10.656
	c5.905,0,10.687-4.781,10.687-10.656C373.331,415.424,368.55,410.659,362.644,410.659z"/>
<path d="M325.035,294.881c4.766-3.452,5.828-10.14,2.359-14.89c-3.469-4.78-10.124-5.827-14.905-2.375
	c-4.75,3.469-5.812,10.141-2.344,14.905C313.598,297.287,320.27,298.349,325.035,294.881z"/>
<path d="M400.267,398.426c-4.766,3.468-5.812,10.14-2.359,14.905c3.469,4.78,10.141,5.827,14.891,2.374
	c4.781-3.468,5.844-10.155,2.375-14.905C411.705,396.019,405.033,394.972,400.267,398.426z"/>
<path d="M281.49,320.303c-1.812,5.594,1.25,11.609,6.859,13.438c5.609,1.812,11.609-1.25,13.438-6.859s-1.234-11.609-6.844-13.438
	S283.318,314.693,281.49,320.303z"/>
<path d="M443.798,373.019c1.827-5.594-1.234-11.609-6.844-13.438c-5.594-1.812-11.624,1.25-13.437,6.844
	c-1.812,5.625,1.25,11.625,6.843,13.453C435.97,381.707,441.985,378.629,443.798,373.019z"/>
<path d="M288.349,359.582c-5.609,1.828-8.672,7.844-6.859,13.438c1.828,5.609,7.844,8.688,13.453,6.859s8.672-7.828,6.844-13.453
	C299.959,360.832,293.959,357.769,288.349,359.582z"/>
<path d="M436.954,333.74c5.609-1.828,8.671-7.844,6.844-13.438c-1.812-5.609-7.828-8.688-13.438-6.859
	c-5.593,1.828-8.655,7.828-6.843,13.453C425.33,332.49,431.36,335.553,436.954,333.74z"/>
<path d="M327.394,413.331c3.469-4.766,2.406-11.438-2.359-14.905c-4.765-3.453-11.437-2.406-14.89,2.374
	c-3.468,4.766-2.406,11.438,2.344,14.905C317.27,419.158,323.926,418.096,327.394,413.331z"/>
<path d="M397.908,279.991c-3.453,4.766-2.406,11.438,2.359,14.905c4.766,3.453,11.438,2.391,14.906-2.375
	c3.469-4.765,2.406-11.437-2.359-14.905C408.049,274.164,401.377,275.211,397.908,279.991z"/>
<g>
</g>
<g>
</g>
<g>
</g>
<g>
</g>
<g>
</g>
<g>
</g>
<g>
</g>
<g>
</g>
<g>
</g>
<g>
</g>
<g>
</g>
<g>
</g>
<g>
</g>
<g>
</g>
<g>
</g>
</svg>
