<?xml version="1.0" encoding="iso-8859-1"?>
<!-- Generator: Adobe Illustrator 19.0.0, SVG Export Plug-In . SVG Version: 6.00 Build 0)  -->
<svg version="1.1" id="Layer_1" xmlns="http://www.w3.org/2000/svg" xmlns:xlink="http://www.w3.org/1999/xlink" x="0px" y="0px"
	 viewBox="0 0 511.979 511.979" style="enable-background:new 0 0 511.979 511.979;" xml:space="preserve">
<path style="fill:#FFCE54;" d="M469.981,319.992c0,65.186-52.826,117.996-117.996,117.996s-117.996-52.811-117.996-117.996
	c0-65.146,52.826-117.988,117.996-117.988S469.981,254.846,469.981,319.992z"/>
<polygon style="fill:#F6BB42;" points="281.331,99.304 197.998,55.962 99.337,43.962 32.003,52.634 16.003,80.633 11.34,159.958 
	32.003,256.002 88.001,327.961 163.999,360.615 206.661,364.615 213.333,256.002 255.988,203.301 319.97,169.958 "/>
<path d="M117.313,287.994c-5.891,0-10.671,4.779-10.671,10.654c0,5.906,4.781,10.688,10.671,10.688s10.664-4.781,10.664-10.688
	C127.976,292.773,123.203,287.994,117.313,287.994z"/>
<path d="M138.648,309.336c-5.89,0-10.671,4.75-10.671,10.656c0,5.875,4.781,10.656,10.671,10.656
	c5.891,0,10.664-4.781,10.664-10.656C149.312,314.086,144.538,309.336,138.648,309.336z"/>
<path d="M159.975,287.994c-5.891,0-10.664,4.779-10.664,10.654c0,5.906,4.773,10.688,10.664,10.688s10.671-4.781,10.671-10.688
	C170.647,292.773,165.866,287.994,159.975,287.994z"/>
<path d="M351.985,160.005c-7.781,0-15.422,0.562-22.906,1.625C291.315,54.462,190.232,31.993,112.172,31.993
	c-56.264,0-100.536,11.656-100.536,11.656s-82.162,312.434,190.166,331.622c22.507,61.123,81.248,104.715,150.183,104.715
	c88.356,0,159.994-71.621,159.994-159.994C511.979,231.628,440.342,160.005,351.985,160.005z M123.179,335.648
	c-24.757-10.938-45.272-26.781-60.967-47.092c-15.304-19.805-26.476-44.351-33.209-72.959c-5.555-23.593-8.117-49.951-7.617-78.341
	c0.445-25.296,3.273-47.749,5.938-63.686c1.406,0.688,2.984,1.094,4.656,1.094c5.891,0,10.664-4.781,10.664-10.656
	c0-1.688-0.398-3.281-1.086-4.687c17.304-2.906,42.374-6,70.615-6c33.78,0,64.303,4.406,90.716,13.093
	c32.296,10.625,58.388,27.749,77.537,50.874c11.562,13.968,20.75,30.265,27.593,48.827
	c-66.983,19.108-116.029,80.762-116.029,153.877c0,11.438,1.211,22.594,3.492,33.373
	C168.218,350.742,143.991,344.836,123.179,335.648z M450.028,418.051c-12.733,12.719-27.576,22.719-44.076,29.719
	c-17.078,7.219-35.249,10.875-53.967,10.875c-18.734,0-36.89-3.656-53.967-10.875c-16.516-7-31.344-17-44.085-29.719
	c-12.741-12.748-22.741-27.592-29.726-44.092c-7.227-17.094-10.89-35.248-10.89-53.967s3.664-36.873,10.89-53.959
	c6.984-16.515,16.984-31.343,29.726-44.092s27.569-22.749,44.085-29.718c17.077-7.234,35.232-10.906,53.967-10.906
	c18.718,0,36.889,3.671,53.967,10.906c16.5,6.969,31.343,16.968,44.076,29.718c12.75,12.75,22.75,27.577,29.734,44.092
	c7.219,17.086,10.891,35.24,10.891,53.959s-3.672,36.873-10.891,53.967C472.778,390.459,462.778,405.302,450.028,418.051z"/>
<path d="M351.985,192.004c-70.701,0-127.996,57.295-127.996,127.988c0,70.686,57.295,127.996,127.996,127.996
	c70.686,0,127.996-57.311,127.996-127.996C479.981,249.299,422.671,192.004,351.985,192.004z M458.122,309.336h-75.966
	c-0.375-1.094-0.812-2.125-1.297-3.156l53.717-53.708C447.919,268.752,456.059,288.369,458.122,309.336z M362.641,213.847
	c20.951,2.062,40.576,10.203,56.857,23.562l-53.717,53.71c-1.016-0.5-2.062-0.938-3.141-1.312v-75.96H362.641z M341.313,213.847
	v75.959c-1.062,0.375-2.109,0.812-3.125,1.312l-53.717-53.71C300.737,224.05,320.377,215.909,341.313,213.847z M269.386,252.471
	l53.709,53.708c-0.484,1.031-0.906,2.062-1.28,3.156H245.84C247.91,288.369,256.043,268.752,269.386,252.471z M245.84,330.648
	h75.975c0.374,1.062,0.796,2.125,1.28,3.125l-53.709,53.717C256.043,371.24,247.91,351.586,245.84,330.648z M341.313,426.144
	c-20.937-2.094-40.576-10.219-56.842-23.561l53.717-53.717c1.016,0.5,2.062,0.906,3.125,1.281V426.144z M351.985,330.648
	c-5.891,0-10.672-4.781-10.672-10.656s4.781-10.656,10.672-10.656c5.875,0,10.656,4.781,10.656,10.656
	S357.86,330.648,351.985,330.648z M362.641,426.144v-75.996c1.078-0.375,2.125-0.781,3.141-1.281l53.717,53.717
	C403.218,415.926,383.593,424.051,362.641,426.144z M434.576,387.49l-53.717-53.717c0.484-1,0.922-2.062,1.297-3.125h75.966
	C456.059,351.586,447.919,371.24,434.576,387.49z"/>
<path d="M437.31,287.994c5.891,0,10.655-4.781,10.655-10.656c0-5.898-4.765-10.68-10.655-10.68s-10.671,4.781-10.671,10.68
	C426.639,283.213,431.42,287.994,437.31,287.994z"/>
<path d="M330.641,373.334c-5.891,0-10.671,4.75-10.671,10.656c0,5.875,4.78,10.656,10.671,10.656s10.656-4.781,10.656-10.656
	C341.298,378.084,336.532,373.334,330.641,373.334z"/>
<g>
</g>
<g>
</g>
<g>
</g>
<g>
</g>
<g>
</g>
<g>
</g>
<g>
</g>
<g>
</g>
<g>
</g>
<g>
</g>
<g>
</g>
<g>
</g>
<g>
</g>
<g>
</g>
<g>
</g>
</svg>
