<?xml version="1.0" encoding="iso-8859-1"?>
<!-- Generator: Adobe Illustrator 19.0.0, SVG Export Plug-In . SVG Version: 6.00 Build 0)  -->
<svg version="1.1" id="Layer_1" xmlns="http://www.w3.org/2000/svg" xmlns:xlink="http://www.w3.org/1999/xlink" x="0px" y="0px"
	 viewBox="0 0 511.981 511.981" style="enable-background:new 0 0 511.981 511.981;" xml:space="preserve">
<polygon style="fill:#FC6E51;" points="442.641,219.32 387.33,202.664 317.333,193.321 250.655,155.322 194.657,131.323 
	150.659,146.666 100.66,186.665 79.333,251.335 83.997,314.661 129.331,367.987 210.657,389.331 273.334,385.987 285.334,376.659 
	268.654,323.988 391.986,323.988 427.986,297.333 456.64,231.991 "/>
<polygon style="fill:#A0D468;" points="77.661,91.324 47.998,125.667 32.998,156.322 45.998,201.992 69.333,210.664 94.66,184.993 
	98.996,140.994 "/>
<polygon style="fill:#FFCE54;" points="272.49,323.988 272.49,355.987 311.989,406.986 377.987,431.984 415.486,425.984 
	477.484,383.987 501.983,323.988 "/>
<path d="M419.455,314.895c34.514-35.827,53.717-71.841,49.217-83.154c-9.531-23.843-65.842-38.905-97.56-38.905
	c-0.781,0-1.531,0.016-2.281,0.031c-0.469,0-0.968,0.016-1.437,0.016c-53.093,0-116.489-69.373-174.526-69.389
	c-0.016,0-0.031,0-0.055,0c-34.577,0-61.834,12.156-82.052,30.921c-2.922-33.67-24.491-84.544-30.655-85.325
	c-0.055,0-0.109,0-0.172,0c-7.586,0-50.396,57.436-54.326,88.247c-1.594,12.5,0.023,24.437,4.062,34.437
	c-9.953-2.875-16.055-4.531-16.195-4.578v0.016c-0.898-0.25-1.836-0.391-2.812-0.391C4.772,186.821,0,191.587,0,197.493
	c0,4.906,3.327,9.031,7.858,10.281H7.85c0.305,0.094,28.296,7.75,62.732,18.656c-5.047,21.593-5.602,43.812-1.797,63.623
	c12.688,66.231,62.436,110.184,168.862,110.184c4.25,0,8.569-0.062,13.007-0.219c11.585-0.375,22.96-1.874,34.054-4.312
	c23.468,28.795,59.217,47.186,99.277,47.186c70.686,0,127.996-57.295,127.996-127.996h-92.526V314.895z M46.763,160.025
	c0.875-6.843,6.328-21.312,18.999-41.327c3.43-5.406,6.781-10.266,9.859-14.453c1.93,4.812,3.953,10.375,5.914,16.468
	c7.242,22.562,8.883,37.92,8.008,44.78c-2.469,19.374-14.602,32.405-24.383,32.405c-0.492,0-0.984-0.031-1.477-0.094
	c-6.179-0.781-10.288-6.453-12.187-9.75C47.178,180.525,45.451,170.306,46.763,160.025z M249.975,378.706
	c-4.172,0.125-8.312,0.188-12.327,0.188c-46.39,0-82.49-8.859-107.294-26.343c-10.874-7.672-19.804-17.218-26.538-28.374
	c-6.586-10.906-11.32-23.719-14.085-38.124c-3.258-17.03-2.672-36.562,1.664-54.999c4.601-19.562,13.147-37.311,24.718-51.311
	c8.991-10.875,19.679-19.343,31.757-25.203c13.319-6.453,28.444-9.734,44.943-9.734h0.047c23.897,0.031,52.592,16.765,80.349,32.968
	c30.688,17.906,62.451,36.437,94.186,36.437c0.656,0,1.312,0,1.968-0.016c0.562-0.016,1.156-0.016,1.75-0.016
	c14.233,0,33.843,3.625,49.937,9.25c15.968,5.594,23.562,11.25,26.436,14.343c-1.234,4.266-5.062,13.312-14.405,27.062
	c-11.343,16.64-26.874,34.279-43.78,49.67c-0.156,0.141-0.312,0.266-0.453,0.391H255.991c0,10.031,1.156,19.781,3.328,29.124
	c-2.883,0.375-5.766,0.688-8.625,0.906c-41.045,3.188-74.278-5.156-98.754-24.749c-14.555-11.641-22.508-25.031-24.656-30.437
	h-0.008c-1.539-4-5.405-6.844-9.944-6.844c-5.891,0-10.672,4.781-10.672,10.671c0,1.359,0.266,2.641,0.719,3.828h-0.008
	c0.016,0.047,0.062,0.156,0.117,0.281c0.008,0.031,0.016,0.047,0.023,0.062c1.141,2.781,9.188,21.125,29.968,38.188
	c12.773,10.468,27.827,18.436,44.726,23.639c15.851,4.891,33.357,7.344,52.232,7.344c5.836,0,11.812-0.234,17.897-0.703
	c4.531-0.344,9.093-0.875,13.679-1.578c1.711,4.062,3.633,8.016,5.75,11.859C264.451,377.721,257.179,378.471,249.975,378.706z
	 M459.406,390.331c-20.14,20.14-46.92,31.232-75.42,31.232c-28.498,0-55.279-11.093-75.419-31.232
	c-15.015-15.031-25.015-33.734-29.124-54.092h8.547c0,5.89,4.781,10.655,10.656,10.655c5.906,0,10.671-4.766,10.687-10.655h21.312
	c0.016,5.89,4.781,10.655,10.688,10.655c5.875,0,10.656-4.766,10.656-10.655h21.343c0,5.89,4.766,10.655,10.655,10.655
	c5.891,0,10.656-4.766,10.656-10.655h21.344c0,5.89,4.781,10.655,10.656,10.655c5.905,0,10.687-4.766,10.687-10.655h21.312l0,0
	c0,5.89,4.781,10.671,10.688,10.671c5.875,0,10.656-4.781,10.656-10.671l0,0h8.547C484.422,356.596,474.422,375.299,459.406,390.331
	z"/>
<g>
</g>
<g>
</g>
<g>
</g>
<g>
</g>
<g>
</g>
<g>
</g>
<g>
</g>
<g>
</g>
<g>
</g>
<g>
</g>
<g>
</g>
<g>
</g>
<g>
</g>
<g>
</g>
<g>
</g>
</svg>
