<?xml version="1.0" encoding="iso-8859-1"?>
<!-- Generator: Adobe Illustrator 19.0.0, SVG Export Plug-In . SVG Version: 6.00 Build 0)  -->
<svg version="1.1" id="Layer_1" xmlns="http://www.w3.org/2000/svg" xmlns:xlink="http://www.w3.org/1999/xlink" x="0px" y="0px"
	 viewBox="0 0 511.984 511.984" style="enable-background:new 0 0 511.984 511.984;" xml:space="preserve">
<polygon style="fill:#A0D468;" points="275.644,88.653 269.988,20.999 239.99,38.999 244.654,132.652 207.991,145.995 
	209.655,248.992 251.653,234.32 303.988,243.992 306.332,106.653 "/>
<polygon style="fill:#FFCE54;" points="367.486,290.491 321.987,255.992 255.989,235.117 207.991,250.492 148.493,282.991 
	125.993,319.99 122.993,379.988 133.493,427.986 199.991,480.484 233.49,490.984 295.988,483.484 344.486,454.986 376.985,421.486 
	388.484,377.488 388.484,323.49 "/>
<path d="M405.328,362.644c0-60.811-37.529-95.496-74.936-114.965c0.156-0.75,0.25-1.531,0.25-2.344
	c0-5.906-4.766-10.688-10.655-10.688c-1.938,0-3.766,0.531-5.344,1.438V99.559l-5.312-3.562V31.999
	c0-5.891-4.78-10.656-10.687-10.656c-5.875,0-10.656,4.766-10.656,10.656v49.779l-5.344-3.562V0l-53.318,35.562v85.325l-5.336,3.547
	V95.997c0-5.891-4.773-10.656-10.664-10.656s-10.672,4.766-10.672,10.656v42.654l-5.328,3.562v93.872
	c-1.57-0.906-3.391-1.438-5.336-1.438c-5.891,0-10.664,4.781-10.664,10.688c0,0.812,0.094,1.594,0.266,2.344
	c-37.421,19.469-74.935,54.154-74.935,114.965c0,66.545,50.467,122.121,117.793,135.559c-0.297,1-0.461,2.031-0.461,3.125
	c0,5.875,4.773,10.656,10.664,10.656s10.672-4.781,10.672-10.656c0-0.125-0.016-0.25-0.023-0.375c0.016,0,0.023,0,0.039,0
	c-0.008,0.125-0.016,0.25-0.016,0.375c0,5.875,4.773,10.656,10.664,10.656c5.89,0,10.663-4.781,10.663-10.656
	c0-0.125-0.008-0.25-0.016-0.375c0.016,0,0.023,0,0.039,0c-0.008,0.125-0.023,0.25-0.023,0.375c0,5.875,4.781,10.656,10.68,10.656
	c5.875,0,10.656-4.781,10.656-10.656c0-1.094-0.156-2.125-0.469-3.125C354.861,484.765,405.328,429.189,405.328,362.644z
	 M293.332,110.965v121.59c-3.75-1.188-7.328-2.203-10.688-3.093V103.856L293.332,110.965z M250.653,46.967l10.671-7.108v24.14
	v160.792c-3.405-0.578-5.335-0.797-5.335-0.797s-1.93,0.219-5.336,0.797V106.653L250.653,46.967L250.653,46.967z M229.326,146.526
	v82.936c-3.352,0.89-6.93,1.905-10.672,3.093v-78.919L229.326,146.526z M347.064,445.08c-11.75,10.906-25.452,19.483-40.748,25.483
	c-15.922,6.249-32.859,9.421-50.327,9.421c-17.476,0-34.413-3.172-50.327-9.421c-15.289-6-28.999-14.577-40.749-25.483
	c-23.811-22.125-36.92-51.389-36.92-82.436c0-12.015,1.75-23.343,5.195-33.654c3.094-9.25,7.648-17.984,13.546-25.938
	c10.289-13.905,24.929-25.968,43.491-35.811c28.272-14.984,57.295-20.375,65.795-21.703c8.374,1.297,36.562,6.484,64.748,21.203
	c18.843,9.827,33.687,21.89,44.155,35.842c5.983,8.016,10.624,16.797,13.765,26.109c3.516,10.39,5.296,21.827,5.296,33.951
	C383.984,393.691,370.876,422.955,347.064,445.08z"/>
<path d="M255.989,447.986c-0.117,0-0.234,0.016-0.359,0.016v-0.016c-29.14,0.984-54.022-11.469-73.951-37.03
	c-15.265-19.562-21.882-39.905-22.156-40.749c-1.336-4.375-5.398-7.562-10.195-7.562c-5.891,0-10.672,4.781-10.672,10.688
	c0,1.125,0.18,2.188,0.5,3.219c0.516,1.625,7.828,24.39,25.257,46.951c23.218,30.078,53.615,45.874,88.099,45.874
	c1.273,0,2.555-0.016,3.836-0.062v-0.016c5.718-0.188,10.304-4.875,10.304-10.655C266.652,452.767,261.879,447.986,255.989,447.986z
	"/>
<g>
</g>
<g>
</g>
<g>
</g>
<g>
</g>
<g>
</g>
<g>
</g>
<g>
</g>
<g>
</g>
<g>
</g>
<g>
</g>
<g>
</g>
<g>
</g>
<g>
</g>
<g>
</g>
<g>
</g>
</svg>
