<?xml version="1.0" encoding="iso-8859-1"?>
<!-- Generator: Adobe Illustrator 19.0.0, SVG Export Plug-In . SVG Version: 6.00 Build 0)  -->
<svg version="1.1" id="Layer_1" xmlns="http://www.w3.org/2000/svg" xmlns:xlink="http://www.w3.org/1999/xlink" x="0px" y="0px"
	 viewBox="0 0 511.984 511.984" style="enable-background:new 0 0 511.984 511.984;" xml:space="preserve">
<polygon style="fill:#FFE7B0;" points="479.985,212.493 458.485,172.494 428.487,141.995 393.487,104.497 288.491,56.998 
	291.991,23.999 203.994,20.499 192.494,64.998 172.495,78.497 114.497,116.996 54.999,173.994 15.5,271.992 15.5,346.489 
	42.671,408.487 78.498,451.986 149.332,486.484 221.493,498.484 302.991,498.484 402.987,471.485 456.985,431.486 488.985,383.988 
	501.984,296.99 "/>
<g>
	<path style="fill:#ED5564;" d="M419.331,223.321l-7-25.999l-11.672-15.984l-6-23.015l-18.671-20.327l-25.655,8.327l-16.672-12.327
		c0,0-20.671-37.327-22.327-37.999c-1.672-0.672-26.343,6.672-26.343,6.672l-28.999-3l-10.328,19.671l15.327,16l7.672,31.327
		l18,24.343l17.328,33.655l19.998,38.671l21.844-3.844h39.826l42,3.844l7.999-23.016L419.331,223.321z"/>
	<polygon style="fill:#ED5564;" points="430.486,376.488 416.487,365.988 411.987,338.989 394.987,329.99 373.988,338.989 
		347.489,329.99 328.489,347.989 326.989,375.488 309.49,387.988 310.49,414.486 292.491,435.486 301.991,455.986 314.99,455.986 
		331.489,451.486 359.989,451.486 369.488,441.986 378.988,420.486 391.581,405.487 417.987,410.487 435.658,401.487 	"/>
	<polygon style="fill:#ED5564;" points="221.993,283.991 221.993,255.992 202.494,244.492 202.494,214.493 179.995,196.994 
		179.995,177.494 164.995,161.995 144.996,164.995 111.497,161.995 100.997,173.494 98.497,196.494 85.498,214.493 77.498,239.992 
		63.498,246.992 59.499,277.335 72.498,289.491 79.998,302.99 75.998,323.99 59.499,353.488 65.498,370.988 78.498,389.488 
		92.997,408.987 108.997,408.487 131.496,410.487 141.996,427.486 154.495,455.986 178.581,446.986 178.581,421.986 
		198.494,404.487 206.494,378.488 215.493,361.488 225.493,329.99 239.993,315.49 245.664,295.99 	"/>
</g>
<path d="M298.663,47.701V10.656C298.663,4.781,293.882,0,287.991,0s-10.672,4.781-10.672,10.656h-21.327
	C255.992,4.781,251.211,0,245.321,0c-5.891,0-10.656,4.781-10.656,10.656h-21.343C213.322,4.781,208.556,0,202.666,0
	s-10.672,4.781-10.672,10.656v43.186C88.545,89.388,0.001,203.274,0.001,301.771c0,118.402,77.528,210.213,255.991,210.213
	s255.991-91.811,255.991-210.213C511.983,196.556,410.956,73.779,298.663,47.701z M198.931,74.029l14.391-4.969V53.842V31.999
	h63.997v15.702v16.938l16.516,3.828c48.811,11.343,98.84,44.248,137.214,90.263c37.874,45.404,59.608,97.544,59.608,143.042
	c0,20.875-2.625,40.483-7.812,58.514c-10.672-29.826-28.344-51.232-52.749-63.795c-48.873-25.186-110.449-7.218-137.933,3.188
	c-0.234-3.469-0.547-6.938-0.969-10.374c-7.672-62.436-44.921-109.794-72.264-139.98c-23.905-26.39-30.843-57.732-32.749-70.467
	C190.416,77.091,194.666,75.482,198.931,74.029z M75.388,435.471c-17.905-16.234-31.593-35.999-40.671-58.795
	c-8.874-22.312-13.39-47.514-13.39-74.904c0-21.343,4.703-44.029,13.968-67.451c9.125-23.077,22.172-45.639,38.765-67.044
	c16.672-21.5,35.89-40.499,57.123-56.515c11.422-8.593,23.093-16.077,34.952-22.39c3.391,17.531,12.531,48.296,36.983,75.279
	c25.39,28.03,59.966,71.825,66.903,128.245c3.484,28.453-0.328,58.124-11.358,88.217c-12.484,34.062-34.562,69.717-65.639,105.996
	c-16.312-2.5-31.608-6.047-45.764-10.624C118.716,466.266,94.528,452.799,75.388,435.471z M436.596,435.471
	c-19.14,17.328-43.327,30.796-71.872,40.015c-31.141,10.062-67.717,15.155-108.731,15.155c-13.03,0-25.593-0.5-37.702-1.531
	c28.015-34.529,48.311-68.654,60.404-101.652c7.984-21.812,12.547-43.515,13.656-64.842c18.39-7.688,81.856-30.938,127.98-7.156
	c25.529,13.156,42.092,39.311,49.248,77.779C461.063,409.159,450.016,423.314,436.596,435.471z"/>
<path d="M258.258,148.198c-1.453,3.656-2.266,7.641-2.266,11.797c0,14.733,10.015,27.171,23.593,30.874
	c-1.453,3.656-2.266,7.625-2.266,11.78c0,14.75,10.016,27.188,23.594,30.874c-1.453,3.656-2.25,7.641-2.25,11.812
	c0,17.625,14.343,31.999,31.998,31.999c8.188,0,15.656-3.108,21.328-8.187c5.672,5.078,13.141,8.187,21.327,8.187
	c8.188,0,15.671-3.108,21.343-8.187c5.656,5.078,13.141,8.187,21.328,8.187c17.64,0,31.998-14.374,31.998-31.999
	c0-14.75-10.015-27.187-23.592-30.874c1.453-3.656,2.266-7.641,2.266-11.812c0-14.718-10.016-27.155-23.594-30.858
	c1.453-3.655,2.25-7.64,2.25-11.796c0-17.641-14.344-31.999-31.999-31.999c-8.187,0-15.655,3.094-21.327,8.172
	c-3.656-3.266-8.062-5.719-12.922-7.047c1.453-3.656,2.25-7.625,2.25-11.781c0-17.655-14.344-31.999-31.999-31.999
	c-8.187,0-15.655,3.094-21.327,8.156c-5.672-5.062-13.141-8.156-21.328-8.156c-17.655,0-31.998,14.344-31.998,31.999
	C234.665,132.058,244.68,144.495,258.258,148.198z M341.317,202.649c0-5.874,4.781-10.655,10.672-10.655s10.672,4.781,10.672,10.655
	c0,5.906-4.781,10.688-10.672,10.688S341.317,208.555,341.317,202.649z M287.991,149.339c5.891,0,10.672,4.766,10.672,10.656
	s-4.781,10.655-10.672,10.655s-10.672-4.765-10.672-10.655S282.1,149.339,287.991,149.339z M309.318,191.994
	c5.891,0,10.672,4.781,10.672,10.655c0,5.906-4.781,10.688-10.672,10.688c-5.89,0-10.655-4.781-10.655-10.688
	C298.663,196.775,303.429,191.994,309.318,191.994z M330.661,255.992c-5.891,0-10.671-4.781-10.671-10.656
	c0-5.906,4.78-10.688,10.671-10.688s10.656,4.781,10.656,10.688C341.317,251.211,336.552,255.992,330.661,255.992z M373.316,255.992
	c-5.89,0-10.655-4.781-10.655-10.656c0-5.906,4.766-10.688,10.655-10.688c5.891,0,10.671,4.781,10.671,10.688
	C383.987,251.211,379.207,255.992,373.316,255.992z M415.987,255.992c-5.891,0-10.672-4.781-10.672-10.656
	c0-5.906,4.781-10.688,10.672-10.688s10.672,4.781,10.672,10.688C426.659,251.211,421.878,255.992,415.987,255.992z
	 M394.659,213.337c-5.891,0-10.672-4.781-10.672-10.688c0-5.874,4.781-10.655,10.672-10.655s10.656,4.781,10.656,10.655
	C405.315,208.555,400.55,213.337,394.659,213.337z M373.316,149.339c5.891,0,10.671,4.766,10.671,10.656s-4.78,10.655-10.671,10.655
	c-5.89,0-10.655-4.765-10.655-10.655S367.427,149.339,373.316,149.339z M330.661,170.65c-5.891,0-10.671-4.765-10.671-10.655
	s4.78-10.656,10.671-10.656s10.656,4.766,10.656,10.656S336.552,170.65,330.661,170.65z M309.318,106.653
	c5.891,0,10.672,4.78,10.672,10.687c0,5.875-4.781,10.656-10.672,10.656c-5.89,0-10.655-4.781-10.655-10.656
	C298.663,111.433,303.429,106.653,309.318,106.653z M266.663,106.653c5.891,0,10.656,4.78,10.656,10.687
	c0,5.875-4.766,10.656-10.656,10.656s-10.671-4.781-10.671-10.656C255.992,111.433,260.773,106.653,266.663,106.653z"/>
<path d="M189.51,424.955c13.688-3.625,23.812-16.124,23.812-30.936c0-3.938-0.719-7.719-2.031-11.219
	c13.468-3.781,23.374-16.156,23.374-30.812c0-4.156-0.812-8.141-2.266-11.797c13.577-3.702,23.593-16.14,23.593-30.858
	c0-14.75-10.016-27.187-23.593-30.874c1.453-3.655,2.266-7.64,2.266-11.812c0-14.719-10.016-27.156-23.593-30.859
	c1.453-3.656,2.25-7.64,2.25-11.796c0-14.734-10.016-27.171-23.594-30.874c1.453-3.656,2.266-7.625,2.266-11.781
	c0-17.655-14.358-31.999-31.999-31.999c-8.187,0-15.671,3.094-21.327,8.156c-5.672-5.062-13.156-8.156-21.343-8.156
	c-17.641,0-31.999,14.344-31.999,31.999c0,4.156,0.812,8.125,2.266,11.781c-13.578,3.703-23.594,16.14-23.594,30.874
	c0,4.156,0.812,8.14,2.266,11.796c-13.577,3.703-23.593,16.141-23.593,30.859c0,14.749,10.016,27.186,23.593,30.873
	c-1.453,3.656-2.266,7.641-2.266,11.812c0,4.156,0.812,8.125,2.266,11.781c-13.577,3.703-23.593,16.141-23.593,30.874
	c0,14.655,9.906,27.03,23.358,30.812c-1.312,3.5-2.031,7.281-2.031,11.219c0,17.655,14.359,31.998,31.999,31.998
	c8.188,0,15.672-3.094,21.328-8.172c3.719,3.328,8.202,5.797,13.155,7.109c-1.594,3.812-2.484,7.984-2.484,12.375
	c0,17.625,14.359,31.999,31.999,31.999c17.641,0,31.999-14.374,31.999-31.999C191.994,432.939,191.103,428.767,189.51,424.955z
	 M138.668,213.337c5.891,0,10.656,4.766,10.656,10.656s-4.766,10.655-10.656,10.655s-10.672-4.765-10.672-10.655
	S132.777,213.337,138.668,213.337z M159.995,362.644c-5.891,0-10.671-4.766-10.671-10.655c0-5.891,4.78-10.656,10.671-10.656
	s10.672,4.766,10.672,10.656C170.667,357.879,165.886,362.644,159.995,362.644z M138.668,298.646
	c5.891,0,10.656,4.781,10.656,10.688c0,5.875-4.766,10.656-10.656,10.656s-10.672-4.781-10.672-10.656
	C127.996,303.428,132.777,298.646,138.668,298.646z M181.323,319.99c-5.891,0-10.656-4.781-10.656-10.656
	c0-5.906,4.766-10.688,10.656-10.688s10.671,4.781,10.671,10.688C191.994,315.209,187.213,319.99,181.323,319.99z M159.995,277.335
	c-5.891,0-10.671-4.78-10.671-10.687c0-5.875,4.78-10.656,10.671-10.656s10.672,4.781,10.672,10.656
	C170.667,272.554,165.886,277.335,159.995,277.335z M117.325,255.992c5.89,0,10.671,4.781,10.671,10.656
	c0,5.906-4.781,10.687-10.671,10.687c-5.891,0-10.656-4.78-10.656-10.687C106.669,260.773,111.434,255.992,117.325,255.992z
	 M117.325,341.333c5.89,0,10.671,4.766,10.671,10.656s-4.781,10.655-10.671,10.655c-5.891,0-10.656-4.766-10.656-10.655
	C106.669,346.098,111.434,341.333,117.325,341.333z M95.997,298.646c5.891,0,10.672,4.781,10.672,10.688
	c0,5.875-4.781,10.656-10.672,10.656c-5.89,0-10.671-4.781-10.671-10.656C85.326,303.428,90.107,298.646,95.997,298.646z
	 M181.323,404.69c-5.891,0-10.656-4.781-10.656-10.671c0-5.891,4.766-10.656,10.656-10.656s10.671,4.766,10.671,10.656
	C191.994,399.909,187.213,404.69,181.323,404.69z M202.666,362.644c-5.891,0-10.672-4.766-10.672-10.655
	c0-5.891,4.781-10.656,10.672-10.656s10.656,4.766,10.656,10.656C213.322,357.879,208.556,362.644,202.666,362.644z M223.993,319.99
	c-5.891,0-10.671-4.781-10.671-10.656c0-5.906,4.78-10.688,10.671-10.688s10.672,4.781,10.672,10.688
	C234.665,315.209,229.884,319.99,223.993,319.99z M202.666,277.335c-5.891,0-10.672-4.78-10.672-10.687
	c0-5.875,4.781-10.656,10.672-10.656s10.656,4.781,10.656,10.656C213.322,272.554,208.556,277.335,202.666,277.335z
	 M181.323,234.648c-5.891,0-10.656-4.765-10.656-10.655s4.766-10.656,10.656-10.656s10.671,4.766,10.671,10.656
	S187.213,234.648,181.323,234.648z M159.995,170.65c5.891,0,10.672,4.781,10.672,10.688c0,5.875-4.781,10.656-10.672,10.656
	s-10.671-4.781-10.671-10.656C149.324,175.431,154.104,170.65,159.995,170.65z M117.325,170.65c5.89,0,10.671,4.781,10.671,10.688
	c0,5.875-4.781,10.656-10.671,10.656c-5.891,0-10.656-4.781-10.656-10.656C106.669,175.431,111.434,170.65,117.325,170.65z
	 M95.997,213.337c5.891,0,10.672,4.766,10.672,10.656s-4.781,10.655-10.672,10.655c-5.89,0-10.671-4.765-10.671-10.655
	S90.107,213.337,95.997,213.337z M74.67,255.992c5.891,0,10.656,4.781,10.656,10.656c0,5.906-4.766,10.687-10.656,10.687
	s-10.672-4.78-10.672-10.687C63.998,260.773,68.779,255.992,74.67,255.992z M74.67,341.333c5.891,0,10.656,4.766,10.656,10.656
	s-4.766,10.655-10.656,10.655s-10.672-4.766-10.672-10.655C63.998,346.098,68.779,341.333,74.67,341.333z M95.997,404.69
	c-5.89,0-10.671-4.781-10.671-10.671c0-5.891,4.781-10.656,10.671-10.656c5.891,0,10.672,4.766,10.672,10.656
	C106.669,399.909,101.888,404.69,95.997,404.69z M138.668,383.363c5.891,0,10.656,4.766,10.656,10.656s-4.766,10.671-10.656,10.671
	s-10.672-4.781-10.672-10.671C127.996,388.129,132.777,383.363,138.668,383.363z M159.995,447.986
	c-5.891,0-10.671-4.781-10.671-10.656c0-5.906,4.78-10.688,10.671-10.688s10.672,4.781,10.672,10.688
	C170.667,443.205,165.886,447.986,159.995,447.986z"/>
<path d="M424.612,363.207c1.312-3.484,2.047-7.281,2.047-11.218c0-17.64-14.359-31.999-32-31.999
	c-8.188,0-15.671,3.094-21.343,8.172c-5.655-5.078-13.14-8.172-21.327-8.172c-17.641,0-31.999,14.359-31.999,31.999
	c0,4.155,0.812,8.14,2.265,11.796c-13.577,3.703-23.592,16.141-23.592,30.859c0,4.172,0.797,8.155,2.25,11.812
	c-13.578,3.688-23.594,16.124-23.594,30.874c0,17.625,14.359,31.999,31.999,31.999c8.188,0,15.671-3.109,21.343-8.188
	c5.656,5.078,13.141,8.188,21.328,8.188c17.64,0,31.998-14.374,31.998-31.999c0-4.172-0.812-8.156-2.265-11.812
	c5.03-1.359,9.562-3.922,13.28-7.375c5.625,4.906,12.969,7.875,20.984,7.875c17.64,0,31.998-14.343,31.998-31.998
	C447.985,379.363,438.08,366.988,424.612,363.207z M394.659,341.333c5.891,0,10.656,4.766,10.656,10.656
	s-4.766,10.655-10.656,10.655s-10.672-4.766-10.672-10.655C383.987,346.098,388.768,341.333,394.659,341.333z M351.989,341.333
	c5.891,0,10.672,4.766,10.672,10.656s-4.781,10.655-10.672,10.655s-10.672-4.766-10.672-10.655
	C341.317,346.098,346.098,341.333,351.989,341.333z M330.661,383.988c5.891,0,10.656,4.781,10.656,10.656
	c0,5.905-4.766,10.687-10.656,10.687s-10.671-4.781-10.671-10.687C319.99,388.769,324.77,383.988,330.661,383.988z M309.318,447.986
	c-5.89,0-10.655-4.781-10.655-10.656c0-5.906,4.766-10.688,10.655-10.688c5.891,0,10.672,4.781,10.672,10.688
	C319.99,443.205,315.209,447.986,309.318,447.986z M351.989,447.986c-5.891,0-10.672-4.781-10.672-10.656
	c0-5.906,4.781-10.688,10.672-10.688s10.672,4.781,10.672,10.688C362.661,443.205,357.88,447.986,351.989,447.986z M373.316,405.331
	c-5.89,0-10.655-4.781-10.655-10.687c0-5.875,4.766-10.656,10.655-10.656c5.891,0,10.671,4.781,10.671,10.656
	C383.987,400.55,379.207,405.331,373.316,405.331z M415.987,404.69c-5.891,0-10.672-4.781-10.672-10.671
	c0-5.891,4.781-10.656,10.672-10.656s10.672,4.766,10.672,10.656C426.659,399.909,421.878,404.69,415.987,404.69z"/>
<g>
</g>
<g>
</g>
<g>
</g>
<g>
</g>
<g>
</g>
<g>
</g>
<g>
</g>
<g>
</g>
<g>
</g>
<g>
</g>
<g>
</g>
<g>
</g>
<g>
</g>
<g>
</g>
<g>
</g>
</svg>
