<?xml version="1.0" encoding="iso-8859-1"?>
<!-- Generator: Adobe Illustrator 19.0.0, SVG Export Plug-In . SVG Version: 6.00 Build 0)  -->
<svg version="1.1" id="Layer_1" xmlns="http://www.w3.org/2000/svg" xmlns:xlink="http://www.w3.org/1999/xlink" x="0px" y="0px"
	 viewBox="0 0 511.983 511.983" style="enable-background:new 0 0 511.983 511.983;" xml:space="preserve">
<path style="fill:#7F4545;" d="M341.301,122.995l-37.28-24.999l-57.999-9.999l-111.996,19.999l-80.748,36.999l-33.249,47.998
	l-6,75.014c0,0,24.999,33.982,27.999,34.732s53.998,20.766,53.998,20.766h80.998l36.265-16.516l42.67-83.872l96.013-68.123
	L341.301,122.995z"/>
<polygon style="fill:#A85D5D;" points="493.014,185.993 472.015,160.181 426.017,148.448 388.017,148.448 351.972,154.994 
	309.302,174.994 262.021,212.462 207.024,302.739 207.024,361.8 225.023,386.003 255.96,401.142 330.629,417.985 405.299,407.986 
	465.015,367.987 502.014,276.459 "/>
<path d="M63.95,212.462c-5.89,0-10.671,4.765-10.671,10.655s4.781,10.656,10.671,10.656c5.891,0,10.672-4.766,10.672-10.656
	S69.841,212.462,63.95,212.462z"/>
<path d="M266.631,169.775c5.891,0,10.672-4.781,10.672-10.656c0-5.905-4.781-10.671-10.672-10.671
	c-5.89,0-10.671,4.766-10.671,10.671C255.96,164.994,260.741,169.775,266.631,169.775z"/>
<path d="M202.633,212.462c-5.89,0-10.671,4.765-10.671,10.655s4.781,10.656,10.671,10.656c5.891,0,10.656-4.766,10.656-10.656
	S208.524,212.462,202.633,212.462z"/>
<path d="M495.499,166.213c-15.952-19.499-43.921-28.968-85.544-28.968c-5.047,0-10.375,0.141-15.859,0.406
	c-11.124,0.578-21.999,2.094-32.592,4.594c-11.547-30.155-34.094-55.732-72.311-60.467c-12.625-1.562-28.375-2.594-45.983-2.594
	c-73.482,0-179.088,17.999-222.899,90.591c-21.108,34.952-29.655,80.122-6.468,121.34c17.405,30.937,64.201,44.124,118.293,44.124
	c19.203,0,39.327-1.656,59.389-4.781c-1.047,8.218-0.922,16.968,0.875,26.654c3.062,16.516,14.984,31.969,35.421,45.937
	c14.671,10.031,33.389,18.874,51.342,24.28c8.781,2.625,29.03,5.469,52.732,5.469l0,0c22.219,0,43.015-2.391,61.826-7.125
	c24.25-6.078,44.468-15.937,60.092-29.279c25.312-21.625,42.468-50.905,51.015-87.045c7.155-30.28,7.155-59.639,7.155-81.075
	C511.982,206.493,509.982,183.916,495.499,166.213z M209.477,281.521c-4.5,9.031-8.766,17.593-12.078,26.327
	c-22.203,3.969-44.67,6.062-65.264,6.062c-2.531,0-5.031-0.047-7.484-0.109c-0.5-5.344-0.266-13.344,2.812-23.483
	c0.016-0.016,0.016-0.047,0.031-0.078l0,0l0,0c0.297-0.984,0.453-2.031,0.453-3.125c0-5.875-4.766-10.656-10.656-10.656
	c-4.812,0-8.875,3.188-10.203,7.547l0,0c-3.469,11.358-4.25,20.952-3.938,28.405c-35.733-3.875-61.357-15.141-70.717-31.749
	c-8.734-15.546-12.343-32.593-10.718-50.654c1.469-16.358,7.297-33.39,16.859-49.201c16.984-28.14,46.842-49.437,88.763-63.295
	c16.953-5.609,35.999-9.922,56.108-12.797c-4.219,8.859-7.812,20.187-7.781,33.046v0.016l0,0c0,0.016,0,0.031,0,0.031l0,0
	c0.016,5.875,4.797,10.641,10.671,10.641c5.891,0,10.672-4.781,10.672-10.672l-0.016-0.031h0.016
	c-0.062-16.718,8.828-30.374,13.078-35.968c10.921-0.844,21.999-1.281,33.124-1.281c19.592,0,34.389,1.344,43.358,2.453
	c10.594,1.312,20.031,4.766,28.062,10.266c7.344,5.031,13.749,11.921,19.03,20.468c2.75,4.438,5.203,9.375,7.312,14.656
	c-24.827,9.062-47.951,23.687-69.139,43.811c-30.608,29.062-49.154,62.264-57.466,79.467
	C212.727,275.007,211.071,278.318,209.477,281.521z M439.954,380.175c-31.874,27.218-81.388,31.28-108.06,31.28
	c-22.843,0-40.701-2.797-46.592-4.562c-11.797-3.547-24.156-8.812-35.265-15.14c6.375-3.672,11.233-8.516,14.28-14.328
	c0.047-0.062,0.078-0.141,0.125-0.219c0.016-0.047,0.047-0.094,0.078-0.141h-0.016c0.75-1.453,1.172-3.094,1.172-4.828
	c0-5.906-4.781-10.672-10.671-10.672c-4.156,0-7.734,2.375-9.5,5.828h-0.014c-2.843,5.594-10.89,8.438-16.374,9.609
	c-8.375-7.516-14.234-15.641-15.75-23.766c-4.281-23.092,3.89-39.498,15.203-62.2c1.625-3.266,3.296-6.625,5-10.125
	c7.688-15.89,24.796-46.545,52.952-73.294c31.858-30.249,68.42-46.608,108.652-48.655c5.125-0.25,10.094-0.375,14.781-0.375
	c29.093,0,49.654,4.828,62.404,14.719c-7.391,3.719-16.109,6.875-24.719,7.156v0.016c-0.969,0.031-1.922,0.172-2.874,0.484
	c-5.625,1.781-8.734,7.78-6.953,13.39c1.469,4.656,5.859,7.578,10.515,7.422v0.016c13.484-0.438,26.406-5.391,37.078-11.219
	c3.078,7.672,5.234,19.016,5.234,37.702C490.64,268.882,490.64,336.864,439.954,380.175z"/>
<path d="M341.301,351.129c-5.891,0-10.672,4.765-10.672,10.671c0,5.875,4.781,10.656,10.672,10.656s10.672-4.781,10.672-10.656
	C351.972,355.893,347.191,351.129,341.301,351.129z"/>
<path d="M319.973,233.773c-5.891,0-10.672,4.781-10.672,10.688c0,5.874,4.781,10.655,10.672,10.655
	c5.89,0,10.655-4.781,10.655-10.655C330.629,238.554,325.863,233.773,319.973,233.773z"/>
<path d="M405.314,276.459c-5.891,0-10.672,4.781-10.672,10.656c0,5.905,4.781,10.671,10.672,10.671s10.656-4.766,10.656-10.671
	C415.97,281.24,411.205,276.459,405.314,276.459z"/>
<g>
</g>
<g>
</g>
<g>
</g>
<g>
</g>
<g>
</g>
<g>
</g>
<g>
</g>
<g>
</g>
<g>
</g>
<g>
</g>
<g>
</g>
<g>
</g>
<g>
</g>
<g>
</g>
<g>
</g>
</svg>
