<?xml version="1.0" encoding="iso-8859-1"?>
<!-- Generator: Adobe Illustrator 19.0.0, SVG Export Plug-In . SVG Version: 6.00 Build 0)  -->
<svg version="1.1" id="Layer_1" xmlns="http://www.w3.org/2000/svg" xmlns:xlink="http://www.w3.org/1999/xlink" x="0px" y="0px"
	 viewBox="0 0 511.985 511.985" style="enable-background:new 0 0 511.985 511.985;" xml:space="preserve">
<polygon style="fill:#ED5564;" points="321.055,332.804 288.056,297.804 253.065,289.305 216.566,292.804 191.567,310.804 
	170.567,339.303 165.068,374.302 165.068,410.301 197.567,442.3 226.566,428.8 276.556,431.8 306.556,434.8 332.055,371.802 "/>
<polygon style="fill:#F5F7FA;" points="239.065,434.3 208.41,437.253 206.738,454.628 246.737,477.97 295.056,442.3 "/>
<g>
	<polygon style="fill:#A0D468;" points="207.738,100.982 176.739,49.639 136.412,13.641 130.741,62.311 141.74,105.639 
		160.083,143.637 215.081,200.306 	"/>
	<path style="fill:#A0D468;" d="M296.4,69.983c-0.328-1-19.328-38.671-19.328-38.671l-16.991,19.671l-6.344,19l-4,31.655
		l4.672,45.67l10.671,21l31.32-43.999C296.4,124.309,296.728,70.983,296.4,69.983z"/>
	<polygon style="fill:#A0D468;" points="336.726,136.638 298.728,187.979 286.728,227.635 309.071,221.635 349.726,197.307 
		379.397,164.98 382.397,117.309 	"/>
</g>
<path d="M389.068,109.809c-2.266-2.188-5.234-3.28-8.827-3.28c-11,0-56.952,14.546-78.45,46.686
	c-19.016,28.421-30.914,69.217-33.602,78.966c-1.078,1.031-2.172,2.156-3.281,3.375c1.625-19.187,3.516-38.279,4.734-50.279
	c8.992-14.812,38.366-65.045,39.741-91.278c1.406-26.687-14.202-63.701-22.858-72.811c-2.844-3.016-6.062-4.531-9.578-4.531h-0.281
	c-4.836,0.125-9.055,2.969-15.07,10.188c-4.14,4.969-8.515,11.422-12.343,18.172c-7.468,13.171-16.375,33.545-16.406,55.623
	c-0.047,36.577,13.703,80.638,15.265,85.513c-1.5,14.655-3.703,37.358-5.39,58.717c-4.75-9.406-9.328-17.905-13.468-25.28
	l-0.078-2.406c-0.156-3.938-3.922-97.091-20.187-134.121c-7.422-16.874-19.875-36.577-34.187-54.029
	C151.365,0.438,142.068,0.126,139.006,0.016C138.865,0,138.709,0,138.568,0c-2.812,0-8.125,0.969-12.187,7.438
	c-6.328,10.093-7.968,31.343-7.39,47.889c0.875,24.608,6.5,48.858,15.843,68.248c17.984,37.327,52.545,76.513,68.169,93.247
	c8.047,13.546,19.843,36.015,31.343,61.264c-47.264,6.094-83.81,47.202-83.81,96.997c0,63.42,60.264,98.903,85.278,110.902v15.344
	c0,5.891,4.781,10.656,10.671,10.656c5.891,0,10.657-4.766,10.657-10.656v-15.328c24.991-11.983,85.317-47.467,85.317-110.918
	c0-48.092-34.093-88.091-78.99-96.247c8-17.858,16.117-28.593,21.914-33.468c15.438-6.672,71.342-31.843,87.528-53.389
	c5.641-7.5,13.296-21.547,17.765-45.827c1.266-6.875,2.094-13.843,2.344-19.608C393.349,118.716,392.818,113.466,389.068,109.809z
	 M275.619,43.578c1.828,3.702,3.938,8.577,5.984,14.358c4.656,13.25,6.969,25.655,6.469,34.937
	c-0.281,5.5-3.188,19.405-19.445,50.67c-2.266,4.359-4.531,8.531-6.672,12.391c-3.78-15.828-7.796-36.937-7.781-55.279
	C254.205,77.279,267.377,54.655,275.619,43.578z M140.303,54.218c-0.422-12.687,0.703-22.655,2.016-28.843
	c4.266,3.828,10.516,10.25,18.156,19.875c12.187,15.312,22.75,32.217,28.983,46.389c5.938,13.547,11,39.515,14.64,75.139
	c0.781,7.593,1.422,14.89,1.922,21.468c-16.5-18.938-39.17-47.405-51.967-73.936C145.912,97.404,141.021,76.061,140.303,54.218z
	 M211.504,445.956c8.921-3.594,20.89-6.859,34.92-6.859c14.141,0,26.101,3.312,34.976,6.922
	c-13.336,10.516-26.835,17.624-34.898,21.405c-8.046-3.766-21.499-10.843-34.795-21.312
	C211.644,446.05,211.582,446.003,211.504,445.956z M321.134,375.083c0,19.875-7.672,38.374-22.812,55.217
	c-11.312-5.797-29.305-12.531-51.898-12.531c-22.452,0-40.467,6.656-51.857,12.406c-15.078-16.796-22.703-35.248-22.703-55.092
	c0-20.484,7.812-39.732,22-54.186c14.078-14.344,32.78-22.25,52.639-22.25s38.539,7.906,52.632,22.25
	C313.321,335.35,321.134,354.598,321.134,375.083z M355.851,179.151c-8.188,10.906-36.28,26.624-60.717,38.343
	c5.391-15.625,13.765-36.53,24.39-52.404c8.796-13.156,23.374-22.312,34.062-27.702c6.781-3.422,13.062-5.828,17.874-7.375
	C370.241,143.246,365.648,166.137,355.851,179.151z"/>
<g>
</g>
<g>
</g>
<g>
</g>
<g>
</g>
<g>
</g>
<g>
</g>
<g>
</g>
<g>
</g>
<g>
</g>
<g>
</g>
<g>
</g>
<g>
</g>
<g>
</g>
<g>
</g>
<g>
</g>
</svg>
