<?xml version="1.0" encoding="iso-8859-1"?>
<!-- Generator: Adobe Illustrator 19.0.0, SVG Export Plug-In . SVG Version: 6.00 Build 0)  -->
<svg version="1.1" id="Layer_1" xmlns="http://www.w3.org/2000/svg" xmlns:xlink="http://www.w3.org/1999/xlink" x="0px" y="0px"
	 viewBox="0 0 511.982 511.982" style="enable-background:new 0 0 511.982 511.982;" xml:space="preserve">
<g>
	<polygon style="fill:#F5F7FA;" points="25.999,147.324 17.327,191.322 484.656,191.322 501.983,147.324 	"/>
	<polygon style="fill:#F5F7FA;" points="22.327,231.321 13.655,275.32 480.984,275.32 498.311,231.321 	"/>
	<polygon style="fill:#F5F7FA;" points="22.327,319.974 13.655,363.972 480.984,363.972 498.311,319.974 	"/>
</g>
<polygon style="fill:#A85D5D;" points="437.985,212.665 450.656,173.994 439.313,130.668 414.658,120.34 386.658,115.996 
	279.318,124.668 247.319,124.668 146.666,119.325 87.324,115.996 69.997,138.667 63.997,173.994 80.668,211.322 71.997,226.665 
	66.669,275.32 80.668,299.318 66.669,333.99 77.324,380.66 92.668,393.988 177.994,393.316 255.991,383.988 383.986,397.316 
	431.985,385.988 445.984,344.661 437.313,309.318 445.984,267.32 "/>
<path d="M452.687,287.991h37.953l21.342-63.998h-59.295c-1.531-3.781-3.359-7.359-5.5-10.656c2.125-3.312,3.969-6.906,5.5-10.688
	h37.953l21.342-63.998h-59.295c-7.438-18.343-21.89-31.999-43.342-31.999c-65.732,0-153.354,10.687-153.354,10.687
	s-87.638-10.687-153.37-10.687c-21.453,0-35.905,13.656-43.342,31.999H21.327L0,202.65h59.279c1.531,3.781,3.374,7.375,5.499,10.688
	c-2.125,3.296-3.968,6.875-5.499,10.656H21.327L0,287.991h59.279c1.531,3.78,3.358,7.358,5.483,10.655
	c-2.125,3.312-3.952,6.891-5.483,10.688H21.327L0,373.332h59.279c7.437,18.359,21.889,31.999,43.342,31.999
	c65.732,0,153.37-10.687,153.37-10.687s87.622,10.687,153.354,10.687c21.452,0,35.904-13.64,43.342-31.999h37.953l21.342-63.998
	h-59.295c-1.531-3.797-3.359-7.375-5.484-10.688C449.328,295.349,451.156,291.771,452.687,287.991z M409.345,277.335
	c-62.436,0-144.652,9.625-152.714,10.578l-0.64-0.078l-0.656,0.078c-8.062-0.953-90.263-10.578-152.714-10.578
	c-8.484,0-15.859,2.125-22.156,5.844c-3.719-7.53-5.812-17.124-5.812-27.187c0-12.328,3.14-23.968,8.593-31.937
	c2.438-3.562,5.234-6.25,8.344-8.016c3.219-1.828,6.828-2.703,11.031-2.703c63.639,0,149.917,10.406,150.792,10.5l2.578,0.312
	l2.562-0.312c0.875-0.094,87.153-10.5,150.792-10.5c5.172,0,12.797,1.094,19.375,10.718c5.452,7.968,8.593,19.609,8.593,31.937
	c0,10.062-2.094,19.656-5.812,27.187C425.205,279.46,417.83,277.335,409.345,277.335z M482.375,245.336l-7.109,21.312h-17.235
	c0.812-7.031,0.812-14.281-0.016-21.312L482.375,245.336L482.375,245.336z M482.375,159.995l-7.109,21.343h-17.235
	c0.812-7.062,0.812-14.281-0.016-21.343H482.375z M83.246,138.714c2.438-3.546,5.234-6.25,8.344-8
	c3.219-1.828,6.828-2.719,11.031-2.719c63.639,0,149.917,10.406,150.792,10.5l2.578,0.312l2.562-0.312
	c0.875-0.094,87.153-10.5,150.792-10.5c5.172,0,12.797,1.109,19.375,10.718c5.452,7.969,8.593,19.625,8.593,31.937
	c0,10.062-2.094,19.656-5.812,27.187c-6.296-3.703-13.671-5.844-22.155-5.844c-62.436,0-144.652,9.625-152.714,10.593l-0.641-0.093
	l-0.656,0.094c-8.062-0.969-90.263-10.593-152.714-10.593c-8.484,0-15.859,2.125-22.156,5.844
	c-3.719-7.531-5.812-17.125-5.812-27.187C74.653,158.339,77.793,146.683,83.246,138.714z M29.593,181.338l7.108-21.343h17.25
	c-0.828,7.062-0.828,14.281-0.016,21.343H29.593z M29.593,266.648l7.108-21.312h17.25c-0.828,7.031-0.828,14.281-0.016,21.312
	H29.593z M29.593,351.989l7.108-21.343h17.234c-0.812,7.062-0.812,14.28,0,21.343H29.593z M428.72,373.269
	c-2.438,3.547-5.234,6.25-8.344,8c-3.219,1.828-6.828,2.719-11.031,2.719c-63.639,0-149.917-10.406-150.792-10.5l-2.562-0.312
	l-2.578,0.312c-0.875,0.094-87.153,10.5-150.792,10.5c-5.172,0-12.797-1.109-19.375-10.719c-5.453-7.969-8.593-19.625-8.593-31.937
	c0-12.343,3.14-23.983,8.593-31.968c2.438-3.531,5.234-6.219,8.344-8c3.219-1.812,6.828-2.719,11.031-2.719
	c63.639,0,149.917,10.406,150.792,10.531l2.578,0.312l2.562-0.312c0.875-0.125,87.153-10.531,150.792-10.531
	c5.172,0,12.797,1.125,19.375,10.719c5.452,7.984,8.593,19.625,8.593,31.968C437.313,353.644,434.173,365.301,428.72,373.269z
	 M482.375,330.646l-7.109,21.343h-17.235c0.812-7.062,0.812-14.281,0-21.343H482.375z"/>
<g>
</g>
<g>
</g>
<g>
</g>
<g>
</g>
<g>
</g>
<g>
</g>
<g>
</g>
<g>
</g>
<g>
</g>
<g>
</g>
<g>
</g>
<g>
</g>
<g>
</g>
<g>
</g>
<g>
</g>
</svg>
