<?xml version="1.0" encoding="iso-8859-1"?>
<!-- Generator: Adobe Illustrator 19.0.0, SVG Export Plug-In . SVG Version: 6.00 Build 0)  -->
<svg version="1.1" id="Layer_1" xmlns="http://www.w3.org/2000/svg" xmlns:xlink="http://www.w3.org/1999/xlink" x="0px" y="0px"
	 viewBox="0 0 511.984 511.984" style="enable-background:new 0 0 511.984 511.984;" xml:space="preserve">
<polygon style="fill:#DA4453;" points="491.31,56.013 450.656,20.671 419.986,68.67 361.316,54.67 330.66,61.342 279.99,96.013 
	250.662,122.668 167.329,210.009 96.003,278.007 119.331,353.332 170.665,426.642 227.327,420.658 397.986,249.336 452.656,182.01 
	453.984,136.012 445.312,89.341 "/>
<polygon style="fill:#F49292;" points="206.664,314.006 185.328,295.334 138.666,287.335 90.668,287.335 42.669,333.334 
	11.334,392.332 16.67,447.986 47.333,485.328 90.668,497.328 149.33,488.656 217.327,422.658 227.327,356.66 "/>
<path d="M511.982,60.342L451.656,0l-34.56,57.592c-16.719-9.953-35.578-14.937-54.436-14.937c-27.297,0-54.594,10.421-75.42,31.249
	L49.942,311.209l0.258,0.25c-2.656,2.312-5.257,4.75-7.796,7.281C-7.587,368.738-14.345,443.017,27.31,484.672
	c18.359,18.359,43.045,27.312,69.201,27.312c33.202,0,68.779-14.438,96.731-42.405c2.547-2.531,4.969-5.125,7.281-7.781l0.266,0.25
	l237.289-237.305c35.219-35.218,40.656-88.919,16.328-129.855L511.982,60.342z M455.89,34.405l21.688,21.687l-35.922,21.562
	c-1.156-1.265-2.344-2.515-3.578-3.749c-1.219-1.219-2.484-2.406-3.75-3.562L455.89,34.405z M96.511,490.64
	c-10.632,0-20.671-1.781-29.843-5.328c-9.242-3.578-17.414-8.859-24.272-15.718c-15.585-15.593-22.929-37.905-20.656-62.826
	c1.148-12.718,4.719-25.374,10.601-37.655c6.18-12.906,14.64-24.78,25.148-35.279c22.976-22.984,52.74-36.156,81.661-36.156l0,0
	c10.625,0,20.671,1.781,29.827,5.328c9.25,3.578,17.421,8.859,24.281,15.734c15.593,15.578,22.921,37.889,20.656,62.811
	c-1.156,12.719-4.719,25.374-10.594,37.654c-6.187,12.906-14.656,24.781-25.155,35.297
	C155.197,477.484,125.424,490.64,96.511,490.64z M423.002,209.665l-190.526,190.51c1.797-7.78,2.828-15.577,3.094-23.28
	l187.964-187.963c1.938-1.938,3.125-4.594,3.125-7.531c0-5.906-4.781-10.688-10.672-10.688c-2.938,0-5.609,1.203-7.531,3.125l0,0
	L233.069,349.223c-3.843-17.14-12.031-32.89-24.733-45.577c-18.343-18.343-43.03-27.312-69.186-27.312
	c-9.015,0-18.194,1.078-27.358,3.188L302.318,88.997c16.123-16.124,37.545-24.999,60.342-24.999
	c22.795,0,44.217,8.875,60.342,24.999c16.107,16.109,24.982,37.53,24.982,60.342C447.984,172.119,439.109,193.556,423.002,209.665z"
	/>
<path d="M170.665,341.333c5.891,0,10.672-4.78,10.672-10.687c0-5.875-4.781-10.656-10.672-10.656
	c-5.89,0-10.671,4.781-10.671,10.656C159.993,336.553,164.775,341.333,170.665,341.333z"/>
<path d="M106.667,383.988c5.89,0,10.664-4.781,10.664-10.656c0-5.906-4.773-10.688-10.664-10.688s-10.664,4.781-10.664,10.688
	C96.003,379.207,100.777,383.988,106.667,383.988z"/>
<path d="M149.338,383.988c5.89,0,10.656-4.781,10.656-10.656c0-5.906-4.766-10.688-10.656-10.688
	c-5.891,0-10.672,4.781-10.672,10.688C138.666,379.207,143.447,383.988,149.338,383.988z"/>
<path d="M191.992,362.644c-5.891,0-10.656,4.781-10.656,10.688c0,5.875,4.765,10.656,10.656,10.656s10.671-4.781,10.671-10.656
	C202.664,367.426,197.883,362.644,191.992,362.644z"/>
<path d="M64.004,383.988c5.891,0,10.664-4.781,10.664-10.656c0-5.906-4.773-10.688-10.664-10.688
	c-5.89,0-10.671,4.781-10.671,10.688C53.333,379.207,58.114,383.988,64.004,383.988z"/>
<path d="M106.667,447.986c-5.891,0-10.664,4.781-10.664,10.656c0,5.905,4.773,10.687,10.664,10.687
	c5.89,0,10.664-4.781,10.664-10.687C117.331,452.767,112.557,447.986,106.667,447.986z"/>
<path d="M149.338,447.986c-5.891,0-10.672,4.781-10.672,10.656c0,5.905,4.781,10.687,10.672,10.687
	c5.89,0,10.656-4.781,10.656-10.687C159.993,452.767,155.228,447.986,149.338,447.986z"/>
<path d="M64.004,447.986c-5.89,0-10.671,4.781-10.671,10.656c0,5.905,4.781,10.687,10.671,10.687
	c5.891,0,10.664-4.781,10.664-10.687C74.668,452.767,69.895,447.986,64.004,447.986z"/>
<path d="M128.002,341.333c5.891,0,10.664-4.78,10.664-10.687c0-5.875-4.773-10.656-10.664-10.656
	c-5.89,0-10.671,4.781-10.671,10.656C117.331,336.553,122.112,341.333,128.002,341.333z"/>
<path d="M85.332,341.333c5.898,0,10.671-4.78,10.671-10.687c0-5.875-4.773-10.656-10.671-10.656
	c-5.891,0-10.664,4.781-10.664,10.656C74.668,336.553,79.441,341.333,85.332,341.333z"/>
<path d="M170.665,405.331c-5.89,0-10.671,4.766-10.671,10.655c0,5.891,4.781,10.656,10.671,10.656
	c5.891,0,10.672-4.766,10.672-10.656C181.337,410.096,176.555,405.331,170.665,405.331z"/>
<path d="M128.002,405.331c-5.89,0-10.671,4.766-10.671,10.655c0,5.891,4.781,10.656,10.671,10.656
	c5.891,0,10.664-4.766,10.664-10.656C138.666,410.096,133.893,405.331,128.002,405.331z"/>
<path d="M85.332,405.331c-5.891,0-10.664,4.766-10.664,10.655c0,5.891,4.773,10.656,10.664,10.656
	c5.898,0,10.671-4.766,10.671-10.656C96.003,410.096,91.23,405.331,85.332,405.331z"/>
<path d="M42.669,405.331c-5.891,0-10.664,4.766-10.664,10.655c0,5.891,4.773,10.656,10.664,10.656
	c5.89,0,10.664-4.766,10.664-10.656C53.333,410.096,48.559,405.331,42.669,405.331z"/>
<g>
</g>
<g>
</g>
<g>
</g>
<g>
</g>
<g>
</g>
<g>
</g>
<g>
</g>
<g>
</g>
<g>
</g>
<g>
</g>
<g>
</g>
<g>
</g>
<g>
</g>
<g>
</g>
<g>
</g>
</svg>
