<?xml version="1.0" encoding="iso-8859-1"?>
<!-- Generator: Adobe Illustrator 19.0.0, SVG Export Plug-In . SVG Version: 6.00 Build 0)  -->
<svg version="1.1" id="Layer_1" xmlns="http://www.w3.org/2000/svg" xmlns:xlink="http://www.w3.org/1999/xlink" x="0px" y="0px"
	 viewBox="0 0 511.982 511.982" style="enable-background:new 0 0 511.982 511.982;" xml:space="preserve">
<polygon style="fill:#ED5564;" points="481.484,287.49 427.486,327.489 370.987,340.988 287.49,348.988 120.496,336.989 
	46.998,300.489 14.499,255.991 16.999,313.489 63.997,374.487 149.331,405.486 285.49,414.985 431.985,390.487 490.983,330.989 
	498.483,261.991 "/>
<polygon style="fill:#DA4453;" points="491.483,174.994 463.984,135.495 441.985,109.996 393.986,98.496 340.488,100.996 
	276.99,128.495 195.993,156.994 75.997,164.494 19.499,172.494 8.499,213.305 19.499,253.991 73.497,318.489 138.495,342.488 
	220.992,351.488 378.393,339.222 454.39,307.552 495.983,259.991 495.983,202.493 "/>
<g>
	<path style="fill:#E6E9ED;" d="M134.995,243.992c0,10.499-12.538,18.999-27.999,18.999c-15.46,0-27.999-8.5-27.999-18.999
		c0-10.5,12.539-19,27.999-19C122.457,224.992,134.995,233.492,134.995,243.992z"/>
	<polygon style="fill:#E6E9ED;" points="232.992,283.99 162.994,335.489 219.492,349.488 285.49,343.988 	"/>
</g>
<path d="M511.982,218.242c0-73.935-56.154-132.901-134.901-132.901c-36.593,0-78.075,12.733-121.09,42.623
	c-28.421,19.766-72.325,21.859-115.793,21.859c-11.672,0-23.296-0.141-34.593-0.141C48.466,149.682,0,153.525,0,200.18
	c0,0.391,0.007,0.781,0.007,1.156H0c0,0,0,61.701,0,62.842c0,90.246,63.997,162.463,248.577,162.463
	c163.112,0,263.405-36.092,263.405-144.433c0-6.155-0.062-46.279-0.094-58.482C511.951,221.914,511.982,220.086,511.982,218.242z
	 M268.17,145.495c19.117-13.297,38.508-23.343,57.646-29.858c17.484-5.953,34.734-8.969,51.265-8.969
	c16.437,0,31.999,2.953,46.233,8.781c13.515,5.531,25.514,13.483,35.639,23.671c20.438,20.53,31.688,48.623,31.688,79.122
	c0,44.062-18.641,73.841-58.687,93.716c-20.03,9.953-45.843,17.453-76.716,22.297c-15.609,2.453-32.438,4.249-50.717,5.421
	c-18.906-12.952-35.805-29.874-50.296-50.357c-12.616-17.827-23.452-38.39-32.21-61.123c-9.757-25.327-14.741-47.764-17.054-60.514
	c0.648-0.094,1.297-0.188,1.938-0.281C232.422,163.588,252.46,156.4,268.17,145.495z M213.329,361.706v42.608
	c-15.047-0.859-29.28-2.328-42.671-4.328v-42.405C183.97,359.487,198.18,360.878,213.329,361.706z M181.799,337.519
	c19.226-7.374,40.764-18.64,55.482-35.233c10.397,14.609,21.944,27.578,34.521,38.796c-7.508,0.156-15.241,0.25-23.226,0.25
	C224.601,341.332,202.282,340.051,181.799,337.519z M341.332,357.706v42.499c-13.328,1.688-27.499,2.969-42.686,3.812v-42.64
	C313.552,360.565,327.801,359.362,341.332,357.706z M362.644,354.659c15.28-2.546,29.529-5.733,42.686-9.64v41.624
	c-12.781,4.141-27.03,7.594-42.686,10.344V354.659z M25.241,185.774c2.57-3.265,7.022-6.03,13.233-8.218
	c16.297-5.75,41.89-6.562,67.131-6.562c5.531,0,11.039,0.047,16.875,0.094c5.788,0.031,11.765,0.062,17.718,0.062
	c13.522,0,28.522-0.188,43.468-1.25c2.327,13.344,7.546,37.562,18.226,65.404c6.609,17.249,14.374,33.374,23.163,48.186
	c-11.921,16.562-33.89,27.593-50.857,34.093c-20.773,7.969-39.03,11.062-39.21,11.094l0.008,0.062
	c-27.093-7.172-49.67-17.438-67.115-30.531c-15.921-11.937-27.897-26.561-35.593-43.404c-7.265-15.937-10.952-34.312-10.952-54.623
	C21.335,193.837,22.608,189.134,25.241,185.774z M32.287,318.77c-5.257-11.516-8.632-24.328-10.101-38.218
	c13.726,21.03,34.319,39.093,63.146,52.874v39.982c-6.281-3.469-12.117-7.203-17.453-11.203
	C51.959,350.238,39.982,335.645,32.287,318.77z M106.66,383.456v-41.171c12.875,4.609,27.069,8.516,42.671,11.64v42.219
	c-4.156-0.906-8.219-1.844-12.172-2.859C126.261,390.487,116.09,387.206,106.66,383.456z M234.656,405.158v-42.64
	c4.562,0.094,9.203,0.156,13.921,0.156c9.812,0,19.397-0.156,28.757-0.406v42.64c-9.234,0.266-18.804,0.406-28.757,0.406
	C243.875,405.314,239.242,405.252,234.656,405.158z M431.954,375.956c-1.719,0.844-3.499,1.672-5.312,2.5v-40.812
	c27.717-11.062,49.217-26.187,63.717-46.186C487.859,330.489,469.14,357.487,431.954,375.956z"/>
<path d="M106.66,277.303c23.569,0,42.671-14.312,42.671-31.998c0-17.656-19.102-31.999-42.671-31.999
	c-23.562,0-42.663,14.343-42.663,31.999C63.997,262.991,83.098,277.303,106.66,277.303z M106.66,234.648
	c13.234,0,21.335,6.906,21.335,10.656c0,3.78-8.101,10.687-21.335,10.687s-21.327-6.906-21.327-10.687
	C85.333,241.554,93.426,234.648,106.66,234.648z"/>
<g>
</g>
<g>
</g>
<g>
</g>
<g>
</g>
<g>
</g>
<g>
</g>
<g>
</g>
<g>
</g>
<g>
</g>
<g>
</g>
<g>
</g>
<g>
</g>
<g>
</g>
<g>
</g>
<g>
</g>
</svg>
