<?xml version="1.0" encoding="iso-8859-1"?>
<!-- Generator: Adobe Illustrator 19.0.0, SVG Export Plug-In . SVG Version: 6.00 Build 0)  -->
<svg version="1.1" id="Layer_1" xmlns="http://www.w3.org/2000/svg" xmlns:xlink="http://www.w3.org/1999/xlink" x="0px" y="0px"
	 viewBox="0 0 511.984 511.984" style="enable-background:new 0 0 511.984 511.984;" xml:space="preserve">
<polygon style="fill:#E2A67D;" points="478.33,56.17 447.642,51.498 208.331,56.17 52.336,56.17 26.337,62.857 12.337,84.809 
	20.337,126.183 52.336,138.182 55.664,501.484 456.986,493.484 456.986,137.496 494.985,121.496 499.641,80.169 "/>
<polygon style="fill:#F4B68C;" points="478.33,13.109 447.642,8.437 208.331,13.109 52.336,13.109 26.337,19.796 12.337,41.749 
	20.337,83.122 52.336,95.122 55.664,458.424 456.986,450.424 456.986,94.434 494.985,78.434 499.641,37.108 "/>
<path d="M458.642,0C456.454,0,55.538,0,53.335,0C23.875,0,0.001,23.874,0.001,53.326v42.671c0,25.78,18.319,47.311,42.662,52.248
	v299.741v42.654c0,11.781,9.555,21.344,21.335,21.344h383.987c11.781,0,21.344-9.562,21.344-21.344v-42.654V148.245
	c24.343-4.938,42.654-26.468,42.654-52.248V53.326C511.984,23.874,488.111,0,458.642,0z M53.336,21.327h405.307
	c17.656,0,32,14.359,32,31.999c0,15.156-10.75,28.343-25.562,31.358l-17.094,3.469v17.438v342.396H63.999V105.591V88.153
	l-17.085-3.469c-14.82-3.016-25.577-16.202-25.577-31.358C21.337,35.686,35.687,21.327,53.336,21.327z M21.337,95.997
	c0,0,0-0.016,0-0.031c6.203,4.672,13.444,8.031,21.327,9.625v20.577C30.079,121.715,21.337,109.652,21.337,95.997z M447.986,490.64
	H63.999v-21.327h383.987L447.986,490.64L447.986,490.64z M469.33,126.168v-20.577c7.875-1.594,15.125-4.953,21.312-9.609v0.016
	C490.642,109.652,481.908,121.715,469.33,126.168z"/>
<path d="M127.997,106.653c5.891,0,10.664-4.781,10.664-10.656c0-5.906-4.773-10.672-10.664-10.672
	c-5.89,0-10.663,4.766-10.663,10.672C117.334,101.872,122.107,106.653,127.997,106.653z"/>
<path d="M127.997,191.994c5.891,0,10.664-4.781,10.664-10.672s-4.773-10.672-10.664-10.672c-5.89,0-10.663,4.781-10.663,10.672
	S122.107,191.994,127.997,191.994z"/>
<path d="M127.997,277.319c5.891,0,10.664-4.78,10.664-10.671s-4.773-10.656-10.664-10.656c-5.89,0-10.663,4.766-10.663,10.656
	S122.107,277.319,127.997,277.319z"/>
<path d="M127.997,362.644c5.891,0,10.664-4.781,10.664-10.655c0-5.906-4.773-10.672-10.664-10.672
	c-5.89,0-10.663,4.766-10.663,10.672C117.334,357.863,122.107,362.644,127.997,362.644z"/>
<path d="M191.995,149.323c5.891,0,10.664-4.781,10.664-10.672c0-5.89-4.773-10.655-10.664-10.655s-10.663,4.766-10.663,10.655
	C181.332,144.542,186.104,149.323,191.995,149.323z"/>
<path d="M191.995,234.648c5.891,0,10.664-4.78,10.664-10.655c0-5.906-4.773-10.672-10.664-10.672s-10.663,4.766-10.663,10.672
	C181.332,229.868,186.104,234.648,191.995,234.648z"/>
<path d="M191.995,319.99c5.891,0,10.664-4.781,10.664-10.672s-4.773-10.672-10.664-10.672s-10.663,4.781-10.663,10.672
	S186.104,319.99,191.995,319.99z"/>
<path d="M191.995,405.315c5.891,0,10.664-4.781,10.664-10.671c0-5.891-4.773-10.656-10.664-10.656s-10.663,4.766-10.663,10.656
	C181.332,400.534,186.104,405.315,191.995,405.315z"/>
<path d="M255.993,106.653c5.89,0,10.663-4.781,10.663-10.656c0-5.906-4.773-10.672-10.663-10.672
	c-5.891,0-10.663,4.766-10.663,10.672C245.33,101.872,250.102,106.653,255.993,106.653z"/>
<path d="M255.993,191.994c5.89,0,10.663-4.781,10.663-10.672s-4.773-10.672-10.663-10.672c-5.891,0-10.663,4.781-10.663,10.672
	S250.102,191.994,255.993,191.994z"/>
<path d="M255.993,277.319c5.89,0,10.663-4.78,10.663-10.671s-4.773-10.656-10.663-10.656c-5.891,0-10.663,4.766-10.663,10.656
	S250.102,277.319,255.993,277.319z"/>
<path d="M255.993,362.644c5.89,0,10.663-4.781,10.663-10.655c0-5.906-4.773-10.672-10.663-10.672
	c-5.891,0-10.663,4.766-10.663,10.672C245.33,357.863,250.102,362.644,255.993,362.644z"/>
<path d="M319.991,149.323c5.89,0,10.655-4.781,10.655-10.672c0-5.89-4.766-10.655-10.655-10.655
	c-5.891,0-10.656,4.766-10.656,10.655C309.335,144.542,314.1,149.323,319.991,149.323z"/>
<path d="M319.991,234.648c5.89,0,10.655-4.78,10.655-10.655c0-5.906-4.766-10.672-10.655-10.672
	c-5.891,0-10.656,4.766-10.656,10.672C309.335,229.868,314.1,234.648,319.991,234.648z"/>
<path d="M319.991,319.99c5.89,0,10.655-4.781,10.655-10.672s-4.766-10.672-10.655-10.672c-5.891,0-10.656,4.781-10.656,10.672
	S314.1,319.99,319.991,319.99z"/>
<path d="M319.991,405.315c5.89,0,10.655-4.781,10.655-10.671c0-5.891-4.766-10.656-10.655-10.656
	c-5.891,0-10.656,4.766-10.656,10.656C309.335,400.534,314.1,405.315,319.991,405.315z"/>
<path d="M383.988,106.653c5.891,0,10.656-4.781,10.656-10.656c0-5.906-4.766-10.672-10.656-10.672s-10.655,4.766-10.655,10.672
	C373.333,101.872,378.098,106.653,383.988,106.653z"/>
<path d="M383.988,191.994c5.891,0,10.656-4.781,10.656-10.672s-4.766-10.672-10.656-10.672s-10.655,4.781-10.655,10.672
	S378.098,191.994,383.988,191.994z"/>
<path d="M383.988,277.319c5.891,0,10.656-4.78,10.656-10.671s-4.765-10.656-10.656-10.656c-5.89,0-10.655,4.766-10.655,10.656
	S378.098,277.319,383.988,277.319z"/>
<path d="M383.988,362.644c5.891,0,10.656-4.781,10.656-10.655c0-5.906-4.766-10.672-10.656-10.672s-10.655,4.766-10.655,10.672
	C373.333,357.863,378.098,362.644,383.988,362.644z"/>
<g>
</g>
<g>
</g>
<g>
</g>
<g>
</g>
<g>
</g>
<g>
</g>
<g>
</g>
<g>
</g>
<g>
</g>
<g>
</g>
<g>
</g>
<g>
</g>
<g>
</g>
<g>
</g>
<g>
</g>
</svg>
