<?xml version="1.0" encoding="iso-8859-1"?>
<!-- Generator: Adobe Illustrator 19.0.0, SVG Export Plug-In . SVG Version: 6.00 Build 0)  -->
<svg version="1.1" id="Layer_1" xmlns="http://www.w3.org/2000/svg" xmlns:xlink="http://www.w3.org/1999/xlink" x="0px" y="0px"
	 viewBox="0 0 511.982 511.982" style="enable-background:new 0 0 511.982 511.982;" xml:space="preserve">
<path style="fill:#DA4453;" d="M301.99,266.664c0,79.811-64.686,144.496-144.496,144.496S12.999,346.474,12.999,266.664
	s64.686-144.495,144.495-144.495C237.304,122.169,301.99,186.854,301.99,266.664z"/>
<path style="fill:#ED5564;" d="M231.664,342.974v28.654l32.67,51.342l39,29l53.326,14l53.67-7L447,437.298l35-42.326l18.999-51.998
	C500.999,342.974,237.336,342.974,231.664,342.974z"/>
<path style="fill:#ED889B;" d="M301.99,344.631c0,0,22.998,35.67,23.998,38.342s50.327,9,50.327,9l33.343-16l22.327-36.342
	L301.99,344.631z"/>
<path d="M160.494,362.691v-0.016c-39.42-2.172-69.372-17.279-89.028-44.904c-14.937-20.968-18.203-41.779-18.234-41.998h-0.016
	c-0.766-5.156-5.188-9.109-10.547-9.109c-5.891,0-10.672,4.781-10.672,10.672c0,0.516,0.062,1.031,0.125,1.516v0.016
	c0.141,1.016,3.812,25.342,21.344,50.42c16.218,23.172,47.748,51.482,105.855,54.701v-0.031c0.188,0.016,0.391,0.031,0.594,0.031
	c5.891,0,10.656-4.766,10.656-10.656C170.572,367.644,166.119,362.988,160.494,362.691z"/>
<path d="M438.845,330.662H304.099c10.14-19.391,15.89-41.092,15.89-63.998c0-79.138-65.936-143.871-149.339-148.979
	c1.688-54.967,33.28-64.295,34.702-64.686l-0.125,0.031h-0.016c4.656-1.156,8.125-5.344,8.125-10.359
	c0-5.891-4.781-10.672-10.672-10.672c-0.875,0-1.734,0.125-2.547,0.328v-0.015c-1.484,0.375-14.797,3.969-27.577,18.015
	c-17.531,19.265-22.577,45.639-23.218,67.357C65.934,122.809,0,187.541,0,266.664c0,82.482,74.606,149.322,159.994,149.322
	c24.952,0,48.968-5.701,70.467-15.842c25.015,47.482,74.826,79.84,132.199,79.84c82.48,0,149.322-66.84,149.322-149.322
	L438.845,330.662L438.845,330.662z M320.005,351.99c0,2.732,1.031,5.467,3.108,7.545c4.172,4.172,10.922,4.172,15.094,0
	c2.078-2.078,3.125-4.812,3.125-7.545h10.672c0,2.732,1.031,5.467,3.109,7.545c4.172,4.172,10.922,4.172,15.093,0
	c2.078-2.078,3.125-4.812,3.125-7.545h10.671c0,2.732,1.031,5.467,3.109,7.545c4.172,4.172,10.922,4.172,15.094,0
	c2.078-2.078,3.125-4.812,3.125-7.545h7.734c-4.469,10.217-12.062,18.764-21.547,24.451c-4.172-4.156-10.905-4.141-15.062,0.016
	c-1.875,1.875-2.906,4.281-3.094,6.75c-2.984,0.5-6.046,0.781-9.171,0.781c-0.516,0-1.016,0-1.531-0.031
	c0-2.719-1.047-5.438-3.125-7.5c-4.156-4.172-10.922-4.172-15.078,0c-0.875,0.859-1.547,1.844-2.047,2.875
	c-12.078-5.422-21.78-15.203-27.108-27.342L320.005,351.99L320.005,351.99z M213.149,384.426
	c-17.062,6.797-34.952,10.234-53.155,10.234c-18.187,0-36.077-3.438-53.139-10.234c-16.546-6.562-31.499-15.938-44.421-27.859
	c-12.905-11.889-23.03-25.607-30.108-40.795c-7.28-15.641-10.983-32.154-10.983-49.107c0-33.905,14.233-65.857,40.076-89.997
	c12.734-11.89,27.578-21.218,44.14-27.749c9.234-3.641,18.78-6.328,28.562-8.016c-11.266,11.281-26.655,24.437-42.03,30.515l0,0
	c-3.952,1.562-6.749,5.422-6.749,9.922c0,5.89,4.781,10.656,10.655,10.656c1.391,0,2.703-0.266,3.922-0.75l0,0
	c0.062,0,0.125-0.031,0.172-0.062c0.031,0,0.062-0.031,0.094-0.031c16.625-6.641,32.608-19.421,44.937-31.187
	c-0.031,11.093,1.781,19.906,5.453,26.343c0.047,0.094,0.094,0.172,0.141,0.25c0.047,0.094,0.078,0.156,0.125,0.234v-0.016
	c1.875,3.125,5.265,5.219,9.155,5.219c5.906,0,10.672-4.766,10.672-10.656c0-2-0.547-3.859-1.5-5.453v-0.016
	c-1.234-2.062-3.891-8.687-2.172-25.624c11.516,10.875,27.843,24.562,42.171,30.249c0.016,0,0.047,0,0.062,0.031
	c0.078,0.031,0.156,0.062,0.234,0.094l0.016-0.016c1.188,0.469,2.5,0.734,3.859,0.734c5.89,0,10.655-4.781,10.655-10.672
	c0-4.515-2.812-8.39-6.797-9.921v-0.016c-8.452-3.297-18.858-11.14-28.14-19.25c8.688,1.703,17.156,4.188,25.391,7.438
	c16.562,6.531,31.404,15.859,44.139,27.749c25.843,24.14,40.077,56.092,40.077,89.997c0,16.953-3.703,33.467-10.984,49.107
	c-2.406,5.141-5.156,10.109-8.25,14.891h-66.091c0,17.516,3.03,34.326,8.562,49.951
	C219.039,381.988,216.117,383.254,213.149,384.426z M453.172,421.174c-24.17,24.172-56.326,37.484-90.512,37.484
	c-34.188,0-66.326-13.312-90.498-37.484c-19.077-19.061-31.389-43.092-35.732-69.184h56.186
	c9.188,30.842,37.748,53.342,71.576,53.342c33.811,0,62.389-22.5,71.56-53.342h53.155
	C484.547,378.082,472.234,402.113,453.172,421.174z"/>
<g>
</g>
<g>
</g>
<g>
</g>
<g>
</g>
<g>
</g>
<g>
</g>
<g>
</g>
<g>
</g>
<g>
</g>
<g>
</g>
<g>
</g>
<g>
</g>
<g>
</g>
<g>
</g>
<g>
</g>
</svg>
