<svg id="icons" enable-background="new 0 0 64 64" height="512" viewBox="0 0 64 64" width="512" xmlns="http://www.w3.org/2000/svg"><path d="m63 44.5v4c0 2.2-1.8 4-4 4h-54c-2.2 0-4-1.8-4-4v-4c0 2.2 1.8 4 4 4h54c2.2 0 4-1.8 4-4z" fill="#545c66"/><path d="m59 14.5h-41-8-5c-2.2 0-4 1.8-4 4v4 22c0 2.2 1.8 4 4 4h54c2.2 0 4-1.8 4-4v-22-4c0-2.2-1.8-4-4-4z" fill="#656d78"/><path d="m41 18.5c7.17 0 13 5.82 13 13s-5.83 13-13 13c-7.18 0-13-5.82-13-13s5.82-13 13-13zm9 13c0-4.97-4.04-9-9-9-4.97 0-9 4.03-9 9s4.03 9 9 9c4.96 0 9-4.03 9-9z" fill="#aab2bd"/><path d="m37 28.5h8v6h-8z" fill="#656d78"/><path d="m41 22.5c4.96 0 9 4.03 9 9s-4.04 9-9 9c-4.97 0-9-4.03-9-9s4.03-9 9-9zm4 12v-6h-8v6z" fill="#ccd1d9"/><path d="m10 11.5h8v3h-8z" fill="#aab2bd"/><circle cx="41.001" cy="31.5" fill="#5d9cec" r="2"/><path d="m59 49.5h-54c-2.757 0-5-2.243-5-5v-26.001c0-2.757 2.243-5 5-5h54c2.757 0 5 2.243 5 5v26.001c0 2.757-2.243 5-5 5zm-54-34.001c-1.654 0-3 1.346-3 3v26.001c0 1.654 1.346 3 3 3h54c1.654 0 3-1.346 3-3v-26.001c0-1.654-1.346-3-3-3z"/><path d="m59 53.5h-54c-2.757 0-5-2.243-5-5v-26.002c0-.552.447-1 1-1s1 .448 1 1v26.002c0 1.654 1.346 3 3 3h54c1.654 0 3-1.346 3-3v-26.002c0-.552.447-1 1-1s1 .448 1 1v26.002c0 2.757-2.243 5-5 5z"/><path d="m40.993 45.5c-7.72 0-14-6.28-14-14s6.28-14 14-14 14 6.28 14 14-6.28 14-14 14zm0-26c-6.617 0-12 5.383-12 12s5.383 12 12 12 12-5.384 12-12-5.383-12-12-12z"/><path d="m40.993 41.5c-5.514 0-10-4.486-10-10s4.486-10 10-10 10 4.486 10 10-4.486 10-10 10zm0-18c-4.411 0-8 3.589-8 8 0 4.412 3.589 8 8 8s8-3.589 8-8c0-4.412-3.589-8-8-8z"/><path d="m45 35.5h-8c-.553 0-1-.447-1-1v-6c0-.552.447-1 1-1h8c.553 0 1 .448 1 1v6c0 .553-.447 1-1 1zm-7-2h6v-4h-6z"/><path d="m58 19.5h-6c-.553 0-1-.448-1-1s.447-1 1-1h6c.553 0 1 .448 1 1s-.447 1-1 1z"/><path d="m10.001 15.499c-.553 0-1-.448-1-1v-2.999c0-.552.447-1 1-1s1 .448 1 1v2.998c0 .553-.447 1.001-1 1.001z"/><path d="m18.003 12.5h-8.002c-.553 0-1-.448-1-1s.447-1 1-1h8.002c.553 0 1 .448 1 1s-.447 1-1 1z"/><path d="m18.003 15.499c-.553 0-1-.448-1-1v-2.999c0-.552.447-1 1-1s1 .448 1 1v2.998c0 .553-.447 1.001-1 1.001z"/><path d="m11.002 41.5c-.553 0-1-.447-1-1v-18c0-.552.447-1 1-1s1 .448 1 1v18c0 .553-.447 1-1 1z"/><path d="m14.002 41.5c-.553 0-1-.447-1-1v-18c0-.552.447-1 1-1s1 .448 1 1v18c0 .553-.447 1-1 1z"/><path d="m17.002 37.5c-.553 0-1-.447-1-1v-10c0-.552.447-1 1-1s1 .448 1 1v10c0 .553-.447 1-1 1z"/><path d="m29.035 19.501c-.553 0-1.005-.448-1.005-1s.442-1 .994-1h.011c.552 0 1 .448 1 1s-.448 1-1 1z"/><path d="m25.035 19.501c-.553 0-1.005-.448-1.005-1s.442-1 .994-1h.011c.552 0 1 .448 1 1s-.448 1-1 1z"/></svg>