<svg id="icons" enable-background="new 0 0 64 64" height="512" viewBox="0 0 64 64" width="512" xmlns="http://www.w3.org/2000/svg"><path d="m11 25-.96 4h-3.04v-2.01-1.99z" fill="#656d78"/><path d="m32.99 22h5.01v3h-5.01z" fill="#656d78"/><path d="m55.68 32.32c4.52 4.52 7.32 10.77 7.32 17.68h-8.01c0-13.82-11.181-25-25-25h3 5.01c6.91 0 13.16 2.8 17.68 7.32z" fill="#4a89dc"/><path d="m54.99 50h-49.99l5.04-21 .96-4h18.99c13.82 0 25 11.18 25 25zm-15-6.99v-.01c0-7.74-6.26-14-14-14h-10.94l-3.36 14.01z" fill="#5d9cec"/><path d="m63 50v4h-1-52-1c0-2.21-1.79-4-4-4h49.99z" fill="#e6e9ed"/><path d="m10 54h52v3h-52z" fill="#ccd1d9"/><path d="m63 51c-.553 0-1-.447-1-1 0-13.233-10.767-24-24-24-.553 0-1-.447-1-1s.447-1 1-1c14.337 0 26 11.663 26 26 0 .553-.447 1-1 1z"/><path d="m54.992 51c-.553 0-1-.447-1-1 0-13.233-10.767-24-24-24-.553 0-1-.447-1-1s.447-1 1-1c14.337 0 26 11.663 26 26 0 .553-.447 1-1 1z"/><path d="m39.988 44c-.553 0-1-.447-1-1 0-7.166-5.83-12.996-12.996-12.996-.553 0-1-.447-1-1s.447-1 1-1c8.269 0 14.996 6.728 14.996 14.996 0 .553-.447 1-1 1z"/><path d="m38 26h-26.996c-.553 0-1-.447-1-1s.447-1 1-1h26.996c.553 0 1 .447 1 1s-.447 1-1 1z"/><path d="m5.005 51c-.077 0-.156-.009-.234-.027-.537-.129-.868-.669-.739-1.206l6-25c.129-.538.668-.868 1.206-.739.537.129.868.669.739 1.206l-6 25c-.111.458-.521.766-.972.766z"/><path d="m11.689 44.006c-.077 0-.156-.009-.234-.027-.537-.129-.868-.669-.739-1.206l3.359-14.002c.129-.538.67-.869 1.206-.739.537.129.868.669.739 1.206l-3.359 14.002c-.11.458-.52.766-.972.766z"/><path d="m63 51h-57.996c-.553 0-1-.447-1-1s.447-1 1-1h57.996c.553 0 1 .447 1 1s-.447 1-1 1z"/><path d="m9.004 55c-.553 0-1-.447-1-1 0-1.654-1.346-3-3-3-.553 0-1-.447-1-1s.447-1 1-1c2.757 0 5 2.243 5 5 0 .553-.447 1-1 1z"/><path d="m63 55c-.553 0-1-.447-1-1v-4c0-.553.447-1 1-1s1 .447 1 1v4c0 .553-.447 1-1 1z"/><path d="m63 55h-53.996c-.553 0-1-.447-1-1s.447-1 1-1h53.996c.553 0 1 .447 1 1s-.447 1-1 1z"/><path d="m25.992 30.004h-10.943c-.553 0-1-.447-1-1s.447-1 1-1h10.943c.553 0 1 .447 1 1s-.447 1-1 1z"/><path d="m39.988 44.006h-28.3c-.553 0-1-.447-1-1s.447-1 1-1h28.3c.553 0 1 .447 1 1s-.447 1-1 1z"/><path d="m63 58h-53.996c-.553 0-1-.447-1-1s.447-1 1-1h53.996c.553 0 1 .447 1 1s-.447 1-1 1z"/><path d="m10.004 58c-.553 0-1-.447-1-1v-3c0-.553.447-1 1-1s1 .447 1 1v3c0 .553-.447 1-1 1z"/><path d="m62 58c-.553 0-1-.447-1-1v-3c0-.553.447-1 1-1s1 .447 1 1v3c0 .553-.447 1-1 1z"/><path d="m55.68 33.32c-.256 0-.512-.098-.707-.293-.391-.391-.391-1.023 0-1.414l1.32-1.32c.391-.391 1.023-.391 1.414 0s.391 1.023 0 1.414l-1.32 1.32c-.196.196-.451.293-.707.293z"/><path d="m38 26c-.553 0-1-.447-1-1v-3c0-.553.447-1 1-1s1 .447 1 1v3c0 .553-.447 1-1 1z"/><path d="m38 23h-5.011c-.553 0-1-.447-1-1s.447-1 1-1h5.011c.553 0 1 .447 1 1s-.447 1-1 1z"/><path d="m32.989 26c-.553 0-1-.447-1-1v-3c0-.553.447-1 1-1s1 .447 1 1v3c0 .553-.447 1-1 1z"/><path d="m11.004 26h-4.004c-.553 0-1-.447-1-1s.447-1 1-1h4.004c.553 0 1 .447 1 1s-.447 1-1 1z"/><path d="m10.043 30.004h-3.043c-.553 0-1-.447-1-1s.447-1 1-1h3.043c.553 0 1 .447 1 1s-.447 1-1 1z"/><path d="m7 30.004c-.553 0-1-.447-1-1v-4.004c0-.553.447-1 1-1s1 .447 1 1v4.004c0 .553-.447 1-1 1z"/><path d="m6.001 28c-3.309 0-6-2.691-6-6s2.691-6 6-6c.553 0 1 .447 1 1s-.447 1-1 1c-2.206 0-4 1.794-4 4s1.794 4 4 4c.553 0 1 .447 1 1s-.447 1-1 1z"/><path d="m17 18c-.553 0-1-.447-1-1s.447-1 1-1c2.206 0 4-1.794 4-4s-1.794-4-4-4c-.553 0-1-.447-1-1s.447-1 1-1c3.309 0 6 2.691 6 6s-2.691 6-6 6z"/><path d="m17 18.002h-11c-.553 0-1-.447-1-1s.447-1 1-1h11c.553 0 1 .447 1 1s-.447 1-1 1z"/><path d="m17 8.002h-16c-.553 0-1-.447-1-1s.447-1 1-1h16c.553 0 1 .447 1 1s-.447 1-1 1z"/><path d="m7.001 27.992h-1c-.553 0-1-.447-1-1s.447-1 1-1h1c.553 0 1 .447 1 1s-.447 1-1 1z"/></svg>