<svg id="icons" enable-background="new 0 0 64 64" height="512" viewBox="0 0 64 64" width="512" xmlns="http://www.w3.org/2000/svg"><path d="m45.5 50c.54 0 1-.46 1-1v-34c0-.54-.46-1-1-1h-30c-.54 0-1 .46-1 1v34c0 .54.46 1 1 1zm0-39c2.2 0 4 1.8 4 4v5 7 22c0 2.2-1.8 4-4 4h-30c-2.199 0-4-1.8-4-4v-34c0-2.2 1.801-4 4-4z" fill="#e6e9ed"/><path d="m45.5 14h-30c-.54 0-1 .46-1 1v34c0 .54.46 1 1 1h30c.54 0 1-.46 1-1v-34c0-.54-.46-1-1-1z" fill="#656d78"/><path d="m49.5 20h3v7h-3z" fill="#ccd1d9"/><path d="m30.5 16.99c1.101 0 2 .899 2 2.01 0 1.1-.899 2-2 2-1.109 0-2.01-.9-2.01-2 0-1.11.901-2.01 2.01-2.01z" fill="#48cfad"/><path d="m19 30.5c.82 0 1.5.67 1.5 1.5s-.68 1.5-1.5 1.5c-.83 0-1.5-.67-1.5-1.5s.67-1.5 1.5-1.5z" fill="#4fc1e9"/><path d="m21.5 16.99c2.21 0 4 1.8 4 4 0 2.21-1.79 4-4 4s-4-1.79-4-4c0-2.2 1.79-4 4-4z" fill="#ac92ec"/><path d="m21.5 39c2.21 0 4 1.8 4 4 0 2.21-1.79 4-4 4s-4-1.79-4-4c0-2.2 1.79-4 4-4z" fill="#5d9cec"/><path d="m42 30.5c.82 0 1.5.67 1.5 1.5s-.68 1.5-1.5 1.5c-.83 0-1.5-.67-1.5-1.5s.67-1.5 1.5-1.5z" fill="#4fc1e9"/><path d="m39.511 39c2.199 0 3.989 1.8 3.989 4 0 2.21-1.79 4-3.989 4-2.21 0-4-1.79-4-4 0-2.2 1.79-4 4-4z" fill="#ac92ec"/><path d="m15.5 53h30c-1.659 0-3 1.34-3 3v4c0 1.66-1.34 3-3 3h-18c-1.659 0-3-1.34-3-3v-4c0-1.66-1.35-3-3-3z" fill="#656d78"/><path d="m39.511 16.99c2.199 0 4 1.8 4 4 0 2.21-1.801 4-4 4-2.21 0-4-1.79-4-4 0-2.2 1.79-4 4-4z" fill="#5d9cec"/><path d="m30.5 25c3.86 0 7 3.13 7 7s-3.14 7-7 7c-3.87 0-7-3.13-7-7s3.13-7 7-7z" fill="#e6e9ed"/><path d="m30.5 43c1.101 0 2 .9 2 2 0 1.11-.899 2.01-2 2.01-1.109 0-2.01-.899-2.01-2.01 0-1.1.901-2 2.01-2z" fill="#48cfad"/><path d="m42.49 8h.01c0 1.66 1.341 3 3 3h-30c1.65 0 3-1.34 3-3v-4c0-1.66 1.341-3 2.99-3h18.01c1.65 0 2.99 1.34 2.99 3z" fill="#656d78"/><path d="m45.499 11.998c-2.204 0-3.997-1.793-3.997-3.996 0-.553.447-1 1-1s1 .447 1 1c0 1.101.896 1.996 1.997 1.996.553 0 1 .447 1 1s-.447 1-1 1z"/><path d="m18.499 4.997c-.553 0-1-.447-1-1 0-2.204 1.793-3.997 3.996-3.997.553 0 1 .447 1 1s-.447 1-1 1c-1.101 0-1.996.896-1.996 1.997 0 .553-.447 1-1 1z"/><path d="m42.496 4.997c-.553 0-1-.447-1-1 0-1.101-.895-1.997-1.996-1.997-.553 0-1-.447-1-1s.447-1 1-1c2.203 0 3.996 1.793 3.996 3.997 0 .553-.447 1-1 1z"/><path d="m42.497 9.002c-.553 0-1-.447-1-1v-3.999c0-.553.447-1 1-1s1 .447 1 1v3.999c0 .553-.447 1-1 1z"/><path d="m15.499 11.998c-.553 0-1-.447-1-1s.447-1 1-1c1.103 0 2-.897 2-2 0-.553.447-1 1-1s1 .447 1 1c0 2.206-1.794 4-4 4z"/><path d="m18.502 8.998c-.553 0-1-.447-1-1v-3.995c0-.553.447-1 1-1s1 .447 1 1v3.995c0 .553-.447 1-1 1z"/><path d="m45.5 54.002h-30c-2.757 0-5-2.243-5-5v-34.004c0-2.757 2.243-5 5-5h30c2.757 0 5 2.243 5 5v34.004c0 2.757-2.243 5-5 5zm-30-42.004c-1.654 0-3 1.346-3 3v34.004c0 1.654 1.346 3 3 3h30c1.654 0 3-1.346 3-3v-34.004c0-1.654-1.346-3-3-3z"/><path d="m45.5 51.002h-30c-1.103 0-2-.897-2-2v-34.004c0-1.103.897-2 2-2h30c1.103 0 2 .897 2 2v34.004c0 1.102-.897 2-2 2zm-30-36.004v34.004h29.988l.012-34.004z"/><path d="m39.5 2h-18.005c-.553 0-1-.447-1-1s.447-1 1-1h18.005c.553 0 1 .447 1 1s-.447 1-1 1z"/><path d="m18.498 56.998c-.553 0-1-.447-1-1 0-1.101-.896-1.996-1.997-1.996-.553 0-1-.447-1-1s.447-1 1-1c2.204 0 3.997 1.793 3.997 3.996 0 .553-.447 1-1 1z"/><path d="m39.505 64c-.553 0-1-.447-1-1s.447-1 1-1c1.101 0 1.996-.896 1.996-1.997 0-.553.447-1 1-1s1 .447 1 1c0 2.204-1.793 3.997-3.996 3.997z"/><path d="m21.5 64c-2.203 0-3.996-1.793-3.996-3.997 0-.553.447-1 1-1s1 .447 1 1c0 1.102.896 1.997 1.996 1.997.553 0 1 .447 1 1s-.447 1-1 1z"/><path d="m18.503 60.997c-.553 0-1-.447-1-1v-3.999c0-.553.447-1 1-1s1 .447 1 1v3.999c0 .553-.447 1-1 1z"/><path d="m42.501 57.002c-.553 0-1-.447-1-1 0-2.206 1.794-4 4-4 .553 0 1 .447 1 1s-.447 1-1 1c-1.103 0-2 .897-2 2 0 .553-.447 1-1 1z"/><path d="m42.498 60.997c-.553 0-1-.447-1-1v-3.995c0-.553.447-1 1-1s1 .447 1 1v3.995c0 .553-.447 1-1 1z"/><path d="m39.505 64h-18.005c-.553 0-1-.447-1-1s.447-1 1-1h18.005c.553 0 1 .447 1 1s-.447 1-1 1z"/><path d="m52.5 21.004h-3c-.553 0-1-.447-1-1s.447-1 1-1h3c.553 0 1 .447 1 1s-.447 1-1 1z"/><path d="m52.5 28.005c-.553 0-1-.447-1-1v-7.001c0-.553.447-1 1-1s1 .447 1 1v7.001c0 .553-.447 1-1 1z"/><path d="m52.5 28.005h-3c-.553 0-1-.447-1-1s.447-1 1-1h3c.553 0 1 .447 1 1s-.447 1-1 1z"/><path d="m30.5 40c-4.411 0-8-3.589-8-8s3.589-8 8-8 8 3.589 8 8-3.589 8-8 8zm0-14c-3.309 0-6 2.691-6 6s2.691 6 6 6 6-2.691 6-6-2.691-6-6-6z"/><path d="m30.5 22c-1.656 0-3.004-1.348-3.004-3.004s1.348-3.003 3.004-3.003 3.004 1.347 3.004 3.003-1.348 3.004-3.004 3.004zm0-4.007c-.554 0-1.004.45-1.004 1.003 0 .554.45 1.004 1.004 1.004s1.004-.45 1.004-1.004c0-.553-.45-1.003-1.004-1.003z"/><path d="m30.5 48.007c-1.656 0-3.003-1.347-3.003-3.003 0-1.655 1.347-3.002 3.003-3.002s3.003 1.347 3.003 3.002c0 1.656-1.347 3.003-3.003 3.003zm0-4.005c-.553 0-1.003.449-1.003 1.002s.45 1.003 1.003 1.003 1.003-.45 1.003-1.003-.45-1.002-1.003-1.002z"/><path d="m42 34.5c-1.379 0-2.5-1.121-2.5-2.5s1.121-2.5 2.5-2.5 2.5 1.121 2.5 2.5-1.121 2.5-2.5 2.5zm0-3c-.275 0-.5.225-.5.5s.225.5.5.5.5-.225.5-.5-.225-.5-.5-.5z"/><path d="m19 34.5c-1.379 0-2.5-1.121-2.5-2.5s1.121-2.5 2.5-2.5 2.5 1.121 2.5 2.5-1.121 2.5-2.5 2.5zm0-3c-.275 0-.5.225-.5.5s.225.5.5.5.5-.225.5-.5-.225-.5-.5-.5z"/><path d="m39.508 48c-2.756 0-4.998-2.242-4.998-4.998s2.242-4.997 4.998-4.997 4.997 2.241 4.997 4.997-2.241 4.998-4.997 4.998zm0-7.995c-1.653 0-2.998 1.345-2.998 2.997 0 1.653 1.345 2.998 2.998 2.998 1.652 0 2.997-1.345 2.997-2.998 0-1.652-1.345-2.997-2.997-2.997z"/><path d="m21.5 25.993c-2.757 0-5-2.243-5-5s2.243-5 5-5 5 2.243 5 5-2.243 5-5 5zm0-8c-1.654 0-3 1.346-3 3s1.346 3 3 3 3-1.346 3-3-1.346-3-3-3z"/><path d="m39.508 25.993c-2.757 0-5-2.243-5-5s2.243-5 5-5 5 2.243 5 5-2.243 5-5 5zm0-8c-1.654 0-3 1.346-3 3s1.346 3 3 3 3-1.346 3-3-1.346-3-3-3z"/><path d="m21.503 48c-2.756 0-4.998-2.242-4.998-4.998s2.242-4.997 4.998-4.997 4.997 2.241 4.997 4.997-2.241 4.998-4.997 4.998zm0-7.995c-1.653 0-2.998 1.345-2.998 2.997 0 1.653 1.345 2.998 2.998 2.998 1.652 0 2.997-1.345 2.997-2.998 0-1.652-1.345-2.997-2.997-2.997z"/><path d="m30.5 33c-.553 0-1-.447-1-1v-3c0-.553.447-1 1-1s1 .447 1 1v3c0 .553-.447 1-1 1z"/><path d="m32.621 35.121c-.256 0-.512-.098-.707-.293l-2.121-2.121c-.391-.391-.391-1.023 0-1.414s1.023-.391 1.414 0l2.121 2.121c.391.391.391 1.023 0 1.414-.195.195-.451.293-.707.293z"/></svg>