<svg id="icons" enable-background="new 0 0 64 64" height="512" viewBox="0 0 64 64" width="512" xmlns="http://www.w3.org/2000/svg"><path d="m34 15h29v38h-29z" fill="#844747"/><path d="m1 15h29v38h-29z" fill="#844747"/><circle cx="48.5" cy="40.5" fill="#545c66" r="2.5"/><path d="m48.5 19c2.48 0 4.5 2.02 4.5 4.5s-2.02 4.5-4.5 4.5-4.5-2.02-4.5-4.5 2.02-4.5 4.5-4.5z" fill="#656d78"/><path d="m48.5 32c4.69 0 8.5 3.81 8.5 8.5 0 4.7-3.81 8.5-8.5 8.5s-8.5-3.8-8.5-8.5c0-4.69 3.81-8.5 8.5-8.5zm2.5 8.5c0-1.38-1.12-2.5-2.5-2.5s-2.5 1.12-2.5 2.5 1.12 2.5 2.5 2.5 2.5-1.12 2.5-2.5z" fill="#656d78"/><path d="m63 15h-29l4-4h21z" fill="#773e3e"/><path d="m30 15h-29l4-4h21z" fill="#773e3e"/><path d="m15.5 19c2.48 0 4.5 2.02 4.5 4.5s-2.02 4.5-4.5 4.5-4.5-2.02-4.5-4.5 2.02-4.5 4.5-4.5z" fill="#656d78"/><circle cx="15.5" cy="40.5" fill="#545c66" r="2.5"/><path d="m15.5 32c4.69 0 8.5 3.81 8.5 8.5 0 4.7-3.81 8.5-8.5 8.5s-8.5-3.8-8.5-8.5c0-4.69 3.81-8.5 8.5-8.5zm2.5 8.5c0-1.38-1.12-2.5-2.5-2.5s-2.5 1.12-2.5 2.5 1.12 2.5 2.5 2.5 2.5-1.12 2.5-2.5z" fill="#656d78"/><path d="m30 54.001h-29c-.553 0-1-.447-1-1v-38.001c0-.553.447-1 1-1h29c.553 0 1 .447 1 1v38.001c0 .553-.447 1-1 1zm-28-2h27v-36.001h-27z"/><path d="m1 16c-.256 0-.512-.098-.707-.293-.391-.391-.391-1.023 0-1.414l4.001-4.001c.391-.391 1.023-.391 1.414 0s.391 1.023 0 1.414l-4.001 4.001c-.195.195-.451.293-.707.293z"/><path d="m30 16c-.256 0-.512-.098-.707-.293l-4.001-4.001c-.391-.391-.391-1.023 0-1.414s1.023-.391 1.414 0l4.001 4.001c.391.391.391 1.023 0 1.414-.195.195-.451.293-.707.293z"/><path d="m25.999 11.999h-20.998c-.553 0-1-.447-1-1s.447-1 1-1h20.998c.553 0 1 .447 1 1s-.447 1-1 1z"/><path d="m15.5 50.001c-5.238 0-9.5-4.262-9.5-9.5s4.262-9.5 9.5-9.5 9.5 4.262 9.5 9.5-4.262 9.5-9.5 9.5zm0-17c-4.136 0-7.5 3.364-7.5 7.5s3.364 7.5 7.5 7.5 7.5-3.364 7.5-7.5-3.364-7.5-7.5-7.5z"/><path d="m15.5 44.001c-1.93 0-3.5-1.57-3.5-3.5s1.57-3.5 3.5-3.5 3.5 1.57 3.5 3.5-1.57 3.5-3.5 3.5zm0-5c-.827 0-1.5.673-1.5 1.5s.673 1.5 1.5 1.5 1.5-.673 1.5-1.5-.673-1.5-1.5-1.5z"/><path d="m15.5 29c-3.032 0-5.5-2.468-5.5-5.5s2.468-5.5 5.5-5.5 5.5 2.468 5.5 5.5-2.468 5.5-5.5 5.5zm0-9c-1.93 0-3.5 1.57-3.5 3.5s1.57 3.5 3.5 3.5 3.5-1.57 3.5-3.5-1.57-3.5-3.5-3.5z"/><path d="m15.53 24.5c-.553 0-1.005-.447-1.005-1s.442-1 .994-1h.011c.552 0 1 .447 1 1s-.448 1-1 1z"/><path d="m63 54.001h-29c-.553 0-1-.447-1-1v-38.001c0-.553.447-1 1-1h29c.553 0 1 .447 1 1v38.001c0 .553-.447 1-1 1zm-28-2h27v-36.001h-27z"/><path d="m34 16c-.256 0-.512-.098-.707-.293-.391-.391-.391-1.023 0-1.414l4.001-4.001c.391-.391 1.023-.391 1.414 0s.391 1.023 0 1.414l-4.001 4.001c-.195.195-.451.293-.707.293z"/><path d="m63 16c-.256 0-.512-.098-.707-.293l-4.001-4.001c-.391-.391-.391-1.023 0-1.414s1.023-.391 1.414 0l4.001 4.001c.391.391.391 1.023 0 1.414-.195.195-.451.293-.707.293z"/><path d="m58.999 11.999h-20.998c-.553 0-1-.447-1-1s.447-1 1-1h20.998c.553 0 1 .447 1 1s-.447 1-1 1z"/><path d="m48.5 50.001c-5.238 0-9.5-4.262-9.5-9.5s4.262-9.5 9.5-9.5 9.5 4.262 9.5 9.5-4.262 9.5-9.5 9.5zm0-17c-4.136 0-7.5 3.364-7.5 7.5s3.364 7.5 7.5 7.5 7.5-3.364 7.5-7.5-3.364-7.5-7.5-7.5z"/><path d="m48.5 44.001c-1.93 0-3.5-1.57-3.5-3.5s1.57-3.5 3.5-3.5 3.5 1.57 3.5 3.5-1.57 3.5-3.5 3.5zm0-5c-.827 0-1.5.673-1.5 1.5s.673 1.5 1.5 1.5 1.5-.673 1.5-1.5-.673-1.5-1.5-1.5z"/><path d="m48.5 29c-3.032 0-5.5-2.468-5.5-5.5s2.468-5.5 5.5-5.5 5.5 2.468 5.5 5.5-2.468 5.5-5.5 5.5zm0-9c-1.93 0-3.5 1.57-3.5 3.5s1.57 3.5 3.5 3.5 3.5-1.57 3.5-3.5-1.57-3.5-3.5-3.5z"/><path d="m48.53 24.5c-.553 0-1.005-.447-1.005-1s.442-1 .994-1h.011c.552 0 1 .447 1 1s-.448 1-1 1z"/></svg>