<svg id="icons" enable-background="new 0 0 64 64" height="512" viewBox="0 0 64 64" width="512" xmlns="http://www.w3.org/2000/svg"><path d="m51.01 55.998v1h-38.01v-1c0-1.101.89-2 2-2h6.01 22.03 5.97c1.1 0 2 .899 2 2z" fill="#656d78"/><path d="m63 47.008c0 1.1-.9 2-2 2h-17.96-22.03-18.01c-1.1 0-2-.9-2-2v-2h.05 61.95z" fill="#656d78"/><path d="m21.01 49.008h22.03v4.99h-22.03z" fill="#545c66"/><path d="m63 9.008v36h-61.95-.05v-36c0-1.1.9-2 2-2h58c1.1 0 2 .9 2 2z" fill="#5d9cec"/><path d="m28.98 45.008h-5.972l8.008-38.006h5.972z" fill="#87bcf4"/><path d="m32.984 45.008h-1.968l8.007-38.006h1.969z" fill="#87bcf4"/><path d="m63 46h-61.953c-.553 0-1-.447-1-1s.447-1 1-1h61.953c.553 0 1 .447 1 1s-.447 1-1 1z"/><path d="m61 50h-58c-1.654 0-3-1.346-3-3v-37.997c0-1.654 1.346-3 3-3h58c1.654 0 3 1.346 3 3v37.997c0 1.654-1.346 3-3 3zm-58-41.997c-.552 0-1 .449-1 1v37.997c0 .552.448 1 1 1h58c.552 0 1-.448 1-1v-37.997c0-.551-.448-1-1-1z"/><path d="m21.013 54.996c-.553 0-1-.447-1-1v-4.996c0-.553.447-1 1-1s1 .447 1 1v4.996c0 .553-.448 1-1 1z"/><path d="m43.034 54.996c-.553 0-1-.447-1-1v-4.996c0-.553.447-1 1-1s1 .447 1 1v4.996c0 .553-.447 1-1 1z"/><path d="m12.994 56.996c-.553 0-1-.447-1-1 0-1.654 1.346-3 3-3 .553 0 1 .447 1 1s-.447 1-1 1c-.552 0-1 .448-1 1 0 .553-.447 1-1 1z"/><path d="m51.006 56.996c-.553 0-1-.447-1-1 0-.552-.448-1-1-1-.553 0-1-.447-1-1s.447-1 1-1c1.654 0 3 1.346 3 3 0 .553-.447 1-1 1z"/><path d="m49.006 54.996h-34.012c-.553 0-1-.447-1-1s.447-1 1-1h34.012c.553 0 1 .447 1 1s-.447 1-1 1z"/><path d="m12.994 57.996c-.553 0-1-.447-1-1v-1c0-.553.447-1 1-1s1 .447 1 1v1c0 .553-.447 1-1 1z"/><path d="m51.006 57.996h-38.012c-.553 0-1-.447-1-1s.447-1 1-1h38.012c.553 0 1 .447 1 1s-.447 1-1 1z"/><path d="m51.006 57.996c-.553 0-1-.447-1-1v-1c0-.553.447-1 1-1s1 .447 1 1v1c0 .553-.447 1-1 1z"/><path d="m32.054 47.996c-.553 0-1.005-.447-1.005-1s.442-1 .994-1h.011c.552 0 1 .447 1 1s-.449 1-1 1z"/></svg>