<svg id="icons" enable-background="new 0 0 64 64" height="512" viewBox="0 0 64 64" width="512" xmlns="http://www.w3.org/2000/svg"><path d="m60 40c0 4.101-1.12 7.94-3.07 11.22l-.64-.369c.46-.851.72-1.821.72-2.851 0-3.32-2.689-6-6-6h-13.01c-1.1 0-2-.89-2-2s.9-2 2-2h16.01c3.31 0 5.99-2.68 5.99-6z" fill="#d770ad"/><path d="m32 8.01v16c0-3.31-2.68-5.989-6-5.989v-.021h-13.79l-.41.01c-1.01-.1-1.8-.96-1.8-1.989 0-1.11.9-2 2-2v-.021h14c3.32 0 5.99-2.67 6-5.99z" fill="#d770ad"/><path d="m25 2.01h1c3.32 0 6 2.681 6 5.99v.01c-.01 3.32-2.68 5.99-6 5.99h-14v.021c-1.1 0-2 .89-2 2 0 1.029.79 1.89 1.8 1.989l.41-.01h13.79v.021c3.32 0 6 2.68 6 5.989 0 3.32-2.68 6-6 6h-16c-1.11 0-2 .891-2 1.99v.01c0 1.1.89 1.99 2 1.99v.01h16v-.01c3.32 0 6 2.69 6 6 0 3.32-2.68 6-6 6h-13.01c-1.1 0-1.99.89-1.99 2 0 1.101.89 2 1.99 2v.01h13.01c3.31 0 6 2.681 6 5.99 0 3.32-2.69 6-6 6-4.71 0-9.07-1.479-12.65-4h12.65c1.1 0 2-.89 2-2 0-1.1-.9-2-2-2v-.01h-13.01c-2.28 0-4.25-1.271-5.271-3.14-.459-.85-.719-1.82-.719-2.85 0-3.32 2.68-6 5.99-6h13.01c1.11 0 2-.89 2-2 0-1.1-.89-2-2-2h-16c-3.32 0-6-2.68-6-5.99v-.01c0-3.31 2.68-5.99 6-5.99h16c1.11 0 2-.89 2-2 0-1.1-.89-2-2-2v-.01h-14v.01c-3.31 0-6-2.68-6-5.989 0-1.04.26-2.011.72-2.86 1.021-1.87 3-3.14 5.28-3.14h14v-.021c1.11 0 2-.89 2-2 0-1.1-.89-2-2-2h-13.32c3.46-2.51 7.72-3.99 12.32-3.99z" fill="#ec87c0"/><g fill="#d770ad"><path d="m6 16.021c0 3.31 2.69 5.989 6 5.989v-.01h14v.01c1.11 0 2 .9 2 2 0 1.11-.89 2-2 2h-16c-3.32 0-6 2.681-6 5.99v-8.99c0-3.6.9-6.989 2.5-9.96l.22.11c-.46.85-.72 1.82-.72 2.861z"/><path d="m38 50.01c-3.31 0-5.99 2.681-5.99 5.99h-.01v-16c0 3.32 2.69 6 6 6h13.01c1.101 0 2 .89 2 2 0 1.101-.899 2-2 2v.01z"/><path d="m32 24.01v15.99c0-3.31-2.68-6-6-6v.01h-16v-.01c-1.11 0-2-.89-2-1.99v-.01c0-1.1.89-1.99 2-1.99h16c3.32 0 6-2.68 6-6z"/><path d="m51.34 6c2.54 1.851 4.65 4.26 6.16 7.04l-.22.11c-1.021-1.86-3-3.13-5.28-3.13h-14v-.02c-1.1 0-2-.89-2-2 0-1.1.9-2 2-2h13.33z"/><path d="m38 18.01c-3.31 0-5.99 2.69-5.99 6h-.01v-16c.01 3.32 2.69 5.99 6 5.99h14v.021c1.11 0 2 .89 2 1.989v.011c0 1.1-.89 1.989-2 1.989l-.21-.01h-13.79z"/><path d="m7 48c0 1.03.26 2 .72 2.851l-.65.369c-1.95-3.28-3.07-7.119-3.07-11.22v-7.99c0 3.31 2.68 5.99 6 5.99h16c1.11 0 2 .9 2 2 0 1.11-.89 2-2 2h-13.01c-3.31 0-5.99 2.68-5.99 6z"/><path d="m52 22.01c3.32 0 6-2.68 6-5.989v-.011c0-1.04-.26-2.01-.72-2.859l.22-.11c1.59 2.959 2.5 6.359 2.5 9.959v9c0-3.31-2.68-5.99-5.99-5.99h-16.01c-1.1 0-2-.89-2-2 0-1.1.9-2 2-2v-.01h14z"/><path d="m6.5 13.05c1.51-2.79 3.62-5.199 6.18-7.05h13.32c1.11 0 2 .9 2 2 0 1.11-.89 2-2 2v.021h-14c-2.28 0-4.26 1.27-5.28 3.14z"/><path d="m32 56c0-3.31-2.69-5.99-6-5.99h-13.01v-.01c-1.1 0-1.99-.899-1.99-2 0-1.11.89-2 1.99-2h13.01c3.32 0 6-2.68 6-6z"/></g><path d="m32.01 8c0-3.31 2.681-5.99 5.99-5.99v-.01h1c4.61 0 8.87 1.48 12.33 4h-13.33c-1.1 0-2 .9-2 2 0 1.11.9 2 2 2v.021h14c2.28 0 4.26 1.27 5.28 3.13.46.849.72 1.819.72 2.859v.011c0 3.31-2.68 5.989-6 5.989v-.01h-14v.01c-1.1 0-2 .9-2 2 0 1.11.9 2 2 2h16.01c3.31 0 5.99 2.68 5.99 5.99 0 3.32-2.68 6-5.99 6h-16.01c-1.1 0-2 .89-2 2s.9 2 2 2h13.01c3.311 0 6 2.68 6 6 0 1.03-.26 2-.72 2.851-1.021 1.869-3 3.14-5.28 3.14h-13.01v.009c-1.1 0-1.99.9-1.99 2 0 1.11.891 2 1.99 2h12.65c-3.58 2.521-7.94 4-12.65 4-3.31 0-5.99-2.68-5.99-6 0-3.31 2.681-5.99 5.99-5.99h13.01v-.01c1.101 0 2-.899 2-2 0-1.11-.899-2-2-2h-13.01c-3.31 0-6-2.68-6-6h.01c0-3.31 2.681-6 5.99-6v.01h16.01v-.01c1.1 0 1.99-.89 1.99-1.99v-.01c0-1.1-.89-1.99-1.99-1.99h-16.01c-3.31 0-6-2.68-6-6h.01c0-3.31 2.681-6 5.99-6v-.01h13.79l.21.01c1.11 0 2-.89 2-1.989v-.011c0-1.1-.89-1.989-2-1.989v-.021h-14c-3.31 0-5.99-2.67-6-5.99v-.01z" fill="#ec87c0"/><path d="m51.01 53.99c2.28 0 4.26-1.271 5.28-3.14l.64.369c-1.59 2.681-3.73 4.991-6.27 6.781h-.01-12.65c-1.1 0-1.99-.89-1.99-2 0-1.1.891-2 1.99-2v-.01z" fill="#d770ad"/><path d="m38 34c-3.31 0-5.99 2.69-5.99 6h-.01v-15.99c0 3.32 2.69 6 6 6h16.01c1.1 0 1.99.89 1.99 1.99v.01c0 1.1-.89 1.99-1.99 1.99v.01h-16.01z" fill="#d770ad"/><path d="m7.72 50.851c1.021 1.869 2.99 3.14 5.271 3.14h13.009v.009c1.1 0 2 .9 2 2 0 1.11-.9 2-2 2h-12.65-.01c-2.54-1.79-4.68-4.1-6.27-6.78z" fill="#d770ad"/><path d="m38.002 62.998c-3.858 0-6.998-3.14-6.998-6.998 0-.553.447-1 1-1s1 .447 1 1c0 2.756 2.242 4.998 4.998 4.998.553 0 1 .447 1 1s-.447 1-1 1z"/><path d="m38.002 58.998c-1.653 0-2.998-1.345-2.998-2.998 0-.553.447-1 1-1s1 .447 1 1c0 .551.447.998.998.998.553 0 1 .447 1 1s-.447 1-1 1z"/><path d="m36.004 56.998c-.553 0-1-.447-1-1 0-1.653 1.345-2.998 2.998-2.998.553 0 1 .447 1 1s-.447 1-1 1c-.551 0-.998.447-.998.998 0 .553-.447 1-1 1z"/><path d="m32.006 56.999c-.553 0-1-.447-1-1 0-3.857 3.139-6.996 6.996-6.996.553 0 1 .447 1 1s-.447 1-1 1c-2.755 0-4.996 2.241-4.996 4.996 0 .553-.447 1-1 1z"/><path d="m57.006 48.993c-.553 0-1-.447-1-1 0-2.756-2.242-4.998-4.998-4.998-.553 0-1-.447-1-1s.447-1 1-1c3.858 0 6.998 3.14 6.998 6.998 0 .553-.447 1-1 1z"/><path d="m53.006 48.993c-.553 0-1-.447-1-1 0-.551-.447-.998-.998-.998-.553 0-1-.447-1-1s.447-1 1-1c1.653 0 2.998 1.345 2.998 2.998 0 .553-.447 1-1 1z"/><path d="m51.008 50.993c-.553 0-1-.447-1-1s.447-1 1-1c.551 0 .998-.447.998-.998 0-.553.447-1 1-1s1 .447 1 1c0 1.653-1.345 2.998-2.998 2.998z"/><path d="m51.008 54.99c-.553 0-1-.447-1-1s.447-1 1-1c2.755 0 4.996-2.241 4.996-4.996 0-.553.447-1 1-1s1 .447 1 1c0 3.858-3.139 6.996-6.996 6.996z"/><path d="m60.002 33c-.553 0-1-.447-1-1 0-2.756-2.242-4.998-4.998-4.998-.553 0-1-.447-1-1s.447-1 1-1c3.858 0 6.998 3.14 6.998 6.998 0 .553-.447 1-1 1z"/><path d="m56.002 33c-.553 0-1-.447-1-1 0-.551-.447-.998-.998-.998-.553 0-1-.447-1-1s.447-1 1-1c1.653 0 2.998 1.345 2.998 2.998 0 .553-.447 1-1 1z"/><path d="m54.004 35c-.553 0-1-.447-1-1s.447-1 1-1c.551 0 .998-.447.998-.998 0-.553.447-1 1-1s1 .447 1 1c0 1.653-1.345 2.998-2.998 2.998z"/><path d="m54.004 38.997c-.553 0-1-.447-1-1s.447-1 1-1c2.755 0 4.996-2.241 4.996-4.996 0-.553.447-1 1-1s1 .447 1 1c0 3.857-3.139 6.996-6.996 6.996z"/><path d="m58 17.011c-.553 0-1-.447-1-1 0-2.756-2.242-4.998-4.998-4.998-.553 0-1-.447-1-1s.447-1 1-1c3.858 0 6.998 3.14 6.998 6.998 0 .552-.447 1-1 1z"/><path d="m54 17.011c-.553 0-1-.447-1-1 0-.551-.447-.998-.998-.998-.553 0-1-.447-1-1s.447-1 1-1c1.653 0 2.998 1.345 2.998 2.998 0 .552-.447 1-1 1z"/><path d="m52.002 19.011c-.553 0-1-.447-1-1s.447-1 1-1c.551 0 .998-.447.998-.998 0-.553.447-1 1-1s1 .447 1 1c0 1.653-1.345 2.998-2.998 2.998z"/><path d="m52.002 23.008c-.553 0-1-.447-1-1s.447-1 1-1c2.755 0 4.996-2.241 4.996-4.996 0-.553.447-1 1-1s1 .447 1 1c0 3.857-3.139 6.996-6.996 6.996z"/><path d="m38 46.995c-3.858 0-6.998-3.14-6.998-6.998 0-.553.447-1 1-1s1 .447 1 1c0 2.756 2.242 4.998 4.998 4.998.553 0 1 .447 1 1s-.447 1-1 1z"/><path d="m38 42.995c-1.653 0-2.998-1.345-2.998-2.998 0-.553.447-1 1-1s1 .447 1 1c0 .551.447.998.998.998.553 0 1 .447 1 1s-.447 1-1 1z"/><path d="m36.002 40.995c-.553 0-1-.447-1-1 0-1.653 1.345-2.998 2.998-2.998.553 0 1 .447 1 1s-.447 1-1 1c-.551 0-.998.447-.998.998 0 .553-.447 1-1 1z"/><path d="m32.004 40.996c-.553 0-1-.447-1-1 0-3.857 3.139-6.996 6.996-6.996.553 0 1 .447 1 1s-.447 1-1 1c-2.755 0-4.996 2.241-4.996 4.996 0 .553-.447 1-1 1z"/><path d="m38 31.006c-3.858 0-6.998-3.14-6.998-6.998 0-.553.447-1 1-1s1 .447 1 1c0 2.756 2.242 4.998 4.998 4.998.553 0 1 .447 1 1s-.447 1-1 1z"/><path d="m38 27.006c-1.653 0-2.998-1.345-2.998-2.998 0-.553.447-1 1-1s1 .447 1 1c0 .551.447.998.998.998.553 0 1 .447 1 1s-.447 1-1 1z"/><path d="m36.002 25.006c-.553 0-1-.447-1-1 0-1.653 1.345-2.998 2.998-2.998.553 0 1 .447 1 1s-.447 1-1 1c-.551 0-.998.447-.998.998 0 .553-.447 1-1 1z"/><path d="m32.004 25.007c-.553 0-1-.447-1-1 0-3.857 3.139-6.996 6.996-6.996.553 0 1 .447 1 1s-.447 1-1 1c-2.755 0-4.996 2.241-4.996 4.996 0 .553-.447 1-1 1z"/><path d="m38 14.997c-3.858 0-6.998-3.14-6.998-6.998 0-.553.447-1 1-1s1 .447 1 1c0 2.756 2.242 4.998 4.998 4.998.553 0 1 .447 1 1s-.447 1-1 1z"/><path d="m38 10.997c-1.653 0-2.998-1.345-2.998-2.998 0-.553.447-1 1-1s1 .447 1 1c0 .551.447.998.998.998.553 0 1 .447 1 1s-.447 1-1 1z"/><path d="m36.002 8.997c-.553 0-1-.447-1-1 0-1.653 1.345-2.998 2.998-2.998.553 0 1 .447 1 1s-.447 1-1 1c-.551 0-.998.447-.998.998 0 .553-.447 1-1 1z"/><path d="m32.004 8.998c-.553 0-1-.447-1-1 0-3.857 3.139-6.996 6.996-6.996.553 0 1 .447 1 1s-.447 1-1 1c-2.755 0-4.996 2.241-4.996 4.996 0 .553-.447 1-1 1z"/><path d="m60.002 24.001c-.553 0-1-.447-1-1 0-11.028-8.972-20-20-20-.553 0-1-.447-1-1s.447-1 1-1c12.131 0 22 9.869 22 22 0 .553-.447 1-1 1z"/><path d="m38.002 62.997c-.553 0-1-.447-1-1s.447-1 1-1c11.579 0 21-9.421 21-21 0-.553.447-1 1-1s1 .447 1 1c0 12.683-10.317 23-23 23z"/><path d="m39.002 3.001h-1c-.553 0-1-.447-1-1s.447-1 1-1h1c.553 0 1 .447 1 1s-.447 1-1 1z"/><path d="m31.998 57c-.553 0-1-.447-1-1v-47.995c0-.553.447-1 1-1s1 .447 1 1v47.995c0 .553-.447 1-1 1z"/><path d="m60.002 40.997c-.553 0-1-.447-1-1v-16.996c0-.553.447-1 1-1s1 .447 1 1v16.996c0 .553-.447 1-1 1z"/><path d="m51.008 54.99h-13.006c-.553 0-1-.447-1-1s.447-1 1-1h13.006c.553 0 1 .447 1 1s-.447 1-1 1z"/><path d="m51.008 51.003h-13.006c-.553 0-1-.447-1-1s.447-1 1-1h13.006c.553 0 1 .447 1 1s-.447 1-1 1z"/><path d="m50.66 58.998h-12.658c-.553 0-1-.447-1-1s.447-1 1-1h12.658c.553 0 1 .447 1 1s-.447 1-1 1z"/><path d="m51.008 42.995h-13.008c-.553 0-1-.447-1-1s.447-1 1-1h13.008c.553 0 1 .447 1 1s-.447 1-1 1z"/><path d="m54.004 39h-16.004c-.553 0-1-.447-1-1s.447-1 1-1h16.004c.553 0 1 .447 1 1s-.447 1-1 1z"/><path d="m54.004 35.003h-16.004c-.553 0-1-.447-1-1s.447-1 1-1h16.004c.553 0 1 .447 1 1s-.447 1-1 1z"/><path d="m54.004 31.006h-16.004c-.553 0-1-.447-1-1s.447-1 1-1h16.004c.553 0 1 .447 1 1s-.447 1-1 1z"/><path d="m54.004 27.009h-16.004c-.553 0-1-.447-1-1s.447-1 1-1h16.004c.553 0 1 .447 1 1s-.447 1-1 1z"/><path d="m52.002 22.997h-14.002c-.553 0-1-.447-1-1s.447-1 1-1h14.002c.553 0 1 .447 1 1s-.447 1-1 1z"/><path d="m51.793 19h-13.793c-.553 0-1-.447-1-1s.447-1 1-1h13.793c.553 0 1 .447 1 1s-.447 1-1 1z"/><path d="m51.008 46.999h-13.008c-.553 0-1-.447-1-1s.447-1 1-1h13.008c.553 0 1 .447 1 1s-.447 1-1 1z"/><path d="m52.002 11.013h-14.002c-.553 0-1-.447-1-1s.447-1 1-1h14.002c.553 0 1 .447 1 1s-.447 1-1 1z"/><path d="m52.002 14.997h-14.002c-.553 0-1-.447-1-1s.447-1 1-1h14.002c.553 0 1 .447 1 1s-.447 1-1 1z"/><path d="m51.338 6.999h-13.338c-.553 0-1-.447-1-1s.447-1 1-1h13.338c.553 0 1 .447 1 1s-.447 1-1 1z"/><path d="m25.998 62.999c-.553 0-1-.447-1-1s.447-1 1-1c2.756 0 4.998-2.242 4.998-4.998 0-.553.447-1 1-1s1 .447 1 1c0 3.858-3.14 6.998-6.998 6.998z"/><path d="m25.998 58.999c-.553 0-1-.447-1-1s.447-1 1-1c.551 0 .998-.447.998-.998 0-.553.447-1 1-1s1 .447 1 1c0 1.653-1.345 2.998-2.998 2.998z"/><path d="m27.996 56.999c-.553 0-1-.447-1-1 0-.551-.447-.998-.998-.998-.553 0-1-.447-1-1s.447-1 1-1c1.653 0 2.998 1.345 2.998 2.998 0 .553-.447 1-1 1z"/><path d="m31.994 57c-.553 0-1-.447-1-1 0-2.755-2.241-4.996-4.996-4.996-.553 0-1-.447-1-1s.447-1 1-1c3.857 0 6.996 3.139 6.996 6.996 0 .553-.447 1-1 1z"/><path d="m6.994 48.994c-.553 0-1-.447-1-1 0-3.858 3.14-6.998 6.998-6.998.553 0 1 .447 1 1s-.447 1-1 1c-2.756 0-4.998 2.242-4.998 4.998 0 .553-.447 1-1 1z"/><path d="m10.994 48.994c-.553 0-1-.447-1-1 0-1.653 1.345-2.998 2.998-2.998.553 0 1 .447 1 1s-.447 1-1 1c-.551 0-.998.447-.998.998 0 .553-.447 1-1 1z"/><path d="m12.992 50.994c-1.653 0-2.998-1.345-2.998-2.998 0-.553.447-1 1-1s1 .447 1 1c0 .551.447.998.998.998.553 0 1 .447 1 1s-.447 1-1 1z"/><path d="m12.992 54.991c-3.857 0-6.996-3.139-6.996-6.996 0-.553.447-1 1-1s1 .447 1 1c0 2.755 2.241 4.996 4.996 4.996.553 0 1 .447 1 1s-.447 1-1 1z"/><path d="m3.998 33.001c-.553 0-1-.447-1-1 0-3.858 3.14-6.998 6.998-6.998.553 0 1 .447 1 1s-.447 1-1 1c-2.756 0-4.998 2.242-4.998 4.998 0 .553-.447 1-1 1z"/><path d="m7.998 33.001c-.553 0-1-.447-1-1 0-1.653 1.345-2.998 2.998-2.998.553 0 1 .447 1 1s-.447 1-1 1c-.551 0-.998.447-.998.998 0 .553-.447 1-1 1z"/><path d="m9.996 35.001c-1.653 0-2.998-1.345-2.998-2.998 0-.553.447-1 1-1s1 .447 1 1c0 .551.447.998.998.998.553 0 1 .447 1 1s-.447 1-1 1z"/><path d="m9.996 38.998c-3.857 0-6.996-3.139-6.996-6.996 0-.553.447-1 1-1s1 .447 1 1c0 2.755 2.241 4.996 4.996 4.996.553 0 1 .447 1 1s-.447 1-1 1z"/><path d="m6 17.012c-.553 0-1-.447-1-1 0-3.858 3.14-6.998 6.998-6.998.553 0 1 .447 1 1s-.447 1-1 1c-2.756 0-4.998 2.242-4.998 4.998 0 .552-.447 1-1 1z"/><path d="m10 17.012c-.553 0-1-.447-1-1 0-1.653 1.345-2.998 2.998-2.998.553 0 1 .447 1 1s-.447 1-1 1c-.551 0-.998.447-.998.998 0 .552-.447 1-1 1z"/><path d="m11.998 19.012c-1.653 0-2.998-1.345-2.998-2.998 0-.553.447-1 1-1s1 .447 1 1c0 .551.447.998.998.998.553 0 1 .447 1 1s-.447 1-1 1z"/><path d="m11.998 23.009c-3.857 0-6.996-3.139-6.996-6.996 0-.553.447-1 1-1s1 .447 1 1c0 2.755 2.241 4.996 4.996 4.996.553 0 1 .447 1 1s-.447 1-1 1z"/><path d="m26 46.996c-.553 0-1-.447-1-1s.447-1 1-1c2.756 0 4.998-2.242 4.998-4.998 0-.553.447-1 1-1s1 .447 1 1c0 3.858-3.14 6.998-6.998 6.998z"/><path d="m26 42.996c-.553 0-1-.447-1-1s.447-1 1-1c.551 0 .998-.447.998-.998 0-.553.447-1 1-1s1 .447 1 1c0 1.653-1.345 2.998-2.998 2.998z"/><path d="m27.998 40.996c-.553 0-1-.447-1-1 0-.551-.447-.998-.998-.998-.553 0-1-.447-1-1s.447-1 1-1c1.653 0 2.998 1.345 2.998 2.998 0 .553-.447 1-1 1z"/><path d="m31.996 40.997c-.553 0-1-.447-1-1 0-2.755-2.241-4.996-4.996-4.996-.553 0-1-.447-1-1s.447-1 1-1c3.857 0 6.996 3.139 6.996 6.996 0 .553-.447 1-1 1z"/><path d="m26 31.007c-.553 0-1-.447-1-1s.447-1 1-1c2.756 0 4.998-2.242 4.998-4.998 0-.553.447-1 1-1s1 .447 1 1c0 3.858-3.14 6.998-6.998 6.998z"/><path d="m26 27.007c-.553 0-1-.447-1-1s.447-1 1-1c.551 0 .998-.447.998-.998 0-.553.447-1 1-1s1 .447 1 1c0 1.653-1.345 2.998-2.998 2.998z"/><path d="m27.998 25.007c-.553 0-1-.447-1-1 0-.551-.447-.998-.998-.998-.553 0-1-.447-1-1s.447-1 1-1c1.653 0 2.998 1.345 2.998 2.998 0 .553-.447 1-1 1z"/><path d="m31.996 25.008c-.553 0-1-.447-1-1 0-2.755-2.241-4.996-4.996-4.996-.553 0-1-.447-1-1s.447-1 1-1c3.857 0 6.996 3.139 6.996 6.996 0 .553-.447 1-1 1z"/><path d="m26 14.998c-.553 0-1-.447-1-1s.447-1 1-1c2.756 0 4.998-2.242 4.998-4.998 0-.553.447-1 1-1s1 .447 1 1c0 3.858-3.14 6.998-6.998 6.998z"/><path d="m26 10.998c-.553 0-1-.447-1-1s.447-1 1-1c.551 0 .998-.447.998-.998 0-.553.447-1 1-1s1 .447 1 1c0 1.653-1.345 2.998-2.998 2.998z"/><path d="m27.998 8.998c-.553 0-1-.447-1-1 0-.551-.447-.998-.998-.998-.553 0-1-.447-1-1s.447-1 1-1c1.653 0 2.998 1.345 2.998 2.998 0 .553-.447 1-1 1z"/><path d="m31.996 8.999c-.553 0-1-.447-1-1 0-2.755-2.241-4.996-4.996-4.996-.553 0-1-.447-1-1s.447-1 1-1c3.857 0 6.996 3.139 6.996 6.996 0 .553-.447 1-1 1z"/><path d="m3.998 24.002c-.553 0-1-.447-1-1 0-12.131 9.869-22 22-22 .553 0 1 .447 1 1s-.447 1-1 1c-11.028 0-20 8.972-20 20 0 .553-.447 1-1 1z"/><path d="m25.998 62.998c-12.683 0-23-10.317-23-23 0-.553.447-1 1-1s1 .447 1 1c0 11.579 9.421 21 21 21 .553 0 1 .447 1 1s-.447 1-1 1z"/><path d="m25.998 3.002h-1c-.553 0-1-.447-1-1s.447-1 1-1h1c.553 0 1 .447 1 1s-.447 1-1 1z"/><path d="m32.002 57.001c-.553 0-1-.447-1-1v-47.995c0-.553.447-1 1-1s1 .447 1 1v47.995c0 .553-.447 1-1 1z"/><path d="m3.998 40.998c-.553 0-1-.447-1-1v-16.996c0-.553.447-1 1-1s1 .447 1 1v16.996c0 .553-.447 1-1 1z"/><path d="m25.998 54.991h-13.006c-.553 0-1-.447-1-1s.447-1 1-1h13.006c.553 0 1 .447 1 1s-.447 1-1 1z"/><path d="m25.998 51.004h-13.006c-.553 0-1-.447-1-1s.447-1 1-1h13.006c.553 0 1 .447 1 1s-.447 1-1 1z"/><path d="m25.998 58.999h-12.658c-.553 0-1-.447-1-1s.447-1 1-1h12.658c.553 0 1 .447 1 1s-.447 1-1 1z"/><path d="m26 42.996h-13.008c-.553 0-1-.447-1-1s.447-1 1-1h13.008c.553 0 1 .447 1 1s-.447 1-1 1z"/><path d="m26 39.001h-16.004c-.553 0-1-.447-1-1s.447-1 1-1h16.004c.553 0 1 .447 1 1s-.447 1-1 1z"/><path d="m26 35.004h-16.004c-.553 0-1-.447-1-1s.447-1 1-1h16.004c.553 0 1 .447 1 1s-.447 1-1 1z"/><path d="m26 31.007h-16.004c-.553 0-1-.447-1-1s.447-1 1-1h16.004c.553 0 1 .447 1 1s-.447 1-1 1z"/><path d="m26 27.01h-16.004c-.553 0-1-.447-1-1s.447-1 1-1h16.004c.553 0 1 .447 1 1s-.447 1-1 1z"/><path d="m26 22.998h-14.002c-.553 0-1-.447-1-1s.447-1 1-1h14.002c.553 0 1 .447 1 1s-.447 1-1 1z"/><path d="m26 19.001h-13.793c-.553 0-1-.447-1-1s.447-1 1-1h13.793c.553 0 1 .447 1 1s-.447 1-1 1z"/><path d="m26 47h-13.008c-.553 0-1-.447-1-1s.447-1 1-1h13.008c.553 0 1 .447 1 1s-.447 1-1 1z"/><path d="m26 11.014h-14.002c-.553 0-1-.447-1-1s.447-1 1-1h14.002c.553 0 1 .447 1 1s-.447 1-1 1z"/><path d="m26 14.998h-14.002c-.553 0-1-.447-1-1s.447-1 1-1h14.002c.553 0 1 .447 1 1s-.447 1-1 1z"/><path d="m26 7h-13.338c-.553 0-1-.447-1-1s.447-1 1-1h13.338c.553 0 1 .447 1 1s-.447 1-1 1z"/></svg>