<svg id="icons" enable-background="new 0 0 64 64" height="512" viewBox="0 0 64 64" width="512" xmlns="http://www.w3.org/2000/svg"><path d="m35 13h-1-22-1c-4.4 0-8 3.6-8 8v34c0 4.4 3.6 8 8 8h24c4.4 0 8-3.6 8-8v-34c0-4.4-3.6-8-8-8z" fill="#e6e9ed"/><path d="m61 19v6c0 2.61-1.67 4.84-4 5.65-.63.23-1.3.35-2 .35s-1.37-.12-2-.35c-2.33-.811-4-3.04-4-5.65v-6c0-3.31 2.69-6 6-6s6 2.69 6 6z" fill="#e6e9ed"/><path d="m57 30.65v30.35c0 1.1-.9 2-2 2-1.11 0-2-.9-2-2v-30.35c.63.23 1.3.35 2 .35s1.37-.12 2-.35z" fill="#ccd1d9"/><path d="m11 25.01h24v25h-24z" fill="#5d9cec"/><path d="m11 1h24c.55 0 1 .45 1 1v7c0 .55-.45 1-1 1h-1-22-1c-.55 0-1-.45-1-1v-7c0-.55.45-1 1-1z" fill="#5d9cec"/><path d="m12 10h22v3h-22z" fill="#ccd1d9"/><path d="m35.004 11h-24.004c-1.103 0-2-.897-2-2v-7c0-1.103.897-2 2-2h24.004c1.103 0 2 .897 2 2v7c0 1.103-.898 2-2 2zm0-2v1zm-24.004-7v7h24.002l.002-7z"/><path d="m16.002 8c-.553 0-1-.447-1-1v-3c0-.553.447-1 1-1s1 .447 1 1v3c0 .553-.447 1-1 1z"/><path d="m23.004 8c-.553 0-1-.447-1-1v-3c0-.553.447-1 1-1s1 .447 1 1v3c0 .553-.447 1-1 1z"/><path d="m30.004 8c-.553 0-1-.447-1-1v-3c0-.553.447-1 1-1s1 .447 1 1v3c0 .553-.447 1-1 1z"/><path d="m35.004 63.998h-24.004c-4.963 0-9-4.037-9-9v-34c0-4.963 4.037-9 9-9h24.004c4.963 0 9 4.037 9 9v34c0 4.963-4.037 9-9 9zm-24.004-50c-3.859 0-7 3.141-7 7v34c0 3.859 3.141 7 7 7h24.004c3.859 0 7-3.141 7-7v-34c0-3.859-3.141-7-7-7z"/><path d="m12 13.998c-.553 0-1-.447-1-1v-2.998c0-.553.447-1 1-1s1 .447 1 1v2.998c0 .553-.447 1-1 1z"/><path d="m34.004 13.998c-.553 0-1-.447-1-1v-2.998c0-.553.447-1 1-1s1 .447 1 1v2.998c0 .553-.447 1-1 1z"/><path d="m35.002 51.006h-24c-.553 0-1-.447-1-1v-25c0-.553.447-1 1-1h24c.553 0 1 .447 1 1v25c0 .553-.447 1-1 1zm-23-2h22v-23h-22z"/><path d="m23.002 38.002c-.553 0-1-.447-1-1v-6c0-.553.447-1 1-1s1 .447 1 1v6c0 .553-.447 1-1 1z"/><path d="m26 35.002h-6c-.553 0-1-.447-1-1s.447-1 1-1h6c.553 0 1 .447 1 1s-.447 1-1 1z"/><path d="m30 41.998h-14c-.553 0-1-.447-1-1s.447-1 1-1h14c.553 0 1 .447 1 1s-.447 1-1 1z"/><path d="m26 44.998h-6c-.553 0-1-.447-1-1s.447-1 1-1h6c.553 0 1 .447 1 1s-.447 1-1 1z"/><path d="m61 20c-.553 0-1-.447-1-1 0-2.757-2.243-5-5-5s-5 2.243-5 5c0 .553-.447 1-1 1s-1-.447-1-1c0-3.859 3.141-7 7-7s7 3.141 7 7c0 .553-.447 1-1 1z"/><path d="m55 32c-3.859 0-7-3.141-7-7 0-.553.447-1 1-1s1 .447 1 1c0 2.757 2.243 5 5 5s5-2.243 5-5c0-.553.447-1 1-1s1 .447 1 1c0 3.859-3.141 7-7 7z"/><path d="m55 64c-1.654 0-3-1.346-3-3 0-.553.447-1 1-1s1 .447 1 1c0 .552.448 1 1 1s1-.448 1-1c0-.553.447-1 1-1s1 .447 1 1c0 1.654-1.346 3-3 3z"/><path d="m61 26c-.553 0-1-.447-1-1v-6c0-.553.447-1 1-1s1 .447 1 1v6c0 .553-.447 1-1 1z"/><path d="m49 26c-.553 0-1-.447-1-1v-6c0-.553.447-1 1-1s1 .447 1 1v6c0 .553-.447 1-1 1z"/><path d="m56.998 62c-.553 0-1-.447-1-1v-30.348c0-.553.447-1 1-1s1 .447 1 1v30.348c0 .553-.447 1-1 1z"/><path d="m53 62c-.553 0-1-.447-1-1v-30.348c0-.553.447-1 1-1s1 .447 1 1v30.348c0 .553-.447 1-1 1z"/></svg>