<svg id="icons" enable-background="new 0 0 64 64" height="512" viewBox="0 0 64 64" width="512" xmlns="http://www.w3.org/2000/svg"><path d="m47 19v7c0 .34-.01.67-.04 1h-5.96-18-5.96c-.03-.33-.04-.66-.04-1v-7h.01z" fill="#eac6bb"/><path d="m23 27h18v11h-18z" fill="#e6e9ed"/><path d="m47.01 7v12h-.01-29.99v-12c0-2.2 1.8-4 4-4h22c2.2 0 4 1.8 4 4z" fill="#48cfad"/><path d="m43.01 3h-4.004c2.2 0 4 1.8 4 4v12h3.994.01v-12c0-2.2-1.8-4-4-4z" fill="#37bc9b"/><g fill="#eac6bb"><path d="m41 27h5.96c-.29 4.489-2.561 8.45-5.95 11h-.01z"/><path d="m23 38h18c-.63.479-1.3.899-2 1.27-2.09 1.1-4.47 1.73-7 1.73s-4.91-.63-7-1.73c-.7-.371-1.37-.8-2-1.27z"/><path d="m23 27v11c-3.39-2.55-5.67-6.511-5.96-11z"/></g><path d="m42.996 19v7c0 .34-.01.67-.04 1-.29 4.489-2.561 8.45-5.95 11h-.01c-.63.479-1.3.899-2 1.27-1.528.805-3.214 1.354-4.998 1.594.655.087 1.322.136 2.002.136 2.53 0 4.91-.63 7-1.73.7-.37 1.37-.79 2-1.27h.01c3.39-2.55 5.66-6.511 5.95-11 .03-.33.04-.66.04-1v-7z" fill="#d3b1a9"/><path d="m37.006 38h3.994v-4.542c-1.015 1.771-2.371 3.321-3.994 4.542z" fill="#ccd1d9"/><path d="m39 39.27v5.73l-7 7-7-7v-5.73c2.09 1.1 4.47 1.73 7 1.73s4.91-.63 7-1.73z" fill="#eac6bb"/><path d="m54 53v7c0 .55-.44 1-1 1h-42c-.55 0-1-.45-1-1v-7c0-4.42 3.58-8 8-8h7l7 7 7-7h7c4.42 0 8 3.58 8 8z" fill="#48cfad"/><path d="m46 45h-4.004c4.42 0 8 3.58 8 8v7c0 .55-.44 1-1 1h4.004c.56 0 1-.45 1-1v-7c0-4.42-3.58-8-8-8z" fill="#37bc9b"/><path d="m10 54.005c-.553 0-1-.447-1-1 0-4.964 4.038-9.002 9.002-9.002.553 0 1 .447 1 1s-.447 1-1 1c-3.861 0-7.002 3.141-7.002 7.002 0 .553-.447 1-1 1z"/><path d="m54 54.004c-.553 0-1-.447-1-1 0-3.859-3.141-7-7-7-.553 0-1-.447-1-1s.447-1 1-1c4.963 0 9 4.037 9 9 0 .553-.447 1-1 1z"/><path d="m25 46.004-6.998-.001c-.553 0-1-.448-1-1 0-.553.448-1 1-1l6.998.001c.553 0 1 .448 1 1 0 .553-.448 1-1 1z"/><path d="m46 46.004-7-.001c-.553 0-1-.448-1-1 0-.553.448-1 1-1l7 .001c.553 0 1 .448 1 1 0 .553-.448 1-1 1z"/><path d="m10.001 61.002c-.552 0-1-.447-1-1l-.001-6.997c0-.552.447-1 1-1 .552 0 1 .447 1 1l.001 6.997c0 .552-.447 1-1 1z"/><path d="m11.001 62.002c-1.103 0-2-.897-2-2 0-.553.447-1 1-1s1 .447 1 1v.002c.553 0 1 .446 1 .999 0 .552-.447.999-1 .999z"/><path d="m53 62.002c-.553 0-1-.447-1-1s.447-1 1-1h.002c0-.553.446-1 .999-1 .552 0 .999.447.999 1 0 1.102-.897 2-2 2z"/><path d="m54 61.002c-.553 0-1-.447-1-1v-6.998c0-.553.447-1 1-1s1 .447 1 1v6.998c0 .553-.447 1-1 1z"/><path d="m53 62.002h-41.999c-.553 0-1-.447-1-1s.447-1 1-1h41.999c.553 0 1 .447 1 1s-.447 1-1 1z"/><path d="m25 46.004c-.553 0-1-.447-1-1v-5.731c0-.553.447-1 1-1s1 .447 1 1v5.731c0 .553-.447 1-1 1z"/><path d="m39 46.003c-.553 0-1-.447-1-1v-5.73c0-.553.447-1 1-1s1 .447 1 1v5.73c0 .553-.447 1-1 1z"/><path d="m32 42.003c-8.822 0-16-7.178-16-16 0-.553.447-1 1-1s1 .447 1 1c0 7.72 6.28 14 14 14s14-6.28 14-14c0-.553.447-1 1-1s1 .447 1 1c0 8.822-7.178 16-16 16z"/><path d="m17 27.003c-.553 0-1-.447-1-1v-7c0-.553.447-1 1-1s1 .447 1 1v7c0 .553-.447 1-1 1z"/><path d="m47 27.003c-.553 0-1-.448-1-1l.002-7.002c0-.553.448-1 1-1 .553 0 1 .448 1 1l-.002 7.002c0 .553-.448 1-1 1z"/><path d="m32 53.005c-.266 0-.52-.105-.707-.293l-7-7.003c-.391-.391-.391-1.023 0-1.414s1.023-.391 1.414 0l6.293 6.296 6.293-6.296c.391-.391 1.023-.391 1.414 0s.391 1.023 0 1.414l-7 7.003c-.187.187-.441.293-.707.293z"/><path d="m47.005 20h-29.994c-.553 0-1-.447-1-1v-12.002c0-2.757 2.243-5 5-5h21.994c2.757 0 5 2.243 5 5v12.002c0 .553-.447 1-1 1zm-28.994-2h27.994v-11.002c0-1.654-1.346-3-3-3h-21.994c-1.654 0-3 1.346-3 3z"/><path d="m32.008 15.998c-.553 0-1-.447-1-1v-8c0-.553.447-1 1-1s1 .447 1 1v8c0 .553-.447 1-1 1z"/><path d="m36.008 11.998h-8c-.553 0-1-.447-1-1s.447-1 1-1h8c.553 0 1 .447 1 1s-.447 1-1 1z"/><path d="m41 39.006h-18c-.553 0-1-.447-1-1v-11.001c0-.553.447-1 1-1h18c.553 0 1 .447 1 1v11.001c0 .553-.447 1-1 1zm-17-2h16v-9.001h-16z"/><path d="m42 39.006h-1c-.553 0-1-.447-1-1s.447-1 1-1h1c.553 0 1 .447 1 1s-.447 1-1 1z"/><path d="m23 39.006h-1c-.553 0-1-.447-1-1s.447-1 1-1h1c.553 0 1 .447 1 1s-.447 1-1 1z"/><path d="m23 28.005h-7c-.553 0-1-.447-1-1s.447-1 1-1h7c.553 0 1 .447 1 1s-.447 1-1 1z"/><path d="m48 28.005h-7c-.553 0-1-.447-1-1s.447-1 1-1h7c.553 0 1 .447 1 1s-.447 1-1 1z"/><path d="m37 32.002h-10c-.553 0-1-.447-1-1s.447-1 1-1h10c.553 0 1 .447 1 1s-.447 1-1 1z"/><path d="m37 35.001h-10c-.553 0-1-.447-1-1s.447-1 1-1h10c.553 0 1 .447 1 1s-.447 1-1 1z"/></svg>