<svg id="icons" enable-background="new 0 0 64 64" height="512" viewBox="0 0 64 64" width="512" xmlns="http://www.w3.org/2000/svg"><path d="m45.5 2.5v5.5h-3v-5.5c0 .83.67 1.5 1.5 1.5.82 0 1.5-.67 1.5-1.5z" fill="#d3374e"/><path d="m45.5 2.5c0 .83-.68 1.5-1.5 1.5-.83 0-1.5-.67-1.5-1.5s.67-1.5 1.5-1.5c.82 0 1.5.67 1.5 1.5z" fill="#da4453"/><path d="m38 4c.83 0 1.5-.67 1.5-1.5v5.5h-3v-5.5c0 .83.67 1.5 1.5 1.5z" fill="#d3374e"/><path d="m33.5 2.5v5.5h-3v-5.5c0 .83.67 1.5 1.5 1.5s1.5-.67 1.5-1.5z" fill="#d3374e"/><g fill="#da4453"><circle cx="38" cy="2.5" r="1.5"/><circle cx="32" cy="2.5" r="1.5"/><path d="m30.5 14c-9.94 0-18 8.06-18 18v-6c0-3.69 1.1-7.11 3-9.96 1.54-2.31 3.59-4.24 6-5.64 2.64-1.53 5.72-2.4 9-2.4h3 3 3 3 3 3c-1.66 0-3 1.34-3 3s1.34 3.01 3 3.01h-17.53c-.16-.01-.31-.01-.47-.01z"/><path d="m15.5 4.16c-.01-.05-.01-.11-.01-.16 0-1.66 1.35-3 3.01-3 1.65 0 3 1.34 3 3s-1.35 3.01-3 3.01c-1.61 0-2.92-1.26-3-2.85z"/></g><path d="m21.5 4v6.4c-2.41 1.399-4.46 3.33-6 5.64v-11.88c.08 1.59 1.39 2.85 3 2.85 1.65 0 3-1.35 3-3.01z" fill="#d3374e"/><path d="m48.5 8c1.66 0 3 1.34 3 3s-1.34 3.01-3 3.01-3-1.35-3-3.01 1.34-3 3-3z" fill="#ed5565"/><path d="m30.5 14.01h.47c9.72.25 17.53 8.21 17.53 17.99v25c0 3.32-2.68 6-6 6-16.58 0-30-13.42-30-30v-1c0-9.94 8.06-18 18-18z" fill="#ed5565"/><path d="m48.498 33.004c-.553 0-1-.447-1-1 0-9.374-7.626-17-17-17s-17 7.626-17 17c0 .553-.447 1-1 1s-1-.447-1-1c0-10.477 8.523-19 19-19s19 8.523 19 19c0 .553-.447 1-1 1z"/><path d="m42.498 64c-17.094 0-31-13.906-31-31 0-.553.447-1 1-1s1 .447 1 1c0 15.99 13.01 29 29 29 .553 0 1 .447 1 1s-.447 1-1 1z"/><path d="m12.498 34c-.553 0-1-.447-1-1v-7.002c0-.553.447-1 1-1s1 .447 1 1v7.002c0 .553-.447 1-1 1z"/><path d="m42.499 64.002c-.553 0-1-.447-1-1s.447-1 1-1c2.757 0 5-2.243 5-5 0-.553.447-1 1-1s1 .447 1 1c0 3.859-3.141 7-7 7z"/><path d="m48.5 58.002c-.553 0-1-.447-1-1v-24.998c0-.553.447-1 1-1s1 .447 1 1v24.998c0 .553-.447 1-1 1z"/><path d="m48.498 9.004h-18c-.553 0-1-.447-1-1s.447-1 1-1h18c.553 0 1 .447 1 1s-.447 1-1 1z"/><path d="m48.498 15.006h-18c-.553 0-1-.447-1-1s.447-1 1-1h18c.553 0 1 .447 1 1s-.447 1-1 1z"/><path d="m12.498 26.998c-.553 0-1-.447-1-1 0-10.477 8.523-19 19-19 .553 0 1 .447 1 1s-.447 1-1 1c-9.374 0-17 7.626-17 17 0 .553-.447 1-1 1z"/><path d="m45.495 8.998c-.553 0-1-.447-1-1v-5.496c0-.553.447-1 1-1s1 .447 1 1v5.496c0 .553-.447 1-1 1z"/><path d="m42.495 8.998c-.553 0-1-.447-1-1v-5.496c0-.553.447-1 1-1s1 .447 1 1v5.496c0 .553-.447 1-1 1z"/><path d="m43.995 5.002c-1.379 0-2.5-1.121-2.5-2.5s1.121-2.5 2.5-2.5 2.5 1.121 2.5 2.5-1.121 2.5-2.5 2.5zm0-3c-.275 0-.5.225-.5.5s.225.5.5.5.5-.225.5-.5-.224-.5-.5-.5z"/><path d="m39.497 8.998c-.553 0-1-.447-1-1v-5.496c0-.553.447-1 1-1s1 .447 1 1v5.496c0 .553-.447 1-1 1z"/><path d="m36.497 8.998c-.553 0-1-.447-1-1v-5.496c0-.553.447-1 1-1s1 .447 1 1v5.496c0 .553-.447 1-1 1z"/><path d="m37.997 5.002c-1.379 0-2.5-1.121-2.5-2.5s1.121-2.5 2.5-2.5 2.5 1.121 2.5 2.5-1.121 2.5-2.5 2.5zm0-3c-.275 0-.5.225-.5.5s.225.5.5.5.5-.225.5-.5-.225-.5-.5-.5z"/><path d="m33.499 8.998c-.553 0-1-.447-1-1v-5.496c0-.553.447-1 1-1s1 .447 1 1v5.496c0 .553-.447 1-1 1z"/><path d="m30.499 8.998c-.553 0-1-.447-1-1v-5.496c0-.553.447-1 1-1s1 .447 1 1v5.496c0 .553-.447 1-1 1z"/><path d="m31.999 5.002c-1.379 0-2.5-1.121-2.5-2.5s1.121-2.5 2.5-2.5 2.5 1.121 2.5 2.5-1.121 2.5-2.5 2.5zm0-3c-.275 0-.5.225-.5.5s.225.5.5.5.5-.225.5-.5-.225-.5-.5-.5z"/><path d="m15.495 17.045c-.553 0-1-.447-1-1v-12.043c0-.553.447-1 1-1s1 .447 1 1v12.043c0 .553-.447 1-1 1z"/><path d="m21.496 11.402c-.553 0-1-.447-1-1v-6.4c0-.553.447-1 1-1s1 .447 1 1v6.4c0 .553-.447 1-1 1z"/><path d="m48.498 15.006c-2.207 0-4.003-1.796-4.003-4.004s1.796-4.004 4.003-4.004c2.208 0 4.004 1.796 4.004 4.004s-1.796 4.004-4.004 4.004zm0-6.008c-1.104 0-2.003.899-2.003 2.004s.898 2.004 2.003 2.004 2.004-.899 2.004-2.004-.899-2.004-2.004-2.004z"/><path d="m18.495 8.006c-2.207 0-4.003-1.796-4.003-4.004s1.796-4.004 4.003-4.004c2.208 0 4.004 1.796 4.004 4.004s-1.796 4.004-4.004 4.004zm0-6.008c-1.104 0-2.003.899-2.003 2.004s.898 2.004 2.003 2.004 2.004-.899 2.004-2.004-.899-2.004-2.004-2.004z"/><path d="m30.498 35.002c-.553 0-1-.447-1-1v-19.998c0-.553.447-1 1-1s1 .447 1 1v19.998c0 .553-.447 1-1 1z"/><path d="m24.498 41.002c-.553 0-1-.447-1-1s.447-1 1-1c2.757 0 5-2.243 5-5 0-.553.447-1 1-1s1 .447 1 1c0 3.859-3.141 7-7 7z"/><path d="m36.493 27.988c-3.859 0-7-3.141-7-7 0-.553.447-1 1-1s1 .447 1 1c0 2.757 2.243 5 5 5 .553 0 1 .447 1 1s-.447 1-1 1z"/></svg>