<svg id="icons" enable-background="new 0 0 64 64" height="512" viewBox="0 0 64 64" width="512" xmlns="http://www.w3.org/2000/svg"><path d="m43 28.5h18v32h-18z" fill="#ccd1d9"/><path d="m32 16.5h-11v12 32h7v-10h8v10h7v-32-12z" fill="#e6e9ed"/><path d="m3 28.5h18v32h-18z" fill="#ccd1d9"/><path d="m47 41.5h5v5h-5z" fill="#5d9cec"/><circle cx="32" cy="8.5" fill="#ed5565" r="5"/><g fill="#5d9cec"><path d="m27 23.5h5v5h-5z"/><path d="m32 32.5h5v5h-5z"/><path d="m47 32.5h5v5h-5z"/><path d="m47 50.5h5v5h-5z"/><path d="m32 41.5h5v5h-5z"/><path d="m52 41.5h5v5h-5z"/><path d="m52 32.5h5v5h-5z"/><path d="m27 32.5h5v5h-5z"/><path d="m27 41.5h5v5h-5z"/><path d="m7 50.5h5v5h-5z"/><path d="m12 50.5h5v5h-5z"/></g><path d="m28 50.5h8v10h-8z" fill="#ed5565"/><path d="m12 32.5h5v5h-5z" fill="#5d9cec"/><path d="m7 41.5h5v5h-5z" fill="#5d9cec"/><path d="m12 41.5h5v5h-5z" fill="#5d9cec"/><path d="m32 23.5h5v5h-5z" fill="#5d9cec"/><path d="m52 50.5h5v5h-5z" fill="#5d9cec"/><path d="m7 32.5h5v5h-5z" fill="#5d9cec"/><path d="m63 61.5h-62c-.553 0-1-.447-1-1s.447-1 1-1h62c.553 0 1 .447 1 1s-.447 1-1 1z"/><path d="m42.999 61.5h-21.998c-.553 0-1-.447-1-1v-44c0-.553.447-1 1-1h21.998c.553 0 1 .447 1 1v44c0 .553-.447 1-1 1zm-20.998-2h19.998v-42h-19.998z"/><path d="m60.999 61.5h-17.998c-.553 0-1-.447-1-1v-32c0-.553.447-1 1-1h17.998c.553 0 1 .447 1 1v32c0 .553-.447 1-1 1zm-16.998-2h15.998v-30h-15.998z"/><path d="m21 61.5h-17.998c-.553 0-1-.447-1-1v-32c0-.553.447-1 1-1h17.998c.553 0 1 .447 1 1v32c0 .553-.447 1-1 1zm-16.998-2h15.998v-30h-15.998z"/><path d="m17.001 38.5h-10.001c-.553 0-1-.447-1-1v-5c0-.553.447-1 1-1h10.001c.553 0 1 .447 1 1v5c0 .553-.447 1-1 1zm-9.001-2h8.001v-3h-8.001z"/><path d="m12.001 38.5c-.553 0-1-.447-1-1v-5c0-.553.447-1 1-1s1 .447 1 1v5c0 .553-.447 1-1 1z"/><path d="m17.001 47.5h-10.001c-.553 0-1-.447-1-1v-5c0-.553.447-1 1-1h10.001c.553 0 1 .447 1 1v5c0 .553-.447 1-1 1zm-9.001-2h8.001v-3h-8.001z"/><path d="m12.001 47.5c-.553 0-1-.447-1-1v-4.998c0-.553.447-1 1-1s1 .447 1 1v4.998c0 .553-.447 1-1 1z"/><path d="m17.001 56.502h-10.001c-.553 0-1-.447-1-1v-5c0-.553.447-1 1-1h10.001c.553 0 1 .447 1 1v5c0 .553-.447 1-1 1zm-9.001-2h8.001v-3h-8.001z"/><path d="m12.001 56.502c-.553 0-1-.447-1-1v-5c0-.553.447-1 1-1s1 .447 1 1v5c0 .553-.447 1-1 1z"/><path d="m57 38.5h-10.001c-.553 0-1-.447-1-1v-5c0-.553.447-1 1-1h10.001c.553 0 1 .447 1 1v5c0 .553-.447 1-1 1zm-9.001-2h8.001v-3h-8.001z"/><path d="m52 38.5c-.553 0-1-.447-1-1v-5c0-.553.447-1 1-1s1 .447 1 1v5c0 .553-.447 1-1 1z"/><path d="m37.001 29.502h-10.001c-.553 0-1-.447-1-1v-5c0-.553.447-1 1-1h10.001c.553 0 1 .447 1 1v5c0 .553-.447 1-1 1zm-9.001-2h8.001v-3h-8.001z"/><path d="m32.001 29.502c-.553 0-1-.447-1-1v-5c0-.553.447-1 1-1s1 .447 1 1v5c0 .553-.447 1-1 1z"/><path d="m37.001 38.502h-10.001c-.553 0-1-.447-1-1v-5c0-.553.447-1 1-1h10.001c.553 0 1 .447 1 1v5c0 .553-.447 1-1 1zm-9.001-2h8.001v-3h-8.001z"/><path d="m32.001 38.502c-.553 0-1-.447-1-1v-5c0-.553.447-1 1-1s1 .447 1 1v5c0 .553-.447 1-1 1z"/><path d="m37.001 47.5h-10.001c-.553 0-1-.447-1-1v-5c0-.553.447-1 1-1h10.001c.553 0 1 .447 1 1v5c0 .553-.447 1-1 1zm-9.001-2h8.001v-3h-8.001z"/><path d="m32.001 47.5c-.553 0-1-.447-1-1v-4.998c0-.553.447-1 1-1s1 .447 1 1v4.998c0 .553-.447 1-1 1z"/><path d="m57 47.5h-10.001c-.553 0-1-.447-1-1v-5c0-.553.447-1 1-1h10.001c.553 0 1 .447 1 1v5c0 .553-.447 1-1 1zm-9.001-2h8.001v-3h-8.001z"/><path d="m52 47.5c-.553 0-1-.447-1-1v-4.998c0-.553.447-1 1-1s1 .447 1 1v4.998c0 .553-.447 1-1 1z"/><path d="m57 56.502h-10.001c-.553 0-1-.447-1-1v-5c0-.553.447-1 1-1h10.001c.553 0 1 .447 1 1v5c0 .553-.447 1-1 1zm-9.001-2h8.001v-3h-8.001z"/><path d="m52 56.502c-.553 0-1-.447-1-1v-5c0-.553.447-1 1-1s1 .447 1 1v5c0 .553-.447 1-1 1z"/><path d="m36 61.5h-8c-.553 0-1-.447-1-1v-10c0-.553.447-1 1-1h8c.553 0 1 .447 1 1v10c0 .553-.447 1-1 1zm-7-2h6v-8h-6z"/><path d="m44 17.5h-24c-.553 0-1-.447-1-1s.447-1 1-1h24c.553 0 1 .447 1 1s-.447 1-1 1z"/><path d="m62 29.5h-1.001c-.553 0-1-.447-1-1s.447-1 1-1h1.001c.553 0 1 .447 1 1s-.447 1-1 1z"/><path d="m3.002 29.5h-1.002c-.553 0-1-.447-1-1s.447-1 1-1h1.002c.553 0 1 .447 1 1s-.447 1-1 1z"/><path d="m32 17.5c-.553 0-1-.447-1-1v-3c0-.553.447-1 1-1s1 .447 1 1v3c0 .553-.447 1-1 1z"/><path d="m31.999 14.5c-3.309 0-6-2.691-6-6s2.691-6 6-6 6 2.691 6 6-2.691 6-6 6zm0-10c-2.206 0-4 1.794-4 4s1.794 4 4 4 4-1.794 4-4-1.794-4-4-4z"/><path d="m32 11.5c-.553 0-1-.447-1-1v-4c0-.553.447-1 1-1s1 .447 1 1v4c0 .553-.447 1-1 1z"/><path d="m34 9.5h-4c-.553 0-1-.447-1-1s.447-1 1-1h4c.553 0 1 .447 1 1s-.447 1-1 1z"/></svg>