<svg id="icons" enable-background="new 0 0 64 64" height="512" viewBox="0 0 64 64" width="512" xmlns="http://www.w3.org/2000/svg"><path d="m37 9.005c0 1.1-.9 2-2 2-1.11 0-2-.9-2-2 0-1.11.89-2 2-2 1.1 0 2 .89 2 2z" fill="#da4453"/><path d="m37 9.005v7h-4v-7c0 1.1.89 2 2 2 1.1 0 2-.901 2-2z" fill="#ed5565"/><path d="m11 53.005h8c-.01 2.21-1.79 3.99-4 3.99s-3.99-1.78-4-3.99z" fill="#a0d468"/><path d="m63 20.005c0 11.05-8.94 20-20 20-1.1 0-2-.9-2-2v-20c0-1.11.89-2 2-2h18c1.11 0 2 .89 2 2z" fill="#844747"/><path d="m41 18.005v20c0 3.39-1.12 6.5-3 9.01-.86 1.13-1.87 2.141-3 2.99-2.51 1.88-5.63 3-9 3h-7-8-8c-1.11 0-2-.9-2-2v-19c0-8.85 7.16-16 16-16h16 4 2c1.11 0 2 .89 2 2z" fill="#965353"/><path d="m1 33.003c-.553 0-1-.447-1-1 0-9.374 7.626-17 17-17 .553 0 1 .447 1 1s-.447 1-1 1c-8.271 0-15 6.729-15 15 0 .553-.447 1-1 1z"/><path d="m39 17.003h-22c-.553 0-1-.447-1-1s.447-1 1-1h22c.553 0 1 .447 1 1s-.447 1-1 1z"/><path d="m43.002 41.005c-.553 0-1-.447-1-1s.447-1 1-1c10.476 0 18.998-8.523 18.998-18.998 0-.553.447-1 1-1s1 .447 1 1c0 11.578-9.42 20.998-20.998 20.998z"/><path d="m63 19.005c-.553 0-1-.447-1-1 0-.552-.448-1-1-1-.553 0-1-.447-1-1s.447-1 1-1c1.654 0 3 1.346 3 3 0 .553-.447 1-1 1z"/><path d="m41 19.005c-.553 0-1-.447-1-1 0-1.654 1.346-3 3-3 .553 0 1 .447 1 1s-.447 1-1 1c-.552 0-1 .448-1 1 0 .553-.447 1-1 1z"/><path d="m43.002 41.002c-.802 0-1.556-.312-2.122-.878-.566-.567-.879-1.321-.878-2.123.001-.552.448-.999 1-.999h.001c.552.001 1 .448.999 1.001 0 .267.104.518.292.706.188.189.44.293.708.293.553 0 1 .447 1 1s-.447 1-1 1z"/><path d="m41 19.003c-.553 0-1-.447-1-1 0-.552-.448-1-1-1-.553 0-1-.447-1-1s.447-1 1-1c1.654 0 3 1.346 3 3 0 .553-.447 1-1 1z"/><path d="m61 17.005h-18c-.553 0-1-.447-1-1s.447-1 1-1h18c.553 0 1 .447 1 1s-.447 1-1 1z"/><path d="m41 57.003c-.553 0-1-.447-1-1v-38c0-.553.447-1 1-1s1 .447 1 1v38c0 .553-.447 1-1 1z"/><path d="m63 21.007c-.553 0-1-.447-1-1v-2.002c0-.553.447-1 1-1s1 .447 1 1v2.002c0 .553-.447 1-1 1z"/><path d="m26 54.004c-.553 0-1-.447-1-1s.447-1 1-1c7.721 0 14.002-6.281 14.002-14.002 0-.553.447-1 1-1s1 .447 1 1c0 8.823-7.179 16.002-16.002 16.002z"/><path d="m1 52.001c-.553 0-1-.447-1-1v-18.998c0-.553.447-1 1-1s1 .447 1 1v18.998c0 .553-.447 1-1 1z"/><path d="m26 54.003h-22.998c-.553 0-1-.447-1-1s.447-1 1-1h22.998c.553 0 1 .447 1 1s-.447 1-1 1z"/><path d="m3 54.001c-1.654 0-3-1.346-3-3 0-.553.447-1 1-1s1 .447 1 1c0 .552.448 1 1 1 .553 0 1 .447 1 1s-.447 1-1 1z"/><path d="m15 57.997c-2.757 0-5-2.243-5-5 0-.553.447-1 1-1s1 .447 1 1c0 1.654 1.346 3 3 3s3-1.346 3-3c0-.553.447-1 1-1s1 .447 1 1c0 2.757-2.243 5-5 5z"/><path d="m37 17.005c-.553 0-1-.447-1-1v-7.004c0-.553.447-1 1-1s1 .447 1 1v7.004c0 .553-.447 1-1 1z"/><path d="m32.999 17.005c-.553 0-1-.447-1-1v-7.004c0-.553.447-1 1-1s1 .447 1 1v7.004c0 .553-.447 1-1 1z"/><path d="m35 12.004c-1.654 0-3.001-1.347-3.001-3.001s1.347-3 3.001-3 3 1.346 3 3-1.346 3.001-3 3.001zm0-4.001c-.552 0-1.001.448-1.001 1s.449 1.001 1.001 1.001 1-.449 1-1.001-.448-1-1-1z"/><path d="m38.002 57.005c-.553 0-1-.447-1-1v-8.993c0-.553.447-1 1-1s1 .447 1 1v8.993c0 .553-.447 1-1 1z"/><path d="m35.002 57.005c-.553 0-1-.447-1-1v-5.995c0-.553.447-1 1-1s1 .447 1 1v5.995c0 .553-.447 1-1 1z"/></svg>