<svg id="icons" enable-background="new 0 0 64 64" height="512" viewBox="0 0 64 64" width="512" xmlns="http://www.w3.org/2000/svg"><path d="m41.55 55.965c-.01.021-.01.04-.021.051-1.279 4.05-5.06 6.979-9.529 6.979-4.48 0-8.261-2.93-9.54-6.99l-.021.011h-1.439v-.011c-4.971 0-9-4.02-9-9 0-4.97 4.029-9 9-9l3.06-30.01c.49-3.94 3.86-6.99 7.94-6.99 4.079 0 7.439 3.05 7.939 6.99l3.061 30.01c4.97 0 9 4.03 9 9 0 4.98-4.03 9-9 9z" fill="#eac6bb"/><path d="m21.002 57.01c-5.514 0-10-4.486-10-10s4.486-10 10-10c.553 0 1 .447 1 1s-.447 1-1 1c-4.411 0-8 3.589-8 8s3.589 8 8 8c.553 0 1 .447 1 1s-.447 1-1 1z"/><path d="m20.999 39.01c-.034 0-.068-.002-.103-.005-.55-.057-.949-.547-.894-1.097l3.064-30.01c.057-.55.559-.94 1.097-.894.55.057.949.547.894 1.097l-3.064 30.01c-.053.515-.487.899-.994.899z"/><path d="m42.998 57.01c-.553 0-1-.447-1-1s.447-1 1-1c4.411 0 8-3.589 8-8s-3.589-8-8-8c-.553 0-1-.447-1-1s.447-1 1-1c5.514 0 10 4.486 10 10s-4.486 10-10 10z"/><path d="m31.998 63.999c-6.065 0-11-4.935-11-11 0-.553.447-1 1-1s1 .447 1 1c0 4.963 4.037 9 9 9s9-4.037 9-9c0-.553.447-1 1-1s1 .447 1 1c0 6.065-4.935 11-11 11z"/><path d="m42.997 39.01c-.507 0-.941-.384-.994-.898l-3.061-30.01c-.056-.55.344-1.04.894-1.097.565-.046 1.041.346 1.097.894l3.061 30.01c.056.55-.344 1.04-.894 1.097-.035.002-.07.004-.103.004z"/><path d="m41.999 53.998c-.553 0-1-.447-1-1 0-2.206 1.794-4.001 4-4.001.553 0 1 .447 1 1s-.447 1-1 1c-1.103 0-2 .897-2 2.001 0 .553-.447 1-1 1z"/><path d="m21.997 53.998c-.553 0-1-.447-1-1 0-1.103-.897-1.999-2-1.999-.553 0-1-.447-1-1s.447-1 1-1c2.206 0 4 1.794 4 3.999 0 .553-.447 1-1 1z"/><path d="m22.441 57.012h-1.439c-.553 0-1-.447-1-1s.447-1 1-1h1.439c.553 0 1 .447 1 1s-.447 1-1 1z"/><path d="m42.998 57.012h-1.463c-.553 0-1-.447-1-1s.447-1 1-1h1.463c.553 0 1 .447 1 1s-.447 1-1 1z"/><path d="m39.937 9c-.497 0-.928-.37-.991-.876-.436-3.491-3.423-6.123-6.946-6.123-3.524 0-6.511 2.632-6.946 6.123-.068.548-.563.933-1.116.868-.548-.068-.937-.568-.868-1.116.56-4.489 4.399-7.875 8.93-7.875 4.53 0 8.369 3.386 8.93 7.875.068.548-.32 1.048-.868 1.116-.042.005-.084.008-.125.008z"/></svg>