<svg id="icons" enable-background="new 0 0 64 64" height="512" viewBox="0 0 64 64" width="512" xmlns="http://www.w3.org/2000/svg"><path d="m59.5 32v18c0 1.12-.14 2.21-.41 3.25-.109.41-.229.82-.38 1.22-.14.4-.31.79-.49 1.17-1.279 2.65-3.43 4.801-6.08 6.08-.38.181-.77.351-1.17.49-.399.15-.81.271-1.22.38-1.04.27-2.13.41-3.25.41-7.18 0-13-5.82-13-13v-18z" fill="#ed5565"/><path d="m59.5 14v18h-26v-18c0-7.18 5.82-13 13-13s13 5.82 13 13z" fill="#e6e9ed"/><path d="m55.496 32v18c0 1.12-.14 2.21-.41 3.25-.109.41-.229.82-.38 1.22-.14.4-.31.79-.49 1.17-1.279 2.65-3.43 4.801-6.08 6.08-.38.181-.77.351-1.17.49-.399.15-.81.271-1.22.38-.407.105-.828.175-1.25.24.655.102 1.32.17 2.004.17 1.12 0 2.21-.14 3.25-.41.41-.109.82-.229 1.22-.38.4-.14.79-.31 1.17-.49 2.65-1.279 4.801-3.43 6.08-6.08.181-.38.351-.77.49-1.17.15-.399.271-.81.38-1.22.271-1.04.41-2.13.41-3.25v-18z" fill="#da4453"/><path d="m46.5 1c-.683 0-1.348.068-2.002.17 6.227.965 10.998 6.333 10.998 12.83v18h4.004v-18c0-7.18-5.82-13-13-13z" fill="#ccd1d9"/><path d="m28.5 46c0 .34-.01.67-.04 1-.24 2.91-1.52 5.53-3.47 7.48l-16.98-16.97c2.17-2.17 5.17-3.51 8.49-3.51 6.63 0 12 5.37 12 12z" fill="#5d9cec"/><path d="m4.5 46c0-3.32 1.34-6.32 3.51-8.49l16.98 16.97c-2.17 2.18-5.17 3.52-8.49 3.52-6.63 0-12-5.38-12-12z" fill="#5d9cec"/><path d="m28.5 13.99v4c0 6.62-5.37 12-12 12s-12-5.38-12-12v-4c0 3.31 1.34 6.31 3.51 8.479s5.17 3.521 8.49 3.521c6.63 0 12-5.38 12-12z" fill="#da4453"/><path d="m28.5 50c0 6.62-5.37 12-12 12s-12-5.38-12-12v-4c0 6.62 5.37 12 12 12 3.32 0 6.32-1.34 8.49-3.52 1.95-1.95 3.229-4.57 3.47-7.48h.04z" fill="#4a89dc"/><path d="m28.5 13.99c0 6.62-5.37 12-12 12-3.32 0-6.32-1.351-8.49-3.521l16.98-16.969c2.17 2.18 3.51 5.18 3.51 8.49z" fill="#ed5565"/><path d="m24.99 5.5-16.98 16.97c-2.17-2.17-3.51-5.17-3.51-8.48 0-6.63 5.37-12 12-12 3.32 0 6.32 1.34 8.49 3.51z" fill="#ed5565"/><path d="m16.5 26.986c-7.168 0-13-5.832-13-13s5.832-13 13-13 13 5.832 13 13-5.832 13-13 13zm0-24c-6.065 0-11 4.935-11 11s4.935 11 11 11 11-4.935 11-11-4.935-11-11-11z"/><path d="m16.5 30.986c-7.168 0-13-5.832-13-13 0-.553.447-1 1-1s1 .447 1 1c0 6.065 4.935 11 11 11s11-4.935 11-11c0-.553.447-1 1-1s1 .447 1 1c0 7.168-5.832 13-13 13z"/><path d="m4.5 18.986c-.553 0-1-.447-1-1v-4c0-.553.447-1 1-1s1 .447 1 1v4c0 .553-.447 1-1 1z"/><path d="m28.5 18.986c-.553 0-1-.447-1-1v-4c0-.553.447-1 1-1s1 .447 1 1v4c0 .553-.447 1-1 1z"/><path d="m8.015 23.473c-.256 0-.512-.098-.707-.293-.391-.391-.391-1.023 0-1.414l16.97-16.971c.391-.391 1.023-.391 1.414 0s.391 1.023 0 1.414l-16.97 16.971c-.196.195-.451.293-.707.293z"/><path d="m16.5 58.998c-7.168 0-13-5.832-13-13s5.832-13 13-13 13 5.832 13 13-5.832 13-13 13zm0-24c-6.065 0-11 4.935-11 11s4.935 11 11 11 11-4.935 11-11-4.935-11-11-11z"/><path d="m16.5 62.998c-7.168 0-13-5.832-13-13 0-.553.447-1 1-1s1 .447 1 1c0 6.065 4.935 11 11 11s11-4.935 11-11c0-.553.447-1 1-1s1 .447 1 1c0 7.168-5.832 13-13 13z"/><path d="m28.5 51.998c-.553 0-1-.447-1-1v-4c0-.553.447-1 1-1s1 .447 1 1v4c0 .553-.447 1-1 1z"/><path d="m4.5 50.998c-.553 0-1-.447-1-1v-4c0-.553.447-1 1-1s1 .447 1 1v4c0 .553-.447 1-1 1z"/><path d="m24.985 55.482c-.256 0-.512-.098-.707-.293l-16.97-16.97c-.391-.391-.391-1.023 0-1.414s1.023-.391 1.414 0l16.971 16.971c.391.391.391 1.023 0 1.414-.196.195-.452.292-.708.292z"/><path d="m59.5 15c-.553 0-1-.447-1-1 0-6.617-5.383-12-12-12s-12 5.383-12 12c0 .553-.447 1-1 1s-1-.447-1-1c0-7.72 6.28-14 14-14s14 6.28 14 14c0 .553-.447 1-1 1z"/><path d="m46.5 64c-7.72 0-14-6.28-14-14 0-.553.447-1 1-1s1 .447 1 1c0 6.617 5.383 12 12 12s12-5.383 12-12c0-.553.447-1 1-1s1 .447 1 1c0 7.72-6.28 14-14 14z"/><path d="m33.5 51c-.553 0-1-.447-1-1v-36c0-.553.447-1 1-1s1 .447 1 1v36c0 .553-.447 1-1 1z"/><path d="m59.5 51c-.553 0-1-.447-1-1v-36c0-.553.447-1 1-1s1 .447 1 1v36c0 .553-.447 1-1 1z"/><path d="m59.5 33h-26c-.553 0-1-.447-1-1s.447-1 1-1h26c.553 0 1 .447 1 1s-.447 1-1 1z"/><path d="m46.5 64c-.553 0-1-.447-1-1s.447-1 1-1c6.617 0 12-5.383 12-12 0-.553.447-1 1-1s1 .447 1 1c0 7.72-6.28 14-14 14z"/></svg>