<?xml version="1.0" encoding="iso-8859-1"?>
<!-- Generator: Adobe Illustrator 19.0.0, SVG Export Plug-In . SVG Version: 6.00 Build 0)  -->
<svg version="1.1" id="Layer_1" xmlns="http://www.w3.org/2000/svg" xmlns:xlink="http://www.w3.org/1999/xlink" x="0px" y="0px"
	 viewBox="0 0 512 512" style="enable-background:new 0 0 512 512;" xml:space="preserve">
<path style="fill:#E5E8EC;" d="M507.688,256c0,138.984-112.688,251.672-251.672,251.672C117.023,507.672,4.352,394.984,4.352,256
	c0-138.992,112.672-251.664,251.664-251.664C395,4.336,507.688,117.008,507.688,256z"/>
<g>
	<circle style="fill:#424953;" cx="140.33" cy="103" r="17.664"/>
	<path style="fill:#424953;" d="M253,128c0,16.016-12.984,29-29,29s-29-12.984-29-29s12.984-28.992,29-28.992S253,111.984,253,128z"
		/>
	<path style="fill:#424953;" d="M395.656,106.664c0,16.016-12.969,29-29,29c-16,0-29-12.984-29-29s13-28.992,29-28.992
		C382.688,77.672,395.656,90.648,395.656,106.664z"/>
	<path style="fill:#424953;" d="M466.344,277.328c0,16.031-12.984,29-29,29s-29-12.969-29-29c0-16,12.984-28.984,29-28.984
		S466.344,261.328,466.344,277.328z"/>
	<path style="fill:#424953;" d="M445,352c0,16.016-12.984,29-29,29s-29-12.984-29-29s12.984-28.984,29-28.984S445,335.984,445,352z"
		/>
	<circle style="fill:#424953;" cx="277.34" cy="398.67" r="29"/>
	<path style="fill:#424953;" d="M221.008,405.328c0,16.031-12.984,29-29,29s-29-12.969-29-29c0-16,12.984-28.984,29-28.984
		S221.008,389.328,221.008,405.328z"/>
	<path style="fill:#424953;" d="M135.672,256c0,16.016-12.984,29-29,29s-29-12.984-29-29s12.984-28.992,29-28.992
		S135.672,239.984,135.672,256z"/>
</g>
<path d="M256,0C114.625,0,0,114.617,0,256c0,141.391,114.625,256,256,256c141.391,0,256-114.609,256-256
	C512,114.617,397.391,0,256,0z M421.938,421.938c-21.563,21.563-46.656,38.484-74.594,50.297
	c-28.922,12.234-59.656,18.438-91.344,18.438s-62.406-6.203-91.328-18.438c-27.953-11.813-53.047-28.734-74.609-50.297
	c-21.547-21.547-38.469-46.656-50.297-74.594C27.531,318.422,21.344,287.703,21.344,256c0-31.688,6.188-62.414,18.422-91.336
	c11.828-27.938,28.75-53.039,50.297-74.594c21.563-21.563,46.656-38.484,74.609-50.305c28.922-12.227,59.641-18.43,91.328-18.43
	s62.422,6.203,91.344,18.43c27.938,11.82,53.031,28.742,74.594,50.305c21.563,21.555,38.484,46.656,50.297,74.594
	c12.234,28.922,18.438,59.648,18.438,91.336c0,31.703-6.203,62.422-18.438,91.344C460.422,375.281,443.5,400.391,421.938,421.938z"
	/>
<path d="M309.344,448c-5.906,0-10.672,4.781-10.672,10.672s4.766,10.656,10.672,10.656c5.875,0,10.656-4.766,10.656-10.656
	S315.219,448,309.344,448z"/>
<path d="M149.344,330.672c0,5.891,4.766,10.656,10.656,10.656s10.672-4.766,10.672-10.656S165.891,320,160,320
	S149.344,324.781,149.344,330.672z"/>
<path d="M53.344,256c-5.906,0-10.672,4.781-10.672,10.672s4.766,10.656,10.672,10.656c5.875,0,10.656-4.766,10.656-10.656
	S59.219,256,53.344,256z"/>
<path d="M213.344,74.672C219.219,74.672,224,69.891,224,64s-4.781-10.664-10.656-10.664c-5.906,0-10.672,4.773-10.672,10.664
	S207.438,74.672,213.344,74.672z"/>
<path d="M362.672,160c-5.891,0-10.672,4.781-10.672,10.672s4.781,10.664,10.672,10.664s10.672-4.773,10.672-10.664
	S368.563,160,362.672,160z"/>
<path d="M170.672,106.672c0-17.672-14.328-32-32-32s-32,14.328-32,32s14.328,32,32,32S170.672,124.344,170.672,106.672z
	 M138.672,117.336c-5.891,0-10.672-4.781-10.672-10.664S132.781,96,138.672,96c5.875,0,10.672,4.789,10.672,10.672
	S144.547,117.336,138.672,117.336z"/>
<path d="M106.672,224c-17.672,0-32,14.328-32,32s14.328,32,32,32s32-14.328,32-32S124.344,224,106.672,224z M106.672,266.672
	C100.781,266.672,96,261.891,96,256c0-5.875,4.781-10.664,10.672-10.664c5.875,0,10.672,4.789,10.672,10.664
	C117.344,261.891,112.547,266.672,106.672,266.672z"/>
<path d="M309.344,398.672c0-17.672-14.328-32-32-32c-17.688,0-32,14.328-32,32s14.313,32,32,32
	C295.016,430.672,309.344,416.344,309.344,398.672z M277.344,409.328c-5.891,0-10.672-4.781-10.672-10.656S271.453,388,277.344,388
	c5.875,0,10.656,4.797,10.656,10.672S283.219,409.328,277.344,409.328z"/>
<path d="M437.344,245.336c-17.688,0-32,14.328-32,31.992c0,17.688,14.313,32,32,32c17.656,0,32-14.313,32-32
	C469.344,259.664,455,245.336,437.344,245.336z M437.344,288c-5.891,0-10.672-4.781-10.672-10.672
	c0-5.875,4.781-10.656,10.672-10.656c5.875,0,10.656,4.781,10.656,10.656C448,283.219,443.219,288,437.344,288z"/>
<path d="M416,320c-17.672,0-32,14.328-32,32s14.328,32,32,32s32-14.328,32-32S433.672,320,416,320z M416,362.672
	c-5.875,0-10.656-4.781-10.656-10.672c0-5.875,4.781-10.672,10.656-10.672s10.672,4.797,10.672,10.672
	C426.672,357.891,421.875,362.672,416,362.672z"/>
<path d="M192,362.672c-23.563,0-42.656,19.094-42.656,42.656S168.438,448,192,448s42.672-19.109,42.672-42.672
	S215.563,362.672,192,362.672z M192,426.672c-11.766,0-21.328-9.563-21.328-21.344c0-11.75,9.563-21.328,21.328-21.328
	s21.344,9.578,21.344,21.328C213.344,417.109,203.766,426.672,192,426.672z"/>
<path d="M224,170.672c23.563,0,42.672-19.102,42.672-42.672c0-23.563-19.109-42.664-42.672-42.664S181.344,104.438,181.344,128
	C181.344,151.57,200.438,170.672,224,170.672z M224,106.672c11.766,0,21.344,9.57,21.344,21.328
	c0,11.766-9.578,21.336-21.344,21.336s-21.328-9.57-21.328-21.336C202.672,116.242,212.234,106.672,224,106.672z"/>
<path d="M405.344,106.672c0-23.563-19.109-42.672-42.672-42.672S320,83.109,320,106.672s19.109,42.664,42.672,42.664
	S405.344,130.234,405.344,106.672z M341.344,106.672c0-11.766,9.563-21.336,21.328-21.336S384,94.906,384,106.672
	S374.438,128,362.672,128S341.344,118.438,341.344,106.672z"/>
<g>
</g>
<g>
</g>
<g>
</g>
<g>
</g>
<g>
</g>
<g>
</g>
<g>
</g>
<g>
</g>
<g>
</g>
<g>
</g>
<g>
</g>
<g>
</g>
<g>
</g>
<g>
</g>
<g>
</g>
</svg>
