<?xml version="1.0" encoding="iso-8859-1"?>
<!-- Generator: Adobe Illustrator 19.0.0, SVG Export Plug-In . SVG Version: 6.00 Build 0)  -->
<svg version="1.1" id="Layer_1" xmlns="http://www.w3.org/2000/svg" xmlns:xlink="http://www.w3.org/1999/xlink" x="0px" y="0px"
	 viewBox="0 0 512 512" style="enable-background:new 0 0 512 512;" xml:space="preserve">
<circle style="fill:#CBD0D8;" cx="256" cy="253.25" r="251"/>
<g>
	<path style="fill:#424953;" d="M144.75,149.336c0,11.602-7.5,21-16.75,21s-16.75-9.398-16.75-21s7.5-21,16.75-21
		S144.75,137.734,144.75,149.336z"/>
	<path style="fill:#424953;" d="M269.625,100.664C259,95.992,253.422,85.336,257.156,76.875c3.719-8.469,15.344-11.547,25.969-6.867
		c10.625,4.672,16.203,15.328,12.469,23.789C291.875,102.266,280.25,105.344,269.625,100.664z"/>
	<path style="fill:#424953;" d="M385.203,206.711c-10.188-13.945-9.438-31.836,1.703-39.945
		c11.094-8.125,28.375-3.406,38.563,10.539c10.203,13.945,9.422,31.828-1.703,39.938
		C412.656,225.367,395.391,220.664,385.203,206.711z"/>
	<path style="fill:#424953;" d="M384.906,346.328c9.906-14.156,27.078-19.25,38.359-11.313c11.266,7.859,12.391,25.734,2.5,39.891
		c-9.891,14.172-27.063,19.203-38.344,11.313S375,360.484,384.906,346.328z"/>
	<path style="fill:#424953;" d="M258.734,395.953c14.719,9.016,20.844,25.844,13.625,37.594
		c-7.172,11.719-24.938,13.938-39.672,4.922c-14.75-9.016-20.828-25.844-13.625-37.578C226.25,389.141,244,386.922,258.734,395.953z
		"/>
	<path style="fill:#424953;" d="M130.5,311.781c5.063,16.5-1.484,33.172-14.672,37.203c-13.141,4.031-27.922-6.063-33-22.578
		c-5.094-16.516,1.5-33.156,14.672-37.188C110.656,285.172,125.438,295.266,130.5,311.781z"/>
</g>
<path d="M256,0C114.609,0,0,114.617,0,256c0,141.391,114.609,256,256,256s256-114.609,256-256C512,114.617,397.391,0,256,0z
	 M421.938,421.938c-21.563,21.563-46.656,38.484-74.609,50.297c-28.906,12.234-59.641,18.438-91.328,18.438
	s-62.422-6.203-91.328-18.438c-27.953-11.813-53.047-28.734-74.609-50.297c-21.547-21.547-38.484-46.656-50.297-74.594
	C27.531,318.422,21.328,287.703,21.328,256c0-31.688,6.203-62.414,18.438-91.336c11.813-27.938,28.75-53.039,50.297-74.594
	c21.563-21.563,46.656-38.484,74.609-50.305c28.906-12.227,59.641-18.43,91.328-18.43s62.422,6.203,91.328,18.43
	c27.953,11.82,53.047,28.742,74.609,50.305c21.547,21.555,38.484,46.656,50.297,74.594c12.234,28.922,18.438,59.648,18.438,91.336
	c0,31.703-6.203,62.422-18.438,91.344C460.422,375.281,443.484,400.391,421.938,421.938z"/>
<path d="M423.016,319.156c-12.813-0.75-28.5,6.109-41,19.188c-18.469,19.344-23.016,44.984-10.141,57.297
	c4.172,3.969,9.641,6.063,15.766,6.422c12.828,0.75,28.5-6.094,41-19.172c18.484-19.344,23.031-45,10.156-57.313
	C434.625,321.609,429.156,319.516,423.016,319.156z M424.469,347.859c-1.172,6.641-5.266,14.031-11.25,20.281
	c-8.781,9.188-18.547,12.969-24.328,12.625c-1.328-0.063-2.094-0.375-2.281-0.563c-0.375-0.344-1.156-2.625-0.406-6.844
	c1.172-6.625,5.266-14.031,11.25-20.281c8.781-9.188,18.531-12.969,24.328-12.625l0,0c1.328,0.078,2.078,0.375,2.266,0.563
	C424.422,341.359,425.219,343.656,424.469,347.859z"/>
<path d="M257.844,391.109c-4.859-2.203-9.922-3.25-14.813-3.25c-11.766,0-22.563,6.031-27.297,16.5
	c-6.719,14.813,1.25,32.906,17.797,40.406c4.859,2.188,9.922,3.25,14.813,3.25c11.766,0,22.563-6.031,27.313-16.5
	C282.359,416.703,274.391,398.609,257.844,391.109z M256.219,422.703c-1.328,2.938-5.063,3.969-7.875,3.969
	c-2.016,0-4.031-0.453-6-1.344c-3.172-1.438-5.688-3.844-6.922-6.625c-0.625-1.438-1.172-3.531-0.266-5.531
	c1.328-2.938,5.063-3.969,7.875-3.969l0,0c2.016,0,4.031,0.438,6,1.344C255.25,413.359,257.797,419.203,256.219,422.703z"/>
<path d="M413.734,232.664c4.359,0,8.594-1.008,12.438-3.148c15.563-8.641,18.844-32.453,7.344-53.172
	c-8.672-15.602-23.25-25-36.578-25c-4.359,0-8.609,1.008-12.453,3.148c-15.563,8.641-18.844,32.445-7.328,53.164
	C385.828,223.266,400.406,232.664,413.734,232.664z M394.859,173.141c0.344-0.203,0.953-0.461,2.078-0.461l0,0l0,0
	c5.031,0,12.813,4.813,17.922,14.031c6.5,11.703,4.313,22.289,0.953,24.156c-0.359,0.203-0.953,0.461-2.078,0.461
	c-5.047,0-12.813-4.82-17.938-14.031C389.297,185.594,391.484,175.008,394.859,173.141z"/>
<path d="M290.578,55.945c-6.391-2.875-13-4.242-19.266-4.242c-13.391,0-25.266,6.227-30.25,17.289
	c-7.313,16.227,2.984,36.703,23.016,45.734c6.391,2.883,13,4.25,19.281,4.25c13.391,0,25.25-6.234,30.25-17.289
	C320.922,85.453,310.609,64.977,290.578,55.945z M294.156,92.922c-1.281,2.82-5.609,4.719-10.797,4.719
	c-3.453,0-7.078-0.813-10.5-2.359c-5.172-2.336-9.359-6.094-11.484-10.313c-0.813-1.609-2-4.688-0.859-7.211
	c1.266-2.828,5.609-4.727,10.797-4.727c3.438,0,7.078,0.82,10.5,2.367c5.172,2.328,9.359,6.086,11.484,10.305
	C294.109,87.313,295.297,90.391,294.156,92.922z"/>
<path d="M132.906,114.563c-9.641,0-19.781,4.055-27.703,11.977c-14.5,14.508-16.063,36.469-3.469,49.063
	c5.719,5.711,13.359,8.508,21.359,8.508c9.641,0,19.781-4.055,27.703-11.977c14.5-14.5,16.063-36.469,3.469-49.055
	C148.547,117.359,140.906,114.563,132.906,114.563z M141.406,145.383c-0.281,4.078-2.359,8.336-5.703,11.664
	c-3.641,3.641-8.234,5.734-12.609,5.734c-1.828,0-4.391-0.391-6.266-2.266c-2.125-2.117-2.391-5.094-2.234-7.227
	c0.281-4.078,2.359-8.328,5.703-11.664c3.641-3.641,8.234-5.734,12.609-5.734c1.828,0,4.391,0.398,6.266,2.273
	C141.297,140.273,141.563,143.258,141.406,145.383z"/>
<path d="M98.063,277.172c-3.547,0-7.016,0.719-10.25,2.234c-16.156,7.5-20.797,31.766-10.391,54.172
	c8.328,17.922,23.75,29.25,37.844,29.25c3.547,0,7.016-0.719,10.25-2.219c16.156-7.5,20.797-31.75,10.391-54.188
	C127.578,288.516,112.156,277.172,98.063,277.172z M116.531,341.266c-0.219,0.094-0.578,0.219-1.266,0.219
	c-4.422,0-13.078-5.234-18.484-16.875c-3.125-6.734-4.281-13.906-3.172-19.688c0.594-3.125,1.844-5.547,3.188-6.172
	c0.219-0.109,0.594-0.234,1.266-0.234l0,0c4.422,0,13.078,5.25,18.5,16.891C122.969,329.219,119.406,339.922,116.531,341.266z"/>
<g>
</g>
<g>
</g>
<g>
</g>
<g>
</g>
<g>
</g>
<g>
</g>
<g>
</g>
<g>
</g>
<g>
</g>
<g>
</g>
<g>
</g>
<g>
</g>
<g>
</g>
<g>
</g>
<g>
</g>
</svg>
