<?xml version="1.0" encoding="iso-8859-1"?>
<!-- Generator: Adobe Illustrator 19.0.0, SVG Export Plug-In . SVG Version: 6.00 Build 0)  -->
<svg version="1.1" id="Layer_1" xmlns="http://www.w3.org/2000/svg" xmlns:xlink="http://www.w3.org/1999/xlink" x="0px" y="0px"
	 viewBox="0 0 511.999 511.999" style="enable-background:new 0 0 511.999 511.999;" xml:space="preserve">
<polygon style="fill:#EC5564;" points="346.658,271.325 213.658,163.669 168.658,165.997 109.314,186.661 53.987,229.997 
	14.659,279.997 61.986,296.669 113.986,310.981 209.986,414.668 236.658,495.324 303.314,440.668 338.658,381.996 353.314,306.669 
	"/>
<polygon style="fill:#E5E8EC;" points="354.986,46.997 235.486,128.497 166.486,204.497 82.986,350.997 161.986,433.496 
	350.986,315.497 466.486,148.997 "/>
<g>
	<path style="fill:#424953;" d="M252.345,285.325c0,14.172-11.484,25.656-25.656,25.656c-14.188,0-25.672-11.484-25.672-25.656
		s11.484-25.664,25.672-25.664C240.861,259.661,252.345,271.153,252.345,285.325z"/>
	<path style="fill:#424953;" d="M342.846,194.81c0,14.172-11.484,25.664-25.656,25.664c-14.188,0-25.672-11.492-25.672-25.664
		s11.484-25.664,25.672-25.664C331.361,169.145,342.846,180.638,342.846,194.81z"/>
</g>
<polygon style="fill:#EC5564;" points="367.986,47.333 405.986,94.661 474.658,141.997 484.658,108.661 503.314,9.997 "/>
<polygon style="fill:#FFCE54;" points="110.658,377.324 82.986,377.324 53.987,407.324 17.987,498.668 103.314,462.668 
	141.986,423.324 "/>
<path d="M511.986,11.388c0.141-2.883-0.891-6.063-3.094-8.273c-2.219-2.203-5.391-3.234-8.281-3.102
	c-96.625,3.922-209.906,56.594-303.86,150.383c-52.671,3.266-109,28.461-154.39,73.852c-16.094,16.086-29.625,33.547-40.563,51.734
	c-0.094,0.125-0.516,0.828-0.516,0.828c-2.188,4.047-1.578,9.203,1.844,12.609c1.125,1.156,2.453,1.969,3.875,2.469
	c0,0,1.109,0.375,1.609,0.469l73.453,20.469c-5.313,11.594-10.094,23.188-14.281,34.719c-1.281,3.75-0.453,8.047,2.531,11.031
	l8.875,8.874c-6.703,2.891-13.031,7.094-18.578,12.641C38.674,402.027,2.206,511.996,2.206,511.996s109.968-36.469,131.906-58.406
	c5.547-5.547,9.75-11.875,12.656-18.578l6.656,6.672c2.984,2.984,7.297,3.828,11.031,2.531c11.531-4.188,23.125-8.953,34.734-14.281
	l20.453,73.453c0.109,0.5,0.469,1.609,0.469,1.609c0.516,1.422,1.328,2.734,2.469,3.875c3.406,3.422,8.563,4.031,12.609,1.844
	c0,0,0.703-0.422,0.844-0.516c18.172-10.938,35.641-24.469,51.719-40.563c45.391-45.391,70.594-101.719,73.859-154.39
	C455.393,221.286,508.064,108.013,511.986,11.388z M462.861,129.294l-80.156-80.148c36.594-15.078,73.031-24.281,107.25-27.102
	C487.143,56.27,477.939,92.7,462.861,129.294z M27.44,275.45c8.719-12.781,18.75-24.867,30-36.117
	c19-18.992,40.312-34.484,63.343-46.023c17.297-8.672,34.984-14.828,52.719-18.383c-33.719,37.633-61.219,77.867-81.969,118.367
	L27.44,275.45z M119.033,438.512c-1.766,1.75-13.25,11.594-66.718,32.578c-5.078,2-10.109,3.922-14.922,5.734
	c1.781-4.781,3.688-9.734,5.656-14.766c21.031-53.609,30.89-65.109,32.656-66.891c5.781-5.766,12.953-9.469,20.531-10.672
	l33.469,33.484C128.533,425.293,124.955,432.574,119.033,438.512z M163.643,421.746l-73.391-73.39
	c3.922-10.344,8.313-20.688,13.172-31.031c12.375-26.344,27.656-52.422,45.438-77.492c18.359-25.922,39.406-50.797,62.546-73.938
	c23.141-23.133,48.016-44.188,73.938-62.555c24.734-17.539,50.453-32.648,76.453-44.938l91.797,91.805
	c-12.281,25.992-27.391,51.703-44.938,76.445c-18.359,25.922-39.422,50.797-62.547,73.938
	c-23.141,23.141-48.031,44.188-73.938,62.547c-25.079,17.78-51.157,33.062-77.5,45.437
	C184.33,413.449,173.986,417.824,163.643,421.746z M272.674,454.543c-11.25,11.25-23.344,21.297-36.125,30l-17.844-64.078
	c40.5-20.75,80.735-48.25,118.375-81.968c-3.563,17.734-9.703,35.421-18.375,52.718
	C307.158,414.246,291.674,435.559,272.674,454.543z"/>
<path d="M317.189,237.481c11.391,0,22.109-4.438,30.172-12.492c16.625-16.641,16.625-43.711,0-60.344
	c-8.063-8.055-18.781-12.5-30.172-12.5c-11.406,0-22.109,4.445-30.172,12.5c-8.063,8.063-12.5,18.773-12.5,30.172
	s4.438,22.109,12.5,30.172C295.08,233.044,305.783,237.481,317.189,237.481z M302.096,179.731c4.031-4.031,9.391-6.25,15.094-6.25
	c5.688,0,11.047,2.219,15.078,6.25c8.313,8.32,8.313,21.852,0,30.172c-4.031,4.031-9.391,6.25-15.078,6.25
	c-5.703,0-11.063-2.219-15.094-6.25s-6.25-9.391-6.25-15.086S298.064,183.763,302.096,179.731z"/>
<path d="M226.673,242.661c-11.406,0-22.109,4.438-30.172,12.5c-8.063,8.055-12.5,18.773-12.5,30.164
	c0,11.406,4.438,22.125,12.5,30.172c8.063,8.063,18.766,12.5,30.172,12.5c11.391,0,22.109-4.438,30.172-12.5
	c8.063-8.047,12.5-18.766,12.5-30.172c0-11.391-4.438-22.109-12.5-30.164C248.783,247.099,238.064,242.661,226.673,242.661z
	 M241.751,300.419c-4.016,4.031-9.375,6.25-15.078,6.25s-11.063-2.219-15.094-6.25c-4.016-4.031-6.234-9.391-6.234-15.094
	c0-5.688,2.219-11.063,6.234-15.094c4.031-4.016,9.391-6.234,15.094-6.234s11.063,2.219,15.078,6.25
	c4.031,4.016,6.25,9.391,6.25,15.078C248.001,291.028,245.783,296.388,241.751,300.419z"/>
<g>
</g>
<g>
</g>
<g>
</g>
<g>
</g>
<g>
</g>
<g>
</g>
<g>
</g>
<g>
</g>
<g>
</g>
<g>
</g>
<g>
</g>
<g>
</g>
<g>
</g>
<g>
</g>
<g>
</g>
</svg>
