<?xml version="1.0" encoding="iso-8859-1"?>
<!-- Generator: Adobe Illustrator 19.0.0, SVG Export Plug-In . SVG Version: 6.00 Build 0)  -->
<svg version="1.1" id="Layer_1" xmlns="http://www.w3.org/2000/svg" xmlns:xlink="http://www.w3.org/1999/xlink" x="0px" y="0px"
	 viewBox="0 0 512 512" style="enable-background:new 0 0 512 512;" xml:space="preserve">
<path style="fill:#4FC0E8;" d="M425.347,255.992c0,93.54-75.83,169.352-169.362,169.352c-93.517,0-169.345-75.813-169.345-169.352
	c0-93.532,75.829-169.345,169.345-169.345C349.517,86.646,425.347,162.459,425.347,255.992z"/>
<path d="M426.659,256.039c0-55.618-26.609-105.024-67.799-136.173C352.923,52.748,332.314,6.123,300.782,0.552
	c-1.609-0.289-3.234-0.461-4.891-0.523c-30.25-1.203-63.375,34.922-90.345,92.93c-69.625,21.524-120.204,86.392-120.204,163.08
	c0,55.618,26.61,105.04,67.797,136.18c5.953,67.064,26.563,113.658,58.063,119.221c1.625,0.281,3.25,0.469,4.891,0.531
	c30.266,1.203,63.36-34.891,90.329-92.877C376.064,397.594,426.659,332.734,426.659,256.039z M241.204,478.596
	c-9.109,8.094-17.5,12.219-24.25,11.938c-0.688-0.016-1.36-0.094-2.047-0.219c-8.047-1.406-14.641-9.813-18.766-16.609
	c-7.532-12.438-13.641-30.688-17.688-52.783c-0.828-4.531-1.563-9.203-2.219-13.984c23.375,12.375,49.97,19.484,78.188,19.75
	c0.656-1.141,1.313-2.281,1.969-3.438c3.25-5.781,6.407-11.844,9.469-18.203c-3.281,0.203-6.563,0.328-9.86,0.328
	c-20.172,0-39.719-3.953-58.11-11.734c-17.782-7.516-33.766-18.297-47.485-32.016s-24.484-29.688-32-47.469
	c-7.781-18.406-11.735-37.938-11.735-58.118c0-20.164,3.954-39.727,11.735-58.118c7.516-17.781,18.281-33.75,32-47.477
	c13.719-13.719,29.703-24.492,47.485-32.008c18.391-7.781,37.938-11.727,58.11-11.727c20.172,0,39.719,3.945,58.125,11.727
	c0.609,0.258,1.219,0.531,1.828,0.797c-0.875-8.477-2-16.57-3.391-24.25c-17.703-6.211-36.734-9.602-56.563-9.602
	c-8.063,0-15.984,0.563-23.734,1.648c1.563-3.016,3.156-5.961,4.781-8.828c10.938-19.407,22.594-34.899,33.75-44.797
	c9.109-8.086,17.5-12.219,24.25-11.953l0,0c0.688,0.031,1.359,0.109,2.031,0.219c8.047,1.43,14.656,9.828,18.766,16.625
	c7.547,12.438,13.656,30.688,17.688,52.782c4.313,23.586,6.234,50.672,5.688,80.5c-0.578,31.258-3.828,64.032-9.688,97.423
	c-11.156,63.609-30.547,122.141-54.578,164.814C264.017,453.221,252.344,468.705,241.204,478.596z M317.985,391.938
	c13.531-34.797,24.859-75.359,32.563-119.219c7.688-43.922,10.844-85.985,9.938-123.361c0.375,0.359,0.75,0.719,1.109,1.086
	c13.719,13.727,24.484,29.696,32.018,47.477c7.766,18.391,11.719,37.954,11.719,58.118c0,20.18-3.953,39.711-11.719,58.118
	c-7.533,17.781-18.299,33.75-32.018,47.469C348.876,374.344,334.22,384.531,317.985,391.938z"/>
<g>
</g>
<g>
</g>
<g>
</g>
<g>
</g>
<g>
</g>
<g>
</g>
<g>
</g>
<g>
</g>
<g>
</g>
<g>
</g>
<g>
</g>
<g>
</g>
<g>
</g>
<g>
</g>
<g>
</g>
</svg>
