<?xml version="1.0" encoding="iso-8859-1"?>
<!-- Generator: Adobe Illustrator 19.0.0, SVG Export Plug-In . SVG Version: 6.00 Build 0)  -->
<svg version="1.1" id="Layer_1" xmlns="http://www.w3.org/2000/svg" xmlns:xlink="http://www.w3.org/1999/xlink" x="0px" y="0px"
	 viewBox="0 0 511.997 511.997" style="enable-background:new 0 0 511.997 511.997;" xml:space="preserve">
<polygon style="fill:#ED5564;" points="459.31,287.343 441.31,235.343 376.654,152.016 340.655,127.344 275.983,110.016 
	214.656,114.687 166.656,136.016 122.656,160.687 95.016,201.344 75.985,228.687 49.313,302.671 132.656,332.671 162.656,239.343 
	209.984,209.344 255.999,199.344 315.983,216.672 362.654,270.016 369.311,326.671 416.653,336.671 469.981,327.343 "/>
<g>
	<path style="fill:#F5F7FA;" d="M493.997,339.327l-14-16l-20-6l-25.344,6l-18-6l-15.999,4l-12.656,17.344l-26.672-2l-18.672,3.328
		l-5.327,19.655v27.672l15.327,14.672h63.999c0,0,47.344-1.328,51.672-2.672s17.672-10,17.672-10l12-18l4-18.656L493.997,339.327z"
		/>
	<path style="fill:#F5F7FA;" d="M20.688,339.327l14-16l20-6l25.344,6l18-6l16,4l12.656,17.344l26.672-2l18.671,3.328l5.328,19.655
		v27.672l-15.328,14.672h-64c0,0-47.343-1.328-51.671-2.672s-17.671-10-17.671-10l-12-18l-4-18.656L20.688,339.327z"/>
</g>
<polygon style="fill:#48CFAD;" points="405.481,262 375.982,204 309.983,165.5 268.483,157.5 205.484,164 160.484,190.5 
	118.984,233.999 95.016,307.999 95.016,309.999 112.141,320.858 125.484,331.499 138.984,328.499 143.484,283.999 165.984,242.499 
	190.984,213.5 244.983,197 286.483,202 331.983,223.343 365.982,270.5 372.482,325.999 382.982,333.999 412.981,312.999 "/>
<path d="M469.106,305.03c-2.359-53.375-24.25-103.202-62.266-141.218c-40.28-40.281-93.857-62.469-150.842-62.469
	c-56.984,0-110.562,22.188-150.843,62.469C67.14,201.828,45.249,251.655,42.89,305.03C18.469,309.905,0,331.499,0,357.342
	c0,29.406,23.922,53.312,53.328,53.312h96c23.531,0,42.671-19.125,42.671-42.656c0-23.344-18.859-42.374-42.125-42.655
	c-0.359-3.5-0.547-7.062-0.547-10.688c0-58.812,47.859-106.655,106.671-106.655s106.671,47.843,106.671,106.655
	c0,3.625-0.188,7.188-0.547,10.688c-23.279,0.281-42.123,19.311-42.123,42.655c0,23.531,19.141,42.656,42.671,42.656h95.999
	c29.406,0,53.328-23.906,53.328-53.312C511.997,331.499,493.528,309.905,469.106,305.03z M120.234,178.906
	c36.265-36.266,84.484-56.25,135.765-56.25s99.499,19.984,135.765,56.25c33.999,34,53.687,78.5,55.999,126.202
	c-4.719,0.984-9.266,2.578-13.562,4.812c-2.391-1.672-5-2.984-7.75-3.922c-2.109-42.343-19.594-81.828-49.78-112.015
	c-32.234-32.234-75.093-49.984-120.671-49.984c-45.593,0-88.453,17.75-120.671,49.984c-30.188,30.188-47.672,69.673-49.782,112.016
	c-2.75,0.938-5.359,2.25-7.75,3.922c-4.297-2.234-8.844-3.828-13.562-4.812C66.547,257.406,86.235,212.906,120.234,178.906z
	 M170.671,367.998c0,11.766-9.578,21.344-21.343,21.344h-96c-17.641,0-32-14.375-32-32c0-17.655,14.359-31.999,32-31.999
	c7.031,0,13.703,2.219,19.297,6.469c4.672,3.531,11.328,2.625,14.906-2.031c2.031-2.656,5.125-4.188,8.468-4.188
	c5.812,0,10.594,4.719,10.656,10.531c0.078,5.843,4.828,10.53,10.672,10.53h32C161.093,346.654,170.671,356.232,170.671,367.998z
	 M255.999,186.656C185.421,186.656,128,244.093,128,314.655c0,3.594,0.156,7.156,0.438,10.688h-2.375
	c-3.25-8.859-10.312-15.906-19.156-19.156c2.047-36.687,17.297-70.906,43.5-97.124c28.202-28.188,65.702-43.719,105.592-43.719
	c39.891,0,77.391,15.531,105.593,43.719c26.203,26.218,41.453,60.438,43.499,97.124c-8.843,3.25-15.905,10.297-19.155,19.156h-2.375
	c0.281-3.531,0.438-7.094,0.438-10.688C383.998,244.093,326.577,186.656,255.999,186.656z M458.669,389.342H362.67
	c-11.766,0-21.343-9.578-21.343-21.344s9.577-21.344,21.343-21.344h32c5.844,0,10.593-4.688,10.671-10.53
	c0.062-5.812,4.844-10.531,10.656-10.531c3.344,0,6.438,1.531,8.469,4.188c3.578,4.656,10.234,5.562,14.906,2.031
	c5.594-4.25,12.266-6.469,19.297-6.469c17.641,0,32,14.344,32,31.999C490.669,374.967,476.31,389.342,458.669,389.342z"/>
<g>
</g>
<g>
</g>
<g>
</g>
<g>
</g>
<g>
</g>
<g>
</g>
<g>
</g>
<g>
</g>
<g>
</g>
<g>
</g>
<g>
</g>
<g>
</g>
<g>
</g>
<g>
</g>
<g>
</g>
</svg>
