<?xml version="1.0" encoding="iso-8859-1"?>
<!-- Generator: Adobe Illustrator 19.0.0, SVG Export Plug-In . SVG Version: 6.00 Build 0)  -->
<svg version="1.1" id="Layer_1" xmlns="http://www.w3.org/2000/svg" xmlns:xlink="http://www.w3.org/1999/xlink" x="0px" y="0px"
	 viewBox="0 0 512 512" style="enable-background:new 0 0 512 512;" xml:space="preserve">
<polygon style="fill:#656D78;" points="394.493,73 365.493,30 312.493,7.5 220.493,7.5 172.493,12.844 127.493,51 109.993,130.5 
	109.993,320 173.493,323 170.493,170.672 179.493,287.5 319.493,289 342.493,294.5 343.337,166.5 350.493,318 402.493,323 "/>
<polygon style="fill:#F5F7FA;" points="213.337,16 256.165,134 297.337,12 "/>
<rect x="168.661" y="287.34" style="fill:#434A54;" width="174.67" height="214"/>
<g>
	<polygon style="fill:#AAB2BC;" points="322.493,37 305.993,12 256.165,138.5 317.993,88 300.993,65.5 	"/>
	<polygon style="fill:#AAB2BC;" points="189.353,37.844 205.853,12.844 255.681,139.344 193.853,88.844 210.853,66.344 	"/>
</g>
<path d="M248.618,163.125c-4.156,4.156-4.156,10.922,0,15.094c4.172,4.156,10.922,4.156,15.094,0c4.156-4.172,4.156-10.938,0-15.094
	C259.54,158.969,252.79,158.969,248.618,163.125z"/>
<path d="M248.618,205.781c-4.156,4.172-4.156,10.938,0,15.094c4.172,4.156,10.922,4.156,15.094,0c4.156-4.156,4.156-10.906,0-15.094
	C259.54,201.625,252.79,201.625,248.618,205.781z"/>
<path d="M248.618,248.469c-4.156,4.156-4.156,10.906,0,15.062c4.172,4.188,10.922,4.188,15.094,0c4.156-4.156,4.156-10.906,0-15.062
	C259.54,244.281,252.79,244.281,248.618,248.469z"/>
<path d="M306.884,0h-50.891h-50.891c-91.406,6.359-101.766,81.422-101.766,81.422v249.234h56.828V512h192V330.656h56.5V81.422
	C408.665,81.422,398.306,6.359,306.884,0z M300.712,44.531L305.259,31l2.828,5.125L300.712,44.531z M304.228,90l-24.984,18.344
	l10.594-31.5L304.228,90z M285.993,21.344l-30,89.156l-30-89.156h30C255.993,21.344,285.993,21.344,285.993,21.344z M206.743,31
	l4.547,13.531l-7.375-8.406L206.743,31z M222.165,76.844l10.594,31.5L207.774,90L222.165,76.844z M330.837,490.656h-64V352
	c0-5.891-4.781-10.656-10.672-10.656S245.493,346.11,245.493,352v138.656h-64v-192h149.344V490.656z M387.337,309.344h-35.172V160
	l0,0l0,0c0-5.891-4.781-10.656-10.672-10.656S330.837,154.11,330.837,160l0,0l0,0v117.344H181.493V160l0,0l0,0
	c0-5.891-4.766-10.656-10.656-10.656S160.165,154.11,160.165,160l0,0h-0.172l0.172,149.344h-35.5V83.312
	c0.75-3.531,3.781-15.469,12.609-27.781c11.297-15.781,27.672-26.219,48.797-31.219l-8.062,14.656l24.047,27.359L174.15,91.78
	l74.969,55.031c3.969,3.359,9.797,3.359,13.766,0l74.953-55.031l-27.891-25.453l24.047-27.359l-8.062-14.656
	c20.5,4.859,36.516,14.844,47.766,29.828c9.547,12.703,12.812,25.391,13.641,29.219v225.985H387.337z"/>
<g>
</g>
<g>
</g>
<g>
</g>
<g>
</g>
<g>
</g>
<g>
</g>
<g>
</g>
<g>
</g>
<g>
</g>
<g>
</g>
<g>
</g>
<g>
</g>
<g>
</g>
<g>
</g>
<g>
</g>
</svg>
