<?xml version="1.0" encoding="iso-8859-1"?>
<!-- Generator: Adobe Illustrator 19.0.0, SVG Export Plug-In . SVG Version: 6.00 Build 0)  -->
<svg version="1.1" id="Layer_1" xmlns="http://www.w3.org/2000/svg" xmlns:xlink="http://www.w3.org/1999/xlink" x="0px" y="0px"
	 viewBox="0 0 512 512" style="enable-background:new 0 0 512 512;" xml:space="preserve">
<path style="fill:#965353;" d="M217.5,70.25c0,29.969-24.281,54.25-54.25,54.25S109,100.219,109,70.25S133.281,16,163.25,16
	S217.5,40.281,217.5,70.25z"/>
<path style="fill:#BF9494;" d="M174,66.656c0,9.219-7.469,16.672-16.656,16.672c-9.219,0-16.672-7.453-16.672-16.672
	c0-9.188,7.453-16.656,16.672-16.656C166.531,50,174,57.469,174,66.656z"/>
<path style="fill:#965353;" d="M407.172,60.75c0,29.969-24.281,54.25-54.25,54.25s-54.25-24.281-54.25-54.25
	S322.953,6.5,352.922,6.5S407.172,30.781,407.172,60.75z"/>
<path style="fill:#BF9494;" d="M370.172,61.156c0,9.219-7.469,16.672-16.656,16.672c-9.219,0-16.672-7.453-16.672-16.672
	c0-9.188,7.453-16.656,16.672-16.656C362.703,44.5,370.172,51.969,370.172,61.156z"/>
<polygon style="fill:#965353;" points="360.672,106.672 318,51.359 252,32.031 192,52.688 140.672,113.359 140.672,174.031 
	157.328,212.688 195.328,211.359 259.328,236.688 285.328,215.359 355.328,212.031 374,158.688 "/>
<polygon style="fill:#BF9494;" points="263.344,169.672 224,178.344 215.344,210.016 257.344,233.672 294.016,205.672 
	294.016,191.016 "/>
<polygon style="fill:#ED5564;" points="397.25,250.625 352.719,215.109 309.531,211.75 255.156,237.703 244.438,230.281 
	204.922,211.75 167.844,213.828 119.266,242.297 104.844,287.562 108.953,331.25 155.094,399.188 198.766,446.969 258.922,486.891 
	290.984,460.516 368.875,391.766 407.172,302.766 "/>
<g>
	<polygon style="fill:#965353;" points="140.672,264.656 109,247.328 80.672,280 76.016,324.656 109,352.656 128.5,348 
		148.016,312.656 	"/>
	<polygon style="fill:#965353;" points="427.344,261.312 395.672,243.984 367.344,276.656 362.688,321.312 395.672,349.312 
		415.172,344.656 434.688,309.312 	"/>
	<polygon style="fill:#965353;" points="206.672,393.328 174,374 136.672,387.328 116.672,414 121.344,464 143.344,494.656 
		174,500.656 215.344,472.656 220.672,426 	"/>
	<polygon style="fill:#965353;" points="378,397.328 345.328,378 308,391.328 288,418 292.672,468 314.672,498.656 345.328,504.656 
		386.672,476.656 392,430 	"/>
</g>
<path d="M400,362.734c26.516,0,48-28.672,48-64.031s-21.484-64.031-48-64.031c-0.875,0-1.75,0.031-2.609,0.094
	c-7.625-10.172-17.266-18.734-28.344-25.078c9.625-17.984,15.094-38.531,15.094-60.344c0-9.719-1.094-19.188-3.141-28.281
	c20.766-10.578,35-32.156,35-57.062c0-35.344-28.656-64-64-64c-22.234,0-41.812,11.344-53.281,28.562
	c-13.344-4.719-27.688-7.281-42.656-7.281c-14.984,0-29.375,2.578-42.75,7.312C201.844,11.375,182.25,0,160,0
	c-35.344,0-64,28.656-64,64c0,24.969,14.281,46.562,35.125,57.125c-2.031,9.078-3.125,18.531-3.125,28.219
	c0,21.781,5.453,42.312,15.062,60.281c-11.125,6.359-20.812,14.938-28.453,25.141c-0.859-0.047-1.734-0.094-2.609-0.094
	c-26.5,0-48,28.672-48,64.031s21.5,64.031,48,64.031c2.078,0,4.125-0.172,6.125-0.516c3.594,6.016,7.5,11.906,11.688,17.656
	c-14.141,13.688-23.156,34.344-23.156,57.469c0,41.234,28.656,74.656,64,74.656c24.672,0,46.062-16.25,56.75-40.094
	C244.375,483.891,256,490.672,256,490.672s11.625-6.781,28.594-18.766C295.281,495.75,316.672,512,341.328,512
	c35.344,0,64-33.422,64-74.656c0-23.125-9-43.781-23.125-57.469c4.172-5.75,8.078-11.641,11.672-17.656
	C395.875,362.562,397.922,362.734,400,362.734z M416.875,266.219c6.219,8.312,9.797,20.156,9.797,32.484s-3.578,24.172-9.797,32.484
	c-2.859,3.812-8.859,10.219-16.875,10.219s-14.016-6.406-16.875-10.219c-2.547-3.406-4.641-7.406-6.25-11.797
	c4.156-1.469,7.125-5.406,7.125-10.047c0-5.656-4.422-10.281-10-10.625c5.578-0.359,10-4.969,10-10.641
	c0-4.641-2.969-8.578-7.125-10.047c1.594-4.391,3.703-8.406,6.25-11.812C385.984,262.406,391.984,256,400,256
	S414.016,262.406,416.875,266.219z M358.484,72.453c-4.266-5.672-8.984-10.984-14.125-15.875c1.938-1.984,4.641-3.234,7.641-3.234
	c5.875,0,10.672,4.781,10.672,10.656C362.672,67.438,361.031,70.5,358.484,72.453z M352,21.344
	c23.531,0,42.672,19.141,42.672,42.656c0,15.312-8.125,28.781-20.266,36.297c-1.375-3.328-2.891-6.578-4.531-9.75
	C378.391,84.812,384,75.062,384,64c0-17.656-14.328-32-32-32c-9.719,0-18.422,4.344-24.281,11.188
	c-2.969-2.016-6.016-3.891-9.156-5.641C326.391,27.688,338.469,21.344,352,21.344z M117.344,64
	c0-23.516,19.125-42.656,42.656-42.656c13.562,0,25.656,6.359,33.469,16.25c-3.125,1.75-6.172,3.641-9.141,5.641
	C178.469,36.375,169.75,32,160,32c-17.672,0-32,14.344-32,32c0,11.094,5.656,20.875,14.234,26.625
	c-1.641,3.156-3.141,6.422-4.516,9.75C125.5,92.844,117.344,79.375,117.344,64z M149.344,64c0-5.875,4.781-10.656,10.656-10.656
	c3.031,0,5.75,1.281,7.703,3.312c-5.125,4.875-9.844,10.188-14.109,15.859C151.016,70.562,149.344,67.484,149.344,64z
	 M149.344,149.344c0-28.516,11.094-55.312,31.25-75.469s46.969-31.266,75.469-31.266c28.516,0,55.312,11.109,75.484,31.266
	c20.156,20.156,31.25,46.953,31.25,75.469c0,18.469-4.656,36.203-13.406,51.891c-8.469-2.516-17.438-3.891-26.719-3.891
	c-5.469,0-10.828,0.469-16.031,1.375C300.281,176.406,279.719,160,255.375,160c-24.266,0-44.781,16.312-51.203,38.531
	c-4.844-0.781-9.797-1.188-14.844-1.188c-9.234,0-18.172,1.359-26.594,3.859C153.984,185.531,149.344,167.781,149.344,149.344z
	 M256,202.672c5.891,0,10.672-4.766,10.672-10.672c0-5.672-4.453-10.297-10.047-10.625c14.125,0.547,25.906,10.281,29.562,23.375
	c-11.406,4.844-21.641,11.891-30.188,20.625c-8.828-9.016-19.453-16.234-31.312-21.094c3.922-13.25,16.188-22.938,30.688-22.938
	c0.141,0,0.281,0,0.422,0c-5.797,0.125-10.469,4.844-10.469,10.656C245.328,197.906,250.109,202.672,256,202.672z M95.125,331.188
	c-6.219-8.312-9.781-20.156-9.781-32.484s3.562-24.172,9.781-32.484C98,262.406,103.984,256,112,256c8.016,0,14,6.406,16.875,10.219
	c2.562,3.422,4.656,7.438,6.25,11.844c-4.141,1.453-7.125,5.406-7.125,10.047c0,5.672,4.406,10.281,10,10.641
	c-5.578,0.344-10,4.969-10,10.625c0,4.641,2.969,8.578,7.109,10.047c-1.609,4.359-3.688,8.359-6.234,11.766
	C126,335,120.016,341.406,112,341.406C103.984,341.406,98,335,95.125,331.188z M199.719,476.25
	c-7.969,9.312-18.281,14.422-29.062,14.422c-10.75,0-21.078-5.109-29.047-14.422c-8.766-10.234-13.61-24.062-13.61-38.906
	c0-14.859,4.844-28.688,13.609-38.906c7.969-9.312,18.297-14.438,29.047-14.438c10.781,0,21.094,5.125,29.062,14.438
	c8.781,10.219,13.609,24.047,13.609,38.906C213.328,452.188,208.5,466.016,199.719,476.25z M384,437.344
	c0,14.844-4.828,28.672-13.609,38.906c-7.969,9.312-18.297,14.422-29.062,14.422s-21.078-5.109-29.047-14.422
	c-8.781-10.234-13.609-24.062-13.609-38.906c0-14.859,4.828-28.688,13.609-38.906c7.968-9.313,18.28-14.438,29.046-14.438
	s21.094,5.125,29.062,14.438C379.172,408.656,384,422.484,384,437.344z M364.594,367.75c-7.219-3.281-15.062-5.078-23.266-5.078
	c-35.344,0-64,33.422-64,74.672c0,4.375,0.328,8.656,0.953,12.828c-8.844,6.422-16.547,11.609-22.281,15.344
	c-5.734-3.734-13.438-8.922-22.281-15.359c0.625-4.156,0.953-8.438,0.953-12.812c0-41.25-28.656-74.672-64.016-74.672
	c-8.188,0-16.031,1.797-23.25,5.078c-3.5-4.812-6.844-9.75-9.922-14.781C151,341.641,160,321.562,160,298.703
	c0-23.969-9.875-44.859-24.5-55.828c0.938-1.062,1.906-2.094,2.922-3.109c13.609-13.609,31.672-21.078,50.906-21.078
	c19.516,0,37.766,7.656,51.438,21.609L256,255.844l15.234-15.547c13.672-13.953,31.922-21.609,51.438-21.609
	c19.234,0,37.312,7.469,50.906,21.078c1.016,1.016,1.984,2.047,2.922,3.109c-14.625,10.969-24.5,31.859-24.5,55.828
	c0,22.859,8.984,42.938,22.516,54.266C371.438,358,368.109,362.938,364.594,367.75z"/>
<path d="M288,128c5.891,0,10.672-4.766,10.672-10.656s-4.781-10.672-10.672-10.672s-10.672,4.781-10.672,10.672S282.109,128,288,128
	z"/>
<path d="M224,128c5.891,0,10.672-4.766,10.672-10.656s-4.781-10.672-10.672-10.672s-10.672,4.781-10.672,10.672S218.109,128,224,128
	z"/>
<g>
</g>
<g>
</g>
<g>
</g>
<g>
</g>
<g>
</g>
<g>
</g>
<g>
</g>
<g>
</g>
<g>
</g>
<g>
</g>
<g>
</g>
<g>
</g>
<g>
</g>
<g>
</g>
<g>
</g>
</svg>
