<?xml version="1.0" encoding="iso-8859-1"?>
<!-- Generator: Adobe Illustrator 19.0.0, SVG Export Plug-In . SVG Version: 6.00 Build 0)  -->
<svg version="1.1" id="Layer_1" xmlns="http://www.w3.org/2000/svg" xmlns:xlink="http://www.w3.org/1999/xlink" x="0px" y="0px"
	 viewBox="0 0 512 512" style="enable-background:new 0 0 512 512;" xml:space="preserve">
<rect x="135.5" y="104" style="fill:#E6E9ED;" width="243" height="127"/>
<rect x="70.5" y="231" style="fill:#F5F7FA;" width="371" height="127"/>
<rect x="11" y="365.5" style="fill:#FFFFFF;" width="489.5" height="127"/>
<polygon style="fill:#ED5564;" points="282.406,30.391 274.078,23.75 266,23.125 255.828,27.969 253.828,26.594 246.438,23.125 
	239.516,23.5 230.422,28.828 227.719,37.297 228.5,45.453 237.125,58.156 245.281,67.094 256.531,74.562 262.531,69.625 
	277.094,56.781 284.25,40.141 "/>
<g>
	<polygon style="fill:#EC87C0;" points="500.5,362.016 11,362.016 11,404.672 62.672,404.672 96,378.672 140,404.672 
		165.328,404.672 202.672,378.672 246.672,404.672 275.328,404.672 315.328,378.672 334,398.672 365.328,404.672 420.672,383.344 
		476,404.672 502.672,399.344 	"/>
	<polygon style="fill:#EC87C0;" points="434,239.344 67.672,239.344 67.672,282 119.344,282 152.672,256 196.672,282 222,282 
		259.344,256 303.344,282 332,282 372,256 390.672,276 422,282 434,277.375 	"/>
	<polygon style="fill:#EC87C0;" points="373.328,110.672 141.328,110.672 141.328,153.328 165.5,153.328 202.844,127.328 
		246.844,153.328 275.5,153.328 315.5,127.328 334.172,147.328 365.5,153.328 373.328,150.312 	"/>
</g>
<path d="M250.625,85.188L256,88.312l5.375-3.125c3.656-2.141,35.797-21.625,35.797-47.359c0-15.703-12.766-28.453-28.469-28.453
	c-4.484,0-8.828,1.031-12.703,2.969c-3.906-1.938-8.219-2.969-12.719-2.969c-15.688,0-28.469,12.75-28.469,28.453
	C214.812,63.562,246.953,83.047,250.625,85.188z M243.281,30.688c1.938,0,3.734,0.781,5.094,2.156L256,40.625l7.625-7.781
	c1.344-1.375,3.156-2.156,5.078-2.156c3.938,0,7.141,3.219,7.141,7.141c0,8.672-11.25,19.172-19.875,25.391
	c-8.609-6.188-19.812-16.656-19.812-25.391C236.156,33.906,239.344,30.688,243.281,30.688z"/>
<path d="M448,353.313v-128h-64v-128H128v128H64v128H0v149.312h512V353.313H448z M149.328,161.312
	c22.266,0,41.859-11.375,53.328-28.625c11.469,17.25,31.062,28.625,53.344,28.625c22.25,0,41.859-11.375,53.328-28.625
	c11.453,17.25,31.078,28.625,53.328,28.625v64H149.328V161.312z M218.938,118.625h74.109l-1.484,2.25
	c-7.953,11.953-21.25,19.094-35.562,19.094c-14.328,0-27.625-7.141-35.578-19.094L218.938,118.625z M362.656,139.969
	c-14.312,0-27.625-7.125-35.562-19.094l-1.5-2.25h37.062V139.969z M149.328,118.625h37.047l-1.484,2.25
	c-7.953,11.969-21.234,19.094-35.562,19.094v-21.344H149.328z M490.656,374.625v15.594c-6.281,3.656-13.562,5.75-21.328,5.75
	c-14.328,0-27.625-7.125-35.578-19.094l-1.469-2.25H448l0,0H490.656z M186.375,374.625l-1.484,2.25
	c-7.953,11.969-21.234,19.094-35.562,19.094s-27.625-7.125-35.578-19.094l-1.469-2.25H186.375z M293.047,374.625l-1.484,2.25
	c-7.953,11.969-21.25,19.094-35.562,19.094c-14.328,0-27.625-7.125-35.578-19.094l-1.484-2.25H293.047z M399.719,374.625l-1.5,2.25
	c-7.938,11.969-21.234,19.094-35.562,19.094c-14.312,0-27.625-7.125-35.562-19.094l-1.5-2.25H399.719z M426.656,266.625
	c-3.406,0.875-6.969,1.344-10.656,1.344c-14.328,0-27.625-7.125-35.578-19.094l-1.484-2.25h47.719L426.656,266.625L426.656,266.625z
	 M239.719,246.625l-1.5,2.25c-7.938,11.969-21.234,19.094-35.562,19.094c-14.312,0-27.625-7.125-35.562-19.094l-1.5-2.25H239.719z
	 M346.375,246.625l-1.484,2.25c-7.953,11.969-21.234,19.094-35.562,19.094s-27.625-7.125-35.578-19.094l-1.469-2.25H346.375z
	 M133.047,246.625l-1.484,2.25c-7.953,11.969-21.25,19.094-35.562,19.094c-3.688,0-7.266-0.469-10.672-1.344v-20H133.047z
	 M85.328,288.406c3.469,0.594,7.031,0.906,10.672,0.906c22.25,0,41.859-11.375,53.328-28.625
	c11.453,17.25,31.078,28.625,53.328,28.625c22.266,0,41.875-11.375,53.344-28.625c11.469,17.25,31.062,28.625,53.328,28.625
	s41.859-11.375,53.328-28.625c11.469,17.25,31.062,28.625,53.344,28.625c3.625,0,7.188-0.312,10.656-0.906v64.906H85.328V288.406z
	 M64,374.625L64,374.625h15.719l-1.5,2.25c-7.938,11.969-21.234,19.094-35.562,19.094c-7.766,0-15.062-2.094-21.328-5.75v-15.594H64
	z M21.328,481.313v-67.656c6.672,2.344,13.86,3.656,21.328,3.656c22.266,0,41.875-11.375,53.344-28.625
	c11.469,17.25,31.062,28.625,53.328,28.625s41.859-11.375,53.328-28.625c11.469,17.25,31.062,28.625,53.344,28.625
	c22.25,0,41.859-11.375,53.328-28.625c11.453,17.25,31.078,28.625,53.328,28.625c22.266,0,41.875-11.375,53.344-28.625
	c11.469,17.25,31.062,28.625,53.328,28.625c7.484,0,14.656-1.281,21.328-3.656v67.656H21.328z"/>
<g>
</g>
<g>
</g>
<g>
</g>
<g>
</g>
<g>
</g>
<g>
</g>
<g>
</g>
<g>
</g>
<g>
</g>
<g>
</g>
<g>
</g>
<g>
</g>
<g>
</g>
<g>
</g>
<g>
</g>
</svg>
