<svg id="icons" enable-background="new 0 0 64 64" height="512" viewBox="0 0 64 64" width="512" xmlns="http://www.w3.org/2000/svg"><path d="m51.976 20.995v2c0 1.1-.9 2-2 2h-2v-7.99h2c1.1 0 2 .89 2 2z" fill="#ccd1d9"/><path d="m47.976 24.995v1c0 1.109-.9 2-2 2h-1.01v-4-6-4h1.01c1.1 0 2 .899 2 2v1.01z" fill="#e6e9ed"/><g fill="#656d78"><path d="m44.966 13.995v4h-7v-3.99l.238-.01z"/><path d="m37.966 35.995h7v16h-7z"/><path d="m37.966 23.995h7v4h-7z"/><path d="m44.966 27.995v8h-7v-6-2z"/></g><path d="m37.966 17.995h7v6h-7z" fill="#aab2bd"/><path d="m12.034 32.005v-.01h2l1 6h-4.369l.369-6v-.04c.33.03.66.05 1 .05z" fill="#656d78"/><path d="m10.034 47.995c1.102 0 2 .89 2 2 0 1.1-.898 2-2 2h-3v.01c-3.318 0-5.988-2.68-6-6v-.01l1-24c0 5.189 3.951 9.46 9 9.96v.04l-.369 6z" fill="#37bc9b"/><path d="m27.034 18.995c1.111 0 2 .89 2 2 0 1.1-.889 2-2 2h-10.988c-1.111 0-2-.9-2-2 0-1.11.889-2 2-2z" fill="#37bc9b"/><path d="m17.034 11.995h5 5 5 3.932c1.1 0 2 .899 2 2.01v3.99 6 4 2c0 1.1-.9 2-2 2h-21.932-2v.01c-.34 0-.67-.02-1-.05-5.049-.5-9-4.771-9-9.96 0-5.521 4.48-10 10-10zm12 9c0-1.11-.889-2-2-2h-10.988c-1.111 0-2 .89-2 2 0 1.1.889 2 2 2h10.988c1.112 0 2-.9 2-2z" fill="#48cfad"/><path d="m12.037 32.996c-6.066 0-11.002-4.937-11.002-11.004 0-6.066 4.936-11.002 11.002-11.002.553 0 1 .447 1 1s-.447 1-1 1c-4.964 0-9.002 4.038-9.002 9.002 0 4.965 4.038 9.004 9.002 9.004.553 0 1 .447 1 1s-.447 1-1 1z"/><path d="m35.961 12.994h-23.924c-.553 0-1-.447-1-1s.447-1 1-1h23.924c.553 0 1 .447 1 1s-.447 1-1 1z"/><path d="m35.961 32.99h-23.924c-.553 0-1-.447-1-1s.447-1 1-1h23.924c.553 0 1 .447 1 1s-.447 1-1 1z"/><path d="m45.969 14.992h-7.77c-.553 0-1-.447-1-1s.447-1 1-1h7.77c.553 0 1 .447 1 1s-.448 1-1 1z"/><path d="m45.969 28.99h-8.006c-.553 0-1-.447-1-1s.447-1 1-1h8.006c.553 0 1 .447 1 1s-.448 1-1 1z"/><path d="m37.963 53.01c-.553 0-1-.447-1-1v-38.014c0-.553.447-1 1-1s1 .447 1 1v38.014c0 .553-.447 1-1 1z"/><path d="m44.965 53.01c-.553 0-1-.447-1-1v-38.018c0-.553.447-1 1-1s1 .447 1 1v38.018c0 .553-.447 1-1 1z"/><path d="m46.971 36.994h-11.008c-.553 0-1-.447-1-1s.447-1 1-1h11.008c.553 0 1 .447 1 1s-.448 1-1 1z"/><path d="m45.965 52.988h-9.002c-.553 0-1-.447-1-1s.447-1 1-1h9.002c.553 0 1 .447 1 1s-.447 1-1 1z"/><path d="m47.969 16.992c-.553 0-1-.447-1-1 0-.552-.448-1-1-1-.553 0-1-.447-1-1s.447-1 1-1c1.654 0 3 1.346 3 3 0 .553-.448 1-1 1z"/><path d="m45.969 28.99c-.553 0-1-.447-1-1s.447-1 1-1c.552 0 1-.448 1-1 0-.553.447-1 1-1s1 .447 1 1c0 1.655-1.346 3-3 3z"/><path d="m47.969 26.99c-.553 0-1-.447-1-1v-9.998c0-.553.447-1 1-1s1 .447 1 1v9.998c0 .553-.448 1-1 1z"/><path d="m51.973 19.996c-.553 0-1-.447-1-1 0-.552-.448-1-1-1-.553 0-1-.447-1-1s.447-1 1-1c1.654 0 3 1.346 3 3 0 .553-.448 1-1 1z"/><path d="m49.973 25.986c-.553 0-1-.447-1-1s.447-1 1-1c.552 0 1-.448 1-1 0-.553.447-1 1-1s1 .447 1 1c0 1.655-1.346 3-3 3z"/><path d="m51.973 23.986c-.553 0-1-.447-1-1v-3.99c0-.553.447-1 1-1s1 .447 1 1v3.99c0 .553-.448 1-1 1z"/><path d="m49.973 17.996h-2.004c-.553 0-1-.447-1-1s.447-1 1-1h2.004c.553 0 1 .447 1 1s-.448 1-1 1z"/><path d="m49.973 25.986h-2.004c-.553 0-1-.447-1-1s.447-1 1-1h2.004c.553 0 1 .447 1 1s-.448 1-1 1z"/><path d="m62.967 21.992h-10.994c-.553 0-1-.447-1-1s.447-1 1-1h10.994c.553 0 1 .447 1 1s-.447 1-1 1z"/><path d="m54.967 22.992c-.553 0-1-.447-1-1v-2c0-.553.447-1 1-1s1 .447 1 1v2c0 .553-.447 1-1 1z"/><path d="m57.967 22.992c-.553 0-1-.447-1-1v-2c0-.553.447-1 1-1s1 .447 1 1v2c0 .553-.447 1-1 1z"/><path d="m60.967 22.992c-.553 0-1-.447-1-1v-2c0-.553.447-1 1-1s1 .447 1 1v2c0 .553-.447 1-1 1z"/><path d="m37.963 14.996c-.553 0-1-.447-1-1s-.449-1.002-1.002-1.002-1-.447-1-1 .447-1 1-1c1.655 0 3.002 1.347 3.002 3.002 0 .553-.447 1-1 1z"/><path d="m35.961 32.99c-.553 0-1-.447-1-1s.447-1 1-1 1.002-.449 1.002-1.002.447-1 1-1 1 .447 1 1c0 1.656-1.347 3.002-3.002 3.002z"/><path d="m1.039 46.998c-.015 0-.028 0-.042-.001-.553-.022-.981-.488-.958-1.04l.997-24.006c.022-.538.465-.959.998-.959.015 0 .028 0 .042.001.553.022.981.488.958 1.04l-.997 24.006c-.022.538-.465.959-.998.959z"/><path d="m10.037 48.99c-.021 0-.042-.001-.063-.002-.551-.034-.97-.509-.936-1.061l1.001-16c.035-.552.513-.952 1.061-.936.551.034.97.509.936 1.061l-1.001 16c-.034.531-.474.938-.998.938z"/><path d="m10.034 52.99c-.553 0-1-.447-1-1s.447-1 1-1c.552 0 1-.448 1-1s-.448-1-1-1c-.553 0-1-.447-1-1s.447-1 1-1c1.654 0 3 1.346 3 3s-1.346 3-3 3z"/><path d="m7.034 52.996c-3.859 0-7-3.141-7-7.002 0-.553.447-1 1-1s1 .447 1 1c0 2.758 2.243 5.002 5 5.002.553 0 1 .447 1 1s-.447 1-1 1z"/><path d="m10.034 52.99h-3.002c-.553 0-1-.447-1-1s.447-1 1-1h3.002c.553 0 1 .447 1 1s-.447 1-1 1z"/><path d="m15.034 38.99c-.48 0-.904-.347-.985-.836l-1-6c-.091-.544.277-1.06.822-1.15.547-.094 1.061.277 1.15.822l1 6c.091.544-.277 1.06-.822 1.15-.055.01-.11.014-.165.014z"/><path d="m15.035 38.99h-4.373c-.553 0-1-.447-1-1s.447-1 1-1h4.373c.553 0 1 .447 1 1s-.447 1-1 1z"/><path d="m12.037 14.99c-.553 0-1-.447-1-1v-2c0-.553.447-1 1-1s1 .447 1 1v2c0 .553-.447 1-1 1z"/><path d="m17.037 14.99c-.553 0-1-.447-1-1v-2c0-.553.447-1 1-1s1 .447 1 1v2c0 .553-.447 1-1 1z"/><path d="m22.037 14.99c-.553 0-1-.447-1-1v-2c0-.553.447-1 1-1s1 .447 1 1v2c0 .553-.447 1-1 1z"/><path d="m27.037 14.99c-.553 0-1-.447-1-1v-2c0-.553.447-1 1-1s1 .447 1 1v2c0 .553-.447 1-1 1z"/><path d="m32.037 14.99c-.553 0-1-.447-1-1v-2c0-.553.447-1 1-1s1 .447 1 1v2c0 .553-.447 1-1 1z"/><path d="m16.041 23.99c-1.654 0-3-1.346-3-3s1.346-3 3-3c.553 0 1 .447 1 1s-.447 1-1 1c-.552 0-1 .448-1 1s.448 1 1 1c.553 0 1 .447 1 1s-.447 1-1 1z"/><path d="m27.035 23.99c-.553 0-1-.447-1-1s.447-1 1-1c.552 0 1-.448 1-1s-.448-1-1-1c-.553 0-1-.447-1-1s.447-1 1-1c1.654 0 3 1.346 3 3s-1.346 3-3 3z"/><path d="m27.035 19.99h-10.994c-.553 0-1-.447-1-1s.447-1 1-1h10.994c.553 0 1 .447 1 1s-.447 1-1 1z"/><path d="m27.035 23.99h-10.994c-.553 0-1-.447-1-1s.447-1 1-1h10.994c.553 0 1 .447 1 1s-.447 1-1 1z"/><path d="m26.033 27.99h-8.99c-.553 0-1-.447-1-1s.447-1 1-1h8.99c.553 0 1 .447 1 1s-.447 1-1 1z"/><path d="m44.965 18.99h-7.002c-.553 0-1-.447-1-1s.447-1 1-1h7.002c.553 0 1 .447 1 1s-.447 1-1 1z"/><path d="m44.965 24.992h-7.002c-.553 0-1-.447-1-1s.447-1 1-1h7.002c.553 0 1 .447 1 1s-.447 1-1 1z"/></svg>