<svg id="icons" enable-background="new 0 0 64 64" height="512" viewBox="0 0 64 64" width="512" xmlns="http://www.w3.org/2000/svg"><path d="m26.152 5.148h13.011v2.984h-13.011z" fill="#656d78" transform="matrix(.707 -.707 .707 .707 4.869 25.037)"/><path d="m56.992 21.796 4.66 11.739-2.11 2.12-11.739-4.659-2.12-2.12-9.191-9.2h-.01l-7.37-7.38 9.201-9.2z" fill="#e6e9ed"/><path d="m36.482 19.676h.01l9.191 9.2-2.12 2.12-1.42-1.421-6.361-6.359-1.42-1.42z" fill="#ccd1d9"/><path d="m42.143 29.575-5.771 5.78h-.01-12.719l12.139-12.139z" fill="#ffd2a6"/><path d="m9.292 62.426c-.779.79-2.05.78-2.83 0l-3.529-3.53c-.78-.78-.78-2.05 0-2.83l20.71-20.71h12.72z" fill="#ed5565"/><path d="m43.563 31.994c-.256 0-.512-.098-.707-.293l-9.195-9.196c-.391-.391-.391-1.023 0-1.414s1.023-.391 1.414 0l9.195 9.196c.391.391.391 1.023 0 1.414-.196.195-.452.293-.707.293z"/><path d="m2.934 57.065c-.256 0-.512-.098-.707-.293-.391-.391-.391-1.023 0-1.414l32.848-32.852c.391-.391 1.023-.391 1.414 0s.391 1.023 0 1.414l-32.848 32.852c-.196.196-.452.293-.707.293z"/><path d="m9.295 63.428c-.256 0-.512-.098-.707-.293-.391-.391-.391-1.023 0-1.414l32.851-32.852c.391-.391 1.023-.391 1.414 0s.391 1.023 0 1.414l-32.851 32.852c-.195.195-.451.293-.707.293z"/><path d="m2.933 59.894c-.256 0-.511-.098-.706-.292-.568-.566-.881-1.319-.881-2.12-.001-.801.313-1.556.881-2.124.391-.389 1.024-.39 1.415.001.39.392.39 1.024-.001 1.415-.19.189-.295.441-.295.708 0 .266.104.516.293.704.392.39.392 1.023.002 1.414-.196.196-.453.294-.708.294z"/><path d="m7.882 64.011c-.769 0-1.538-.292-2.124-.877-.391-.391-.391-1.023-.001-1.415.391-.391 1.024-.39 1.415-.001.391.393 1.027.394 1.416.003.391-.391 1.023-.391 1.414 0s.391 1.023 0 1.414c-.584.584-1.352.876-2.12.876z"/><path d="m6.465 63.426c-.256 0-.512-.098-.707-.293l-3.532-3.532c-.391-.391-.391-1.023 0-1.414s1.023-.391 1.414 0l3.532 3.532c.391.391.391 1.023 0 1.414-.195.195-.451.293-.707.293z"/><path d="m36.371 36.351-12.725-.001c-.553 0-1-.448-1-1 0-.553.448-1 1-1l12.726.001c.553 0 1 .448 1 1-.001.552-.449 1-1.001 1z"/><path d="m34.367 22.798c-.256 0-.512-.098-.707-.293-.391-.391-.391-1.023 0-1.414l2.121-2.12c.391-.391 1.023-.391 1.414 0s.391 1.023 0 1.414l-2.121 2.12c-.195.195-.451.293-.707.293z"/><path d="m43.563 31.994c-.256 0-.512-.098-.707-.293-.391-.391-.391-1.023 0-1.414l2.121-2.121c.391-.391 1.023-.391 1.414 0s.391 1.023 0 1.414l-2.121 2.121c-.196.195-.452.293-.707.293z"/><path d="m59.54 36.651c-.124 0-.249-.023-.369-.07l-11.738-4.66c-.127-.051-.242-.126-.338-.223l-20.795-20.81c-.391-.391-.391-1.023 0-1.414l9.193-9.194c.188-.188.441-.293.707-.293.266 0 .52.105.707.293l20.795 20.81c.097.097.172.211.223.338l4.659 11.732c.146.37.06.793-.222 1.075l-2.114 2.122c-.19.192-.447.294-.708.294zm-11.177-6.513 10.934 4.341 1.186-1.19-4.341-10.931-19.942-19.958-7.779 7.78z"/><path d="m29.116 13.29c-.256 0-.512-.098-.707-.293-.391-.391-.391-1.023 0-1.414l9.193-9.194c.391-.391 1.023-.391 1.414 0s.391 1.023 0 1.414l-9.193 9.194c-.195.195-.451.293-.707.293z"/></svg>