<svg id="icons" enable-background="new 0 0 64 64" height="512" viewBox="0 0 64 64" width="512" xmlns="http://www.w3.org/2000/svg"><path d="m36 42h27v3h-27z" fill="#e6e9ed"/><path d="m33.72 26.96-1.3.76c-.729-2.649-2.13-5.02-4-6.93l1.3-.75c.96-.56 2.181-.23 2.73.729l2 3.461c.56.96.23 2.18-.73 2.73z" fill="#656d78"/><path d="m28 41c1.11 0 2 .9 2 2s-.89 2-2 2c-1.1 0-2-.9-2-2s.9-2 2-2z" fill="#ed5565"/><path d="m36 45v3h-3v-9h3v3z" fill="#f6bb42"/><circle cx="17" cy="32" fill="#ffce54" r="4"/><path d="m17 22c5.52 0 10 4.48 10 10s-4.48 10-10 10-10-4.48-10-10 4.48-10 10-10zm4 10c0-2.21-1.79-4-4-4s-4 1.79-4 4 1.79 4 4 4 4-1.79 4-4z" fill="#656d78"/><path d="m33 48h-16c-6.67 0-12.39-4.08-14.78-9.88-.79-1.88-1.22-3.95-1.22-6.12s.43-4.24 1.22-6.12c2.39-5.8 8.11-9.88 14.78-9.88 4.47 0 8.52 1.83 11.42 4.79 1.87 1.91 3.271 4.28 4 6.93.38 1.36.58 2.8.58 4.28v7zm-3-5c0-1.1-.89-2-2-2-1.1 0-2 .9-2 2s.9 2 2 2c1.11 0 2-.9 2-2zm-3-11c0-5.52-4.48-10-10-10s-10 4.48-10 10 4.48 10 10 10 10-4.48 10-10z" fill="#ffce54"/><path d="m33 49h-16c-9.374 0-17-7.626-17-17s7.626-17 17-17 17 7.626 17 17v16c0 .553-.447 1-1 1zm-16-32c-8.271 0-15 6.729-15 15s6.729 15 15 15h15v-15c0-8.271-6.729-15-15-15z"/><path d="m17 43c-6.065 0-11-4.935-11-11s4.935-11 11-11 11 4.935 11 11-4.935 11-11 11zm0-20c-4.963 0-9 4.038-9 9 0 4.963 4.037 9 9 9s9-4.037 9-9c0-4.962-4.037-9-9-9z"/><path d="m17 37c-2.757 0-5-2.243-5-5s2.243-5 5-5 5 2.243 5 5-2.243 5-5 5zm0-8c-1.654 0-3 1.346-3 3s1.346 3 3 3 3-1.346 3-3-1.346-3-3-3z"/><path d="m6.395 22.394c-.256 0-.511-.097-.706-.292l-.709-.707c-.392-.39-.392-1.023-.002-1.414.391-.391 1.023-.392 1.414-.002l.709.707c.392.39.392 1.023.002 1.414-.196.195-.452.294-.708.294z"/><path d="m3.143 27.26c-.128 0-.257-.025-.382-.076l-.926-.383c-.511-.211-.753-.796-.542-1.307.212-.511.797-.751 1.306-.542l.926.383c.511.211.753.796.542 1.307-.16.385-.532.618-.924.618z"/><path d="m1 33.001c-.552 0-.999-.447-1-.999s.446-1 .999-1.001l1-.001h.001c.552 0 .999.447 1 .999s-.446 1.001-.999 1.001z"/><path d="m2.217 39.124c-.392 0-.764-.231-.924-.616-.212-.51.03-1.096.54-1.308l.926-.385c.509-.21 1.095.03 1.308.54.212.51-.03 1.096-.54 1.308l-.926.385c-.125.052-.256.076-.384.076z"/><path d="m5.686 44.314c-.256 0-.511-.098-.706-.292-.392-.39-.392-1.023-.002-1.414l.707-.709c.39-.392 1.022-.391 1.414-.002.392.39.392 1.023.002 1.414l-.707.709c-.196.197-.452.294-.708.294z"/><path d="m28 46c-1.654 0-3-1.346-3-3s1.346-3 3-3 3 1.346 3 3-1.346 3-3 3zm0-4c-.552 0-1 .448-1 1s.448 1 1 1 1-.448 1-1-.448-1-1-1z"/><path d="m36 49h-3c-.553 0-1-.447-1-1s.447-1 1-1h3c.553 0 1 .447 1 1s-.447 1-1 1z"/><path d="m36 49c-.553 0-1-.447-1-1v-8.998c0-.553.447-1 1-1s1 .447 1 1v8.998c0 .553-.447 1-1 1z"/><path d="m36 40.002h-3c-.553 0-1-.447-1-1s.447-1 1-1h3c.553 0 1 .447 1 1s-.447 1-1 1z"/><path d="m28.421 21.787c-.346 0-.682-.179-.867-.5-.276-.478-.112-1.09.366-1.366l1.301-.752c.476-.277 1.089-.112 1.366.365.276.478.112 1.09-.366 1.366l-1.301.752c-.157.092-.329.135-.499.135z"/><path d="m32.423 28.716c-.346 0-.682-.179-.867-.5-.276-.479-.112-1.09.366-1.366l1.301-.751c.476-.277 1.089-.113 1.366.366.276.479.112 1.09-.366 1.366l-1.301.751c-.157.091-.329.134-.499.134z"/><path d="m32.454 21.768c-.346 0-.682-.179-.867-.5-.275-.477-.89-.641-1.367-.366-.479.276-1.09.111-1.365-.367-.276-.479-.111-1.09.367-1.366 1.433-.828 3.27-.333 4.098 1.099.276.478.112 1.09-.366 1.366-.158.091-.33.134-.5.134z"/><path d="m33.724 27.965c-.346 0-.682-.179-.867-.5-.276-.478-.112-1.09.366-1.366.477-.276.641-.889.364-1.367-.276-.478-.112-1.09.366-1.366.476-.276 1.089-.113 1.366.367.827 1.433.335 3.271-1.097 4.098-.157.091-.328.134-.498.134z"/><path d="m34.454 25.232c-.346 0-.682-.179-.867-.5l-2-3.465c-.276-.479-.112-1.09.366-1.366.477-.276 1.089-.113 1.366.366l2 3.465c.276.479.112 1.09-.366 1.366-.157.091-.329.134-.499.134z"/><path d="m63 42.997h-27c-.553 0-1-.447-1-1s.447-1 1-1h27c.553 0 1 .447 1 1s-.447 1-1 1z"/><path d="m63 45.997h-27c-.553 0-1-.447-1-1s.447-1 1-1h27c.553 0 1 .447 1 1s-.447 1-1 1z"/><path d="m63 48.998c-.553 0-1-.447-1-1v-6.001c0-.553.447-1 1-1s1 .447 1 1v6.001c0 .553-.447 1-1 1z"/></svg>