<svg id="icons" enable-background="new 0 0 64 64" height="512" viewBox="0 0 64 64" width="512" xmlns="http://www.w3.org/2000/svg"><path d="m63 14.5v22c0 1.11-.9 2-2 2h-3-3v-26h6c1.1 0 2 .9 2 2z" fill="#ed5565"/><path d="m44 32.5v-7-7-6h11v26h-11z" fill="#ffd2a6"/><path d="m44 32.5v6h-8v-26h8v6 7z" fill="#e6e9ed"/><path d="m36 12.5v26h-3.01-.01c-1.101-.01-1.99-.9-1.99-2v-3c0-2.21-1.79-4-4-4h-21.99c-2.21 0-4-1.79-4-4s1.79-4 4-4h21.99c2.21 0 4-1.79 4-4v-3c0-1.1.899-2 2-2z" fill="#965353"/><path d="m63 15.498c-.553 0-1-.447-1-1 0-.552-.448-1-1-1-.553 0-1-.447-1-1s.447-1 1-1c1.654 0 3 1.346 3 3 0 .553-.447 1-1 1z"/><path d="m61 39.5c-.553 0-1-.447-1-1s.447-1 1-1c.552 0 1-.448 1-1 0-.553.447-1 1-1s1 .447 1 1c0 1.654-1.346 3-3 3z"/><path d="m63 37.5c-.553 0-1-.447-1-1v-22.002c0-.553.447-1 1-1s1 .447 1 1v22.002c0 .553-.447 1-1 1z"/><path d="m61 39.5h-28.015c-.553 0-1-.447-1-1s.447-1 1-1h28.015c.553 0 1 .447 1 1s-.447 1-1 1z"/><path d="m43.996 39.5c-.553 0-1-.447-1-1v-26.002c0-.553.447-1 1-1s1 .447 1 1v26.002c0 .553-.447 1-1 1z"/><path d="m35.996 39.5c-.553 0-1-.447-1-1v-26.002c0-.553.447-1 1-1s1 .447 1 1v26.002c0 .553-.447 1-1 1z"/><path d="m40 35.494c-.553 0-1-.447-1-1v-17.992c0-.553.447-1 1-1s1 .447 1 1v17.992c0 .553-.447 1-1 1z"/><path d="m61 13.498h-28.014c-.553 0-1-.447-1-1s.447-1 1-1h28.014c.553 0 1 .447 1 1s-.447 1-1 1z"/><path d="m30.995 15.496c-.553 0-1-.447-1-1 0-1.653 1.346-2.998 2.999-2.998.553 0 1 .447 1 1s-.447 1-1 1c-.551 0-.999.447-.999.998 0 .553-.447 1-1 1z"/><path d="m32.993 39.492c-1.653 0-2.999-1.345-2.999-2.998 0-.553.447-1 1-1s1 .447 1 1c0 .551.448.998.999.998.553 0 1 .447 1 1s-.447 1-1 1z"/><path d="m5 30.496c-2.757 0-5-2.243-5-5s2.243-5 5-5c.553 0 1 .447 1 1s-.447 1-1 1c-1.654 0-3 1.346-3 3s1.346 3 3 3c.553 0 1 .447 1 1s-.447 1-1 1z"/><path d="m26.99 22.496h-21.99c-.553 0-1-.447-1-1s.447-1 1-1h21.99c.553 0 1 .447 1 1s-.447 1-1 1z"/><path d="m26.99 30.496h-21.99c-.553 0-1-.447-1-1s.447-1 1-1h21.99c.553 0 1 .447 1 1s-.447 1-1 1z"/><path d="m30.99 34.496c-.553 0-1-.447-1-1 0-1.654-1.346-3-3-3-.553 0-1-.447-1-1s.447-1 1-1c2.757 0 5 2.243 5 5 0 .553-.447 1-1 1z"/><path d="m26.99 22.496c-.553 0-1-.447-1-1s.447-1 1-1c1.654 0 3-1.346 3-3 0-.553.447-1 1-1s1 .447 1 1c0 2.757-2.243 5-5 5z"/><path d="m30.99 18.496c-.001 0-.001 0-.002 0-.552-.001-.999-.449-.998-1.002l.005-3c.001-.552.448-.998 1-.998h.002c.552.001.999.449.998 1.002l-.005 3c-.001.552-.448.998-1 .998z"/><path d="m30.994 37.494c-.552 0-.999-.447-1-.999l-.004-2.998c-.001-.552.446-1 .999-1.001h.001c.552 0 .999.447 1 .999l.004 2.998c.001.552-.446 1-1 1.001z"/><path d="m47.985 19.496h-3.996c-.553 0-1-.447-1-1s.447-1 1-1h3.996c.553 0 1 .447 1 1s-.447 1-1 1z"/><path d="m47.985 26.498h-3.996c-.553 0-1-.447-1-1s.447-1 1-1h3.996c.553 0 1 .447 1 1s-.447 1-1 1z"/><path d="m47.985 33.498h-3.996c-.553 0-1-.447-1-1s.447-1 1-1h3.996c.553 0 1 .447 1 1s-.447 1-1 1z"/><path d="m54.999 39.492c-.553 0-1-.447-1-1v-25.994c0-.553.447-1 1-1s1 .447 1 1v25.994c0 .553-.447 1-1 1z"/><path d="m61 52.502c-.553 0-1-.447-1-1v-13.002c0-.553.447-1 1-1s1 .447 1 1v13.002c0 .553-.447 1-1 1z"/><path d="m58 43.496c-.553 0-1-.447-1-1v-3.996c0-.553.447-1 1-1s1 .447 1 1v3.996c0 .553-.447 1-1 1z"/><path d="m55 46.494c-.553 0-1-.447-1-1v-7.002c0-.553.447-1 1-1s1 .447 1 1v7.002c0 .553-.447 1-1 1z"/><path d="m5.027 26.5c-.553 0-1.005-.447-1.005-1s.442-1 .994-1h.011c.552 0 1 .447 1 1s-.448 1-1 1z"/><path d="m23 26.5h-13.999c-.553 0-1-.447-1-1s.447-1 1-1h13.999c.553 0 1 .447 1 1s-.447 1-1 1z"/></svg>