<svg id="icons" enable-background="new 0 0 64 64" height="512" viewBox="0 0 64 64" width="512" xmlns="http://www.w3.org/2000/svg"><path d="m63.01 14.439-12.619 12.622h-5.652v-.01l-8.488-8.48-.699-.709 11.9-11.9zm-5.66 1.422v-.011l-9.148-4.979-.922-.5-4.36 4.369 5.65 5.65h4.238z" fill="#5d9cec"/><path d="m36.25 18.57 8.488 8.481v.01h5.653l1.619 2.959-1.18 1.861-2.16.129-.01.01-1.189 1.861-2.16.129-.01.01-1.192 1.861-2.16.139-1.199 1.859-2.16.141-1.19 1.861-2.16.139h-.01l-1.191 1.871-2.158.129-.01.011-1.191 1.858-2.16.131-.01.011-1.19 1.858-2.16.131v.011l-1.189 1.86-2.16.14h-.01l-1.192 1.858-2.158.142h-.012l-1.189 1.869-2.16.131h-.01l-1.189 1.869-2.161.131v.01l-1.189 1.859-2.162.131-.01.01-1.189 1.859-2.16.139-4.03-4.209z" fill="#ccd1d9"/><path d="m50.334 28.955-.484.76-.146.23-1.154.068c-.689.041-1.281.434-1.607.996l-.602.939-1.109.072c-.652.025-1.252.369-1.605.92l-.645 1.008-1.109.072c-.654.025-1.256.369-1.609.926l-.641 1.008-1.104.066c-.656.023-1.262.367-1.615.924l-.643 1.008-1.141.07c-.691.041-1.283.436-1.609 1l-.596.932-1.145.068c-.488.029-.959.248-1.305.594-.102.102-.193.215-.27.336l-.645 1.008-1.109.072c-.652.023-1.252.367-1.607.918l-.643 1.01-1.111.072c-.652.025-1.252.367-1.605.92l-.645 1.008-1.15.074c-.637.041-1.215.383-1.557.922l-.643 1.008-1.15.068c-.641.039-1.223.383-1.568.924l-.641 1.008-1.141.068c-.488.031-.959.248-1.305.594-.102.102-.191.215-.27.336l-.643 1.002-1.145.07c-.488.027-.957.246-1.303.592-.104.102-.193.215-.271.336l-.643 1.009-1.15.072c-.635.041-1.213.385-1.555.92l-.645 1.006-1.15.076c-.035.002-.066.012-.102.016l-1.564.109 1.795 1.869 2.16-.139 1.189-1.859 2.16-.141 1.191-1.859.01-.01 2.161-.131 1.189-1.861.01-.01 2.16-.129 1.189-1.869 2.17-.131 1.191-1.869 2.16-.141 1.189-1.861.008.002 2.16-.141 1.191-1.859h.01l2.16-.143 1.189-1.859.01-.01 2.16-.129 1.191-1.861-.002-.01 2.162-.131 1.189-1.869h.01l2.16-.129 1.189-1.871h.01l2.16-.139 1.191-1.861h.01l2.16-.139 1.188-1.861v-.01l2.172-.129 1.18-1.85-1.092-2.006-.59.931c0-.002 0 0 0 0z" fill="#e6e9ed"/><path d="m.987 54.837c-.256 0-.512-.098-.707-.293-.391-.391-.391-1.023 0-1.414l35.265-35.265c.391-.391 1.023-.391 1.414 0s.391 1.023 0 1.414l-35.265 35.265c-.195.195-.451.293-.707.293z"/><path d="m5.016 59.038c-.263 0-.525-.104-.722-.308l-4.028-4.201c-.383-.398-.369-1.032.029-1.414.399-.381 1.031-.368 1.414.029l4.028 4.201c.383.398.369 1.032-.029 1.414-.194.186-.443.279-.692.279z"/><path d="m44.734 28.056c-.256 0-.512-.098-.707-.293l-9.189-9.189c-.391-.391-.391-1.023 0-1.414s1.023-.391 1.414 0l9.189 9.189c.391.391.391 1.023 0 1.414-.195.195-.451.293-.707.293z"/><path d="m35.545 18.866c-.256 0-.512-.098-.707-.293-.391-.391-.391-1.023 0-1.414l11.904-11.904c.391-.391 1.023-.391 1.414 0s.391 1.023 0 1.414l-11.904 11.904c-.195.196-.451.293-.707.293z"/><path d="m63.012 15.44c-.161 0-.325-.039-.478-.122l-15.563-8.478c-.485-.264-.664-.871-.399-1.356.264-.484.869-.665 1.356-.399l15.563 8.479c.484.264.664.871.399 1.356-.181.332-.524.52-.878.52z"/><path d="m57.344 16.857c-.161 0-.325-.039-.478-.122l-10.08-5.491c-.485-.265-.665-.871-.401-1.356.265-.485.871-.664 1.356-.401l10.082 5.493c.485.264.664.871.399 1.356-.181.333-.524.521-.878.521z"/><path d="m50.393 28.059h-5.655c-.553 0-1-.447-1-1s.447-1 1-1h5.655c.553 0 1 .447 1 1s-.448 1-1 1z"/><path d="m52.81 21.396h-4.24c-.553 0-1-.447-1-1s.447-1 1-1h4.24c.553 0 1 .447 1 1s-.448 1-1 1z"/><path d="m50.393 28.059c-.256 0-.512-.098-.707-.293-.391-.391-.391-1.023 0-1.414l12.619-12.619c.391-.391 1.023-.391 1.414 0s.391 1.023 0 1.414l-12.619 12.619c-.196.195-.452.293-.707.293z"/><path d="m52.017 31.039c-.354 0-.698-.188-.879-.521l-1.623-2.98c-.265-.485-.085-1.093.399-1.356.487-.265 1.094-.085 1.356.399l1.623 2.98c.265.485.085 1.093-.399 1.356-.152.083-.316.122-.477.122z"/><path d="m48.569 21.396c-.256 0-.512-.098-.707-.293l-5.656-5.657c-.391-.391-.391-1.023 0-1.414s1.023-.391 1.414 0l5.656 5.657c.391.391.391 1.023 0 1.414-.195.195-.451.293-.707.293z"/><path d="m42.913 15.738c-.256 0-.512-.098-.707-.293-.391-.391-.391-1.023 0-1.414l4.362-4.362c.391-.391 1.023-.391 1.414 0s.391 1.023 0 1.414l-4.362 4.362c-.195.196-.451.293-.707.293z"/><path d="m52.81 21.396c-.256 0-.512-.098-.707-.293-.391-.391-.391-1.023 0-1.414l4.536-4.536c.391-.391 1.023-.391 1.414 0s.391 1.023 0 1.414l-4.536 4.536c-.196.195-.452.293-.707.293z"/><path d="m5.015 59.038c-.523 0-.964-.407-.997-.938-.034-.552.385-1.026.936-1.061l1.654-.104.917-1.435c.297-.467.917-.603 1.381-.305.466.298.602.916.305 1.381l-1.19 1.863c-.172.27-.462.44-.78.46l-2.161.135c-.023.003-.045.004-.065.004z"/><path d="m8.372 57.036c-.524 0-.964-.408-.997-.938-.034-.551.385-1.025.937-1.06l1.653-.103.917-1.436c.297-.466.915-.602 1.381-.305s.602.915.305 1.381l-1.19 1.864c-.172.27-.462.44-.781.46l-2.161.134c-.022.002-.043.003-.064.003z"/><path d="m11.73 55.034c-.524 0-.964-.408-.997-.938-.034-.551.385-1.025.937-1.06l1.652-.103.917-1.435c.297-.467.917-.603 1.381-.305.466.298.602.916.305 1.381l-1.19 1.863c-.172.27-.462.44-.781.46l-2.16.134c-.022.002-.043.003-.064.003z"/><path d="m15.088 53.033c-.523 0-.964-.407-.997-.938-.034-.552.385-1.026.936-1.061l1.654-.104.916-1.436c.297-.464.914-.602 1.381-.305.466.297.602.915.305 1.381l-1.189 1.864c-.172.27-.462.44-.78.46l-2.161.135c-.023.003-.045.004-.065.004z"/><path d="m18.444 51.03c-.524 0-.965-.408-.997-.938-.034-.552.386-1.025.937-1.06l1.654-.102.916-1.436c.297-.465.914-.603 1.381-.305.466.297.602.915.305 1.381l-1.189 1.864c-.172.27-.462.44-.781.46l-2.162.133c-.023.002-.043.003-.064.003z"/><path d="m21.803 49.029c-.523 0-.964-.407-.997-.938-.034-.552.385-1.026.936-1.061l1.653-.104.918-1.436c.298-.465.915-.602 1.382-.304.465.298.601.916.304 1.382l-1.191 1.863c-.172.269-.462.439-.78.459l-2.16.135c-.023.003-.045.004-.065.004z"/><path d="m25.16 47.027c-.524 0-.964-.408-.997-.938-.034-.551.385-1.025.937-1.06l1.653-.103.917-1.436c.296-.467.914-.602 1.381-.305.466.297.602.915.305 1.381l-1.19 1.864c-.172.27-.462.44-.781.46l-2.161.134c-.022.002-.043.003-.064.003z"/><path d="m28.519 45.025c-.524 0-.964-.408-.997-.938-.034-.551.385-1.025.937-1.06l1.652-.103.916-1.435c.297-.466.915-.602 1.381-.305s.602.915.305 1.381l-1.189 1.863c-.172.27-.462.44-.781.46l-2.16.134c-.022.002-.044.003-.064.003z"/><path d="m31.875 43.024c-.523 0-.964-.407-.997-.938-.034-.552.385-1.026.936-1.061l1.654-.104.917-1.435c.296-.467.917-.603 1.381-.305.466.298.602.916.305 1.381l-1.19 1.863c-.172.27-.462.44-.78.46l-2.161.135c-.023.003-.044.004-.065.004z"/><path d="m35.233 41.022c-.523 0-.964-.407-.997-.938-.034-.552.385-1.026.936-1.061l1.653-.104.917-1.435c.296-.467.917-.603 1.381-.305.466.298.602.916.305 1.381l-1.19 1.863c-.172.27-.462.44-.78.46l-2.16.135c-.023.003-.044.004-.065.004z"/><path d="m38.591 39.021c-.524 0-.964-.408-.997-.938-.034-.551.385-1.025.937-1.06l1.652-.103.918-1.436c.298-.467.917-.602 1.381-.305.466.298.602.916.305 1.381l-1.191 1.864c-.172.27-.462.44-.781.46l-2.16.134c-.022.002-.044.003-.064.003z"/><path d="m41.948 37.019c-.524 0-.964-.408-.997-.938-.034-.551.385-1.025.937-1.06l1.653-.103.917-1.435c.297-.466.917-.603 1.381-.305.466.298.602.916.305 1.381l-1.19 1.863c-.172.27-.462.44-.781.46l-2.161.134c-.022.002-.043.003-.064.003z"/><path d="m45.306 35.018c-.523 0-.964-.407-.997-.938-.034-.552.385-1.026.936-1.061l1.654-.104.917-1.436c.297-.466.915-.602 1.381-.305s.602.915.305 1.381l-1.19 1.864c-.172.27-.462.44-.78.46l-2.161.135c-.023.003-.045.004-.065.004z"/><path d="m48.663 33.015c-.524 0-.965-.408-.997-.938-.034-.552.386-1.025.937-1.06l1.654-.102.916-1.436c.296-.464.915-.602 1.381-.305s.602.915.305 1.381l-1.189 1.864c-.172.27-.462.44-.781.46l-2.162.133c-.023.002-.043.003-.064.003z"/></svg>