<svg id="icons" enable-background="new 0 0 64 64" height="512" viewBox="0 0 64 64" width="512" xmlns="http://www.w3.org/2000/svg"><path d="m38.332 36.981c-.779.779-2.049.779-2.83 0l-2.83-2.83-2.828-2.83-2.82-2.82c-.781-.78-.781-2.05 0-2.83.779-.78 2.039-.78 2.82 0l8.479 8.47.01.011c.78.779.78 2.049-.001 2.829z" fill="#5d9cec"/><path d="m61.242 2.761c2.34 2.34 2.34 6.141 0 8.48l-.01-.01-22.91 22.909-8.479-8.47 22.908-22.91c2.353-2.349 6.151-2.349 8.491.001z" fill="#4a89dc"/><path d="m32.672 34.151-22.479 22.48-2.83-2.82 22.481-22.49z" fill="#ccd1d9"/><path d="m10.193 56.631-1.711 4.54-6.07 1.83-1.41-1.41 1.82-6.08 4.541-1.7z" fill="#e6e9ed"/><path d="m61.242 12.242c-.256 0-.512-.098-.707-.293-.391-.391-.391-1.023 0-1.414 1.949-1.95 1.949-5.122 0-7.071-.944-.944-2.2-1.465-3.535-1.465-1.336 0-2.592.521-3.536 1.465-.391.391-1.023.391-1.414 0s-.391-1.023 0-1.414c1.321-1.322 3.08-2.051 4.95-2.051 1.869 0 3.628.729 4.949 2.051 2.729 2.729 2.729 7.17 0 9.899-.195.196-.451.293-.707.293z"/><path d="m29.847 26.668c-.256 0-.512-.098-.707-.293-.391-.391-.391-1.023 0-1.414l22.911-22.911c.391-.391 1.023-.391 1.414 0s.391 1.023 0 1.414l-22.911 22.911c-.196.195-.451.293-.707.293z"/><path d="m38.32 35.142c-.256 0-.512-.098-.707-.293-.391-.391-.391-1.023 0-1.414l22.911-22.911c.391-.391 1.023-.391 1.414 0s.391 1.023 0 1.414l-22.911 22.911c-.195.195-.451.293-.707.293z"/><path d="m27.021 29.497c-.256 0-.512-.098-.707-.293-.566-.566-.878-1.319-.878-2.12 0-.802.312-1.555.878-2.121 1.17-1.169 3.073-1.167 4.241 0 .391.391.391 1.023 0 1.414s-1.023.391-1.414 0c-.389-.389-1.024-.39-1.413.001-.39.389-.39 1.022 0 1.412.391.391.391 1.023 0 1.414-.196.195-.452.293-.707.293z"/><path d="m36.917 38.563c-.768 0-1.535-.292-2.119-.876-.391-.391-.391-1.023 0-1.414s1.023-.391 1.414 0c.389.389 1.023.39 1.414-.001.389-.389.389-1.022-.001-1.412-.391-.391-.391-1.023 0-1.414s1.023-.391 1.414 0c.566.566.878 1.319.878 2.12 0 .802-.312 1.555-.878 2.121-.586.584-1.353.876-2.122.876z"/><path d="m38.32 35.142c-.256 0-.512-.098-.707-.293l-8.474-8.474c-.391-.391-.391-1.023 0-1.414s1.023-.391 1.414 0l8.474 8.474c.391.391.391 1.023 0 1.414-.195.195-.451.293-.707.293z"/><path d="m35.505 37.98c-.256 0-.512-.098-.707-.293l-8.484-8.483c-.391-.391-.391-1.023 0-1.414s1.023-.391 1.414 0l8.484 8.483c.391.391.391 1.023 0 1.414-.195.196-.451.293-.707.293z"/><path d="m7.364 54.808c-.256 0-.512-.098-.707-.293-.391-.391-.391-1.023 0-1.414l22.483-22.485c.391-.391 1.023-.391 1.414 0s.391 1.023 0 1.414l-22.483 22.485c-.195.195-.451.293-.707.293z"/><path d="m10.193 57.635c-.256 0-.512-.098-.707-.293-.391-.391-.391-1.023 0-1.414l22.481-22.482c.391-.391 1.023-.391 1.414 0s.391 1.023 0 1.414l-22.481 22.482c-.195.195-.451.293-.707.293z"/><path d="m8.486 62.173c-.117 0-.236-.021-.353-.064-.517-.194-.778-.771-.583-1.288l1.707-4.538c.194-.517.771-.778 1.288-.583.517.194.778.771.583 1.288l-1.707 4.538c-.15.4-.53.647-.935.647z"/><path d="m2.415 64c-.431 0-.827-.279-.958-.712-.159-.528.141-1.087.67-1.246l6.071-1.827c.53-.157 1.086.143 1.246.67.159.528-.141 1.087-.67 1.246l-6.071 1.827c-.096.028-.193.042-.288.042z"/><path d="m2.415 64c-.256 0-.512-.098-.707-.292l-1.414-1.412c-.391-.391-.391-1.023-.001-1.415.391-.391 1.024-.39 1.415-.001l1.414 1.412c.391.391.391 1.023.001 1.415-.195.195-.452.293-.708.293z"/><path d="m1.001 62.588c-.095 0-.192-.014-.288-.042-.529-.159-.829-.717-.67-1.246l1.827-6.074c.159-.528.716-.828 1.246-.67.529.159.828.717.67 1.246l-1.827 6.074c-.131.433-.527.712-.958.712z"/><path d="m2.828 56.514c-.404 0-.785-.247-.936-.648-.195-.517.066-1.093.584-1.287l4.536-1.706c.514-.196 1.093.066 1.287.584.195.517-.066 1.093-.584 1.287l-4.535 1.705c-.116.044-.235.065-.352.065z"/><path d="m10.193 57.635c-.256 0-.512-.098-.707-.293l-2.829-2.827c-.391-.39-.391-1.023 0-1.414s1.023-.391 1.414 0l2.829 2.827c.391.39.391 1.023 0 1.414-.195.195-.451.293-.707.293z"/><path d="m38.042 26.982c-.256 0-.512-.098-.707-.293-.391-.391-.391-1.023 0-1.414l16.849-16.85c.391-.391 1.023-.391 1.414 0s.391 1.023 0 1.414l-16.849 16.85c-.195.196-.451.293-.707.293z"/></svg>