<svg id="icons" enable-background="new 0 0 64 64" height="512" viewBox="0 0 64 64" width="512" xmlns="http://www.w3.org/2000/svg"><path d="m56.19.309h2.998v12.007h-2.998z" fill="#656d78" transform="matrix(.707 -.707 .707 .707 12.433 42.641)"/><path d="m51.914 14.908-3.07 3.07-2.82-2.82 3.07-3.08c.28.6.67 1.16 1.17 1.66.49.491 1.049.88 1.65 1.17z" fill="#e6e9ed"/><path d="m20.714 46.108-.01.01-1.41-1.41-1.41-1.42 28.139-28.13 2.821 2.821z" fill="#965353"/><path d="m19.294 44.708 1.41 1.41 5.66 5.66-8.471 8.47-.01.01c-3.68 3.681-9.82 3.61-14.14 0-3.61-4.33-3.69-10.46 0-14.14v-.01l8.479-8.48 5.66 5.66z" fill="#e6e9ed"/><path d="m17.895 61.252c-.256 0-.512-.098-.707-.293-.391-.391-.391-1.023 0-1.414l8.482-8.481c.391-.391 1.023-.391 1.414 0s.391 1.023 0 1.414l-8.482 8.481c-.196.195-.452.293-.707.293z"/><path d="m3.75 47.106c-.256 0-.512-.098-.707-.293-.391-.391-.391-1.023 0-1.414l8.48-8.481c.391-.391 1.023-.391 1.414 0s.391 1.023 0 1.414l-8.48 8.481c-.195.196-.451.293-.707.293z"/><path d="m27.074 53.481c-.256 0-.512-.098-.707-.293l-15.556-15.556c-.391-.391-.391-1.023 0-1.414s1.023-.391 1.414 0l15.557 15.557c.391.391.391 1.023 0 1.414-.196.195-.452.292-.708.292z"/><path d="m11.088 64.011c-2.756 0-5.601-.995-7.985-2.987-.045-.038-.088-.081-.126-.126-4.003-4.793-3.977-11.452.062-15.491.391-.391 1.023-.391 1.414 0s.391 1.023 0 1.414c-3.282 3.282-3.276 8.738.001 12.725 3.986 3.28 9.443 3.286 12.726.004.391-.391 1.023-.391 1.414 0s.391 1.023 0 1.414c-2.03 2.03-4.722 3.047-7.506 3.047z"/><path d="m17.889 44.283c-.256 0-.512-.098-.707-.293-.391-.391-.391-1.023 0-1.414l31.203-31.203c.391-.391 1.023-.391 1.414 0s.391 1.023 0 1.414l-31.203 31.203c-.196.196-.451.293-.707.293z"/><path d="m20.717 47.111c-.256 0-.512-.098-.707-.293-.391-.391-.391-1.023 0-1.414l31.203-31.203c.391-.391 1.023-.391 1.414 0s.391 1.023 0 1.414l-31.203 31.203c-.195.196-.451.293-.707.293z"/><path d="m48.848 18.98c-.256 0-.512-.098-.707-.293l-2.828-2.828c-.391-.391-.391-1.023 0-1.414s1.023-.391 1.414 0l2.828 2.828c.391.391.391 1.023 0 1.414-.196.195-.451.293-.707.293z"/><path d="m54.507 16.493c-1.87 0-3.628-.728-4.95-2.05s-2.051-3.081-2.051-4.95.729-3.627 2.051-4.949c.391-.391 1.023-.391 1.414 0s.391 1.024 0 1.414c-.944.944-1.465 2.2-1.465 3.535s.521 2.591 1.465 3.536c.944.944 2.2 1.464 3.536 1.464 1.335 0 2.59-.52 3.534-1.464.391-.391 1.023-.391 1.414 0 .391.39.391 1.023 0 1.414-1.321 1.322-3.079 2.05-4.948 2.05z"/><path d="m50.262 6.25c-.256 0-.512-.098-.707-.293-.391-.391-.391-1.024 0-1.414l4.244-4.243c.391-.391 1.023-.391 1.414 0s.391 1.024 0 1.414l-4.244 4.243c-.196.195-.451.293-.707.293z"/><path d="m62.992 10.493c-.256 0-.512-.098-.707-.293l-8.486-8.487c-.391-.391-.391-1.023 0-1.414s1.023-.391 1.414 0l8.486 8.487c.391.391.391 1.023 0 1.414-.195.196-.451.293-.707.293z"/><path d="m58.748 14.736c-.256 0-.512-.098-.707-.293-.391-.391-.391-1.024 0-1.414l4.244-4.243c.391-.391 1.023-.391 1.414 0s.391 1.024 0 1.414l-4.244 4.243c-.195.196-.451.293-.707.293z"/><path d="m60.871 12.614c-.256 0-.512-.098-.707-.293l-8.486-8.486c-.391-.391-.391-1.023 0-1.414s1.023-.391 1.414 0l8.486 8.486c.391.391.391 1.023 0 1.414-.195.195-.451.293-.707.293z"/><path d="m12.23 52.771c-.256 0-.512-.098-.707-.293-.391-.391-.391-1.023 0-1.414l7.066-7.067c.391-.391 1.023-.391 1.414 0s.391 1.023 0 1.414l-7.066 7.067c-.195.196-.451.293-.707.293z"/></svg>