<svg id="icons" enable-background="new 0 0 64 64" height="512" viewBox="0 0 64 64" width="512" xmlns="http://www.w3.org/2000/svg"><path d="m14.166 62.403c-.779.779-2.039.779-2.819 0l-2.83-2.83c-.78-.78-.78-2.04 0-2.82l31.7-31.71 7.069 7.07-5.649 5.66c-.79-.78-2.05-.78-2.84.01z" fill="#965353"/><path d="m39.656 3.883c-.46.141-10.56 3.37-14.25 15.67-.01.03-.02.051-.029.08l-2.841-.939c4.24-14.15 16.261-17.681 16.261-17.681l1.64 2.641z" fill="#e6e9ed"/><path d="m40.437 3.653 7.56 12.2-8.489 8.479-14.13-4.7c.01-.029.02-.05.029-.08 3.69-12.3 13.79-15.529 14.25-15.67z" fill="#ccd1d9"/><path d="m55.776 23.633c.39.391.39 1.021 0 1.41l-7.07 7.07c-.39.39-1.029.39-1.42 0l-7.069-7.07-.71-.71 8.489-8.479z" fill="#e6e9ed"/><path d="m39.513 25.336c-.256 0-.512-.098-.707-.293-.391-.391-.391-1.023 0-1.414l8.485-8.484c.391-.391 1.023-.391 1.414 0s.391 1.023 0 1.414l-8.485 8.484c-.196.195-.451.293-.707.293z"/><path d="m48.707 33.114c-.256 0-.512-.098-.707-.293-.391-.391-.391-1.023 0-1.414l7.069-7.069c.391-.391 1.023-.391 1.414 0s.391 1.023 0 1.414l-7.069 7.069c-.195.196-.451.293-.707.293z"/><path d="m47.999 16.852c-.335 0-.662-.168-.851-.473l-9.2-14.842c-.291-.47-.146-1.086.322-1.377.47-.291 1.088-.146 1.377.322l9.2 14.842c.291.47.146 1.086-.322 1.377-.164.102-.346.151-.526.151z"/><path d="m39.513 25.336c-.104 0-.211-.017-.315-.051l-16.978-5.648c-.524-.175-.808-.741-.634-1.265.175-.524.741-.806 1.265-.634l16.978 5.648c.524.175.808.741.634 1.265-.141.42-.531.685-.95.685z"/><path d="m22.535 19.688c-.095 0-.191-.014-.287-.042-.529-.159-.829-.717-.671-1.245 4.348-14.496 16.427-18.2 16.939-18.35.528-.163 1.083.146 1.24.676.156.528-.146 1.085-.674 1.242-.115.034-11.562 3.583-15.589 17.006-.13.433-.527.713-.958.713z"/><path d="m25.375 20.588c-.086 0-.174-.012-.261-.037-.527-.154-.844-.664-.693-1.192.003-.011.032-.104.035-.114 3.835-12.782 14.456-16.179 14.906-16.317l.791-.233c.532-.158 1.086.146 1.242.676s-.146 1.086-.676 1.242l-.78.23c-.398.122-10.037 3.206-13.573 14.994-.132.44-.55.751-.991.751z"/><path d="m8.517 57.748c-.256 0-.512-.098-.707-.293-.391-.391-.391-1.023 0-1.414l31.704-31.704c.391-.391 1.023-.391 1.414 0s.391 1.023 0 1.414l-31.704 31.704c-.196.195-.452.293-.707.293z"/><path d="m41.636 38.768c-.256 0-.512-.098-.707-.293-.391-.391-.391-1.023 0-1.414l5.654-5.654c.391-.391 1.023-.391 1.414 0s.391 1.023 0 1.414l-5.654 5.654c-.196.195-.451.293-.707.293z"/><path d="m41.648 38.779c-.256 0-.512-.098-.707-.292-.396-.396-1.041-.397-1.438 0-.391.389-1.024.39-1.415-.001-.39-.392-.39-1.024.001-1.415 1.179-1.174 3.09-1.174 4.267 0 .391.391.391 1.023.001 1.415-.196.196-.453.293-.709.293z"/><path d="m14.172 63.404c-.256 0-.512-.098-.707-.293-.391-.391-.391-1.023 0-1.414l24.624-24.625c.391-.391 1.023-.391 1.414 0s.391 1.023 0 1.414l-24.624 24.625c-.195.196-.451.293-.707.293z"/><path d="m8.517 60.575c-.256 0-.512-.098-.707-.292-.566-.566-.879-1.32-.879-2.121s.313-1.555.879-2.121c.391-.391 1.023-.391 1.414 0s.391 1.023 0 1.414c-.188.189-.293.44-.293.707s.104.518.293.705c.391.391.391 1.023.001 1.415-.196.196-.453.293-.708.293z"/><path d="m12.758 63.988c-.769 0-1.536-.292-2.121-.877-.391-.391-.391-1.023 0-1.414s1.023-.391 1.414 0 1.023.391 1.414 0 1.023-.391 1.414 0 .391 1.023 0 1.414c-.585.585-1.353.877-2.121.877z"/><path d="m11.345 63.403c-.256 0-.512-.098-.707-.293l-2.828-2.828c-.391-.391-.391-1.023 0-1.414s1.023-.391 1.414 0l2.828 2.828c.391.391.391 1.023 0 1.414-.196.196-.451.293-.707.293z"/><path d="m47.998 33.407c-.514 0-1.026-.195-1.417-.586s-.391-1.023 0-1.414 1.023-.391 1.414 0c.391-.392 1.026-.39 1.417 0 .391.391.393 1.023.002 1.414s-.903.586-1.416.586z"/><path d="m47.29 33.113c-.256 0-.512-.098-.707-.293l-7.777-7.777c-.391-.391-.391-1.023 0-1.414s1.023-.391 1.414 0l7.777 7.777c.391.391.391 1.023 0 1.414-.195.196-.451.293-.707.293z"/><path d="m55.776 26.045c-.256 0-.512-.098-.707-.293-.391-.391-.391-1.023 0-1.414l.001-.002c-.391-.391-.391-1.023 0-1.414.392-.392 1.023-.39 1.413 0 .78.78.78 2.05 0 2.83-.195.195-.451.293-.707.293z"/><path d="m55.776 24.629c-.256 0-.512-.098-.707-.293l-7.778-7.777c-.391-.391-.391-1.023 0-1.414s1.023-.391 1.414 0l7.778 7.777c.391.391.391 1.023 0 1.414-.195.195-.451.293-.707.293z"/></svg>