<svg id="icons" enable-background="new 0 0 64 64" height="512" viewBox="0 0 64 64" width="512" xmlns="http://www.w3.org/2000/svg"><path d="m16.495 9.01v53.99l-8-8.01v-53.99z" fill="#4a89dc"/><path d="m55.505 9.01h-39.01l-8-8.01h39z" fill="#3679ce"/><path d="m47.015 45.02c.83 0 1.5.671 1.5 1.5 0 .82-.67 1.5-1.5 1.5h-3.989c-.83 0-1.5-.67-1.5-1.5 0-.829.67-1.5 1.5-1.5h.5 3z" fill="#f5f7fa"/><path d="m46.525 19.01v26.01h-3v-26.01l1.5-2z" fill="#e6e9ed"/><path d="m38.015 17.01c.82 0 1.5.681 1.5 1.5 0 .83-.68 1.5-1.5 1.5h-.5-3-.5c-.83 0-1.5-.67-1.5-1.5 0-.819.67-1.5 1.5-1.5z" fill="#f5f7fa"/><path d="m37.515 46.02-1.5 2-1.5-2v-26.01h3z" fill="#e6e9ed"/><path d="m29.005 45.02c.83 0 1.5.671 1.5 1.5 0 .82-.67 1.5-1.5 1.5h-4c-.83 0-1.5-.67-1.5-1.5 0-.829.67-1.5 1.5-1.5h.5 3z" fill="#f5f7fa"/><path d="m28.505 19.01v26.01h-3v-26.01l1.5-2z" fill="#e6e9ed"/><path d="m38.015 20.01c.82 0 1.5-.67 1.5-1.5 0-.819-.68-1.5-1.5-1.5h-4c-.83 0-1.5.681-1.5 1.5 0 .83.67 1.5 1.5 1.5h.5v26.01l1.5 2 1.5-2v-26.01zm17.49-11v53.99h-39.01v-53.99zm-6.99 37.51c0-.829-.67-1.5-1.5-1.5h-.489v-26.01l-1.5-2-1.5 2v26.01h-.5c-.83 0-1.5.671-1.5 1.5 0 .83.67 1.5 1.5 1.5h3.989c.83 0 1.5-.68 1.5-1.5zm-18.01 0c0-.829-.67-1.5-1.5-1.5h-.5v-26.01l-1.5-2-1.5 2v26.01h-.5c-.83 0-1.5.671-1.5 1.5 0 .83.67 1.5 1.5 1.5h4c.83 0 1.5-.68 1.5-1.5z" fill="#5d9cec"/><path d="m55.506 64h-39.004c-.553 0-1-.447-1-1v-53.992c0-.553.447-1 1-1h39.004c.553 0 1 .447 1 1s-.447 1-1 1h-38.004v51.992h38.004c.553 0 1 .447 1 1s-.447 1-1 1z"/><path d="m8.494 55.992c-.553 0-1-.447-1-1v-53.992c0-.553.447-1 1-1h39.004c.553 0 1 .447 1 1s-.447 1-1 1h-38.004v52.992c0 .553-.447 1-1 1z"/><path d="m16.502 10.008c-.256 0-.512-.098-.707-.293l-8.008-8.008c-.391-.391-.391-1.023 0-1.414s1.023-.391 1.414 0l8.008 8.008c.391.391.391 1.023 0 1.414-.195.195-.451.293-.707.293z"/><path d="m55.506 10.008c-.256 0-.512-.098-.707-.293l-8.008-8.008c-.391-.391-.391-1.023 0-1.414s1.023-.391 1.414 0l8.008 8.008c.391.391.391 1.023 0 1.414-.195.195-.451.293-.707.293z"/><path d="m16.502 64c-.256 0-.512-.098-.707-.293l-8.008-8.008c-.391-.391-.391-1.023 0-1.414s1.023-.391 1.414 0l8.008 8.008c.391.391.391 1.023 0 1.414-.195.195-.451.293-.707.293z"/><path d="m48.48 55.994h-25c-.553 0-1-.447-1-1s.447-1 1-1h25c.553 0 1 .447 1 1s-.447 1-1 1z"/><path d="m41.49 58.997h-11.02c-.553 0-1-.447-1-1s.447-1 1-1h11.02c.553 0 1 .447 1 1s-.447 1-1 1z"/><path d="m55.506 64c-.553 0-1-.447-1-1v-53.992c0-.553.447-1 1-1s1 .447 1 1v53.992c0 .553-.447 1-1 1z"/><path d="m34.516 47.016c-.553 0-1-.447-1-1v-26.002c0-.553.447-1 1-1s1 .447 1 1v26.002c0 .552-.448 1-1 1z"/><path d="m37.516 47.016c-.553 0-1-.447-1-1v-26.002c0-.553.447-1 1-1s1 .447 1 1v26.002c0 .552-.448 1-1 1z"/><path d="m36.017 49.016c-.305 0-.604-.138-.801-.4l-1.5-2c-.332-.441-.242-1.068.2-1.399.441-.332 1.068-.243 1.399.2l1.5 2c.332.441.242 1.068-.2 1.399-.179.134-.389.2-.598.2z"/><path d="m36.015 49.016c-.209 0-.419-.065-.599-.2-.442-.331-.532-.958-.2-1.399l1.5-2c.331-.442.959-.531 1.399-.2.442.331.532.958.2 1.399l-1.5 2c-.196.262-.496.4-.8.4z"/><path d="m34.018 21.014c-1.379 0-2.5-1.121-2.5-2.5s1.121-2.5 2.5-2.5c.553 0 1 .447 1 1s-.447 1-1 1c-.275 0-.5.225-.5.5s.225.5.5.5c.553 0 1 .447 1 1s-.448 1-1 1z"/><path d="m38.016 21.014c-.553 0-1-.447-1-1s.447-1 1-1c.275 0 .5-.225.5-.5 0-.181-.092-.3-.146-.354s-.173-.146-.352-.146h-.001-.001c-.552 0-.999-.447-1-.999s.446-1 .999-1.001h.003c.666 0 1.293.26 1.765.73.473.473.733 1.101.733 1.77 0 1.379-1.121 2.5-2.5 2.5z"/><path d="m38.016 18.014h-3.998c-.553 0-1-.447-1-1s.447-1 1-1h3.998c.553 0 1 .447 1 1s-.448 1-1 1z"/><path d="m38.016 21.014h-3.998c-.553 0-1-.447-1-1s.447-1 1-1h3.998c.553 0 1 .447 1 1s-.448 1-1 1z"/><path d="m46.525 46.016c-.553 0-1-.447-1-1v-26.002c0-.553.447-1 1-1s1 .447 1 1v26.002c0 .552-.447 1-1 1z"/><path d="m43.525 46.016c-.553 0-1-.447-1-1v-26.002c0-.553.447-1 1-1s1 .447 1 1v26.002c0 .552-.447 1-1 1z"/><path d="m46.526 20.014c-.305 0-.604-.138-.801-.4l-1.5-2c-.332-.441-.242-1.068.2-1.399.441-.332 1.068-.243 1.399.2l1.5 2c.332.441.242 1.068-.2 1.399-.179.134-.389.2-.598.2z"/><path d="m43.524 20.014c-.209 0-.419-.065-.599-.2-.442-.331-.532-.958-.2-1.399l1.5-2c.332-.442.958-.53 1.399-.2.442.331.532.958.2 1.399l-1.5 2c-.195.262-.495.4-.8.4z"/><path d="m47.023 49.016c-.553 0-1-.447-1-1s.447-1 1-1c.275 0 .5-.225.5-.5s-.225-.5-.5-.5c-.553 0-1-.447-1-1s.447-1 1-1c1.379 0 2.5 1.121 2.5 2.5s-1.121 2.5-2.5 2.5z"/><path d="m43.025 49.016c-.666 0-1.293-.26-1.765-.73-.473-.473-.733-1.101-.733-1.77 0-1.379 1.121-2.5 2.5-2.5.553 0 1 .447 1 1s-.447 1-1 1c-.275 0-.5.225-.5.5 0 .181.092.3.146.354s.173.146.352.146h.001.001c.552 0 .999.447 1 .999s-.446 1-.999 1.001c-.001 0-.002 0-.003 0z"/><path d="m47.023 49.016h-3.996c-.553 0-1-.447-1-1s.447-1 1-1h3.996c.553 0 1 .447 1 1s-.447 1-1 1z"/><path d="m47.023 46.016h-3.996c-.553 0-1-.447-1-1s.447-1 1-1h3.996c.553 0 1 .447 1 1s-.447 1-1 1z"/><path d="m28.508 46.016c-.553 0-1-.447-1-1v-26.002c0-.553.447-1 1-1s1 .447 1 1v26.002c0 .552-.447 1-1 1z"/><path d="m25.508 46.016c-.553 0-1-.447-1-1v-26.002c0-.553.447-1 1-1s1 .447 1 1v26.002c0 .552-.447 1-1 1z"/><path d="m28.509 20.014c-.305 0-.604-.138-.801-.4l-1.5-2c-.332-.441-.242-1.068.2-1.399.44-.332 1.068-.243 1.399.2l1.5 2c.332.441.242 1.068-.2 1.399-.179.134-.389.2-.598.2z"/><path d="m25.507 20.014c-.209 0-.419-.065-.599-.2-.442-.331-.532-.958-.2-1.399l1.5-2c.331-.442.958-.53 1.399-.2.442.331.532.958.2 1.399l-1.5 2c-.196.262-.495.4-.8.4z"/><path d="m29.006 49.016c-.553 0-1-.447-1-1s.447-1 1-1c.275 0 .5-.225.5-.5s-.225-.5-.5-.5c-.553 0-1-.447-1-1s.447-1 1-1c1.379 0 2.5 1.121 2.5 2.5s-1.121 2.5-2.5 2.5z"/><path d="m25.008 49.016c-.666 0-1.293-.26-1.765-.73-.473-.473-.733-1.101-.733-1.77 0-1.379 1.121-2.5 2.5-2.5.553 0 1 .447 1 1s-.447 1-1 1c-.275 0-.5.225-.5.5 0 .181.092.3.146.354s.173.146.352.146h.001.001c.552 0 .999.447 1 .999s-.446 1-.999 1.001c-.001 0-.002 0-.003 0z"/><path d="m29.006 49.016h-3.996c-.553 0-1-.447-1-1s.447-1 1-1h3.996c.553 0 1 .447 1 1s-.447 1-1 1z"/><path d="m29.006 46.016h-3.996c-.553 0-1-.447-1-1s.447-1 1-1h3.996c.553 0 1 .447 1 1s-.447 1-1 1z"/></svg>