<svg id="icons" enable-background="new 0 0 64 64" height="512" viewBox="0 0 64 64" width="512" xmlns="http://www.w3.org/2000/svg"><path d="m23.01 48v-4-4-14.011h-.01c.01-1.66 1.35-2.989 3-2.989.01 3.319 2.689 5.989 6 5.989h.01v4.021h-.01c-1.65 0-2.99 1.34-2.99 2.99v.01 23.99c0 1.659-1.34 3-3 3s-3-1.341-3-3z" fill="#5d9cec"/><path d="m41 48v12c0 1.659-1.34 3-3 3s-3-1.341-3-3v-23.99-.01c0-1.65-1.34-2.99-2.99-2.99v-4.021c3.3-.01 5.98-2.68 5.99-5.989 1.66 0 2.99 1.329 3 2.989v.011 14 4z" fill="#5d9cec"/><path d="m35 22.989c0-1.649-1.34-3-3-3-1.65 0-3 1.351-3 3 0 1.66 1.35 3 3 3 1.66 0 3-1.34 3-3zm-3-6c3.31 0 6 2.69 6 6v.011c-.01 3.31-2.69 5.979-5.99 5.989h-.01c-3.311 0-5.99-2.67-6-5.989v-.011c0-3.309 2.689-6 6-6z" fill="#e6e9ed"/><g fill="#ccd1d9"><path d="m32 19.989c1.66 0 3 1.351 3 3 0 1.66-1.34 3-3 3-1.65 0-3-1.34-3-3 0-1.649 1.35-3 3-3z"/><path d="m32 13.829v3.16c-3.311 0-6 2.69-6 6l-2-2v-7.989l5-12h3v7.17c-1.16.409-1.99 1.52-1.99 2.83 0 1.3.83 2.409 1.99 2.829z"/><path d="m40 20.989-2 2c0-3.31-2.69-6-6-6v-3.16c1.17-.42 2-1.529 2-2.829 0-1.311-.83-2.421-2-2.83v-7.17h3l5 12z"/></g><path d="m31.998 2h-3c-.553 0-1-.447-1-1s.447-1 1-1h3c.553 0 1 .447 1 1s-.447 1-1 1z"/><path d="m31.998 9.17c-.553 0-1-.447-1-1v-7.17c0-.553.447-1 1-1s1 .447 1 1v7.17c0 .553-.447 1-1 1z"/><path d="m31.996 14.825c-.111 0-.225-.019-.335-.058-1.591-.565-2.659-2.08-2.659-3.77s1.069-3.205 2.661-3.771c.521-.185 1.093.088 1.277.607.185.521-.087 1.093-.607 1.277-.796.282-1.331 1.04-1.331 1.886 0 .845.534 1.603 1.329 1.885.521.186.792.757.607 1.277-.145.411-.531.667-.942.667z"/><path d="m23.998 14c-.129 0-.259-.024-.385-.077-.51-.212-.751-.798-.538-1.308l5-12c.214-.51.799-.751 1.308-.538.51.212.751.798.538 1.308l-5 12c-.16.384-.531.615-.923.615z"/><path d="m23.998 21.991c-.553 0-1-.447-1-1v-7.991c0-.553.447-1 1-1s1 .447 1 1v7.991c0 .553-.447 1-1 1z"/><path d="m31.998 29.993c-3.859 0-7-3.141-7-7s3.141-7 7-7 7 3.141 7 7-3.141 7-7 7zm0-12c-2.757 0-5 2.243-5 5s2.243 5 5 5 5-2.243 5-5-2.243-5-5-5z"/><path d="m31.998 26.993c-2.206 0-4-1.794-4-4s1.794-4 4-4 4 1.794 4 4-1.794 4-4 4zm0-6c-1.103 0-2 .897-2 2s.897 2 2 2 2-.897 2-2-.897-2-2-2z"/><path d="m31.996 17.995c-.553 0-1-.447-1-1v-3.17c0-.553.447-1 1-1s1 .447 1 1v3.17c0 .553-.447 1-1 1z"/><path d="m34.998 2h-3c-.553 0-1-.447-1-1s.447-1 1-1h3c.553 0 1 .447 1 1s-.447 1-1 1z"/><path d="m32 14.825c-.411 0-.797-.255-.942-.665-.185-.521.087-1.092.607-1.277.795-.282 1.329-1.04 1.329-1.885 0-.846-.535-1.604-1.331-1.886-.521-.185-.792-.757-.607-1.277s.754-.792 1.277-.607c1.592.565 2.661 2.081 2.661 3.771s-1.068 3.204-2.659 3.77c-.11.038-.224.056-.335.056z"/><path d="m39.998 14c-.392 0-.763-.231-.923-.615l-5-12c-.213-.51.028-1.096.538-1.308.509-.213 1.095.028 1.308.538l5 12c.213.51-.028 1.096-.538 1.308-.126.053-.256.077-.385.077z"/><path d="m39.998 21.991c-.553 0-1-.447-1-1v-7.991c0-.553.447-1 1-1s1 .447 1 1v7.991c0 .553-.447 1-1 1z"/><path d="m25.998 23.993c-.256 0-.512-.098-.707-.293l-2-2.002c-.391-.391-.391-1.024 0-1.414.391-.391 1.023-.391 1.414 0l2 2.002c.391.391.391 1.024 0 1.414-.195.196-.451.293-.707.293z"/><path d="m37.998 23.993c-.256 0-.512-.098-.707-.293-.391-.39-.391-1.023 0-1.414l2-2.002c.391-.391 1.023-.391 1.414 0 .391.39.391 1.023 0 1.414l-2 2.002c-.195.196-.451.293-.707.293z"/><path d="m32.002 34.005c-.553 0-1-.447-1-1v-4.012c0-.553.447-1 1-1s1 .447 1 1v4.012c0 .553-.447 1-1 1z"/><path d="m26.006 64c-2.206 0-4-1.794-4-4v-34.007c0-.553.447-1 1-1s1 .447 1 1v34.007c0 1.103.897 2 2 2s2-.897 2-2v-23.994c0-.553.447-1 1-1s1 .447 1 1v23.994c0 2.206-1.794 4-4 4z"/><path d="m37.996 64c-2.206 0-4-1.794-4-4v-23.994c0-.553.447-1 1-1s1 .447 1 1v23.994c0 1.103.897 2 2 2s2-.897 2-2v-34.007c0-.553.447-1 1-1s1 .447 1 1v34.007c0 2.206-1.794 4-4 4z"/><path d="m23 26.998c-.553 0-1-.447-1-1 0-2.205 1.794-3.999 4-3.999.553 0 1 .447 1 1s-.447 1-1 1c-1.103 0-2 .896-2 1.999 0 .553-.447 1-1 1z"/><path d="m29.004 37.004c-.553 0-1-.447-1-1 0-2.203 1.792-3.996 3.994-3.996.553 0 1 .447 1 1s-.447 1-1 1c-1.1 0-1.994.896-1.994 1.996 0 .553-.447 1-1 1z"/><path d="m41 26.998c-.553 0-1-.447-1-1 0-1.103-.897-1.999-2-1.999-.553 0-1-.447-1-1s.447-1 1-1c2.206 0 4 1.794 4 3.999 0 .553-.447 1-1 1z"/><path d="m34.998 37.004c-.553 0-1-.447-1-1 0-1.101-.896-1.996-1.996-1.996-.553 0-1-.447-1-1s.447-1 1-1c2.203 0 3.996 1.793 3.996 3.996 0 .553-.447 1-1 1z"/><path d="m24 41h-.994c-.553 0-1-.447-1-1s.447-1 1-1h.994c.553 0 1 .447 1 1s-.447 1-1 1z"/><path d="m24 45h-.994c-.553 0-1-.447-1-1s.447-1 1-1h.994c.553 0 1 .447 1 1s-.447 1-1 1z"/><path d="m24 49h-.994c-.553 0-1-.447-1-1s.447-1 1-1h.994c.553 0 1 .447 1 1s-.447 1-1 1z"/><path d="m40.994 41h-.994c-.553 0-1-.447-1-1s.447-1 1-1h.994c.553 0 1 .447 1 1s-.447 1-1 1z"/><path d="m40.994 45h-.994c-.553 0-1-.447-1-1s.447-1 1-1h.994c.553 0 1 .447 1 1s-.447 1-1 1z"/><path d="m40.994 49h-.994c-.553 0-1-.447-1-1s.447-1 1-1h.994c.553 0 1 .447 1 1s-.447 1-1 1z"/></svg>