<svg id="icons" enable-background="new 0 0 64 64" height="512" viewBox="0 0 64 64" width="512" xmlns="http://www.w3.org/2000/svg"><path d="m24.009 45.65-15.23 15.23c-2.09 2.09-7.78 2.12-7.78 2.12s.04-5.689 2.12-7.77l15.23-15.23z" fill="#ccd1d9"/><path d="m28.259 35.75v5.65.01l-4.25 4.24-5.66-5.65 4.25-4.25z" fill="#e6e9ed"/><path d="m28.259 35.75 14.811-14.81c-1.96 2.18-2.681 5.08-2.13 7.79h-.011l-12.67 12.67z" fill="#ccd1d9"/><path d="m60.369 16.37c3.51 3.51 3.51 9.21 0 12.729l-4.25 4.24c-3.51 3.51-9.21 3.51-12.72 0-1.311-1.31-2.13-2.92-2.46-4.609-.551-2.71.17-5.61 2.13-7.79l4.569-4.57c3.511-3.52 9.211-3.52 12.731 0zm-2.83 9.901c1.95-1.96 1.95-5.12 0-7.07-1.95-1.96-5.12-1.96-7.07 0l-4.239 4.24h-.011c-1.949 1.949-1.949 5.12 0 7.069 1.96 1.95 5.11 1.95 7.07 0h.01z" fill="#656d78"/><path d="m47.639 16.37-4.569 4.57c.1-.11.21-.221.319-.33-2.199 2.2-5.26 3.02-8.109 2.46-1.69-.33-3.3-1.16-4.61-2.46-3.52-3.521-3.52-9.21 0-12.73l4.24-4.24c3.51-3.52 9.21-3.52 12.729 0 3.51 3.51 3.51 9.21 0 12.73zm-2.829-2.83c1.949-1.95 1.949-5.12 0-7.07-1.95-1.949-5.12-1.949-7.07 0l-4.24 4.24h-.01c-1.95 1.95-1.95 5.12 0 7.07 1.96 1.96 5.13 1.96 7.08 0z" fill="#656d78"/><path d="m35.279 23.07c2.85.56 5.91-.26 8.109-2.46-.109.109-.22.22-.319.33l-14.81 14.81h-5.66z" fill="#ccd1d9"/><path d="m28.255 36.743c-.256 0-.512-.098-.707-.293-.391-.391-.391-1.023 0-1.414l19.381-19.38c.391-.391 1.023-.391 1.414 0s.391 1.023 0 1.414l-19.381 19.38c-.195.196-.451.293-.707.293z"/><path d="m47.636 17.363c-.256 0-.512-.098-.707-.293-.391-.391-.391-1.023 0-1.414 1.511-1.512 2.343-3.521 2.343-5.657s-.832-4.146-2.343-5.656c-3.119-3.119-8.195-3.12-11.314-.001-.391.391-1.023.391-1.414 0s-.391-1.023 0-1.414c3.898-3.899 10.244-3.898 14.143.001 1.889 1.888 2.929 4.399 2.929 7.07s-1.04 5.182-2.929 7.071c-.197.196-.452.293-.708.293z"/><path d="m44.807 14.534c-.256 0-.512-.098-.707-.293-.391-.391-.391-1.024 0-1.414.756-.755 1.172-1.76 1.172-2.828s-.417-2.073-1.172-2.829c-1.56-1.561-4.097-1.556-5.656.001-.391.391-1.023.391-1.414 0s-.391-1.023 0-1.414c2.338-2.34 6.143-2.341 8.484-.001 1.134 1.133 1.759 2.641 1.758 4.243 0 1.604-.624 3.11-1.758 4.242-.196.196-.451.293-.707.293z"/><path d="m37.029 24.236c-2.561 0-5.121-.975-7.071-2.924-3.899-3.898-3.899-10.243 0-14.142.391-.391 1.023-.391 1.414 0s.391 1.023 0 1.414c-3.119 3.119-3.119 8.194 0 11.313 3.119 3.117 8.194 3.117 11.313 0 .391-.391 1.023-.391 1.414 0s.391 1.023 0 1.414c-1.949 1.951-4.509 2.925-7.07 2.925z"/><path d="m37.029 20.241c-1.537 0-3.074-.585-4.244-1.755-2.339-2.34-2.339-6.148 0-8.488.391-.391 1.023-.391 1.414 0s.391 1.023 0 1.414c-1.56 1.561-1.56 4.1 0 5.66s4.099 1.561 5.66 0c.391-.391 1.023-.391 1.414 0s.391 1.023 0 1.414c-1.169 1.17-2.708 1.755-4.244 1.755z"/><path d="m40.564 18.777c-.256 0-.512-.098-.707-.293-.391-.391-.391-1.023 0-1.414l4.242-4.243c.391-.391 1.023-.391 1.414 0s.391 1.023 0 1.414l-4.242 4.243c-.195.196-.451.293-.707.293z"/><path d="m33.495 11.708c-.256 0-.512-.098-.707-.293-.391-.391-.391-1.023 0-1.414l4.243-4.242c.391-.391 1.023-.391 1.414 0s.391 1.023 0 1.414l-4.243 4.242c-.195.195-.451.293-.707.293z"/><path d="m30.666 8.879c-.256 0-.512-.098-.707-.293-.391-.391-.391-1.023 0-1.414l4.243-4.242c.391-.391 1.023-.391 1.414 0s.391 1.023 0 1.414l-4.243 4.242c-.195.195-.451.293-.707.293z"/><path d="m60.364 30.092c-.256 0-.512-.098-.707-.293-.391-.391-.391-1.023 0-1.414 3.118-3.119 3.118-8.195-.001-11.314-1.511-1.512-3.52-2.344-5.656-2.344-2.138 0-4.146.832-5.657 2.344-.391.391-1.023.391-1.414 0s-.391-1.023 0-1.414c1.889-1.89 4.399-2.93 7.071-2.93 2.671 0 5.182 1.04 7.07 2.93 3.899 3.898 3.899 10.243.001 14.143-.195.194-.451.292-.707.292z"/><path d="m57.535 27.263c-.256 0-.512-.098-.707-.293-.391-.391-.391-1.023 0-1.414 1.56-1.56 1.56-4.097.001-5.656-1.513-1.512-4.146-1.512-5.657 0-.391.391-1.023.391-1.414 0-.391-.39-.391-1.023 0-1.414 1.133-1.134 2.64-1.758 4.243-1.758s3.109.624 4.242 1.758c2.339 2.339 2.339 6.145-.001 8.484-.195.195-.451.293-.707.293z"/><path d="m49.758 36.965c-2.562 0-5.122-.975-7.071-2.924-3.899-3.9-3.899-10.244-.001-14.143.391-.391 1.023-.391 1.414 0s.391 1.023 0 1.414c-3.118 3.119-3.118 8.194.001 11.314 3.12 3.12 8.195 3.118 11.313 0 .391-.391 1.023-.391 1.414 0s.391 1.023 0 1.414c-1.949 1.95-4.51 2.925-7.07 2.925z"/><path d="m49.756 32.969c-1.537 0-3.073-.585-4.243-1.755-2.34-2.34-2.34-6.147 0-8.488.391-.391 1.023-.391 1.414 0s.391 1.023 0 1.414c-1.56 1.561-1.56 4.1 0 5.66.756.756 1.761 1.172 2.829 1.172h.001c1.069 0 2.074-.417 2.83-1.173.391-.391 1.023-.391 1.414 0s.391 1.023 0 1.414c-1.17 1.171-2.708 1.756-4.245 1.756z"/><path d="m53.292 31.504c-.256 0-.512-.098-.707-.293-.391-.391-.391-1.023 0-1.414l4.242-4.242c.391-.391 1.023-.391 1.414 0s.391 1.023 0 1.414l-4.242 4.242c-.195.195-.451.293-.707.293z"/><path d="m56.121 34.334c-.256 0-.512-.098-.707-.293-.391-.391-.391-1.023 0-1.414l4.243-4.242c.391-.391 1.023-.391 1.414 0s.391 1.023 0 1.414l-4.243 4.242c-.195.195-.451.293-.707.293z"/><path d="m46.224 24.436c-.256 0-.512-.098-.707-.293-.391-.391-.391-1.023 0-1.414l4.242-4.242c.391-.391 1.023-.391 1.414 0s.391 1.023 0 1.414l-4.242 4.242c-.196.195-.452.293-.707.293z"/><path d="m3.121 56.223c-.256 0-.512-.098-.707-.293-.391-.391-.391-1.023 0-1.414l32.154-32.153c.391-.391 1.023-.391 1.414 0s.391 1.023 0 1.414l-32.154 32.153c-.195.195-.451.293-.707.293z"/><path d="m8.776 61.877c-.256 0-.512-.098-.707-.293-.391-.391-.391-1.023 0-1.414l32.151-32.152c.391-.391 1.023-.391 1.414 0s.391 1.023 0 1.414l-32.151 32.152c-.195.195-.451.293-.707.293z"/><path d="m1 64c-.266 0-.52-.105-.707-.293-.189-.188-.295-.445-.293-.713.004-.624.103-6.167 2.414-8.479.391-.391 1.023-.391 1.414 0s.391 1.023 0 1.414c-1.199 1.2-1.651 4.174-1.783 6.026 1.853-.131 4.825-.584 6.025-1.784.391-.391 1.023-.391 1.414 0s.391 1.023 0 1.414c-2.312 2.313-7.854 2.411-8.478 2.415-.002 0-.004 0-.006 0z"/><path d="m28.255 36.743h-5.658c-.553 0-1-.447-1-1s.447-1 1-1h5.658c.553 0 1 .447 1 1s-.447 1-1 1z"/><path d="m28.254 42.402c-.553 0-1-.448-1-1l.001-5.659c0-.553.448-1 1-1 .553 0 1 .448 1 1l-.001 5.659c0 .553-.448 1-1 1z"/><path d="m24.008 46.646c-.256 0-.512-.098-.707-.293l-5.655-5.655c-.391-.391-.391-1.023 0-1.414s1.023-.391 1.414 0l5.655 5.655c.391.391.391 1.023 0 1.414-.195.196-.451.293-.707.293z"/><path d="m24.04 40.995c-.553 0-1.005-.447-1.005-1s.442-1 .994-1h.011c.552 0 1 .447 1 1s-.448 1-1 1z"/></svg>