<?xml version="1.0" encoding="iso-8859-1"?>
<!-- Generator: Adobe Illustrator 19.0.0, SVG Export Plug-In . SVG Version: 6.00 Build 0)  -->
<svg version="1.1" id="Layer_1" xmlns="http://www.w3.org/2000/svg" xmlns:xlink="http://www.w3.org/1999/xlink" x="0px" y="0px"
	 viewBox="0 0 512.004 512.004" style="enable-background:new 0 0 512.004 512.004;" xml:space="preserve">
<polygon style="fill:#FC6E51;" points="470.504,42.001 482.348,29.336 364.658,96.001 236.002,164.002 222.002,158.002 
	209.337,126.001 90.001,237.338 42.54,280.675 15.336,337.331 25.336,409.331 58.665,457.676 111.337,493.332 167.337,499.332 
	206.666,490.004 240.002,469.238 274.002,427.331 327.346,358.675 397.002,260.503 423.004,225.502 397.002,202.002 
	419.004,149.502 "/>
<path style="fill:#FECD57;" d="M245.002,361.503c0,53.109-43.055,96.173-96.172,96.173c-53.11,0-96.165-43.063-96.165-96.173
	c0-53.11,43.055-96.172,96.165-96.172C201.947,265.331,245.002,308.394,245.002,361.503z"/>
<path d="M405.941,201.861C400.285,182.861,512.004,0,512.004,0S258.127,150.189,235.713,150.189c-0.469,0-0.813-0.063-1.063-0.188
	c-21.25-10.36,5.156-58.875,5.156-58.875L51.813,249.611c0,0-5.453,4.891-8.078,7.516c-58.313,58.313-58.313,152.845,0,211.143
	c29.141,29.156,67.36,43.734,105.571,43.734c38.219,0,76.407-14.578,105.563-43.734c6.352-6.328,16.945-20.188,16.945-20.188
	l176.189-234.751c0,0-6.125,1.016-13.719,1.016C423.223,214.346,409.035,212.221,405.941,201.861z M254.807,435.19
	c-3.781,4.953-11.156,14.141-15,18.001c-24.188,24.172-56.313,37.484-90.5,37.484c-34.18,0-66.321-13.313-90.493-37.484
	c-24.172-24.173-37.484-56.313-37.484-90.485c0-34.188,13.313-66.328,37.484-90.5c2.203-2.188,4.547-4.375,6.953-6.453l0.188-0.172
	L206.808,146.86c0.094,0.359,0.188,0.719,0.313,1.063c3.063,9.594,9.344,16.954,18.157,21.25c3.188,1.563,6.719,2.359,10.438,2.359
	c8.281,0,19.625,0,157.055-77.875c20.455-11.578,40.674-23.188,58.893-33.719c-4.406,7.609-8.906,15.453-13.375,23.359
	c-58.924,104.079-55.799,114.548-52.799,124.657c2.125,7.094,7.688,17.5,22.393,23.328L254.807,435.19z"/>
<path d="M149.212,255.893c-27.305,0-54.603,10.423-75.431,31.251c-41.656,41.656-41.656,109.188,0,150.844
	c20.828,20.829,48.125,31.251,75.431,31.251c27.281,0,54.594-10.422,75.438-31.251c41.664-41.656,41.664-109.188,0-150.844
	C203.806,266.315,176.525,255.893,149.212,255.893z M209.556,422.909c-16.125,16.109-37.563,24.984-60.344,24.984
	c-22.79,0-44.227-8.875-60.337-24.984c-16.125-16.125-25-37.547-25-60.344s8.875-44.219,25-60.344
	c16.11-16.109,37.547-24.984,60.337-24.984c22.781,0,44.219,8.875,60.344,24.984c16.125,16.125,25,37.547,25,60.344
	S225.682,406.784,209.556,422.909z"/>
<g>
</g>
<g>
</g>
<g>
</g>
<g>
</g>
<g>
</g>
<g>
</g>
<g>
</g>
<g>
</g>
<g>
</g>
<g>
</g>
<g>
</g>
<g>
</g>
<g>
</g>
<g>
</g>
<g>
</g>
</svg>
