<?xml version="1.0" encoding="iso-8859-1"?>
<!-- Generator: Adobe Illustrator 19.0.0, SVG Export Plug-In . SVG Version: 6.00 Build 0)  -->
<svg version="1.1" id="Layer_1" xmlns="http://www.w3.org/2000/svg" xmlns:xlink="http://www.w3.org/1999/xlink" x="0px" y="0px"
	 viewBox="0 0 512.002 512.002" style="enable-background:new 0 0 512.002 512.002;" xml:space="preserve">
<polygon style="fill:#D94452;" points="304.683,299.995 204.011,401.323 158.683,404.667 118.684,380.667 106.684,343.323 
	116.684,299.995 165.339,255.332 215.339,209.996 144.683,139.333 95.34,190.348 38.012,255.996 10.684,317.323 28.012,411.323 
	89.34,475.994 164.011,503.322 250.651,484.666 373.337,363.995 "/>
<g>
	<polygon style="fill:#E5E8EC;" points="365.337,237.332 306.683,288.323 371.649,365.651 430.681,305.995 	"/>
	<polygon style="fill:#E5E8EC;" points="207.339,77.997 148.683,128.981 213.652,206.316 272.683,146.661 	"/>
</g>
<path d="M428.493,252.512c2.953,0,5.609-1.195,7.547-3.125l30.156-30.172c1.938-1.93,3.125-4.594,3.125-7.539
	c0-5.891-4.766-10.664-10.656-10.664c-2.953,0-5.625,1.195-7.547,3.125l-30.172,30.164c-1.922,1.93-3.125,4.594-3.125,7.539
	C417.821,247.73,422.603,252.512,428.493,252.512z"/>
<path d="M508.868,264.465c-2.078-2.078-4.813-3.109-7.547-3.109h-42.656c-2.734,0-5.469,1.031-7.547,3.109
	c-4.156,4.172-4.156,10.922,0,15.077c2.078,2.094,4.813,3.125,7.547,3.125h42.641c2.734,0.016,5.469-1.031,7.563-3.125
	C513.024,275.387,513.024,268.637,508.868,264.465z"/>
<path d="M405.868,219.215c2.078-2.078,3.125-4.813,3.125-7.539v-42.664c0-2.727-1.047-5.46-3.125-7.539
	c-4.172-4.164-10.922-4.164-15.078,0c-2.094,2.086-3.125,4.812-3.125,7.546v42.648c0,2.734,1.031,5.461,3.125,7.547
	C394.946,223.379,401.696,223.379,405.868,219.215z"/>
<path d="M270.151,94.161c2.938,0,5.609-1.195,7.531-3.125l30.172-30.164c1.922-1.93,3.125-4.594,3.125-7.539
	c0-5.891-4.781-10.672-10.672-10.672c-2.938,0-5.609,1.195-7.547,3.125L262.604,75.95c-1.938,1.93-3.125,4.602-3.125,7.547
	C259.48,89.388,264.261,94.161,270.151,94.161z"/>
<path d="M292.776,106.122c-4.172,4.164-4.172,10.922,0,15.086c2.078,2.078,4.813,3.117,7.547,3.117h42.639
	c2.734,0.008,5.469-1.039,7.547-3.117c4.172-4.164,4.172-10.922,0-15.086c-2.078-2.086-4.813-3.125-7.531-3.125h-42.654
	C297.589,102.997,294.855,104.036,292.776,106.122z"/>
<path d="M247.526,60.873c2.078-2.086,3.125-4.82,3.125-7.547V10.67c0-2.734-1.047-5.461-3.125-7.547
	c-4.172-4.164-10.922-4.164-15.094,0c-2.078,2.086-3.125,4.82-3.125,7.547v42.648c0,2.734,1.047,5.469,3.125,7.555
	C236.605,65.037,243.355,65.037,247.526,60.873z"/>
<path d="M442.634,301.23L442.634,301.23l-8.594-8.594l-1.75-1.75l-63.875-63.866l0,0l-4-4.008l-156.044,156.03
	c-20.797,20.813-54.625,20.813-75.422,0c-20.781-20.781-20.781-54.625,0-75.406l80.625-80.624v0.008l15.093-15.086v-0.008
	l60.328-60.327l-2.531-2.531l0,0l-74.203-74.204l0,0l-6.219-6.226L49.997,220.676l0,0c-66.64,66.647-66.64,174.694,0,241.335
	c66.64,66.655,174.702,66.655,241.342,0L447.368,305.98L442.634,301.23z M206.043,94.802l52.781,52.797l-15.078,15.078
	l-52.796-52.789L206.043,94.802z M175.871,124.966l52.796,52.796l-15.093,15.086l-52.797-52.796L175.871,124.966z M276.261,446.933
	c-14.266,14.266-30.891,25.296-49.391,32.796c-17.89,7.25-36.796,10.938-56.203,10.938s-38.313-3.688-56.203-10.938
	c-18.515-7.5-35.125-18.53-49.39-32.796c-14.25-14.266-25.297-30.875-32.797-49.391c-7.25-17.875-10.938-36.797-10.938-56.188
	c0-19.406,3.688-38.313,10.938-56.219c7.5-18.499,18.547-35.116,32.797-49.374l80.624-80.624l52.797,52.788l-80.625,80.616
	c-29.156,29.156-29.156,76.438,0,105.594s76.437,29.156,105.593,0l80.609-80.625l52.795,52.797L276.261,446.933z M371.962,351.23
	l-52.795-52.797l15.078-15.078l52.795,52.781L371.962,351.23z M402.118,321.058l-52.797-52.796l15.094-15.078l52.797,52.796
	L402.118,321.058z"/>
<g>
</g>
<g>
</g>
<g>
</g>
<g>
</g>
<g>
</g>
<g>
</g>
<g>
</g>
<g>
</g>
<g>
</g>
<g>
</g>
<g>
</g>
<g>
</g>
<g>
</g>
<g>
</g>
<g>
</g>
</svg>
