<?xml version="1.0" encoding="iso-8859-1"?>
<!-- Generator: Adobe Illustrator 19.0.0, SVG Export Plug-In . SVG Version: 6.00 Build 0)  -->
<svg version="1.1" id="Layer_1" xmlns="http://www.w3.org/2000/svg" xmlns:xlink="http://www.w3.org/1999/xlink" x="0px" y="0px"
	 viewBox="0 0 512.007 512.007" style="enable-background:new 0 0 512.007 512.007;" xml:space="preserve">
<polygon style="fill:#FECD57;" points="302.652,418.007 210.011,388.678 146.01,344.005 116.657,284.677 97.993,223.339 
	97.993,144.674 64.656,160.221 37.992,196.675 13.328,277.552 17.328,356.677 69.328,438.007 121.993,476.007 184.658,500.007 
	239.323,500.007 282.652,494.007 347.997,452.007 380.653,408.679 "/>
<path style="fill:#FB6D51;" d="M306.496,142.799c0,10.773-8.734,19.5-19.5,19.5s-19.5-8.727-19.5-19.5
	c0-10.766,8.734-19.5,19.5-19.5S306.496,132.033,306.496,142.799z"/>
<path d="M156.666,85.22h10.672v21.336c0,5.891,4.781,10.665,10.672,10.665s10.656-4.773,10.656-10.665V85.22h10.672
	c5.892,0,10.673-4.773,10.673-10.664s-4.781-10.664-10.673-10.664h-10.672v-21.11c0-5.891-4.766-10.672-10.656-10.672
	s-10.672,4.781-10.672,10.672v21.11h-10.672c-5.891,0-10.656,4.773-10.656,10.664S150.775,85.22,156.666,85.22z"/>
<path d="M330.653,245.551c-5.875,0-10.657,4.781-10.657,10.672v21.11H309.34c-5.906,0-10.688,4.781-10.688,10.672
	s4.781,10.672,10.688,10.672h10.656v21.328c0,5.891,4.782,10.672,10.657,10.672c5.906,0,10.688-4.781,10.688-10.672v-21.328h10.656
	c5.906,0,10.656-4.781,10.656-10.672s-4.75-10.672-10.656-10.672h-10.656v-21.11C341.341,250.332,336.56,245.551,330.653,245.551z"
	/>
<path d="M168.088,343.927c-64.735-64.734-79.157-160.721-43.298-239.402c-22.578,10.297-43.719,24.719-62.298,43.297
	c-83.313,83.306-83.313,218.386,0,301.7c41.657,41.656,96.252,62.485,150.847,62.485s109.189-20.829,150.846-62.485
	c18.563-18.578,33.001-39.719,43.282-62.313c-28.032,12.797-58.313,19.188-88.564,19.188
	C264.309,406.398,209.73,385.584,168.088,343.927z M349.091,434.429c-18.344,18.344-39.688,32.531-63.501,42.188
	c-23,9.328-47.298,14.063-72.251,14.063c-24.954,0-49.267-4.734-72.267-14.063c-23.798-9.656-45.157-23.844-63.501-42.188
	c-18.329-18.328-32.532-39.688-42.173-63.502c-9.328-23-14.063-47.313-14.063-72.25c0-24.954,4.734-49.267,14.063-72.267
	c9.641-23.805,23.844-45.172,42.173-63.501c3.266-3.273,6.641-6.414,10.109-9.422c-12.438,73.775,10.953,151.159,65.313,205.534
	c44.328,44.313,103.252,68.721,165.908,68.721c13.251,0,26.501-1.156,39.595-3.375C355.497,427.819,352.372,431.179,349.091,434.429
	z"/>
<path d="M193.072,266.895c0,5.891,4.781,10.657,10.673,10.657c5.891,0,10.672-4.767,10.672-10.657s-4.781-10.672-10.672-10.672
	C197.854,256.223,193.072,261.004,193.072,266.895z"/>
<path d="M394.654,21.336c5.906,0,10.688-4.781,10.688-10.672S400.561,0,394.654,0c-5.875,0-10.657,4.773-10.657,10.664
	S388.779,21.336,394.654,21.336z"/>
<path d="M501.343,298.786c-5.906,0-10.688,4.766-10.688,10.672c0,5.875,4.781,10.656,10.688,10.656
	c5.875,0,10.656-4.781,10.656-10.656C511.999,303.552,507.218,298.786,501.343,298.786z"/>
<path d="M501.343,97.337c5.875,0,10.656-4.781,10.656-10.672c0-5.594-4.313-10.172-9.781-10.617c0,0-36.25-2.883-80.782,2.344
	c-26.281,3.078-50.532,8.328-72.032,15.594c-15.781,5.328-30.095,11.781-42.876,19.266c-5.25-3.719-11.625-5.907-18.531-5.907
	c-17.688,0-32.001,14.329-32.001,32c0,17.672,14.313,32,32.001,32s32-14.328,32-32c0-2.969-0.406-5.836-1.156-8.563
	c33.563-19.133,73.908-27.516,104.658-31.157C465.874,94.611,501.343,97.337,501.343,97.337z M287.996,150.01
	c-5.875,0-10.656-4.789-10.656-10.664c0-5.883,4.781-10.672,10.656-10.672s10.656,4.789,10.656,10.672
	C298.652,145.221,293.871,150.01,287.996,150.01z"/>
<path d="M501.343,192.003h-10.688v-21.11c0-5.891-4.75-10.672-10.656-10.672c-5.875,0-10.656,4.781-10.656,10.672v21.11h-10.688
	c-5.875,0-10.657,4.773-10.657,10.664s4.782,10.672,10.657,10.672h10.688v21.329c0,5.891,4.781,10.665,10.656,10.665
	c5.906,0,10.656-4.774,10.656-10.665v-21.329h10.688c5.875,0,10.656-4.781,10.656-10.672S507.218,192.003,501.343,192.003z"/>
<g>
</g>
<g>
</g>
<g>
</g>
<g>
</g>
<g>
</g>
<g>
</g>
<g>
</g>
<g>
</g>
<g>
</g>
<g>
</g>
<g>
</g>
<g>
</g>
<g>
</g>
<g>
</g>
<g>
</g>
</svg>
