<?xml version="1.0" encoding="iso-8859-1"?>
<!-- Generator: Adobe Illustrator 19.0.0, SVG Export Plug-In . SVG Version: 6.00 Build 0)  -->
<svg version="1.1" id="Layer_1" xmlns="http://www.w3.org/2000/svg" xmlns:xlink="http://www.w3.org/1999/xlink" x="0px" y="0px"
	 viewBox="0 0 512 512" style="enable-background:new 0 0 512 512;" xml:space="preserve">
<polygon style="fill:#424953;" points="184.336,455.328 221.336,496 262.656,503 291.656,489.672 317.344,463 "/>
<rect x="58" y="250.67" style="fill:#EC5564;" width="391.34" height="52"/>
<polygon style="fill:#FECD57;" points="383,192 352,149 312.5,119 246,105 181.328,135.5 131.5,181.336 118.5,238.5 122.5,423 
	122.5,458.5 389,458.5 397.5,266 "/>
<ellipse style="fill:#424953;" cx="255.25" cy="28" rx="18.25" ry="17.5"/>
<path d="M469.328,277.344c0-23.578-19.094-42.672-42.656-42.672h-21.719c-5.219-73.969-64.313-133.063-138.281-138.281V62.172
	C279.094,57.781,288,45.938,288,32c0-17.672-14.328-32-32-32s-32,14.328-32,32c0,13.938,8.906,25.781,21.328,30.172v34.219
	c-73.969,5.219-133.063,64.313-138.281,138.281H85.328c-23.563,0-42.656,19.094-42.656,42.672c0,19.875,13.594,36.578,32,41.313V416
	c0,5.891,4.766,10.672,10.656,10.672S96,421.891,96,416v-96h10.672v128c0,11.781,9.547,21.344,21.328,21.344h54.109
	C196.859,494.844,224.422,512,256,512s59.141-17.156,73.891-42.656H384c11.781,0,21.328-9.563,21.328-21.344V320H416v95.672
	c0,5.891,4.781,10.672,10.672,10.672s10.656-4.781,10.656-10.672v-97.016C455.734,313.922,469.328,297.219,469.328,277.344z
	 M256,21.344c5.875,0,10.672,4.781,10.672,10.656c0,5.891-4.797,10.672-10.672,10.672c-5.891,0-10.672-4.781-10.672-10.672
	C245.328,26.125,250.109,21.344,256,21.344z M165.484,154.828c24.188-24.172,56.328-37.484,90.516-37.484
	s66.328,13.313,90.516,37.484c21.641,21.641,34.563,49.672,37.031,79.844H128.438C130.922,204.5,143.844,176.469,165.484,154.828z
	 M85.328,298.672c-11.75,0-21.328-9.578-21.328-21.328C64,265.578,73.578,256,85.328,256h21.344v42.672H85.328z M256,490.672
	c-18.906,0-35.922-8.25-47.656-21.328h95.313C291.922,482.422,274.906,490.672,256,490.672z M128,448V256h256v192H128z
	 M426.672,298.672h-21.344V256h21.344c11.75,0,21.328,9.578,21.328,21.344C448,289.094,438.422,298.672,426.672,298.672z"/>
<path d="M309.328,298.672c-5.891,0-10.656,4.781-10.656,10.672S303.438,320,309.328,320S320,315.234,320,309.344
	S315.219,298.672,309.328,298.672z"/>
<path d="M213.328,192c5.891,0,10.672-4.766,10.672-10.656s-4.781-10.672-10.672-10.672s-10.656,4.781-10.656,10.672
	S207.438,192,213.328,192z"/>
<path d="M352,298.672c-5.891,0-10.672,4.781-10.672,10.672S346.109,320,352,320s10.672-4.766,10.672-10.656
	S357.891,298.672,352,298.672z"/>
<path d="M202.672,298.672H160c-5.891,0-10.672,4.781-10.672,10.672S154.109,320,160,320h42.672c5.891,0,10.656-4.766,10.656-10.656
	S208.563,298.672,202.672,298.672z"/>
<path d="M298.672,192c5.891,0,10.656-4.766,10.656-10.656s-4.766-10.672-10.656-10.672S288,175.453,288,181.344
	S292.781,192,298.672,192z"/>
<g>
</g>
<g>
</g>
<g>
</g>
<g>
</g>
<g>
</g>
<g>
</g>
<g>
</g>
<g>
</g>
<g>
</g>
<g>
</g>
<g>
</g>
<g>
</g>
<g>
</g>
<g>
</g>
<g>
</g>
</svg>
