<?xml version="1.0" encoding="iso-8859-1"?>
<!-- Generator: Adobe Illustrator 19.0.0, SVG Export Plug-In . SVG Version: 6.00 Build 0)  -->
<svg version="1.1" id="Layer_1" xmlns="http://www.w3.org/2000/svg" xmlns:xlink="http://www.w3.org/1999/xlink" x="0px" y="0px"
	 viewBox="0 0 511.992 511.992" style="enable-background:new 0 0 511.992 511.992;" xml:space="preserve">
<path style="fill:#FECD57;" d="M490.682,255.996c0,129.623-105.092,234.699-234.698,234.699
	c-129.615,0-234.685-105.076-234.685-234.699c0-129.615,105.069-234.684,234.685-234.684
	C385.59,21.312,490.682,126.381,490.682,255.996z"/>
<path d="M500.557,11.437c-23.452-23.453-79.107-9.695-147.388,30.905c-29.608-13.492-62.515-21.015-97.17-21.015
	c-129.607,0-234.669,105.068-234.669,234.668c0,34.671,7.516,67.576,21.016,97.17c-40.608,68.28-54.358,123.936-30.921,147.389
	c23.468,23.453,79.123,9.703,147.388-30.906c29.609,13.484,62.515,21.016,97.187,21.016c129.591,0,234.667-105.061,234.667-234.668
	c0-34.656-7.53-67.562-21.03-97.163C510.26,90.553,524.01,34.89,500.557,11.437z M26.517,485.476
	c-10.015-10.016-7.063-44.78,22.078-99.92c1.734-3.297,3.563-6.641,5.438-10c16,26.953,37.233,50.452,62.312,69.045
	c0.047-0.031,0.078-0.031,0.109-0.063c6.688-3.53,13.516-7.374,20.453-11.499c-11.344-7.641-21.953-16.391-31.766-26.187
	c-19.594-19.609-34.983-42.438-45.718-67.828c-11.125-26.296-16.766-54.217-16.766-83.029s5.641-56.749,16.766-83.03
	c10.734-25.406,26.124-48.218,45.718-67.819c19.609-19.601,42.421-34.983,67.827-45.726c26.281-11.117,54.218-16.758,83.03-16.758
	s56.733,5.641,83.029,16.758c25.39,10.742,48.218,26.125,67.812,45.726c9.813,9.805,18.563,20.422,26.203,31.766
	c4.125-6.945,7.969-13.773,11.5-20.453c0.016-0.039,0.031-0.07,0.063-0.109c-18.609-25.078-42.093-46.312-69.046-62.312
	c3.359-1.883,6.703-3.703,10-5.445c55.125-29.14,89.905-32.085,99.92-22.078c10,10.016,7.063,44.789-22.077,99.913
	c-14.968,28.328-35.03,58.897-59.624,90.866c-25.656,33.359-55.077,66.687-87.436,99.045c-32.375,32.358-65.702,61.78-99.046,87.452
	c-31.968,24.577-62.546,44.639-90.873,59.607C71.299,492.539,36.533,495.476,26.517,485.476z M469.323,255.996
	c0,28.813-5.641,56.733-16.749,83.029c-10.75,25.391-26.125,48.219-45.734,67.828c-19.594,19.593-42.422,34.968-67.812,45.717
	c-26.296,11.125-54.233,16.75-83.029,16.75c-25.875,0-51.047-4.563-74.952-13.563c47.374-30.937,99.451-73.42,150.373-124.342
	c50.92-50.92,93.404-103.006,124.356-150.38C464.761,204.942,469.323,230.113,469.323,255.996z"/>
<g>
</g>
<g>
</g>
<g>
</g>
<g>
</g>
<g>
</g>
<g>
</g>
<g>
</g>
<g>
</g>
<g>
</g>
<g>
</g>
<g>
</g>
<g>
</g>
<g>
</g>
<g>
</g>
<g>
</g>
</svg>
