<svg height="512pt" viewBox="-168 0 512 512" width="512pt" xmlns="http://www.w3.org/2000/svg"><path d="m147.9375 480c6.628906 0 12 5.359375 12 12s-5.371094 12-12 12h-119.921875c-6.640625 0-12-5.359375-12-12s5.359375-12 12-12zm0 0" fill="#a0d468"/><path d="m87.9375 304h-71.441406l15.601562 176h111.839844l15.589844-176zm0 0" fill="#8cc152"/><path d="m128.015625 248c0-22.078125-17.917969-40-40.078125-40-21.601562 0-39.28125 17.199219-39.921875 38.640625-.640625-21.441406-18.320313-38.640625-39.917969-38.640625h-.082031l8.480469 96h143.039062l8.480469-96c-22.078125 0-40 17.921875-40 40zm0 0" fill="#a0d468"/><path d="m136.097656 20c0 .320312 0 .558594-.160156.878906-1.679688 6.242188-22.480469 11.121094-47.921875 11.121094-26.558594 0-48.078125-5.359375-48.078125-12s21.519531-12 48.078125-12c26.550781 0 48.082031 5.359375 48.082031 12zm0 0" fill="#da4453"/><path d="m39.9375 20c0 6.640625 21.519531 12 48.078125 12 25.441406 0 46.242187-4.878906 47.921875-11.121094v75.121094c0 26.480469-21.519531 48-48 48-26.488281 0-48-21.519531-48-48zm0 0" fill="#ed5565"/><path d="m27.960938 512c-11.03125 0-20-8.96875-20-20s8.96875-20 20-20c4.421874 0 8 3.574219 8 8s-3.578126 8-8 8c-2.199219 0-4 1.800781-4 4s1.800781 4 4 4c4.421874 0 8 3.574219 8 8s-3.578126 8-8 8zm0 0"/><path d="m143.929688 487.992188c-.234376 0-.480469-.007813-.714844-.03125-4.40625-.394532-7.65625-4.273438-7.261719-8.671876l24.109375-271.96875c.394531-4.390624 4.371094-7.617187 8.671875-7.265624 4.410156.394531 7.65625 4.273437 7.265625 8.671874l-24.113281 271.960938c-.367188 4.167969-3.855469 7.304688-7.957031 7.304688zm0 0"/><path d="m147.921875 512c-4.425781 0-8-3.574219-8-8s3.574219-8 8-8c2.199219 0 4-1.800781 4-4s-1.800781-3.992188-4-3.992188c-4.425781 0-8-3.574218-8-8 0-4.421874 3.574219-8 8-8 11.03125 0 20 8.96875 20 19.992188 0 11.03125-8.96875 20-20 20zm0 0"/><path d="m147.921875 487.992188h-119.960937c-4.425782 0-8-3.578126-8-8 0-4.425782 3.574218-8 8-8h119.960937c4.421875 0 8 3.574218 8 8 0 4.421874-3.578125 8-8 8zm0 0"/><path d="m147.921875 512h-119.960937c-4.425782 0-8-3.574219-8-8s3.574218-8 8-8h119.960937c4.421875 0 8 3.574219 8 8s-3.578125 8-8 8zm0 0"/><path d="m127.96875 256.015625c-4.425781 0-8-3.582031-8-8 0-17.65625-14.359375-32.023437-32.015625-32.023437s-32.023437 14.367187-32.023437 32.023437c0 4.417969-3.578126 8-8 8-4.425782 0-8-3.582031-8-8 0-26.480469 21.542968-48.023437 48.023437-48.023437s48.015625 21.542968 48.015625 48.023437c0 4.417969-3.578125 8-8 8zm0 0"/><path d="m127.96875 256.015625c-4.425781 0-8-3.582031-8-8 0-26.480469 21.542969-48.023437 48.023438-48.023437 4.425781 0 8 3.582031 8 8 0 4.414062-3.574219 8-8 8-17.65625 0-32.023438 14.367187-32.023438 32.023437 0 4.417969-3.578125 8-8 8zm0 0"/><path d="m32.105469 487.992188c-4.105469 0-7.59375-3.136719-7.960938-7.296876l-24.113281-271.960937c-.390625-4.398437 2.855469-8.285156 7.265625-8.671875 4.375-.34375 8.277344 2.867188 8.671875 7.265625l24.109375 271.96875c.394531 4.398437-2.855469 8.277344-7.261719 8.671875-.242187.015625-.480468.023438-.710937.023438zm0 0"/><path d="m48.0625 256.015625c-4.421875 0-8-3.582031-8-8 0-17.65625-14.367188-32.023437-32.023438-32.023437-4.421874 0-7.9999995-3.585938-7.9999995-8 0-4.417969 3.5781255-8 7.9999995-8 26.480469 0 48.023438 21.542968 48.023438 48.023437 0 4.417969-3.574219 8-8 8zm0 0"/><path d="m159.519531 312h-143.007812c-4.421875 0-8-3.574219-8-8s3.578125-8 8-8h143.015625c4.425781 0 8 3.574219 8 8s-3.582032 8-8.007813 8zm0 0"/><path d="m87.945312 487.992188c-4.425781 0-8-3.578126-8-8v-335.984376c0-4.414062 3.574219-8 8-8 4.421876 0 8 3.585938 8 8v335.984376c0 4.421874-3.578124 8-8 8zm0 0"/><path d="m87.929688 152c-30.875 0-56-25.121094-56-56 0-4.414062 3.574218-8 8-8 4.421874 0 8 3.585938 8 8 0 22.054688 17.941406 40 40 40 22.054687 0 40-17.945312 40-40 0-4.414062 3.574218-8 8-8 4.421874 0 8 3.585938 8 8 0 30.878906-25.121094 56-56 56zm0 0"/><path d="m39.929688 104c-4.425782 0-8-3.585938-8-8v-76c0-4.414062 3.574218-8 8-8 4.421874 0 8 3.585938 8 8v76c0 4.414062-3.578126 8-8 8zm0 0"/><path d="m135.929688 104c-4.425782 0-8-3.585938-8-8v-76c0-4.414062 3.574218-8 8-8 4.421874 0 8 3.585938 8 8v76c0 4.414062-3.578126 8-8 8zm0 0"/><path d="m87.992188 40c-13.152344 0-56.0625-1.441406-56.0625-20s42.917968-20 56.0625-20c13.144531 0 56.0625 1.441406 56.0625 20s-42.910157 20-56.0625 20zm-34.800782-20c6.777344 2.015625 18.625 4 34.800782 4 16.175781 0 28.023437-1.984375 34.800781-4-6.777344-2.015625-18.625-4-34.800781-4-16.175782 0-28.023438 1.984375-34.800782 4zm0 0"/></svg>