<svg height="512pt" viewBox="0 0 512 512" width="512pt" xmlns="http://www.w3.org/2000/svg"><path d="m363.921875 68.960938c-31.761719-18.472657-68.5625-28.960938-107.921875-28.960938s-76.160156 10.488281-107.921875 28.960938c-32.796875 18.878906-60.15625 46.238281-79.117187 79.039062-18.480469 31.769531-28.960938 68.640625-28.960938 108s10.480469 76.238281 28.960938 108c18.960937 32.808594 46.238281 60.078125 79.039062 79.039062 31.761719 18.480469 68.640625 28.960938 108 28.960938s76.238281-10.480469 108-28.960938c32.800781-18.960937 60.078125-46.230468 79.039062-79.039062 18.480469-31.761719 28.960938-68.640625 28.960938-108s-10.480469-76.230469-28.960938-108c-18.960937-32.800781-46.320312-60.160156-79.117187-79.039062zm-107.921875-60.960938c136.960938 0 248 111.039062 248 248s-111.039062 248-248 248-248-111.039062-248-248 111.039062-248 248-248zm0 0" fill="#656d78"/><path d="m267.28125 267.28125c-2.882812 2.886719-6.882812 4.71875-11.28125 4.71875-8.800781 0-16-7.191406-16-16 0-8.871094 7.199219-16 16-16s16 7.128906 16 16c0 4.398438-1.761719 8.398438-4.71875 11.28125zm0 0" fill="#656d78"/><path d="m267.28125 267.28125c2.957031-2.882812 4.71875-6.882812 4.71875-11.28125 0-8.871094-7.199219-16-16-16s-16 7.128906-16 16c0 8.808594 7.199219 16 16 16 4.398438 0 8.398438-1.832031 11.28125-4.71875zm175.757812-119.28125c18.480469 31.769531 28.960938 68.640625 28.960938 108s-10.480469 76.238281-28.960938 108c-18.960937 32.808594-46.238281 60.078125-79.039062 79.039062-31.761719 18.480469-68.640625 28.960938-108 28.960938s-76.238281-10.480469-108-28.960938c-32.800781-18.960937-60.078125-46.230468-79.039062-79.039062-18.480469-31.761719-28.960938-68.640625-28.960938-108s10.480469-76.230469 28.960938-108c18.960937-32.800781 46.320312-60.160156 79.117187-79.039062 31.761719-18.472657 68.5625-28.960938 107.921875-28.960938s76.160156 10.488281 107.921875 28.960938c32.796875 18.878906 60.15625 46.238281 79.117187 79.039062zm0 0" fill="#e6e9ed"/><path d="m256 512c-141.160156 0-256-114.839844-256-256s114.839844-256 256-256 256 114.839844 256 256-114.839844 256-256 256zm0-496c-132.335938 0-240 107.664062-240 240s107.664062 240 240 240 240-107.664062 240-240-107.664062-240-240-240zm0 0"/><path d="m256 480c-123.511719 0-224-100.488281-224-224s100.488281-224 224-224 224 100.488281 224 224-100.488281 224-224 224zm0-432c-114.695312 0-208 93.3125-208 208 0 114.695312 93.304688 208 208 208s208-93.304688 208-208c0-114.6875-93.304688-208-208-208zm0 0"/><path d="m256 280c-13.230469 0-24-10.769531-24-24s10.769531-24 24-24 24 10.769531 24 24-10.769531 24-24 24zm0-32c-4.414062 0-8 3.59375-8 8s3.585938 8 8 8 8-3.59375 8-8-3.585938-8-8-8zm0 0"/><path d="m256 56c-4.425781 0-8-3.585938-8-8v-8c0-4.414062 3.574219-8 8-8s8 3.585938 8 8v8c0 4.414062-3.574219 8-8 8zm0 0"/><path d="m256 480c-4.425781 0-8-3.574219-8-8v-7.992188c0-4.421874 3.574219-8 8-8s8 3.578126 8 8v7.992188c0 4.425781-3.574219 8-8 8zm0 0"/><path d="m152.007812 83.863281c-2.769531 0-5.457031-1.429687-6.9375-4l-4-6.925781c-2.214843-3.824219-.902343-8.722656 2.929688-10.929688 3.816406-2.214843 8.71875-.902343 10.929688 2.929688l4 6.925781c2.207031 3.832031.894531 8.722657-2.929688 10.929688-1.257812.726562-2.632812 1.070312-3.992188 1.070312zm0 0"/><path d="m364.007812 451.0625c-2.769531 0-5.457031-1.429688-6.9375-4l-4-6.917969c-2.207031-3.824219-.894531-8.71875 2.929688-10.929687 3.808594-2.207032 8.710938-.902344 10.929688 2.929687l4 6.917969c2.207031 3.824219.894531 8.722656-2.929688 10.929688-1.257812.726562-2.632812 1.070312-3.992188 1.070312zm0 0"/><path d="m75.855469 160c-1.359375 0-2.734375-.34375-3.992188-1.070312l-6.925781-4c-3.824219-2.210938-5.136719-7.097657-2.929688-10.929688 2.207032-3.832031 7.113282-5.144531 10.929688-2.929688l6.925781 4c3.832031 2.210938 5.144531 7.105469 2.929688 10.929688-1.480469 2.566406-4.167969 4-6.9375 4zm0 0"/><path d="m443.054688 372c-1.359376 0-2.726563-.34375-3.992188-1.070312l-6.917969-3.992188c-3.824219-2.210938-5.144531-7.105469-2.929687-10.929688 2.21875-3.824218 7.089844-5.144531 10.929687-2.929687l6.917969 3.992187c3.824219 2.210938 5.144531 7.105469 2.929688 10.929688-1.488282 2.558594-4.167969 4-6.9375 4zm0 0"/><path d="m48 264h-8c-4.425781 0-8-3.585938-8-8s3.574219-8 8-8h8c4.425781 0 8 3.585938 8 8s-3.574219 8-8 8zm0 0"/><path d="m472 264h-7.984375c-4.421875 0-8-3.585938-8-8s3.578125-8 8-8h7.984375c4.425781 0 8 3.585938 8 8s-3.574219 8-8 8zm0 0"/><path d="m68.953125 372c-2.769531 0-5.457031-1.433594-6.9375-4-2.207031-3.824219-.894531-8.71875 2.929687-10.929688l6.917969-4c3.816407-2.207031 8.710938-.902343 10.929688 2.929688 2.207031 3.824219.894531 8.71875-2.929688 10.929688l-6.917969 4c-1.257812.726562-2.632812 1.070312-3.992187 1.070312zm0 0"/><path d="m436.160156 159.992188c-2.769531 0-5.457031-1.433594-6.9375-4-2.207031-3.824219-.894531-8.71875 2.929688-10.929688l6.910156-3.992188c3.816406-2.214843 8.714844-.902343 10.929688 2.929688 2.207031 3.824219.894531 8.71875-2.929688 10.929688l-6.910156 3.992187c-1.265625.726563-2.640625 1.070313-3.992188 1.070313zm0 0"/><path d="m148 451.0625c-1.351562 0-2.726562-.34375-3.984375-1.070312-3.832031-2.199219-5.152344-7.097657-2.9375-10.921876l3.992187-6.925781c2.195313-3.832031 7.097657-5.160156 10.921876-2.9375 3.832031 2.199219 5.152343 7.097657 2.9375 10.921875l-3.992188 6.925782c-1.472656 2.570312-4.167969 4.007812-6.9375 4.007812zm0 0"/><path d="m360.007812 83.847656c-1.351562 0-2.726562-.34375-3.984374-1.070312-3.832032-2.203125-5.152344-7.097656-2.933594-10.929688l3.980468-6.910156c2.195313-3.816406 7.097657-5.152344 10.921876-2.9375 3.832031 2.199219 5.152343 7.097656 2.9375 10.929688l-3.984376 6.910156c-1.472656 2.574218-4.167968 4.007812-6.9375 4.007812zm0 0"/><path d="m256 248c-4.425781 0-8-3.585938-8-8v-111.992188c0-4.414062 3.574219-8 8-8s8 3.585938 8 8v111.992188c0 4.414062-3.574219 8-8 8zm0 0"/><path d="m360.015625 368.015625c-2.046875 0-4.09375-.785156-5.65625-2.34375l-92.703125-92.703125c-3.128906-3.128906-3.128906-8.183594 0-11.3125s8.183594-3.128906 11.3125 0l92.703125 92.703125c3.128906 3.128906 3.128906 8.183594 0 11.3125-1.558594 1.558594-3.609375 2.34375-5.65625 2.34375zm0 0"/></svg>