<svg height="512pt" viewBox="-152 0 512 512.03546" width="512pt" xmlns="http://www.w3.org/2000/svg"><path d="m176.03125 488.019531v16h-143.917969v-16c0-8.800781 7.117188-16 16-16h111.917969c8.871094 0 16 7.199219 16 16zm0 0" fill="#656d78"/><path d="m120.113281 464.019531v8h-32v-8c0-8.800781 7.117188-16 16-16 8.789063 0 16 7.199219 16 16zm0 0" fill="#545c66"/><path d="m152.113281 184.097656h-144.082031l48.082031-176.078125h96l48 176.078125zm0 0" fill="#e6e9ed"/><path d="m8.03125 192.109375c-.703125 0-1.40625-.097656-2.121094-.289063-4.253906-1.167968-6.773437-5.5625-5.605468-9.824218l48.046874-176.097656c1.167969-4.269532 5.566407-6.773438 9.832032-5.613282 4.253906 1.167969 6.777344 5.558594 5.609375 9.824219l-48.050781 176.09375c-.964844 3.558594-4.191407 5.90625-7.710938 5.90625zm0 0"/><path d="m200.113281 192.109375c-3.515625 0-6.746093-2.339844-7.714843-5.898437l-48.046876-176.09375c-1.167968-4.265626 1.351563-8.664063 5.609376-9.824219 4.277343-1.152344 8.664062 1.34375 9.832031 5.613281l48.046875 176.097656c1.167968 4.261719-1.351563 8.664063-5.609375 9.824219-.710938.183594-1.414063.28125-2.117188.28125zm0 0"/><path d="m152.070312 16.011719h-96c-4.421874 0-8-3.585938-8-8 0-4.417969 3.578126-8.0000002 8-8.0000002h96c4.425782 0 8 3.5820312 8 8.0000002 0 4.414062-3.574218 8-8 8zm0 0"/><path d="m200.070312 192.066406h-192c-4.421874 0-7.9999995-3.582031-7.9999995-8 0-4.414062 3.5781255-8 7.9999995-8h192c4.425782 0 8 3.585938 8 8 0 4.417969-3.574218 8-8 8zm0 0"/><path d="m192.054688 512.035156h-175.984376c-4.421874 0-8-3.574218-8-8 0-4.421875 3.578126-8 8-8h175.984376c4.425781 0 8 3.578125 8 8 0 4.425782-3.574219 8-8 8zm0 0"/><path d="m32.085938 496.019531c-4.421876 0-8-3.574219-8-8 0-13.230469 10.769531-24 24-24 4.425781 0 8 3.574219 8 8s-3.574219 8-8 8c-4.414063 0-8 3.582031-8 8 0 4.425781-3.574219 8-8 8zm0 0"/><path d="m176.054688 496.019531c-4.421876 0-8-3.574219-8-8 0-4.417969-3.582032-8-8-8-4.421876 0-8-3.574219-8-8s3.578124-8 8-8c13.234374 0 24 10.769531 24 24 0 4.425781-3.574219 8-8 8zm0 0"/><path d="m160.054688 480.019531h-111.96875c-4.421876 0-8-3.574219-8-8s3.578124-8 8-8h111.96875c4.425781 0 8 3.574219 8 8s-3.574219 8-8 8zm0 0"/><path d="m32.085938 512.035156c-4.421876 0-8-3.574218-8-8v-16.015625c0-4.425781 3.578124-8 8-8 4.425781 0 8 3.574219 8 8v16.015625c0 4.425782-3.574219 8-8 8zm0 0"/><path d="m176.054688 512.035156c-4.421876 0-8-3.574218-8-8v-16.015625c0-4.425781 3.578124-8 8-8 4.425781 0 8 3.574219 8 8v16.015625c0 4.425782-3.574219 8-8 8zm0 0"/><path d="m152.070312 264.019531c-4.421874 0-8-3.574219-8-8v-72c0-4.417969 3.578126-8 8-8 4.425782 0 8 3.582031 8 8v72c0 4.425781-3.574218 8-8 8zm0 0"/><path d="m120.070312 472.035156c-4.421874 0-8-3.574218-8-8 0-4.414062-3.582031-8-8-8-4.414062 0-8 3.585938-8 8 0 4.425782-3.574218 8-8 8-4.421874 0-8-3.574218-8-8 0-13.230468 10.769532-24 24-24 13.234376 0 24 10.769532 24 24 0 4.425782-3.574218 8-8 8zm0 0"/><path d="m104.070312 456.035156c-4.421874 0-8-3.574218-8-8v-263.9375c0-4.414062 3.578126-8 8-8 4.425782 0 8 3.585938 8 8v263.9375c0 4.425782-3.574218 8-8 8zm0 0"/><path d="m88.070312 480.019531c-4.421874 0-8-3.574219-8-8v-7.984375c0-4.421875 3.578126-8 8-8 4.425782 0 8 3.578125 8 8v7.984375c0 4.425781-3.574218 8-8 8zm0 0"/><path d="m120.070312 480.019531c-4.421874 0-8-3.574219-8-8v-7.984375c0-4.421875 3.578126-8 8-8 4.425782 0 8 3.578125 8 8v7.984375c0 4.425781-3.574218 8-8 8zm0 0"/></svg>