<svg height="512pt" viewBox="-48 0 512 512.128" width="512pt" xmlns="http://www.w3.org/2000/svg"><path d="m361.519531 167.574219c9.511719 27.042969 14.800781 56.960937 14.800781 88.488281v.160156c0 31.441406-5.28125 61.363282-14.800781 88.320313-11.839843 33.832031-30.246093 63.042969-53.199219 84.960937-27.921874 26.71875-62.558593 42.558594-100 42.558594h-.082031c-37.527343 0-72.167969-15.839844-100.167969-42.558594-22.871093-21.917968-41.359374-51.128906-53.109374-84.878906-9.359376-26.320312-14.5625-55.441406-14.800782-86.082031.078125-.71875.160156-1.519531.160156-2.320313 0-.796875-.082031-1.597656-.160156-2.398437.160156-30.71875 5.441406-59.839844 14.71875-86.238281 11.832032-33.832032 30.3125-63.042969 53.183594-84.960938 27.609375-26.320312 61.609375-42.082031 98.488281-42.480469h.160157c.488281.078125 1.050781.078125 1.609374.078125.558594 0 1.128907 0 1.589844-.078125h.082032c36.816406.398438 70.816406 16.160157 98.328124 42.480469 22.953126 21.917969 41.359376 51.117188 53.199219 84.949219zm0 0" fill="#5d9cec"/><path d="m40.160156 258.542969c.230469 30.640625 5.441406 59.761719 14.800782 86.082031h-.082032l-28 16.167969c-12.078125-31.769531-18.816406-67.199219-18.816406-104.5625h.25c0 8.800781 7.199219 16 16 16 8.078125-.007813 14.71875-5.933594 15.847656-13.6875zm0 0" fill="#965353"/><path d="m108.0625 429.503906-16.230469 28.238282c-27.839843-24.726563-50.390625-58.085938-64.953125-96.957032l28-16.167968h.082032c11.742187 33.757812 30.230468 62.957031 53.101562 84.886718zm0 0" fill="#844747"/><path d="m208.238281 472.0625h.082031v.160156c-8.800781 0-16 7.121094-16 16 0 8 5.917969 14.640625 13.589844 15.839844-42.46875-.636719-81.839844-17.6875-114.078125-46.320312l16.230469-28.238282c28 26.71875 62.640625 42.558594 100.175781 42.558594zm0 0" fill="#965353"/><path d="m208.320312 472.222656c8.871094 0 16 7.121094 16 16 0 8-5.839843 14.640625-13.609374 15.839844-.800782 0-1.671876 0-2.472657 0-.796875 0-1.605469 0-2.328125 0-7.671875-1.199219-13.589844-7.839844-13.589844-15.839844 0-8.886718 7.199219-16 16-16zm0 0" fill="#844747"/><path d="m208.320312 472.0625c37.441407 0 72.078126-15.839844 100-42.558594l.078126.082032 16.234374 28.078124c-32.160156 28.640626-71.511718 45.769532-113.921874 46.40625 7.769531-1.199218 13.609374-7.839843 13.609374-15.839843 0-8.878907-7.128906-16-16-16zm0 0" fill="#965353"/><path d="m361.519531 344.542969 28.082031 16.242187c-14.640624 38.800782-37.128906 72.160156-64.96875 96.871094l-16.234374-28.082031-.078126-.078125c22.953126-21.921875 41.359376-51.121094 53.199219-84.953125zm0 0" fill="#844747"/><path d="m392.320312 240.222656c8.800782 0 15.917969 7.042969 16 15.839844v.160156.082032c-.082031 8.808593-7.128906 15.917968-16 15.917968-8.800781 0-16-7.199218-16-16 0-.078125 0-.078125 0-.160156.070313-8.804688 7.28125-15.839844 16-15.839844zm0 0" fill="#844747"/><path d="m408.320312 256.296875c0 37.359375-6.71875 72.71875-18.71875 104.488281l-28.082031-16.242187c9.511719-26.957031 14.800781-56.878907 14.800781-88.320313 0 8.800782 7.199219 16 16 16 8.871094 0 15.917969-7.117187 16-15.925781zm0 0" fill="#965353"/><path d="m376.320312 256.0625c0-31.519531-5.28125-61.445312-14.800781-88.488281l28-16.238281c12.082031 31.839843 18.800781 67.359374 18.800781 104.726562-.082031-8.804688-7.199218-15.839844-16-15.839844-8.71875 0-15.929687 7.035156-16 15.839844zm0 0" fill="#965353"/><path d="m389.519531 151.335938-28 16.238281c-11.839843-33.832031-30.246093-63.039063-53.199219-84.957031l.078126-.082032 16.082031-27.917968.160156-.160157c27.75 24.726563 50.320313 58.085938 64.878906 96.878907zm0 0" fill="#844747"/><path d="m209.992188 40.144531c8.078124-.878906 14.328124-7.679687 14.328124-15.921875 0-8.878906-7.128906-16-16-16v-.160156c43.359376 0 83.511719 17.195312 116.3125 46.402344l-.160156.160156-16.082031 27.917969-.078125.082031c-27.511719-26.328125-61.511719-42.082031-98.320312-42.480469zm0 0" fill="#965353"/><path d="m224.320312 24.222656c0 8.242188-6.25 15.042969-14.328124 15.921875 0 0 0 0-.082032 0-.558594-.082031-1.109375-.082031-1.671875-.082031-.484375 0-1.046875 0-1.527343.082031-.078126 0-.160157 0-.160157 0-8-.878906-14.230469-7.769531-14.230469-15.921875 0-8.878906 7.199219-16 16-16 8.871094 0 16 7.113282 16 16zm0 0" fill="#844747"/><path d="m208.238281 8.0625h.082031v.160156c-8.800781 0-16 7.121094-16 16 0 8.160156 6.230469 15.042969 14.230469 15.921875-36.871093.398438-70.871093 16.160157-98.488281 42.480469l-16.230469-28.160156c32.800781-29.207032 73.046875-46.402344 116.40625-46.402344zm0 0" fill="#965353"/><path d="m91.832031 54.464844 16.230469 28.160156c-22.871094 21.917969-41.359375 51.128906-53.183594 84.960938l-28-16.242188c14.5625-38.800781 37.113282-72.238281 64.953125-96.878906zm0 0" fill="#844747"/><path d="m24.320312 240.222656c-8.800781 0-16 7.121094-16 16h-.257812c0-.078125 0-.078125 0-.160156 0-37.367188 6.738281-72.878906 18.816406-104.726562l28 16.238281c-9.277344 26.402343-14.558594 55.523437-14.71875 86.242187-1.128906-7.671875-7.769531-13.59375-15.839844-13.59375zm0 0" fill="#965353"/><path d="m40.0625 256.0625c0 .800781 0 1.679688.097656 2.480469-1.128906 7.761719-7.769531 13.679687-15.839844 13.679687-8.800781 0-16-7.199218-16-16 0-8.878906 7.199219-16 16-16 8.078126 0 14.71875 5.921875 15.839844 13.601563-.097656.71875-.097656 1.511719-.097656 2.238281zm0 0" fill="#844747"/><path d="m150.40625 458.753906c14.832031 7 30.609375 11.40625 47.066406 12.75l31.855469-429.542968c-6.359375-1.015626-12.785156-1.746094-19.34375-1.816407 0 0 0 0-.082031 0-.46875.078125-1.03125.078125-1.589844.078125s-1.128906 0-1.609375-.078125c-.078125 0-.160156 0-.160156 0-8.605469.09375-17.046875 1.101563-25.3125 2.816407zm0 0" fill="#87bcf4"/><path d="m213.503906 471.792969c5.441406-.21875 10.800782-.769531 16.097656-1.632813l31.09375-419.238281c-5.078124-2.152344-10.28125-3.921875-15.574218-5.449219zm0 0" fill="#87bcf4"/><path d="m208.191406 480c-97.121094 0-176.128906-100.488281-176.128906-224s79.007812-224 176.128906-224 176.128906 100.488281 176.128906 224-79.007812 224-176.128906 224zm0-432c-88.296875 0-160.128906 93.304688-160.128906 208s71.832031 208 160.128906 208 160.128906-93.304688 160.128906-208-71.832031-208-160.128906-208zm0 0"/><path d="m208.191406 512c-114.757812 0-208.128906-114.839844-208.128906-256s93.371094-256 208.128906-256c114.761719 0 208.128906 114.839844 208.128906 256s-93.367187 256-208.128906 256zm0-496c-105.933594 0-192.128906 107.664062-192.128906 240s86.183594 240 192.128906 240c105.945313 0 192.128906-107.664062 192.128906-240s-86.191406-240-192.128906-240zm0 0"/><path d="m108.0625 90.550781c-2.765625 0-5.453125-1.429687-6.933594-4l-16.273437-28.167969c-2.207031-3.832031-.894531-8.71875 2.929687-10.925781 3.816406-2.21875 8.710938-.90625 10.925782 2.925781l16.273437 28.167969c2.207031 3.832031.894531 8.722657-2.929687 10.929688-1.253907.726562-2.628907 1.070312-3.992188 1.070312zm0 0"/><path d="m324.609375 465.625c-2.769531 0-5.457031-1.441406-6.9375-4l-16.246094-28.160156c-2.210937-3.832032-.898437-8.722656 2.925781-10.929688 3.816407-2.207031 8.710938-.894531 10.929688 2.929688l16.246094 28.160156c2.207031 3.832031.898437 8.71875-2.925782 10.925781-1.257812.730469-2.632812 1.074219-3.992187 1.074219zm0 0"/><path d="m54.871094 175.488281c-1.359375 0-2.734375-.34375-3.992188-1.074219l-28.175781-16.277343c-3.832031-2.207031-5.144531-7.113281-2.925781-10.929688 2.207031-3.832031 7.109375-5.144531 10.925781-2.925781l28.175781 16.277344c3.832032 2.210937 5.144532 7.113281 2.929688 10.929687-1.480469 2.566407-4.167969 4-6.9375 4zm0 0"/><path d="m389.574219 368.71875c-1.359375 0-2.734375-.34375-3.988281-1.070312l-28.136719-16.234376c-3.832031-2.207031-5.144531-7.101562-2.929688-10.925781 2.214844-3.824219 7.105469-5.144531 10.929688-2.929687l28.136719 16.234375c3.828124 2.207031 5.140624 7.101562 2.925781 10.925781-1.488281 2.5625-4.167969 4-6.9375 4zm0 0"/><path d="m26.863281 368.6875c-2.765625 0-5.457031-1.441406-6.933593-4-2.210938-3.832031-.898438-8.71875 2.925781-10.925781l28-16.160157c3.816406-2.210937 8.710937-.898437 10.929687 2.925782 2.207032 3.832031.894532 8.71875-2.929687 10.929687l-28 16.160157c-1.253907.726562-2.632813 1.070312-3.992188 1.070312zm0 0"/><path d="m361.113281 175.71875c-2.769531 0-5.457031-1.429688-6.9375-4-2.207031-3.824219-.894531-8.71875 2.929688-10.925781l28.480469-16.457031c3.8125-2.199219 8.710937-.902344 10.925781 2.929687 2.207031 3.824219.894531 8.71875-2.925781 10.925781l-28.480469 16.457032c-1.257813.726562-2.632813 1.070312-3.992188 1.070312zm0 0"/><path d="m91.785156 465.625c-1.359375 0-2.730468-.34375-3.992187-1.074219-3.824219-2.199219-5.144531-7.101562-2.929688-10.925781l16.265625-28.199219c2.207032-3.832031 7.078125-5.144531 10.925782-2.929687 3.824218 2.199218 5.144531 7.105468 2.929687 10.929687l-16.265625 28.199219c-1.480469 2.566406-4.167969 4-6.933594 4zm0 0"/><path d="m308.359375 90.488281c-1.359375 0-2.734375-.34375-3.992187-1.074219-3.832032-2.207031-5.144532-7.101562-2.925782-10.925781l16.117188-27.902343c2.210937-3.832032 7.105468-5.136719 10.929687-2.929688 3.832031 2.207031 5.144531 7.105469 2.925781 10.929688l-16.117187 27.902343c-1.480469 2.566407-4.167969 4-6.9375 4zm0 0"/><path d="m24.320312 280.128906c-13.230468 0-24-10.769531-24-24 0-13.234375 10.769532-24 24-24 13.230469 0 24 10.765625 24 24 0 13.230469-10.769531 24-24 24zm0-32c-4.417968 0-8 3.582032-8 8 0 4.414063 3.582032 8 8 8 4.414063 0 8-3.585937 8-8 0-4.417968-3.59375-8-8-8zm0 0"/><path d="m392.320312 280.128906c-13.230468 0-24-10.769531-24-24 0-13.234375 10.769532-24 24-24 13.230469 0 24 10.765625 24 24 0 13.230469-10.769531 24-24 24zm0-32c-4.417968 0-8 3.582032-8 8 0 4.414063 3.582032 8 8 8 4.414063 0 8-3.585937 8-8 0-4.417968-3.59375-8-8-8zm0 0"/><path d="m208.320312 48.128906c-13.230468 0-24-10.769531-24-24 0-13.234375 10.769532-24 24-24 13.230469 0 24 10.765625 24 24 0 13.230469-10.769531 24-24 24zm0-32c-4.417968 0-8 3.582032-8 8 0 4.414063 3.582032 8 8 8 4.414063 0 8-3.585937 8-8 0-4.417968-3.59375-8-8-8zm0 0"/><path d="m208.320312 512.128906c-13.230468 0-24-10.769531-24-24 0-13.234375 10.769532-24 24-24 13.230469 0 24 10.765625 24 24 0 13.230469-10.769531 24-24 24zm0-32c-4.417968 0-8 3.582032-8 8 0 4.414063 3.582032 8 8 8 4.414063 0 8-3.585937 8-8 0-4.417968-3.59375-8-8-8zm0 0"/></svg>