<svg height="512pt" viewBox="0 -20 512.004 512" width="512pt" xmlns="http://www.w3.org/2000/svg"><path d="m256.003906 7.984375c8.878906 0 16 7.203125 16 16 0 2.5625-.640625 4.960937-1.683594 7.121094-2.636718 5.28125-8 8.878906-14.316406 8.878906-6.242187 0-11.683594-3.597656-14.320312-8.878906-1.121094-2.160157-1.679688-4.558594-1.679688-7.121094 0-8.789063 7.199219-16 16-16zm0 0" fill="#656d78"/><g fill="#965353"><path d="m32.003906 143.984375v296l-24 24.082031v-344.082031zm0 0"/><path d="m448.003906 119.984375h56l-24 24h-448l-24-24zm0 0"/><path d="m504.003906 119.984375v344.082031l-24-24.082031v-296zm0 0"/><path d="m480.003906 439.984375 24 24.082031h-496l24-24.082031zm0 0"/></g><path d="m320.003906 263.984375 136.238282 176h-272.480469l47.839843-61.757813zm0 0" fill="#f5f7fa"/><path d="m192.003906 327.984375 39.597656 50.242187-47.839843 61.757813h-80zm0 0" fill="#e6e9ed"/><path d="m120.003906 199.984375c17.679688 0 32 14.320313 32 32s-14.320312 32-32 32c-17.601562 0-32-14.320313-32-32s14.398438-32 32-32zm0 0" fill="#ffce54"/><path d="m480.003906 143.984375v296h-23.761718l-136.238282-176-88.402344 114.242187-39.597656-50.242187-88.242187 112h-71.757813v-296zm-328 88c0-17.679687-14.320312-32-32-32-17.601562 0-32 14.320313-32 32s14.398438 32 32 32c17.679688 0 32-14.320313 32-32zm0 0" fill="#5d9cec"/><path d="m504.003906 472.050781h-496c-4.425781 0-7.99999975-3.578125-7.99999975-8v-344.023437c0-4.417969 3.57421875-8 7.99999975-8h496c4.421875 0 8 3.582031 8 8v344.023437c0 4.421875-3.578125 8-8 8zm-488-16h480v-328.023437h-480zm0 0"/><path d="m479.976562 448.027344h-447.949218c-4.425782 0-8-3.578125-8-8v-295.984375c0-4.417969 3.574218-8 8-8h447.949218c4.425782 0 8 3.582031 8 8v295.984375c0 4.421875-3.574218 8-8 8zm-439.949218-16h431.949218v-279.984375h-431.949218zm0 0"/><path d="m479.976562 152.042969c-2.046874 0-4.09375-.785157-5.65625-2.34375-3.125-3.128907-3.125-8.191407 0-11.3125l24.027344-24.015625c3.125-3.128906 8.183594-3.128906 11.308594 0 3.128906 3.125 3.128906 8.191406 0 11.3125l-24.023438 24.015625c-1.558593 1.558593-3.605468 2.34375-5.65625 2.34375zm0 0"/><path d="m504.003906 472.050781c-2.050781 0-4.097656-.785156-5.65625-2.34375l-24.027344-24.023437c-3.125-3.128906-3.125-8.1875 0-11.3125 3.128907-3.128906 8.1875-3.128906 11.3125 0l24.023438 24.023437c3.128906 3.128907 3.128906 8.183594 0 11.3125-1.558594 1.558594-3.605469 2.34375-5.652344 2.34375zm0 0"/><path d="m32.027344 152.042969c-2.050782 0-4.097656-.785157-5.65625-2.34375l-24.023438-24.015625c-3.128906-3.121094-3.128906-8.1875 0-11.3125 3.125-3.128906 8.183594-3.128906 11.308594 0l24.027344 24.015625c3.125 3.121093 3.125 8.183593 0 11.3125-1.5625 1.558593-3.609375 2.34375-5.65625 2.34375zm0 0"/><path d="m8.003906 472.050781c-2.050781 0-4.097656-.785156-5.65625-2.34375-3.128906-3.128906-3.128906-8.183593 0-11.3125l24.023438-24.023437c3.125-3.128906 8.183594-3.128906 11.3125 0 3.125 3.125 3.125 8.183594 0 11.3125l-24.027344 24.023437c-1.558594 1.558594-3.605469 2.34375-5.652344 2.34375zm0 0"/><path d="m103.769531 448.027344c-1.734375 0-3.480469-.5625-4.945312-1.722656-3.46875-2.734376-4.0625-7.757813-1.328125-11.230469l88.25-112.03125c2.734375-3.464844 7.769531-4.058594 11.230468-1.328125 3.472657 2.734375 4.066407 7.757812 1.328126 11.230468l-88.246094 112.03125c-1.578125 2-3.921875 3.050782-6.289063 3.050782zm0 0"/><path d="m231.609375 386.226562c-2.367187 0-4.710937-1.046874-6.289063-3.046874l-39.574218-50.234376c-2.734375-3.480468-2.144532-8.503906 1.328125-11.230468 3.480469-2.730469 8.503906-2.136719 11.230469 1.328125l39.578124 50.230469c2.734376 3.480468 2.144532 8.503906-1.328124 11.234374-1.464844 1.15625-3.207032 1.71875-4.945313 1.71875zm0 0"/><path d="m183.753906 448.027344c-1.710937 0-3.433594-.546875-4.886718-1.671875-3.496094-2.707031-4.136719-7.738281-1.433594-11.226563l136.25-176.03125c2.710937-3.488281 7.734375-4.121094 11.222656-1.433594 3.496094 2.707032 4.136719 7.738282 1.433594 11.226563l-136.25 176.03125c-1.582032 2.03125-3.945313 3.105469-6.335938 3.105469zm0 0"/><path d="m456.265625 448.027344c-2.390625 0-4.757813-1.074219-6.335937-3.105469l-136.246094-176.03125c-2.707032-3.496094-2.066406-8.519531 1.429687-11.226563 3.503907-2.695312 8.511719-2.0625 11.226563 1.433594l136.246094 176.03125c2.703124 3.496094 2.0625 8.519532-1.433594 11.226563-1.453125 1.125-3.175782 1.671875-4.886719 1.671875zm0 0"/><path d="m120.019531 272.011719c-22.058593 0-40-17.945313-40-40 0-22.058594 17.941407-40 40-40 22.054688 0 40 17.941406 40 40 0 22.054687-17.945312 40-40 40zm0-64c-13.234375 0-24 10.765625-24 24 0 13.230469 10.765625 24 24 24 13.230469 0 24-10.769531 24-24 0-13.234375-10.769531-24-24-24zm0 0"/><path d="m256.003906 47.992188c-13.234375 0-24-10.757813-24-23.988282 0-13.234375 10.765625-23.99999975 24-23.99999975 13.230469 0 24 10.76562475 24 23.99999975 0 13.230469-10.769531 23.988282-24 23.988282zm0-31.988282c-4.417968 0-8 3.589844-8 8 0 4.40625 3.582032 7.988282 8 7.988282 4.414063 0 8-3.582032 8-7.988282 0-4.410156-3.585937-8-8-8zm0 0"/><path d="m64.011719 128.027344c-2.9375 0-5.761719-1.617188-7.167969-4.417969-1.976562-3.953125-.378906-8.757813 3.574219-10.734375l177.59375-88.871094c3.941406-1.992187 8.75-.378906 10.734375 3.566406 1.976562 3.953126.375 8.757813-3.574219 10.734376l-177.59375 88.875c-1.144531.574218-2.367187.847656-3.566406.847656zm0 0"/><path d="m447.992188 128.027344c-1.199219 0-2.421876-.273438-3.566407-.847656l-177.589843-88.875c-3.953126-1.976563-5.554688-6.78125-3.578126-10.734376 1.984376-3.953124 6.785157-5.558593 10.734376-3.566406l177.585937 88.871094c3.953125 1.976562 5.550781 6.78125 3.574219 10.734375-1.398438 2.800781-4.222656 4.417969-7.160156 4.417969zm0 0"/></svg>